<svg id="Layer_1" xmlns="http://www.w3.org/2000/svg" viewBox="-411 298 256 256"><style>.st0,.st1,.st2,.st3{fill:url(#SVGID_1_);stroke:#015491;stroke-miterlimit:10}.st1,.st2,.st3{fill:#fff}.st2,.st3{fill:url(#SVGID_2_)}.st3{fill:url(#SVGID_3_)}</style><radialGradient id="SVGID_1_" cx="-283.772" cy="424.625" r="84.379" gradientUnits="userSpaceOnUse"><stop offset=".005" stop-color="#0081d4"/><stop offset="1" stop-color="#0068aa"/></radialGradient><path class="st0" d="M-359.5 360.8s35.7-4.3 76.8-22.8c0 0 33.2 14.8 75.2 23.5 0 0 5 15 5.8 41.2s-6 85.5-81 108.5c0 0-81.3-22.8-83.1-102.6-.3-14.2 6.3-47.8 6.3-47.8z"/><path class="st1" d="M-348.1 371s27.5-3.2 65.2-20c0 0 37.7 17.6 64.2 21.5 0 0 3.1 20.2 3.8 32.4 1.2 21.7-8.5 74.1-68.7 91.6 0 0-67.4-19.8-69-88.7-.3-11.7 4.5-36.8 4.5-36.8z"/><radialGradient id="SVGID_2_" cx="-312.5" cy="403" r="30.167" gradientUnits="userSpaceOnUse"><stop offset=".005" stop-color="#0081d4"/><stop offset="1" stop-color="#0068aa"/></radialGradient><path class="st2" d="M-312.5 372.8c-16.7 0-30.2 13.5-30.2 30.2s13.5 30.2 30.2 30.2 30.2-13.5 30.2-30.2-13.5-30.2-30.2-30.2zm-9.3 30c-5.5 0-9.9-4.4-9.9-9.9s4.4-9.9 9.9-9.9 9.9 4.4 9.9 9.9c.1 5.5-4.4 9.9-9.9 9.9z"/><radialGradient id="SVGID_3_" cx="-272.085" cy="443.209" r="27.752" gradientUnits="userSpaceOnUse"><stop offset=".005" stop-color="#0081d4"/><stop offset="1" stop-color="#0068aa"/></radialGradient><path class="st3" d="M-248.5 448.2l-27.6-30.2c-.8-.9-1.7-1.7-2.7-2.4-.1 3-.8 5.8-2.1 8.3l26.6 29.1c1.6 1.7 1.6 4.2.1 5.6-1.5 1.4-4 1.1-5.6-.6l-25.7-28.1c-3.7 3.3-8.7 5.4-14.2 5.4h-.2l-.1.1v7.7h10.8v11.3l12 .8V466h10.2c5.6 5.6 13.9 6.4 19 1.8 5.3-4.8 5-13.6-.5-19.6z"/></svg>