<svg id="Layer_1" xmlns="http://www.w3.org/2000/svg" viewBox="-286 409.9 22 22"><style>.st0{fill:#fff}.st1{fill:#010101}</style><path class="st0" d="M-273.6 420.1v7h-2.8v-7c-.9.3-2.6.9-3.5 1.2 1.6-2.2 3.2-4.3 4.9-6.5 1.7 2.1 3.3 4.3 4.9 6.5-.9-.3-2.6-.9-3.5-1.2z"/><path d="M-275 412.3c-4.7 0-8.6 3.8-8.6 8.6s3.8 8.6 8.6 8.6 8.6-3.8 8.6-8.6-3.8-8.6-8.6-8.6zm0 16.2c-4.2 0-7.6-3.4-7.6-7.6s3.4-7.6 7.6-7.6 7.6 3.4 7.6 7.6-3.4 7.6-7.6 7.6z"/><path class="st1" d="M-279.9 421.3c.9-.3 2.6-.9 3.5-1.2v7h2.8v-7c.9.3 2.6.9 3.5 1.2-1.6-2.2-3.2-4.3-4.9-6.5-1.7 2.1-3.3 4.3-4.9 6.5z"/></svg>