<svg xmlns="http://www.w3.org/2000/svg" xmlns:xlink="http://www.w3.org/1999/xlink" id="Layer_1" viewBox="-411 298 256 256"><defs id="defs54"><radialGradient id="SVGID_3_-1" cx="-221.083" cy="457.875" r="56.75" fx="-166.382" fy="472.986" gradientTransform="matrix(1 0 0 -1 0 854)" gradientUnits="userSpaceOnUse"><stop offset="0" id="stop38-9" stop-color="#0081d4"/><stop offset="1" id="stop40-7" stop-color="#0068aa"/></radialGradient><radialGradient xlink:href="#SVGID_3_" id="radialGradient4240" gradientUnits="userSpaceOnUse" gradientTransform="matrix(1 0 0 -1 -307.264 1194.99)" cx="-221.083" cy="457.875" fx="-166.382" fy="472.986" r="56.75"/><radialGradient id="SVGID_3_-9" cx="-221.083" cy="457.875" r="56.75" fx="-166.382" fy="472.986" gradientTransform="matrix(1 0 0 -1 0 854)" gradientUnits="userSpaceOnUse"><stop offset="0" id="stop38-5" stop-color="#0081d4"/><stop offset="1" id="stop40-9" stop-color="#0068aa"/></radialGradient><radialGradient xlink:href="#SVGID_3_" id="radialGradient4254" gradientUnits="userSpaceOnUse" gradientTransform="matrix(1 0 0 -1 -369.01 1195.182)" cx="-221.083" cy="457.875" fx="-166.382" fy="472.986" r="56.75"/></defs><style id="style3">.st0,.st1,.st2,.st3{fill:url(#SVGID_1_);stroke:#015491;stroke-miterlimit:3}.st1,.st2,.st3{fill:#fff}.st2,.st3{fill:url(#SVGID_2_)}.st3{fill:url(#SVGID_3_)}</style><g id="Layer_2"><radialGradient id="SVGID_1_" cx="-342.75" cy="457.875" r="56.75" fx="-288.048" fy="472.986" gradientTransform="matrix(1 0 0 -1 0 854)" gradientUnits="userSpaceOnUse"><stop offset="0" id="stop8" stop-color="#0081d4"/><stop offset="1" id="stop10" stop-color="#0068aa"/></radialGradient><path class="st3" d="M-319.91 507.982c0 5.1-.5 6.1-6.8 6.1h-36.9c-3.1 0-5.4-.7-5.4-4.8v-162.6c0-4.5 1.2-5.5 5.3-5.5h37.7c4.3 0 5.9 1 5.9 4.6l.2 162.2z" id="path42-5" fill="url(#radialGradient4254)" stroke="#015491" stroke-miterlimit="3"/><path class="st3" d="M-258.164 507.79c0 5.1-.5 6.1-6.8 6.1h-36.9c-3.1 0-5.4-.7-5.4-4.8v-162.6c0-4.5 1.2-5.5 5.3-5.5h37.7c4.3 0 5.9 1 5.9 4.6l.2 162.2z" id="path42-4" fill="url(#radialGradient4240)" stroke="#015491" stroke-miterlimit="3"/><path class="st1" id="rect14" d="M-354.4 367.7h21.3v6.5h-21.3z"/><path class="st1" id="rect16" d="M-354.4 381.5h21.3v6.5h-21.3z"/><path class="st1" id="rect18" d="M-354.4 395.2h21.3v6.5h-21.3z"/><circle class="st1" cx="-343.8" cy="491.1" r="9.4" id="circle20"/><radialGradient id="SVGID_2_" cx="-282" cy="456.875" r="56.75" fx="-227.298" fy="471.986" gradientTransform="matrix(1 0 0 -1 0 854)" gradientUnits="userSpaceOnUse"><stop offset="0" id="stop23" stop-color="#0081d4"/><stop offset="1" id="stop25" stop-color="#0068aa"/></radialGradient><path class="st1" id="rect29" d="M-293.7 368.7h21.3v6.5h-21.3z"/><path class="st1" id="rect31" d="M-293.7 382.5h21.3v6.5h-21.3z"/><path class="st1" id="rect33" d="M-293.7 396.2h21.3v6.5h-21.3z"/><circle class="st1" cx="-283" cy="492.1" r="9.4" id="circle35"/><radialGradient id="SVGID_3_" cx="-221.083" cy="457.875" r="56.75" fx="-166.382" fy="472.986" gradientTransform="matrix(1 0 0 -1 0 854)" gradientUnits="userSpaceOnUse"><stop offset="0" id="stop38" stop-color="#0081d4"/><stop offset="1" id="stop40" stop-color="#0068aa"/></radialGradient><path class="st3" d="M-197.6 507.8c0 5.1-.5 6.1-6.8 6.1h-36.9c-3.1 0-5.4-.7-5.4-4.8V346.5c0-4.5 1.2-5.5 5.3-5.5h37.7c4.3 0 5.9 1 5.9 4.6l.2 162.2z" id="path42"/><path class="st1" id="rect44" d="M-232.8 367.7h21.3v6.5h-21.3z"/><path class="st1" id="rect46" d="M-232.8 381.5h21.3v6.5h-21.3z"/><path class="st1" id="rect48" d="M-232.8 395.2h21.3v6.5h-21.3z"/><circle class="st1" cx="-222.1" cy="491.1" r="9.4" id="circle50"/></g></svg>