<svg id="Layer_1" xmlns="http://www.w3.org/2000/svg" viewBox="-411 298 256 256"><style>.st0{fill:url(#SVGID_1_)}.st1{fill:none;stroke:#366181;stroke-width:2;stroke-miterlimit:3}.st2{fill:#fff}.st3{fill:url(#SVGID_2_);stroke:#366181;stroke-width:2;stroke-miterlimit:3}.st4{fill:url(#SVGID_3_)}.st5,.st6{fill:url(#SVGID_4_);stroke:#366181;stroke-width:2;stroke-miterlimit:3}.st6{fill:url(#SVGID_5_)}</style><g id="Layer_2"><radialGradient id="SVGID_1_" cx="-296.5" cy="411.167" r="73.189" fx="-263.332" fy="412.227" gradientTransform="matrix(1 0 0 -1 0 854)" gradientUnits="userSpaceOnUse"><stop offset="0" stop-color="#0081d4"/><stop offset="1" stop-color="#0068aa"/></radialGradient><path class="st0" d="M-222.3 491.3c0 2.2-1.8 4-4 4h-140.3c-2.2 0-4-1.8-4-4v-97c0-2.2 1.8-4 4-4h140.3c2.2 0 4 1.8 4 4v97z"/><path class="st1" d="M-222.3 491.3c0 2.2-1.8 4-4 4h-140.3c-2.2 0-4-1.8-4-4v-97c0-2.2 1.8-4 4-4h140.3c2.2 0 4 1.8 4 4v97z"/><path class="st2" d="M-328.2 431.8c0 2.2-1.8 4-4 4h-16.5c-2.2 0-4-1.8-4-4V418c0-2.2 1.8-4 4-4h16.5c2.2 0 4 1.8 4 4v13.8zM-352.8 460.2h9.5v8.8h-9.5zM-337.8 460.2h9.5v8.8h-9.5zM-317.2 460.2h9.5v8.8h-9.5zM-302.2 460.2h9.5v8.8h-9.5zM-283 460.2h9.5v8.8h-9.5zM-268 460.2h9.5v8.8h-9.5z"/><radialGradient id="SVGID_2_" cx="-340.527" cy="471.762" r="5.875" fx="-334.654" fy="471.585" gradientTransform="matrix(1 0 0 -1 0 854)" gradientUnits="userSpaceOnUse"><stop offset="0" stop-color="#0081d4"/><stop offset="1" stop-color="#0068aa"/></radialGradient><path class="st3" d="M-345.3 379.6l-.9 5.3h11.3"/></g><g id="Layer_3"><radialGradient id="SVGID_3_" cx="-270.649" cy="435.267" r="68.713" gradientTransform="matrix(1 0 0 -1 0 854)" gradientUnits="userSpaceOnUse"><stop offset="0" stop-color="#0081d4"/><stop offset="1" stop-color="#0068aa"/></radialGradient><path class="st4" d="M-337.5 356.9c-2.2-.4-4.2 1.1-4.6 3.3l-3.4 20.7c-.4 2.2 1.2 3.9 3.4 3.9H-220.2c2.2 0 4 1.8 4 4v88.1c0 2.2 1 3.9 2.3 3.7 1.2-.2 2.6-2.1 2.9-4.3l15.3-92.1c.4-2.2-1.1-4.2-3.3-4.6l-138.5-22.7z"/><path class="st1" d="M-337.5 356.9c-2.2-.4-4.2 1.1-4.6 3.3l-3.4 20.7c-.4 2.2 1.2 3.9 3.4 3.9H-220.2c2.2 0 4 1.8 4 4v88.1c0 2.2 1 3.9 2.3 3.7 1.2-.2 2.6-2.1 2.9-4.3l15.3-92.1c.4-2.2-1.1-4.2-3.3-4.6l-138.5-22.7z"/><radialGradient id="SVGID_4_" cx="-216.28" cy="455.657" r="0" gradientTransform="matrix(1 0 0 -1 0 854)" gradientUnits="userSpaceOnUse"><stop offset="0" stop-color="#0081d4"/><stop offset="1" stop-color="#0068aa"/></radialGradient><radialGradient id="SVGID_5_" cx="-318.25" cy="479" r="0" gradientTransform="matrix(1 0 0 -1 0 854)" gradientUnits="userSpaceOnUse"><stop offset="0" stop-color="#0081d4"/><stop offset="1" stop-color="#0068aa"/></radialGradient><g><path class="st2" d="M-343.8 376.7l-1.1 7.1h45.2zM-199.3 401.1l-16-2.8v20.5l12.9 2.2z"/></g></g></svg>