<svg id="Layer_1" data-name="Layer 1" xmlns="http://www.w3.org/2000/svg" viewBox="0 0 30.72 30.72"><defs><style>.cls-1{stroke:#005491;fill:url(#radial-gradient)}.cls-1,.cls-3{stroke-miterlimit:10;stroke-width:.25px}.cls-2{fill:#005491}.cls-3{fill:#fff;stroke:#004686}</style><radialGradient id="radial-gradient" cx="15.53" cy="16.3" r="11.84" gradientUnits="userSpaceOnUse"><stop offset="0" stop-color="#0095e8"/><stop offset="1" stop-color="#005491"/></radialGradient></defs><title>Building-v6</title><path class="cls-1" d="M18.05 13.56V6.53L6.77 9.18v16.89H24.28V13.56h-6.23z"/><rect class="cls-2" x="5.07" y="6.44" width="13.98" height="2.11" rx=".76" transform="rotate(-16.83 12.052 7.482)"/><rect class="cls-2" x="17.17" y="12.67" width="8.33" height="2.11" rx=".76" transform="rotate(12.89 21.32 13.73)"/><path class="cls-3" d="M11.05 12.43h2.68v2.56h-2.68zM11.05 9.07h2.68v2.56h-2.68zM11.05 19.27h2.68v5.1h-2.68zM11.05 15.91h2.68v2.56h-2.68zM19.86 17.46h1.55v1.48h-1.55zM19.86 15.52h1.55V17h-1.55zM19.86 21.43h1.55v2.96h-1.55zM19.86 19.48h1.55v1.48h-1.55z"/></svg>