<svg xmlns="http://www.w3.org/2000/svg" width="256" height="256" viewBox="0 0 256 256"><path fill="#015491" d="M41 192.5h172v5.75H41zM54.875 105.5L155.125 54l47 29v9.112L54.875 114.5z"/><path fill="#FFF" stroke="#015491" stroke-width="2" stroke-miterlimit="10" d="M46.25 117l110-51 52.25 29.5v95.25H46.25z"/><linearGradient id="a" gradientUnits="userSpaceOnUse" x1="150.25" y1="145" x2="51.736" y2="145"><stop offset="0" stop-color="#0081d4"/><stop offset="1" stop-color="#0068aa"/></linearGradient><path fill="url(#a)" stroke="#015491" stroke-miterlimit="10" d="M51.5 155.25l99.25-31.5v20l-99.25 22.5z"/><linearGradient id="b" gradientUnits="userSpaceOnUse" x1="150.75" y1="171.75" x2="51.5" y2="171.75"><stop offset="0" stop-color="#0081d4"/><stop offset="1" stop-color="#0068aa"/></linearGradient><path fill="url(#b)" stroke="#015491" stroke-miterlimit="10" d="M51.5 177.5l99.25-17.5v20.75L51.5 183.5z"/><linearGradient id="c" gradientUnits="userSpaceOnUse" x1="160.75" y1="100.875" x2="202.125" y2="100.875"><stop offset="0" stop-color="#0081d4"/><stop offset="1" stop-color="#0068aa"/></linearGradient><path fill="url(#c)" stroke="#015491" stroke-miterlimit="10" d="M160.75 82.25v22.25l41.375 15v-15.75z"/><linearGradient id="d" gradientUnits="userSpaceOnUse" x1="160.75" y1="138" x2="202.125" y2="138"><stop offset="0" stop-color="#0081d4"/><stop offset="1" stop-color="#0068aa"/></linearGradient><path fill="url(#d)" stroke="#015491" stroke-miterlimit="10" d="M160.75 123.75v19.75l41.375 8.75V135.5z"/><linearGradient id="e" gradientUnits="userSpaceOnUse" x1="160.75" y1="170.75" x2="202.125" y2="170.75"><stop offset="0" stop-color="#0081d4"/><stop offset="1" stop-color="#0068aa"/></linearGradient><path fill="url(#e)" stroke="#015491" stroke-miterlimit="10" d="M160.75 160v20.25l41.375 1.25v-15.25z"/><linearGradient id="f" gradientUnits="userSpaceOnUse" x1="150.75" y1="111.5" x2="51.5" y2="111.5"><stop offset="0" stop-color="#0081d4"/><stop offset="1" stop-color="#0068aa"/></linearGradient><path fill="url(#f)" stroke="#015491" stroke-miterlimit="10" d="M51.5 128l99.25-45.75v22.875L51.5 140.75z"/></svg>