<svg xmlns="http://www.w3.org/2000/svg" width="486.465" height="486.465" viewBox="0 0 486.465 486.465"><path d="M392.828 94.22L381.03 83.78a70.117 70.117 0 0 0-46.548-17.648c-20.102 0-39.258 8.603-52.558 23.606L248.16 127.84c-4.348 4.897-6.527 11.198-6.131 17.736.397 6.528 3.306 12.518 8.203 16.86l3.161 2.807a24.482 24.482 0 0 0 16.27 6.177l1.463-.042c6.528-.392 12.522-3.302 16.88-8.207l33.772-38.107c5.942-6.707 17.215-7.38 23.933-1.443l11.793 10.461c3.382 2.994 5.392 7.138 5.666 11.67.275 4.528-1.227 8.878-4.229 12.256l-73.862 83.32c-4.973 5.618-13.801 7.24-20.466 3.805-10.382-5.356-23.917-2.8-31.618 5.88l-.579.66c-5.394 6.067-7.64 14.13-6.178 22.153 1.477 7.976 6.444 14.816 13.642 18.583 9.961 5.207 21.199 8.07 32.493 8.07h.009c20.092 0 39.257-8.717 52.564-23.724l73.853-83.365c25.67-28.965 23.005-73.477-5.97-99.172z"/><path d="M232.964 313.451c-9.736-8.62-25.945-7.651-34.597 2.093L164.61 353.64c-5.941 6.703-17.207 7.398-23.917 1.455l-11.806-10.474c-3.381-2.996-5.392-7.14-5.666-11.668a16.777 16.777 0 0 1 4.227-12.248l73.855-83.315c4.897-5.53 13.566-7.201 20.154-3.964 10.77 5.305 24.472 2.72 32.799-6.707 5.294-5.964 7.518-13.886 6.115-21.697-1.393-7.857-6.23-14.522-13.26-18.28-10.115-5.416-21.563-8.28-33.096-8.28-20.101 0-39.257 8.607-52.557 23.612l-73.864 83.3c-25.685 28.965-23.01 73.42 5.955 99.105l11.798 10.314c12.836 11.381 29.365 17.509 46.542 17.509h.008c20.102 0 39.265-8.468 52.572-23.474l33.752-38.019c4.356-4.905 6.536-11.176 6.138-17.677-.38-6.459-3.373-12.603-8.218-16.885l-3.176-2.796z"/></svg>