<svg xmlns="http://www.w3.org/2000/svg" viewBox="0 0 256 256"><path fill="#D8DCE1" stroke="#005491" stroke-width="2" stroke-miterlimit="10" d="M35.82 82.502v117.186c0 7.88 6.411 14.291 14.291 14.291h154.343c7.88 0 14.291-6.411 14.291-14.291V82.502H35.82z"/><path fill="#015491" stroke="#005491" stroke-width="4" stroke-miterlimit="10" d="M204.454 42.487H50.111c-7.88 0-14.291 6.411-14.291 14.291v25.724h182.925V56.778c0-7.88-6.412-14.291-14.291-14.291zM58.686 71.069c-4.736 0-8.575-3.839-8.575-8.575s3.839-8.575 8.575-8.575 8.575 3.839 8.575 8.575-3.839 8.575-8.575 8.575zm137.194 0c-4.736 0-8.575-3.839-8.575-8.575s3.839-8.575 8.575-8.575a8.575 8.575 0 1 1 0 17.15z"/><path fill="#FFF" stroke="#015491" stroke-miterlimit="10" d="M127.283 108.225c-6.305 0-11.433 5.128-11.433 11.433s5.128 11.433 11.433 11.433 11.433-5.128 11.433-11.433-5.128-11.433-11.433-11.433zM98.701 108.225c-6.305 0-11.433 5.128-11.433 11.433s5.128 11.433 11.433 11.433 11.433-5.128 11.433-11.433-5.128-11.433-11.433-11.433zM70.119 108.225c-6.305 0-11.433 5.128-11.433 11.433s5.128 11.433 11.433 11.433 11.433-5.128 11.433-11.433-5.128-11.433-11.433-11.433zM155.865 108.225c-6.305 0-11.433 5.128-11.433 11.433s5.128 11.433 11.433 11.433 11.433-5.128 11.433-11.433-5.128-11.433-11.433-11.433zM184.447 131.091c6.305 0 11.433-5.128 11.433-11.433s-5.128-11.433-11.433-11.433-11.433 5.128-11.433 11.433 5.127 11.433 11.433 11.433zM127.283 136.807c-6.305 0-11.433 5.128-11.433 11.433s5.128 11.433 11.433 11.433 11.433-5.128 11.433-11.433-5.128-11.433-11.433-11.433zM98.701 136.807c-6.305 0-11.433 5.128-11.433 11.433s5.128 11.433 11.433 11.433 11.433-5.128 11.433-11.433-5.128-11.433-11.433-11.433zM70.119 136.807c-6.305 0-11.433 5.128-11.433 11.433s5.128 11.433 11.433 11.433 11.433-5.128 11.433-11.433-5.128-11.433-11.433-11.433zM155.865 136.807c-6.305 0-11.433 5.128-11.433 11.433s5.128 11.433 11.433 11.433 11.433-5.128 11.433-11.433-5.128-11.433-11.433-11.433zM184.447 136.807c-6.305 0-11.433 5.128-11.433 11.433s5.128 11.433 11.433 11.433 11.433-5.128 11.433-11.433-5.128-11.433-11.433-11.433zM127.283 165.389c-6.305 0-11.433 5.128-11.433 11.433s5.128 11.433 11.433 11.433 11.433-5.128 11.433-11.433-5.128-11.433-11.433-11.433zM98.701 165.389c-6.305 0-11.433 5.128-11.433 11.433s5.128 11.433 11.433 11.433 11.433-5.128 11.433-11.433-5.128-11.433-11.433-11.433zM70.119 165.389c-6.305 0-11.433 5.128-11.433 11.433s5.128 11.433 11.433 11.433 11.433-5.128 11.433-11.433-5.128-11.433-11.433-11.433zM155.865 165.389c-6.305 0-11.433 5.128-11.433 11.433s5.128 11.433 11.433 11.433 11.433-5.128 11.433-11.433-5.128-11.433-11.433-11.433zM184.447 165.389c-6.305 0-11.433 5.128-11.433 11.433s5.128 11.433 11.433 11.433 11.433-5.128 11.433-11.433-5.128-11.433-11.433-11.433z"/><g><path fill="#CCC" d="M58.686 66.782a4.287 4.287 0 0 1-4.287-4.287V42.487a4.287 4.287 0 0 1 8.574 0v20.007a4.287 4.287 0 0 1-4.287 4.288z"/></g><g><path fill="#CCC" d="M195.88 66.782a4.287 4.287 0 0 1-4.287-4.287V42.487a4.287 4.287 0 0 1 8.574 0v20.007a4.288 4.288 0 0 1-4.287 4.288z"/></g><g><path fill="#005491" d="M175.12 106.546h4.091v8.706h-4.091z"/><radialGradient id="a" cx="141.197" cy="115.353" r="15.989" gradientUnits="userSpaceOnUse"><stop offset="0" stop-color="#0081d4"/><stop offset="1" stop-color="#0068aa"/></radialGradient><path fill="url(#a)" stroke="#015491" stroke-width="2" stroke-miterlimit="10" d="M158.651 109.798c-5.559-8.811-17.098-11.434-25.909-5.979s-11.643 16.993-6.294 25.909l32.203-19.93z"/><radialGradient id="b" cx="213.029" cy="115.353" r="15.989" gradientUnits="userSpaceOnUse"><stop offset="0" stop-color="#0081d4"/><stop offset="1" stop-color="#0068aa"/></radialGradient><path fill="url(#b)" stroke="#015491" stroke-width="2" stroke-miterlimit="10" d="M195.575 109.798c5.559-8.811 17.098-11.434 25.909-5.979s11.643 16.993 6.294 25.909l-32.203-19.93z"/><radialGradient id="c" cx="177.113" cy="168.854" r="54.965" gradientUnits="userSpaceOnUse"><stop offset="0" stop-color="#0081d4"/><stop offset=".535" stop-color="#0080d2"/><stop offset=".728" stop-color="#007ccb"/><stop offset=".865" stop-color="#0075c0"/><stop offset=".976" stop-color="#006baf"/><stop offset="1" stop-color="#0068aa"/></radialGradient><circle fill="url(#c)" stroke="#015491" stroke-width="2" stroke-miterlimit="10" cx="177.113" cy="168.854" r="54.965"/><circle fill="#FFF" stroke="#005491" stroke-miterlimit="10" cx="177.113" cy="168.854" r="43.741"/><path fill="#005491" d="M177.113 173.05h-23.706c-2.308 0-4.196-1.888-4.196-4.196s1.888-4.196 4.196-4.196h19.511v-31.259a4.208 4.208 0 0 1 4.196-4.196 4.208 4.208 0 0 1 4.196 4.196v35.455a4.21 4.21 0 0 1-4.197 4.196z"/><circle fill="#005491" cx="177.113" cy="168.854" r="10.07"/><circle fill="#FFF" cx="177.113" cy="168.854" r="4.615"/><path fill="#005491" d="M184.246 102.77H169.98a2.932 2.932 0 0 0-2.937 2.937 2.932 2.932 0 0 0 2.937 2.937h14.266a2.932 2.932 0 0 0 2.937-2.937c0-1.678-1.259-2.937-2.937-2.937z"/></g></svg>