<svg id="Layer_1" xmlns="http://www.w3.org/2000/svg" viewBox="-411 298 256 256"><style>.st0{display:none}.st1{fill:none}.st2{fill:#045997}.st3{fill:#006db3}.st4{fill:#004577}.st5{fill:none;stroke:#015491;stroke-miterlimit:10}</style><g id="Layer_2"><path class="st1" d="M-371 425.4c-.1.2.2.5.5.7v-1.2c-.2.1-.4.2-.5.5zM-331.9 499.9c.1 0 .3.1.4.1.1 0 .2 0 .3-.1h-.7zM-344.1 451.3l-10.3 6.8s0 .1.1.1l10.2-6.8v-.1z"/><path class="st2" d="M-344.1 451.4l-10.2 6.8c.1.2.2.3.3.5.5.8 1.1 1.4 1.8 2.1s.5.6.8 1.2.3.5.3 1.2.1.6.5.8 0 .6 0 1.3c0 .7.5 1 .4 1.2s0 .9 0 1.3v.1l5.9-3.9.2-12.6z"/><path class="st3" d="M-217.9 397.6c.8-.9 1.9-2.1 2-2.4.2-.4 1-2.5 1.1-2.9s.5-.3.9-.4c.5-.1 1.1-1.7 2-1.6s5.2 3.5 5.4 3.5c.2 0 .5-.7.5-1 0-.4-.4-.9-.3-1.5.1-.6 1.1-1.9 1.2-2.6 0-.7-.5-.9-.4-1.4 0-.5.6-4.2.6-5.1s-.3-3.1-.3-3.7l.4-2c.1-.5-.1-2.3-.2-2.8-.1-.4-1-2.3-1-2.6s.1-2.4 0-2.7c-.1-.3-1.1-.5-1.1-.7s0-.7-.1-.9-.5-.6-.5-.8c0-.2.1-1.2-.1-1.4s-1.6-1.7-1.6-2.5.2-1.8.4-2.6-2.2-8.2-2.4-8.9c-.1-.7-1.2-.7-1.3-.8s-.5-.7-.8-.7-.3.5-.6.4c-.3 0 .1-.3-.2-.3-.2 0-.4.2-.9 0s.5-.5-1.1-.5-2 .6-2.5.8c0 0-1.3-.7-1.7-.7s-1 .9-1 .9h-.8s-.1.3 0-.1-.7-.9-1-1c-.2-.1-.8.4-1 .5-.2 0-.5-.5-.6-.6-.1-.1-.4-.3-1-.5s-.8-.5-.8-.5c-.3 0-.6 0-.8-.2s-.2-.5-1.2-.5-.8.3-1.2.3-.5-.3-.7-.3-.4.5-.7.6 0-.4-.5-.4-.9.7-1.5.6-.4-.4-.9-.4-.6.6-1.2.6-.3-.3-1-.3-.9 1.1-.9 1.5.4.1.3.8-.7.9-.9.9c-.2 0-.2-.2-.6-.2s-.4.7-.5.8-.2-.2-.5-.2c-.7-.1-1.1 1-1.3 1s-.1-.3-.5-.3-.3.3-.7.4c-.4.1-.2-.4-1.2-.4s-1.5 1-1.8 1c-.2 0-.7-.1-1 .2s-.2 1.2-.5 1.5c-.3.4-.5.2-.7.4s.1.5-.1 1-.6.2-.9.3c-.3.1-.3.8-.3 1.2s-.7.5-1 .5c-.3 0-.5.2-.7.4-.2.2.2 1.2-.6 1.2-.3 0-.1-.5-.5-.5-.2 0-.3.1-.6.3s-.6 1.3-.6 1.7c0 .4-.5.5-.9.5-.3 0-.7-.3-1-.3s-.6.1-1 .3 0 .5-.3.6c-.3 0-.5 0-.8.2-.2.1.2.7-.1.9-.3.2-1 .2-1.2.4s-.2 1.1-.4 1.1-.3-.2-.6-.2-.7.6-.7 1.2c-.1 1.5-.8 3.7-.8 3.7s-.1 2.4-.4 2.5c-.3.1-.3.4-.3.4h-.8c-.6 0-.8.9-1 .9-.2 0-1.4.5-1.7 1.6s-.6 1.3-1.6 1.3-3.8 1.5-4.1 1.4c-.3 0-.3-.4-.5-.6-.2-.2-.6.1-.7.5-.1.4.5 1.1.5 1.3 0 .3 0 .5-.4.6s-.3.5-.3.8c0 .2-.1.7-.3 1l24.8 16.6 29.2-.1zM-311.3 492c.3-.1.4.2.7.2.3.1.8-.4.8-.6 0-.1-.3-.2-.3-.5l-1.5 1s.2-.1.3-.1zM-308.7 490.1h.3c.8 0 1.4.5 1.7.1s1.2-1.1 1.6-.9c.3.1.9.5 1.1.5.2 0 .2-.5.3-.6s.3.1.4.6c.1.5 1.2.7 1.5.8s.1 0 .2-.2.5-.4.9-.4.3.4.7.7c.4.3 1.5 0 2 .2s.7 0 .6-.2c0-.3-.3-.4-.1-.9.2-.5 1.3-.4 2.4-.4 1.1-.1 1.7.1 2.3.4.5.3 1.3.3 2.1.5s1.7 0 2.7.5 1.2.1 1.7.8c.5.7 1.4-.2 2.4.2s1.6.1 1.6-.2-.3-.5-.3-.5c-.1-.3.6-.4.8-.9s-.5-1.5 2.3-1.4c1 .1 3.3 1.4 4.4 1.5 1.1.1 1.3-.6 1.4-.8 0-.2-1-1-1-1.8s2.6-1.8 4.1-1.8c1.5 0 2.6.8 2.6.8s2 0 2.2-.2c.2-.2 1.4-.3 1.9-.5s.9-.8.9-.8c.2-.1 1.1 0 1.4-.2s.4-.6.7-.6c.3-.1 1-.1 1.3-.2.3-.2.2-.6.3-.8.2-.2.9-.1 1-.3s1-.9 1.3-.9c.3 0 .3.1.5-.3s1.1-1.1 1.4-1.3c.2-.2.6-.3 1.1-.6s.9-.9 1.2-1.1.6-.2 1-.2c.4-.1 1.7-1.5 2.2-1.9s.9-1.6 1.3-1.9.9-.5 1.5-.7c.7-.2 3.8-3.2 4.7-4s3.8-4.2 3.9-4.4c.1-.2.1-.6.1-.7h.5c.1 0 .4-.3.5-.4.1 0 0-.5.2-.7s1.1-.9 1.2-1.1c.1-.2.2-.7.4-1 .2-.3 1.1-.5 1.7-.8.6-.3 1.1-1.5 1.5-1.9.4-.3.7-.4 1.2-.6.5-.2.7-.6 1.7-1.3 1-.7 2.1-2.3 2.6-3 .5-.7 2.9-4.5 3.3-5.3l-24-.1-61.4 41.2zM-314.2 494.4c1.2.1 1.9-1 1.9-1.2.1-.2-.1-.2-.1-.6v-.1l-2.6 1.7c.3.2.5.2.8.2z"/><path class="st2" d="M-331.1 499.1c.2-.4.7-.9 1.1-.9s.7 0 .7-.1c-.1-.4 1.3-1.3 1.3-1.3.2-.4 1-1.7 2.6-1.7 1 0 1.7.5 2 .6s.5-.3.5-.6-.4-.4-.5-.5c0-.1.3-.2.5-.1.2 0 .5 0 .5-.1s0-.4 1-.2c1 .1 2 .9 2.8.9s1.3-1 2.4-1c.3 0 .6.2 1.2.4l2.6-1.7c.1-.2.4-.3.7-.4l1.5-1v-.2c0-.4.7-.7 1.4-.8l61.5-41.3 24 .1c.5-.9 3.5-5.8 3.6-6.2.1-.4.8-1 1.2-1.3s.7-1.1.7-1.3c0-.1-.1-.8-.1-1.1 0-.1 0-.1.1-.2H-251l-88 58.4c-.1.2 0 .4.2.5.3.1.5-.2 1.1 0s2.1 1.8 2.4 1.8c.3 0 1.1-.4 1.7-.3.5.1 1.1.5 1.7.6h.6c.3-.3 0-.7.2-1zM-213.4 408.2c-.1-.1-.3-.1-.4-.2-.8-.3-.9-.3-1.3-.4-.4 0-.8-1.3-1-1.5s-1-.7-1-1c0-.3.2-.9.2-1.1 0-.2-.3-.3-.6-.6s-.3-.7-.5-.7-.3.4-.6.5c-.3.1-.4-.4-.4-.4s0-3.8.1-4.2c0-.1.4-.5.8-1h-29.4L-272 381c-.1.2-.1.3-.2.4-.3.4-.2 1.2-.4 1.5s-1 1.9-1 2.4c0 .6-.5 1-.7 1.3s-.2.8-.7 1.3-2 1.5-2.9 1.5c-.7 0-1.2-.3-1.8-.5l28.5 19.2 37.8.1zM-197.1 406.6c.1-.6.6-2.2.6-2.2s-5 .1-5.4 0-1.5-.7-1.9-.7-.3.3-.6.4c-.3 0-.1-.4-.1-.4 0-.1.3-.4.3-.4s-.3-.6-.5-.5-.3.7-1 .8c-.7.1-.3 2-.6 2.3-.3.3-.6 1.4-.6 2.1 0 .1 0 .2.1.3h9.3c.2-.8.4-1.5.4-1.7zM-301.7 423.2l-42.4 28v.2l-.2 12.5 61.3-40.7-32.4-21.6c-.1.5-1.1.9-1.4.9-.3 0-.7-.2-.9-.2s-.3.4-.5.4-.8-.7-1.3-.7c-.6 0-.8.7-.9.7-.1 0-.2-.3-.6-.3s-.7.3-1 .4-.4-.2-.9-.2-1.4-.8-1.8-.9c-.5 0-.8.3-.9.5s-.2.5-.6.5c-.3 0-.3.4-.7.4-.3 0-.4-.6-.5-.8-.1-.2-.3-.7-.3-.9 0-.2-.1-.4-.1-.7 0-.3.3-.8.3-1.1 0-.4-.6-.8-.5-1.4s.6-.8.8-.9c.2-.1.3-.7.3-.7.6-.3.9-1.4.9-1.7 0-.1.1-.2.2-.3l-9-6 .3 12.7 32.8 21.9z"/><path class="st4" d="M-301.7 423.2l-32.8-21.8.5 20.3c-.6.1-1 .2-1.5.6-.5.3-.2.7-.5.7-.4 0-.3-.4-.7-.4s-.4.4-.8.4-.5 0-.9.5c-.4.4-1 1.6-1.2 2.1-.2.5-.6.4-.8.4s-.5-.2-.8-.2-.6.4-.5.9.6.7.7 1c.1.3-.2.3-.5.4s-.5 0-.7.2c-.2.2-.2.5-.7.7-.5.1-.9-.7-1.5-1.1-.6-.4-2.6-.6-3.4-.6s-1.4.4-1.8.6l-1 .5c-.6 0-.7-.5-1-.5s-.6.6-1.4.7c-.8.2-2-2.1-4.1-2.1-.4 0-1.3.7-1.6.7s-.6-.3-.6-.5.3-.2.3-.3c0-.1-.3-.5-.7-.6-.4-.1-.7.6-1 .7-.3.1-.5-.4-.6-.5-.1-.1.4-.5.4-1s-.6-.5-.5-.7c0-.2-.4-.5-.4-.9s1-.9 1-1.4c0-.5-.8-.6-.8-.9 0-.2-.4-.6-.5-.6-.1 0-.5.3-1 .3s-.6-.6-.6-.9c0-.3.4-.2.4-.5s-.2-.3-.5-.3c-.2 0-.2-.1-.4-.4-.2-.3-.4-.5-.7-.5-.3 0-1 .7-1.2.7s-.2-.3-.2-.3-.3-.1-.3.2c0 .2.1 1.1-.3 1.3-.4.2-.3.5-.3.5s.1.6-.2.6-.6.2-.6.4.4.3.5.8c.1.5-.1.3-.2.8s-.1 1-.5 1-.2-.5-.8-.5-.9 1.2-1.1 1.3c-.1 0-.1.1-.2.1v1.2l.2.2c.3.3.2 1.4.3 1.8 0 .4 1.4 1 1.8 1.5.3.5 0 .5.2.9s1.1.8 1.2 1.3-.1.4.1 1.1 1.2 2.1 1.6 3.2 1 3.1 1 3.8c0 .8.5 1.3 1 1.8s.1.4.2 1.1c.1.7 0 .8.4 1.4.4.6.5 1.2.6 1.7s1 1.4 1.2 1.8c.2.4.7 1.2.9 1.8.2.6.8 1.1 1 1.5.2.3.3.8.4 1.4s.7 1.3 1.1 1.8 1.1 1.9 1.7 2.5c.4.5.7.9 1.1 1.4l10.3-6.8 42.3-28.3z"/><path class="st3" d="M-251 438.8h33.4c.2-.3.7-.4 1.1-.9.5-.6 1.2-2.6 2.2-3.8s4.8-4.4 4.7-4.7c0-.2.2-.4.3-.4h.1c.2 0 .3.3.8.3s2.1-1.2 2-1.4c-.1-.2-.5-.1-.5-.3s.2-.4.4-.4.9-.2 1.1-.4c.1-.2.8-.8 1.2-.8.4-.1 1.9-2.3 1.9-2.3v-1c0-.2.3-.7.4-.8s.4-.4.4-.6-.3-.2-.4-.1c-.1.1-.6.5-.6.1s0-1.2.1-1.7c.1-.4.4-.8.2-1.1-.1-.2-.6-.1-.8-.6s.3-1.4.6-1.3c.3 0 .2 1 .5 1s.2-1.1.6-1 .5 1 .8 1 .4-.3.3-.6c-.2-1.6 1.6-6 1.6-6.1 0-.1-.2-.3-.3-.3s-1-.1-1-.4c0-.3.9-.8 1-.6.1.2.5.9.7.8.1 0 .4-1.2.6-2.2h-9.3c.1.4.2.6.3 1 .1.6-.1.4-.4.5s-4.2-.6-4.8-.6c-.4 0-1.2-.6-1.8-.9h-37.8l-28.5-19.2c-.2-.1-.5-.2-.7-.2-.7 0-2.2 1.5-2.5 1.5s-.6-.5-.8-.5c-.2 0-.2.2-.7.3s-.9-.5-1.2-.5-.7-.8-1.1-.8-.3.5-.8.5-2.2-1.8-2.6-1.8-.6.5-.9.6-.7-.5-1.3-.5-2.2-2-2.5-2.1-2.5-2-2.9-2.1-.3.3-.6.3-.8-.4-1.5-.5-1.3.8-1.6.7c-.3-.1-.3-.3-.5-.2-.2.1-1.2 1.1-1.3 1.2-.1 0-.1.7-.2.8s-.5.2-.8.5c-.3.3-.1 1.9-.3 2.3-.1.4-.6.6-.6.8 0 .2.2.5.2.8s-.2.5-.4.8.2.3.2.6-.4.7-.9 1.2-.6 1.3-.8 1.8c-.2.5-.2.5-.5.5s-.2-.2-.7-.2c-.5 0-.4.8-.8 1.1s-1.4.5-1.9.8c-.5.3-.3.5-.5 1.5-.2 1.1-2 2.2-2.5 2.2s-.8-.4-1.2-.4c-.5 0-.7.3-.7.5 0 .3.4.5.3 1l32.4 21.6-61.3 40.7-5.9 3.9c0 .4.5.8.6 1.1.1.4-.4.6-.5 1.2s.4.6.5 1.5c.1.8-.4 1.2-.7 2.1-.2.9-1.4 1.8-2 1.7s-.6-.9-1.4-.9c-.8 0-.7 2.4-.7 2.8s.7 1.2 1.1 1.2.4-.4.6-.3c.2.1.2.2.2.5s.4.8.7 1c.3.3.3.5.2.7-.1.2-.3.1-.4 0s-.3-.4-.4-.7c-.1-.3-.3-.3-.5-.4s-.2.2-.3.6c-.1.4 1 .9 1.5 1.2.5.4.5.6.6 1 .1.4.2.6.9 1s.8.6.8.9c0 .3 0 .6.2.7s1.1 1.1 1.1 1.7c0 .6 0 .9-.1 1.7s-.4 1.4-.6 1.7-.1.8-.2 1.2.2.4.2.6c0 .2-.2.4-.2.7 0 .3.2.2.5.7.3.4.2.4.3.9.1.5.2.5.4.5.2.1.7-.1.7-.3 0-.2-.4-.5-.4-.7s.3-.3.3-.6-.5-.5-.5-.9.7-.4.8-.5c.1-.1.2-.2.4-.3s1.5-.1 2.1-.2.7.2.8.7c.1.4 0 1.1-.1 1.5s-.2.7-.3.9c-.1.2.1.6.4.9.3.3.3-.2.6-.3s.5-.2.7-.3.6-.1.9-.1.2-.2.4-.2.2 0 .3.2-.1.4-.1.8c0 .3.5.4 1 .4s.4-.3.5-.4.4-.1.5.1 0 .4 0 .5.3.1.4.5c0 .4-.2.8-.5.9-.1 0-.1.1-.1.1l88.1-58.2zM-325.8 394.7c.2-.2.5-.5.5-.8 0-.4-.5-.9-.5-.9s-.1-.8-.2-1.7c-.1-.9-.8-1-.8-1.1 0-.1.2-.2.2-.5s-.9-.9-.9-.9c-.1 0 .1-.2.1-.3s-.5-.3-.5-.5.5-.3.5-.5-.6-.8-.6-1c0-.2.2-.2.3-.4 0-.2-.3-.3-.3-.6s-.6-.1-.6-.2-.3-.4-.5-.5.1-.5-.1-1c-.2-.6-.9-.1-.9-1.1s-2.1-3.1-2.1-3.1c-.5-.4-.7.4-1.1-.3s-1.8-1.5-1.8-1.5l.3 10.9 9 6z"/></g><path class="st5" d="M-333.9 421.4l-1.2-44s1.5.8 1.8 1.5.6-.1 1.1.3c0 0 2.1 2.1 2.1 3.1s.7.6.9 1.1c.2.6-.1.9.1 1 .2.1.5.3.5.5s.6 0 .6.2.3.4.3.6-.2.2-.3.4c0 .2.6.8.6 1s-.5.3-.5.5.5.4.5.5c0 .1-.2.3-.1.3s.9.7.9.9c0 .3-.2.4-.2.5 0 .1.7.1.8 1.1.1.9.2 1.7.2 1.7s.4.5.5.9c0 .4-.6.8-.7 1.1 0 .3-.3 1.3-.9 1.7 0 0-.1.6-.3.7-.2.1-.6.2-.8.9s.5 1.1.5 1.4c0 .4-.3.8-.3 1.1 0 .3.1.5.1.7s.2.7.3.9c.1.2.2.8.5.8s.3-.4.7-.4c.3 0 .5-.4.6-.5.1-.2.4-.5.9-.5s1.3.9 1.8.9.6.3.9.2c.3-.1.6-.4 1-.4s.5.3.6.3.3-.7.9-.7 1.1.7 1.3.7c.2 0 .3-.4.5-.4s.6.2.9.2c.3 0 1.3-.5 1.4-.9.1-.5-.3-.8-.3-1 0-.3.2-.5.7-.5s.7.4 1.2.4 2.3-1.2 2.5-2.2c.2-1.1 0-1.2.5-1.5.5-.3 1.5-.5 1.9-.8.4-.3.3-1.1.8-1.1s.4.2.7.2c.3 0 .2 0 .5-.5.2-.5.4-1.3.8-1.8.5-.5.8-.8.9-1.2 0-.3-.3-.3-.2-.6s.4-.5.4-.8-.2-.6-.2-.8c0-.2.5-.5.6-.8.1-.4 0-2 .3-2.3s.8-.3.8-.5 0-.8.2-.8c.1 0 1.1-1.1 1.3-1.2.2-.1.3.2.5.2.3.1.9-.8 1.6-.7.7 0 1.2.5 1.5.5s.2-.4.6-.3c.4.1 2.5 2 2.9 2.1s2 2.1 2.5 2.1 1 .5 1.3.5c.3 0 .5-.6.9-.6s2.2 1.8 2.6 1.8c.5 0 .4-.4.8-.5s.8.8 1.1.8c.3 0 .7.6 1.2.5s.4-.3.7-.3c.2 0 .5.4.8.5.3 0 1.9-1.5 2.5-1.5s1.5.7 2.5.7 2.4-1.1 2.9-1.5c.5-.5.5-1 .7-1.3s.8-.7.7-1.3c0-.6.8-2.2 1-2.4s.1-1 .4-1.5.5-1.1.5-1.5-.2-.6.3-.8.4-.4.4-.6c0-.3-.6-.9-.5-1.3.1-.4.4-.7.7-.5s.2.6.5.6 3-1.4 4.1-1.4c1.1-.1 1.4-.3 1.6-1.3.3-1.1 1.4-1.6 1.7-1.6.2 0 .5-.9 1-.9h.8s0-.3.3-.4c.3-.1.4-2.5.4-2.5s.7-2.2.8-3.7c0-.6.4-1.2.7-1.2s.4.2.6.2.2-.9.4-1.1c.2-.2.9-.2 1.2-.4.3-.2-.1-.8.1-.9.2-.1.5-.1.8-.2.3 0-.1-.4.3-.6.4-.2.6-.3 1-.3s.7.3 1 .3c.3 0 .9-.2.9-.5 0-.4.2-1.5.6-1.7s.5-.3.6-.3c.5 0 .2.5.5.5.8 0 .4-.9.6-1.2.2-.2.4-.4.7-.4.3 0 1-.1 1-.5 0-.5 0-1.1.3-1.2.3-.1.8.2.9-.3s-.1-.8.1-1 .4 0 .7-.4.2-1.2.5-1.5.8-.2 1-.2.8-1 1.8-1 .8.5 1.2.4c.4-.1.4-.4.7-.4.4 0 .2.3.5.3s.6-1 1.3-1c.3 0 .3.2.5.2s.1-.8.5-.8.4.2.6.2c.2 0 .8-.3.9-.9s-.3-.4-.3-.8c0-.3.2-1.4.9-1.5.7 0 .4.3 1 .3s.7-.6 1.2-.6.2.3.9.4c.6.1 1-.6 1.5-.6s.2.5.5.4.5-.6.7-.6.3.3.7.3.2-.3 1.2-.3 1.1.3 1.2.5c.1.2.5.2.8.2 0 0 .2.4.8.5s.9.3 1 .5c.1.1.4.6.6.6.2 0 .8-.5 1-.5.2.1 1.1.6 1 1-.1.4 0 .1 0 .1h.8s.6-.9 1-.9 1.7.7 1.7.7c.4-.2.8-.8 2.5-.8s.7.2 1.1.5.6 0 .9 0-.1.3.2.3c.3 0 .4-.4.6-.4s.6.6.8.7 1.1.1 1.3.8c.1.7 2.5 8 2.4 8.9s-.4 1.9-.4 2.6c0 .8 1.4 2.3 1.6 2.5.2.2.1 1.2.1 1.4 0 .2.3.6.5.8.1.2.1.7.1.9 0 .1 1 .4 1.1.7.1.3 0 2.4 0 2.7 0 .3.9 2.1 1 2.6.1.4.3 2.2.2 2.8l-.4 2c-.1.5.3 2.8.3 3.7s-.5 4.6-.6 5.1.5.7.4 1.4c0 .7-1.1 2-1.2 2.6-.1.6.3 1.2.3 1.5 0 .4-.3 1.1-.5 1-.2 0-4.6-3.4-5.4-3.5s-1.5 1.4-2 1.6-.8.1-.9.4-.9 2.5-1.1 2.9-2.7 3-2.8 3.4-.1 4.2-.1 4.2.1.4.4.4c.3-.1.4-.5.6-.5s.1.4.5.7c.3.3.6.4.6.6 0 .2-.2.8-.2 1.1s.8.8 1 1 .5 1.5 1 1.5c.4 0 .5.1 1.3.4.8.3 1.7 1.1 2.2 1.1.5 0 4.4.7 4.8.6s.5.1.4-.5-.3-.7-.4-1.4.3-1.8.6-2.1c.3-.3-.1-2.2.6-2.3.7-.1.8-.8 1-.8s.5.5.5.5l-.3.4c0 .1-.2.5.1.4.3 0 .2-.4.6-.4.4 0 1.5.5 1.9.7s5.4 0 5.4 0-.5 1.7-.6 2.2c-.1.6-.8 3.7-1 3.8-.2.1-.6-.6-.7-.8-.1-.2-1 .3-1 .6s.8.4 1 .4c.1 0 .3.2.3.3s-1.8 4.5-1.6 6.1c0 .3-.1.6-.3.6s-.4-1-.8-1-.3 1-.6 1-.2-1-.5-1-.7.9-.6 1.3c.1.5.6.4.8.6.1.2-.1.6-.2 1.1-.1.4-.2 1.3-.1 1.7s.5-.1.6-.1c.1-.1.4-.1.4.1s-.2.5-.4.6c-.2.1-.4.6-.4.8v1s-1.5 2.2-1.9 2.3c-.4.1-1 .6-1.2.8-.1.2-.8.4-1.1.4s-.4.2-.4.4.4.1.5.3-1.6 1.4-2 1.4-.5-.3-.8-.3h-.1s-.3.1-.3.4c0 .3-3.7 3.5-4.7 4.7-1 1.2-1.7 3.1-2.2 3.8s-1.2.8-1.2 1.1.1 1 .1 1.1-.3 1-.7 1.3c-.5.3-1.1.8-1.2 1.3s-3.2 5.4-3.7 6.2-2.8 4.6-3.3 5.3-1.7 2.3-2.6 3c-1 .7-1.2 1.1-1.7 1.3-.5.2-.8.3-1.2.6s-.9 1.5-1.5 1.9c-.6.3-1.4.5-1.7.8s-.4.8-.4 1-1 1-1.2 1.1-.1.6-.2.7-.4.4-.5.4h-.5s0 .5-.1.7c-.1.2-2.9 3.6-3.9 4.4-1 .8-4 3.8-4.7 4-.7.2-1.1.4-1.5.7s-.8 1.5-1.3 1.9-1.9 1.8-2.2 1.9c-.4.1-.7.1-1 .2-.3.1-.7.7-1.2 1.1s-.8.4-1.1.6-1.1.9-1.4 1.3c-.3.4-.2.3-.5.3s-1.1.7-1.3.9-.9 0-1 .3c-.2.2 0 .6-.3.8-.3.2-1 .2-1.3.2-.3.1-.5.5-.7.6-.3.2-1.2.1-1.4.2 0 0-.4.6-.9.8s-1.7.4-1.9.5-2.2.2-2.2.2-1.1-.8-2.6-.8-4 1-4.1 1.8 1 1.6 1 1.8-.2 1-1.4.8-3.4-1.4-4.4-1.5c-2.8-.1-2.1 1-2.3 1.4s-.8.5-.8.9c0 0 .3.2.3.5s-.6.6-1.6.2-1.9.4-2.4-.2c-.5-.7-.7-.3-1.7-.8s-1.9-.3-2.7-.5-1.6-.2-2.1-.5-1.2-.4-2.3-.4-2.2-.1-2.4.4c-.2.5 0 .7.1.9 0 .3-.2.4-.6.2s-1.6.1-2-.2-.3-.6-.7-.7-.8.2-.9.4.1.4-.2.2c-.3-.1-1.4-.3-1.5-.8-.1-.5-.2-.6-.4-.6s-.1.6-.3.6c-.2 0-.8-.4-1.1-.5-.3-.1-1.3.6-1.6.9-.3.3-.9-.1-1.7-.1s-1.7.4-1.8.8.3.5.3.7-.5.7-.8.6-.4-.4-.7-.2-1 .3-1 .7c0 .4.2.4.1.6s-.8 1.3-1.9 1.2c-1.2-.1-1.5-.5-1.9-.5-1.1 0-1.6 1-2.4 1-.8 0-1.8-.8-2.8-.9s-1 .1-1 .2-.2.1-.5.1c-.2 0-.6 0-.5.1s.5.2.5.5-.1.7-.5.6c-.4-.1-1.1-.6-2-.6-1.6 0-2.4 1.4-2.6 1.7 0 0-1.4.8-1.3 1.3 0 .1-.4.1-.7.1-.3 0-.9.5-1.1.9-.2.4.3.9-.3.9s-1.5-.6-2.1-.7c-.6-.1-1.4.3-1.7.3s-1.8-1.6-2.4-1.8c-.7-.2-.8.2-1.1 0s-.4-.5-.1-.7c.3-.2.5-.5.5-.9s-.3-.3-.4-.5.1-.3 0-.5-.4-.2-.5-.1c-.1.1-.1.4-.5.4s-.9-.1-1-.4.2-.6.1-.8c-.1-.1-.1-.2-.3-.2s-.2.2-.4.2-.6 0-.9.1c-.3.1-.4.2-.7.3s-.3.6-.6.3-.5-.7-.4-.9.2-.5.3-.9c.1-.4.2-1 .1-1.5s-.3-.7-.8-.7c-.6 0-1.8.1-2.1.2s-.3.2-.4.3-.8.2-.8.5.5.6.5.9-.3.3-.3.6.4.5.4.7c0 .2-.5.4-.7.3-.2-.1-.3-.1-.4-.5s0-.5-.3-.9-.5-.4-.5-.7.1-.5.2-.7c0-.2-.3-.2-.2-.6.1-.4.1-.9.2-1.2.1-.3.4-1 .6-1.7s.1-1.1.1-1.7-1-1.5-1.1-1.7-.2-.4-.2-.7-.1-.5-.8-.9-.8-.6-.9-1 0-.7-.6-1c-.5-.4-1.5-.8-1.5-1.2.1-.4.1-.6.3-.6.2.1.4.1.5.4s.3.6.4.7.3.1.4 0c.1-.2.1-.4-.2-.7s-.7-.8-.7-1 0-.5-.2-.5c-.2-.1-.2.4-.6.3-.4 0-1.1-.8-1.1-1.2 0-.4-.1-2.8.7-2.8s.8.8 1.4.9 1.8-.8 2-1.7.7-1.2.7-2.1c-.1-.8-.5-.9-.5-1.5.1-.5.6-.8.5-1.2-.1-.4-.6-.7-.6-1.2s-.1-1.1 0-1.3-.4-.5-.4-1.2.4-1.2 0-1.3c-.3-.1-.5-.1-.5-.8s0-.6-.3-1.2-.2-.5-.8-1.2c-.7-.7-1.3-1.3-1.8-2.1s-.9-1.4-1.5-2c-.6-.7-1.2-2-1.7-2.5s-1-1.2-1.1-1.8c-.2-.6-.2-1-.4-1.4-.2-.3-.8-.9-1-1.5s-.6-1.4-.9-1.8c-.2-.4-1.2-1.3-1.2-1.8s-.2-1.1-.6-1.7c-.4-.6-.3-.7-.4-1.4s.3-.6-.2-1.1c-.5-.5-1-1-1-1.8s-.6-2.8-1-3.8-1.5-2.6-1.6-3.2 0-.6-.1-1.1-1-.9-1.2-1.3.1-.4-.2-.9c-.3-.5-1.7-1.1-1.8-1.5 0-.4.1-1.5-.3-1.8s-.8-.6-.7-.9c.1-.3.4-.5.7-.6.2-.1.5-1.3 1.1-1.3.6 0 .4.5.8.5s.4-.5.5-1c.1-.5.3-.3.2-.8-.1-.5-.5-.5-.5-.8s.3-.4.6-.4.2-.6.2-.6 0-.3.3-.5c.4-.2.3-1.1.3-1.3 0-.2.3-.2.3-.2s.1.2.2.3.9-.7 1.2-.7.5.2.7.5.2.4.4.4.5 0 .5.3-.4.2-.4.5.1 1 .6.9c.5 0 .9-.3 1-.3s.5.4.5.6c0 .2.8.4.8.9s-1 1-1 1.4.5.6.4.9.5.2.5.7-.5.9-.4 1 .3.6.6.5c.3-.1.6-.7 1-.7.4.1.8.5.7.6 0 .1-.4.2-.3.3s.3.5.6.5 1.3-.7 1.6-.7c2.1 0 3.3 2.2 4.1 2.1s1-.7 1.4-.7c.4 0 .5.5 1 .5 0 0 .5-.3 1-.5s1.1-.6 1.8-.6 2.8.2 3.4.6 1 1.3 1.5 1.1.5-.5.7-.7.4-.2.7-.2c.3 0 .5-.1.5-.4s-.6-.5-.7-1 .1-.9.5-.9.6.1.8.2c.2 0 .6.1.8-.4s.8-1.7 1.2-2.1c.4-.4.6-.5.9-.5s.3-.4.8-.4.4.5.7.4c.4 0 0-.4.5-.7.2.2.7 0 1.2 0z" id="Layer_3"/></svg>