<svg xmlns="http://www.w3.org/2000/svg" viewBox="0 0 256 256"><radialGradient id="a" cx="257.651" cy="953.334" r="65.812" gradientTransform="scale(-1) rotate(-45.478 -1227.466 877.841)" gradientUnits="userSpaceOnUse"><stop offset="0" stop-color="#0081d4"/><stop offset="1" stop-color="#0068aa"/></radialGradient><path fill="url(#a)" stroke="#015491" stroke-miterlimit="10" d="M141.653 190.727c-1.031-2.139-2.382-5.448-2.971-7.367-1.129-3.03-.832-3.624-6.179-3.446-2.852 0-4.218.238-5.162 2.67-1.086 2.799-2.483 5.474-3.675 8.234-.639 1.481-1.448 2.144-3.186 1.615-3.033-.924-6.115-1.697-9.205-2.412-1.66-.384-2.289-1.201-2.102-2.919.352-3.237.486-6.496.745-9.738.247-3.094-2.486-4.223-3.437-4.758-.381-.215-3.814-2.356-6.48-.023-1.458 1.276-5.428 4.535-6.964 5.736-1.096.857-1.976.865-2.975-.144a342.277 342.277 0 0 0-7.318-7.192c-1.046-.995-.977-1.866-.194-2.979 1.917-2.725 2.411-3.164 4.283-5.92 3.083-4.083.539-7.29.417-7.583-.833-2-2.203-3.634-4.051-3.471-3.244.285-6.492.56-9.721.971-1.716.219-2.54-.382-2.949-2.043-.758-3.08-1.588-6.147-2.546-9.17-.532-1.68-.06-2.528 1.513-3.206 2.834-1.221 5.591-2.618 8.38-3.944.22-.105.519-.169.634-.348.464-.716 1.374-1.612 1.212-2.184-.708-2.492 1.76-5.724-1.354-7.518-2.945-1.697-6.137-2.983-9.278-4.312-1.436-.608-1.753-1.422-1.355-2.848.899-3.212 1.745-6.44 2.523-9.683.357-1.489 1.166-1.956 2.636-1.809 3.159.317 6.334.472 9.491.808 1.469.156 2.586-.019 3.021-1.635.041-.152 2.209-5.957 2.26-6.108 1.25-3.75-3.917-6.25-5.667-8.083-2.167-2.417-1.25-4.083.083-5.167.721-.775 5.424-5.412 6.167-6.167 2.72-2.763 3.083-1.667 4.75-.333 2.19 1.547 4.271 3.474 6.417 5.083 3 2.25 6.314-.082 6.583-.25 2-1.25 4-1.75 3.417-4.917 0 0-.835-5.768-1.219-9.002-.186-1.569.303-2.428 1.886-2.831 3.231-.824 6.438-1.75 9.639-2.686 1.333-.39 2.129.001 2.709 1.267 1.422 3.102 2.693 5.595 3.985 8.753 1.5 3.667 5.17 2.065 5.583 2.083 4.25-.667 4.854-.844 5.833-4.083 1.083-3.583 2.417-7.583 2.417-7.583.667-2.667 2.333-2.083 4.244-1.567 3.298.891 6.603 1.762 9.923 2.567 2 .667 1.459 2.382 1.333 3.75 0 0-.919 5.179-1.25 8.5-.333 2.583.417 3 3.417 5 4.27 2.821 4.917 1.583 11.073-2.949 4.565-3.361 3.537-3.37 7.629.607 1.518 1.476 2.969 3.027 4.553 4.428 1.388 1.228 1.725 2.31.489 3.934-1.867 2.454-3.507 5.081-5.245 7.633-.229.336-.527.638-.696 1.001-.79 1.699 3.629 8.091 5.489 7.926 3.325-.296 6.651-.592 9.967-.97 1.473-.168 2.272.31 2.65 1.785a253.35 253.35 0 0 0 2.677 9.641c.431 1.444.026 2.278-1.336 2.89-2.964 1.331-5.861 2.814-8.836 4.121-1.289.566-2.053 1.245-1.684 2.745.076.311.115.665.046.971-1.062 4.724 1.243 7.097 5.547 8.317 1.778.504 3.393 1.557 5.128 2.247 1.439.572 1.714 1.478 1.32 2.888a256.726 256.726 0 0 0-2.524 9.682c-.36 1.512-1.202 1.925-2.649 1.785-3.16-.306-6.337-.45-9.491-.8-1.49-.166-2.566.043-3.02 1.631a1.544 1.544 0 0 1-.352.636c-3.674 3.788-2.222 7.104.82 10.407 1.201 1.305 2.284 2.799 3.054 4.386.371.764.265 2.264-.265 2.874-2.186 2.515-4.125 5.766-6.428 8.183-1.052 1.104-1.988 1.072-3.191.215-2.646-1.885-5.059-3.34-7.684-5.215s-6.662.965-6.958 1.083c-2.5 1-2.649 3.374-2.5 5.25.258 3.246.327 3.747.715 6.979.197 1.645-.199 2.59-1.941 3.011-3.161.763-6.273 1.73-9.421 2.55-.717.187-2.13 1.016-3.199-1.48z"/><path fill="#FFF" stroke="#015491" stroke-miterlimit="10" d="M140.315 127.812l-27.221-25.741c-.616-.537-1.908-.903-2.743-.763-.512.086-1.049 1.286-1.065 1.993-.066 3.078-.013 12.883-.013 12.883l-20.698-.017-31.846-40.239v108.524l32.06-43.081 20.31-.038v13.333c-.014.767.64 1.78 1.283 2 .683.234 2.369-1.806 3.046-2.333l26.478-22.787c1.52-1.191 1.743-2.379.409-3.734z"/><path fill="#FFF" d="M41.976 209c0 1.65 1.35 3 3 3h40.409c1.65 0 3-1.35 3-3v-41.343c0-1.65-1.35-3-3-3H44.976c-1.65 0-3 1.35-3 3V209z"/><path fill="none" stroke="#015491" stroke-miterlimit="10" d="M41.976 209c0 1.65 1.35 3 3 3h40.409c1.65 0 3-1.35 3-3v-41.343c0-1.65-1.35-3-3-3H44.976c-1.65 0-3 1.35-3 3V209z"/><path fill="#FFF" stroke="#015491" stroke-miterlimit="10" d="M49.196 172.446h27.12v4.085h-27.12zM49.196 181.516h27.12v4.085h-27.12zM49.196 190.83h18.211v4.085H49.196z"/><g><path fill="#FFF" d="M41.976 148.301c0 1.65 1.35 3 3 3h40.409c1.65 0 3-1.35 3-3v-41.343c0-1.65-1.35-3-3-3H44.976c-1.65 0-3 1.35-3 3v41.343z"/><path fill="none" stroke="#015491" stroke-miterlimit="10" d="M41.976 148.301c0 1.65 1.35 3 3 3h40.409c1.65 0 3-1.35 3-3v-41.343c0-1.65-1.35-3-3-3H44.976c-1.65 0-3 1.35-3 3v41.343z"/><path fill="#FFF" stroke="#015491" stroke-miterlimit="10" d="M49.196 111.414h27.12v4.085h-27.12zM49.196 120.483h27.12v4.085h-27.12zM49.196 129.797h18.211v4.085H49.196z"/></g><g><path fill="#FFF" d="M149.382 170.026c0 1.65 1.35 3 3 3h57.951c1.65 0 3-1.35 3-3V86.531c0-1.65-1.35-3-3-3h-57.951c-1.65 0-3 1.35-3 3v83.495z"/><path fill="none" stroke="#015491" stroke-miterlimit="10" d="M149.382 170.026c0 1.65 1.35 3 3 3h57.951c1.65 0 3-1.35 3-3V86.531c0-1.65-1.35-3-3-3h-57.951c-1.65 0-3 1.35-3 3v83.495z"/></g><g><path fill="#FFF" d="M41.976 89.021c0 1.65 1.35 3 3 3h40.409c1.65 0 3-1.35 3-3V47.678c0-1.65-1.35-3-3-3H44.976c-1.65 0-3 1.35-3 3v41.343z"/><path fill="none" stroke="#015491" stroke-miterlimit="10" d="M41.976 89.021c0 1.65 1.35 3 3 3h40.409c1.65 0 3-1.35 3-3V47.678c0-1.65-1.35-3-3-3H44.976c-1.65 0-3 1.35-3 3v41.343z"/><path fill="#FFF" stroke="#015491" stroke-miterlimit="10" d="M49.196 52.801h27.12v4.085h-27.12zM49.196 61.87h27.12v4.085h-27.12zM49.196 71.184h18.211v4.085H49.196z"/></g><g fill="#FFF" stroke="#015491" stroke-miterlimit="10"><path d="M156.5 107.862h19.547v4.612H156.5zM156.5 118.194h44.843v4.612H156.5zM156.5 128.434h44.843v4.612H156.5zM156.5 138.95h30.111v4.612H156.5z"/></g></svg>