<svg xmlns="http://www.w3.org/2000/svg" width="40pt" height="40pt" viewBox="0 0 40 40"><path d="M-57.119 6.78h40v40h-40v-40z" fill="#fff"/><path fill="#006db4" d="M14.29 5.62c8.26-3.5 18.63 1.96 20.49 10.69 2.4 8.45-4.15 17.86-12.79 18.88-6.77 1.05-14.13-2.99-16.44-9.54-3.3-7.55.88-17.39 8.74-20.03z"/><path fill="#fff" d="M15.32 9.46c6.1-2.84 14 1.01 15.57 7.53 1.84 6.16-2.58 13.14-8.89 14.2-5.39 1.16-11.17-2.21-12.95-7.39-2.15-5.47.87-12.15 6.27-14.34z"/><path d="M25.24 16.97l-2.835-2.634-2.719 2.879c-.988-.92-1.977-1.839-2.972-2.751l-2.718 2.88c.967.94 1.935 1.868 2.91 2.802l-2.71 2.914c.93.88 1.868 1.765 2.799 2.643.92-.96 1.84-1.906 2.761-2.866.989.92 1.977 1.825 2.965 2.744l2.719-2.88a544.108 544.108 0 0 0-2.91-2.802c.905-.974 1.811-1.948 2.71-2.928z" fill="#006db4"/></svg>