<svg xmlns="http://www.w3.org/2000/svg" viewBox="0 0 256 256"><path fill="#FFF" stroke="#005491" stroke-width="3" stroke-miterlimit="10" d="M206.245 164.547c-9.879 5.452-23.466 10.494-37.015 12.619-12.055 1.891-34.735-2.669-34.735-8.054 0-2.041 19.891 5.028 31.923 1.818 9.227-2.461 7.917-11.092 2.898-12.231-4.989-1.132-34.22-11.841-46.706-12.21-5.882-.174-20.402 2.046-27.429 3.19-2.407.392-3.916.349-4.067 2.652-.699 10.706-2.077 32.598-2.828 44.033-.016.242.32 3.491 3.001 1.204 2.935-2.503 7.051-5.277 10.859-4.413 5.973 1.355 57.65 10.822 64.778 9.166 10.197-2.37 39.063-19.477 44.597-24.794 8.578-8.243 1.909-16.946-5.276-12.98z"/><radialGradient id="a" cx="60.188" cy="173.936" r="23.284" gradientUnits="userSpaceOnUse"><stop offset=".492" stop-color="#0081d4"/><stop offset="1" stop-color="#0068aa"/></radialGradient><path fill="url(#a)" stroke="#005491" stroke-miterlimit="10" d="M76.854 149.261l-27.072-1.334c-2.09-.103-4.225 1.472-4.744 3.499l-4.922 44.692c-.519 2.027.768 3.752 2.859 3.833l30.002-.003c2.092.081 3.933-1.56 4.093-3.647l3.295-43.059a3.695 3.695 0 0 0-3.511-3.981zm-15.938 44.766a7.485 7.485 0 1 1 0-14.97 7.485 7.485 0 0 1 0 14.97z"/><radialGradient id="b" cx="151.924" cy="89.876" r="44.125" gradientUnits="userSpaceOnUse"><stop offset=".492" stop-color="#0081d4"/><stop offset="1" stop-color="#0068aa"/></radialGradient><circle fill="url(#b)" stroke="#005491" stroke-miterlimit="10" cx="151.924" cy="89.876" r="44.125"/><g><path fill="#FFF" stroke="#005491" stroke-miterlimit="10" d="M172.332 101.152c0-7.994-4.715-12.893-14.146-14.956l-3.319-.651v-13.74c2.534.531 4.534 2.032 5.532 4.035a4.982 4.982 0 0 0 4.459 2.768c3.856 0 6.358-4.251 4.305-7.515-2.68-4.261-7.703-7.118-14.296-7.85V60.87a3.384 3.384 0 1 0-6.768 0v2.372c-10.462 1.139-16.583 6.865-16.583 15.624 0 7.662 4.752 12.783 13.63 14.845l2.953.696v14.439c-2.99-.556-5.265-2.088-6.387-4.241-.872-1.673-2.566-2.753-4.453-2.753h-.498c-3.858 0-6.331 4.238-4.304 7.521 2.762 4.472 8.213 7.29 15.642 7.914v1.595a3.384 3.384 0 1 0 6.768 0v-1.63c11.17-1.151 17.465-6.916 17.465-16.1zm-30.17-23.207c0-3.215 2.429-5.648 5.937-6.194v12.37c-3.878-1.057-5.937-3.173-5.937-6.176zm12.704 31.033V95.689c4.797 1.079 7.04 3.216 7.04 6.642.001 3.732-2.596 6.18-7.04 6.647z"/></g></svg>