<svg xmlns="http://www.w3.org/2000/svg" viewBox="0 0 256 256"><radialGradient id="a" cx="126.514" cy="128" r="62.337" gradientUnits="userSpaceOnUse"><stop offset="0" stop-color="#0081d4"/><stop offset="1" stop-color="#0068aa"/></radialGradient><path fill="url(#a)" d="M141.819 44.275c-1.904-1.985-5.711-3.608-8.461-3.608h-65.51c-2.75 0-5 2.25-5 5v164.667c0 2.75 2.25 5 5 5h117.333c2.75 0 5-2.25 5-5V99.692c0-2.75-1.558-6.624-3.461-8.608l-44.901-46.809z"/><path fill="none" stroke="#015491" stroke-width="3" stroke-miterlimit="10" d="M141.819 44.275c-1.904-1.985-5.711-3.608-8.461-3.608h-65.51c-2.75 0-5 2.25-5 5v164.667c0 2.75 2.25 5 5 5h117.333c2.75 0 5-2.25 5-5V99.692c0-2.75-1.558-6.624-3.461-8.608l-44.901-46.809z"/><path fill="#015491" d="M134.535 40.667s.292 49.807.292 51.641c0 1.833 2.366 8.833 8.787 8.833h46.567L189.597 95l-50.085-53.054-4.977-1.279z"/><g fill="#FFF"><path d="M130.687 197.232l17.616-11.961-10.627-8.151-6.989 20.112zm8.95-13.568l1.836 1.409-3.044 2.067 1.208-3.476zM137.964 176.552l10.812 8.295 53.794-70.125-10.813-8.295-53.793 70.125zm58.998-61.09l-48.925 63.777-4.466-3.426 48.924-63.777 4.467 3.426z"/><path d="M208.691 100.166l-4.458-3.42a4.875 4.875 0 0 0-6.823.9l-3.688 4.807a5.453 5.453 0 0 0-2.521-.254 5.453 5.453 0 0 0-3.639 2.1l-53.427 69.646-.181.254-.063.102c-.063.091-.12.184-.163.263a4.336 4.336 0 0 0-.28.635l-6.842 19.688-.262.263v.531a4.75 4.75 0 0 0 1.705 4.99 4.784 4.784 0 0 0 2.895.983 4.76 4.76 0 0 0 2.687-.832l17.621-11.966c.185-.125.362-.268.533-.429l.211-.221c.039-.04.076-.081.118-.128l.188-.192.058-.115 26.011-33.907c.287.676.744 1.27 1.342 1.729.76.584 1.667.893 2.625.893a4.279 4.279 0 0 0 3.423-1.688l20.31-26.476a5.641 5.641 0 0 0-1.041-7.9l-.632-.485 1.316-1.716a5.5 5.5 0 0 0 .185-6.425l3.688-4.807a4.876 4.876 0 0 0-.896-6.823zm-2.279 4.388l-5.953 7.76 1.805 1.386c.651.5.775 1.436.276 2.087l-3.752 4.89 3.807 2.919c.715.549.851 1.577.302 2.292l-20.31 26.476c-.18.233-.331.137-.438.057-.085-.065-.111-.148-.119-.207s-.004-.146.062-.23l20.924-27.276-4.606-3.535-49.231 64.178-17.809 12.173c-.336.228-.561.223-.886-.026-.249-.191-.354-.514-.281-.77l7.041-20.243.146-.211 53.346-69.539c.241-.315.592-.517.987-.569.39-.052.785.052 1.1.293l1.806 1.386 5.955-7.763a.87.87 0 0 1 1.215-.161l4.454 3.417.021.016a.87.87 0 0 1 .138 1.2z"/><path d="M195.116 108.219l6.1-7.956 4.84 3.71-6.1 7.956z"/></g><path fill="#FFF" d="M168.992 116.473H77.841a2.312 2.312 0 1 0 0 4.624h91.151a2.312 2.312 0 1 0 0-4.624zM146.897 140.333H77.841a2.312 2.312 0 1 0 0 4.624h69.056a2.312 2.312 0 1 0 0-4.624zM119.563 188.052H77.841a2.312 2.312 0 1 0 0 4.624h41.722a2.312 2.312 0 1 0 0-4.624zM178.992 188.052h-20.45a2.312 2.312 0 1 0 0 4.624h20.45a2.312 2.312 0 1 0 0-4.624zM118.27 73.605L98.936 55.442a2.312 2.312 0 0 0-3.166 0L76.435 73.605a2.312 2.312 0 1 0 3.165 3.37L97.352 60.3l17.751 16.676a2.305 2.305 0 0 0 1.583.627 2.312 2.312 0 0 0 1.584-3.998z"/><path fill="#FFF" d="M111.805 79.587L99.97 68.469a3.83 3.83 0 0 0-5.234 0L82.901 79.587a3.837 3.837 0 0 0-1.205 2.786v16.173a3.826 3.826 0 0 0 3.822 3.822h23.67a3.826 3.826 0 0 0 3.822-3.822V82.373a3.835 3.835 0 0 0-1.205-2.786zm-10.791 18.156h-7v-9.41h7v9.41zm2.659 0v-9.481a3.162 3.162 0 0 0-3.159-3.159h-6.322a3.162 3.162 0 0 0-3.159 3.159v9.481H86.32V82.72l11.033-10.365 11.033 10.365v15.024h-4.713zM126.774 164.192h-20.735c-1.027 0-1.859 1.035-1.859 2.312s.832 2.312 1.859 2.312h20.735c1.027 0 1.859-1.035 1.859-2.312 0-1.276-.832-2.312-1.859-2.312zM98.743 153.937c-1.209-.967-2.66-.484-3.385.484L84.96 168.93l-5.32-5.32c-.967-.967-2.418-.967-3.385 0-.967.967-.967 2.418 0 3.385l7.254 7.254c.484.484.967.725 1.693.725.967 0 1.451-.484 1.935-.725l12.091-16.927c.965-1.209.482-2.66-.485-3.385zM131.633 197.167l17.597-10.878 54.031-71.872-3.495-2.5 6.748-8.844-6.748-3.156-6.502 8-3.25-.5-52.479 69.5z"/><g><path fill="#015491" d="M207.472 101.752l-.002-.001-4.454-3.417a2.872 2.872 0 0 0-4.02.53l-4.737 6.175-.219-.168a3.494 3.494 0 0 0-4.892.644l-53.462 69.691-.001.002-.001.001c-.042.054-.074.114-.11.171-.029.046-.063.089-.088.137a2.296 2.296 0 0 0-.148.337l-6.993 20.12-.001.003-.004.013a2.757 2.757 0 1 0 4.154 3.186l.013-.009h.001l17.621-11.966c.099-.067.193-.143.281-.226.037-.035.069-.075.103-.112.046-.049.095-.096.137-.148l.009-.012.006-.006 48.114-62.72 1.434 1.1-19.707 25.69a2.313 2.313 0 0 0 3.668 2.815l20.31-26.476a3.64 3.64 0 0 0-.671-5.096l-2.219-1.702 2.534-3.303a3.493 3.493 0 0 0-.645-4.891l-.219-.168 4.736-6.174a2.873 2.873 0 0 0-.528-4.02zm-72.914 90.434l4.099-11.795 6.231 4.78-10.33 7.015zm13.849-10.143l-7.639-5.86 51.359-66.951 7.64 5.86-51.36 66.951zm51.187-72.912l-1.665-1.277 3.667-4.781 1.665 1.277-3.667 4.781z"/></g></svg>