<svg xmlns="http://www.w3.org/2000/svg" xmlns:xlink="http://www.w3.org/1999/xlink" viewBox="0 0 256 256"><defs><style>.cls-1,.cls-4{stroke:#005491;stroke-miterlimit:10}.cls-1{stroke-width:2px;fill:url(#radial-gradient)}.cls-2{fill:#fff}.cls-3{fill:#005491}.cls-4{fill:url(#radial-gradient-2)}</style><radialGradient id="radial-gradient" cx="89.17" cy="152.91" r="55.54" gradientUnits="userSpaceOnUse"><stop offset=".49" stop-color="#0081d4"/><stop offset="1" stop-color="#0068aa"/></radialGradient><radialGradient id="radial-gradient-2" cx="130" cy="99.25" r="29.21" xlink:href="#radial-gradient"/></defs><title>icon</title><g id="Meter_management" data-name="Meter management"><path class="cls-1" d="M78 98a57.72 57.72 0 0 1 .36-6.35H49.43a9.43 9.43 0 0 0-9.43 9.42v103.67a9.43 9.43 0 0 0 9.43 9.43h79.48a9.43 9.43 0 0 0 9.43-9.43v-49.68c-1.05.06-2.11.09-3.17.09A57.16 57.16 0 0 1 78 98z"/><path class="cls-2" d="M136.88 141.9a46 46 0 1 1 46-46 46 46 0 0 1-46 46z"/><path class="cls-3" d="M136.88 55.5A40.45 40.45 0 1 1 96.43 96a40.5 40.5 0 0 1 40.45-40.5m0-11A51.45 51.45 0 1 0 188.33 96a51.45 51.45 0 0 0-51.45-51.5z"/><rect class="cls-3" x="176.99" y="118.17" width="23.33" height="56.48" rx="5.57" ry="5.57" transform="rotate(-45 188.654 146.407)"/><path class="cls-2" d="M63.5 172.5h52.83v4.5H63.5zM63.5 191h52.83v4.5H63.5zM63.5 152.91h32.17v4.5H63.5zM63.5 136.99h13.58v4.5H63.5z"/><path class="cls-4" d="M144.58 75.5h-27.87A28.77 28.77 0 0 0 153 119.9v-36a8.37 8.37 0 0 0-8.42-8.4z"/><path class="cls-2" d="M109 93.41h30.17v4.5H109zM139.17 116.28h-21.51l-3.82-4.5h25.33v4.5z"/></g></svg>