<svg xmlns="http://www.w3.org/2000/svg" viewBox="0 0 256 256"><path fill="#FFF" d="M49.333 130.391l45.5 1.984 6.334 12.667 46.333 1.166 12-14.166 44.5-1.651-9.5-21.683-14-28.166H166l-1.936-8H87.167l-3.334 7-13.666 4.996z"/><radialGradient id="a" cx="126.5" cy="165.413" r="63.404" gradientUnits="userSpaceOnUse"><stop offset=".492" stop-color="#0081d4"/><stop offset="1" stop-color="#0068aa"/></radialGradient><path fill="url(#a)" stroke="#005491" stroke-miterlimit="10" d="M44 145.542v49.685l14.5 5.315h146.608l3.892-12.5-3.892-53.371-10.608-4.28-32.5-.106-15.785 19.686L102 146.542l-6.5-16.151-44-.106z"/><path fill="#005491" d="M210.811 132.903l.053-.027-24.919-49.267a11.71 11.71 0 0 0-10.498-6.455h-4.736v-4.58a3.323 3.323 0 0 0-3.323-3.323H86.123a3.323 3.323 0 0 0-3.323 3.323v4.58h-4.736a11.708 11.708 0 0 0-10.498 6.455l-24.92 49.267.053.027a11.573 11.573 0 0 0-1.683 6.022v52.049c0 6.418 5.221 11.639 11.639 11.639h148.198c6.418 0 11.639-5.221 11.639-11.639v-52.049a11.56 11.56 0 0 0-1.681-6.022zM170.71 84.538h4.736a4.36 4.36 0 0 1 3.909 2.404l20.406 40.344h-13.876v-12.414a3.323 3.323 0 0 0-3.323-3.323h-4.111V93.723a3.323 3.323 0 0 0-3.323-3.323h-4.418v-5.862zm8.53 33.657v9.091h-17.536a7.678 7.678 0 0 0-6.988 4.515l-4.788 10.62a.283.283 0 0 1-.256.165h-45.833a.283.283 0 0 1-.256-.165l-4.788-10.619a7.679 7.679 0 0 0-6.988-4.516H74.271v-9.091H179.24zM89.447 75.896h74.617V90.4H89.447V75.896zm82.358 21.15v14.503h-90.1V97.046h90.1zM74.156 86.942a4.36 4.36 0 0 1 3.909-2.404H82.8V90.4h-4.418a3.323 3.323 0 0 0-3.323 3.323v17.826h-4.111a3.323 3.323 0 0 0-3.323 3.323v12.414H53.749l20.407-40.344zm126.699 108.285H52.656a4.259 4.259 0 0 1-4.254-4.254v-52.049a4.259 4.259 0 0 1 4.254-4.254h39.151a.28.28 0 0 1 .256.166l4.788 10.619a7.678 7.678 0 0 0 6.988 4.515h45.833a7.677 7.677 0 0 0 6.988-4.515l4.788-10.62a.283.283 0 0 1 .256-.165h39.151a4.259 4.259 0 0 1 4.254 4.254v52.049a4.259 4.259 0 0 1-4.254 4.254z"/><path fill="#FFF" d="M103 165.413h47.5v16.129H103z"/><path fill="#005491" d="M147.868 161.165H105.55a5.79 5.79 0 0 0-5.784 5.784v12.979a5.79 5.79 0 0 0 5.784 5.784h42.318a5.79 5.79 0 0 0 5.784-5.784v-12.979a5.792 5.792 0 0 0-5.784-5.784zm-1.653 17.111h-39.012v-9.674h39.012v9.674z"/></svg>