<svg id="svg2" xmlns="http://www.w3.org/2000/svg" xmlns:xlink="http://www.w3.org/1999/xlink" viewBox="-411 298 256 256"><style>.st0{fill:#015f9f}.st1{fill:#fff}.st2,.st3{fill:url(#SVGID_1_);stroke:#015491;stroke-width:2;stroke-miterlimit:10}.st3{clip-path:url(#SVGID_3_);fill:url(#path28_1_)}.st4{fill:#0171b9}.st5{fill:#dce8f0}.st6{fill:none;stroke:#fff;stroke-width:5;stroke-miterlimit:10}</style><circle class="st0" cx="-283.2" cy="425.1" r="87.7"/><circle class="st1" cx="-283.2" cy="425.1" r="73.7"/><linearGradient id="SVGID_1_" gradientUnits="userSpaceOnUse" x1="-328.321" y1="424.746" x2="-235.273" y2="424.746"><stop offset="0" stop-color="#0081d4"/><stop offset="1" stop-color="#0068aa"/></linearGradient><path class="st2" d="M-243 380c-5.4-9-15.1-14.7-25.2-16.7-11.4-2.2-23.8-2.1-34.5 2.9-12.2 5.7-20.6 17.9-23.1 30.9-.9 5.5.3 11 2 16.2 1.1 7.2.9 14.5.9 21.7-1 4.8-6.1 8.5-5.5 13.8 2 2.2 5.1 2.6 7.7 3.6-.1 3.6-.6 7.3 0 10.9 1 4 3.2 7.5 5 11.1 3.8 7.2 11.5 12.1 19.7 12.7 3.4.2 7.7.9 10.3-1.9 2.2-3.7 2.9-8.1 5.4-11.7 6.9-10 18.3-16.6 30.3-18.2 3.9-1 9.6-.4 11.3-4.9.9-6.2-1.2-12.8 1.4-18.8 1.5-3.7 1.6-7.7 1.8-11.6.6-13.4 0-28.1-7.5-40z"/><defs><circle id="SVGID_2_" cx="-283.2" cy="425.1" r="73.7"/></defs><clipPath id="SVGID_3_"><use xlink:href="#SVGID_2_" overflow="visible"/></clipPath><linearGradient id="path28_1_" gradientUnits="userSpaceOnUse" x1="-276.86" y1="480.595" x2="-239.81" y2="480.595"><stop offset="0" stop-color="#0081d4"/><stop offset="1" stop-color="#0068aa"/></linearGradient><path id="path28" class="st3" d="M-276.9 478.9c5.1-8.9 13.2-15.3 22.3-17.1 4.9 8.4 9.9 16.7 14.7 25.1-5.5 5.6-12.4 9.2-19.3 12-2.4 1.3-5-.1-7.3-1-3.7-6.9-6.6-12.2-10.4-19z"/><g><path class="st4" d="M-276.9 375.7c-5.2.4-10.7 1.3-14.8 4.9-5 4.2-6.8 10.8-7.2 17h22v-21.9z"/><path class="st5" d="M-262.9 380.4c-3.8-3.4-9-4.3-14-4.7v22c6.8-.1 13.6.2 20.5-.2h1.1c-1-6.3-2.6-12.9-7.6-17.1zM-298.9 397.6c.8 5.6 2.6 11.3 6.9 15.1 4.1 3.9 9.9 4.7 15.2 5.9 0-7-.1-14-.2-21h-21.9z"/><path class="st4" d="M-276.9 397.6c.1 7 .1 14 .2 21 5.2-.8 10.6-2.6 14.3-6.5 4-3.8 5.6-9.3 6-14.7-6.9.4-13.7.2-20.5.2z"/><circle class="st6" cx="-277.1" cy="397.1" r="21.2"/></g></svg>