<svg xmlns="http://www.w3.org/2000/svg" xmlns:xlink="http://www.w3.org/1999/xlink" width="60" height="60" viewBox="0 0 60 60"><defs><path id="a" d="M9.8 2.7h26v17.5h-26z"/></defs><clipPath id="b"><use xlink:href="#a" overflow="visible"/></clipPath><g clip-path="url(#b)"><linearGradient id="c" gradientUnits="userSpaceOnUse" x1="13.792" y1="14.362" x2="18.375" y2="14.362"><stop offset="0" stop-color="#0068aa"/><stop offset=".039" stop-color="#006cb0"/><stop offset=".198" stop-color="#0078c4"/><stop offset=".356" stop-color="#007fd0"/><stop offset=".516" stop-color="#0081d4"/><stop offset=".675" stop-color="#007fd1"/><stop offset=".814" stop-color="#0079c6"/><stop offset=".945" stop-color="#006eb4"/><stop offset="1" stop-color="#0068aa"/></linearGradient><path fill="url(#c)" stroke="#015491" stroke-width="2" stroke-miterlimit="10" d="M18.4 20.9c0 1.1-.9 2-2 2h-.6c-1.1 0-2-.9-2-2v-13c0-1.1.9-2 2-2h.6c1.1 0 2 .9 2 2v13z"/><linearGradient id="d" gradientUnits="userSpaceOnUse" x1="27.708" y1="14.362" x2="32.292" y2="14.362"><stop offset="0" stop-color="#0068aa"/><stop offset=".039" stop-color="#006cb0"/><stop offset=".198" stop-color="#0078c4"/><stop offset=".356" stop-color="#007fd0"/><stop offset=".516" stop-color="#0081d4"/><stop offset=".675" stop-color="#007fd1"/><stop offset=".814" stop-color="#0079c6"/><stop offset=".945" stop-color="#006eb4"/><stop offset="1" stop-color="#0068aa"/></linearGradient><path fill="url(#d)" stroke="#015491" stroke-width="2" stroke-miterlimit="10" d="M32.3 20.9c0 1.1-.9 2-2 2h-.6c-1.1 0-2-.9-2-2v-13c0-1.1.9-2 2-2h.6c1.1 0 2 .9 2 2v13z"/></g><linearGradient id="e" gradientUnits="userSpaceOnUse" x1="10.458" y1="32.112" x2="35.212" y2="32.112"><stop offset="0" stop-color="#0068aa"/><stop offset=".039" stop-color="#006cb0"/><stop offset=".198" stop-color="#0078c4"/><stop offset=".356" stop-color="#007fd0"/><stop offset=".516" stop-color="#0081d4"/><stop offset=".675" stop-color="#007fd1"/><stop offset=".814" stop-color="#0079c6"/><stop offset=".945" stop-color="#006eb4"/><stop offset="1" stop-color="#0068aa"/></linearGradient><path fill="url(#e)" stroke="#015491" stroke-width="2" stroke-miterlimit="10" d="M35.2 25.4v-5.7H10.5v5.7s0 2 .2 2.8l.3 1.1c1.3 3.7 4.4 6.5 8.4 7.6v7.6h6.8v-7.6c4-1 7.1-3.8 8.5-7.6l.4-1.2c.2-.8.1-2.7.1-2.7z"/><path fill="none" stroke="#015491" stroke-width="2" stroke-miterlimit="10" d="M53.8 44.1s-.2-10.4-10.1-10.4-10.3 9-10.3 10v4.6c0 .3.4 4.9-4.9 4.9s-5.6-2.9-5.6-4.3v-4.1"/></svg>