<svg xmlns="http://www.w3.org/2000/svg" width="256pt" height="256pt" viewBox="0 0 256 256"><defs><radialGradient gradientUnits="userSpaceOnUse" r="42.772" cy="128" cx="129" id="a"><stop offset="0" stop-color="#0081d4"/><stop offset="1" stop-color="#0068aa"/></radialGradient></defs><path fill="#015491" d="M111.64 44.74c11.34-6.21 25.35-6.04 37.26-1.54 8.58 3.25 15.65 9.95 19.64 18.19 5.81 11.85 6.72 25.55 5.24 38.5 3.5.79 7.01 1.55 10.51 2.33-.39 2.09-.92 4.14-1.35 6.21-5.31-1.13-10.6-2.35-15.9-3.51 15.6 26.79 31.03 53.68 46.55 80.51 6.05 10.54-2.28 26.13-14.54 26.55-47.42.05-94.83 0-142.25.02-7.14-1.2-14.54-6.19-15.61-13.83-.5-5.65.1-11.76 3.31-16.6 19.4-33.03 38.49-66.24 57.82-99.3-7.19-.62-14.48.35-21.61-.32.83-3.2 1.14-6.72 2.36-9.72 1.77.4 3.52.88 5.29 1.28 4.26-11.78 12.15-22.67 23.28-28.77z"/><path fill="#0068aa" d="M99.61 57.6c7.48-9.41 19.34-16.29 31.6-15.46-3.92 2.25-8.15 4.42-10.82 8.2-5.16 6.8-7.74 16.05-5.01 24.35.57 2.98 2.07 5.75 4.77 7.28-4.77-.28-9.47-1.25-14.24-1.51-7.54-.71-15.11-.1-22.65-.49.2-1.63.57-3.23 1.07-4.79 1.78-.19 3.59-.1 5.34-.48 3.05-5.81 5.51-12.1 9.94-17.1z"/><path fill="#006fb6" d="M131.21 42.14c8.39-.25 16.96 1.97 23.98 6.63 9.76 6.57 14.74 18.26 16.26 29.59.71 7.19.15 14.42.26 21.62 1.81 3.92 7.56 1.95 10.32 4.85-.34.21-1 .63-1.33.84-3.71-.63-7.34-1.64-11.01-2.43-3.72-1.68-6.31-5.04-9.73-7.19-11.88-7.9-25.95-11.52-39.81-14.08-2.7-1.53-4.2-4.3-4.77-7.28-2.73-8.3-.15-17.55 5.01-24.35 2.67-3.78 6.9-5.95 10.82-8.2z"/><path fill="#fff" d="M132.44 48.38c1.21-1.94 3.76-1.22 5.65-1.13 5.79.68 11.96 1.25 16.93 4.59 6.39 6.23 12.06 14.07 13.02 23.19.26 4.51.28 9.19-1.32 13.48l-.85-.06c-1.36-6.39-.45-13.19-2.46-19.53-1.06-4.43-2.95-9.06-7.02-11.54-2.89-2.09-5.74-4.33-9.04-5.74-4.6-1.78-9.61-1.16-14.42-1.5-.12-.44-.37-1.32-.49-1.76z"/><path fill="#007ac8" d="M132.93 50.14c4.81.34 9.82-.28 14.42 1.5 3.3 1.41 6.15 3.65 9.04 5.74.97 5.23 2.91 10.69.97 15.95-2.55 6.07-8.58 11.1-15.42 10.82-5.85.61-11.33-2.84-14.52-7.54-2.95-3.79-2.96-8.94-2.2-13.45 1.14-5.43 5.78-9.17 10.44-11.64-.9-.47-1.81-.93-2.73-1.38z"/><path fill="#006eb4" d="M104.33 83.26c2.73-1.1 5.81-.22 8.65.04-.85 2.54-2.39 4.76-3.7 7.08-12.52 22-25.27 43.87-38.15 65.67-1.22 2.12-2.32 4.36-3.98 6.19-.94-4.08-1.3-8.26-1.35-12.43.77-2.34 2.18-4.39 3.39-6.51 11.69-20.02 23.13-40.22 35.14-60.04z"/><path fill="#fff" d="M58.86 181.01c19.25-32.36 37.8-65.15 56.97-97.55 9.52 1.2 18.99 3.25 27.95 6.73 1.2.43 1.58 1.78 2.24 2.75 16.55 28.83 32.93 57.77 49.32 86.7 2.38 4.65 4.06 10.44 1.69 15.43-1.53 3.4-5.42 5.05-8.98 4.93-40.7-.03-81.4.15-122.1.04-3.52-.11-7.29-1.77-8.82-5.11-2-4.49-1.35-10.06 1.73-13.92z"/><path fill="#0071b9" d="M148.84 92.79c3.94 1.04 7.26 3.54 10.61 5.75 1.83 1.16 3.26 2.83 4.28 4.73 9.95 17.13 19.99 34.22 29.64 51.52-.65 3.9-1.67 7.73-2.91 11.48-13.75-22.7-26.39-46.06-39.65-69.04-.84-1.4-1.55-2.87-1.97-4.44z"/><path fill="#0068aa" d="M63.62 152.66c.56-1.07 1.26-2.06 2.18-2.85.05 4.17.41 8.35 1.35 12.43-.09 1.5-1.15 2.71-1.83 3.99-3.19 4.91-5.85 10.14-9.02 15.06-2.94 4.39-3.14 10.43-.71 15.08 1.77 3.49 5.72 5.14 9.42 5.58 12.43.57 24.95-.71 37.34.38-3.4.73-6.88.86-10.35.99 3.01 2.74 6.63 4.66 10.24 6.45-14.06.59-28.17.03-42.25.25-5.79.38-11.47-2.59-14.86-7.2-2.7-3.81-2.33-8.78-1.64-13.16.71-4.61 3.75-8.29 5.84-12.32 4.77-8.22 9.79-16.3 14.29-24.68zM193.37 154.79c1.82 1.96 2.82 4.5 4.17 6.77 4.85 8.46 9.66 16.95 14.55 25.39 5.01 10.01-3.69 24.03-15.1 23.05-11.42-.19-22.87.37-34.28-.22 4.18-2.03 8.21-4.38 11.66-7.52 5.69-.94 11.57.4 17.26-.68 4.83-.97 8.5-5.63 8.48-10.54.64-9.23-5.97-16.46-9.77-24.24l.12-.53c1.24-3.75 2.26-7.58 2.91-11.48z"/><path fill="#006cb1" d="M102.35 202.33c1.86-.34 3.76-.33 5.64-.32 22.13.13 44.27-.35 66.38.25-3.45 3.14-7.48 5.49-11.66 7.52-20.14.32-40.33.37-60.47-.01-3.61-1.79-7.23-3.71-10.24-6.45 3.47-.13 6.95-.26 10.35-.99z"/><path transform="matrix(.95897 0 0 .81793 2.43 38.45)" stroke-miterlimit="10" fill="url(#a)" stroke="#015491" stroke-width="2" d="M105.333 144.333l33.667-72-9.727 45 23.394-9-36.334 75.334 9-48.667z"/></svg>