<svg xmlns="http://www.w3.org/2000/svg" xmlns:xlink="http://www.w3.org/1999/xlink" width="60" height="60" viewBox="0 0 60 60"><path fill="#FFF" d="M30.9 50c-11.1 0-20.2-8.9-20.2-19.8s9.1-19.8 20.2-19.8 20.2 8.9 20.2 19.8c0 11-9.1 19.8-20.2 19.8z"/><path fill="#015491" d="M30.9 12.3c10.2 0 18.5 8.1 18.5 18s-8.3 18-18.5 18-18.5-8.1-18.5-18 8.3-18 18.5-18m0-3.5c-12.1 0-22 9.6-22 21.5s9.8 21.5 22 21.5c12.1 0 22-9.6 22-21.5S43 8.8 30.9 8.8z"/><path fill="#015491" d="M18.9 19.3h3.8v8h-3.8zM23.7 19.3h3.8v8h-3.8zM28.7 19.3h3.8v8h-3.8zM33.5 19.3h3.8v8h-3.8zM38.7 19.3h3.8v8h-3.8z"/><text transform="translate(19.375 25.055)" fill="#FFF" font-family="'Arial-BoldMT'" font-size="5.257">2</text><text transform="translate(24.292 25.055)" fill="#FFF" font-family="'Arial-BoldMT'" font-size="5.257">9</text><text transform="translate(29.292 25.055)" fill="#FFF" font-family="'Arial-BoldMT'" font-size="5.257">5</text><text transform="translate(34.292 25.055)" fill="#FFF" font-family="'Arial-BoldMT'" font-size="5.257">1</text><defs><path id="a" d="M38.5 19.4h3.7v7.8h-3.7z"/></defs><clipPath id="b"><use xlink:href="#a" overflow="visible"/></clipPath><g clip-path="url(#b)"><text transform="translate(39.042 22.556)" fill="#FFF" font-family="'Arial-BoldMT'" font-size="5.257">4</text></g><g><defs><path id="c" d="M38.5 19.4h3.7v7.8h-3.7z"/></defs><clipPath id="d"><use xlink:href="#c" overflow="visible"/></clipPath><g clip-path="url(#d)"><text transform="translate(39.042 29.306)" fill="#FFF" font-family="'Arial-BoldMT'" font-size="5.257">5</text></g></g><g><path fill="#015491" d="M29.8 30.6h3.1l-1.6 4.6h3.2l-7.1 9.6 2.6-7.1h-2.6z"/></g></svg>