<svg id="svg2" xmlns="http://www.w3.org/2000/svg" viewBox="-169 292.9 256 256"><style>.st0{fill:#0078c5}</style><path class="st0" d="M43.9 393.8c2.5-2.6 3.7-6.6 2.7-10.1-.8-3.2-3.3-5.6-5.8-7.5-4-2.9-9.9-2.4-13.4 1-7.1 7-14.1 14.1-21.2 21.1-8-7.9-15.9-16-24-23.9 7.2-7.2 14.5-14.4 21.7-21.7 2.9-2.9 4-7.5 1.8-11.1-2.4-3.7-5.9-7.5-10.6-7.8-3.3-.4-6.5 1-8.7 3.3l-20.7 20.7-19.5-19.5c-14.5 14.4-28.9 28.9-43.3 43.3-3.5 3.4-6.2 7.6-7.2 12.3-1.4 6.2.2 12.8 4.1 17.8-7 7.2-14.2 14.1-21.2 21.2 22.6 22.5 45 45.1 67.7 67.6 7.2-7.1 14.2-14.2 21.4-21.3 4 3.4 9.3 5.3 14.6 4.9 6.5 0 12.4-3.8 16.4-8.8 14-14.2 28.2-28.2 42.3-42.4-5.9-6.1-12-12-18-18 6.8-7.1 14-14 20.9-21.1zM-100.4 468.9c-9.5 9.6-19.2 19-28.6 28.7 3.6 3.4 7 7 10.5 10.4 9.6-9.5 19-19 28.6-28.5-3.4-3.6-7-7-10.5-10.6z"/></svg>