<svg id="Layer_1" xmlns="http://www.w3.org/2000/svg" viewBox="-281 404.9 32 32"><style>.st0{fill:#fff}</style><circle class="st0" cx="-257.9" cy="419.1" r="2.1"/><circle class="st0" cx="-272.1" cy="419.1" r="2.1"/><circle class="st0" cx="-265.1" cy="419.1" r="2.1"/><path d="M-265 407.4c-7.9 0-14.3 5.4-14.3 12 0 3.6 1.9 6.9 5.1 9.2.3 1.9-.8 3.8-.8 3.9-.2.4-.2 1 0 1.4.2.4.7.6 1.1.6h.1c1.4-.2 3.6-1.2 6.7-3.1.7.1 1.3.1 2 .1 7.9 0 14.3-5.4 14.3-12 .1-6.8-6.3-12.1-14.2-12.1zm-7.1 13.8c-1.2 0-2.1-.9-2.1-2.1s.9-2.1 2.1-2.1c1.2 0 2.1.9 2.1 2.1s-.9 2.1-2.1 2.1zm7 0c-1.2 0-2.1-.9-2.1-2.1s.9-2.1 2.1-2.1c1.2 0 2.1.9 2.1 2.1s-.9 2.1-2.1 2.1zm7.2 0c-1.2 0-2.1-.9-2.1-2.1s.9-2.1 2.1-2.1c1.2 0 2.1.9 2.1 2.1s-.9 2.1-2.1 2.1z"/></svg>