<svg id="Layer_1" data-name="Layer 1" viewBox="0 0 40 40" xmlns="http://www.w3.org/2000/svg"><defs><style>.cls-1{fill:#1e242b}</style></defs><title>ActionButtons-rev01</title><path class="cls-1" d="M23.36 3.82v29.11l14.73 3.25V7L23.43 3.82zm13.42 23.85l-2.14-.47v-2.3l2.15.47zm-12.21-22l2.15.47v15.4l-2.16-.48zM30 22.27l-2-.45V6.39l2 .44zm3.34.74l-2.06-.46V7.11l2.06.45zm0 1.6v2.3l-2.06-.45v-2.3zM30 26.19l-2-.44v-2.3l2 .44zm-3.3-.72L24.55 25v-2.3l2.16.47zM36.79 8.32v15.46l-2.15-.48V7.84zm-2.16 25.4v-4.94l2.14.47v4.94zM31.29 33v-5l2.06.45v4.94zM28 32.28v-4.95l2 .44v4.95zm-3.45-.75v-4.95l2.16.47V32zM16.57 3.83L1.9 7v29.18l14.73-3.25V3.82zM3.22 25.37l2.15-.47v2.3l-2.14.47zm12.22-4.31l-2.16.48V6.12l2.15-.47zM10 6.84l2-.44v15.42l-2 .45zm-3.34.73l2.06-.45v15.43L6.65 23zm2.06 16.6v2.3l-2.06.45v-2.3zm1.28-.28l2-.44v2.3l-2 .44zm3.3-.72l2.16-.47V25l-2.16.47zM5.37 7.84V23.3l-2.15.48V8.32zM3.23 34.19v-4.94l2.14-.47v4.94zm3.42-.75V28.5l2.06-.5v5zm3.35-.72v-4.95l2-.44v4.95zm3.3-.72v-4.95l2.16-.47v4.95z"/></svg>