<svg xmlns="http://www.w3.org/2000/svg" viewBox="0 0 40 40"><defs><style>.cls-1{fill:#1e242b}</style></defs><title>ActionButtons-rev01</title><g id="Layer_2" data-name="Layer 2"><path class="cls-1" d="M33.62 15.44l.7-7a1.49 1.49 0 0 0-2.42-1.3l-7.7 6.29a1.49 1.49 0 0 0 .8 2.63l7 .71a1.49 1.49 0 0 0 1.62-1.33z"/><path class="cls-1" d="M31.12 10.95a15.42 15.42 0 0 0-12-5.88 14.19 14.19 0 0 0-13.35 9.46 1.4 1.4 0 0 0 .86 1.79 1.43 1.43 0 0 0 1.81-.86A11.34 11.34 0 0 1 19.12 7.9a12.39 12.39 0 0 1 10.38 5.65zM6.38 24.56l-.7 7a1.49 1.49 0 0 0 2.42 1.3l7.7-6.29a1.49 1.49 0 0 0-.8-2.63l-7-.71a1.49 1.49 0 0 0-1.62 1.33z"/><path class="cls-1" d="M8.88 29.05a15.42 15.42 0 0 0 12 5.88 14.19 14.19 0 0 0 13.34-9.45 1.4 1.4 0 0 0-.86-1.79 1.43 1.43 0 0 0-1.81.86 11.34 11.34 0 0 1-10.67 7.55 12.39 12.39 0 0 1-10.38-5.65z"/></g></svg>