<svg height="128" viewBox="0 0 128 128" width="128" xmlns="http://www.w3.org/2000/svg"><path d="M63.5 11.5c3 0 6.1.3 9.1.8v11.2l2.9.8c2.9.9 5.7 2 8.3 3.4l2.6 1.4 2.1-2.1 5.8-5.8c5 3.5 9.4 7.9 12.9 12.9l-5.8 5.8-2.1 2.1 1.4 2.6c1.4 2.6 2.6 5.4 3.4 8.3l.8 2.9h11.2c.5 3 .8 6.1.8 9.1s-.3 6.1-.8 9.1H105l-.8 2.9c-.9 2.9-2 5.7-3.4 8.3l-1.4 2.6 2.1 2.1 5.8 5.8c-3.5 5-7.9 9.4-12.9 12.9l-5.8-5.8-2.1-2.1-2.6 1.4c-2.6 1.4-5.4 2.6-8.3 3.4l-2.9.8v11.2c-3 .5-6.1.8-9.1.8s-6.1-.3-9.1-.8v-11.2l-2.9-.8c-2.9-.9-5.7-2-8.3-3.4l-2.6-1.4-2.1 2.1-5.8 5.8c-5-3.5-9.4-7.9-12.9-12.9l5.8-5.8 2.1-2.1-1.4-2.6c-1.4-2.6-2.6-5.4-3.4-8.3l-.8-2.9H11c-.7-2.9-1-6-1-9s.3-6.1.8-9.1H22l.8-2.9c.9-2.9 2-5.7 3.4-8.3l1.4-2.6-2.1-2.1-5.8-5.8c3.5-5 7.9-9.4 12.9-12.9l5.8 5.8 2.1 2.1 2.6-1.4c2.6-1.4 5.4-2.6 8.3-3.4l2.9-.8V12.4c3.1-.6 6.2-.9 9.2-.9m0-4C59 7.5 54.6 8 50.4 9v11.4c-3.2.9-6.2 2.2-9.1 3.8l-8.1-8.1c-7.5 4.7-13.9 11-18.6 18.6l8.1 8.1c-1.6 2.9-2.8 5.9-3.8 9.1H7.5C6.5 56.1 6 60.5 6 65s.5 8.9 1.5 13.1H19c.9 3.2 2.2 6.2 3.8 9.1l-8.1 8.1c4.7 7.5 11 13.9 18.6 18.6l8.1-8.1c2.9 1.6 5.9 2.8 9.1 3.8V121c4.2 1 8.6 1.5 13.1 1.5s8.9-.5 13.1-1.5v-11.4c3.2-.9 6.2-2.2 9.1-3.8l8.1 8.1c7.5-4.7 13.9-11 18.6-18.6l-8.1-8.1c1.6-2.9 2.8-5.9 3.8-9.1h11.4c1-4.2 1.5-8.6 1.5-13.1s-.5-8.9-1.5-13.1H108c-.9-3.2-2.2-6.2-3.8-9.1l8.1-8.1c-4.7-7.5-11-13.9-18.6-18.6l-8.1 8.1c-2.9-1.6-5.9-2.8-9.1-3.8V9c-4.1-1-8.5-1.5-13-1.5z" fill="#3B97D3"/><path d="M63 39c14.8 0 26.8 12 26.8 26.8S77.8 92.5 63 92.5s-26.8-12-26.8-26.8S48.2 39 63 39m0-2c-15.9 0-28.8 12.9-28.8 28.8S47.1 94.5 63 94.5s28.8-12.9 28.8-28.8S78.9 37 63 37z" fill="#2C3E50"/></svg>