<svg xmlns="http://www.w3.org/2000/svg" viewBox="0 0 40 40"><defs><style>.cls-1{fill:#1e242b}.cls-2{fill:#fff}</style></defs><title>ActionButtons</title><g id="Layer_2" data-name="Layer 2"><path class="cls-1" d="M36 10.08a2.12 2.12 0 0 0-2.12 2.12v4.42h-1.63V5A1.21 1.21 0 0 0 31 3.81H15.4l-.2.32-.33.52-1.78 2.74-2 3H8.66a1.21 1.21 0 0 0-1.21 1.21v5H6.11v-4.41a2.12 2.12 0 0 0-4.23 0v15.47a2.12 2.12 0 1 0 4.23 0v-4.42h1.34v5.33a1.21 1.21 0 0 0 1.21 1.21h2.5l3.73 5.42c.12.2.2.29.3.43l.23.33H31a1.21 1.21 0 0 0 1.21-1.21V23.24h1.65v4.42a2.12 2.12 0 0 0 4.23 0V12.19A2.12 2.12 0 0 0 36 10.08z"/><rect class="cls-2" x="14.99" y="14.54" width="10.69" height="10.69" rx="1.44" ry="1.44"/></g></svg>