<svg xmlns="http://www.w3.org/2000/svg" viewBox="0 0 40 40"><defs><style>.cls-1{fill:#1e242c}</style></defs><title>ActionButtons</title><path class="cls-1" d="M36.49 5.19H1.9v29.62h36.2V5.19zm-7.92 17.34v3.59h-2.93v-3.59zm-2.93-1.6V6.8h2.93v14.13zm-1 5.2h-3.1v-3.6h3.1zm-6.31 0H15v-3.6h3.37zm-4.32 0h-2.87v-3.6h2.92zm-3.87 0H7.27v-3.6h2.93zm0 1.6v5.47H7.27v-5.47zm1 0h2.92v5.47h-2.92zm3.87 0h3.37v5.47H15zm6.57 0h3.1v5.47h-3.1zm4.05 0h2.93v5.47h-2.92zm3.88 0h2.92v5.47h-2.91zm0-1.6v-3.6h2.92v3.59zm0-5.2V6.8h2.92v14.13zM24.69 6.8v14.13h-3.1V6.8zm-6.31 0v14.13H15V6.8zm-4.32 0v14.13h-2.92V6.8zm-3.87 0v14.13H7.27V6.8zm-6.69 0h2.81v14.13h-2.8zm0 15.74h2.81v3.59h-2.8zm0 5.2h2.81v5.46h-2.8zm33 5.47h-3.1v-5.48h3.1zm0-7.07h-3.1v-3.61h3.1zm0-5.2h-3.1V6.8h3.1z" id="Layer_2" data-name="Layer 2"/></svg>