<svg xmlns="http://www.w3.org/2000/svg" viewBox="0 0 256 256"><radialGradient id="a" cx="116.873" cy="51.801" r="29.349" gradientTransform="matrix(.9958 0 -.0976 .9904 4.417 6.628)" gradientUnits="userSpaceOnUse"><stop offset=".005" stop-color="#0081d4"/><stop offset="1" stop-color="#0068aa"/></radialGradient><path fill="url(#a)" stroke="#005491" stroke-miterlimit="10" d="M80.888 68.178c-.923-2.619.412-6.507 3.355-8.093 4.038-2.176 9.346-4.589 19.788-8.25 8.813-3.089 29.038-9.321 34.424-9.751s11.37.689 12.204 5.252c.833 4.563-5.033 7.719-6.591 8.316-1.558.597-20.775 5.755-25.214 7.255-4.438 1.5-29.01 9.664-31.509 11.345-.158.106-1.055.221-1.209.117-1.53-1.037-3.716-1.844-5.248-6.191z"/><radialGradient id="b" cx="112.075" cy="90.571" r="29.401" gradientTransform="matrix(1.3419 0 -.3219 1.1144 5.9 -20.47)" gradientUnits="userSpaceOnUse"><stop offset=".005" stop-color="#0081d4"/><stop offset="1" stop-color="#0068aa"/></radialGradient><path fill="url(#b)" stroke="#005491" stroke-miterlimit="10" d="M79.754 94.495c-1.277-2.847.512-7.27 4.508-9.247 5.484-2.713 12.695-5.782 26.892-10.61 11.981-4.075 39.691-11.58 46.817-13.339 9.676-2.387 15.493-.055 16.664 4.962 1.17 5.017-2.921 7.898-8.915 9.729-2.171.663-28.032 7.345-34.067 9.335-6.034 1.99-39.375 13.994-43.056 15.462-.161.064-1.3.317-1.646.217-2.237-.642-5.077-1.783-7.197-6.509z"/><radialGradient id="c" cx="153.405" cy="135.018" r="18.454" gradientTransform="matrix(1 0 0 1.5001 0 -67.519)" gradientUnits="userSpaceOnUse"><stop offset=".005" stop-color="#0081d4"/><stop offset="1" stop-color="#0068aa"/></radialGradient><path fill="url(#c)" stroke="#005491" stroke-miterlimit="10" d="M136.401 140.421v11.708c0 .811.27 2.612 2.432 2.612h10.087c.9 0 1.171-.45 1.171-2.972v-8.736c0-1.171-.18-3.062 1.081-4.323s13.267-8.912 14.275-9.547c1.824-1.148 6.417-4.661 4.653-8.443-1.05-2.251-2.266-7.408-9.201-4.616s-15.581 5.314-23.597 14.5c-1.402 1.606-.901 4.053-.901 9.817z"/><radialGradient id="d" cx="128.814" cy="122.399" r="40.833" gradientTransform="matrix(1 0 0 1.5001 0 -61.208)" gradientUnits="userSpaceOnUse"><stop offset=".005" stop-color="#0081d4"/><stop offset="1" stop-color="#0068aa"/></radialGradient><path fill="url(#d)" stroke="#005491" stroke-miterlimit="10" d="M176.466 96.037c-1.131-5.026-6.93-7.404-16.624-5.093-7.139 1.702-34.908 8.989-46.92 12.969-14.234 4.716-21.47 7.728-26.975 10.398-4.012 1.945-5.836 6.355-4.581 9.212 1.959 4.46 4.742 5.359 6.77 6.371 3.265 2.085 12.056 7.746 13.125 8.815 1.261 1.261 1.081 3.152 1.081 4.323v8.736c0 2.522.27 2.972 1.171 2.972H113.6c2.161 0 2.432-1.801 2.432-2.612V140.42c0-5.764.501-8.211-.901-9.817-2.545-2.917-5.154-5.158-7.751-6.953 10.461-3.477 22.357-7.248 25.729-8.33 6.05-1.942 32.19-8.979 34.366-9.625 6.008-1.783 10.122-4.632 8.991-9.658z"/><radialGradient id="e" cx="126.116" cy="164.699" r="19.62" gradientTransform="matrix(1 0 0 .9314 0 13.29)" gradientUnits="userSpaceOnUse"><stop offset=".005" stop-color="#0081d4"/><stop offset="1" stop-color="#0068aa"/></radialGradient><path fill="url(#e)" stroke="#005491" stroke-miterlimit="10" d="M149.937 173.227h-47.643a1.851 1.851 0 0 1-1.846-1.846v-9.392c0-1.016.831-1.846 1.846-1.846h47.643c1.016 0 1.846.831 1.846 1.846v9.392a1.85 1.85 0 0 1-1.846 1.846z"/><radialGradient id="f" cx="126.116" cy="191.015" r="20.488" gradientTransform="matrix(1 0 0 1.1619 0 -33.47)" gradientUnits="userSpaceOnUse"><stop offset=".005" stop-color="#0081d4"/><stop offset="1" stop-color="#0068aa"/></radialGradient><path fill="url(#f)" stroke="#005491" stroke-miterlimit="10" d="M149.021 178.356h-45.81c-1.625 0-2.954 1.03-2.954 2.288v4.735c0 .127.023.25.049.372.505 7.133 8.172 12.851 17.501 12.851h16.619c9.329 0 16.996-5.719 17.501-12.851a1.78 1.78 0 0 0 .049-.372V180.644c-.001-1.258-1.331-2.288-2.955-2.288z"/><radialGradient id="g" cx="126.182" cy="206.778" r="7.63" gradientTransform="matrix(1 0 0 1.4629 0 -95.516)" gradientUnits="userSpaceOnUse"><stop offset=".005" stop-color="#0081d4"/><stop offset="1" stop-color="#0068aa"/></radialGradient><path fill="url(#g)" stroke="#005491" stroke-miterlimit="10" d="M136.314 203.955c0 3.675-4.536 6.653-10.132 6.653s-10.132-2.979-10.132-6.653c0-1.79 4.536 1.711 10.132 1.711s10.132-3.704 10.132-1.711z"/></svg>