<svg xmlns="http://www.w3.org/2000/svg" viewBox="0 0 256 256"><radialGradient id="a" cx="145.84" cy="-12.685" r="67.216" fx="126.699" fy="-12.396" gradientTransform="matrix(1 0 0 1.0018 0 125.044)" gradientUnits="userSpaceOnUse"><stop offset=".492" stop-color="#0081d4"/><stop offset="1" stop-color="#0068aa"/></radialGradient><path fill="url(#a)" stroke="#005491" stroke-miterlimit="10" d="M109.522 188.842c-27.881-13.412-47.927-41.563-48.873-74.29 7.113-1.317 12.519-7.563 12.519-15.053 0-8.444-6.869-15.313-15.313-15.313s-15.312 6.869-15.312 15.313c0 7.516 5.444 13.779 12.595 15.066.628 23.278 9.986 45.07 26.519 61.602 5.901 5.901 12.45 10.879 19.521 14.879l-.028 22.215a2.754 2.754 0 0 0 2.754 2.754h83.724a2.754 2.754 0 0 0 2.754-2.754v-21.665a2.754 2.754 0 0 0-2.754-2.754h-5.618v-17.23c20.067-12.258 33.49-34.367 33.49-59.554-.001-38.452-31.283-69.734-69.735-69.734-38.451 0-69.733 31.282-69.733 69.734 0 25.187 13.423 47.296 33.49 59.554v17.23zM50.413 99.536c0-3.92 3.189-7.109 7.109-7.109s7.109 3.189 7.109 7.109-3.189 7.109-7.109 7.109-7.109-3.19-7.109-7.109zm134.46 101.214h-78.216v-6.4h78.216v6.4zm0 10.833h-78.216v-6.4h78.216v6.4z"/><path fill="#FFF" stroke="#015491" stroke-miterlimit="10" d="M148.519 61.823a2.754 2.754 0 0 0-2.754-2.754c-29.218 0-52.989 23.77-52.989 52.989a2.754 2.754 0 1 0 5.508 0c0-26.181 21.3-47.48 47.48-47.48a2.755 2.755 0 0 0 2.755-2.755zM170.846 112.058c0-13.83-11.251-25.081-25.081-25.081-13.829 0-25.081 11.251-25.081 25.081s11.251 25.081 25.081 25.081c13.83-.001 25.081-11.252 25.081-25.081z"/><radialGradient id="b" cx="145.766" cy="112.058" r="12.522" gradientUnits="userSpaceOnUse"><stop offset=".005" stop-color="#0081d4"/><stop offset="1" stop-color="#0068aa"/></radialGradient><path fill="url(#b)" stroke="#005491" stroke-miterlimit="10" d="M158.288 112.058c0-6.905-5.617-12.522-12.522-12.522s-12.522 5.617-12.522 12.522 5.617 12.522 12.522 12.522 12.522-5.618 12.522-12.522z"/></svg>