<svg xmlns="http://www.w3.org/2000/svg" viewBox="0 0 40 40"><defs><style>.cls-1{fill:#fff}.cls-2{fill:#1e242b}</style></defs><title>ActionButtons-rev01</title><g id="Layer_2" data-name="Layer 2"><path class="cls-1" d="M18.73 12.39l8.21-8.41 9.04 9.09-9.04 9.24-8.21-9.92z"/><path class="cls-2" d="M26.38 2.78l-9.46 9.46-1.15-1.15a1.25 1.25 0 0 0-1.75.14L2.79 22.47a1.3 1.3 0 0 0-.15 1.79l13.1 13.1a1.3 1.3 0 0 0 1.79-.15L28.77 26a1.25 1.25 0 0 0 .14-1.75l-1.15-1.15 9.46-9.46a1.25 1.25 0 0 0 .14-1.75l-9.24-9.26a1.26 1.26 0 0 0-1.74.15zM34.67 13l-7 7L20 12.32l7-7L34.68 13z"/><path class="cls-2" d="M24.22 12.73a1.14 1.14 0 0 0 1.61 0l2-2a1.14 1.14 0 0 0-1.61-1.61l-2 2a1.15 1.15 0 0 0 0 1.61zM27.27 15.78a1.14 1.14 0 0 0 1.61 0l2-2a1.14 1.14 0 0 0-1.61-1.61l-2 2a1.14 1.14 0 0 0 0 1.61z"/><path class="cls-1" d="M22 20.73h-.32v-1.49a5.1 5.1 0 0 0-4.94-5.12h-.3a5.1 5.1 0 0 0-4.94 5.12v1.49h-.32a1 1 0 0 0-.89 1.14v7.5a1 1 0 0 0 .89 1.14H22a1 1 0 0 0 .89-1.14v-7.5a1 1 0 0 0-.89-1.14zm-2.42 0h-6v-1.49a3 3 0 1 1 6 0v1.49z"/></g></svg>