<svg xmlns="http://www.w3.org/2000/svg" viewBox="0 0 40 40"><defs><style>.cls-1{fill:#cbc7c7}.cls-2,.cls-4{fill:#fff}.cls-2{stroke:#1e242b;stroke-linecap:round;stroke-miterlimit:10;stroke-width:.5px}.cls-3{fill:#1e242b}.cls-4{font-size:11.7px;font-family:Arial-BoldMT,Arial;font-weight:700}</style></defs><title>ActionButtons</title><g id="Layer_2" data-name="Layer 2"><path class="cls-1" d="M17.8 1.9h10.29a.87.87 0 0 1 .59.23l8 7.41a.87.87 0 0 1 .28.64v21.23a.87.87 0 0 1-.87.87H17.78a.87.87 0 0 1-.87-.88V2.76a.87.87 0 0 1 .89-.86z"/><path class="cls-2" d="M4.08 7.79h10.24a.87.87 0 0 1 .59.23l8 7.37a.87.87 0 0 1 .28.64v21.13a.87.87 0 0 1-.87.87H4.07a.87.87 0 0 1-.87-.87V8.66a.87.87 0 0 1 .88-.87z"/><path class="cls-3" d="M10.11 16.56a2.58 2.58 0 0 0-2.57 2.57V30a2.58 2.58 0 0 0 2.57 2.57h6.61A2.58 2.58 0 0 0 19.29 30V19.13a2.58 2.58 0 0 0-2.57-2.57h-6.61z"/><text class="cls-4" transform="translate(10.06 28.68)">1</text></g></svg>