<svg xmlns="http://www.w3.org/2000/svg" viewBox="0 0 256 256"><radialGradient id="a" cx="125.916" cy="128.133" r="82.243" gradientUnits="userSpaceOnUse"><stop offset=".492" stop-color="#0081d4"/><stop offset="1" stop-color="#0068aa"/></radialGradient><path fill="url(#a)" stroke="#005491" stroke-miterlimit="10" d="M155.274 197.748c-.808-.509-3.326-1.155-4.019-1.686l-14.205 9.331-11.548-11.548 9.932-15.821c-.37-.67-.3-.785-.624-1.501l-18.293-3.257.069-17.808 13.35-2.31-6.652-6.491c-5.543 4.527-12.334 7.207-19.586 7.207h-.046c-6.86 0-13.281-2.402-18.64-6.467l-6.767 6.467H65.01c-6.098 0-10.879 2.079-14.597 6.398-10.879 12.565-9.054 39.634-8.199 47.926H157.26l-1.986-10.44zm-79.131-77.375c.877 7.553 4.042 14.273 8.661 19.194a27.408 27.408 0 0 0 3.071 2.841 27.11 27.11 0 0 0 4.388 2.864c3.488 1.802 7.322 2.841 11.41 2.841s7.922-1.039 11.41-2.841a26.891 26.891 0 0 0 4.388-2.864 30.13 30.13 0 0 0 3.095-2.864c4.596-4.92 7.761-11.572 8.638-19.078.092 0 .162.023.254.023 4.804 0 8.708-4.481 8.708-10.001 0-3.349-1.432-6.282-3.626-8.107H72.286c-2.194 1.825-3.626 4.758-3.626 8.107 0 5.081 3.257 9.215 7.483 9.885zm134.148 47.695v-7.691l-16.006-2.887a28.883 28.883 0 0 0-3.441-8.292l9.308-13.304-5.451-5.451-13.35 9.285a28.431 28.431 0 0 0-8.292-3.418l-2.841-15.983h-7.691l-2.887 16.006a28.895 28.895 0 0 0-8.292 3.441l-13.304-9.308-5.451 5.451 9.285 13.35a28.431 28.431 0 0 0-3.418 8.292l-15.983 2.84v7.691l16.006 2.887a28.883 28.883 0 0 0 3.441 8.292l-9.331 13.304 5.451 5.451 13.35-9.285a28.442 28.442 0 0 0 8.292 3.418l2.841 15.984h7.691l2.887-16.006a28.883 28.883 0 0 0 8.292-3.441l13.304 9.308 5.451-5.451-9.285-13.35a28.431 28.431 0 0 0 3.418-8.292l16.006-2.841zm-43.931 8.037c-6.56 0-11.872-5.312-11.872-11.871 0-6.56 5.312-11.872 11.872-11.872s11.872 5.312 11.872 11.872c0 6.559-5.312 11.871-11.872 11.871zM91.48 59.535c-9.608 4.897-17.184 14.69-20.048 24.206l-.647 2.033h-5.267v11.548h77.791V85.773h-5.173l-.647-2.033c-2.864-9.516-10.44-19.217-20.048-24.113v25.13c-.092 1.016-.277 1.94-.739 2.864-1.201 2.31-3.603 3.973-6.375 3.973H98.686c-2.587 0-4.897-1.386-6.098-3.418-.554-.831-.831-1.755-1.016-2.772-.092-.37-.092-.647-.092-1.016V59.535zm7.206 29.01h11.548c1.663 0 3.049-.924 3.788-2.31.37-.647.554-1.293.554-2.033V53.808c0-.739-.184-1.386-.37-2.033-.831-2.125-2.956-3.696-5.358-3.696H98.686c-2.217 0-4.065 1.663-4.25 3.788 0 .185-.092.37-.092.554V84.203c0 .924.278 1.755.74 2.494.83 1.109 2.124 1.848 3.602 1.848z"/></svg>