<svg xmlns="http://www.w3.org/2000/svg" viewBox="0 0 1000 1000"><path d="M700.487 312.447c-53.187 56.561-97.384 102.766-98.333 102.766-.79 0-34.883-31.425-75.76-69.817-40.72-38.386-75.286-70.49-76.867-71.341-1.897-1.19-32.038 20.72-135.74 98.86-73.066 55.206-134.467 101.75-136.2 103.615-3.154 3.225-3.154 3.225.317 13.93 9.946 30.403 13.417 38.895 16.098 38.051 1.58-.34 58.24-42.468 125.951-93.592 67.711-50.96 124.212-92.741 125.635-92.741 1.423 0 37.248 32.445 79.548 72.191 42.3 39.746 77.809 72.021 78.757 71.851 1.107-.34 50.349-51.641 109.379-113.98 74.654-78.819 107.482-114.66 107.482-117.041 0-3.906-20.518-45.524-22.415-45.524-.625 0-44.664 46.205-97.852 102.772z" fill="#0068aa"/><path d="M220.495 594.333c-14.988 3.12-26.603 9.364-33.85 17.98-7.544 8.865-7.147 4.622-7.444 76.547-.199 42.08.099 66.304.793 69.429 3.973 18.978 30.385 31.87 62.542 32.715 30.778.809 50.676-8.835 62.343-32.216 1.587-6.494 1.687-127.242.1-134.36-1.29-5.621-7.644-14.736-13.303-18.978-6.055-4.373-17.572-9.115-27.798-11.112-10.822-2.251-32.862-2.251-43.383-.005zm47.351 20.48c4.965 1.498 11.615 4.498 14.89 6.87 10.325 7.117 9.63 13.237-2.282 19.981-21.144 11.86-54.7 11.86-75.844-.005-11.913-6.744-12.608-12.864-2.282-19.982 5.262-3.748 17.175-7.991 26.803-9.738 7.643-1.373 30.08.25 38.715 2.875zm-57.081 49.947c23.826 8.117 55.593 5.995 75.248-4.867l4.171-2.37v8.116c0 9.614-1.19 11.61-10.326 16.732-10.524 5.995-20.151 8.116-37.326 8.116s-26.803-2.121-37.327-8.116c-9.13-5.122-10.326-7.118-10.326-16.732v-8.117l4.27 2.371c2.286 1.248 7.544 3.495 11.616 4.867zm-7.345 37.463c22.338 10.237 55.89 10.237 78.228 0 4.37-1.997 8.04-3.62 8.238-3.62.199 0 .298 3.75.1 8.367l-.298 8.49-4.568 3.869c-8.936 7.492-24.223 11.74-42.588 11.74-18.366 0-33.652-4.248-42.589-11.74l-4.567-3.869-.298-8.49c-.199-4.623-.1-8.366.1-8.366.202-.005 3.872 1.622 8.242 3.619zm1.09 40.831c10.426 4.872 22.339 7.118 38.022 7.118 18.663 0 30.874-2.87 45.961-10.986 1.489-.749 1.687 0 1.687 7.243 0 7.866-.1 8.366-3.576 11.984-8.139 8.366-23.826 12.989-44.076 12.989-20.35 0-35.938-4.747-44.077-12.989-3.476-3.618-3.576-4.118-3.576-11.984 0-7.243.199-7.992 1.786-7.243.901.499 4.473 2.246 7.85 3.868z" fill="#0068aa" stroke-width=".046"/><path d="M390.681 503.44c-24.321 4.775-42.476 17.499-45.83 32.083-1.62 7.16-1.62 221.93 0 229.09 2.814 12.465 17.944 24.527 37.833 30.23 8.434 2.384 13.51 2.914 29.618 2.914 19.888.133 26.05-.927 39.452-6.1 16.107-6.232 26.697-16.439 29.074-28.236 1.728-8.22 1.728-218.48 0-226.7-3.353-16.306-21.725-28.898-49.07-33.806-10.054-1.733-30.375-1.468-41.077.525zm46.478 21.341c15.238 3.98 27.561 11.93 27.561 17.897 0 3.577-6.593 9.942-13.619 13.121-24.429 11.267-61.392 10.075-81.82-2.782-11.567-7.16-10.919-14.32 1.944-21.744 16-9.142 44.75-11.93 65.934-6.492zm25.833 65.757c-2.813 3.842-11.783 8.75-21.508 11.93-10.703 3.45-35.343 4.907-46.694 2.65-11.242-2.12-24.105-7.425-29.29-12.063-4.54-3.974-4.54-3.974-4.54-12.597 0-4.775.215-8.617.431-8.617s3.457 1.458 7.242 3.18c14.59 6.63 22.696 8.087 45.289 7.955 19.024-.133 22.048-.398 31.455-3.445 5.729-1.987 12.322-4.643 14.59-6.1l4.217-2.65.325 8.617c.211 6.768-.113 9.285-1.517 11.14zm-91.438 28.64c10.594 4.769 24.969 7.424 41.288 7.424 19.996 0 34.047-3.312 50.042-11.664 1.62-.795 1.836 0 1.836 7.557 0 10.074-1.296 12.194-10.81 17.5-25.834 14.451-73.067 11.796-89.494-5.04-3.245-3.445-3.461-4.246-3.461-12.328 0-7.69.216-8.484 1.944-7.69.977.525 4.978 2.38 8.655 4.24zm4.86 44.675c24.97 8.882 57.828 7.557 80.525-3.18l7.781-3.71v8.353c0 7.822-.216 8.617-3.677 12.326-3.996 4.372-12.215 8.485-23.236 11.93-11.243 3.444-39.993 3.047-52.315-.795-9.402-2.915-15.887-6.233-21.508-11.135-2.809-2.384-3.025-3.18-3.025-11.802v-9.28l3.133 2.12c1.732 1.066 7.241 3.45 12.322 5.173zm-4.428 41.23c22.804 9.677 57.936 9.677 81.28 0 4.217-1.722 8.538-3.582 9.618-3.98 1.728-.927 1.944-.265 1.62 8.087l-.324 9.147-4.973 4.108c-10.919 8.882-28.75 13.127-51.775 12.067-21.076-.928-36.423-5.968-43.993-14.585-2.052-2.252-2.484-4.112-2.484-11.267 0-7.557.216-8.352 1.944-7.557.977.53 5.086 2.258 9.087 3.98zm-.54 42.556c11.35 5.172 24.32 7.557 41.396 7.557 20.32 0 33.615-3.047 50.042-11.664 1.62-.795 1.836 0 1.836 7.822 0 8.22-.216 8.75-3.677 12.194-9.51 9.28-25.941 14.187-48.206 14.187-22.372 0-41.288-5.702-48.853-14.584-2.7-3.18-3.025-4.51-3.025-12.062 0-7.557.216-8.352 1.945-7.557.972.53 4.865 2.385 8.542 4.107z" fill="#0068aa" stroke-width=".05"/><path d="M567.973 600.308c-14.989 3.12-26.604 9.365-33.85 17.98-7.544 8.865-7.148 4.623-7.445 76.547-.199 42.08.099 66.304.793 69.43 3.973 18.977 30.385 31.87 62.542 32.714 30.778.81 50.676-8.835 62.343-32.216 1.587-6.494 1.687-127.242.1-134.36-1.29-5.62-7.644-14.735-13.303-18.978-6.055-4.373-17.572-9.115-27.798-11.111-10.822-2.252-32.862-2.252-43.382-.005zm47.35 20.481c4.965 1.498 11.616 4.498 14.89 6.869 10.325 7.118 9.63 13.238-2.282 19.982-21.144 11.86-54.7 11.86-75.844-.007-11.913-6.744-12.607-12.864-2.282-19.982 5.262-3.749 17.176-7.992 26.803-9.739 7.643-1.372 30.08.25 38.715 2.875zm-57.081 49.947c23.826 8.116 55.593 5.995 75.248-4.867l4.171-2.371v8.116c0 9.614-1.19 11.61-10.326 16.732-10.524 5.995-20.151 8.117-37.326 8.117s-26.802-2.122-37.327-8.117c-9.13-5.121-10.325-7.118-10.325-16.732v-8.116l4.27 2.37c2.285 1.249 7.543 3.495 11.615 4.868zm-7.345 37.462c22.338 10.238 55.89 10.238 78.228 0 4.37-1.997 8.04-3.619 8.239-3.619.198 0 .297 3.749.099 8.366l-.298 8.49-4.568 3.87c-8.936 7.492-24.222 11.74-42.588 11.74s-33.652-4.248-42.589-11.74l-4.567-3.87-.298-8.49c-.198-4.622-.1-8.366.1-8.366.202-.007 3.872 1.622 8.242 3.619zm1.09 40.832c10.426 4.872 22.339 7.118 38.022 7.118 18.663 0 30.874-2.87 45.962-10.987 1.488-.749 1.686 0 1.686 7.243 0 7.867-.1 8.366-3.576 11.985-8.139 8.366-23.826 12.988-44.076 12.988-20.35 0-35.938-4.747-44.077-12.988-3.476-3.619-3.576-4.118-3.576-11.985 0-7.243.199-7.992 1.786-7.243.901.5 4.473 2.246 7.85 3.869z" fill="#0068aa" stroke-width=".046"/><path d="M733.47 497.466c-23.34 4.872-40.763 17.855-43.981 32.735-1.555 7.305-1.555 226.435 0 233.74 2.7 12.717 17.22 25.024 36.307 30.842 8.094 2.433 12.966 2.974 28.424 2.974 19.087.135 25-.946 37.862-6.224 15.458-6.358 25.621-16.773 27.902-28.809 1.659-8.386 1.659-222.914 0-231.3-3.218-16.638-20.849-29.486-47.092-34.493-9.649-1.768-29.15-1.498-39.421.535zm44.605 21.775c14.625 4.06 26.45 12.171 26.45 18.26 0 3.65-6.327 10.143-13.07 13.388-23.444 11.495-58.917 10.278-78.522-2.84-11.1-7.304-10.478-14.61 1.866-22.185 15.355-9.327 42.946-12.171 63.276-6.623zm24.792 67.092c-2.7 3.92-11.307 8.927-20.641 12.17-10.271 3.521-33.919 5.008-44.812 2.704-10.789-2.162-23.133-7.575-28.109-12.306-4.358-4.055-4.358-4.055-4.358-12.853 0-4.872.207-8.792.415-8.792.207 0 3.317 1.487 6.95 3.244 14.002 6.765 21.78 8.251 43.463 8.116 18.257-.135 21.16-.405 30.187-3.514 5.498-2.028 11.826-4.737 14.003-6.224l4.047-2.703.31 8.792c.204 6.905-.107 9.473-1.455 11.366zm-87.753 29.22c10.168 4.866 23.963 7.575 39.625 7.575 19.19 0 32.674-3.38 48.024-11.9 1.555-.812 1.763 0 1.763 7.71 0 10.279-1.244 12.442-10.375 17.854-24.792 14.745-70.122 12.036-85.887-5.142-3.114-3.515-3.321-4.331-3.321-12.577 0-7.846.207-8.657 1.866-7.846.937.535 4.777 2.428 8.305 4.326zm4.665 45.582c23.963 9.062 55.497 7.71 77.279-3.244l7.468-3.785v8.521c0 7.981-.208 8.792-3.53 12.577-3.835 4.461-11.721 8.657-22.299 12.172-10.79 3.514-38.38 3.109-50.206-.811-9.023-2.974-15.247-6.36-20.641-11.36-2.696-2.434-2.903-3.245-2.903-12.043v-9.467l3.006 2.162c1.663 1.087 6.95 3.52 11.826 5.278zm-4.25 42.067c21.885 9.874 55.6 9.874 78.004 0 4.047-1.757 8.194-3.655 9.23-4.06 1.659-.947 1.866-.27 1.555 8.25l-.31 9.333-4.773 4.19c-10.479 9.063-27.591 13.394-49.688 12.313-20.227-.946-34.955-6.088-42.22-14.88-1.97-2.298-2.384-4.197-2.384-11.496 0-7.71.207-8.522 1.866-7.71.937.54 4.88 2.303 8.72 4.06zm-.518 43.42c10.893 5.277 23.34 7.71 39.728 7.71 19.5 0 32.26-3.109 48.024-11.9 1.555-.812 1.763 0 1.763 7.98 0 8.387-.208 8.927-3.53 12.442-9.126 9.468-24.895 14.475-46.262 14.475-21.47 0-39.624-5.818-46.884-14.88-2.592-3.245-2.903-4.602-2.903-12.307 0-7.71.207-8.522 1.866-7.71.933.54 4.669 2.432 8.198 4.19z" fill="#0068aa" stroke-width=".049"/></svg>