<svg id="Layer_1" xmlns="http://www.w3.org/2000/svg" viewBox="-169 292.9 256 256"><style>.st0,.st1{fill:#0171b9;stroke:#015491;stroke-width:2;stroke-miterlimit:10}.st1{fill:#fff}.st2{fill:#015491}</style><g id="Layer_3"><path class="st0" d="M34.1 354.2H9.9v-20.4H-6.4v20.4h-69.2v-20.4h-16.3v20.4H-116c-2.8 0-5 2.2-5 5v144.7c0 2.8 2.2 5 5 5H34.1c2.8 0 5-2.2 5-5V359.2c0-2.7-2.3-5-5-5z"/><path class="st1" d="M-100.4 396H18.4v96.4h-118.8z"/></g><path class="st2" d="M-52.6 463.2h9.1v-29.1c0-.8 0-1.7.1-2.7l-7.6 6.5c-.3.2-.5.4-.8.4-.3 0-.5.1-.7 0-.2 0-.4-.1-.6-.2-.2-.1-.3-.2-.4-.4l-1.7-2.3 12.7-11h4.3v38.7h8.4v4.1h-22.9v-4z"/></svg>