<svg id="Layer_1" xmlns="http://www.w3.org/2000/svg" viewBox="-267 390.9 60 60"><style>.st0{fill:none}.st1{fill:#fff}.st2{fill:#006db3}.st3{fill:#006db4}</style><path class="st0" d="M-226.6 403.2c0 .1.1.1.1.2v6.5h.1v-6.4c0-.1-.1-.2-.2-.3z"/><path class="st1" d="M-225.6 410h-.8v-.1h-.1v-6.5c0-.1 0-.2-.1-.2s-.1-.1-.2-.1h-20.4v5.9c0 .5-.5 1-1.1 1h-5.9v28.1c0 .2.2.4.4.4h27c.2 0 .4-.4.4-.4h-.1v-1.6h.9V410z"/><path class="st2" d="M-226.5 438.1h.1s-.2.4-.4.4h-27c-.2 0-.4-.2-.4-.4V410h5.9c.6 0 1.1-.5 1.1-1v-5.9h20.4c.1 0 .2 0 .2.1.1.1.2.2.2.3v6.5h2.3v-6.5c0-1.3-1.2-2.4-2.7-2.4h-22.1l-7.7 7.5v29.6c0 1.3 1.2 2.4 2.7 2.4h27c1.5 0 2.7-1.1 2.7-2.4v-1.7h-2.3v1.6z"/><path class="st3" d="M-216.3 421h-6.8v-6.8c0-.6-.2-1.1-.6-1.5-.4-.4-1-.7-1.5-.7-1.2 0-2.2 1-2.2 2.2v6.8h-6.8c-1.2 0-2.2 1-2.2 2.2s1 2.2 2.2 2.2h6.8v6.8c0 1.2 1 2.2 2.2 2.2.6 0 1.1-.2 1.5-.7.4-.4.6-1 .6-1.5v-6.8h6.8c1.2 0 2.2-1 2.2-2.2 0-1.2-1-2.2-2.2-2.2z"/></svg>