<svg id="Layer_1" xmlns="http://www.w3.org/2000/svg" viewBox="-267 390.9 60 60"><style>.st0{fill:#fff}.st1{fill:#006db3}</style><path class="st0" d="M-224.5 433.7zM-234.1 421.2c-4 3.5-1.8 11 3.8 11 2.9 0 5.3-2.3 5.8-5.1.9-5.4-5.3-9.8-9.6-5.9zm3.8 7.7c-1.6 0-3-1.3-3-3s1.3-3 3-3 3 1.3 3 3-1.4 3-3 3zM-223.8 421c.3.5.5 1 .7 1.5.8 2.2.8 4.7 0 7-.2.5-.4 1-.7 1.5 1.9-1.1 3.5-2.6 4.8-4.5.2-.3.2-.7 0-1-1.3-1.9-2.9-3.4-4.8-4.5z"/><path class="st0" d="M-234.1 434.4c-1.2-.3-2.4-.8-3.5-1.4s-2.1-1.4-3.1-2.2c-.9-.9-1.8-1.8-2.5-2.9-.8-1.1-.8-2.7 0-3.7.7-1.1 1.6-2.1 2.5-2.9.9-.9 2-1.6 3.1-2.2s2.3-1.1 3.5-1.4c2.5-.7 5.1-.7 7.5 0 .2 0 .3.1.5.1V416h-.9v-12.5c0-.2-.2-.4-.4-.4h-20.4v5.9c0 .6-.5 1-1.1 1h-5.9v28.1c0 .2.2.4.4.4h27c.2 0 .4-.2.4-.4v-2.5h.9v-1.5c-.2 0-.3.1-.5.1-2.4.9-5 .9-7.5.2zM-224.6 418.2c.1 0 .1 0 0 0 .1 0 .1 0 0 0z"/><path class="st0" d="M-236.8 421c-1.9 1.1-3.5 2.6-4.8 4.5-.2.3-.2.7 0 1 1.3 1.9 2.9 3.4 4.8 4.5-.3-.5-.5-1-.7-1.5-.8-2.2-.8-4.7 0-7 .2-.6.4-1 .7-1.5z"/><path class="st1" d="M-226.9 438.2c0 .2-.2.4-.4.4h-27c-.2 0-.4-.2-.4-.4v-28.1h5.9c.6 0 1.1-.5 1.1-1v-5.9h20.4c.2 0 .4.2.4.4V416h2.3v-12.5c0-1.3-1.2-2.4-2.7-2.4h-22.1l-7.7 7.5v29.6c0 1.3 1.2 2.4 2.7 2.4h27c1.5 0 2.7-1.1 2.7-2.4v-2.5h-2.3v2.5h.1z"/><circle class="st1" cx="-230.3" cy="425.9" r="3"/><path class="st1" d="M-217.5 424.1c-.7-1.1-1.6-2.1-2.5-2.9-.9-.9-2-1.6-3.1-2.2-.5-.3-.9-.5-1.4-.7h-.1c-.5-.2-1-.4-1.5-.5-.2 0-.3-.1-.5-.1-2.5-.7-5.1-.7-7.5 0-1.2.3-2.4.8-3.5 1.4s-2.1 1.4-3.1 2.2c-.9.9-1.8 1.8-2.5 2.9-.8 1.1-.8 2.7 0 3.7.7 1.1 1.6 2.1 2.5 2.9.9.9 2 1.6 3.1 2.2s2.3 1.1 3.5 1.4c2.5.7 5.1.7 7.5 0 .2 0 .3-.1.5-.1.5-.2 1-.3 1.5-.5h.1c.5-.2 1-.4 1.4-.7 1.1-.6 2.1-1.4 3.1-2.2.9-.9 1.8-1.8 2.5-2.9.8-1.3.8-2.8 0-3.9zm-20 5.3c.2.5.4 1 .7 1.5-1.9-1.1-3.5-2.6-4.8-4.5-.2-.3-.2-.7 0-1 1.3-1.9 2.9-3.4 4.8-4.5-.3.5-.5 1-.7 1.5-.9 2.3-.9 4.8 0 7zm7.2 2.7c-5.6 0-7.8-7.4-3.8-11 4.3-3.8 10.5.6 9.6 5.9-.5 2.9-2.9 5.1-5.8 5.1zm11.3-5.7c-1.3 1.9-2.9 3.4-4.8 4.5.3-.5.5-1 .7-1.5.8-2.2.8-4.7 0-7-.2-.5-.4-1-.7-1.5 1.9 1.1 3.5 2.6 4.8 4.5.2.3.2.8 0 1z"/></svg>