<svg id="Layer_1" xmlns="http://www.w3.org/2000/svg" viewBox="-169 292.9 256 256"><style>.st0,.st1{fill:#0171b9;stroke:#015491;stroke-width:2;stroke-miterlimit:10}.st1{fill:#fff}.st2{fill:#015491}</style><g id="Layer_3"><path class="st0" d="M34 353.7H9.8v-20.4H-6.5v20.4h-69.2v-20.4H-92v20.4h-24c-2.8 0-5 2.2-5 5v144.7c0 2.8 2.2 5 5 5H34c2.8 0 5-2.2 5-5V358.7c0-2.7-2.3-5-5-5z"/><path class="st1" d="M-100.5 395.5H18.3v96.4h-118.8z"/></g><path class="st2" d="M-58.3 423.6c5.3 0 10.8 2.7 12.1 8.3.6 2.5.4 5.5-.9 7.8-1.3 2.4-3.7 3.9-6.3 4.7 3.3.9 6.3 2.7 7.6 5.9 1.4 3.3 1 7.5-.9 10.6-3.8 6.5-13.4 8.1-19.9 4.9-3.9-1.9-5.9-5.7-7.1-9.7l2.3-1c1.6-.7 2.6 0 3.3 1.4.7 1.4 1.3 2.7 2.5 3.8 2.2 2.1 5.2 2.7 8.1 2.2 2.7-.4 5.3-2.1 6.4-4.7 1.2-2.6 1.1-6.4-1-8.6-2.3-2.3-6.1-2.6-9.2-2.6v-3.8c3.2 0 7.3-.6 9.2-3.7 1.7-2.8 1.2-7.2-1.3-9.4-2.6-2.2-6.8-2.2-9.7-.6-1.5.9-2.7 2.3-3.4 3.9-.7 1.7-.8 3.2-3.1 2.9l-2.8-.5c.5-3.4 1.9-6.6 4.5-8.8 2.8-2.1 6.2-3 9.6-3zM-34.1 462.7h9.1s0-30.8.1-31.8l-7.6 6.5c-.7.6-1.9.6-2.5-.2l-1.7-2.3 12.7-11h4.3v38.7h8.4v4.1h-22.8v-4z"/></svg>