<svg id="Layer_1" xmlns="http://www.w3.org/2000/svg" viewBox="-169 292.9 256 256"><style>.st0{fill:#0171b9}.st1{fill:#015491}</style><path class="st0" d="M7.9 384.2h-97.8c-20.3 0-36.7 16.5-36.7 36.7s16.5 36.7 36.7 36.7H7.9c20.3 0 36.7-16.5 36.7-36.7s-16.5-36.7-36.7-36.7z"/><path class="st1" d="M7.9 382.2h-97.8c-21.4 0-38.7 17.4-38.7 38.7s17.4 38.7 38.7 38.7H7.9c21.4 0 38.7-17.4 38.7-38.7s-17.4-38.7-38.7-38.7zm0 75.5h-97.8c-20.3 0-36.7-16.5-36.7-36.7s16.5-36.7 36.7-36.7H7.9c20.3 0 36.7 16.5 36.7 36.7s-16.5 36.7-36.7 36.7z"/></svg>