<svg id="Layer_1" xmlns="http://www.w3.org/2000/svg" viewBox="-169 292.9 256 256"><style>.st0,.st1{fill:#0171b9;stroke:#015491;stroke-width:2;stroke-miterlimit:10}.st1{fill:#fff}.st2{fill:#015491}</style><path class="st0" d="M34.1 354.2H9.9v-20.4H-6.4v20.4h-69.2v-20.4h-16.3v20.4H-116c-2.8 0-5 2.2-5 5v144.7c0 2.8 2.2 5 5 5H34.1c2.8 0 5-2.2 5-5V359.2c0-2.7-2.3-5-5-5z"/><path class="st1" d="M-100.4 396H18.4v96.4h-118.8z"/><g><path class="st2" d="M-26.8 424.6v2.4c0 .7-.1 1.2-.2 1.7-.1.4-.3.8-.4 1.1l-17.7 35.7c-.3.5-.6 1-1.1 1.3-.5.4-1.1.6-1.8.6h-3.8l17.9-35.2c.3-.5.5-1 .8-1.4l.9-1.2h-22.3c-.3 0-.6-.1-.9-.4-.3-.3-.4-.6-.4-.9v-3.6h29z"/></g></svg>