<svg id="Layer_1" xmlns="http://www.w3.org/2000/svg" viewBox="-169 292.9 256 256"><style>.st0{fill:#0171b9}.st1{fill:#015491}</style><path class="st0" d="M-128 381.5h10.5V459H-128z"/><path class="st1" d="M-129 460h12.5v-79.5H-129V460zm1-78.5h10.5V459H-128v-77.5z"/><path class="st0" d="M35 381.5h10.5V459H35z"/><path class="st1" d="M34 380.5V460h12.5v-79.5H34zM45.5 459H35v-77.5h10.5V459z"/><path class="st0" d="M7.8 415.4H-89.2l1.9-1.7L-63 392v-9.7l-42.3 37.7 42.3 37.7V448l-25.5-22.7-1.9-1.7H7.8l-1.9 1.7-24.9 22.1v9.7l42.3-37.6-42.3-37.6v9.7l24.9 22.1z"/><path class="st1" d="M-20 392l25.2 22.4h-91.8l24.6-21.9v-12.4l-44.9 39.9 44.9 40v-12.4l-25.8-23h93L-20 447v12.4l44.9-39.8-44.9-39.9V392zm1-10.1l42.4 37.6-42.4 37.6v-9.7l26.9-23.8h-98.3L-63 448v9.7l-42.4-37.7 42.4-37.7v9.7l-26.3 23.4H7.8L-19 391.6v-9.7z"/></svg>