<svg id="Layer_1" xmlns="http://www.w3.org/2000/svg" viewBox="-169 292.9 256 256"><style>.st0{fill:#0171b9}.st1{fill:#015491}</style><path class="st0" d="M42.4 420.9c0-1.1-.4-2.1-1.2-2.8l-79.4-79.4c-.8-.8-1.8-1.2-2.8-1.2s-2.1.4-2.8 1.2l-79.4 79.4c-.8.8-1.2 1.8-1.2 2.8s.4 2.1 1.2 2.8l79.4 79.4c1.6 1.6 4.1 1.6 5.7 0l79.4-79.4c.7-.7 1.1-1.7 1.1-2.8z"/><path class="st1" d="M42.7 416.6l-79.4-79.4c-1.1-1.1-2.6-1.8-4.2-1.8s-3.1.6-4.2 1.8l-79.4 79.4c-1.1 1.1-1.8 2.6-1.8 4.2s.6 3.1 1.8 4.2l79.4 79.4c1.2 1.2 2.7 1.8 4.2 1.8s3.1-.6 4.2-1.8L42.7 425c1.1-1.1 1.8-2.6 1.8-4.2-.1-1.5-.7-3-1.8-4.2zm-86.5 86.5l-79.4-79.4c-.8-.8-1.2-1.8-1.2-2.8s.4-2.1 1.2-2.8l79.4-79.4c.8-.8 1.8-1.2 2.8-1.2s2.1.4 2.8 1.2l79.4 79.4c.8.8 1.2 1.8 1.2 2.8 0 1.1-.4 2.1-1.2 2.8l-79.4 79.4c-1.5 1.6-4.1 1.6-5.6 0z"/></svg>