<svg id="Layer_1" xmlns="http://www.w3.org/2000/svg" viewBox="0 0 60 60"><style>.st0{fill:#006db4}</style><path class="st0" d="M46.1 31.7a3.32 3.32 0 0 1-4.7 0L27.5 17.8a3.32 3.32 0 0 1 0-4.7c1.3-1.3 3.4-1.3 4.7 0L46.1 27c1.3 1.3 1.3 3.4 0 4.7z"/><path class="st0" d="M13.6 31.7c1.3 1.3 3.4 1.3 4.7 0l13.9-13.9c1.3-1.3 1.3-3.4 0-4.7a3.32 3.32 0 0 0-4.7 0L13.6 27a3.32 3.32 0 0 0 0 4.7z"/><path class="st0" d="M30 47.9c-1.8 0-3.3-1.5-3.3-3.3V15.4c0-1.8 1.5-3.3 3.3-3.3 1.8 0 3.3 1.5 3.3 3.3v29.1c0 1.9-1.5 3.4-3.3 3.4z"/></svg>