<svg id="Layer_1" xmlns="http://www.w3.org/2000/svg" viewBox="-169 292.9 256 256"><style>.st0{fill:#0171b9}.st1{fill:#015491}</style><path class="st0" d="M4.1 390.5L-7 380.2h-117l10 10.3z"/><path class="st1" d="M-6.2 378.2h-122.4l13.9 14.3h124l-15.5-14.3zm-.8 2l11.1 10.3H-114l-10-10.3H-7z"/><path class="st0" d="M23.5 426.7l-11.1-10.2h-116.9l9.9 10.2z"/><path class="st1" d="M13.2 414.5h-122.4l13.9 14.3h124l-15.5-14.3zm-.8 2l11.1 10.3H-94.6l-10-10.3h117z"/><path class="st0" d="M42.2 461.6l-11-10.3H-83.9l9.8 10.3z"/><path class="st1" d="M32 449.3H-88.6l13.7 14.3H47.2L32 449.3zm-.8 2l11 10.3H-74.1l-9.8-10.3H31.2z"/></svg>