<svg id="Layer_1" xmlns="http://www.w3.org/2000/svg" viewBox="-267 390.9 60 60"><style>.st0{fill:#fff}.st1{fill:#010101}</style><path d="M-226.5 404.3h-20.9c-9.2 0-16.6 7.4-16.6 16.6 0 9.2 7.4 16.6 16.6 16.6h20.9c9.2 0 16.6-7.4 16.6-16.6 0-9.2-7.5-16.6-16.6-16.6zm10.5 16.6c0 5.8-3.8 10.6-10.9 10.6h-20.3c-7.1 0-10.9-4.7-10.9-10.6 0-5.8 3.8-10.6 10.9-10.6h20.3c7.1 0 10.9 4.8 10.9 10.6z"/><path class="st0" d="M-226.9 410.3h-20.3c-7.1 0-10.9 4.7-10.9 10.6 0 5.8 3.8 10.6 10.9 10.6h20.3c7.1 0 10.9-4.7 10.9-10.6 0-5.8-3.8-10.6-10.9-10.6zm-22.8 15.8c-4.1-2-4-8.5 0-10.5 3.6-2.2 8.8.5 9 4.7.7 4.7-5 8.3-9 5.8z"/><path class="st1" d="M-249.7 415.6c-4 2-4 8.5 0 10.5 3.9 2.5 9.6-1.2 8.9-5.8-.1-4.2-5.3-6.9-8.9-4.7z"/></svg>