<svg xmlns="http://www.w3.org/2000/svg" id="Layer_1" viewBox="-169 292.9 256 256"><style id="style2">.st0,.st1{fill:#0171b9;stroke:#015491;stroke-width:2;stroke-miterlimit:10}.st1{fill:#fff}.st2{fill:#015491}</style><g transform="matrix(.37297 0 0 .36723 -131.599 333.85)" id="g10"><g id="g8"><g id="g6"><path class="st2" d="M476.164 405.416a9.978 9.978 0 0 0-1.132-5.664l-46.662-86.65a10 10 0 0 0-8.798-5.259l-116.07-.077v-86.688c21.667-17.616 53.698-56.014 53.698-103.358C357.199 53.909 303.911 0 240.835 0c-30.022 0-60.389 12.5-83.314 34.296-23.878 22.701-37.028 52.328-37.028 83.424 0 46.99 35.152 85.771 53.624 102.897v87.127l-115.571-.24h-.021c-3.714 0-7.124 2.06-8.852 5.348L4.138 399.503a9.994 9.994 0 0 0 .253 9.746c-.002.061-.009.119-.009.18v58.995c0 5.509 4.456 9.98 9.965 10L466.973 480h.035a10.002 10.002 0 0 0 10-10v-60.571a9.953 9.953 0 0 0-.844-4.013zM140.493 117.72c0-52.057 46.889-97.72 100.342-97.72 52.235 0 96.364 44.75 96.364 97.72 0 36.937-25.731 72.765-49.639 90.423a10.002 10.002 0 0 0-4.059 8.044V333.03c-.456 1.418-3.731 5.784-11.135 10.521-7.024 4.493-13.923 6.845-17.106 6.845h-29.048c-3.324 0-10.881-2.364-18.893-6.884-8.501-4.795-12.435-9.134-13.202-10.739V216.186a9.999 9.999 0 0 0-3.367-7.483c-15.111-13.393-50.257-49.07-50.257-90.983zM64.56 327.517l109.557.228v5.533c0 11.259 11.48 20.534 21.11 26.333 8.659 5.213 21.346 10.784 30.985 10.784h29.048c12.175 0 25.663-8.469 29.507-11.063 6.996-4.725 18.734-14.392 18.734-26.054v-5.512l110.089.073 35.887 66.642-419.942-.314zm392.447 132.448l-432.625-1.506v-44.296l432.625.323z" id="path2-4"/><path class="st2" d="M197.248 88.777c6.002-5.997 19.119-12.496 29.08-12.612 5.523-.064 9.947-4.593 9.883-10.115-.064-5.522-4.59-9.99-10.116-9.883-16.105.188-34.166 9.652-42.979 18.458-9.309 9.291-19.53 29.926-19.812 47.063-.091 5.521 4.312 10.072 9.834 10.163l.168.001c5.446 0 9.905-4.37 9.995-9.836.182-11.061 7.645-26.949 13.947-33.239z" id="path4"/></g></g></g></svg>