<svg id="Layer_1" xmlns="http://www.w3.org/2000/svg" viewBox="-169 292.9 256 256"><style>.st0{fill:#0171b9}.st1{fill:#015491}</style><path class="st0" d="M-126.5 476.9H45v16.2h-171.5z"/><path class="st1" d="M-128.5 474.9V495H47v-20.2h-175.5zM45 493h-171.5v-16.2H45V493z"/><path class="st0" d="M-101.5 428.9l59-61.8c.6-.6 1.3-.9 2.1-.9s1.6.3 2.1.9l59 61.8s.2.1.3.1h21.5l-82.9-86.8-82.9 86.8h21.5c.1 0 .3 0 .3-.1z"/><path class="st1" d="M-101.7 431.1c.6 0 1.3-.3 1.7-.7l59-61.8c.2-.2.4-.3.7-.3.3 0 .5.1.7.3l59 61.8c.4.4 1.1.7 1.7.7h25.2c.5 0 .7-.3.3-.7l-86.2-90.2c-.2-.2-.4-.3-.7-.3s-.5.1-.7.3l-86.2 90.2c-.4.4-.2.7.3.7h25.2zm61.4-88.8l82.9 86.8H21.1c-.1 0-.3-.1-.3-.1l-59-61.8c-.6-.6-1.3-.9-2.1-.9s-1.6.3-2.1.9l-59 61.8c-.1.1-.2.1-.3.1h-21.5l82.9-86.8z"/></svg>