<svg id="Layer_1" xmlns="http://www.w3.org/2000/svg" viewBox="-169 292.9 256 256"><style>.st0,.st1{fill:#0171b9;stroke:#015491;stroke-width:2;stroke-miterlimit:10}.st1{fill:#fff}.st2{fill:#015491}</style><path class="st0" d="M34.1 354.2H9.9v-20.4H-6.4v20.4h-69.2v-20.4h-16.3v20.4H-116c-2.8 0-5 2.2-5 5v144.7c0 2.8 2.2 5 5 5H34.1c2.8 0 5-2.2 5-5V359.2c0-2.7-2.3-5-5-5z"/><path class="st1" d="M-100.4 396H18.4v96.4h-118.8z"/><path class="st2" d="M-86.6 463.2h9.1v-29.1c0-.8 0-1.7.1-2.7l-7.6 6.5c-.7.6-2 .6-2.5-.2l-1.7-2.3 12.7-11h4.3v38.7h8.4v4.1h-22.9v-4zM-41.8 424.1c6.3 0 12.1 3.8 12.8 10.4.7 7-4.2 12.3-8.8 16.9l-11.3 11.5c1.5-.4 3.2-.7 4.8-.7H-30c1.1 0 1.9.7 1.9 1.8v3.2h-28.5v-1.8c0-.9.4-1.7 1-2.3l13.7-13.7c2.6-2.7 5.4-5.5 6.8-9.1 1.2-3.2 1.2-7.6-1.7-10-2.7-2.2-7-2.2-9.9-.4-1.5.9-2.7 2.4-3.2 4.1-.6 1.6-.9 2.9-3 2.6l-2.8-.5c.5-3.4 1.9-6.6 4.5-8.8 2.6-2.2 6-3.2 9.4-3.2zM7.9 445.9c0 7.4-1.8 16.7-9.1 20.3-3.6 1.8-8.1 1.9-11.8.4-3.5-1.4-6.1-4.4-7.6-7.7-1.7-3.7-2.3-7.7-2.4-11.7-.1-4.1.2-8.2 1.5-12 1.2-3.5 3.1-6.8 6.2-8.9 3.4-2.2 7.8-2.8 11.7-1.7 9 2.6 11.5 13 11.5 21.3zm-5.5 0c0-5.2-.5-12.5-5.2-15.9-2.5-1.8-6-1.9-8.7-.5-2.5 1.3-3.9 3.9-4.7 6.4-.9 2.8-1.2 5.7-1.3 8.6-.1 3 0 6.1.7 9 .6 2.7 1.6 5.6 3.7 7.5 2.2 2.1 5.5 2.7 8.4 1.7 6.3-2.2 7.1-11 7.1-16.8z"/></svg>