<svg id="Layer_1" xmlns="http://www.w3.org/2000/svg" viewBox="0 0 60 60"><style>.st0{fill:#006db4}</style><path class="st0" d="M16.5 26.7c1 0 2-.6 2.4-1.6 1.9-4.1 6.2-7 11.1-7s9.2 2.9 11.1 7c.4 1 1.3 1.6 2.4 1.6 1.8 0 3.1-1.9 2.4-3.6-2.7-6.3-8.9-10.8-16.2-10.8s-13.6 4.5-16.2 10.8c-.7 1.7.6 3.6 2.4 3.6h.6zM43.6 33c-1.1 0-2 .7-2.4 1.6-1.9 4.2-6.2 7.2-11.2 7.2s-9.3-3-11.2-7.2c-.4-1-1.3-1.6-2.4-1.6h-.5c-1.8 0-3.1 1.9-2.4 3.6 2.6 6.4 8.9 11 16.3 11s13.7-4.5 16.3-11c.6-1.8-.6-3.6-2.5-3.6z"/><path class="st0" d="M15.2 32.2l8.5 3.5c1 .4 1.1 1.8.2 2.4l-4.6.9c-.8.2-1.5.7-1.9 1.4l-2 3.4c-.9.6-2.1 0-2.1-1.1v-9.2c0-1 1-1.7 1.9-1.3zM44.3 27.4l-8.5-3.5c-1-.4-1.1-1.8-.2-2.4l4.5-.9c.8-.2 1.5-.7 1.9-1.4l2-3.4c.9-.6 2.1 0 2.1 1.1v9.2c.1 1-.9 1.7-1.8 1.3z"/></svg>