<svg xmlns="http://www.w3.org/2000/svg" viewBox="-411 298 256 256"><g fill="#015491"><path d="M-304.05 347.63c-4.17-1.34-8.55-2.68-12.96-1.7-6.04.43-11.06 4.03-15.96 7.21-.26 4-3.08 7.75-1.94 11.79.37 2.24 3.71 3.15 4.99 1.14 4.68-5.47 11.89-7.67 18.61-9.42 2.87-2.6 5-5.9 7.26-9.02zM-196.45 415.73c-.93-6.97-2.12-13.99-4.63-20.59-5.52-15.24-15.81-28.46-28.3-38.66-2.52-.28-5.04-.62-7.57-.89-.81 1.03-1.57 2.1-2.47 3.06-1.31-.1-2.58-.4-3.86-.64-.76.33-1.52.67-2.28 1-3.54.31-7.07.63-10.61.93-7.2-2.22-15.06-5.86-22.5-2.41-2.05 3.41-5.17 5.82-8.53 7.87 1.71 3.43 6.67 1.92 7.69 6.09 1.02-1.03 2.01-2.09 3-3.16.14-1.74-.97-3.91.48-5.32 1.45-1.62 3.39-2.67 5.31-3.61-.3 1.53-.63 3.05-.99 4.57 1.56 1.82 2.81 4.26 1.05 6.44-1.8 4.52-7.56 3.16-10.93 1.37-2.16 2.14-4.87 3.52-7.54 4.9-3.31-1.17-5.29-4.05-6.81-7.04-1.53 1.97-3.21 3.82-4.93 5.64l3.7-.48c.58 2.04 1.05 4.2 2.45 5.88.8 1.35 2.42 2.62 1.94 4.39-1.55 3.91-8.66.04-8.84 5.14-1.23 3.67 4.31 7.3 6.7 3.78 2.26-3.75 4.75-8.81 9.99-8.23.56-.29 1.68-.87 2.23-1.16 1.01.7 2.02 1.41 3.03 2.12.84-.9 1.68-1.8 2.53-2.69 3.76 2.17 6.1 5.85 8.99 8.96.89-1.27 1.8-2.54 2.75-3.76 2.5.35 5.29-.44 7.56.92.96 2.46-2.03 2.93-3.48 4.05 2.28.2 4.6.18 6.84.67 3.36.76 4.18 6.18 1.12 7.84-3.91 2.37-8.57.34-12.66-.47-2.16-.49-3.82 1.74-5.97 1.62-2.28-.99-4.52-2.06-6.72-3.2-2.07-.91-2.14-3.45-2.88-5.28-4.32 1.67-9.06.11-13.39 1.72-4.59-.8-7.56 3.85-8.13 7.83-4.15 3.1-8.44 7.43-8.02 13.05.31 3.8-1.57 7.92.6 11.43 2 3.21 4.6 6.17 7.67 8.38 4.68.26 9.41-.85 13.86-2.31 2.95 1.43 5.71 3.25 8.7 4.61.01 2.36-.02 4.72-.07 7.07 2.9 3.69 4.56 8.21 5.17 12.83-.51 2.05-1.63 3.88-2.14 5.93-.32 2.64 1.1 4.99 2.07 7.33 1.09 2.32.53 5.04 1.56 7.39 1.13 2.59 2.23 5.19 2.99 7.93 2.72-.26 5.55-.31 8.12-1.36 4.16-2.18 6.17-6.57 8.56-10.35 1.44-1.76 1.09-4.17 1.76-6.22 1.45-2.9 5.11-3.83 6.65-6.59.99-4.23-1.59-8.4-.92-12.63 3.34-7.78 12.59-12.24 13.37-21.26-2.73.8-7.6 2.08-7.94-2.15 1.71-2.65 5.46-2.42 7.83-4.27 3-2.25 6.88-4.05 8.19-7.85-.67-1.63-1.75-3.03-2.75-4.46-1.15.53-2.29 1.07-3.43 1.6-2.37-2.19-6.36-4.27-5.85-8 4.08-.11 6.28 4.62 10.23 5.03 3.13.34 6.32.05 9.44.55 2.43 2.17 4.56 4.66 6.95 6.88 2.42 5.09 2.88 11.37 7.17 15.43.19-2.94-.52-6 .42-8.84 1.84-3.01 4.35-5.54 6.47-8.35zM-357.96 387.23c2.94.22 1.53-3.37 2.27-5.14.46-3.81 5.39-2.79 8.1-2.88-.4 1.46-.85 2.91-1.29 4.36 1-.11 2-.21 3.01-.3-.26-1.17-.55-2.32-.88-3.47 1.41-3.22-1.45-5.63-2.67-8.33-1.12.1-2.24.2-3.36.29-4.86 6.39-9.17 13.19-12.25 20.62 2-2.14 3.71-5.21 7.07-5.15zM-333.37 453.99c-3-5.4-9.75-4.98-14.23-8.38-3.52-1.32-2.75-6.39-6.21-7.67-3.35-1.42-5.95-3.95-8.62-6.31-2.65.1-5.03-.82-6.83-2.78-.48.22-1.42.66-1.9.88 1.19 20.35 9.29 40.23 23.21 55.17 2.23-2.8 2.63-6.29 3-9.71 1.49-1.88 4.12-1.91 6.02-3.16 2.67-2.87.74-7.06 1.4-10.51 1.4-2.5 3.82-4.55 4.16-7.53z"/><path d="M-241.63 475.34c.38.18 1.13.55 1.5.73 1.87-4.31 4.53-8.46 4.63-13.31-1.63 1.4-3.21 2.85-4.79 4.3-.28 2.79-1.3 5.47-1.34 8.28z"/></g></svg>