<svg id="Layer_1" xmlns="http://www.w3.org/2000/svg" viewBox="-169 292.9 256 256"><style>.st0{fill:#0171b9}.st1{fill:#015491}</style><path class="st0" d="M-126.8 345.3H44.7v16.2h-171.5z"/><path class="st1" d="M46.8 363.4v-20.2h-175.5v20.2H46.8zm-2-2h-171.5v-16.2H44.8v16.2z"/><path class="st0" d="M-101.8 409.4l59 61.8c.6.6 1.3.9 2.1.9s1.6-.3 2.1-.9l59-61.8s.2-.1.3-.1h21.5l-82.9 86.8-82.9-86.8h21.5c.2 0 .3.1.3.1z"/><path class="st1" d="M-127.2 407.3c-.5 0-.7.3-.3.7l86.2 90.2c.2.2.4.3.7.3s.5-.1.7-.3L46.3 408c.4-.4.2-.7-.3-.7H20.9c-.5 0-1.3.3-1.7.7l-59 61.8c-.2.2-.4.3-.7.3s-.5-.1-.7-.3l-59-61.8c-.4-.4-1.1-.7-1.7-.7h-25.3zm3.8 2h21.5s.2.1.3.1l59 61.8c.6.6 1.3.9 2.1.9s1.6-.3 2.1-.9l59-61.8s.2-.1.3-.1h21.5l-82.9 86.8-82.9-86.8z"/></svg>