<svg xmlns="http://www.w3.org/2000/svg" id="Layer_1" viewBox="-169 292.9 256 256"><style id="style2">.st0,.st1{fill:#0171b9;stroke:#015491;stroke-width:2;stroke-miterlimit:10}.st1{fill:#fff}.st2{fill:#015491}</style><g id="g4" transform="matrix(.45586 0 0 .40284 -141.113 331.5)"><path class="st2" d="M395.264 60.6h-81.71V21.184C313.554 9.504 304.049 0 292.37 0H50.265C38.583 0 29.081 9.504 29.081 21.184v342.564c0 11.68 9.502 21.185 21.185 21.185h81.71v39.413c0 11.68 9.502 21.184 21.185 21.184h242.104c11.68 0 21.185-9.504 21.185-21.184V81.784c-.001-11.682-9.506-21.184-21.186-21.184zM50.265 366.774a3.033 3.033 0 0 1-3.026-3.026V21.184a3.032 3.032 0 0 1 3.026-3.026H292.37a3.03 3.03 0 0 1 3.026 3.026v342.564a3.031 3.031 0 0 1-3.026 3.026zm348.026 57.56a3.023 3.023 0 0 1-3.026 3.025H153.16a3.026 3.026 0 0 1-3.026-3.025v-38.16H292.37c11.68 0 21.185-9.505 21.185-21.185v-6.425h43.367a9.077 9.077 0 0 0 9.079-9.079 9.077 9.077 0 0 0-9.079-9.079h-43.367v-44.384h43.367a9.077 9.077 0 0 0 9.079-9.079 9.076 9.076 0 0 0-9.079-9.078h-43.367V232.47h43.367a9.077 9.077 0 0 0 9.079-9.079 9.077 9.077 0 0 0-9.079-9.079h-43.367v-43.604h42.829a9.077 9.077 0 0 0 9.079-9.079 9.077 9.077 0 0 0-9.08-9.079h-42.828V78.758h81.71a3.03 3.03 0 0 1 3.026 3.026zM70.929 90.789a9.077 9.077 0 0 1 9.079-9.079h178.02a9.077 9.077 0 0 1 9.08 9.079 9.077 9.077 0 0 1-9.08 9.079H80.009a9.078 9.078 0 0 1-9.079-9.079zm86.558 61.762a9.077 9.077 0 0 1-9.08 9.079H80.009a9.078 9.078 0 0 1-9.079-9.079 9.077 9.077 0 0 1 9.079-9.079h68.4a9.077 9.077 0 0 1 9.079 9.079zm46.112 63.552a9.077 9.077 0 0 1-9.079 9.079h-42.78a9.078 9.078 0 0 1-9.08-9.079 9.077 9.077 0 0 1 9.08-9.079h42.78a9.077 9.077 0 0 1 9.08 9.079zm64.046 62.542a9.077 9.077 0 0 1-9.079 9.079H195.29a9.078 9.078 0 0 1-9.079-9.079 9.076 9.076 0 0 1 9.08-9.078h63.275c5.013-.001 9.079 4.066 9.079 9.078z" id="path2"/></g><path class="st1" d="M-73.298 398.5l.78 15.076" id="path67-1"/><path class="st1" d="M-53.28 423.224l.78 15.076" id="path67-1-0"/></svg>