<svg xmlns="http://www.w3.org/2000/svg" width="256" height="256" viewBox="0 0 256 256"><radialGradient id="a" cx="128.009" cy="109.232" r="83.345" gradientUnits="userSpaceOnUse"><stop offset="0" stop-color="#0f8dd3"/><stop offset="1" stop-color="#0c4f75"/></radialGradient><path fill="url(#a)" stroke="#015491" stroke-width="2" stroke-miterlimit="10" d="M113.355 126.324V54.252S114.443 40.863 128 40.863s13.473 13.473 13.473 13.473v71.988l29.71-28.487s6.979-4.985 16.522 4.558 2.849 16.807 2.849 16.807l-55.131 54.283s-3.642 4.115-7.767 4.115c-5.468 0-8.889-3.703-8.889-3.703l-54.98-56.689s-3.134-9.401 4.843-15.953c7.976-6.552 17.662-1.424 17.662-1.424l27.063 26.493z"/><g><radialGradient id="b" cx="128.177" cy="189.865" r="101.371" gradientUnits="userSpaceOnUse"><stop offset="0" stop-color="#0f8dd3"/><stop offset="1" stop-color="#0c4f75"/></radialGradient><path fill="url(#b)" stroke="#015491" stroke-width="2" stroke-miterlimit="10" d="M50.563 172.5s-.438-7.688 7-7.688 6.875 6.75 6.875 7.375v16.896s-.75 11.167 12.75 11.167c7.833 0 104.812-.125 104.812-.125s9.458-1.875 9.458-13.375v-15.688s.448-6.25 7.417-6.25 6.922 6.031 6.922 6.922v23.359s-.047 19.823-27.88 19.823H76.75S50.558 213.5 50.558 195.5s.005-23 .005-23z"/></g></svg>