<svg width="80" height="80" viewBox="0 0 60 60" xmlns="http://www.w3.org/2000/svg"><path fill="#006db4" d="M24.03 25.05c1.78-2.26 4.8-2.56 7.39-3.25-.31 2.05-2.08 5.12.53 6.37 1.99 1.25 3.7-.99 5.36-1.81.23 2.46 1 5.16-.42 7.42-2.14 4.25-8.36 5.4-11.91 2.26-3.28-2.58-3.78-7.9-.95-10.99z"/><path d="M12.492 30.07c5.135-4.86 9.647-12.273 17.487-12.451 7.921.044 12.451 7.565 17.595 12.46-5.161 4.832-9.674 12.299-17.559 12.37-7.832-.16-12.388-7.529-17.523-12.379z" stroke="#006db4" fill="none" stroke-width="3" fill-opacity="0"/></svg>