<svg id="Layer_1" xmlns="http://www.w3.org/2000/svg" viewBox="-169 292.9 256 256"><style>.st0,.st1{fill:#0171b9;stroke:#015491;stroke-width:2;stroke-miterlimit:10}.st1{fill:#fff}.st2{fill:#015491}</style><path class="st0" d="M34.1 354.2H9.9v-20.4H-6.4v20.4h-69.2v-20.4h-16.3v20.4H-116c-2.8 0-5 2.2-5 5v144.7c0 2.8 2.2 5 5 5H34.1c2.8 0 5-2.2 5-5V359.2c0-2.7-2.3-5-5-5z"/><path class="st1" d="M-100.4 396H18.4v96.4h-118.8z"/><path class="st2" d="M-75.2 424.1c5.3 0 10.8 2.7 12.1 8.3.6 2.5.4 5.5-.9 7.8-1.3 2.4-3.7 3.9-6.3 4.7 3.3.9 6.3 2.7 7.6 5.9 1.4 3.3 1 7.5-.9 10.6-3.8 6.5-13.4 8.1-19.9 4.9-3.9-1.9-5.9-5.7-7.1-9.7l2.3-1c1.6-.7 2.6 0 3.3 1.4.7 1.4 1.3 2.7 2.5 3.8 2.2 2.1 5.2 2.7 8.1 2.2 2.7-.4 5.3-2.1 6.4-4.7 1.2-2.6 1.1-6.4-1-8.6-2.3-2.3-6.1-2.6-9.2-2.6v-3.8c3.2 0 7.3-.6 9.2-3.7 1.7-2.8 1.2-7.2-1.3-9.4-2.6-2.2-6.8-2.2-9.7-.6-1.5.9-2.7 2.3-3.4 3.9-.7 1.7-.8 3.2-3.1 2.9l-2.8-.5c.5-3.4 1.9-6.6 4.5-8.8 2.8-2.1 6.2-3 9.6-3zM-44.3 440.5l-2.1 2.7c4.7-3.2 11.7-2.9 16 .9 4.3 3.8 5.1 10.7 2.6 15.7-2.5 5.3-8.1 8-13.8 7.8-5.8-.2-10.8-3.4-12.7-9-2.2-6.6.3-13 4.3-18.3l10.8-14.6c.7-.9 1.8-1.3 2.8-1.3h4.7l-12.6 16.1zm-5.8 13.6c0 3.9 1.9 7.5 5.7 8.8 3.5 1.1 7.9.3 10.4-2.5 2.6-2.9 3-7.5 1.2-10.8-1.8-3.5-6-4.9-9.7-4.3-4.4.6-7.6 4.3-7.6 8.8zM5.3 426.9c0 1.8-1.4 2.6-3.1 2.6h-13.4l-2 11.2c4.1-.9 8.7-1.2 12.7.5 3.8 1.7 6.3 5.1 6.9 9.2.7 4.2-.3 8.6-3 11.9-2.5 3.2-6.4 5-10.4 5.3-4.9.5-10-1.1-13.7-4.4l1.6-2.3c1-1.4 2.4-.5 3.6.2 1.4.8 2.8 1.5 4.3 1.8 3.1.7 6.6.2 9-1.9 4.8-4 4.6-13.4-1.6-15.9-3.5-1.4-7.8-.8-11.3.4l-3.3-1 3.4-20H5.3v2.4z"/></svg>