<svg id="Layer_1" xmlns="http://www.w3.org/2000/svg" viewBox="-519 406 40 40"><style>.st0{fill:none}.st1{fill:#0171b9}</style><path class="st0" d="M-499 413.8c-6.7 0-12.2 5.5-12.2 12.2s5.5 12.2 12.2 12.2 12.2-5.5 12.2-12.2-5.5-12.2-12.2-12.2zm8.4 19.4l-3-.2s.1-1.9-.5-4.1c-2.1 2.3-5.1 3.7-8.8 4.1v1.6l-5.4-3.2 5.5-3.1v1.6c2.9-.4 5.2-1.5 6.7-3.3.2-.3.4-.5.6-.8-.2-.3-.4-.5-.6-.8-1.6-1.8-3.8-2.9-6.7-3.3v1.6l-5.5-3.1 5.4-3.2v1.6c3.7.4 6.6 1.7 8.8 4 .7-2.2.5-4.1.5-4.2l3-.2c0 .2.3 3.8-1.5 7.4 1.8 3.9 1.6 7.5 1.5 7.6z"/><path class="st1" d="M-499 410.6c-8.5 0-15.4 6.9-15.4 15.4s6.9 15.4 15.4 15.4 15.4-6.9 15.4-15.4-6.9-15.4-15.4-15.4zm0 27.6c-6.7 0-12.2-5.5-12.2-12.2s5.5-12.2 12.2-12.2 12.2 5.5 12.2 12.2-5.5 12.2-12.2 12.2z"/><path class="st1" d="M-490.6 418.5l-3 .2s.1 1.9-.5 4.2c-2.1-2.3-5.1-3.6-8.8-4v-1.6l-5.4 3.2 5.5 3.1V422c2.9.4 5.2 1.5 6.7 3.3.2.2.4.5.6.8-.2.3-.4.5-.6.8-1.6 1.8-3.8 2.9-6.7 3.3v-1.6l-5.5 3.1 5.4 3.2v-1.6c3.7-.4 6.6-1.8 8.8-4.1.6 2.2.5 4.1.5 4.1l3 .2c0-.2.3-3.8-1.5-7.3 1.8-3.9 1.6-7.5 1.5-7.7z"/></svg>