<svg xmlns="http://www.w3.org/2000/svg" version="1" width="85.333" height="85.333" viewBox="0 0 64.000000 64.000000"><path d="M30 7c0 3.8-.2 4-4.2 5.1-5.6 1.5-12.2 8.1-13.7 13.7C11 29.8 10.8 30 7 30c-3.3 0-4 .3-4 2s.7 2 4 2c3.8 0 4 .2 5.1 4.2 1.5 5.6 8.1 12.2 13.7 13.7 4 1.1 4.2 1.3 4.2 5.1 0 3.3.3 4 2 4s2-.7 2-4c0-3.8.2-4 4.2-5.1 5.6-1.5 12.2-8.1 13.7-13.7 1.1-4 1.3-4.2 5.1-4.2 3.3 0 4-.3 4-2s-.7-2-4-2c-3.8 0-4-.2-5.1-4.2-1.5-5.6-8.1-12.2-13.7-13.7C34.2 11 34 10.8 34 7c0-3.3-.3-4-2-4s-2 .7-2 4zm10.1 11.3c10.6 7.1 10.6 20.3 0 27.4C30.3 52.3 16 44.2 16 32s14.3-20.3 24.1-13.7z"/><ellipse cx="36.542" cy="36.746" rx="4.814" ry="4.203" fill="#fff"/><circle cx="32.068" cy="32" r="11.66"/></svg>