<svg id="svg2" xmlns="http://www.w3.org/2000/svg" viewBox="-411 298 256 256"><style>.st0{fill:#006db4}</style><path class="st0" d="M-260.9 322.6c-40.8 0-73.9 33.1-73.9 73.9 0 12.5 3.1 24.2 8.6 34.5l-51.4 51.4h.1c-4 3.9-6.5 9.4-6.5 15.5 0 12 9.7 21.7 21.7 21.7 6 0 11.5-2.5 15.5-6.5l51.4-51.4c10.3 5.5 22.1 8.6 34.6 8.6 40.8 0 73.9-33.1 73.9-73.9-.1-40.7-33.2-73.8-74-73.8zm-93.6 182.9c-2 2-4.7 3.3-7.8 3.3-6 0-10.9-4.8-10.9-10.9 0-3.1 1.3-5.8 3.3-7.8v-.1l49.7-49.7c4.3 5.9 9.5 11 15.3 15.4l-49.6 49.8zm93.6-47.4c-34 0-61.6-27.6-61.6-61.6s27.6-61.6 61.6-61.6 61.6 27.6 61.6 61.6-27.6 61.6-61.6 61.6zm0 0"/><path class="st0" d="M-260.9 353.4c-23.8 0-43.1 19.3-43.1 43.1 0 1.7 1.4 3.1 3.1 3.1 1.7 0 3.1-1.4 3.1-3.1 0-20.4 16.5-37 37-37 1.7 0 3.1-1.4 3.1-3.1-.1-1.6-1.5-3-3.2-3zm0 0"/></svg>