<svg xmlns="http://www.w3.org/2000/svg" id="Layer_1" viewBox="-281 404.9 32 32"><style id="style3">.st0{fill:#0b7e0c}.st1{fill:#fff}</style><g id="g5"><path class="st0" d="M-265 409.6c-6.2 0-11.2 5-11.2 11.2 0 6.2 5 11.2 11.2 11.2s11.2-5 11.2-11.2c0-6.1-5-11.2-11.2-11.2zm7.2 7.9l-8.7 8.7c-.3.3-.6.4-.9.4-.3 0-.7-.1-.9-.4l-3.8-3.8c-.5-.5-.5-1.4 0-1.9s1.4-.5 1.9 0l2.8 2.8 7.7-7.7c.5-.5 1.4-.5 1.9 0s.5 1.4 0 1.9z" id="path7" fill="#4d4d4d"/><path class="st1" d="M-259.7 415.6l-7.7 7.7-2.8-2.8c-.5-.5-1.4-.5-1.9 0s-.5 1.4 0 1.9l3.8 3.8c.3.3.6.4.9.4.3 0 .7-.1.9-.4l8.7-8.7c.5-.5.5-1.4 0-1.9s-1.4-.5-1.9 0z" id="path9"/><path d="M14.416 26.937c-3.699-.59-6.72-2.812-8.428-6.2-.648-1.287-.983-2.642-1.067-4.324C4.653 11.07 8.102 6.436 13.344 5.1c1.475-.376 3.834-.376 5.312 0 3.74.95 6.656 3.678 7.926 7.414.428 1.26.453 1.435.46 3.296.008 1.669-.039 2.13-.305 3.051-.866 2.993-3.065 5.653-5.814 7.033-1.745.876-4.642 1.34-6.507 1.043zm-.206-5.354c.202-.106 2.395-2.23 4.875-4.72l4.508-4.528v-.617c0-1.037-.828-1.686-1.785-1.398-.174.053-2.092 1.864-4.263 4.024L13.6 18.272l-1.545-1.502c-1.654-1.609-2.062-1.826-2.788-1.481-.562.266-.922 1.072-.735 1.64.146.44 4.19 4.6 4.622 4.754.36.128.683.098 1.057-.1z" id="path3343" transform="translate(-281 404.9)" fill="#4d4d4d"/><path d="M14.034 26.87c-2.544-.506-4.404-1.544-6.212-3.466-.813-.864-1.193-1.413-1.72-2.487-.855-1.738-1.088-2.627-1.181-4.504-.251-5.028 2.764-9.422 7.601-11.075 1.09-.373 1.464-.431 3.085-.482 2.236-.07 3.464.185 5.342 1.112 3.976 1.964 6.352 6.012 6.13 10.445-.093 1.876-.326 2.766-1.178 4.499-1.02 2.076-2.862 3.92-4.978 4.982-1.903.955-4.876 1.377-6.89.976zm.564-5.62c.36-.29 2.533-2.415 4.826-4.722l4.17-4.194v-.615c0-.982-.799-1.638-1.715-1.408-.221.056-1.885 1.604-4.34 4.04l-3.983 3.95-1.526-1.506c-.941-.929-1.678-1.544-1.923-1.606-.878-.22-1.772.728-1.589 1.686.073.381 4.084 4.574 4.567 4.772.52.215.862.125 1.513-.398z" id="path3345" transform="translate(-281 404.9)" fill="#707070"/></g></svg>