<svg xmlns="http://www.w3.org/2000/svg" id="Layer_1" viewBox="-281 404.9 32 32"><style id="style3">.st0{fill:#7c0505}.st1{fill:#fff}</style><g id="g5"><path class="st0" d="M-265 409.6c-6.2 0-11.2 5-11.2 11.2 0 6.2 5 11.2 11.2 11.2s11.2-5 11.2-11.2c0-6.1-5-11.2-11.2-11.2zm5.5 16.8c-.5.5-1.4.5-1.9 0l-3.6-3.6-3.6 3.6c-.5.5-1.4.5-1.9 0s-.5-1.4 0-1.9l3.6-3.6-3.6-3.6c-.5-.5-.5-1.4 0-1.9s1.4-.5 1.9 0l3.6 3.6 3.6-3.6c.5-.5 1.4-.5 1.9 0s.5 1.4 0 1.9l-3.6 3.6 3.6 3.6c.5.5.5 1.4 0 1.9z" id="path7" fill="#707070"/><path class="st1" d="M-263.1 420.9l3.6-3.6c.5-.5.5-1.4 0-1.9s-1.4-.5-1.9 0l-3.6 3.6-3.6-3.6c-.5-.5-1.4-.5-1.9 0s-.5 1.4 0 1.9l3.6 3.6-3.6 3.6c-.5.5-.5 1.4 0 1.9s1.4.5 1.9 0l3.6-3.6 3.6 3.6c.5.5 1.4.5 1.9 0s.5-1.4 0-1.9l-3.6-3.6z" id="path9"/><path d="M13.986 26.857c-2.67-.506-5.217-2.065-6.812-4.17-2.88-3.8-3.042-9.049-.402-13.026 1.143-1.721 3.221-3.375 5.2-4.136 1.382-.532 2.357-.698 4.087-.697 3.159.002 5.785 1.135 7.973 3.438 3.265 3.437 4.004 8.208 1.936 12.493-1.421 2.946-4.034 5.103-7.16 5.912-1.403.363-3.467.443-4.822.186zm.039-6.907l1.977-1.961 1.974 1.961c1.922 1.91 1.99 1.962 2.552 1.962.815 0 1.37-.556 1.37-1.37 0-.562-.052-.63-1.961-2.552l-1.962-1.975 1.962-1.977c1.907-1.922 1.961-1.993 1.961-2.554 0-.813-.556-1.369-1.369-1.369-.56 0-.631.054-2.554 1.962l-1.977 1.961-1.974-1.961c-1.922-1.91-1.99-1.962-2.552-1.962-.815 0-1.37.556-1.37 1.37 0 .562.052.63 1.961 2.552l1.962 1.975-1.962 1.977c-1.907 1.923-1.961 1.993-1.961 2.554 0 .813.556 1.369 1.369 1.369.56 0 .631-.054 2.554-1.962z" id="path3336" transform="translate(-281 404.9)" fill="#4d4d4d"/><path d="M13.288 26.66c-2.22-.59-4.577-2.094-5.905-3.769-.81-1.022-1.757-2.95-2.11-4.301-.212-.81-.284-1.497-.284-2.712 0-1.993.293-3.235 1.199-5.085.542-1.106.814-1.47 1.933-2.583 2.008-1.997 3.905-2.955 6.477-3.27 2.398-.295 5.025.232 7.03 1.41 1.139.67 3.191 2.7 3.844 3.802.55.929 1.02 2.07 1.335 3.234.342 1.267.304 3.78-.078 5.197-1.041 3.857-3.785 6.747-7.543 7.943-1.396.444-4.467.514-5.898.134zm-1.08-4.97c.184-.123 1.112-.991 2.063-1.93L16 18.05l1.729 1.708c.95.94 1.88 1.808 2.064 1.93 1.213.805 2.692-.61 1.923-1.84-.154-.245-1.042-1.205-1.975-2.133l-1.697-1.688 1.888-1.926c1.038-1.06 1.926-2.082 1.973-2.272.116-.459-.16-1.258-.522-1.51-.16-.113-.555-.205-.878-.205-.572 0-.636.048-2.546 1.92L16 13.952l-1.96-1.919c-1.945-1.906-1.962-1.919-2.582-1.919-.697 0-1.208.376-1.365 1.006-.168.666.092 1.058 1.975 2.98l1.888 1.927-1.697 1.688c-.933.928-1.821 1.888-1.975 2.133-.769 1.23.71 2.645 1.923 1.84z" id="path4138" transform="translate(-281 404.9)" fill="#707070"/></g></svg>