<svg id="Layer_1" xmlns="http://www.w3.org/2000/svg" viewBox="-267 390.9 60 60"><style>.st0{fill:#fff}</style><path class="st0" d="M-248.4 417.1h6.8v7h-6.8zM-256.6 425.7h6.9v7.1h-6.9zM-256.6 408.7h6.9v6.9h-6.9zM-248.4 425.7h6.8v7.1h-6.8zM-256.6 417.1h6.9v7h-6.9zM-248.4 408.7h6.8v6.9h-6.8zM-232 417.1h6.5v7h-6.5zM-232 408.7h6.5v6.9h-6.5zM-240.2 425.7h6.8v7.1h-6.8zM-240.2 417.1h6.8v7h-6.8zM-240.2 408.7h6.8v6.9h-6.8zM-232 425.7h6.5v7.1h-6.5zM-224.2 417.1h6.8v7h-6.8zM-224.2 434.2h6.8v5.9h-6.8zM-240.2 434.2h6.8v5.9h-6.8zM-224.2 425.7h6.8v7.1h-6.8zM-224.2 408.7h6.8v6.9h-6.8zM-248.4 434.2h6.8v5.9h-6.8zM-232 434.2h6.5v5.9h-6.5zM-256.6 434.2h6.9v5.9h-6.9z"/><path d="M-217.8 398.6h-38.4c-1.2 0-2.3 1.1-2.3 2.5v39.5c0 1.4 1 2.5 2.3 2.5h38.4c1.3 0 2.3-1.1 2.3-2.5v-39.5c0-1.4-1.1-2.5-2.3-2.5zm-14.2 3.5h6.5v3.3h-6.5v-3.3zm6.5 23.6v7.1h-6.5v-7.1h6.5zm-6.5-1.5v-7h6.5v7h-6.5zm6.5-8.6h-6.5v-6.9h6.5v6.9zm-7.9 10.1v7.1h-6.8v-7.1h6.8zm-6.8-1.5v-7h6.8v7h-6.8zm6.8-8.6h-6.8v-6.9h6.8v6.9zm-8.1 10.1v7.1h-6.8v-7.1h6.8zm-6.9-1.5v-7h6.8v7h-6.8zm6.9-8.6h-6.8v-6.9h6.8v6.9zm1.3-13.5h6.8v3.3h-6.8v-3.3zm-8.2 0h6.8v3.3h-6.8v-3.3zm-8.2 0h6.9v3.3h-6.9v-3.3zm0 6.6h6.9v6.9h-6.9v-6.9zm0 8.4h6.9v7h-6.9v-7zm0 8.6h6.9v7.1h-6.9v-7.1zm0 14.5v-5.9h6.9v5.9h-6.9zm8.2 0v-5.9h6.8v5.9h-6.8zm8.2 0v-5.9h6.8v5.9h-6.8zm8.2 0v-5.9h6.5v5.9h-6.5zm14.6 0h-6.8v-5.9h6.8v5.9zm0-7.5h-6.8v-7.1h6.8v7.1zm0-8.5h-6.8v-7h6.8v7zm0-8.6h-6.8v-6.9h6.8v6.9zm0-10.2h-6.8v-3.3h6.8v3.3z"/><path class="st0" d="M-249.7 402.1h-6.9v3.3h6.9v-3.3zm-5 2.7c-.5 0-.9-.3-.9-.6s.4-.6.9-.6.9.3.9.6-.4.6-.9.6zm2.9 0c-.5 0-.9-.3-.9-.6s.4-.6.9-.6.9.3.9.6-.4.6-.9.6zM-241.5 402.1h-6.8v3.3h6.8v-3.3zm-4.9 2.7c-.5 0-.9-.3-.9-.6s.4-.6.9-.6.9.3.9.6-.4.6-.9.6zm2.9 0c-.5 0-.9-.3-.9-.6s.4-.6.9-.6.9.3.9.6-.4.6-.9.6zM-233.4 402.1h-6.8v3.3h6.8v-3.3zm-4.8 2.7c-.5 0-.9-.3-.9-.6s.4-.6.9-.6.9.3.9.6-.4.6-.9.6zm2.9 0c-.5 0-.9-.3-.9-.6s.4-.6.9-.6.9.3.9.6-.4.6-.9.6zM-225.5 402.1h-6.5v3.3h6.5v-3.3zm-4.7 2.7c-.5 0-.9-.3-.9-.6s.4-.6.9-.6.9.3.9.6-.4.6-.9.6zm2.9 0c-.5 0-.9-.3-.9-.6s.4-.6.9-.6.9.3.9.6-.4.6-.9.6zM-224.2 405.4h6.8v-3.3h-6.8v3.3zm4.9-1.8c.5 0 .9.3.9.6s-.4.6-.9.6-.9-.3-.9-.6.4-.6.9-.6zm-2.9 0c.5 0 .9.3.9.6s-.4.6-.9.6-.9-.3-.9-.6.4-.6.9-.6z"/><ellipse cx="-219.3" cy="404.2" rx=".9" ry=".6"/><ellipse cx="-222.2" cy="404.2" rx=".9" ry=".6"/><ellipse cx="-227.3" cy="404.2" rx=".9" ry=".6"/><ellipse cx="-230.2" cy="404.2" rx=".9" ry=".6"/><ellipse cx="-235.3" cy="404.2" rx=".9" ry=".6"/><ellipse cx="-238.2" cy="404.2" rx=".9" ry=".6"/><ellipse cx="-243.5" cy="404.2" rx=".9" ry=".6"/><ellipse cx="-246.4" cy="404.2" rx=".9" ry=".6"/><ellipse cx="-251.8" cy="404.2" rx=".9" ry=".6"/><ellipse cx="-254.7" cy="404.2" rx=".9" ry=".6"/></svg>