<svg xmlns="http://www.w3.org/2000/svg" viewBox="0 0 256 256"><path fill="#FFF" stroke="#005491" stroke-width="3" stroke-miterlimit="10" d="M208.134 98.155c1.085 1.085 1.809 2.713 1.809 4.341v37.082c0 .362 0 .904-.181 1.266-.181 1.266-.904 2.352-1.628 3.075l-38.71 39.072v20.621h-32.379v-26.591c0-7.236 2.894-14.29 8.14-19.536l30.028-30.028c2.532-2.352 6.331-2.352 8.864 0a6.172 6.172 0 0 1 1.809 4.341c0 1.628-.543 3.256-1.809 4.341l-7.778 7.778-14.471 14.471c-1.266 1.266-1.266 3.256 0 4.341.543.543 1.447.904 2.171.904.724 0 1.628-.362 2.171-.904l31.294-31.294V102.492c0-3.437 2.894-6.331 6.331-6.331 1.625.185 3.253.909 4.339 1.994z"/><radialGradient id="a" cx="153.415" cy="208.582" r="14.91" gradientUnits="userSpaceOnUse"><stop offset=".492" stop-color="#0081d4"/><stop offset="1" stop-color="#0068aa"/></radialGradient><path fill="url(#a)" stroke="#005491" stroke-miterlimit="10" d="M133.246 202.432h40.338v12.3h-40.338z"/><path fill="#FFF" stroke="#005491" stroke-width="3" stroke-miterlimit="10" d="M47.866 98.155c-1.085 1.085-1.809 2.713-1.809 4.341v37.082c0 .362 0 .904.181 1.266.181 1.266.904 2.352 1.628 3.075l38.71 38.71v20.621h32.379v-26.591c0-7.236-2.894-14.29-8.14-19.536l-30.028-29.847c-2.532-2.352-6.331-2.352-8.864 0a6.172 6.172 0 0 0-1.809 4.341c0 1.628.543 3.256 1.809 4.341l7.778 7.778 14.471 14.471c1.266 1.266 1.266 3.256 0 4.341-.543.543-1.447.904-2.171.904s-1.628-.362-2.171-.904l-31.294-30.932V102.673c0-3.437-2.894-6.331-6.331-6.331-1.625.004-3.253.728-4.339 1.813z"/><radialGradient id="b" cx="102.585" cy="208.582" r="14.91" gradientUnits="userSpaceOnUse"><stop offset=".492" stop-color="#0081d4"/><stop offset="1" stop-color="#0068aa"/></radialGradient><path fill="url(#b)" stroke="#005491" stroke-miterlimit="10" d="M82.416 202.432h40.338v12.3H82.416z"/><radialGradient id="c" cx="127.558" cy="85.392" r="44.125" gradientUnits="userSpaceOnUse"><stop offset=".492" stop-color="#0081d4"/><stop offset="1" stop-color="#0068aa"/></radialGradient><circle fill="url(#c)" stroke="#005491" stroke-miterlimit="10" cx="127.558" cy="85.392" r="44.125"/><path fill="#FFF" stroke="#005491" stroke-miterlimit="10" d="M147.966 96.669c0-7.994-4.715-12.893-14.146-14.956l-3.319-.651v-13.74c2.534.531 4.534 2.032 5.532 4.034a4.982 4.982 0 0 0 4.459 2.768c3.856 0 6.358-4.251 4.305-7.515-2.68-4.261-7.703-7.118-14.296-7.85v-2.373a3.384 3.384 0 1 0-6.768 0v2.372c-10.462 1.139-16.583 6.865-16.583 15.624 0 7.662 4.752 12.783 13.63 14.845l2.953.696v14.439c-2.99-.556-5.265-2.088-6.387-4.241-.872-1.673-2.566-2.753-4.453-2.753h-.498c-3.858 0-6.331 4.238-4.304 7.521 2.762 4.472 8.213 7.29 15.642 7.914v1.595a3.384 3.384 0 1 0 6.768 0v-1.63c11.17-1.15 17.465-6.915 17.465-16.099zm-30.17-23.208c0-3.215 2.429-5.648 5.937-6.194v12.37c-3.878-1.056-5.937-3.172-5.937-6.176zm12.704 31.034v-13.29c4.797 1.079 7.04 3.216 7.04 6.642.001 3.733-2.596 6.181-7.04 6.648z"/></svg>