<svg xmlns="http://www.w3.org/2000/svg" width="720" height="400" viewBox="0 0 576 320"><path d="M140.962 21.594h81.205c.126 21.948.036 43.879.054 65.827h42.294c.234-21.948-.486-43.914.36-65.827h85.92c.252 64.201.037 128.42.109 192.621h-86.389V143.97h-42.294c.017 23.415 0 46.83 0 70.245h-81.44c.126-64.201-.251-128.42.18-192.621zM421.976 21.594H541.57c.234 17.371.054 34.76.108 52.131-27.626-.018-55.234.036-82.86-.035-3.726.088-7.938.07-10.835 2.739-6.623 5.726-3.654 18.856 5.489 20.057 23.757 1.573 49.223-3.552 71.433 7.193 15.226 7.121 23.864 23.132 25.772 39.072v26.083c-1.746 11.38-5.94 22.973-14.722 30.996-11.266 10.727-27.59 14.138-42.816 14.385H369.35v-51.69c28.058.018 56.135-.052 84.211.053 4.41-.035 9.34.089 12.868-2.986 6.731-5.708 3.312-18.75-5.705-19.845-23.883-1.414-49.98 3.446-71.702-8.942-16.954-9.278-24.783-29.017-24.711-47.325-.846-17.566 3.815-36.88 18.16-48.509 10.906-9.277 25.574-12.052 39.504-13.377z" fill="#023f2a"/><path d="M31.522 23.944c5.133.236 10.287.276 15.42.826-14.163 8.403-6.405 1.424-14.828 12.336-.237-4.388-.335-8.775-.592-13.162zM55.454 24.21c8.549 0 14.633-.248 23.164.282-33.881 6.79-40.886 22.668-46.848 47.325-.306-8.854-.072-14.36-.18-23.23 2.718-15.837 19.717-22.551 23.864-24.378z" fill="#ea5045"/><path d="M91.954 25.128c8.189-2.721 16.954-1.484 25.43-1.767v191.296H30.997c.072-37.234-.162-74.486.108-111.738.288-18.98 7.091-37.924 19.888-52.255C61.664 38.4 76.17 29.528 91.954 25.128zM28.836 254.63c.108-1.838.216-3.658.342-5.496 12.077.106 24.153.053 36.248.036.072 1.802.126 3.605.198 5.407-5.328-.018-10.655-.018-16-.088.072 13.342-.018 26.667.054 40.009a722.3 722.3 0 0 1-6.245.035c.072-13.342-.036-26.684.054-40.026-4.878.052-9.773.052-14.65.123zM287.156 250.954c2.718-2.544 6.623-2.332 10.079-2.915.017 1.413.054 4.276.09 5.69-1.26.088-3.744.283-5.004.371-.234 2.174-.468 4.365-.702 6.556 2.952.778 5.508 2.315 6.875 5.143-1.655.123-4.967.37-6.623.495.036 9.366-.017 18.75.036 28.115-1.835.053-3.671.124-5.507.194.054-9.49-.036-18.979.09-28.469-1.278.036-3.852.106-5.13.16.018-1.202.055-3.623.055-4.825 1.223.053 3.671.124 4.895.16.162-3.553-.18-7.21.846-10.674zM517.85 250.16c1.817-.46 3.635-.92 5.47-1.361.073 5.425.055 10.85 0 16.275 5.526-5.372 17.062-6.839 20.932 1.114 1.602 9.348.306 18.961.72 28.416-1.836-.071-3.672-.142-5.49-.195-.323-8.535.864-17.23-.737-25.677-2.754-5.301-9.701-2.244-13.75-.23-1.764 8.589-1.836 17.372-1.602 26.102-1.836-.071-3.672-.142-5.508-.195 0-14.755.09-29.494-.036-44.25zM353.693 252.032l5.993-.159c-.072 3.128-.125 6.274-.18 9.42 1.818-.089 3.654-.16 5.49-.23v5.283c-1.818-.088-3.636-.159-5.453-.247.072 7.81.072 15.622 0 23.45 1.835.124 3.671.265 5.507.407l-.216 5.16c-3.762-.619-9.557.866-10.745-4.012-.828-8.305-.108-16.717-.324-25.058l-4.373.353c0-1.66.018-3.304.036-4.948 1.08.053 3.276.124 4.355.16-.036-3.2-.053-6.38-.09-9.579zM499.474 252.032l5.993-.159c-.072 3.128-.126 6.274-.18 9.42 1.818-.089 3.654-.16 5.49-.248 0 1.325 0 3.976.017 5.301-1.836-.088-3.653-.159-5.471-.247.072 7.81.072 15.64 0 23.45 1.836.124 3.671.265 5.525.407-.072 1.29-.18 3.87-.234 5.142-3.761-.565-9.61.848-10.762-4.047-.792-8.305-.09-16.682-.306-25.005l-4.374.353c0-1.66.018-3.304.036-4.93l4.356.141c-.036-3.198-.054-6.38-.09-9.578zM71.04 261.292c5.076-1.025 11.105-1.042 15.119 2.704 6.749 5.408 6.137 15.322 3.923 22.726-3.293 10.108-18.141 12.211-25.412 5.178-7.415-9.048-5.742-26.313 6.37-30.608zM146.487 264.332c6.011-5.372 16.918-4.7 21.813 1.82 2.862 4.03 2.592 9.19 2.484 13.872-5.382-.035-10.763-.052-16.144-.318a134.58 134.58 0 0 0-8.441.672c.954 2.827 1.962 5.637 2.951 8.465 3.114.777 6.21 2.58 9.521 1.802 3.096-1.237 5.04-4.064 7.2-6.432 1.421 0 4.283.018 5.722.018-2.321 4.276-4.913 9.295-10.096 10.673-7.757 3.146-17.53-1.237-19.798-9.26-1.637-7.245-1.26-16.046 4.788-21.312zM182.518 266.364c3.006-2.986 6.731-5.054 10.709-6.468.234 2.033.486 4.065.72 6.115-3.888 1.13-9.18 1.838-10.187 6.52-1.242 7.228-.27 14.703-.504 22.037-1.476-.035-4.427-.088-5.903-.123 0-10.656.126-21.33-.072-31.986 1.404-.318 4.211-.972 5.615-1.29-.09 1.29-.27 3.888-.378 5.195zM203.377 261.91c7.92-3.64 18.196-.847 21.543 7.53-1.44.53-4.301 1.625-5.74 2.155-.955-1.802-1.927-3.623-2.88-5.425a75.364 75.364 0 0 0-11.987.124c-.054 1.626-.126 4.877-.162 6.503 6.317 2.315 13.57 2.704 19.132 6.662 2.303 3.923 2.231 9.914-1.53 13.007-4.734 4.364-12.203 4.1-18.052 2.368-4.86-1.432-5.975-6.751-7.685-10.763 1.926-.14 3.87-.265 5.813-.388 1.494 2.209 2.286 5.284 5.076 6.308 3.635 1.856 7.63-.018 11.302-.795a1485.6 1485.6 0 0 1 2.304-5.178c-6.443-4.877-15.982-3.286-21.615-9.277-1.944-4.7-.234-10.462 4.481-12.83zM256.452 261.47c7.055-2.174 16-.125 19.456 6.803 2.951 7.068 2.717 15.922-1.944 22.248-6.551 8.5-22.443 6.98-26.169-3.446-2.61-9.012-1.493-21.63 8.657-25.606zM322.107 263.678c7.883-6.556 23.29-3.41 23.973 8.094-3.635-.389-6.929-2.174-8.8-5.302-4.482-.671-13.48-2.368-12.419 4.7 5.13 5.126 13.588 3.677 19.276 7.935 4.625 4.737 1.673 13.678-4.464 15.693-5.165 1.59-11.122 1.838-16.054-.6-3.887-1.945-4.661-6.575-6.263-10.127 1.692-.106 5.075-.283 6.767-.37a563.53 563.53 0 0 0 1.188 5.318c5.021 2.192 10.295 1.909 15.244-.335.072-1.503.198-4.524.252-6.026-7.253-2.528-15.37-3.181-21.507-8.165.27-3.693-.108-7.952 2.807-10.815zM377.072 266.276c3.204-2.757 6.785-5.072 10.817-6.486.27 2.121.558 4.26.846 6.398-4.104.812-9.557 1.537-10.475 6.432-1.458 7.192-.378 14.65-.63 21.948-1.476-.035-4.427-.088-5.903-.123.018-10.674.108-21.348-.072-32.021 1.386-.318 4.157-.937 5.543-1.255a481.33 481.33 0 0 0-.126 5.107zM394.872 266.205c5.435-7.21 18.087-7.369 23.54-.123 2.754 4.029 2.97 9.189 2.61 13.89-8.207.035-16.414-.124-24.62.176.917 2.916 1.907 5.796 2.88 8.695 3.113.76 6.226 2.562 9.538 1.802 3.114-1.22 5.057-4.064 7.217-6.432 1.44 0 4.301.018 5.723.018-2.573 5.195-6.55 11.486-13.354 11.009-6.695 1.22-13.858-1.962-16.126-8.535-2.034-6.663-1.98-14.792 2.592-20.5zM94.186 262.264c2.285-.035 4.571-.053 6.857-.07 1.872 8.164 3.851 16.31 6.335 24.316 2.268-8.306 3.977-16.753 6.425-25.006 1.566 0 4.698.018 6.281.036 2.142 8.305 4.05 16.7 6.821 24.846 1.98-7.316 3.6-14.738 5.832-21.983.396-3.146 3.905-2.757 6.227-3.411-2.592 11.416-6.533 22.496-9.467 33.823-2.034.018-4.05.036-6.083.071-2.232-8.606-4.86-17.124-6.66-25.854-2.393 8.571-4.553 17.177-6.784 25.766-2.016.018-4.014.053-6.03.088-3.203-10.886-6.209-21.842-9.754-32.622zM427.123 262.035c2.016.123 4.05.265 6.066.406l-1.314 3.375c5.723-5.584 18.861-7.722 21.92 1.556 1.8 9.03.325 18.36.865 27.514-1.998 0-3.978-.018-5.957 0-.324-9.507 1.44-19.333-1.746-28.504-5.58-1.131-10.727.495-13.93 5.23-.018 7.635-.054 15.269 0 22.903h-5.868c.018-10.833.072-21.665-.036-32.48zM465.188 264.526c4.806-5.018 12.203-3.393 17.998-1.307 2.214-.53 4.445-1.06 6.66-1.573-.145 11.398.341 22.814-.163 34.195a12.97 12.97 0 0 1-8.71 12.034H467.69c-2.574-2.315-4.895-4.86-7.199-7.404 1.53-.566 4.59-1.715 6.12-2.28.99 1.661 1.979 3.34 2.987 5.019 3.455.212 6.911.335 10.384.46 2.862-3.641 4.266-8.006 5.418-12.406-6.407 4.046-16.09 5.831-21.525-.725-5.616-7.422-4.806-19.068 1.313-26.013z" fill="#023f2a"/><path d="M69.547 268.131c3.726-4.541 11.806-3.658 14.434 1.538 3.456 7.033 1.494 15.851-3.941 21.418-3.384-.442-7.397.194-10.097-2.333-5.04-5.672-4.805-14.685-.396-20.623zM149.024 268.396c2.88-1.396 5.868-3.269 9.251-2.544 4.986.282 6.191 5.76 8.1 9.33-6.57.212-13.14.16-19.708.142a784.362 784.362 0 0 0 2.357-6.928zM255.228 268.626c3.06-4.736 8.873-3.198 13.427-1.926 1.547 3.605 2.753 7.316 3.815 11.08-1.566 5.037-2.808 13.13-9.719 13.148-11.356.371-12.49-15.162-7.523-22.302zM396.366 275.2c1.853-4.276 4.499-10.214 10.312-9.437 5.867-.813 7.973 5.249 9.863 9.42-6.731.211-13.462.23-20.175.017zM466.61 274.193c.036-4.418 3.672-8.783 8.46-8.27 5.146-.743 7.396 4.382 9.7 7.863-.648 5.32-.216 12.088-5.507 15.357-3.06 1.025-6.804 1.272-9.63-.512-3.977-3.73-3.347-9.56-3.023-14.438z" fill="#fff"/></svg>