<svg xmlns="http://www.w3.org/2000/svg" width="256" height="256" viewBox="0 0 256 256"><radialGradient id="a" cx="127" cy="127.667" r="87" gradientUnits="userSpaceOnUse"><stop offset=".759" stop-color="#0081d4"/><stop offset="1" stop-color="#0068aa"/></radialGradient><path fill="url(#a)" stroke="#015491" stroke-width="2" stroke-miterlimit="10" d="M127.151 182.996c-.051 0-.1.004-.151.004-30.836 0-55.833-24.997-55.833-55.833S96.164 71.334 127 71.334s55.833 24.997 55.833 55.833c0 16.472-7.137 31.274-18.482 41.493l22.717 21.941C203.662 174.758 214 152.42 214 127.667c0-48.049-38.951-87-87-87s-87 38.951-87 87 38.951 87 87 87c.085 0 .169-.003.253-.003l-.102-31.668z"/><g><linearGradient id="b" gradientUnits="userSpaceOnUse" x1="168.385" y1="232.571" x2="138.665" y2="150.916"><stop offset="0" stop-color="#a8acb0"/><stop offset="1" stop-color="#c6cbcf"/></linearGradient><path fill="url(#b)" stroke="#A7ACB0" stroke-width="2" stroke-miterlimit="10" d="M135.917 151.917v85.667s38 4.333 59-26.333l-59-59.334z"/></g></svg>