<svg xmlns="http://www.w3.org/2000/svg" width="180mm" height="72mm" viewBox="0 0 637.79519 255.11813"><defs><clipPath id="a"><path d="M0 223h585.5V0H0v223z"/></clipPath></defs><g stroke-width=".453"><path d="M117.084 71.582h-19.35v87.657h19.35V71.582zM134.22 158.86V71.583h14.613l74.077 57.95v-57.95h19.25v87.277h-14.715l-73.874-58.857v58.857h-19.35zM294.132 123.788h40.01l-20.358-36.383-19.652 36.383zM252.81 158.86l51.803-87.277h20.459l52.608 87.277h-23.886l-10.985-19.149h-57.747l-10.987 19.15H252.81zM387.716 158.86V71.583h21.466v70.95h68.431v16.327h-89.897zM527 123.788h40.012l-20.358-36.383-19.653 36.383zm-41.32 35.072l51.803-87.277h20.459l52.609 87.277h-23.887l-10.985-19.149h-57.748l-10.985 19.15h-21.267z" fill="#032d48"/><g clip-path="url(#a)" transform="matrix(1.25 0 0 -1.25 -27.877 289.297)"><path d="M108.964 59.6c-26.449 0-47.889 21.441-47.889 47.89 0 19.028 11.098 35.463 27.175 43.188v16.488c-24.71-8.577-42.455-32.047-42.455-59.677 0-34.887 28.281-63.169 63.17-63.169 30.257 0 55.52 21.283 61.698 49.69H154.91c-5.822-19.883-24.179-34.41-45.945-34.41" fill="#8ab840"/></g></g></svg>