<svg xmlns="http://www.w3.org/2000/svg" viewBox="0 0 256 256"><radialGradient id="a" cx="119.206" cy="163.848" r="67.224" gradientTransform="matrix(1 0 0 1.171 0 -55.864)" gradientUnits="userSpaceOnUse"><stop offset="0" stop-color="#0081d4"/><stop offset="1" stop-color="#0068aa"/></radialGradient><path fill="url(#a)" stroke="#015491" stroke-miterlimit="10" d="M162.736 70.767l.078-14.128h23.061v158.737H52.538V56.661h21.593l.126 14.124c.027 2.984 3.453 5.389 6.437 5.389h76.605a5.437 5.437 0 0 0 5.437-5.407z"/><path fill="#FFF" d="M69.41 189.293c0 1.65 1.35 3 3 3h92.849c1.65 0 3-1.35 3-3V66.221c0-1.65-1.35-3-3-3H72.41c-1.65 0-3 1.35-3 3v123.072z"/><path fill="none" stroke="#015491" stroke-miterlimit="10" d="M69.41 189.293c0 1.65 1.35 3 3 3h92.849c1.65 0 3-1.35 3-3V66.221c0-1.65-1.35-3-3-3H72.41c-1.65 0-3 1.35-3 3v123.072z"/><radialGradient id="b" cx="725.678" cy="95.294" r="9.702" gradientTransform="matrix(2.6476 0 0 1 -1803.02 0)" gradientUnits="userSpaceOnUse"><stop offset="0" stop-color="#0081d4"/><stop offset="1" stop-color="#0068aa"/></radialGradient><path fill="url(#b)" stroke="#015491" stroke-miterlimit="10" d="M82.376 93.241h71.839v4.107H82.376z"/><radialGradient id="c" cx="612.321" cy="119.515" r="9.702" gradientTransform="matrix(2.0116 0 0 1 -1122.089 0)" gradientUnits="userSpaceOnUse"><stop offset="0" stop-color="#0081d4"/><stop offset="1" stop-color="#0068aa"/></radialGradient><path fill="url(#c)" stroke="#015491" stroke-miterlimit="10" d="M82.376 117.461h54.582v4.107H82.376z"/><radialGradient id="d" cx="725.678" cy="107.432" r="9.702" gradientTransform="matrix(2.6476 0 0 1 -1803.02 0)" gradientUnits="userSpaceOnUse"><stop offset="0" stop-color="#0081d4"/><stop offset="1" stop-color="#0068aa"/></radialGradient><path fill="url(#d)" stroke="#015491" stroke-miterlimit="10" d="M82.376 105.379h71.839v4.107H82.376z"/><radialGradient id="e" cx="118.597" cy="57.592" r="27.808" gradientUnits="userSpaceOnUse"><stop offset="0" stop-color="#0081d4"/><stop offset="1" stop-color="#0068aa"/></radialGradient><path fill="url(#e)" stroke="#015491" stroke-miterlimit="10" d="M102.565 55.075c0-5.614 6.529-14.076 16.276-14.076s15.27 8.463 15.27 14.116l20.141.018V70.56a3.625 3.625 0 0 1-3.625 3.625H86.579a3.625 3.625 0 0 1-3.625-3.625l-.012-15.476 19.623-.009zm16.336-6.983c-3.707 0-7.553 2.631-7.666 7.282-.109 4.492 3.444 7.755 7.731 7.755 4.359 0 7.313-3.123 7.251-7.409-.07-4.713-3.61-7.628-7.316-7.628z"/><g><path fill="#FFF" stroke="#FFF" stroke-miterlimit="10" d="M190.096 96.546l-63.925 49.305-17.78 39.402 44.751-11.463 60.243-48.535z"/><circle fill="#FFF" stroke="#015491" stroke-miterlimit="10" cx="127.75" cy="168.25" r="29.75"/><radialGradient id="f" cx="188.642" cy="204.494" r="45.924" gradientTransform="rotate(5.902 801.738 -55.421)" gradientUnits="userSpaceOnUse"><stop offset="0" stop-color="#0081d4"/><stop offset="1" stop-color="#0068aa"/></radialGradient><path fill="url(#f)" stroke="#015491" stroke-miterlimit="10" d="M212.99 115.003l-12.5-15.784c-1.53-1.886-4.474-2.145-6.373-.63l-66.476 52.645-13.194 29.404 31.316-6.711 66.634-52.803c1.898-1.516 2.124-4.234.593-6.121zm-67.123 58.655l-18.299 4.058-7.423-9.522 7.742-16.648c10.502 1.219 8.905 11.455 8.905 11.455s10.134.409 9.075 10.657z"/><path fill="#FFF" stroke="#015491" stroke-miterlimit="10" d="M136.793 163.001s1.596-10.236-8.905-11.455l-7.742 16.648 7.423 9.522 18.299-4.058c1.058-10.248-9.075-10.657-9.075-10.657z"/></g></svg>