<svg xmlns="http://www.w3.org/2000/svg" width="256" height="256" viewBox="0 0 256 256" version="1"><path fill="#025593" d="M123 39c8 1 15 1 22 2 5 0 10 3 14 6 3 1 4 4 4 7 3 0 6 1 6 4-1 3-4 5-6 8 3 0 7-1 8 3 1 3-2 5-5 6 2 1 5 2 5 4 1 3-2 5-4 6l3 3c0 2-1 3-2 5 2 4 6 7 11 8 4 2 8 6 11 10 6-4 13-7 19-11 3 9 5 18 4 27 0 4 1 9-2 12-1 3-3 3-5 4 0 2 0 5-2 6-3 2-7 1-9-2 0 3 0 6-3 7s-5 0-7-2c0 2-1 5-3 5-3 1-5-1-6-3 0 1-1 3-1 4-2 1-4 0-6 0-3 4-4 9-3 14 0 5-3 8-5 12-1-1-2-2-4-3 7 6 13 12 19 19-9 6-19 13-30 14-4 1-8-2-11-4-2 0-5 1-7-1s0-4 1-7c-1 0-1-1-2-1-2 1-6 2-7-1-2-2 0-4 1-6-2 0-6 1-7-2-1-2 1-4 2-6-2 0-4 1-5 0-1-2-1-4-1-6-2-2-5-3-8-2-7 2-14 3-21 1-3 7-6 13-9 19-8-5-16-12-21-20-2-5-4-11-2-16-1-1-3-3-2-6 2-2 5-3 8-3-2-2-4-5-2-7 1-2 5-3 7-2 0-2-2-4-1-6 1-3 4-2 7-2-1-2-2-4-1-6 2 0 3-1 4-1 0-4 1-8-2-11-3-4-5-10-6-15h5c-2-1-4-2-6-2-6 0-13-1-19-2 3-10 7-21 15-29 3-2 5-3 8-5 1 1 2 1 3 1 2-2 4-5 7-4s2 5 5 7c1-2 3-5 6-5 3 1 3 4 3 6 2-1 4-3 7-2 2 1 2 4 2 6 1-1 2-3 4-2 4 0 3 6 7 5 3-2 5-5 7-8 3-4 8-6 12-9 1 1 1 2 2 3 0-3-2-5-2-7-1-5-3-11-4-17z"/><path fill="#027fcf" d="M126 41c9 1 20 0 29 5 3 2 6 4 7 8-11 1-21 6-31 11-2-8-4-16-5-24z"/><path fill="#027fcf" d="M141 62c7-3 13-5 20-6 2 0 5-1 6 2-2 3-4 5-6 8 2 2 5 2 8 3 0 2-3 4-5 5 2 2 3 4 5 5 0 3-4 4-5 7 1 1 3 2 4 4-9 5-18 9-28 10-11 3-23 4-34 3 0-8 0-16-1-23 5-1 8-4 11-8s7-7 10-9c1 2 2 3 3 4 4-1 8-3 12-5zM69 69c0-3 3-5 5-6 1 8 0 16 0 24 1-1 3-2 4-3 2-5 2-10 4-15 0-2 2-2 3-3 1 2 1 4 3 6 2 0 3-1 5-2 2 1 3 4 4 6 1-1 3-1 5-2 1 4 1 8 2 11 0 7 0 14-1 21-2 10-5 20-8 30-8-3-16-5-24-6 0-5 0-9-2-13-3-3-5-7-6-12 2-1 6-2 5-5 1-10-1-21 1-31z"/><path fill="#027fcf" d="M59 71c2-2 5-3 8-4-1 11-1 22-1 33-7 0-15-1-23-3 4-9 8-19 16-26zM77 71c0-1 2-1 2-2 0 5-2 9-3 13 0-3 0-7 1-11zM155 98c3-1 7-3 11-5 2 4 4 7 8 8 5 2 9 5 13 8-1 2-2 3-3 5 7 9 14 18 19 28 0 2 2 4 0 5-3 2-7-2-10-1-1 2-1 5-2 7l-6-3c-1 2-2 4-4 5-2-1-4-2-7-4 0 2-1 4-1 6-8-6-15-15-19-24-4-10-11-20-10-31 3-1 7-2 11-4z"/><path fill="#fff" d="M105 105c13 1 25 0 37-3 0 12 6 22 11 32-9 7-18 14-26 22-5-3-9-7-14-10s-11-6-16-9c3-10 6-21 8-32z"/><path fill="#027fcf" d="M188 114c6-3 13-7 20-11 3 11 4 21 3 32 0 3-3 6-6 6-3-4-4-8-7-12-4-5-7-10-10-15zM187 111c4-1 0 4-1 1l1-1zM67 132c14 0 26 6 38 12 7 3 13 8 19 13-3 4-6 9-9 13-2 2-3 4-6 5s-7 0-10 1c-5 2-10 2-14 2-1-2-1-4-1-5-5-2-9-3-14-4-8-3-16-5-22-11 3-2 6-3 9-5 0-2-2-4-2-7 3 0 5 0 7-1 0-2 0-4-1-7 2 0 5 1 6-1 1-1 0-3 0-5zM121 167c9-12 21-22 33-31 3 8 8 14 14 20-2 4-4 8-4 12s-1 9-3 13c-2-1-4-3-6-1-6 8-11 17-18 25-2 3-5 4-8 3 0-1 0-2 1-3 2-4 7-8 9-12 0-2-1-3-3-3-4 2-7 7-11 9-1 1-3 2-4 0 0-2 1-4 2-6-3-1-5-1-7-1 0-3 1-5 1-8h-5c1-6 5-12 9-17z"/><path fill="#027fcf" d="M51 164c10 4 20 8 30 10-3 7-6 14-10 21-8-5-15-12-19-20-2-4-3-8-1-11zM137 209c7-8 12-18 19-26 6 5 11 10 17 16-9 6-17 13-28 13-3 1-6-1-8-3zM129 199c2-3 4-4 7-6-2 3-3 6-6 8-1-1-1-1-1-2z"/></svg>