<svg id="Layer_1" xmlns="http://www.w3.org/2000/svg" viewBox="-273 396.9 48 48"><style>.st0{fill:#fff}.st1{fill:#949494}</style><path class="st0" d="M-235.7 419.5c-.1-.9-.3-1.8-.5-2.6-.1-.4-.3-.8-.5-1.2-.3-.8-.8-1.6-1.2-2.3-2.4-3.6-6.5-5.9-11.1-5.9s-8.7 2.3-11.1 5.9c-.5.7-.9 1.5-1.2 2.3-.2.4-.3.8-.5 1.2-.3.8-.4 1.7-.5 2.6 0 .5-.1.9-.1 1.4 0 1.4.2 2.7.6 4 .1.4.3.8.5 1.2.3.8.8 1.6 1.2 2.3 2.4 3.6 6.5 5.9 11.1 5.9s8.7-2.3 11.1-5.9c.5-.7.9-1.5 1.2-2.3.2-.4.3-.8.5-1.2.4-1.3.6-2.6.6-4 0-.5 0-.9-.1-1.4z"/><path class="st1" d="M-249 417.1c-1.1 0-1.9 1.1-1.9 2.4v8.3c0 1.3.8 2.4 1.9 2.4 1.1 0 1.9-1.1 1.9-2.4v-8.3c0-1.3-.8-2.4-1.9-2.4z"/><path class="st1" d="M-249 405.2c-8.6 0-15.7 7-15.7 15.7 0 8.6 7 15.7 15.7 15.7s15.7-7 15.7-15.7-7.1-15.7-15.7-15.7zm12.3 20.9c-.3.8-.8 1.6-1.2 2.3-2.4 3.6-6.5 5.9-11.1 5.9s-8.7-2.3-11.1-5.9c-.5-.7-.9-1.5-1.2-2.3-.2-.4-.3-.8-.5-1.2-.4-1.3-.6-2.6-.6-4 0-.5 0-.9.1-1.4.1-.9.3-1.8.5-2.6.1-.4.3-.8.5-1.2.3-.8.8-1.6 1.2-2.3 2.4-3.6 6.5-5.9 11.1-5.9s8.7 2.3 11.1 5.9c.5.7.9 1.5 1.2 2.3.2.4.3.8.5 1.2.3.8.4 1.7.5 2.6 0 .5.1.9.1 1.4 0 1.4-.2 2.7-.6 4-.1.4-.3.8-.5 1.2z"/><circle class="st1" cx="-249" cy="413.4" r="1.9"/></svg>