<svg xmlns="http://www.w3.org/2000/svg" viewBox="0 0 256 256"><radialGradient id="a" cx="128" cy="128" r="85.334" gradientUnits="userSpaceOnUse"><stop offset="0" stop-color="#0081d4"/><stop offset="1" stop-color="#0068aa"/></radialGradient><path fill="url(#a)" stroke="#015491" stroke-width="3" stroke-miterlimit="10" d="M211.93 91.413l-82.49-48.356a2.845 2.845 0 0 0-2.813-.037l-82.49 45.512a2.84 2.84 0 0 0-1.471 2.489V210.49a2.843 2.843 0 0 0 2.844 2.844h14.223a2.843 2.843 0 0 0 2.844-2.844v-99.557h130.847v99.557a2.841 2.841 0 0 0 2.844 2.844h14.223a2.841 2.841 0 0 0 2.844-2.844V93.865a2.84 2.84 0 0 0-1.405-2.452z"/><radialGradient id="b" cx="88.178" cy="151.847" r="18.912" gradientUnits="userSpaceOnUse"><stop offset="0" stop-color="#0081d4"/><stop offset="1" stop-color="#0068aa"/></radialGradient><path fill="url(#b)" d="M71.111 170.759a1.846 1.846 0 0 1-1.844-1.845V134.78c0-1.018.827-1.845 1.844-1.845h34.134c1.017 0 1.845.827 1.845 1.845v34.134a1.847 1.847 0 0 1-1.845 1.845H71.111z"/><path fill="#015491" d="M105.245 133.936c.466 0 .844.379.844.844v34.134a.845.845 0 0 1-.844.844H71.111a.845.845 0 0 1-.844-.844V134.78a.84.84 0 0 1 .845-.845h34.133m0-1.999H71.111a2.841 2.841 0 0 0-2.844 2.844v34.134a2.841 2.841 0 0 0 2.844 2.844h34.134a2.841 2.841 0 0 0 2.844-2.844V134.78a2.842 2.842 0 0 0-2.844-2.844z"/><path fill="#FFF" d="M83.063 133.926h9.75v10.403h-9.75z"/><g><path fill="#015491" d="M79.645 133.822V145.2a2.841 2.841 0 0 0 2.844 2.844h11.378a2.841 2.841 0 0 0 2.844-2.844v-11.378h-5.689v8.533h-5.689v-8.533h-5.688z"/></g><g><path fill="#015491" d="M61.5 116.621h133.042v5.689H61.5z"/></g><g><path fill="#FFF" stroke="#015491" stroke-width="2" stroke-miterlimit="10" d="M142.223 82.487h-28.445a2.845 2.845 0 0 0-2.844 2.844v11.378a2.845 2.845 0 0 0 2.844 2.844h28.445a2.843 2.843 0 0 0 2.844-2.844V85.332a2.844 2.844 0 0 0-2.844-2.845z"/></g><g><radialGradient id="c" cx="88.178" cy="194.789" r="18.911" gradientUnits="userSpaceOnUse"><stop offset="0" stop-color="#0081d4"/><stop offset="1" stop-color="#0068aa"/></radialGradient><path fill="url(#c)" d="M71.111 213.7a1.846 1.846 0 0 1-1.845-1.845v-34.134c0-1.018.827-1.845 1.845-1.845h34.134c1.017 0 1.844.827 1.844 1.845v34.134a1.846 1.846 0 0 1-1.844 1.845H71.111z"/><path fill="#015491" d="M105.245 176.877c.466 0 .844.379.844.844v34.134a.845.845 0 0 1-.844.844H71.111a.845.845 0 0 1-.844-.844v-34.134a.84.84 0 0 1 .845-.845h34.133m0-1.999H71.111a2.841 2.841 0 0 0-2.844 2.844v34.134a2.841 2.841 0 0 0 2.844 2.844h34.134a2.841 2.841 0 0 0 2.844-2.844v-34.134a2.842 2.842 0 0 0-2.844-2.844z"/><path fill="#FFF" d="M83.063 176.867h9.75v10.403h-9.75z"/><g><path fill="#015491" d="M79.645 176.763v11.378a2.841 2.841 0 0 0 2.844 2.844h11.378a2.841 2.841 0 0 0 2.844-2.844v-11.378h-5.689v8.533h-5.689v-8.533h-5.688z"/></g></g><g><radialGradient id="d" cx="130.845" cy="194.789" r="18.911" gradientUnits="userSpaceOnUse"><stop offset="0" stop-color="#0081d4"/><stop offset="1" stop-color="#0068aa"/></radialGradient><path fill="url(#d)" d="M113.778 213.7a1.846 1.846 0 0 1-1.845-1.845v-34.134c0-1.018.827-1.845 1.845-1.845h34.134c1.017 0 1.844.827 1.844 1.845v34.134a1.846 1.846 0 0 1-1.844 1.845h-34.134z"/><path fill="#015491" d="M147.912 176.877c.466 0 .844.379.844.844v34.134a.845.845 0 0 1-.844.844h-34.134a.845.845 0 0 1-.844-.844v-34.134a.84.84 0 0 1 .845-.845h34.133m0-1.999h-34.134a2.841 2.841 0 0 0-2.844 2.844v34.134a2.841 2.841 0 0 0 2.844 2.844h34.134a2.841 2.841 0 0 0 2.844-2.844v-34.134a2.842 2.842 0 0 0-2.844-2.844z"/><path fill="#FFF" d="M125.73 176.867h9.75v10.403h-9.75z"/><g><path fill="#015491" d="M122.312 176.763v11.378a2.841 2.841 0 0 0 2.844 2.844h11.378a2.841 2.841 0 0 0 2.844-2.844v-11.378h-5.689v8.533H128v-8.533h-5.688z"/></g></g></svg>