<svg xmlns="http://www.w3.org/2000/svg" viewBox="0 0 60 60"><path fill="#FFF" d="M13.458 10.616h26.047v33.885H13.458z"/><path d="M37.558 42.276v2.225a1 1 0 0 0 2 0M14.569 11.516h22.989v6.586l2-2.026v-5.559a1 1 0 0 0-1-1H13.569a1 1 0 0 0-1 1v33.985a.997.997 0 1 0 1.942.32l10.552 7.662v-32.63l-10.495-7.62v-.718zm5.628 16.344c1.088 0 1.996 1.296 2.284 3.057 0 .267.153 1.459.038 2.105-.243 1.876-1.189 3.277-2.324 3.277-1.318 0-2.388-1.89-2.385-4.219-.001-2.332 1.067-4.22 2.387-4.22z"/><path d="M29.761 28.888l9.372-9.372a1.956 1.956 0 1 1 2.768 2.766l-6.032 6.033h19.528a1.955 1.955 0 1 1 .001 3.913h-19.53l6.033 6.033a1.958 1.958 0 0 1-2.768 2.767l-9.373-9.374c-.764-.763-.764-2 .001-2.766z"/></svg>