<svg xmlns="http://www.w3.org/2000/svg" viewBox="0 0 60 60"><path fill="#FFF" d="M13.333 10.616H39.38v33.885H13.333z"/><path d="M14.444 11.516h22.989V25.459h1.999V10.516a1 1 0 0 0-.999-1H13.444a1 1 0 0 0-1 1v33.985a.997.997 0 1 0 1.942.32l10.552 7.662V19.854l-10.495-7.62v-.718zm7.95 21.507c-.243 1.876-1.189 3.277-2.324 3.277-1.318 0-2.388-1.89-2.385-4.219 0-2.332 1.068-4.22 2.388-4.22 1.088 0 1.996 1.296 2.284 3.057-.001.266.152 1.459.037 2.105z"/><path d="M54.593 26.951l-9.372-9.372a1.956 1.956 0 1 0-2.768 2.766l6.032 6.033H28.957a1.955 1.955 0 1 0-.001 3.913h19.53l-6.033 6.033a1.958 1.958 0 0 0 2.768 2.767l9.373-9.374a1.955 1.955 0 0 0-.001-2.766z"/><path d="M37.433 31.493v13.01a1 1 0 0 0 1.999 0V31.494h-1.999z"/></svg>