<svg xmlns="http://www.w3.org/2000/svg" viewBox="0 0 60 60"><path d="M51.622 24.152L40.58 13.11a1.578 1.578 0 0 0-2.693 1.115v4.732H26.845a1.577 1.577 0 1 0 0 3.154h12.619c.871 0 1.577-.706 1.577-1.577v-2.502l7.234 7.234-7.234 7.234V30c0-.871-.706-1.577-1.577-1.577H22.113V23.69a1.578 1.578 0 0 0-2.693-1.115L8.378 33.617a1.576 1.576 0 0 0 0 2.23L19.42 46.889a1.577 1.577 0 0 0 2.692-1.116v-4.732h11.042a1.577 1.577 0 1 0 0-3.154H20.536c-.871 0-1.577.706-1.577 1.577v2.502l-7.234-7.234 7.234-7.234V30c0 .871.706 1.577 1.577 1.577h17.352v4.732a1.578 1.578 0 0 0 2.693 1.115l11.042-11.042a1.58 1.58 0 0 0-.001-2.23z"/></svg>