<svg id="Layer_1" xmlns="http://www.w3.org/2000/svg" viewBox="-411 298 256 256"><style>.st0{fill:#fff}.st1{fill:#015491}.st2{fill:url(#SVGID_1_)}.st3{fill:url(#SVGID_2_)}.st4{fill:url(#SVGID_3_)}.st5{fill:url(#SVGID_4_)}.st6{fill:url(#SVGID_5_)}.st7{fill:url(#SVGID_6_);stroke:#015491;stroke-width:2;stroke-miterlimit:10}</style><path class="st0" d="M-240.8 491.4c-17.8 0-35.7-4.9-53-9.7-14.9-4.1-29-8-41.3-8-13.8 0-20.7 2-24.9 3.1-1.1.3-2 .6-2.6.7l23.5-59.5c3.3-1.4 13.8-5.3 24.7-5.3 24.6 0 32 5.6 39.3 11.1 6.1 4.6 12.5 9.4 28 9.4 14.9 0 32.9-1.6 42.6-3.2l-20.2 57.5c-1.1.9-5.8 3.9-16.1 3.9z"/><path class="st1" d="M-314.2 415.7c23.6 0 30.6 5.3 37.5 10.5 6.5 4.9 13.3 10 29.8 10 12.7 0 27.8-1.1 38.2-2.5l-18.2 51.9c-1.6 1-5.7 2.9-13.7 2.9-17.4 0-35.1-4.9-52.2-9.6-15.1-4.2-29.4-8.1-42.1-8.1-11.2 0-18 1.3-22.5 2.4l20.9-52.8c3.9-1.7 12.9-4.7 22.3-4.7m0-6c-14 0-27 6-27 6l-25 63.2c1.2 1.2 2.1 1.6 3.3 1.6 3.5 0 8.9-3.8 28-3.8 25.5 0 60.2 17.8 94.2 17.8 14 0 18.8-5.2 18.8-5.2l22.2-63.2c-5.5 1.8-28.5 4.2-47.2 4.2-32.1-.1-20.6-20.6-67.3-20.6z"/><radialGradient id="SVGID_1_" cx="-320.514" cy="437.382" r="12.975" gradientUnits="userSpaceOnUse"><stop offset="0" stop-color="#0081d4"/><stop offset="1" stop-color="#0068aa"/></radialGradient><path class="st2" d="M-328.7 430.5c.4-.3.8-.7 1.1-1.1 1.3-1.3 2.8-3 9.3-3.3h1.1c6.6 0 10 3.3 10.8 4.2.2 5.5.3 11.4.1 13-2.6.9-18.2 3.6-28.9 5.4l6.5-18.2z"/><path class="st1" d="M-317.1 427.1c5.7 0 8.8 2.6 9.8 3.6.2 4.7.3 9.7.2 11.8-3.3.9-15.1 3-26.4 4.9l5.7-16.2c.4-.3.7-.7 1-1 1.1-1.2 2.6-2.7 8.7-3 .3-.1.7-.1 1-.1m0-2h-1.2c-9 .5-9.2 3.5-11.2 4.8l-7 20s30.8-5 31.2-6 0-14 0-14-3.6-4.8-11.8-4.8z"/><radialGradient id="SVGID_2_" cx="-279.278" cy="441.497" r="17.962" gradientUnits="userSpaceOnUse"><stop offset="0" stop-color="#0081d4"/><stop offset="1" stop-color="#0068aa"/></radialGradient><path class="st3" d="M-269.8 453.4c-6.7 0-24.6-4.9-28.1-5.8l-3.8-17.6c.2-.1.8-.4 2.3-.4.5 0 1 0 1.6.1l.7.1c4.4.4 6.9.7 13.5 5.5 4.2 3.1 7.5 3.3 10.9 3.6 2.7.2 5.4.4 9 2 6.4 2.9 7 8.8 6.8 10.3-.2 0-.3.1-.5.1-1.9.5-6.3 1.7-11.6 2.1h-.8z"/><path class="st1" d="M-299.4 430.6c.4 0 .9 0 1.5.1l.7.1c4.4.4 6.6.6 13 5.3 4.5 3.2 8 3.5 11.4 3.8 2.6.2 5.3.4 8.7 1.9 5.4 2.4 6.2 6.9 6.2 8.7-1.9.5-6.2 1.7-11.3 2h-.7c-6.3 0-22.7-4.4-27.2-5.6l-3.5-16.2c.3-.1.7-.1 1.2-.1m0-2c-3.3 0-3.3 1.3-3.3 1.3l4 18.5s21.3 6 28.9 6h.8c6.8-.5 12-2.2 12.8-2.4s1.2-8.4-7-12.1-12.5-.2-19.8-5.5-9.8-5.2-14.8-5.8h-1.6z"/><g><radialGradient id="SVGID_3_" cx="-253.315" cy="467.736" r="17.562" gradientUnits="userSpaceOnUse"><stop offset="0" stop-color="#0081d4"/><stop offset="1" stop-color="#0068aa"/></radialGradient><path class="st4" d="M-245.9 476.7c-3.6 0-25.4-3.6-30.5-6.1 2.9-2.1 12.3-8 18.5-11.9h27.8c-.5 4.8-2.3 14.6-7 16.6-1.6.7-4.8 1.4-8.8 1.4z"/><path class="st1" d="M-231.3 459.7c-.7 5.6-2.7 13.1-6.3 14.7-1.4.6-4.5 1.3-8.4 1.3-3.7 0-21.8-3.1-28.5-5.4 3.4-2.3 10.3-6.7 16.7-10.6h26.5m2.2-2h-29.2s-20.3 12.5-19.8 13c2.8 2.8 28.3 7 32.2 7 3.8 0 7.2-.7 9.2-1.5 6.7-2.9 7.6-18.5 7.6-18.5z"/></g><g><radialGradient id="SVGID_4_" cx="-284.33" cy="460.226" r="11.594" gradientUnits="userSpaceOnUse"><stop offset="0" stop-color="#0081d4"/><stop offset="1" stop-color="#0068aa"/></radialGradient><path class="st5" d="M-284.3 467.6h-.3c-6.9-.6-13.1-2.4-13.7-4-.6-1.7-.6-3.1-.6-4.4v-1.5c-.1-1.9-.2-3.7.5-4.4.1-.1.4-.4 1.4-.4.4 0 .9 0 1.4.1 1.5.3 4.3 1 7.5 1.9 6.6 1.7 14.8 3.9 18.4 3.9-1.5 2.2-10.2 8.8-14.6 8.8z"/><path class="st1" d="M-297 453.9c.3 0 .7 0 1.2.1 1.5.3 4.2 1 7.5 1.8 5.6 1.5 12.4 3.2 16.6 3.8-2.9 2.7-9.4 7-12.6 7h-.2c-7-.6-12.1-2.4-12.8-3.4-.5-1.5-.5-2.8-.5-4.1v-1.5c0-.9-.2-3.2.2-3.6-.1 0 .1-.1.6-.1m0-2c-3.1 0-3.1 2.5-2.9 5.9.1 1.8-.2 3.7.7 6.2s8.8 4.2 14.5 4.7h.4c5.9 0 19.5-10.9 15-10.9H-269.6c-5.1 0-21.2-4.9-25.8-5.7-.6-.2-1.1-.2-1.6-.2z"/></g><g><radialGradient id="SVGID_5_" cx="-321.847" cy="456.547" r="13.425" gradientUnits="userSpaceOnUse"><stop offset="0" stop-color="#0081d4"/><stop offset="1" stop-color="#0068aa"/></radialGradient><path class="st6" d="M-307.1 462.2c-1 0-2.3-.1-3.8-.4l-3-.6c-5.9-1.1-11.1-2.1-15.7-2.1-1.1 0-2.2.1-3.3.2-3 .3-5 .9-6.2 1.2-.2 0-.3.1-.5.1-.1-.4-.2-.7-.3-.9-.2-.5-.3-.7.2-1.4 1.2-1.6 9.8-7.4 24.2-7.4h.6c6.1.1 9.7.8 10.7 2.1.5.6.3 1.5 0 2.8-.2.6-.3 1.2-.4 1.8-.1.5-.1 1.1-.1 1.6.2 2.3.2 3-2.4 3z"/><path class="st1" d="M-315.4 449.9v2h.6c8.1.1 9.7 1.3 10 1.7.2.3 0 1.2-.2 2-.2.6-.3 1.3-.4 2-.1.6-.1 1.2-.1 1.7 0 .6 0 1.5-.2 1.7 0 0-.3.2-1.4.2-.9 0-2.1-.1-3.6-.4-1-.2-2-.4-2.9-.6-6-1.2-11.2-2.1-15.9-2.1-1.2 0-2.3.1-3.4.2-2.8.3-4.6.8-5.9 1.1v-.1s0-.1-.1-.1c0-.1.1-.1.2-.3.7-.9 8.6-7 23.4-7l-.1-2m0 0c-15.3 0-23.9 6.2-25.1 7.8-1.3 1.8 0 2.2 0 3.5 0 .4.1.5.4.5.8 0 2.8-1 7.3-1.5 1-.1 2.1-.2 3.1-.2 5.3 0 11.2 1.3 18.5 2.7 1.7.3 3 .5 4 .5 4.3 0 3.4-2.6 3.7-5.5.3-3.5 4.3-7.7-11.3-7.8h-.6z"/></g><radialGradient id="SVGID_6_" cx="-246.35" cy="407.278" r="35.238" gradientUnits="userSpaceOnUse"><stop offset="0" stop-color="#0081d4"/><stop offset="1" stop-color="#0068aa"/></radialGradient><path class="st7" d="M-220.5 390.5c0-14.3-11.6-25.8-25.8-25.8-14.3 0-25.8 11.6-25.8 25.8 0 3.9.9 7.6 2.5 10.9l23.2 48.5 23.6-48.5c1.4-3.3 2.3-7 2.3-10.9zm-26 9.7c-5.1 0-9.2-4.1-9.2-9.2s4.1-9.2 9.2-9.2 9.2 4.1 9.2 9.2-4.2 9.2-9.2 9.2z"/></svg>