<svg id="Layer_1" xmlns="http://www.w3.org/2000/svg" viewBox="-267 390.9 60 60"><style>.st0{fill:#333}.st1{fill:#fff}</style><path class="st0" d="M-224.2 412.6l8.6-7-21.6-6.2-21.3 17.4 8.6 2.5-8.6 7 .3.1-.3.3 8.6 2.5-8.6 7 21.6 6.2 21.3-17.4-8.6-2.5 8.6-7-.3-.1.3-.3-8.6-2.5zm2.1 13.7l-15.6 12.7-14.3-4.1 5.7-4.7 9.3 2.7 9.8-8 5.1 1.4zm-15.5 2.8l-13.9-4 5.7-4.7 9 2.6 9.5-7.7 5 1.4-15.3 12.4z"/><path class="st1" d="M-236.9 423l-8.9-2.6-5.8 4.7 14 4 15.2-12.4-5-1.4z"/><path class="st1" d="M-236.9 432.9l-9.3-2.7-5.7 4.7 14.3 4.1 15.5-12.7-4.9-1.4z"/></svg>