<svg id="Layer_1" xmlns="http://www.w3.org/2000/svg" viewBox="-279 390.9 36 60"><style>.st0{fill:#fff}.st1{fill:#006db3}</style><path class="st0" d="M-249.5 447.6c-.8 0-1.6-.3-2.1-.9l-23.6-23.6c-.6-.6-.9-1.3-.9-2.1s.3-1.6.9-2.1l23.9-23.9c.6-.6 1.3-.9 2.1-.9s1.6.3 2.1.9c.6.6.9 1.3.9 2.1s-.3 1.6-.9 2.1l-21.8 21.8 21.4 21.4c.6.6.9 1.3.9 2.1s-.3 1.6-.9 2.1c-.5.7-1.2 1-2 1z"/><path class="st1" d="M-249.1 395.6c.2 0 .7.1 1.1.4.4.4.4.8.4 1.1s-.1.7-.4 1.1l-20.8 20.8-2.1 2.1 2.1 2.1 20.4 20.4c.4.4.4.8.4 1.1s-.1.7-.4 1.1c-.4.4-.8.4-1.1.4-.2 0-.7-.1-1.1-.4l-23.6-23.6c-.4-.4-.4-.8-.4-1.1 0-.2.1-.7.4-1.1l23.9-23.9c.5-.4.9-.5 1.2-.5m0-3c-1.2 0-2.3.4-3.2 1.3l-23.9 23.9c-1.8 1.8-1.8 4.6 0 6.4l23.6 23.6c.9.9 2 1.3 3.2 1.3s2.3-.4 3.2-1.3c1.8-1.8 1.8-4.6 0-6.4l-20.4-20.4 20.8-20.8c1.8-1.8 1.8-4.6 0-6.4-1-.7-2.2-1.2-3.3-1.2z"/></svg>