<svg xmlns="http://www.w3.org/2000/svg" viewBox="0 0 131.718 131.718"><path fill="#1E252C" d="M66.045 15.437c17.125 0 31.012 13.886 31.012 31.012 0 16.862-10.163 18.829-12.073 37.214a3.096 3.096 0 0 1-3.101 3.101H50.206a3.096 3.096 0 0 1-3.101-3.101h-.006c-1.904-18.385-12.065-20.352-12.065-37.214-.001-17.126 13.885-31.012 31.011-31.012m15.506 74.429a3.096 3.096 0 0 1 3.101 3.102 3.096 3.096 0 0 1-3.101 3.101H50.539a3.096 3.096 0 0 1-3.102-3.101 3.096 3.096 0 0 1 3.102-3.102h31.012m0 9.304a3.096 3.096 0 0 1 3.101 3.101 3.096 3.096 0 0 1-3.101 3.101H50.539a3.096 3.096 0 0 1-3.102-3.101 3.096 3.096 0 0 1 3.102-3.101h31.012m-3.102 9.304a6.2 6.2 0 0 1-6.202 6.202H59.842a6.2 6.2 0 0 1-6.202-6.202h24.809M66.045 8.348c-21.01 0-38.102 17.092-38.102 38.102 0 10.549 3.447 16.606 6.479 21.957 2.575 4.528 4.805 8.453 5.601 15.748.076 1.62.54 3.143 1.295 4.479a10.09 10.09 0 0 0-.969 4.334c0 1.675.401 3.254 1.122 4.651a10.127 10.127 0 0 0-1.122 4.652c0 4.369 2.761 8.099 6.631 9.547 1.482 5.717 6.686 9.948 12.862 9.948h12.405c6.175 0 11.381-4.23 12.862-9.948 3.87-1.447 6.631-5.178 6.631-9.547 0-1.675-.408-3.254-1.128-4.652a10.124 10.124 0 0 0 1.128-4.651c0-1.551-.346-3.019-.969-4.327a10.137 10.137 0 0 0 1.288-4.493c.802-7.289 3.025-11.208 5.599-15.742 3.04-5.343 6.487-11.408 6.487-21.957 0-21.009-17.09-38.101-38.1-38.101zm0 0"/></svg>