<svg xmlns="http://www.w3.org/2000/svg" id="Layer_1" viewBox="-277 400.9 40 40" enable-background="new -277 400.9 40 40"><defs id="defs15"><filter id="filter3345" color-interpolation-filters="sRGB"><feColorMatrix values="1 0 0 0 0 0 1 0 0 0 0 0 1 0 0 -0.2125 -0.7154 -0.0721 0 0" result="colormatrix" id="feColorMatrix3347"/><feComposite in2="colormatrix" operator="arithmetic" k2="1" result="fbSourceGraphic" id="feComposite3349"/><feColorMatrix result="fbSourceGraphicAlpha" in="fbSourceGraphic" values="0 0 0 -1 0 0 0 0 -1 0 0 0 0 -1 0 0 0 0 1 0" id="feColorMatrix3351"/><feColorMatrix id="feColorMatrix3353" values="1 0 0 0 0 0 1 0 0 0 0 0 1 0 0 -0.2125 -0.7154 -0.0721 0 0" result="colormatrix" in="fbSourceGraphic"/><feComposite id="feComposite3355" in2="colormatrix" operator="arithmetic" k2="1" result="composite"/></filter></defs><style id="style3">.st0{fill:#fff}</style><path class="st0" d="M-277 400.9h40v40h-40v-40z" id="path5" filter="url(#filter3345)"/><path class="st0" d="M-260.5 413.3c1.4-3 6.5-2.5 7.4.6.3 1.9.2 3.8.2 5.7-2.7 0-5.4.1-8.1 0 .1-2.1-.5-4.4.5-6.3z" id="path7"/><g id="g9"><path d="M-250.3 418.1v-3.3a6.7 6.7 0 0 0-13.4 0v3.3c-1.2 0-2.2 1-2.2 2.2v11.2c0 1.2 1 2.2 2.2 2.2h13.4c1.2 0 2.2-1 2.2-2.2v-11.2c0-1.2-1-2.2-2.2-2.2zm-11.2-3.3c0-2.5 2-4.5 4.5-4.5s4.5 2 4.5 4.5v3.3h-8.9v-3.3zm11.2 16.7h-13.4v-11.1h13.4v11.1zm-7.8-4.8" id="path11"/></g></svg>