<svg xmlns="http://www.w3.org/2000/svg" width="256" height="256" viewBox="0 0 256 256"><path fill="#0074bf" d="M66.1 46.2c18-.2 36 0 54 0 6.6-.2 11.6 7.6 8.7 13.6-1.5 3.8-5.7 6.2-9.7 5.9-17.4-.1-34.8 0-52.1-.1-5-.1-9.3-4.6-9.2-9.6-.1-4.7 3.6-9.2 8.3-9.8zM60.7 76.6c1.3-2 2.7-3.8 4.2-5.6 5.4.1 10.8.3 16.2.5 1.4.1 3.3-.3 4.3 1 13.8 13.6 27.6 27.3 41.5 40.9-3.3 8.8-6.8 17.6-10 26.6-3.6-3.3-6.8-6.8-10.1-10.4 2.2-3.1 5.3-5.3 7.2-8.6 2.2-6.3-4.6-12.8-10.8-11.2 1.7-6.3-4.8-12.6-11-11 1.6-5.8-3.8-11.6-9.6-11.3.2-5.2-4.3-10.1-9.6-9.9-3.2.1-5 2.9-7 4.9-1.8-2-3.5-4-5.3-5.9z"/><path fill="#0074bf" d="M92 71.8c10.9 0 21.9-.1 32.8.1 9.1 9.6 18.3 19.3 27.5 28.8 3 2.4 2 6.8 1.8 10.2-4.1 10.6-8.4 21.2-12.6 31.7-1.9 5.7-9.3 8.5-14.5 5.3-4.3-2.3-6.4-7.9-4.5-12.5 3.2-8.1 6.7-16 9.9-24.1-13.5-13.2-27-26.2-40.4-39.5zM70.2 81.1c3.4-1.5 7.6.3 9.1 3.7 1.5 2.9.4 6.4-1.9 8.6-5.3 5.3-10.4 10.9-15.7 16.3-2.4 2.6-6.7 3.5-9.6 1.2-3.5-2.4-4-7.8-1-10.8 4.7-5 9.5-9.8 14.1-14.8 1.5-1.6 3-3.2 5-4.2zM81.2 91.3c6-2 11.7 5.8 7.9 10.9-4.2 5.1-9.2 9.4-13.6 14.3-2.5 2.5-4.6 6.1-8.5 6.2-4.5.4-8.4-4.2-7.4-8.6.3-1.9 1.7-3.3 2.9-4.6 4.7-4.9 9.4-9.9 14.1-14.8 1.4-1.3 2.7-2.8 4.6-3.4zM91.1 102c3.7-1.5 8.5 1.1 9.3 5 .7 2.6-.3 5.4-2.2 7.2-5.1 5.5-10.5 10.8-15.7 16.3-2.3 2.7-6.5 3.7-9.5 1.5-3.4-2.2-4.3-7.5-1.5-10.5 4.8-5.5 10-10.6 15.1-15.9 1.4-1.3 2.7-2.9 4.5-3.6z"/><path fill="#0074bf" d="M101.4 112.5c5.9-2.6 12.4 5.1 8.5 10.4-4.3 5.4-9.4 9.9-14.1 15-2.3 2.3-4.3 5.5-7.9 5.8-3.5.4-6.9-2.3-7.6-5.7-.7-2.7.6-5.4 2.5-7.2 4.8-5.2 9.9-10.1 14.8-15.3 1.1-1.1 2.2-2.5 3.8-3zM150.4 129.1c3.7 3 7.1 6.4 9.6 10.5-7.5 6.8-14.8 14-22.2 21-2.2-2.1-4.4-4.3-6.7-6.5 4.7.2 10.3-1.3 12.1-6.1 2.5-6.2 4.8-12.6 7.2-18.9zM164.5 142.7c6-2.7 12.5.1 18.6 1.3 5.7 1.6 13.2 1.6 16.6 7.4 2.8 5.5 5.5 11.3 5.6 17.6.1 3.5-3.5 5.2-5.5 7.4-5.8-5.3-11-11.2-16.8-16.4-4.1-1.3-8.1.8-12.1 1.3-3.6.6-7.7 1.8-9.1 5.5-1.4 3.9-2.2 8-3.1 12-.6 2.4-.4 5.2 1.5 6.9 5 5.1 10.3 10 15.1 15.2-2 2.3-4 5.4-7.4 5.6-5.6.9-10.4-2.9-15.4-4.7-4.6-1.6-7.7-6-8.4-10.7-1.5-7.7-4.6-15.2-4.1-23.2-.2-1.3 1.1-2.2 1.9-3.1 7.6-7.3 14.9-14.9 22.6-22.1z"/><path fill="#0074bf" d="M166.3 168.2c4.8-1.5 9.6-3.1 14.5-4.3 3.3 3.1 6.7 6.2 10.1 9.3-1 5.2-2.3 10.3-3.3 15.5-4.8 1.3-9.7 2.2-14.5 3.4-3.3-3.8-6.5-7.8-9.9-11.6.9-4.1 2.1-8.2 3.1-12.3z"/></svg>