<svg xmlns="http://www.w3.org/2000/svg" xmlns:xlink="http://www.w3.org/1999/xlink" viewBox="0 0 256 256"><path fill="#FFF" d="M156.104 169.593l17.29 20.25 19.5 19.25 11-5.75 9-8-7.75-10.767-23.75-25.733-12.5-11.25z"/><path fill-rule="evenodd" clip-rule="evenodd" fill="#004272" d="M203.26 195.52l-37.59-37.506 4.239-3.324 36.753 37.487-3.402 3.343zm-9.392 9.188l-36.723-37.516 3.412-4.179 37.56 37.495-4.249 4.2zm-23.845-60.976c-.827-.886-2.503-1.711-3.35-1.719-1.683-.018-2.528.781-4.231 1.64l-4.249 4.16c-25.061-25.569-35.904-36.671-78.454-80.118l.009-.837-9.137-15.28-.838-.845-15.057-10.3c-.838-.856-1.674-.864-2.531-.026l-6.844 6.704c-.845.838-.854 1.675-.863 2.521l10.82 15.278c-.009.847-.009.847.838.856l15.076 9.423c41.75 41.783 55.937 56.259 79.311 80.136l-4.258 4.17c-.845.828-1.71 2.503-1.718 3.35-.018 1.683.82 2.539 1.639 4.232l47.567 48.589c.829.855 2.503 1.711 3.35 1.719 1.684.018 2.53-.811 3.385-1.649l17.063-16.71c.845-.829 1.691-1.667 1.708-3.34.018-1.684-.81-2.54-1.638-3.395l-47.598-48.559z"/><path fill-rule="evenodd" clip-rule="evenodd" fill="#004272" d="M91.115 175.502l-7.646 6.414c4.027 10.122 1.26 21.307-6.391 27.711-7.129 7.355-17.26 8.954-26.019 6.197l-2.936-.912 19.096-17.265-14.259-15.745-19.125 17.237-.025-2.436c-2.562-9.629 1.194-18.879 7.38-25.746 8.587-6.932 19.701-8.996 29.478-4.332l6.676-5.898 87.384-80.699 7.635-6.409c-4.01-10.089-1.295-21.29 7.31-28.187 6.716-5.932 16.351-8.482 25.123-5.674l2.901.928-19.115 17.232 14.254 15.734 19.121-17.22.029 2.418c2.569 9.642.33 19.371-7.323 25.775-7.675 6.415-18.775 8.529-28.53 3.798l-7.129 7.385-87.889 79.694z"/><radialGradient id="a" cx="127.838" cy="127.853" r="57.166" gradientUnits="userSpaceOnUse"><stop offset=".521" stop-color="#0081d4"/><stop offset="1" stop-color="#0068aa"/></radialGradient><ellipse fill="url(#a)" stroke="#004272" stroke-miterlimit="10" cx="127.838" cy="127.852" rx="57.75" ry="56.576"/><ellipse fill="#D2D2D2" stroke="#004272" stroke-miterlimit="10" cx="127.838" cy="127.852" rx="48.052" ry="47.075"/><path fill="#FFF" d="M92.226 112.228h71.224v31.25H92.226z"/><path fill="#015491" d="M92.226 112.194h15.016v31.316H92.226z"/><text transform="translate(94.184 134.865)" fill="#FFF" font-family="'Arial-BoldMT'" font-size="20.593">2</text><path fill="#015491" d="M110.962 112.194h15.016v31.316h-15.016z"/><text transform="translate(112.92 134.865)" fill="#FFF" font-family="'Arial-BoldMT'" font-size="20.593">5</text><g><path fill="#FFF" d="M129.698 112.194h15.016v31.316h-15.016z"/><path fill="#015491" d="M129.698 112.194h15.016v31.316h-15.016z"/><defs><path id="b" d="M129.698 112.194h15.016v31.316h-15.016z"/></defs><clipPath id="c"><use xlink:href="#b" overflow="visible"/></clipPath><g clip-path="url(#c)"><text transform="translate(131.656 147.516)" fill="#FFF" font-family="'Arial-BoldMT'" font-size="20.593">7</text></g><g clip-path="url(#c)"><text transform="translate(131.656 121.474)" fill="#FFF" font-family="'Arial-BoldMT'" font-size="20.593">8</text></g></g><g><path fill="#015491" d="M148.434 112.194h15.016v31.316h-15.016z"/><text transform="translate(150.391 134.865)" fill="#FFF" font-family="'Arial-BoldMT'" font-size="20.593">9</text></g></svg>