<svg xmlns="http://www.w3.org/2000/svg" width="40pt" height="40pt" viewBox="0 0 40 40"><path fill="#fff" d="M0 0h40v40H0V0z"/><path fill="#fff" d="M14.29 5.62c8.26-3.5 18.63 1.96 20.49 10.69 2.4 8.45-4.15 17.86-12.79 18.88-6.77 1.05-14.13-2.99-16.44-9.54-3.3-7.55.88-17.39 8.74-20.03z"/><path fill="#006db4" d="M15.32 9.46c6.1-2.84 14 1.01 15.57 7.53 1.84 6.16-2.58 13.14-8.89 14.2-5.39 1.16-11.17-2.21-12.95-7.39-2.15-5.47.87-12.15 6.27-14.34z"/><path d="M14 18.17c4-.01 8-.01 12 .01v3.98c-4 .02-8 .02-12 0v-3.99z" fill="#fff"/></svg>