<svg xmlns="http://www.w3.org/2000/svg" width="256" height="256" viewBox="0 0 256 256"><radialGradient id="a" cx="128" cy="128.5" r="62.337" gradientUnits="userSpaceOnUse"><stop offset="0" stop-color="#0081d4"/><stop offset="1" stop-color="#0068aa"/></radialGradient><path fill="url(#a)" d="M143.305 44.775c-1.904-1.985-5.711-3.608-8.461-3.608h-65.51c-2.75 0-5 2.25-5 5v164.667c0 2.75 2.25 5 5 5h117.333c2.75 0 5-2.25 5-5V100.192c0-2.75-1.558-6.624-3.461-8.608l-44.901-46.809z"/><path fill="none" stroke="#015491" stroke-width="3" stroke-miterlimit="10" d="M143.305 44.775c-1.904-1.985-5.711-3.608-8.461-3.608h-65.51c-2.75 0-5 2.25-5 5v164.667c0 2.75 2.25 5 5 5h117.333c2.75 0 5-2.25 5-5V100.192c0-2.75-1.558-6.624-3.461-8.608l-44.901-46.809z"/><radialGradient id="b" cx="67.771" cy="48.854" r="0" gradientUnits="userSpaceOnUse"><stop offset="0" stop-color="#0081d4"/><stop offset="1" stop-color="#0068aa"/></radialGradient><path fill="#FFF" stroke="#015491" stroke-miterlimit="10" d="M102.667 207.667h79.5V104l-79.5 103.667zm64.667-20.792l-27.917-.042L167.167 155l.167 31.875z"/><path fill="none" stroke="#FFF" stroke-width="3" stroke-miterlimit="10" d="M74 71.404h19V169H74zM101.667 73.667h57.666M101.667 90h57.666M101.667 105.667h57.666M110.333 136.333h24.334M110.333 151H122.5M101.667 120.202H145M103.75 163.667h13.167M102.667 165.333V118.75M74 205.667v-29.25M72.625 177.375h26M72.625 205.667h13.167"/><path fill="#015491" d="M136.021 41.167s.292 49.807.292 51.641c0 1.833 2.366 8.833 8.787 8.833h46.567l-.583-6.141-50.085-53.054-4.978-1.279z"/></svg>