<svg xmlns="http://www.w3.org/2000/svg" xmlns:xlink="http://www.w3.org/1999/xlink" viewBox="0 0 256 256"><defs><style>.cls-1{fill:url(#radial-gradient)}.cls-2{stroke:#005491;stroke-miterlimit:10;stroke-width:3px;fill:url(#radial-gradient-2)}.cls-3{fill:#005491}.cls-4{fill:#fff}</style><radialGradient id="radial-gradient" cx="108.5" cy="118.67" r="58.51" gradientTransform="matrix(.94 0 0 .98 6.17 .91)" gradientUnits="userSpaceOnUse"><stop offset=".49" stop-color="#0081d4"/><stop offset="1" stop-color="#0068aa"/></radialGradient><radialGradient id="radial-gradient-2" cx="155.52" cy="172.73" r="44.11" xlink:href="#radial-gradient"/></defs><title>MM Resource management</title><g id="Meter_management" data-name="Meter management"><rect class="cls-1" x="61.69" y="52.51" width="93.83" height="130.03" rx="7.56"/><path class="cls-2" d="M194.93 167.68l-7.44-1.14a33.85 33.85 0 0 0-1.63-3.93l4.45-6.07a2.66 2.66 0 0 0-.26-3.47l-1-.95c-.27-.27-.4-.41-.74-.71l-.31-.27-6.53-6.6-1.54-1.54a2.68 2.68 0 0 0-3.47-.27l-6.07 4.46a34.59 34.59 0 0 0-3.93-1.63l-1.14-7.44a2.68 2.68 0 0 0-2.64-2.27h-4.49V129a2.67 2.67 0 1 0-5.34 0v6.81h-4.49a2.68 2.68 0 0 0-2.64 2.27l-1.14 7.44a34.59 34.59 0 0 0-3.93 1.63l-6.07-4.46a2.68 2.68 0 0 0-3.47.27L121 153.07a2.68 2.68 0 0 0-.27 3.47l4.46 6.07a34.59 34.59 0 0 0-1.63 3.93l-7.44 1.14a2.68 2.68 0 0 0-2.27 2.64v14.32a2.68 2.68 0 0 0 2.27 2.64l7.44 1.14a34.59 34.59 0 0 0 1.63 3.93l-4.46 6.07a2.68 2.68 0 0 0 .27 3.47L131.11 212a2.68 2.68 0 0 0 3.47.26l6.07-4.45a34.59 34.59 0 0 0 3.93 1.63l1.14 7.44a2.67 2.67 0 0 0 2.64 2.26h14.32a2.67 2.67 0 0 0 2.64-2.26l1.14-7.44a34.59 34.59 0 0 0 3.93-1.63l6.07 4.45a2.68 2.68 0 0 0 3.47-.26l10.12-10.12a2.66 2.66 0 0 0 .26-3.47l-4.45-6.07a34.59 34.59 0 0 0 1.63-3.93l7.44-1.14a2.67 2.67 0 0 0 2.26-2.64v-14.31a2.66 2.66 0 0 0-2.26-2.64z"/><path class="cls-3" d="M105.77 179.86H67.18a3 3 0 0 1-3-3V79.1a2.67 2.67 0 0 0-5.34 0v97.73a8.38 8.38 0 0 0 8.37 8.38h38.59a2.68 2.68 0 0 0 0-5.35z"/><circle class="cls-4" cx="155.74" cy="177.7" r="15.22"/><path class="cls-3" d="M64.15 84.61V60.45a3 3 0 0 1 3-3h19.24v3.74a5.27 5.27 0 0 0 5.27 5.27h33.68a5.27 5.27 0 0 0 5.26-5.27v-3.77h19.21a3 3 0 0 1 3 3v14.7a2.67 2.67 0 1 0 5.34 0V60.45a8.38 8.38 0 0 0-8.38-8.37h-19.22a5.28 5.28 0 0 0-5.21-4.52h-3.73a13.39 13.39 0 0 0-26.23 0h-3.72a5.28 5.28 0 0 0-5.21 4.51H67.18a8.38 8.38 0 0 0-8.37 8.38v22.93m49.69-41.19a8 8 0 0 1 7.58 5.37h-15.17a8.06 8.06 0 0 1 7.59-5.37zM158.19 106.42v-8.74a2.67 2.67 0 1 0-5.34 0v8.74a2.67 2.67 0 1 0 5.34 0zM155.52 169.24a2.67 2.67 0 0 0-2.67 2.67v4.92a3.07 3.07 0 0 1-2 2.84 2.67 2.67 0 0 0 1 5.17 2.62 2.62 0 0 0 .95-.18 8.43 8.43 0 0 0 5.4-7.83v-4.91a2.68 2.68 0 0 0-2.68-2.68z"/><path class="cls-3" d="M155.52 158.13a19.35 19.35 0 1 0 19.35 19.35 19.37 19.37 0 0 0-19.35-19.35zm0 33.35a14 14 0 1 1 14-14 14 14 0 0 1-14 14z"/><path class="cls-4" d="M124.05 90v-.2c0-.21 0-.42-.08-.62s0-.13 0-.2-.07-.41-.11-.61 0-.14-.05-.2-.09-.4-.14-.59a1.87 1.87 0 0 1-.07-.22l-.16-.55-.09-.25-.25-.56c0-.1-.07-.19-.11-.28s-.12-.3-.19-.44a3.09 3.09 0 0 0-.14-.32l-.18-.38-.19-.35c-.05-.11-.11-.2-.16-.3l-.24-.41-.12-.2a16.19 16.19 0 0 0-1.68-2.22 5.77 5.77 0 0 0-.42-.44l-.13-.14-.39-.37-.19-.18-.18-.16-.08-.07-.09-.07-.35-.29-.18-.14-.2-.15-.14-.1-.2-.14c-.1-.08-.21-.15-.33-.23l-.23-.15-.28-.18-.22-.13-.24-.14-.14-.07h-.09l-.11-.07-.17-.08h-.11q-.31-.16-.63-.3l-.14-.07a16 16 0 0 0-3.44-1.05h-.09q-.39-.08-.78-.12h-.15c-.24 0-.48 0-.73-.06h-1.06a15.66 15.66 0 0 0-15.74 15.42v6.26a15.64 15.64 0 0 0 31.28 0v-6.26-.83-.18c-.05-.22-.07-.43-.09-.61zm-15-8.63h1.1l.3.06h.25l.29.07.28.08.25.06.52.18h.07l.47.19h.09l.46.22.22.11.1.06.31.18h.09l.32.2.1.08.29.2.11.08.26.21.12.09.2.18.19.17.19.18.16.16.19.2.14.15.19.23.12.14.19.24.12.15.17.24.11.17.15.23.12.19.12.21c0 .08.09.15.12.22l.1.19.13.26s0 .1.07.16.09.19.13.29v.12c0 .12.09.23.13.35v.06a10.13 10.13 0 0 1 .5 2.11 1.23 1.23 0 0 1 0 .19 8.66 8.66 0 0 1-3.23-2.94 2.64 2.64 0 0 0-2-1.21 2.69 2.69 0 0 0-2.2.87A12.8 12.8 0 0 1 98.22 91v-.21-.24a2.51 2.51 0 0 1 0-.27v-.24a2.56 2.56 0 0 1 0-.27 1.7 1.7 0 0 1 0-.22l.06-.28v-.21c0-.07.06-.19.08-.29l.06-.19.12-.35a.56.56 0 0 1 0-.12l.18-.45a1 1 0 0 1 .07-.15c0-.1.08-.2.13-.3l.38-.21.13-.26.11-.18.14-.24.11-.19.15-.22.13-.18.15-.22.14-.18a1.56 1.56 0 0 1 .16-.2l.14-.18.17-.19.16-.17.17-.19.17-.16.18-.17.17-.16.2-.16.17-.15.21-.16.18-.14.21-.14.19-.13a1.64 1.64 0 0 1 .22-.14l.19-.12.23-.13.2-.11.23-.12.21-.1.23-.11.22-.09.24-.1.22-.08.25-.09.22-.07.26-.07.22-.06.27-.06H109.07zm-.57 26.83A10.31 10.31 0 0 1 98.2 97.88v-1.43a17.72 17.72 0 0 0 3.57.36A18.16 18.16 0 0 0 113 92.9a13.84 13.84 0 0 0 5.78 3.36v1.62a10.29 10.29 0 0 1-10.28 10.29zM130.35 131.28a16.46 16.46 0 0 0-10.88-13.58l-.22-.09-.58-.18h-.19l-.48-.13-.58-.13h-.09l-.62-.11a5.58 5.58 0 0 0-.59-.09h-.1l-.66-.06H101.65l-.65.06h-.09a5.77 5.77 0 0 0-.6.09l-.62.11h-.09c-.19 0-.39.08-.6.14l-.46.12h-.18l-.58.18-.23.09a16.47 16.47 0 0 0-10.87 13.58 2.65 2.65 0 0 0 1.15 2.52 37 37 0 0 0 41.4 0 2.67 2.67 0 0 0 1.12-2.52zm-21.85 3.52a31.42 31.42 0 0 1-16.24-4.49 11.1 11.1 0 0 1 7.19-7.62l.18-.07.23-.07h.06l.35-.1.41-.09h.08l.36-.06.39-.06H115.66l.36.06h.09l.38.08.38.1h.06l.22.07.19.07a11.12 11.12 0 0 1 7.19 7.62 31.44 31.44 0 0 1-16.03 4.56z"/><path class="cls-3" d="M139.28 83.73a2.67 2.67 0 0 0 0 5.34h28.15a9.54 9.54 0 1 0 0-5.34zm37.29-1.52a4.19 4.19 0 1 1-4.19 4.19 4.2 4.2 0 0 1 4.19-4.19zM136.61 117.7a2.67 2.67 0 0 0 2.67 2.68h28.15a9.54 9.54 0 1 0 0-5.35h-28.15a2.67 2.67 0 0 0-2.67 2.67zm40-4.19a4.19 4.19 0 1 1-4.19 4.19 4.2 4.2 0 0 1 4.15-4.19zM152.85 127.37h5v9.94h-5z"/></g></svg>