<svg xmlns="http://www.w3.org/2000/svg" xmlns:xlink="http://www.w3.org/1999/xlink" viewBox="0 0 256 256"><defs><style>.cls-1{fill:url(#radial-gradient)}.cls-2,.cls-5{fill:#fff}.cls-3,.cls-5{stroke:#005491;stroke-miterlimit:10}.cls-3{stroke-width:3px;fill:url(#radial-gradient-2)}.cls-4{fill:#005491}.cls-5{stroke-width:5px}</style><radialGradient id="radial-gradient" cx="128" cy="128" r="87.41" gradientUnits="userSpaceOnUse"><stop offset=".49" stop-color="#0081d4"/><stop offset="1" stop-color="#0068aa"/></radialGradient><radialGradient id="radial-gradient-2" cx="129.12" cy="127.26" r="22.3" gradientTransform="matrix(.95 0 0 1 5.42 0)" xlink:href="#radial-gradient"/></defs><title>MM-Setup</title><g id="Meter_management" data-name="Meter management"><path class="cls-1" d="M212 109.56h-12.59a73.24 73.24 0 0 0-7.88-19l8.9-8.91a3.41 3.41 0 0 0 0-4.82l-21.25-21.26a3.42 3.42 0 0 0-4.83 0l-8.9 8.9a73.24 73.24 0 0 0-19-7.88V44a3.42 3.42 0 0 0-3.45-3.41h-30a3.42 3.42 0 0 0-3.44 3.41v12.57a72.72 72.72 0 0 0-19 7.87l-8.88-8.87a3.4 3.4 0 0 0-4.82 0L55.57 76.82a3.42 3.42 0 0 0 0 4.83l8.85 8.85a72.85 72.85 0 0 0-7.92 19.06H44a3.42 3.42 0 0 0-3.41 3.44v30a3.37 3.37 0 0 0 .73 2.11 11.53 11.53 0 0 0-.73 4v54.69a11.63 11.63 0 0 0 11.61 11.61H143a3.42 3.42 0 0 0 3.42-3.42V199.5a73.05 73.05 0 0 0 19.07-7.92l8.85 8.85a3.41 3.41 0 0 0 4.82 0l21.25-21.25a3.4 3.4 0 0 0 0-4.82l-8.87-8.88a73.09 73.09 0 0 0 7.88-19H212a3.42 3.42 0 0 0 3.42-3.42V113a3.42 3.42 0 0 0-3.42-3.44z"/><ellipse class="cls-2" cx="127.65" cy="128.24" rx="46.78" ry="47.62"/><circle class="cls-3" cx="127.96" cy="127.26" r="21.71"/><path class="cls-4" d="M212 109.56h-12.59a73.24 73.24 0 0 0-7.88-19l8.9-8.91a3.41 3.41 0 0 0 0-4.82l-21.25-21.26a3.42 3.42 0 0 0-4.83 0l-8.9 8.9a73.24 73.24 0 0 0-19-7.88V44a3.42 3.42 0 0 0-3.45-3.41h-30a3.42 3.42 0 0 0-3.44 3.41v12.57a72.72 72.72 0 0 0-19 7.87l-8.88-8.87a3.4 3.4 0 0 0-4.82 0L55.57 76.82a3.42 3.42 0 0 0 0 4.83l8.85 8.85a72.85 72.85 0 0 0-7.92 19.06H44a3.42 3.42 0 0 0-3.41 3.44v30a3.37 3.37 0 0 0 .73 2.11 11.53 11.53 0 0 0-.73 4v54.69a11.63 11.63 0 0 0 11.61 11.61H143a3.42 3.42 0 0 0 3.42-3.42V199.5a73.05 73.05 0 0 0 19.07-7.92l8.85 8.85a3.41 3.41 0 0 0 4.82 0l21.25-21.25a3.4 3.4 0 0 0 0-4.82l-8.87-8.88a73.09 73.09 0 0 0 7.88-19H212a3.42 3.42 0 0 0 3.42-3.42V113a3.42 3.42 0 0 0-3.42-3.44zM110.93 128a17.07 17.07 0 1 1 19.66 16.88 11.62 11.62 0 0 0-10.78-7.32h-6a16.87 16.87 0 0 1-2.88-9.56zm97.65 11.61h-11.85a3.41 3.41 0 0 0-3.33 2.69 66.3 66.3 0 0 1-9 21.85 3.43 3.43 0 0 0 .46 4.26l8.37 8.36-16.42 16.42-8.35-8.35a3.42 3.42 0 0 0-4.26-.45 66.44 66.44 0 0 1-21.86 9.08 3.41 3.41 0 0 0-2.69 3.33v11.78h-9.23a11.58 11.58 0 0 0 1-4.78v-25.49a50.49 50.49 0 0 0 47-50.31A50 50 0 0 0 168 97.28a50.8 50.8 0 0 0-26.36-17.84 3.41 3.41 0 0 0-1.86 6.56 43.6 43.6 0 0 1-8.37 85.45v-19.8a23.88 23.88 0 1 0-25.32-14.09H85.46A43.66 43.66 0 0 1 116.21 86a3.42 3.42 0 1 0-1.84-6.58A50.8 50.8 0 0 0 88 97.28 50 50 0 0 0 77.58 128a50.93 50.93 0 0 0 .91 9.56H52.2a11.58 11.58 0 0 0-4.78 1v-22.2H59.2a3.41 3.41 0 0 0 3.33-2.69 66.44 66.44 0 0 1 9.08-21.86 3.42 3.42 0 0 0-.45-4.26l-8.35-8.35 16.42-16.39 8.36 8.37a3.43 3.43 0 0 0 4.26.46 66.3 66.3 0 0 1 21.85-9 3.41 3.41 0 0 0 2.69-3.33V47.42h23.22v11.87a3.41 3.41 0 0 0 2.69 3.33 66.42 66.42 0 0 1 21.81 9.05 3.41 3.41 0 0 0 4.26-.46l8.4-8.4 16.42 16.42-8.4 8.4a3.41 3.41 0 0 0-.46 4.26 66.42 66.42 0 0 1 9 21.81 3.41 3.41 0 0 0 3.33 2.69h11.87z"/><rect class="cls-5" x="40.59" y="136.31" width="90.42" height="79.09" rx="8.98"/><path class="cls-4" d="M113 158.79h-10.6a10.26 10.26 0 0 0-9.66-6.79h-5.46a10.26 10.26 0 0 0-9.66 6.83h-19a3.42 3.42 0 1 0 0 6.83h19a10.27 10.27 0 0 0 9.66 6.83h5.46a10.27 10.27 0 0 0 9.66-6.83H113a3.42 3.42 0 0 0 0-6.83zM113 186.1H90.11a10.26 10.26 0 0 0-9.66-6.82H75a10.26 10.26 0 0 0-9.66 6.82h-6.68a3.42 3.42 0 1 0 0 6.83h6.67a10.26 10.26 0 0 0 9.67 6.83h5.46a10.26 10.26 0 0 0 9.66-6.83H113a3.42 3.42 0 0 0 0-6.83z"/><path class="cls-2" d="M92.74 165.62h-5.46a3.42 3.42 0 1 1 0-6.83h5.46a3.42 3.42 0 0 1 0 6.83zM80.45 192.93H75a3.42 3.42 0 0 1 0-6.83h5.46a3.42 3.42 0 1 1 0 6.83z"/></g></svg>