<svg id="svg2" xmlns="http://www.w3.org/2000/svg" viewBox="-411 298 256 256"><style>.st0{fill:#fff}.st1,.st2,.st3,.st4,.st5,.st6{fill:url(#SVGID_1_);stroke:#015491;stroke-width:2;stroke-miterlimit:10}.st2,.st3,.st4,.st5,.st6{fill:url(#SVGID_2_)}.st3,.st4,.st5,.st6{fill:url(#SVGID_3_)}.st4,.st5,.st6{fill:url(#SVGID_4_)}.st5,.st6{fill:url(#SVGID_5_)}.st6{fill:#fff}</style><path class="st0" d="M-328.9 437.5l4.1 1h9.3l31.6-2.6 2.2-11 2.2-14.1-6.1-11.4-10-20.3-6.6-1.2h-30.4l-1.5 13z" id="Layer_3"/><g id="Layer_2"><linearGradient id="SVGID_1_" gradientUnits="userSpaceOnUse" x1="-370.236" y1="436.406" x2="-279.779" y2="436.406" gradientTransform="matrix(1 0 0 -1 0 854)"><stop offset="0" stop-color="#0081d4"/><stop offset="1" stop-color="#0068aa"/></linearGradient><path class="st1" d="M-359.7 392h13.8c1.6 0 5.8-.3 6-6s0-9.3 0-10.8.1-5.7 5.2-5.7h40.5s3.6.6 4.5 3.7 8.7 31.4 9.4 33.9c.8 2.7 1.1 4.8-1.5 3.6-3.9-1.7-7.6-3.4-8.4-4s-1.8-.4-2.2-2.9-4.5-19.5-5-20.2-.1-5.6-5.6-5.8-23.5 0-23.5 0-4.8-.2-4.8 5.2v21.8c0 .8 8 28.3 8.6 29.7.6 1.3 1.3 3.9-.8 3.9s-31.6-2.1-31.6 24c0 2.8 1.5 4.5-1.6 1.9s-9.9-7.4-12.1-9.2c-2.2-1.8-1.6-5.2-1-8.2s5.6-43.2 5.6-48.2 2.8-6.7 4.5-6.7z"/><linearGradient id="SVGID_2_" gradientUnits="userSpaceOnUse" x1="-326.601" y1="418.225" x2="-250.609" y2="418.225" gradientTransform="matrix(1 0 0 -1 0 854)"><stop offset="0" stop-color="#0081d4"/><stop offset="1" stop-color="#0068aa"/></linearGradient><path class="st2" d="M-316.6 429c-1.5 0 1.2 9 1.1 9.5 0 0 33.3.1 34.9 0 7.1-.4 17 8.8 18.1 16.3 1.4 9.5 1 9.2 1.2 11.5s.6 7.2 5.2 7.2c0 0 5.3.7 5.3-7.2s.1-16 0-20.8-5.3-21.9-43-35.2c0 0-26.6-10.6-28.8-11.6s-4.8-1.5-4 1.6 2.2 8.9 2.4 9.9c.2.9.9 1.9 3.1 2.6 2.2.8 23.2 7.7 23.2 13 .2 4.2-9.6 3.6-18.7 3.2z"/><linearGradient id="SVGID_3_" gradientUnits="userSpaceOnUse" x1="-246.117" y1="393.35" x2="-195.609" y2="393.35" gradientTransform="matrix(1 0 0 -1 0 854)"><stop offset="0" stop-color="#0081d4"/><stop offset="1" stop-color="#0068aa"/></linearGradient><path class="st3" d="M-233.7 439.9s-12.5 21-12.3 29.7 4.8 11.7 10.3 11.7h34.8c4 0 7.7-1.7 3.5-5.7s-31.8-33.6-36.3-35.7z"/><linearGradient id="SVGID_4_" gradientUnits="userSpaceOnUse" x1="-349.45" y1="391.55" x2="-310.116" y2="391.55" gradientTransform="matrix(1 0 0 -1 0 854)"><stop offset="0" stop-color="#0081d4"/><stop offset="1" stop-color="#0068aa"/></linearGradient><circle class="st4" cx="-329.7" cy="462.4" r="19.7"/><linearGradient id="SVGID_5_" gradientUnits="userSpaceOnUse" x1="-305.284" y1="391.25" x2="-265.95" y2="391.25" gradientTransform="matrix(1 0 0 -1 0 854)"><stop offset="0" stop-color="#0081d4"/><stop offset="1" stop-color="#0068aa"/></linearGradient><circle class="st5" cx="-285.6" cy="462.8" r="19.7"/></g><circle class="st6" cx="-330.1" cy="462.8" r="7.6"/><circle class="st6" cx="-286" cy="462.9" r="7.6"/></svg>