<svg id="Layer_1" xmlns="http://www.w3.org/2000/svg" viewBox="-267 390.9 60 60"><style>.st0{fill:none}.st1{fill:#4a4a4a}</style><path class="st0" d="M-247.7 427.9l3.7 3.8-5.2 1.4-1.5 5.3-3.9-3.9c.6 2.3 2.7 4.1 5.3 4.1 3 0 5.5-2.5 5.4-5.5.1-2.4-1.6-4.5-3.8-5.2zM-223.2 403.4c-.5-.1-1-.2-1.5-.2-3 0-5.5 2.5-5.4 5.5 0 .5.1.9.2 1.3l5.4-1.5 1.3-5.1z"/><path class="st0" d="M-247.7 427.9c-.5-.1-1-.2-1.5-.2-3 0-5.5 2.5-5.4 5.5 0 .5.1.9.2 1.3l5.4-1.5 1.3-5.1zM-223.2 403.4l3.7 3.8-5.2 1.4-1.5 5.3-3.9-3.9c.6 2.3 2.7 4.1 5.3 4.1 3 0 5.5-2.5 5.4-5.5.1-2.5-1.5-4.5-3.8-5.2z"/><path class="st1" d="M-224.6 408.5l-5.4 1.5 3.9 3.9 1.5-5.4zM-219.5 407.2l-3.7-3.8-1.4 5.1zM-249.2 433.1l-5.4 1.5 3.9 3.9 1.5-5.4zM-244 431.7l-3.7-3.8-1.5 5.2z"/><path class="st1" d="M-224.8 402.4c-3.4 0-6.2 2.7-6.2 6.2 0 1.4.4 2.6 1.1 3.6l-15.8 15.9c-1-.7-2.3-1.2-3.7-1.2-3.4 0-6.2 2.7-6.2 6.2s2.7 6.2 6.2 6.2 6.2-2.7 6.2-6.2c0-1.4-.4-2.6-1.1-3.6l15.8-15.9c1 .7 2.3 1.2 3.7 1.2 3.5 0 6.2-2.7 6.2-6.2s-2.7-6.2-6.2-6.2zm-19 30.7c0 3-2.4 5.5-5.4 5.5-2.6 0-4.7-1.7-5.3-4.1-.1-.4-.2-.9-.2-1.3 0-3 2.4-5.5 5.4-5.5.5 0 1 .1 1.5.2 2.3.7 4 2.8 4 5.2zm19.1-19c-2.6 0-4.7-1.7-5.3-4.1-.1-.4-.2-.9-.2-1.3 0-3 2.4-5.5 5.4-5.5.5 0 1 .1 1.5.2 2.3.7 3.9 2.8 3.9 5.2.1 3-2.3 5.5-5.3 5.5z"/></svg>