<svg xmlns="http://www.w3.org/2000/svg" viewBox="0 0 32 32" width="32" height="32"><path d="M23.92 7.98A11.164 11.164 0 0 0 16 4.7a11.164 11.164 0 0 0-7.919 3.28c-4.375 4.375-4.375 11.465 0 15.84a11.164 11.164 0 0 0 7.92 3.28c2.866 0 5.732-1.093 7.92-3.28 4.372-4.375 4.372-11.465 0-15.84z"/><g style="line-height:125%;-inkscape-font-specification:sans-serif"><path d="M11.023 12.876q0-.876.608-1.77.608-.904 1.775-1.494 1.167-.59 2.722-.59 1.446 0 2.553.498 1.107.488 1.706 1.336.608.849.608 1.844 0 .784-.35 1.374-.338.59-.817 1.023-.469.425-1.695 1.439-.34.285-.549.507-.2.212-.299.396-.1.175-.16.36-.05.175-.159.627-.19.958-1.187.958-.518 0-.877-.313-.35-.313-.35-.931 0-.775.26-1.337.26-.572.688-.996.429-.433 1.157-1.023.638-.516.917-.774.29-.268.479-.59.2-.323.2-.701 0-.738-.599-1.245-.588-.507-1.526-.507-1.097 0-1.615.516-.519.507-.878 1.503-.339 1.042-1.286 1.042-.559 0-.947-.36-.38-.368-.38-.792zm4.866 10.104q-.608 0-1.067-.36-.449-.368-.449-1.023 0-.58.439-.977t1.077-.397q.628 0 1.057.397.429.396.429.977 0 .646-.449 1.014-.449.37-1.037.37z" style="-inkscape-font-specification:'Arial Rounded MT Bold, '" font-size="19.637" font-family="Arial Rounded MT Bold" fill="#fff" font-weight="400" letter-spacing="0" word-spacing="0"/></g></svg>