<svg id="svg2" xmlns="http://www.w3.org/2000/svg" viewBox="-411 298 256 256"><style>.st0{fill:#015491}.st1{fill:url(#SVGID_1_)}.st2{fill:none;stroke:#015491;stroke-width:2;stroke-miterlimit:10}.st3{fill:#fff}</style><path class="st0" d="M-371.2 417h53.4v14.5h-53.4z"/><radialGradient id="SVGID_1_" cx="-249.423" cy="426" r="44.421" gradientUnits="userSpaceOnUse"><stop offset="0" stop-color="#0081d4"/><stop offset=".319" stop-color="#007ccb"/><stop offset=".835" stop-color="#006db3"/><stop offset="1" stop-color="#0068aa"/></radialGradient><path class="st1" d="M-301.1 395.1c-1.6 0-3 1.4-3 3V454c0 1.6 1.4 3 3 3h103.3c1.6 0 3-1.4 3-3v-55.9c0-1.6-1.4-3-3-3h-103.3zm10.4 18.3c0-2 .8-2.3.8-2.3 1.5-.7 4.1-1.2 5.7-1.2h37.5c1.6 0 4.2.6 5.7 1.2 0 0 .8.4.8 2.3 0 2-.8 2.3-.8 2.3-1.5.7-4.1 1.2-5.7 1.2h-37.5c-1.6 0-4.2-.6-5.7-1.2 0 0-.8-.3-.8-2.3zm78.1 25.1c-1.5.7-4.1 1.2-5.7 1.2h-18.5c-1.6 0-4.2-.6-5.7-1.2 0 0-1.4-.6-1.4-2.9s1.4-2.9 1.4-2.9c1.5-.7 4.1-1.2 5.7-1.2h18.5c1.6 0 4.2.6 5.7 1.2 0 0 1.4.6 1.4 2.9s-1.4 2.9-1.4 2.9z"/><path class="st2" d="M-301.1 395.1c-1.6 0-3 1.4-3 3V454c0 1.6 1.4 3 3 3h103.3c1.6 0 3-1.4 3-3v-55.9c0-1.6-1.4-3-3-3h-103.3zm10.4 18.3c0-2 .8-2.3.8-2.3 1.5-.7 4.1-1.2 5.7-1.2h37.5c1.6 0 4.2.6 5.7 1.2 0 0 .8.4.8 2.3 0 2-.8 2.3-.8 2.3-1.5.7-4.1 1.2-5.7 1.2h-37.5c-1.6 0-4.2-.6-5.7-1.2 0 0-.8-.3-.8-2.3zm78.1 25.1c-1.5.7-4.1 1.2-5.7 1.2h-18.5c-1.6 0-4.2-.6-5.7-1.2 0 0-1.4-.6-1.4-2.9s1.4-2.9 1.4-2.9c1.5-.7 4.1-1.2 5.7-1.2h18.5c1.6 0 4.2.6 5.7 1.2 0 0 1.4.6 1.4 2.9s-1.4 2.9-1.4 2.9z"/><path class="st3" d="M-240.1 413.4c0-2-1.6-3.6-3.6-3.6h-43.5c-2 0-3.6 1.6-3.6 3.6s1.6 3.6 3.6 3.6h43.5c2 0 3.6-1.6 3.6-3.6zM-215.4 431.5h-24.5c-2.3 0-4.1 1.8-4.1 4.1s1.8 4.1 4.1 4.1h24.5c2.3 0 4.1-1.8 4.1-4.1s-1.8-4.1-4.1-4.1z"/></svg>