<svg id="svg2" xmlns="http://www.w3.org/2000/svg" viewBox="-411 298 256 256"><style>.st0{fill:none}.st1{fill:url(#SVGID_1_)}.st2{fill:url(#SVGID_2_)}.st3{fill:url(#SVGID_3_)}.st4{fill:url(#SVGID_4_)}</style><path class="st0" d="M-310 362.8h54.1v15.8H-310z"/><radialGradient id="SVGID_1_" cx="-332.042" cy="432.313" r="10.12" gradientUnits="userSpaceOnUse"><stop offset="0" stop-color="#0081d4"/><stop offset="1" stop-color="#0068aa"/></radialGradient><path class="st1" d="M-338.3 419.4h12.5v25.8h-12.5z"/><radialGradient id="SVGID_2_" cx="-234.583" cy="432.313" r="10.12" gradientUnits="userSpaceOnUse"><stop offset="0" stop-color="#0081d4"/><stop offset="1" stop-color="#0068aa"/></radialGradient><path class="st2" d="M-240.8 419.4h12.5v25.8h-12.5z"/><radialGradient id="SVGID_3_" cx="-283" cy="387.667" r="66.027" gradientUnits="userSpaceOnUse"><stop offset="0" stop-color="#0081d4"/><stop offset="1" stop-color="#0068aa"/></radialGradient><path class="st3" d="M-244.8 378.6v-27h-76.6v27h-47.7v45h24.3v-11h25.3v11h72.2v-11h25.3v11h25.1v-45h-47.9zm-11 0H-310v-15.8h54.1v15.8z"/><radialGradient id="SVGID_4_" cx="-282.906" cy="467.292" r="62.897" gradientUnits="userSpaceOnUse"><stop offset="0" stop-color="#0081d4"/><stop offset="1" stop-color="#0068aa"/></radialGradient><path class="st4" d="M-222 451.6h-25.2v-17.3h-72.5v17.3h-25.1v-17.3h-20.7v66h165.2v-66H-222z"/></svg>