<svg id="svg2" xmlns="http://www.w3.org/2000/svg" viewBox="-411 298 256 256"><style>.st0{fill:#015491}.st1{fill:#fff}.st2{fill:none;stroke:#015491;stroke-width:2;stroke-miterlimit:10}.st3{fill:url(#SVGID_1_)}.st4{fill:url(#SVGID_2_)}</style><path class="st0" d="M-319.5 393.8h-9.4v99.4h38v-9.1h-28.6v-56.6h28.6v-10.3h-28.6z"/><path class="st1" d="M-362.6 382.3c0 1.6 1.4 3 3 3h71.8c1.6 0 3-1.4 3-3v-38c0-1.6-1.4-3-3-3h-71.8c-1.6 0-3 1.4-3 3v38z"/><path class="st2" d="M-362.6 382.3c0 1.6 1.4 3 3 3h71.8c1.6 0 3-1.4 3-3v-38c0-1.6-1.4-3-3-3h-71.8c-1.6 0-3 1.4-3 3v38z"/><radialGradient id="SVGID_1_" cx="-242.25" cy="423.583" r="31.585" gradientUnits="userSpaceOnUse"><stop offset="0" stop-color="#0081d4"/><stop offset=".319" stop-color="#007ccb"/><stop offset=".835" stop-color="#006db3"/><stop offset="1" stop-color="#0068aa"/></radialGradient><path class="st3" d="M-278.1 401.6c-1.6 0-3 1.4-3 3v38c0 1.6 1.4 3 3 3h71.8c1.6 0 3-1.4 3-3v-38c0-1.6-1.4-3-3-3h-71.8zm6.5 13v-1.4c1.4-.6 3.9-1.1 5.5-1.1h24.9c1.6 0 4.1.5 5.5 1.1v2.8c-1.4.6-3.9 1.1-5.5 1.1h-24.9c-1.6 0-4.1-.5-5.5-1.1v-1.4zm56.3 17.5c-1.5.7-4.1 1.2-5.7 1.2h-11.4c-1.6 0-4.2-.6-5.7-1.2 0 0-.2-.1-.2-1.7s.2-1.7.2-1.7c1.5-.7 4.1-1.2 5.7-1.2h11.4c1.6 0 4.2.6 5.7 1.2 0 0 .2.1.2 1.7s-.2 1.7-.2 1.7z"/><path class="st2" d="M-278.1 401.6c-1.6 0-3 1.4-3 3v38c0 1.6 1.4 3 3 3h71.8c1.6 0 3-1.4 3-3v-38c0-1.6-1.4-3-3-3h-71.8zm6.5 13v-1.4c1.4-.6 3.9-1.1 5.5-1.1h24.9c1.6 0 4.1.5 5.5 1.1v2.8c-1.4.6-3.9 1.1-5.5 1.1h-24.9c-1.6 0-4.1-.5-5.5-1.1v-1.4zm56.3 17.5c-1.5.7-4.1 1.2-5.7 1.2h-11.4c-1.6 0-4.2-.6-5.7-1.2 0 0-.2-.1-.2-1.7s.2-1.7.2-1.7c1.5-.7 4.1-1.2 5.7-1.2h11.4c1.6 0 4.2.6 5.7 1.2 0 0 .2.1.2 1.7s-.2 1.7-.2 1.7z"/><path class="st1" d="M-235.6 414.6c0-1.4-1.1-2.5-2.5-2.5H-269c-1.4 0-2.5 1.1-2.5 2.5s1.1 2.5 2.5 2.5h30.9c1.3.1 2.5-1.1 2.5-2.5zM-218 427.5h-17.4c-1.6 0-2.9 1.3-2.9 2.9s1.3 2.9 2.9 2.9h17.4c1.6 0 2.9-1.3 2.9-2.9s-1.3-2.9-2.9-2.9z"/><g><radialGradient id="SVGID_2_" cx="-242.25" cy="488.667" r="31.585" gradientUnits="userSpaceOnUse"><stop offset="0" stop-color="#0081d4"/><stop offset=".319" stop-color="#007ccb"/><stop offset=".835" stop-color="#006db3"/><stop offset="1" stop-color="#0068aa"/></radialGradient><path class="st4" d="M-281.1 507.7c0 1.6 1.4 3 3 3h71.8c1.6 0 3-1.4 3-3v-38c0-1.6-1.4-3-3-3h-71.8c-1.6 0-3 1.4-3 3v38zm60.1-12.9c1.6 0 4.2.6 5.7 1.2 0 0 .2.1.2 1.7s-.2 1.7-.2 1.7c-1.5.7-4.1 1.2-5.7 1.2h-11.4c-1.6 0-4.2-.6-5.7-1.2 0 0-.2-.1-.2-1.7s.2-1.7.2-1.7c1.5-.7 4.1-1.2 5.7-1.2h11.4zm-50.6-14.3c1.4-.6 3.9-1.1 5.5-1.1h24.9c1.6 0 4.1.5 5.5 1.1v2.8c-1.4.6-3.9 1.1-5.5 1.1h-24.9c-1.6 0-4.1-.5-5.5-1.1v-1.4-1.4z"/><path class="st2" d="M-281.1 507.7c0 1.6 1.4 3 3 3h71.8c1.6 0 3-1.4 3-3v-38c0-1.6-1.4-3-3-3h-71.8c-1.6 0-3 1.4-3 3v38zm60.1-12.9c1.6 0 4.2.6 5.7 1.2 0 0 .2.1.2 1.7s-.2 1.7-.2 1.7c-1.5.7-4.1 1.2-5.7 1.2h-11.4c-1.6 0-4.2-.6-5.7-1.2 0 0-.2-.1-.2-1.7s.2-1.7.2-1.7c1.5-.7 4.1-1.2 5.7-1.2h11.4zm-50.6-14.3c1.4-.6 3.9-1.1 5.5-1.1h24.9c1.6 0 4.1.5 5.5 1.1v2.8c-1.4.6-3.9 1.1-5.5 1.1h-24.9c-1.6 0-4.1-.5-5.5-1.1v-1.4-1.4z"/></g><path class="st1" d="M-269.1 484.4h30.9c1.4 0 2.5-1.1 2.5-2.5s-1.1-2.5-2.5-2.5h-30.9c-1.4 0-2.5 1.1-2.5 2.5s1.1 2.5 2.5 2.5zM-238.4 497.7c0 1.6 1.3 2.9 2.9 2.9h17.4c1.6 0 2.9-1.3 2.9-2.9s-1.3-2.9-2.9-2.9h-17.4c-1.6 0-2.9 1.3-2.9 2.9z"/></svg>