<svg id="Layer_1" xmlns="http://www.w3.org/2000/svg" viewBox="-509 396 60 60"><style>.st0{fill:#fff}.st1{fill:#4e4e50}</style><path class="st0" d="M-479 405.6c-6.1 0-11.1 5-11.1 11.1 0 5.1 6.8 17.7 11.1 25.1 4.3-7.4 11.1-20 11.1-25.1 0-6.1-5-11.1-11.1-11.1zm0 14.4c-1.9 0-3.5-1.5-3.5-3.5s1.5-3.5 3.5-3.5 3.5 1.5 3.5 3.5-1.6 3.5-3.5 3.5z"/><path class="st1" d="M-479 400.6c-8.9 0-16.1 7.2-16.1 16.1 0 8.6 12.6 29 14 31.3l2.1 3.4 2.1-3.4c1.4-2.3 14-22.6 14-31.3 0-8.9-7.2-16.1-16.1-16.1zm0 41.2c-4.3-7.4-11.1-20-11.1-25.1 0-6.1 5-11.1 11.1-11.1s11.1 5 11.1 11.1c0 5.2-6.8 17.8-11.1 25.1z"/><circle class="st1" cx="-479" cy="416.6" r="3.5"/></svg>