<svg id="Layer_1" xmlns="http://www.w3.org/2000/svg" viewBox="-277 400.9 40 40"><style>.st0{fill:#fff}.st1{fill:#231f20}</style><path class="st0" d="M-243.6 420.9c0-7.4-6-13.4-13.4-13.4s-13.4 6-13.4 13.4 6 13.4 13.4 13.4 13.4-6 13.4-13.4z"/><path class="st1" d="M-249.8 419.1h-5.4v-5.4c0-1-.8-1.8-1.8-1.8s-1.8.8-1.8 1.8v5.4h-5.4c-1 0-1.8.8-1.8 1.8s.8 1.8 1.8 1.8h5.4v5.4c0 1 .8 1.8 1.8 1.8s1.8-.8 1.8-1.8v-5.4h5.4c1 0 1.8-.8 1.8-1.8s-.8-1.8-1.8-1.8z"/><path class="st1" d="M-257 405.2c-8.6 0-15.7 7-15.7 15.7 0 8.6 7 15.7 15.7 15.7s15.7-7 15.7-15.7-7.1-15.7-15.7-15.7zm0 29.1c-7.4 0-13.4-6-13.4-13.4s6-13.4 13.4-13.4 13.4 6 13.4 13.4-6 13.4-13.4 13.4z"/></svg>