<svg id="Layer_1" xmlns="http://www.w3.org/2000/svg" viewBox="-267 390.9 60 60"><style>.st0{fill:#fff}.st1{fill:#767676}</style><path class="st0" d="M-231 405h-18v5.3c0 .5-.5.9-1 .9h-5.2v25.4c0 .4.2.5.5.5h6.6v-16.5l6.8-6.8h10.7v-8.4c0-.2-.2-.4-.4-.4z"/><path class="st0" d="M-220 432.8h-4c-.3 0-.6-.3-.6-.6 0-.4.3-.6.6-.6h4.2v-1.9h-4.2c-.3 0-.6-.3-.6-.6s.3-.6.6-.6h4.2v-1.1h-1.7v-11.3c0-.2-.2-.4-.4-.4h-18v5.3c0 .5-.5.9-1 .9h-5.2v25.4c0 .3.2.5.5.5h23.7c.3 0 .4-.2.4-.5v-1.2h1.7v-1h-4.2c-.3 0-.6-.3-.6-.6s.3-.6.6-.6h4.2V442h-4.2c-.3 0-.6-.3-.6-.6s.3-.6.6-.6h4.2V439h-4.2c-.3 0-.6-.3-.6-.6 0-.4.3-.7.6-.6h4.2v-1.9h-4.2c-.3 0-.6-.3-.6-.6 0-.4.3-.7.6-.6h4.2v-1.9h-.2zM-263.8 426.1h6.6v-16l6.8-6.8h10.7v-8.9c0-.2-.2-.4-.4-.4h-18v5.3c0 .5-.5.9-1 .9h-5.2v25.4c0 .2.2.5.5.5z"/><path class="st1" d="M-221.5 447.3c0 .3-.1.5-.4.5h-23.7c-.3 0-.5-.2-.5-.5v-25.4h5.2c.5 0 1-.4 1-.9v-5.3h18c.2 0 .4.2.4.4v11.3h1.9v-11.3c0-1.2-1.1-2.2-2.4-2.2h-6.8v-8.4c0-1.2-1.1-2.2-2.4-2.2h-6.8v-8.9c0-1.2-1.1-2.2-2.4-2.2h-19.4l-6.8 6.8v26.7c0 1.2 1.1 2.2 2.4 2.2h6.8v8.9c0 1.2 1.1 2.2 2.4 2.2h6.8v8.4c0 1.2 1.1 2.2 2.4 2.2h23.7c1.3 0 2.4-1 2.4-2.2v-1.3h-1.8v1.2zm-9.1-33.5h-10.7l-6.8 6.8v16.5h-6.6c-.3 0-.5-.1-.5-.5v-25.4h5.2c.5 0 1-.4 1-.9V405h18c.2 0 .4.2.4.4v8.4zm-33.7-13.6h5.2c.5 0 1-.4 1-.9V394h18c.2 0 .4.2.4.4v8.9h-10.7l-6.8 6.8v16h-6.6c-.3 0-.5-.2-.5-.5v-25.4z"/><path class="st1" d="M-224 443.9c-.3 0-.6.3-.6.6s.3.6.6.6h16c.3 0 .6-.3.6-.6s-.3-.6-.6-.6h-16zM-224 440.8c-.3 0-.6.3-.6.6s.3.6.6.6h16c.3 0 .6-.3.6-.6s-.3-.6-.6-.6h-16zM-224 437.8c-.3-.1-.6.2-.6.6 0 .3.3.6.6.6h16c.3 0 .6-.3.6-.6s-.3-.6-.6-.6h-16zM-224 434.7c-.3-.1-.6.2-.6.6 0 .3.3.6.6.6h16c.3 0 .6-.3.6-.6s-.3-.6-.6-.6h-16zM-224 431.6c-.3 0-.6.2-.6.6 0 .3.3.6.6.6h16c.3 0 .6-.3.6-.6s-.3-.6-.6-.6h-16zM-224 428.5c-.3 0-.6.3-.6.6s.3.6.6.6h16c.3 0 .6-.3.6-.6s-.3-.6-.6-.6h-16z"/></svg>