<svg id="Layer_1" xmlns="http://www.w3.org/2000/svg" viewBox="-267 390.9 60 60"><style>.st0{fill:#fff}.st1{fill:#767676}.st2{fill:#7f7f7f}</style><path class="st0" d="M-226 436.5c0-1 .8-1.8 1.8-1.8h4.4v-7.3h-1.7v-11.3c0-.2-.2-.4-.4-.4h-18v5.3c0 .5-.5.9-1 .9h-5.2v25.4c0 .3.2.5.5.5h23.7c.3 0 .4-.2.4-.5v-1.2h1.7v-7.8h-4.4c-1 0-1.8-.8-1.8-1.8zM-263.8 426.1h6.6v-16l6.8-6.8h10.7v-8.9c0-.2-.2-.4-.4-.4h-18v5.3c0 .5-.5.9-1 .9h-5.2v25.4c0 .2.2.5.5.5z"/><path class="st0" d="M-231 405h-18v5.3c0 .5-.5.9-1 .9h-5.2v25.4c0 .4.2.5.5.5h6.6v-16.5l6.8-6.8h10.7v-8.4c0-.2-.2-.4-.4-.4z"/><path class="st1" d="M-221.5 447.3c0 .3-.1.5-.4.5h-23.7c-.3 0-.5-.2-.5-.5v-25.4h5.2c.5 0 1-.4 1-.9v-5.3h18c.2 0 .4.2.4.4v11.3h1.9v-11.3c0-1.2-1.1-2.2-2.4-2.2h-6.8v-8.4c0-1.2-1.1-2.2-2.4-2.2h-6.8v-8.9c0-1.2-1.1-2.2-2.4-2.2h-19.4l-6.8 6.8v26.7c0 1.2 1.1 2.2 2.4 2.2h6.8v8.9c0 1.2 1.1 2.2 2.4 2.2h6.8v8.4c0 1.2 1.1 2.2 2.4 2.2h23.7c1.3 0 2.4-1 2.4-2.2v-1.3h-1.8v1.2zm-9.1-33.5h-10.7l-6.8 6.8v16.5h-6.6c-.3 0-.5-.1-.5-.5v-25.4h5.2c.5 0 1-.4 1-.9V405h18c.2 0 .4.2.4.4v8.4zm-33.7-13.6h5.2c.5 0 1-.4 1-.9V394h18c.2 0 .4.2.4.4v8.9h-10.7l-6.8 6.8v16h-6.6c-.3 0-.5-.2-.5-.5v-25.4z"/><path class="st2" d="M-209.4 434.7h-5.6v-5.6c0-1-.8-1.8-1.8-1.8h-.3c-.8.2-1.5.9-1.5 1.8v5.6H-224.2c-1 0-1.8.8-1.8 1.8s.8 1.8 1.8 1.8H-218.6v5.6c0 .5.2.9.5 1.2.3.4.8.6 1.3.6 1 0 1.8-.8 1.8-1.8v-5.6h5.6c1 0 1.8-.8 1.8-1.8s-.9-1.8-1.8-1.8z"/></svg>