<svg id="Layer_1" xmlns="http://www.w3.org/2000/svg" viewBox="-267 390.9 60 60"><style>.st0{fill:#fff}.st1{fill:#797979}.st2{fill:#868686}</style><path class="st0" d="M-222.5 396.7l-11.3 3.6h12.3zM-229.1 421.8v5.5c0 .9.7 1.7 1.7 1.7h17.2v-8.8h-17.2c-.9-.1-1.7.7-1.7 1.6zm4.8.5c1.2 0 2.2 1 2.2 2.2 0 1.2-1 2.2-2.2 2.2-1.2 0-2.2-1-2.2-2.2 0-1.2 1-2.2 2.2-2.2z"/><path class="st0" d="M-212.9 403.5H-261c-1.5 0-2.7 1.2-2.7 2.7v36.6c0 1.5 1.2 2.7 2.7 2.7h48.1c1.5 0 2.7-1.2 2.7-2.7v-10.7h-17.2c-2.7 0-4.9-2.2-4.9-4.9v-5.5c0-2.7 2.2-4.9 4.9-4.9h17.2v-10.7c0-1.4-1.2-2.6-2.7-2.6zm-28.1 23.1h-6.3v6.4c0 .6-.2 1.1-.6 1.4-.4.4-.9.6-1.4.6-1.1 0-2.1-.9-2.1-2.1v-6.4h-6.4c-1.1 0-2.1-.9-2.1-2.1 0-1.1.9-2.1 2.1-2.1h6.4v-6.4c0-1.1.9-2.1 2.1-2.1.6 0 1.1.2 1.4.6.4.4.6.9.6 1.4v6.4h6.3c1.1 0 2.1.9 2.1 2.1 0 1.3-1 2.3-2.1 2.3z"/><path class="st1" d="M-212.9 400.3h-5.3l-1.6-6.1c-.1-.4-.4-.8-.8-1-.2-.1-.5-.2-.8-.2-.2 0-.3 0-.5.1l-22.7 7.2H-261c-3.3 0-5.9 2.7-5.9 5.9v36.6c0 3.3 2.7 5.9 5.9 5.9h48.1c3.3 0 5.9-2.7 5.9-5.9v-36.6c0-3.3-2.7-5.9-5.9-5.9zm-9.6-3.6l.9 3.6h-12.3l11.4-3.6zm12.3 32.2h-17.2c-.9 0-1.7-.7-1.7-1.7v-5.5c0-.9.7-1.6 1.7-1.6h17.2v8.8zm0-12h-17.2c-2.7 0-4.9 2.2-4.9 4.9v5.5c0 2.7 2.2 4.9 4.9 4.9h17.2v10.7c0 1.5-1.2 2.7-2.7 2.7H-261c-1.5 0-2.7-1.2-2.7-2.7v-36.6c0-1.5 1.2-2.7 2.7-2.7h48.1c1.5 0 2.7 1.2 2.7 2.7v10.6z"/><path class="st1" d="M-224.3 426.7c1.2 0 2.2-1 2.2-2.2 0-1.2-1-2.2-2.2-2.2-1.2 0-2.2 1-2.2 2.2 0 1.2 1 2.2 2.2 2.2z"/><path class="st2" d="M-241 422.4h-6.3V416c0-.6-.2-1.1-.6-1.4-.4-.4-.9-.6-1.4-.6-1.1 0-2.1.9-2.1 2.1v6.4h-6.4c-1.1 0-2.1.9-2.1 2.1 0 1.1.9 2.1 2.1 2.1h6.4v6.4c0 1.1.9 2.1 2.1 2.1.6 0 1.1-.2 1.4-.6.4-.4.6-.9.6-1.4v-6.4h6.3c1.1 0 2.1-.9 2.1-2.1 0-1.3-1-2.3-2.1-2.3z"/></svg>