<svg id="Layer_1" xmlns="http://www.w3.org/2000/svg" viewBox="-267 390.9 60 60"><style>.st0{fill:#fff}.st1{fill:#767676}</style><path class="st0" d="M-218.4 413.5v-19c0-.3-.3-.6-.6-.6h-30.4v9c0 .9-.7 1.5-1.6 1.5h-8.8v42.7c0 .4.3.8.7.8h39.9c.6 0 .7-.3.7-.8v-3.7h3.1v.1h4.5v-2.6c0 .6-.4 1-1 1h-26c-.6 0-1-.4-1-1s.4-1 1-1h26c.6 0 1 .4 1 1v-5c0 .6-.4 1-1 1h-26c-.6 0-1-.4-1-1s.4-1 1-1h26c.6 0 1 .4 1 1v-5c0 .6-.4 1-1 1h-26c-.6 0-1-.4-1-1s.4-1 1-1h26c.6 0 1 .4 1 1v-5c0 .6-.4 1-1 1h-26c-.6 0-1-.4-1-1s.4-1 1-1h26c.6 0 1 .4 1 1v-5c0 .6-.4 1-1 1h-26c-.6 0-1-.4-1-1s.4-1 1-1h26c.6 0 1 .4 1 1v-5c0 .6-.4 1-1 1h-26c-.6 0-1-.4-1-1s.4-1 1-1h26c.6 0 1 .4 1 1v-2.4h-7.5z"/><path class="st1" d="M-218.4 443.4v3.6c0 .4-.2.8-.7.8H-259c-.5 0-.7-.3-.7-.8v-42.7h8.8c.9 0 1.6-.6 1.6-1.5v-9h30.4c.3 0 .6.3.6.6v19h3.3v-19c0-2-1.8-3.6-4-3.6h-32.7l-11.4 11.4v45c0 2 1.8 3.6 4 3.6h39.9c2.2 0 4-1.7 4-3.6V443.4h-3.2z"/><path class="st1" d="M-211.8 439.9h-26c-.6 0-1 .4-1 1s.4 1 1 1h26c.6 0 1-.4 1-1s-.5-1-1-1zM-211.8 434.9h-26c-.6 0-1 .4-1 1s.4 1 1 1h26c.6 0 1-.4 1-1s-.5-1-1-1zM-211.8 429.9h-26c-.6 0-1 .4-1 1s.4 1 1 1h26c.6 0 1-.4 1-1s-.5-1-1-1zM-211.8 424.9h-26c-.6 0-1 .4-1 1s.4 1 1 1h26c.6 0 1-.4 1-1s-.5-1-1-1zM-211.8 419.9h-26c-.6 0-1 .4-1 1s.4 1 1 1h26c.6 0 1-.4 1-1s-.5-1-1-1zM-211.8 414.9h-26c-.6 0-1 .4-1 1s.4 1 1 1h26c.6 0 1-.4 1-1s-.5-1-1-1z"/></svg>