<svg id="Layer_1" xmlns="http://www.w3.org/2000/svg" viewBox="-267 390.9 60 60"><style>.st0{fill:#fff}.st1{fill:#797979}</style><path class="st0" d="M-221.5 400.3l-1-3.6-11.3 3.6zM-229.1 421.8v5.5c0 .9.7 1.7 1.7 1.7h17.2v-8.8h-17.2c-.9-.1-1.7.7-1.7 1.6zm4.8.5c1.2 0 2.2 1 2.2 2.2 0 1.2-1 2.2-2.2 2.2-1.2 0-2.2-1-2.2-2.2 0-1.2 1-2.2 2.2-2.2z"/><path class="st0" d="M-212.9 403.5H-261c-1.5 0-2.7 1.2-2.7 2.7v36.6c0 1.5 1.2 2.7 2.7 2.7h48.1c1.5 0 2.7-1.2 2.7-2.7v-10.7h-17.2c-2.7 0-4.9-2.2-4.9-4.9v-5.5c0-2.7 2.2-4.9 4.9-4.9h17.2v-10.7c0-1.4-1.3-2.6-2.7-2.6zm-34.3 29.9V428h-12v-7h12v-5.4l9.4 8.9-9.4 8.9z"/><path class="st1" d="M-212.9 400.3h-5.3l-1.6-6.1c-.1-.4-.4-.8-.8-1-.2-.1-.5-.2-.8-.2-.2 0-.3 0-.5.1l-22.7 7.2h-16.5c-3.3 0-5.9 2.7-5.9 5.9v36.6c0 3.3 2.7 5.9 5.9 5.9h48.1c3.3 0 5.9-2.7 5.9-5.9v-36.6c.1-3.3-2.6-5.9-5.8-5.9zm-8.6 0h-12.3l11.4-3.6.9 3.6zm11.3 28.6h-17.2c-.9 0-1.7-.7-1.7-1.7v-5.5c0-.9.7-1.6 1.7-1.6h17.2v8.8zm0-12h-17.2c-2.7 0-4.9 2.2-4.9 4.9v5.5c0 2.7 2.2 4.9 4.9 4.9h17.2v10.7c0 1.5-1.2 2.7-2.7 2.7H-261c-1.5 0-2.7-1.2-2.7-2.7v-36.6c0-1.5 1.2-2.7 2.7-2.7h48.1c1.5 0 2.7 1.2 2.7 2.7v10.6z"/><path class="st1" d="M-224.3 426.7c1.2 0 2.2-1 2.2-2.2 0-1.2-1-2.2-2.2-2.2-1.2 0-2.2 1-2.2 2.2 0 1.2 1 2.2 2.2 2.2zM-247.2 421h-12v7h12v5.4l9.4-8.9-9.4-8.9z"/></svg>