<svg id="Layer_1" xmlns="http://www.w3.org/2000/svg" viewBox="-267 390.9 60 60"><style>.st0{fill:#fff}.st1{fill:#767676}</style><path class="st0" d="M-221 440.6v-5.3h-16v-13h16V417c.6.6 1.2 1.1 1.8 1.7v-5.2h-1.3v-18.8c0-.3-.3-.6-.6-.6h-30.2v9c0 .7-.7 1.5-1.6 1.5h-8.7v42.7c0 .3.3.6.6.6h39.9c.2 0 .5-.2.5-.6v-3.8h1.4v-4.6c-.6.6-1.1 1.1-1.8 1.7z"/><path class="st1" d="M-220.6 443.5v3.8c0 .4-.3.6-.5.6H-261c-.3 0-.6-.3-.6-.6v-42.7h8.7c.9 0 1.6-.8 1.6-1.5v-9h30.2c.3 0 .6.3.6.6v18.8H-217.1v-19c0-2-1.8-3.6-4-3.6h-32.7l-11.4 11.4v45c0 2 1.8 3.6 4 3.6h39.9c2.2 0 4-1.7 4-3.6v-3.8h-3.3z"/><path class="st1" d="M-221 422.3h-16v13h16v5.3c.6-.5 1.2-1.1 1.8-1.7 3.5-3.3 6.7-6.9 10.3-10.1-3.6-3.2-6.9-6.7-10.3-10.1-.6-.6-1.2-1.2-1.8-1.7v5.3z"/></svg>