<svg id="Layer_1" xmlns="http://www.w3.org/2000/svg" viewBox="-267 390.9 60 60"><style>.st0{fill:#fff}.st1{fill:#868686}</style><path class="st0" d="M-223 436v-8.1h-8.1c-1.4 0-2.6-1.2-2.6-2.6 0-1.4 1.2-2.6 2.6-2.6h8.1v-8.1c0-1.2.9-2.3 2.1-2.6v-3.2h-1.2v-13.6c0-.4 0-.6-.6-.6H-253v8.7c0 .7-.7 1.5-1.6 1.5h-8.7v41.7c0 .3.3.6.6.6h40c.3 0 .4-.3.4-.6v-4.4h1.3v-3.5c-1.1-.3-2-1.4-2-2.6z"/><path class="st1" d="M-222.3 446.5c0 .3-.1.6-.4.6h-40c-.3 0-.6-.3-.6-.6v-41.7h8.7c.9 0 1.6-.7 1.6-1.5v-8.7h30.2c.6 0 .6.2.6.6v13.6H-218.8v-13.6c0-1.9-1.8-3.6-4-3.6h-32.8l-11.4 11.1v43.9c0 1.9 1.8 3.6 4 3.6h40c2.2 0 4-1.6 4-3.6v-4.5H-222.4c.1 0 .1 3.9.1 4.4z"/><path class="st1" d="M-209.7 422.7h-8.1v-8.1c0-.7-.3-1.4-.8-1.8-.5-.5-1.1-.8-1.8-.8-.2 0-.4 0-.5.1-1.2.3-2.1 1.3-2.1 2.6v8.1h-8.1c-1.4 0-2.6 1.2-2.6 2.6 0 1.4 1.2 2.6 2.6 2.6h8.1v8.1c0 1.2.9 2.3 2.1 2.6.2 0 .3.1.5.1.7 0 1.4-.3 1.8-.8.5-.5.8-1.1.8-1.8v-8.1h8.1c1.4 0 2.6-1.2 2.6-2.6 0-1.7-1.2-2.8-2.6-2.8z"/></svg>