<svg id="Layer_1" xmlns="http://www.w3.org/2000/svg" viewBox="-201 298 676.3 256"><style>.st0{fill:#e2383f}.st1{fill:#003876}</style><g id="Layer_3"><path class="st0" d="M-57.1 370.2h25.8v65s2.8 13.8 16 13.5c17-.3 21-11.8 21-17.2v-61.2h25.5v98.2H6.6v-13.8s-9.8 16.5-31.2 15.8-32.5-16.8-32.5-27.5v-72.8zM48.1 370.2h24.3v15.5s6.8-19 29-19h2.8v26.8s-4.1-.4-7.1-.4c0 0-23 .7-23 17.9v56.6h-26v-97.4z"/><path class="st1" d="M209.9 371.8v-1.5h15.2v15.4s6.6-17 30-17 33.4 16.8 33.4 27.1V468h-16v-66.2s-.3-20-20-20-26 19.9-26 26.8v59.3h-16.6v-96.1zM403.8 346h14.8v26.2H434v11.5h-15.1V450s.1 6 6.8 6h8.3v11.8s-4.5 1.5-11.8 1.5-17.2-2.8-18.3-17.3c-1.2-14.5 0-68.2 0-68.2h-14v-11.7h14V346zM386.6 417.2s-.5-48.5-41.8-48.5-44.7 40.3-44.7 49.7c0 14.7 2.8 54 43.2 52.8s41.8-31.3 41.8-33.7H370s-3.8 19.8-26.6 19.8c-20.6 0-26.6-16.2-26.6-33.7h69.8v-6.4zm-70.2-5.2c1-1 .8-29.5 27-29.5s26.8 29.5 26.8 29.5h-53.8z"/><path class="st0" d="M200.8 425v-19.7s-3.3-38-45.3-38c-44.5 0-46.5 34.2-46.3 49.8.2 21.8 6.7 53.6 46.5 53.6s45.2-28.2 45.2-31.5H175s-6.5 11-18.2 11S134 443.9 135 425h65.8zm-66-17.1s2-19.2 20.2-19.2 19.3 15.5 19.3 19.3l-39.5-.1zM-105.6 366.7c-24 .5-29.8 16-29.8 16v-12.2h-23.8l-.5 135.5h25.2v-49.5c1.5 1.5 8.9 14.8 28.8 14.8 25.2 0 40.8-23.5 40.8-54.5s-16.7-50.6-40.7-50.1zm-7.9 82.8c-18.1 0-22.6-18.4-22.6-31v-.4c0-5.1 3.6-29.4 21.9-29.4s23.4 18.5 23.4 29.4c-.1 13.2-4.6 31.4-22.7 31.4z"/></g></svg>