<svg id="Layer_1" xmlns="http://www.w3.org/2000/svg" viewBox="-411 298 256 256"><style>.st0{fill:#015491}</style><path class="st0" d="M-223.9 421.4h-4.5v-.2c0-.8-.6-1.4-1.4-1.4h-.1c-.8 0-1.4.6-1.4 1.4v.2h-1v-1.8c0-.8-.6-1.4-1.4-1.4h-.1c-.8 0-1.4.6-1.4 1.4v1h-.8s.1-1.6-.2-2.8c-.2-.7-.8-1.1-1.3-1.4-.2-.2-.4-.3-.7-.3h-.1c-.5 0-1 .4-1 1v2.2h-.8v-2.2c0-1.3-1.1-1.4-1.1-1.4v-.9c0-.2-.4-.4-.7-.6v-1c0-.3-.3-.6-.6-.6h-.1c-.3 0-.6.3-.6.6v5c-.4-.3-.8-.1-.8-.1s-.1-1.1-.1-2.4c0-1.3-.8-1.2-.9-1.3s0-.6 0-1.1c0-.3-.5-.3-.8-.3v-1.7c0-.3-.3-.6-.6-.6h-.1c-.3 0-.6.3-.6.6v5.7c-.3.1-.8.1-.8-.5 0-.9-.2-2.2-.8-2.5v-.2c0-.9-.3-1.6-.7-1.6h-.2v-.8c0-.3-.3-.6-.6-.6h-.1c-.3 0-.6.3-.6.6v4.4c-.3-.3-.7-.4-.9-.5v-1.1c0-.6-.4-1.1-.9-1.1h-.1v-2.6c0-.4-.3-.8-.8-.8h-.1v-.7c0-.3-.3-.6-.6-.6h-.1c-.3 0-.6.3-.6.6v5.3c-.2-.4-.8-.7-.8-.7v-2.5c0-1.5-1-1.6-1-1.6V408c0-.6-.5-.7-.8-.8v-1.6c0-.3-.3-.6-.6-.6h-.1c-.3 0-.6.3-.6.6v7.8h-1v-2.7s-.6-.8-.7-1c-.1-.2-.1-.3-.1-.3s-.4-.8-.8-.8v-3.5c0-.3-.3-.6-.6-.6h-.1c-.3 0-.6.3-.6.6v14.6c-.1.1-.2.2-.4.2-.4 0-.4-.4-.4-.4s.1-.7-.1-1.3c-.2-.4-.6-.6-.9-.7v-2.6c0-.5-.4-1-1-1h-.1c-.5 0-1 .4-1 1v1.3h-.1c-.6 0-1.6 2.4-1.7 2.4-.1 0-.2-.4-.3-.6 0-.4-.3-.7-.6-.8v-12.4c0-.3-.3-.6-.6-.6h-.1c-.3 0-.6.3-.6.6v16.6h-6.2c-1.1-.1-2.4.2-2.8 0-.5-.2-2.2-1.8-2.9-1.8s-1.6 1.5-1.9 1.7-.8.2-.8.2h-.1v1.2h-.3v9.7h.5s3.7-7.5 4.4-8.1c.7-.6 1-.6 1.6-.7h8.6v11c0 .3.3.6.6.6h.1c.3 0 .6-.3.6-.6v-10.7h.7c.6.1 1.7 4.4 2.1 5.8v3c0 .5.4 1 1 1h.1c.5 0 1-.4 1-1v-4.2c.3-.6.8-1.3 1.2-1.3.2 0 .4.2.6.4v11.6c0 .3.3.6.6.6h.1c.3 0 .6-.3.6-.6v-7.8c.2 0 .5-.1.5-.3.2-.5.2-1.2.2-1.2s.6-.1.8-.8c.1-.3.7-.3 1.1-.3V446c0 .3.3.6.6.6h.1c.3 0 .6-.3.6-.6v-10c.8-.3.7-.9.7-.9v-5.3l.8-.3c.8-.3 0-2.2.4-2.2.3 0 .6-.2.7-.5v12.4c0 .3.3.6.6.6h.1c.3 0 .6-.3.6-.6v-3.9h.1c.4 0 .8-.3.8-.8v-4.7h.1c.5 0 .9-.5.9-1.1v-2.6h.9V439c0 .3.3.6.6.6h.1c.3 0 .6-.3.6-.6v-2.7c.4-.1 1.5-.5 1.6-1.5.1-1 .1-7.3.1-7.3s.1-.7.7-.5c0 0 .1-.1.1-.2V438c0 .3.3.6.6.6h.1c.3 0 .6-.3.6-.6v-.9c1.4-.5 1.7-1.8 1.7-1.8v-9.5c0-.6.7-.8.9-.9V434.3c0 .5.3 1.1 1.3 1.1 1.6 0 1.8-1.7 1.8-1.7l-.1-9.2h.9v6.4c0 .5.4 1 1 1h.1c.2 0 .4-.1.6-.2.1 0 .2 0 .2-.1.3-.1 1-1.6 1-1.6v-5.5h1.1v1c0 .8.6 1.4 1.4 1.4h.1c.8 0 1.4-.6 1.4-1.4v-1.3h2.4c1.8 0 5.7-1 6.1-1.1h23.7V421h-23.9z"/><path class="st0" d="M-288.7 419.9c-1.9 0-1.2 1.3-2.3 1.4-1 .1-.6-1.2-1.6-1.2-.7 0-.7 1.1-1.4.3s-1.1-.5-1.1-.6c0-.1.2-2.5-1.4-2.5-1.2 0-1.4 1.4-1.4 2.2-.1.2-.2.2-.4.3-.3 0-.6.8-.6-.4 0-1.2-.1-2.6-1.5-2.6s-1.4 1.9-1.7 1.8-.6-1.7-.6-1.7v-4.4c0-1.6-1-2.1-1.8-2.1s-1 .7-1.1.9c-.1.2-.1 1-.3 1-.2 0-.1-.2-.2-.4s-.6-.2-.6-.2v-2.3c0-.9-1.1-1.2-1.7-1.3v-1.7c0-.3-.3-.6-.6-.6h-.1c-.3 0-.6.3-.6.6v8c-.3 1-.9 1.6-.9 1.6s.2-3.8 0-5.6c-.1-1.2-1.1-1.3-1.7-1.2v-1.7c0-.3-.3-.6-.6-.6h-.1c-.3 0-.6.3-.6.6v5.3c-.4.1-.8.1-1.2-.1v-3c0-1-.8-1.1-1.4-1v-.8c0-.3-.3-.6-.6-.6h-.1c-.3 0-.6.3-.6.6v8.6h-.9s.1-3.1 0-4.5c0-1-1.2-1.3-1.8-1.4v-4.1c0-.3-.3-.6-.6-.6h-.1c-.3 0-.6.3-.6.6V417c-.3.3-.8.2-.8.2s.1-1.9.1-3.6c0-1.2-1.2-1.4-1.8-1.3v-5.6c0-.3-.3-.6-.6-.6h-.1c-.3 0-.6.3-.6.6V418c-.1.1-.2.1-.3.1-.6.1-.7-.8-.7-.8v-6c0-1.5-1-1.7-1.8-1.7v-5.5c0-.3-.3-.6-.6-.6h-.1c-.3 0-.6.3-.6.6v14.6c-.1.6-.2 1.2-.4 1.4-.4.4-.5-.2-.5-.2v-4.8c0-1.2.1-.4 0-1.2-.1-1.1-1.1-1.2-1.7-1v-10.4c0-.3-.3-.6-.6-.6h-.1c-.3 0-.6.3-.6.6v18.8h-.8v-2.2c0-.5-.9-1-1.6-1-.1 0-.2 0-.3.1v-4.5c0-.3-.3-.6-.6-.6h-.1c-.3 0-.6.3-.6.6v5.5c-.1.1-.1.3-.2.6-.2.4-.6 1.5-2.3 1.5s-2.5-.7-4.6-.8c-2.2 0-5 .8-5 .8h-16.2v2.1h3.9c3.4 0 3.9.6 4.4.7s1.3.7 2.4.6c1 0 1.7-.3 2.8-.3 2.4 0 8 1 8 1s5.3 1.3 6.2 2.5c.1.1.4.3.4.2 0-1.7.2-2.4.5-2.8v8.9c0 .3.3.6.6.6h.1c.3 0 .6-.3.6-.6v-9.8c.5.4 1.3 1.4 1.3 1.4l1.4.1V443c0 .3.3.6.6.6h.1c.3 0 .6-.3.6-.6v-9.8h.3c.4 0 .5-1 .5-1v-2.1c0-.3 0-.2.1-.2.4 0 1-1 .9-1.3v-2.1c0-.1.1-.3.3-.3.1 0 .2 0 .3.1v15.1c0 .3.3.6.6.6h.1c.3 0 .6-.3.6-.6v-4.5c.8.1 1-1 1-1s-.1-4.2 0-5.6v-.5c.4-.3.7-.4.8-1s-.1-.9.5-.8c.2.1.3.1.4.2v16.5c0 .3.3.6.6.6h.1c.3 0 .6-.3.6-.6v-7.5c.5.1.7-1.3.7-1.3v-5-.4c.5-.3 1-1.2 1-1.2v-1h.8v20c0 .3.3.6.6.6h.1c.3 0 .6-.3.6-.6v-7.4c.6-.2.8-2.2.8-2.2v-6.2-.4c1.1-.8 1-1.7 1-1.7s-.1-2.4.1-1.6c.1.4.4.5.7.5v20.1c0 .3.3.6.6.6h.1c.3 0 .6-.3.6-.6v-8.2c.5-.3.8-1.4.8-1.4s-.1-6.5-.1-6.7c.1-.9.9-1.2.9-1.2l-.1-1.9 1.1.1v17.8c0 .3.3.6.6.6h.1c.3 0 .6-.3.6-.6v-10.7c.6-.2.9-1.3.9-1.3v-3.4c0-.1.2-.4.3-.4.9-.2.3-1.8.5-2.5.1-.4.6-.5 1-.5v16.4c0 .3.3.6.6.6h.1c.3 0 .6-.3.6-.6v-10.4c.5-.2.7-1 .7-1v-3.7c0-.3 0-.4.1-.4.8-.1 1-1.1 1-1.1v-1.2s.2-.2.5-.3c.2-.1.1-.7.5-.7s0 .5 0 .5v1.9c0 .5.1 1.2 1 1.2s1-.7 1-.7-.1-2.1.2-2.2c.4-.1.8-1.1.8-1.4 0-.2.1-.5.9-.5v2.4c0 .3.3.6.6.6h.1c.3 0 .6-.3.6-.6v-2.2c1.2.3 2.3.8 2.7 1.1v1.1c0 .2.2.4.4.4s.4-.2.4-.4c.1-.2.2-.6.6-.5.6.1 1.9 1.3 3 1.2 1.8-.3 1-3.8 2.3-3.9.8-.2 1.1.7 1.8.7s1.5-1.7 2-1.5c.5.3.9 8 .9 8l.5.1v-10.1h.3v-.5c-1.1-.1-1.3-1.5-3.2-1.5z"/></svg>