<svg id="Layer_1" xmlns="http://www.w3.org/2000/svg" viewBox="-411 298 256 256"><style>.st0{fill:url(#SVGID_1_)}.st1{fill:none;stroke:#015491;stroke-width:2;stroke-miterlimit:10}.st2{fill:url(#SVGID_2_)}.st3{fill:#fff}.st4{fill:#015491}</style><radialGradient id="SVGID_1_" cx="-246.524" cy="367.98" r="23.061" gradientUnits="userSpaceOnUse"><stop offset="0" stop-color="#0081d4"/><stop offset="1" stop-color="#0068aa"/></radialGradient><path class="st0" d="M-267.7 342.3c-1.9-2-4.3-3.6-5.4-3.6s-.8.3.6.6 4 2.3 5.9 4.3l43.2 45.8c1.9 2 3.6 5 3.7 6.7s.3 1.6.3-.2-1.6-4.8-3.5-6.8l-44.8-46.8z"/><path class="st1" d="M-267.7 342.3c-1.9-2-4.3-3.6-5.4-3.6s-.8.3.6.6 4 2.3 5.9 4.3l43.2 45.8c1.9 2 3.6 5 3.7 6.7s.3 1.6.3-.2-1.6-4.8-3.5-6.8l-44.8-46.8z"/><radialGradient id="SVGID_2_" cx="-283" cy="426" r="62.337" gradientUnits="userSpaceOnUse"><stop offset="0" stop-color="#0081d4"/><stop offset="1" stop-color="#0068aa"/></radialGradient><path class="st2" d="M-274.7 390.3c0-1.8-.3-46.6-.3-46.6 0-2.7-2.3-5-5-5h-61.7c-2.8 0-5 2.2-5 5v164.7c0 2.8 2.2 5 5 5h117.3c2.8 0 5-2.2 5-5V404.1c0-2.8-2.2-5-5-5H-266c-6.5 0-8.7-7-8.7-8.8zm-50 4.1c0-2.8 2.2-5 5-5h24c2.8 0 5 2.2 5 5v2.5c0 2.8-2.2 5-5 5h-24c-2.8 0-5-2.2-5-5v-2.5zm52.4 86.8c0 2.8-2.2 5-5 5h-42.4c-2.8 0-5-2.2-5-5v-2.5c0-2.8 2.2-5 5-5h42.4c2.8 0 5 2.2 5 5v2.5zm25.6-28.5c0 2.8-2.2 5-5 5h-68c-2.8 0-5-2.2-5-5v-2.5c0-2.8 2.2-5 5-5h68c2.8 0 5 2.2 5 5v2.5zm0-27.8c0 2.8-2.2 5-5 5h-68c-2.8 0-5-2.2-5-5v-2.5c0-2.8 2.2-5 5-5h68c2.8 0 5 2.2 5 5v2.5z"/><path class="st1" d="M-274.7 390.3c0-1.8-.3-46.6-.3-46.6 0-2.7-2.3-5-5-5h-61.7c-2.8 0-5 2.2-5 5v164.7c0 2.8 2.2 5 5 5h117.3c2.8 0 5-2.2 5-5V404.1c0-2.8-2.2-5-5-5H-266c-6.5 0-8.7-7-8.7-8.8zm-50 4.1c0-2.8 2.2-5 5-5h24c2.8 0 5 2.2 5 5v2.5c0 2.8-2.2 5-5 5h-24c-2.8 0-5-2.2-5-5v-2.5zm52.4 86.8c0 2.8-2.2 5-5 5h-42.4c-2.8 0-5-2.2-5-5v-2.5c0-2.8 2.2-5 5-5h42.4c2.8 0 5 2.2 5 5v2.5zm25.6-28.5c0 2.8-2.2 5-5 5h-68c-2.8 0-5-2.2-5-5v-2.5c0-2.8 2.2-5 5-5h68c2.8 0 5 2.2 5 5v2.5zm0-27.8c0 2.8-2.2 5-5 5h-68c-2.8 0-5-2.2-5-5v-2.5c0-2.8 2.2-5 5-5h68c2.8 0 5 2.2 5 5v2.5z"/><path class="st3" d="M-324.7 389.4h34v12.5h-34zM-324.7 417.4h78v12.5h-78zM-324.7 445.2h78v12.5h-78zM-324.7 473.7h52.4v12.5h-52.4z"/><path class="st4" d="M-270 339.9l-5-1.3s.3 49.8.3 51.6c0 1.8 2.4 8.8 8.8 8.8h46.6l-.6-6.1-50.1-53z"/></svg>