<svg id="Layer_1" xmlns="http://www.w3.org/2000/svg" viewBox="-411 298 256 256"><style>.st0{fill:url(#SVGID_1_)}.st1,.st2{fill:none;stroke:#015491;stroke-width:2;stroke-miterlimit:10}.st2{fill:url(#SVGID_2_)}.st3{fill:#015491}.st4{fill:url(#SVGID_3_)}.st5{fill:url(#SVGID_4_);stroke:#015491;stroke-width:2;stroke-miterlimit:10}.st6{fill:url(#SVGID_5_)}.st7{fill:#fff}.st8{fill:url(#SVGID_6_);stroke:#015491;stroke-width:2;stroke-miterlimit:10}</style><radialGradient id="SVGID_1_" cx="-265.5" cy="408.788" r="50.527" gradientUnits="userSpaceOnUse"><stop offset="0" stop-color="#0081d4"/><stop offset="1" stop-color="#0068aa"/></radialGradient><path class="st0" d="M-252.4 341.6c-1.9-2-5.7-3.6-8.5-3.6h-51.2c-2.8 0-5 2.2-5 5v131.6c0 2.8 2.2 5 5 5h93.2c2.8 0 5-2.2 5-5v-87.8c0-2.8-1.6-6.6-3.5-8.6l-35-36.6z"/><path class="st1" d="M-252.4 341.6c-1.9-2-5.7-3.6-8.5-3.6h-51.2c-2.8 0-5 2.2-5 5v131.6c0 2.8 2.2 5 5 5h93.2c2.8 0 5-2.2 5-5v-87.8c0-2.8-1.6-6.6-3.5-8.6l-35-36.6z"/><radialGradient id="SVGID_2_" cx="-314.318" cy="344.231" r="0" gradientUnits="userSpaceOnUse"><stop offset="0" stop-color="#0081d4"/><stop offset="1" stop-color="#0068aa"/></radialGradient><path class="st3" d="M-259 338s.2 40.4.2 41.9 1.9 7.2 7.1 7.2h37.7l-.5-5-40.6-43-3.9-1.1z"/><g><radialGradient id="SVGID_3_" cx="-282.5" cy="426" r="50.527" gradientUnits="userSpaceOnUse"><stop offset="0" stop-color="#0081d4"/><stop offset="1" stop-color="#0068aa"/></radialGradient><path class="st4" d="M-269.4 358.8c-1.9-2-5.7-3.6-8.5-3.6h-51.2c-2.8 0-5 2.2-5 5v131.6c0 2.8 2.2 5 5 5h93.2c2.8 0 5-2.2 5-5V404c0-2.8-1.6-6.6-3.5-8.6l-35-36.6z"/><path class="st1" d="M-269.4 358.8c-1.9-2-5.7-3.6-8.5-3.6h-51.2c-2.8 0-5 2.2-5 5v131.6c0 2.8 2.2 5 5 5h93.2c2.8 0 5-2.2 5-5V404c0-2.8-1.6-6.6-3.5-8.6l-35-36.6z"/><radialGradient id="SVGID_4_" cx="-331.318" cy="361.444" r="0" gradientUnits="userSpaceOnUse"><stop offset="0" stop-color="#0081d4"/><stop offset="1" stop-color="#0068aa"/></radialGradient><path class="st3" d="M-276 355.2s.2 40.4.2 41.9 1.9 7.2 7.1 7.2h37.7l-.5-5-40.6-43-3.9-1.1z"/></g><g><radialGradient id="SVGID_5_" cx="-297.938" cy="442.463" r="50.527" gradientUnits="userSpaceOnUse"><stop offset="0" stop-color="#0081d4"/><stop offset="1" stop-color="#0068aa"/></radialGradient><path class="st6" d="M-284.9 375.3c-1.9-2-5.7-3.6-8.5-3.6h-51.2c-2.8 0-5 2.2-5 5v131.6c0 2.8 2.2 5 5 5h93.2c2.8 0 5-2.2 5-5v-87.8c0-2.8-1.6-6.6-3.5-8.6l-35-36.6z"/><path class="st1" d="M-284.9 375.3c-1.9-2-5.7-3.6-8.5-3.6h-51.2c-2.8 0-5 2.2-5 5v131.6c0 2.8 2.2 5 5 5h93.2c2.8 0 5-2.2 5-5v-87.8c0-2.8-1.6-6.6-3.5-8.6l-35-36.6z"/><path class="st7" d="M-331.7 412.8h27.6v10.1h-27.6zM-331.7 435.5h63.2v10.1h-63.2zM-331.7 458h63.2v10.1h-63.2zM-331.7 481.1h42.5v10.1h-42.5z"/><radialGradient id="SVGID_6_" cx="-346.756" cy="377.906" r="0" gradientUnits="userSpaceOnUse"><stop offset="0" stop-color="#0081d4"/><stop offset="1" stop-color="#0068aa"/></radialGradient><path class="st3" d="M-291.4 371.7s.2 40.4.2 41.9 1.9 7.2 7.1 7.2h37.7l-.5-5-40.6-43-3.9-1.1z"/></g></svg>