<svg xmlns="http://www.w3.org/2000/svg" viewBox="0 0 256 256"><radialGradient id="a" cx="75.386" cy="132.746" r="53.94" gradientUnits="userSpaceOnUse"><stop offset="0" stop-color="#0081d4"/><stop offset=".311" stop-color="#007ccc"/><stop offset=".801" stop-color="#006fb5"/><stop offset="1" stop-color="#0068aa"/></radialGradient><path fill="url(#a)" stroke="#015491" stroke-width="2" stroke-miterlimit="10" d="M102.338 149.911s-6.795-1.534-3.578-8.309c3.974-5.335 6.389-11.387 6.582-13.367 0 0 6.117-4.815 6.473-12.046.381-7.21-1.341-7.547-1.341-7.547 2.573-7.864 3.405-37.379-15.544-33.855-3.157-6.191-22.953-11.046-32.182 5.449-4.597 8.225-6.31 19.454-2.717 28.614-.134.683-1.272-.668-1.688 3.568-.401 4.083 1.44 9.937 3.439 12.649.871 1.143 2.262 1.98 3.237 2.405 0 0 1.198 7.275 6.874 14.129 1.306 5.439-4.093 8.309-4.093 8.309-17.88 3.439-34.315 13.367-34.315 24.106v8.319c0 11.655 27.144 14.154 51.572 14.154 24.433 0 31.528-3.071 31.528-10.203 0 0 .703-9.758.703-10.55 0-10.738-3.693-22.473-14.95-25.825z"/><path fill="#FFF" d="M97.736 55.596h111.716v153.675H97.736z"/><g fill="#015491"><path d="M211.31 55.596h-26.583l1.794 8.298c.221 1.03.21 2.065.094 3.082h19.004V201.11H100.38V66.977h19.009c-.116-1.023-.121-2.058.099-3.093l1.794-8.287H94.696a5.686 5.686 0 0 0-5.685 5.69V206.8a5.69 5.69 0 0 0 5.685 5.69H211.31a5.694 5.694 0 0 0 5.69-5.69V61.287a5.691 5.691 0 0 0-5.69-5.691z"/><path d="M192.223 96.724h-38.866a5.686 5.686 0 0 0-5.69 5.685 5.687 5.687 0 0 0 5.69 5.69h38.866a5.686 5.686 0 0 0 5.69-5.69 5.685 5.685 0 0 0-5.69-5.685zM192.223 131.622h-38.866a5.687 5.687 0 0 0-5.69 5.69 5.69 5.69 0 0 0 5.69 5.691h38.866a5.69 5.69 0 0 0 5.69-5.691 5.686 5.686 0 0 0-5.69-5.69zM110.111 98.061a5.693 5.693 0 0 0-.684 8.018l8.3 9.836a5.679 5.679 0 0 0 4.767 2.004 5.687 5.687 0 0 0 4.42-2.686l14.93-24.172a5.681 5.681 0 0 0-1.848-7.825 5.674 5.674 0 0 0-7.827 1.848l-10.808 17.491-3.236-3.831a5.68 5.68 0 0 0-8.014-.683zM123.737 128.783c-4.716 0-8.536 3.819-8.536 8.53a8.532 8.532 0 0 0 8.536 8.531 8.53 8.53 0 0 0 8.531-8.531 8.53 8.53 0 0 0-8.531-8.53zM192.223 165.754h-38.866a5.684 5.684 0 0 0-5.69 5.691 5.686 5.686 0 0 0 5.69 5.685h38.866a5.686 5.686 0 0 0 5.69-5.685 5.683 5.683 0 0 0-5.69-5.691zM123.737 162.915a8.532 8.532 0 1 0 0 17.062 8.531 8.531 0 0 0 0-17.062zM128.866 69.817h48.266a3.894 3.894 0 0 0 3.043-1.453 3.882 3.882 0 0 0 .775-3.281l-3.995-18.491a3.908 3.908 0 0 0-3.819-3.082h-40.27a3.91 3.91 0 0 0-3.819 3.082l-4.001 18.491a3.943 3.943 0 0 0 .782 3.281 3.893 3.893 0 0 0 3.038 1.453z"/></g></svg>