<svg id="Layer_1" xmlns="http://www.w3.org/2000/svg" viewBox="-281 404.9 32 32"><style>.st0{fill:#0b7e0c}.st1{fill:#fff}</style><path class="st0" d="M-265 409.6c-6.2 0-11.2 5-11.2 11.2 0 6.2 5 11.2 11.2 11.2s11.2-5 11.2-11.2c0-6.1-5-11.2-11.2-11.2zm7.2 7.9l-8.7 8.7c-.3.3-.6.4-.9.4-.3 0-.7-.1-.9-.4l-3.8-3.8c-.5-.5-.5-1.4 0-1.9s1.4-.5 1.9 0l2.8 2.8 7.7-7.7c.5-.5 1.4-.5 1.9 0s.5 1.4 0 1.9z"/><path class="st1" d="M-259.7 415.6l-7.7 7.7-2.8-2.8c-.5-.5-1.4-.5-1.9 0s-.5 1.4 0 1.9l3.8 3.8c.3.3.6.4.9.4.3 0 .7-.1.9-.4l8.7-8.7c.5-.5.5-1.4 0-1.9s-1.4-.5-1.9 0z"/></svg>