<svg id="Layer_1" xmlns="http://www.w3.org/2000/svg" viewBox="-279 390.9 36 60"><style>.st0{fill:#fff}.st1{fill:#006db3}</style><path class="st0" d="M-274.5 446.6c-.6-.5-.9-1.3-.9-2.1s.3-1.5.9-2.1l21.4-21.4-21.8-21.8c-.6-.5-.9-1.3-.9-2.1s.3-1.5.9-2.1c.5-.6 1.3-.9 2.1-.9s1.5.3 2.1.9l23.9 23.9c.6.5.9 1.3.9 2.1s-.3 1.5-.9 2.1l-23.6 23.6c-.5.6-1.3.9-2.1.9s-1.5-.3-2-1z"/><path class="st1" d="M-272.9 395.6c.3 0 .7.1 1.2.5l23.9 23.9c.3.4.4.9.4 1.1 0 .3 0 .7-.4 1.1l-23.6 23.6c-.4.3-.9.4-1.1.4-.3 0-.7 0-1.1-.4-.3-.4-.4-.8-.4-1.1s0-.7.4-1.1l20.4-20.4 2.1-2.1-2.1-2.1-20.8-20.8c-.3-.4-.4-.8-.4-1.1s0-.7.4-1.1c.4-.3.9-.4 1.1-.4m0-3c-1.1 0-2.3.5-3.3 1.2-1.8 1.8-1.8 4.6 0 6.4l20.8 20.8-20.4 20.4c-1.8 1.8-1.8 4.6 0 6.4.9.9 2 1.3 3.2 1.3 1.2 0 2.3-.4 3.2-1.3l23.6-23.6c1.8-1.8 1.8-4.6 0-6.4l-23.9-23.9c-.9-.9-2-1.3-3.2-1.3z"/></svg>