<svg xmlns="http://www.w3.org/2000/svg" viewBox="0 0 256 256"><g fill="#FFF"><path d="M211.824 66.529l-17.463 17.463h-59.376V49.065h59.376l17.463 17.464zM211.824 136.382l-17.463 17.463h-59.376v-34.927h59.376l17.463 17.464z"/></g><path fill="#FFF" d="M155.941 213.92h-55.883c0-7.715 6.255-13.971 13.971-13.971h27.941c7.716 0 13.971 6.256 13.971 13.971z"/><path fill="#FFF" d="M134.985 199.949h-13.971V42.08h13.971v157.869z"/><path fill="#FFF" d="M121.015 83.992v34.927H61.639l-17.463-17.463 17.463-17.463h59.376z"/><radialGradient id="a" cx="128" cy="128" r="88.371" gradientUnits="userSpaceOnUse"><stop offset=".005" stop-color="#0081d4"/><stop offset="1" stop-color="#0068aa"/></radialGradient><path fill="url(#a)" stroke="#015491" stroke-miterlimit="10" d="M194.361 87.485c.926 0 1.814-.368 2.47-1.023l17.463-17.463a3.493 3.493 0 0 0 0-4.94l-17.463-17.463a3.492 3.492 0 0 0-2.47-1.023h-55.883V42.08a3.493 3.493 0 0 0-3.493-3.493h-13.971a3.493 3.493 0 0 0-3.493 3.493V80.5H61.639c-.926 0-1.814.368-2.47 1.023L41.706 98.986a3.493 3.493 0 0 0 0 4.94l17.463 17.463a3.492 3.492 0 0 0 2.47 1.023h55.883v74.045h-3.493c-8.433 0-15.489 6.009-17.112 13.971H86.088a3.493 3.493 0 0 0 0 6.986h83.824a3.493 3.493 0 0 0 0-6.986h-10.829c-1.623-7.962-8.678-13.971-17.112-13.971h-3.493v-39.118h55.883c.926 0 1.814-.368 2.47-1.023l17.463-17.463a3.493 3.493 0 0 0 0-4.94l-17.463-17.463a3.492 3.492 0 0 0-2.47-1.023h-55.883V87.485h55.883zm-1.447-34.927l13.971 13.971L192.914 80.5h-54.436V52.558h54.436zM63.086 115.426l-13.971-13.971 13.971-13.971h54.436v27.941H63.086zm88.762 95.001h-47.696c1.442-4.065 5.324-6.985 9.877-6.985h27.941c4.554 0 8.436 2.92 9.878 6.985zm-27.341-13.97V45.573h6.985v150.884h-6.985zm68.407-74.045l13.971 13.971-13.971 13.971h-54.436v-27.941h54.436z"/></svg>