<svg id="svg2" xmlns="http://www.w3.org/2000/svg" viewBox="-411 298 256 256"><style>.st0{fill:url(#SVGID_1_);stroke:#015491;stroke-width:2;stroke-miterlimit:10}.st1{fill:#fff}</style><radialGradient id="SVGID_1_" cx="-306.271" cy="420.458" r="69.071" gradientUnits="userSpaceOnUse"><stop offset="0" stop-color="#0081d4"/><stop offset="1" stop-color="#0068aa"/></radialGradient><path class="st0" d="M-368.3 378.7h175.4l-87.5 86.2h-87.9z"/><path class="st1" d="M-360.8 402.6c3-.5 7.2-.9 13.2-.9 6 0 10.3 1.2 13.2 3.5 2.8 2.2 4.6 5.8 4.6 10s-1.4 7.8-4 10.2c-3.3 3.1-8.3 4.5-14 4.5-1.3 0-2.4-.1-3.3-.2v15.4h-9.7v-42.5zm9.7 19.6c.8.2 1.9.3 3.3.3 5.2 0 8.4-2.6 8.4-7 0-4-2.8-6.3-7.6-6.3-2 0-3.3.2-4 .4v12.6zM-323.1 435.1c2.6 1.3 6.7 2.7 10.8 2.7 4.5 0 6.9-1.9 6.9-4.7 0-2.7-2-4.2-7.2-6.1-7.2-2.5-11.8-6.5-11.8-12.7 0-7.4 6.1-13 16.3-13 4.9 0 8.5 1 11 2.2l-2.2 7.9c-1.7-.8-4.8-2-9-2s-6.3 1.9-6.3 4.2c0 2.8 2.4 4 8 6.1 7.6 2.8 11.2 6.8 11.2 12.9 0 7.2-5.6 13.4-17.4 13.4-4.9 0-9.8-1.3-12.2-2.6l1.9-8.3z"/></svg>