<svg id="svg2" xmlns="http://www.w3.org/2000/svg" viewBox="-411 298 256 256"><style>.st0{fill:#0171b9}.st1{fill:url(#SVGID_1_);stroke:#015491;stroke-width:2;stroke-miterlimit:10}.st2{fill:#fff}</style><path class="st0" d="M-363.2 483.2v11.6c0 3.5 1.3 5.2 3.7 5.2 2.4 0 3.7-1.7 3.7-5.2v-11.6h4.6v11.3c0 6.2-3.1 9.2-8.4 9.2-5.1 0-8.1-2.8-8.1-9.3v-11.3h4.5zM-342.5 484.6v4.2h3.3v3.4h-3.3v5.3c0 1.8.4 2.6 1.8 2.6.6 0 1-.1 1.4-.1v3.5c-.6.2-1.7.4-3 .4-1.5 0-2.7-.5-3.4-1.3-.8-.9-1.3-2.3-1.3-4.3v-6h-2v-3.4h2v-3.2l4.5-1.1zM-332 484.7c0 1.3-1 2.3-2.5 2.3-1.4 0-2.4-1-2.4-2.3 0-1.3.9-2.3 2.4-2.3s2.5 1 2.5 2.3zm-4.7 18.8v-14.7h4.6v14.7h-4.6zM-328.6 482.2h4.6v21.3h-4.6v-21.3zM-315.8 484.7c0 1.3-1 2.3-2.5 2.3-1.4 0-2.4-1-2.4-2.3 0-1.3.9-2.3 2.4-2.3s2.5 1 2.5 2.3zm-4.7 18.8v-14.7h4.6v14.7h-4.6zM-307.3 484.6v4.2h3.3v3.4h-3.3v5.3c0 1.8.4 2.6 1.8 2.6.6 0 1-.1 1.4-.1v3.5c-.6.2-1.7.4-3 .4-1.5 0-2.7-.5-3.4-1.3-.8-.9-1.3-2.3-1.3-4.3v-6h-2v-3.4h2v-3.2l4.5-1.1zM-297.9 488.8l2.2 7.2c.2.9.5 2 .7 2.7h.1c.2-.8.5-1.9.7-2.7l1.8-7.2h4.9l-3.4 9.7c-2.1 5.8-3.5 8.2-5.2 9.6-1.6 1.4-3.3 1.9-4.4 2l-1-3.9c.6-.1 1.3-.4 2-.8s1.4-1.1 1.9-1.8c.1-.2.2-.5.2-.7 0-.2 0-.4-.2-.8l-5.4-13.4h5.1zM-279.7 483.5c1.2-.2 3.6-.4 5.9-.4 2.8 0 4.5.3 6 1.1 1.4.8 2.4 2.1 2.4 4 0 1.8-1 3.5-3.3 4.3v.1c2.3.6 4 2.4 4 5 0 1.8-.8 3.3-2.1 4.3-1.5 1.2-3.9 1.8-7.9 1.8-2.2 0-3.9-.2-5-.3v-19.9zm4.5 7.8h1.5c2.4 0 3.7-1 3.7-2.5s-1.2-2.3-3.2-2.3c-1 0-1.6.1-1.9.1v4.7zm0 8.9c.4.1 1 .1 1.8.1 2.1 0 3.9-.8 3.9-2.9 0-2-1.8-2.8-4.1-2.8h-1.6v5.6zM-257.1 484.7c0 1.3-1 2.3-2.5 2.3-1.4 0-2.4-1-2.4-2.3 0-1.3.9-2.3 2.4-2.3s2.4 1 2.5 2.3zm-4.7 18.8v-14.7h4.6v14.7h-4.6zM-253.7 482.2h4.6v21.3h-4.6v-21.3zM-245.6 482.2h4.6v21.3h-4.6v-21.3zM-232.8 484.7c0 1.3-1 2.3-2.5 2.3-1.4 0-2.4-1-2.4-2.3 0-1.3.9-2.3 2.4-2.3 1.6 0 2.5 1 2.5 2.3zm-4.7 18.8v-14.7h4.6v14.7h-4.6zM-229.4 493.5c0-1.8-.1-3.4-.1-4.7h4l.2 2h.1c.6-.9 2.1-2.3 4.5-2.3 3 0 5.2 2 5.2 6.3v8.7h-4.6v-8.1c0-1.9-.7-3.2-2.3-3.2-1.3 0-2 .9-2.3 1.7-.1.3-.2.7-.2 1.1v8.5h-4.6v-10zM-197.9 488.8c-.1.9-.1 2.2-.1 4.3v8.2c0 2.8-.6 5.1-2.2 6.6-1.6 1.4-3.8 1.8-6 1.8-1.9 0-4-.4-5.3-1.1l.9-3.5c.9.5 2.6 1.1 4.3 1.1 2.2 0 3.8-1.2 3.8-3.9v-1h-.1c-.9 1.2-2.3 1.9-4 1.9-3.6 0-6.2-2.9-6.2-7.2 0-4.7 3.1-7.7 6.7-7.7 2 0 3.3.9 4 2.1h.1l.2-1.7h3.9zm-4.7 6c0-.3 0-.6-.1-.8-.3-1.2-1.2-2-2.5-2-1.6 0-3 1.5-3 4.2 0 2.2 1.1 3.9 3 3.9 1.2 0 2.1-.8 2.4-1.9.1-.3.1-.8.1-1.2v-2.2z"/><radialGradient id="SVGID_1_" cx="-306.271" cy="420.458" r="69.071" gradientUnits="userSpaceOnUse"><stop offset="0" stop-color="#0081d4"/><stop offset="1" stop-color="#0068aa"/></radialGradient><path class="st1" d="M-368.3 378.7h175.4l-87.5 86.2h-87.9z"/><g><path class="st2" d="M-350.8 401.9v43.7h-9.9v-43.7h9.9zM-341.8 435.4c2.7 1.4 6.7 2.7 10.9 2.7 4.5 0 6.9-1.9 6.9-4.7 0-2.7-2.1-4.3-7.3-6.2-7.3-2.5-12-6.5-12-12.9 0-7.4 6.2-13.1 16.5-13.1 4.9 0 8.5 1 11.1 2.2l-2.2 8c-1.7-.8-4.9-2.1-9.1-2.1-4.3 0-6.3 1.9-6.3 4.2 0 2.8 2.5 4 8.1 6.2 7.7 2.8 11.3 6.9 11.3 13 0 7.3-5.6 13.5-17.6 13.5-5 0-9.9-1.3-12.4-2.7l2.1-8.1z"/></g></svg>