<svg id="svg2" xmlns="http://www.w3.org/2000/svg" viewBox="-411 298 256 256"><style>.st0{fill:url(#SVGID_1_);stroke:#015491;stroke-width:2;stroke-miterlimit:10}.st1{fill:#fff}.st2{fill:#0068aa}</style><radialGradient id="SVGID_1_" cx="-308.671" cy="429.342" r="69.071" gradientTransform="matrix(1 0 0 -1 0 854)" gradientUnits="userSpaceOnUse"><stop offset="0" stop-color="#0081d4"/><stop offset="1" stop-color="#0068aa"/></radialGradient><path class="st0" d="M-370.7 382.9h175.4l-87.5 86.2h-87.9z"/><path id="path16" class="st1" d="M-362.6 408c8.4-.7 17.7-2.2 25.5 1.8 6.6 3.4 7.8 13.2 2.8 18.5-4.8 5.1-12.3 5.6-18.9 5.3v15.6h-9.4V408z"/><path id="path18" class="st1" d="M-322.5 407.5h11.5l9.5 27 9.9-26.9 11.6-.1 2.8 41.7h-8.9l-.6-29.3-11.9 28.7-5.9.1-11.1-29.7-1.6 30.2h-8.6l3.3-41.7z"/><path id="path20" class="st2" d="M-353.1 413.5c3.1 0 6.5-.5 9.3 1.1 4.1 2 4.2 8.3.8 10.9-2.9 2.3-10.2 1.9-10.2 1.9l.1-13.9z"/></svg>