<svg id="svg2" xmlns="http://www.w3.org/2000/svg" viewBox="-411 298 256 256"><style>.st0{fill:url(#SVGID_1_);stroke:#015491;stroke-width:2;stroke-miterlimit:10}.st1{fill:#fff}.st2{fill:#006fb6}</style><radialGradient id="SVGID_1_" cx="-306.271" cy="420.458" r="69.071" gradientUnits="userSpaceOnUse"><stop offset="0" stop-color="#0081d4"/><stop offset="1" stop-color="#0068aa"/></radialGradient><path class="st0" d="M-368.3 378.7h175.4l-87.5 86.2h-87.9z"/><path id="path10" class="st1" d="M-325.2 404c8.3-.8 17.1-2 25 1.2 5.3 2.3 8 9.3 4.9 14.3-1.3 2.7-3.6 4.7-6.4 5.6 1.7 1 3.2 2 4 3.9 2.7 5 3.2 10.8 5.4 16.1h-9.6c-2.1-4.6-2.3-9.8-4.6-14.4-1.9-3.2-6-2.7-9.1-2.6.1 5.7 0 11.3 0 17h-9.4V404z"/><path id="path12" class="st1" d="M-286.2 403.9c6.9-.8 13.9-1.5 20.7 0 3.3.7 6.6 2.3 8.6 5.2 3.5 4.8 2.6 12.2-2 16.1-4.9 4.2-11.7 4.7-17.9 4.3v15.7h-9.4v-41.3z"/><path id="path14" class="st2" d="M-315.8 409.3c3.6-.4 7.9-.8 10.8 1.8 2.4 2.5 2 7.1-.9 9.1-2.8 2.2-9.9 1.7-9.9 1.7v-12.6z"/><path id="path16" class="st2" d="M-276.7 409.4c3.1-.1 6.4-.6 9.3 1 4.1 1.9 4.3 8.4.7 11-2.8 2.2-10.1 1.8-10.1 1.8l.1-13.8z"/><path class="st1" d="M-333.8 410v-6.8H-360V445h26.2v-6.8h-17v-11.5h15.9v-6.8h-15.9V410z"/></svg>