<svg id="svg2" xmlns="http://www.w3.org/2000/svg" viewBox="-411 298 256 256"><style>.st0{fill:url(#SVGID_1_);stroke:#015491;stroke-width:2;stroke-miterlimit:10}.st1{fill:#fff}.st2{fill:#007bca}</style><radialGradient id="SVGID_1_" cx="-306.271" cy="420.458" r="69.071" gradientUnits="userSpaceOnUse"><stop offset="0" stop-color="#0081d4"/><stop offset="1" stop-color="#0068aa"/></radialGradient><path class="st0" d="M-368.3 378.7h175.4l-87.5 86.2h-87.9z"/><path id="path18" class="st1" d="M-360.2 403.3h9.4V420h16.6v-16.7h9.3l.2 41.6-9.5.1v-18h-16.6v18h-9.4v-41.7z"/><path id="path20" class="st1" d="M-315.2 404s16.2-1.4 24.1.4c3.6 2 7 5.2 7 9.6.5 5.1-3.6 8.7-7.6 11.1 5.2 3.5 6.1 10 7.8 15.5.4 1.5 1.4 4.4 1.4 4.4h-9.6c-1.4-3.8-2.3-7.7-3.4-11.5-.6-1.8-1.3-3.9-3.2-4.8-2.2-.9-4.7-.7-7.1-.9 0 5.7.2 17.1.2 17.1l-9.6.1v-41z"/><path id="path22" class="st2" d="M-305.8 409.1c3.2-.1 6.7-.5 9.7 1.1 3.3 1.9 3.7 7.1.8 9.6-2.7 2.7-6.9 2.2-10.5 2.2v-12.9z"/></svg>