<svg id="svg2" xmlns="http://www.w3.org/2000/svg" viewBox="-411 298 256 256"><style>.st0{fill:#0171b9}.st1{fill:url(#SVGID_1_);stroke:#015491;stroke-width:2;stroke-miterlimit:10}.st2{fill:#fff}</style><path class="st0" d="M-355.8 502.7c-.7.4-2.4.8-4.6.8-6.1 0-9.3-3.8-9.3-8.9 0-6 4.3-9.4 9.7-9.4 2.1 0 3.7.4 4.4.8l-.8 3.2c-.8-.3-1.9-.7-3.4-.7-3.2 0-5.7 1.9-5.7 5.9 0 3.6 2.1 5.8 5.7 5.8 1.2 0 2.6-.3 3.3-.6l.7 3.1zM-341.6 499c0 1.7.1 3.1.1 4.1h-3.5l-.2-1.8h-.1c-.5.8-1.7 2.1-4 2.1-2.6 0-4.5-1.6-4.5-5.6v-7.5h4v6.9c0 1.9.6 3 2 3 1.1 0 1.7-.8 2-1.4.1-.2.1-.6.1-.9v-7.7h4v8.8zM-338.4 499.7c.7.4 2.3 1 3.4 1 1.2 0 1.7-.4 1.7-1.1 0-.7-.4-1-1.9-1.5-2.7-.9-3.7-2.3-3.7-3.9 0-2.4 2.1-4.2 5.2-4.2 1.5 0 2.8.3 3.6.7l-.7 2.8c-.6-.3-1.7-.7-2.8-.7-1 0-1.5.4-1.5 1.1 0 .6.5.9 2.1 1.5 2.4.8 3.5 2.1 3.5 4 0 2.4-1.9 4.2-5.6 4.2-1.7 0-3.2-.4-4.2-.9l.9-3zM-322.4 486.6v3.7h2.9v2.9h-2.9v4.7c0 1.6.4 2.3 1.6 2.3.5 0 .9-.1 1.2-.1v3c-.5.2-1.5.3-2.6.3-1.3 0-2.4-.4-3-1.1-.7-.8-1.1-2-1.1-3.8v-5.3h-1.7v-2.9h1.7v-2.8l3.9-.9zM-304.6 496.6c0 4.7-3.3 6.9-6.8 6.9-3.8 0-6.7-2.5-6.7-6.6s2.7-6.8 6.9-6.8c4-.1 6.6 2.6 6.6 6.5zm-9.3.1c0 2.2.9 3.9 2.6 3.9 1.6 0 2.6-1.6 2.6-3.9 0-1.9-.7-3.9-2.6-3.9-1.9.1-2.6 2-2.6 3.9zM-302.1 494.4c0-1.6-.1-3-.1-4.1h3.4l.2 1.7h.1c.6-.8 1.7-2 3.9-2 1.7 0 3 .8 3.5 2.2h.1c.5-.7 1.1-1.2 1.7-1.6.7-.4 1.5-.6 2.4-.6 2.5 0 4.3 1.7 4.3 5.6v7.6h-3.9v-7c0-1.9-.6-2.9-1.9-2.9-.9 0-1.6.6-1.8 1.4-.1.3-.2.7-.2 1v7.5h-3.9V496c0-1.6-.6-2.7-1.8-2.7-1 0-1.6.8-1.9 1.4-.1.3-.2.7-.2 1v7.5h-3.9v-8.8zM-276.3 498c.1 1.7 1.8 2.4 3.6 2.4 1.4 0 2.5-.2 3.6-.5l.5 2.7c-1.3.5-2.9.8-4.7.8-4.4 0-6.9-2.5-6.9-6.5 0-3.3 2-6.9 6.5-6.9 4.2 0 5.7 3.2 5.7 6.4 0 .7-.1 1.3-.1 1.6h-8.2zm4.7-2.7c0-1-.4-2.6-2.3-2.6-1.7 0-2.4 1.5-2.5 2.6h4.8zM-265.5 494.5c0-1.9-.1-3.1-.1-4.2h3.4l.1 2.4h.1c.7-1.9 2.2-2.7 3.5-2.7.4 0 .6 0 .8.1v3.8c-.3-.1-.6-.1-1.1-.1-1.5 0-2.5.8-2.7 2-.1.3-.1.6-.1.9v6.5h-4v-8.7zM-249.9 485.7c1.5-.2 3.4-.4 5.4-.4 3.4 0 5.6.6 7.3 1.9 1.8 1.4 3 3.6 3 6.7 0 3.4-1.2 5.7-2.9 7.2-1.9 1.6-4.7 2.3-8.2 2.3-2.1 0-3.6-.1-4.6-.3v-17.4zm4 14.4c.3.1.9.1 1.4.1 3.6 0 6-2 6-6.2 0-3.7-2.1-5.6-5.6-5.6-.9 0-1.5.1-1.8.2v11.5zM-224.4 503.2l-.2-1.3h-.1c-.8 1-2.2 1.6-3.7 1.6-2.6 0-4.2-1.9-4.2-3.9 0-3.3 3-4.9 7.5-4.9v-.2c0-.7-.4-1.7-2.3-1.7-1.3 0-2.7.4-3.6 1l-.7-2.6c.9-.5 2.7-1.1 5-1.1 4.3 0 5.7 2.5 5.7 5.6v4.5c0 1.2.1 2.4.2 3.1h-3.6zm-.4-6.1c-2.1 0-3.7.5-3.7 2 0 1 .7 1.5 1.6 1.5 1 0 1.8-.7 2.1-1.5.1-.2.1-.4.1-.7v-1.3zM-213.5 486.6v3.7h2.9v2.9h-2.9v4.7c0 1.6.4 2.3 1.6 2.3.5 0 .9-.1 1.2-.1v3c-.5.2-1.5.3-2.6.3-1.3 0-2.4-.4-3-1.1-.7-.8-1.1-2-1.1-3.8v-5.3h-1.7v-2.9h1.7v-2.8l3.9-.9zM-200.9 503.2l-.2-1.3h-.1c-.8 1-2.2 1.6-3.7 1.6-2.6 0-4.2-1.9-4.2-3.9 0-3.3 3-4.9 7.5-4.9v-.2c0-.7-.4-1.7-2.3-1.7-1.3 0-2.7.4-3.6 1l-.7-2.6c.9-.5 2.7-1.1 5-1.1 4.3 0 5.7 2.5 5.7 5.6v4.5c0 1.2.1 2.4.2 3.1h-3.6zm-.5-6.1c-2.1 0-3.7.5-3.7 2 0 1 .7 1.5 1.6 1.5 1 0 1.8-.7 2.1-1.5.1-.2.1-.4.1-.7v-1.3z"/><radialGradient id="SVGID_1_" cx="-306.271" cy="420.458" r="69.071" gradientUnits="userSpaceOnUse"><stop offset="0" stop-color="#0081d4"/><stop offset="1" stop-color="#0068aa"/></radialGradient><path class="st1" d="M-368.3 378.7h175.4l-87.5 86.2h-87.9z"/><g><path class="st2" d="M-334.9 438.6c-1.4.7-4.6 1.5-8.7 1.5-11.7 0-17.7-7.2-17.7-16.9 0-11.5 8.2-17.9 18.4-17.9 4 0 7 .8 8.3 1.5l-1.5 6.1c-1.6-.6-3.7-1.2-6.4-1.2-6.1 0-10.8 3.7-10.8 11.2 0 6.8 4 11 10.8 11 2.3 0 4.9-.5 6.4-1.1l1.2 5.8zM-329.8 406.3c2.5-.4 6.1-.7 10.2-.7 5 0 8.5.8 10.9 2.7 2 1.6 3.1 4 3.1 7.1 0 4.3-3.1 7.3-6 8.3v.2c2.4.9 3.6 3.2 4.5 6.3 1.1 3.8 2.1 8.2 2.8 9.5h-7.8c-.5-1-1.4-3.7-2.4-7.9-.9-4.2-2.4-5.4-5.5-5.4h-2.3v13.3h-7.6v-33.4zm7.5 14.5h3c3.8 0 6.1-1.9 6.1-4.9 0-3.1-2.1-4.7-5.6-4.7-1.9 0-2.9.1-3.5.2v9.4zM-271.6 426.7c-.2-4.1-.3-9-.3-13.9h-.1c-1 4.3-2.5 9.1-3.8 13.1l-4.1 13.2h-6l-3.6-13.1c-1.1-4-2.2-8.8-3-13.2h-.1c-.2 4.6-.4 9.8-.6 14l-.6 12.8h-7.1l2.1-33.7h10.2l3.3 11.3c1.1 3.9 2.1 8.1 2.9 12.1h.1c.9-3.9 2.1-8.4 3.2-12.1l3.6-11.2h10l1.9 33.7h-7.5l-.5-13z"/></g></svg>