<svg xmlns="http://www.w3.org/2000/svg" width="256" height="256" viewBox="0 0 256 256"><radialGradient id="a" cx="104.729" cy="122.458" r="69.071" gradientUnits="userSpaceOnUse"><stop offset="0" stop-color="#0081d4"/><stop offset="1" stop-color="#0068aa"/></radialGradient><path fill="url(#a)" stroke="#015491" stroke-width="2" stroke-miterlimit="10" d="M42.729 80.708h175.334l-87.5 86.167H42.729z"/><path fill="#FFF" stroke="#015491" stroke-miterlimit="10" d="M153.667 99.167H128.75v43.417L112.667 99.5h-14L85.75 132.583s.292-5.792-6.833-9.667c-7.749-4.214-19.613-4.285-19.446-9.368.123-3.756 4.363-4.299 7.696-4.299 2.751 0 8.5 1 12.417 4.083l6.833-9.5s-5.042-5.458-18.792-5.458-21.875 6.5-21.875 15.75c0 18.792 26.833 15.125 26.833 23.875 0 4.726-5.835 4.625-7.771 4.625-2.896 0-13.063-4.208-14.146-5.458l-6.583 9.333s10.042 7.583 20.667 7.583c9.347 0 13.75-4 15-5.583l-1.417 3.917 14.583.167 3.583-8.917s3.204 2.605 8.119 2.751c4.881.145 7.698-2.463 7.943-2.667l4.354 8.75h24.75v-17.333s13.667.167 14.417.25c.75.083 13.333-2.75 13.583-18.167.252-15.417-12.415-18.083-15.998-18.083zM104.563 135.5c-3.667.167-6.396-2.75-6.396-2.75l6.333-16.583 6.881 16.967c-.833.666-3.152 2.199-6.818 2.366zm45.604-9.833H141.5v-15.5h7.5c2.958 0 7.5.833 7.5 7.75 0 6.916-6.333 7.75-6.333 7.75z"/></svg>