<svg xmlns="http://www.w3.org/2000/svg" id="svg3071" viewBox="0 0 596.38398 595.68828" width="596.384" height="595.688"><style id="style3">.st0{fill:gray}</style><g id="layer1" transform="translate(-289.645 -457.71)"><path id="path3058-6" class="st0" d="M645.9 457.8c129.5-3.8 246 114.5 239.9 244.1-.4 116.1-95 222.9-211.3 233.5-55.9 6.5-114.3-6.4-161.1-38-50.4 49.4-98.9 101-150.6 149-35.6 23.9-87.8-17.9-69.3-57.7 19.7-32.6 52-55.6 77.5-83.8 25-25 49.9-50 74.9-74.9-73.4-105.1-40.7-265.7 68.4-333.1 38.9-25.4 85.2-39.3 131.6-39.1zm.2 63.2c-103.6-3.2-193.3 100.4-174.8 202.6 12.9 97.5 116.7 171.2 212.8 146.2 91.8-18.3 157.1-117.4 134.4-208.9-15.3-80-91.3-141.1-172.4-139.9z" fill="gray"/></g></svg>