<svg xmlns="http://www.w3.org/2000/svg" width="256pt" height="256pt" viewBox="0 0 256 256"><path fill="#015491" d="M111.64 44.73c11.34-6.19 25.33-6.03 37.23-1.54 8.59 3.25 15.69 9.95 19.67 18.2 5.81 11.85 6.72 25.55 5.24 38.5l10.53 2.34c-.45 2.07-.91 4.15-1.38 6.22-5.3-1.17-10.6-2.35-15.9-3.53 15.61 26.78 31.04 53.67 46.56 80.51 6.26 10.87-2.85 27.04-15.61 26.57-47.04-.02-94.08.05-141.12-.04-6.88-1.05-13.98-5.71-15.5-12.88-.81-5.69-.24-11.91 2.79-16.92 19.52-33.22 38.73-66.63 58.16-99.91-7.21-.51-14.44.23-21.63-.21.7-3.3 1.46-6.58 2.18-9.86 1.84.44 3.67.88 5.51 1.33 4.24-11.79 12.14-22.67 23.27-28.78z"/><path fill="#0068aa" d="M105.5 51.44c7.14-5.92 16.32-10.04 25.74-9.33-10.15 4.33-17.05 14.78-16.97 25.81.37 5.07 1.22 11.01 5.8 14.07-12.22-1.81-24.56-2.06-36.89-1.95.32-1.6.69-3.2 1.06-4.8 1.83-.16 3.67-.34 5.5-.5 3.84-8.59 8.4-17.2 15.76-23.3z"/><path fill="#006fb6" d="M131.24 42.11c8.86-.2 17.96 2.21 25.14 7.51 8.1 6.01 12.66 15.71 14.53 25.42 1.81 8.48.03 17.3 1.12 25.77 2.75 2.55 7.31 1.65 10.26 4.11-1.94 1.2-4.14.21-6.16-.16-3.48-.88-7.38-1.17-10.06-3.86-12.6-11.43-29.68-15.89-46-18.91-4.58-3.06-5.43-9-5.8-14.07-.08-11.03 6.82-21.48 16.97-25.81z"/><path fill="#fff" d="M132.34 48.27c2.4-2.21 5.84-.78 8.72-.69 5.65.84 12.16 1.65 16.06 6.33 5.12 5.64 9.69 12.29 10.79 20 .55 4.93.37 10.03-1.16 14.78-.29-.26-.85-.77-1.14-1.02-.84-6.24-.39-12.68-2.2-18.79-1.06-4.43-2.99-9-7-11.51-3.57-2.51-7.06-5.47-11.41-6.44-3.97-.83-8.05-.59-12.07-.77-.15-.47-.44-1.42-.59-1.89z"/><path fill="#007ac8" d="M132.93 50.16c4.02.18 8.1-.06 12.07.77 4.35.97 7.84 3.93 11.41 6.44 1.08 5.42 3.02 11.25.67 16.63-2.57 5.43-7.91 9.96-14.14 10.12-7.43 1.11-14.56-4.05-17.29-10.75-1.34-4.22-1.24-8.99.54-13.06 1.88-4.04 5.69-6.58 9.39-8.79-.88-.46-1.76-.91-2.65-1.36z"/><path fill="#006eb4" d="M103.13 85c1.74-3.95 6.69-1.79 9.95-1.71-1.55 3.54-3.64 6.8-5.54 10.15-11.62 20.36-23.42 40.62-35.32 60.81-1.6 2.77-3.15 5.59-5.14 8.1-.6-4.19-1.27-8.38-1.36-12.63 12.03-21.81 24.93-43.16 37.41-64.72z"/><path fill="#fff" d="M60.06 179.02c18.76-31.76 37.07-63.78 55.72-95.6 9.52 1.31 19.04 3.21 27.98 6.79 1.2.42 1.58 1.78 2.27 2.72 16.53 28.87 32.96 57.79 49.32 86.75 2.39 4.62 4.01 10.36 1.71 15.33-1.52 3.45-5.46 5.12-9.07 4.99-38.67-.01-77.34.11-116.02.07-4.06-.07-8.57.55-12.1-1.93-3.57-2.43-4.27-7.23-3.67-11.21.37-3 2.41-5.37 3.86-7.91z"/><path fill="#0071b9" d="M148.65 92.59c6.1 2.53 12.78 5.77 15.86 11.97 9.71 16.7 19.41 33.41 28.94 50.22-.82 3.9-1.82 7.76-2.99 11.57-13.33-22.17-25.74-44.9-38.64-67.33-1.22-2.06-2.3-4.2-3.17-6.43z"/><path fill="#015491" d="M99.26 132.61c5.82-3.79 11.19-10.77 18.9-9.39 7.86 1.76 11.08 9.97 16.57 14.92-1.18 1.67-2.72 3.02-4.31 4.29.51-1.48 2.19-3.22.93-4.69-2.29-3.34-4.88-6.51-7.77-9.35-2.81-2.75-7.19-4.54-10.97-2.71-4.57 2.2-8.4 5.63-12.2 8.94-.97-.78-1.93-1.57-2.88-2.36-.64-.03-1.91-.1-2.55-.13.78-.63 1.56-1.25 2.33-1.89l1.95 2.37z"/><path fill="#0072bb" d="M112.61 125.68c3.78-1.83 8.16-.04 10.97 2.71 2.89 2.84 5.48 6.01 7.77 9.35 1.26 1.47-.42 3.21-.93 4.69-.3.25-.6.5-.91.74-1.78.72-3.58 1.36-5.36 2.05-2.32-2.44-4.16-5.33-6.65-7.6-4.51-2.14-7.6 3.15-11.53 4.46 1.18.92 2.34 1.86 3.53 2.77l.92.73c-2.32 2.25-4.88 4.23-7.37 6.29-4.42-5.14-8.72-10.38-13.11-15.54 1.66-1.43 3.35-2.82 5.04-4.2.64.03 1.91.1 2.55.13.95.79 1.91 1.58 2.88 2.36 3.8-3.31 7.63-6.74 12.2-8.94z"/><path fill="#0083d6" d="M136.42 136.02c2.06 2.5 4.11 5.01 6.13 7.55-.75.59-1.56 1.08-2.42 1.48-2.15.77-3.9 2.24-5.59 3.72-.29.22-.57.46-.84.7-2.15 1.81-4.39 3.5-6.61 5.22-1.34-1.02-2.74-1.95-4.05-3.01-1.49-.94-3.21-3.57-.29-3.8 2.66-.9 4.58-3.05 6.76-4.71.31-.24.61-.49.91-.74 1.59-1.27 3.13-2.62 4.31-4.29.42-.53 1.27-1.59 1.69-2.12z"/><path fill="#015491" d="M105.97 142.08c3.93-1.31 7.02-6.6 11.53-4.46 2.49 2.27 4.33 5.16 6.65 7.6 1.78-.69 3.58-1.33 5.36-2.05-2.18 1.66-4.1 3.81-6.76 4.71-.9-3.64-4.42-6.11-6.71-8.98-3.09-.23-4.95 3.15-7.4 4.6.21.34.64 1.02.86 1.35-1.19-.91-2.35-1.85-3.53-2.77zM134.54 148.77c1.69-1.48 3.44-2.95 5.59-3.72 4.15 5.02 7.92 10.45 12.61 14.98-.54.78-1.08 1.57-1.61 2.37-3.59-5.4-7.76-10.39-12.09-15.21-1.49.55-3.03.97-4.5 1.58z"/><path fill="#0072bb" d="M134.54 148.77c1.47-.61 3.01-1.03 4.5-1.58 4.33 4.82 8.5 9.81 12.09 15.21-2.31 2.31-4.81 4.42-7.42 6.38-3.96-5.25-8.83-9.77-12.51-15.25.83-1.36 1.62-2.74 2.5-4.06.27-.24.55-.48.84-.7z"/><path fill="#0068aa" d="M59.32 160.3c2.1-3.55 3.79-7.36 6.4-10.58.09 4.25.76 8.44 1.36 12.63-2.2 5.81-6.31 10.91-9.28 16.44-3.45 4.58-5.02 10.78-2.81 16.26 1.45 4.12 5.72 6.52 9.91 6.84 12.47.71 25.02-.62 37.46.45-3.45.5-6.92.84-10.4 1.07 3.23 2.49 6.66 4.72 10.39 6.39-14.1.53-28.22 0-42.33.24-7.14.35-14.95-4.17-16.71-11.37-.8-5.32-.07-11.03 2.71-15.71 4.38-7.58 8.9-15.09 13.3-22.66z"/><path fill="#015491" d="M127.09 154.69c2.22-1.72 4.46-3.41 6.61-5.22-.88 1.32-1.67 2.7-2.5 4.06 3.68 5.48 8.55 10 12.51 15.25-.82.31-2.46.92-3.27 1.23.07-.39.21-1.17.28-1.57-3.82-4.69-7.69-9.34-11.57-13.98-.6.47-1.8 1.41-2.4 1.89-1.26-1.54-2.53-3.07-3.71-4.67 1.31 1.06 2.71 1.99 4.05 3.01z"/><path fill="#0068aa" d="M193.45 154.78c6.46 10.28 12.07 21.11 18.3 31.54 5.79 10.01-3.08 24.68-14.73 23.69-11.47-.14-22.94.3-34.39-.22 4.3-1.92 8.15-4.66 11.87-7.52 5.88-1.01 12 .6 17.84-.9 4.5-1.28 7.81-5.65 7.75-10.35.62-9.22-5.88-16.45-9.79-24.17l.16-.5c1.17-3.81 2.17-7.67 2.99-11.57z"/><path fill="#0083d6" d="M152.74 160.03l1.52-1.96c2.09 2.5 4.15 5.02 6.13 7.61-.58.33-1.73 1-2.31 1.34-1.58.77-3.17 1.53-4.65 2.46-1.91 1.27-3.53 2.89-5.23 4.41-1.39 1.23-2.84 2.38-4.2 3.65-2-2.13-3.84-4.41-5.48-6.82.48-.18 1.44-.53 1.92-.71.81-.31 2.45-.92 3.27-1.23 2.61-1.96 5.11-4.07 7.42-6.38.53-.8 1.07-1.59 1.61-2.37z"/><path fill="#0072bb" d="M169.56 168.05c2.12-1.79 4.25-3.56 6.39-5.33 4.37 5.18 8.75 10.36 13.08 15.58-2.61 1.98-4.82 4.51-7.73 6.04l-.85-1.76c-.39-.81-.79-1.6-1.17-2.4-2.75 2.65-5.39 5.49-8.66 7.49-4.17 2.52-9.89 1.34-13.14-2.15-3.41-3.6-6.4-7.59-9.28-11.63 1.7-1.52 3.32-3.14 5.23-4.41 5.53-1.68 6.81 5.22 10.69 7.4 3.16 1.11 5.43-2.11 7.77-3.66 1.46 1.35 2.94 2.69 4.43 4.01-2.24-3.07-4.64-6.02-6.76-9.18z"/><path fill="#015491" d="M153.43 169.48c1.48-.93 3.07-1.69 4.65-2.46 2.29 2.72 4.22 5.84 6.97 8.12 2.56.47 3.89-2.51 5.66-3.85-.52-.62-1.54-1.87-2.05-2.49.23-.19.67-.56.9-.75 2.12 3.16 4.52 6.11 6.76 9.18a280.88 280.88 0 0 1-4.43-4.01c-2.34 1.55-4.61 4.77-7.77 3.66-3.88-2.18-5.16-9.08-10.69-7.4z"/><path fill="#015491" d="M148.2 173.89c2.88 4.04 5.87 8.03 9.28 11.63 3.25 3.49 8.97 4.67 13.14 2.15 3.27-2 5.91-4.84 8.66-7.49.38.8.78 1.59 1.17 2.4-4.96 3.11-8.94 9.09-15.52 8.39-8.65-.38-12.44-9.12-17.68-14.62-1.09.78-2.21 1.49-3.37 2.14l.12-.95c1.36-1.27 2.81-2.42 4.2-3.65z"/><path fill="#006cb1" d="M102.36 202.34c5.19-.58 10.42-.24 15.62-.35 18.84.16 37.69-.32 56.52.28-3.72 2.86-7.57 5.6-11.87 7.52-20.08.32-40.2.31-60.28.01-3.73-1.67-7.16-3.9-10.39-6.39 3.48-.23 6.95-.57 10.4-1.07z"/></svg>