<svg xmlns="http://www.w3.org/2000/svg" width="256" height="256" viewBox="0 0 256 256"><linearGradient id="a" gradientUnits="userSpaceOnUse" x1="51.75" y1="128.332" x2="201.875" y2="128.332"><stop offset="0" stop-color="#0081d4"/><stop offset="1" stop-color="#0068aa"/></linearGradient><path fill="url(#a)" stroke="#015491" stroke-miterlimit="10" d="M52.083 89.917s24.583-18.667 26.333-19.5c1.75-.833 4.74-2.836 8.792-2.836 4.354 0 6.506 2.253 9.042 3.794 3.292 2 15.75 15.208 23.167 25.042l51.833 63.833s1.417 1.917 3.083 1.917c1.417 0 1.917-.417 3-1.583l9.917-9.396 14.625 18.313-18.792 16.417s-4.167 3.167-9.333 3.167c-4.438 0-12.458-4.875-14.708-7.042L87.333 96.167s-1.146-1.073-2.271-1.073-1.688.281-2.354.927c-.667.646-12.104 9.292-12.104 9.292L51.75 90l.333-.083z"/><linearGradient id="b" gradientUnits="userSpaceOnUse" x1="180.917" y1="158.167" x2="214.25" y2="158.167"><stop offset="0" stop-color="#009dd4"/><stop offset="1" stop-color="#0081d4"/></linearGradient><path fill="url(#b)" stroke="#015491" stroke-miterlimit="10" d="M180.917 149.5l11.583-9.167 21.75 25.75L202.833 176z"/><linearGradient id="c" gradientUnits="userSpaceOnUse" x1="127.25" y1="148.667" x2="163.417" y2="148.667"><stop offset="0" stop-color="#009dd4"/><stop offset="1" stop-color="#0081d4"/></linearGradient><path fill="url(#c)" stroke="#015491" stroke-miterlimit="10" d="M154 131.833l9.417 11.75-26.334 21.917-9.833-12z"/><linearGradient id="d" gradientUnits="userSpaceOnUse" x1="95.5" y1="109.656" x2="132.063" y2="109.656"><stop offset="0" stop-color="#009dd4"/><stop offset="1" stop-color="#0081d4"/></linearGradient><path fill="url(#d)" stroke="#015491" stroke-miterlimit="10" d="M95.5 114.125l26.375-21.375 10.188 11.688-26.75 22.125z"/><linearGradient id="e" gradientUnits="userSpaceOnUse" x1="40.417" y1="100.083" x2="75.083" y2="100.083"><stop offset="0" stop-color="#009dd4"/><stop offset="1" stop-color="#0081d4"/></linearGradient><path fill="url(#e)" stroke="#015491" stroke-miterlimit="10" d="M52.417 81.667l22.666 26.75L62.917 118.5l-22.5-26.583z"/><path fill="none" stroke="#015491" stroke-miterlimit="10" d="M46.12 98.655l11.63-10.694M56.967 110.42l11.63-10.694M102.203 108.692l9.771 12.36M115.49 97.924l10.263 11.732M147.152 137.38l9.798 11.585M134.615 147.535l9.849 11.822M186.545 156.305l11.413-9.51M197.327 169.342l11.923-9.985"/></svg>