<svg id="Layer_1" xmlns="http://www.w3.org/2000/svg" viewBox="-267 390.9 60 60"><style>.st0{fill:#fff}.st1{fill:#333}</style><path class="st0" d="M-267 390.9h60v60h-60v-60z"/><path class="st1" d="M-213.1 419.1h-23.2c-.6 0-1.2.7-1.2 1.5s.5 1.5 1.2 1.5h23.2c.6 0 1.2-.7 1.2-1.5-.1-.9-.6-1.5-1.2-1.5zm0 0M-260.9 422h7.4c.6 0 1.1-.7 1.1-1.5s-.5-1.5-1.1-1.5h-7.4c-.6 0-1.1.7-1.1 1.5 0 .9.5 1.5 1.1 1.5zm0 0M-250.6 427.8c0 3.3 2.7 5.9 5.9 5.9 3.3 0 5.9-2.7 5.9-5.9V414c0-3.3-2.7-5.9-5.9-5.9-3.3 0-5.9 2.7-5.9 5.9v13.8zm5.9-17.4"/></svg>