<svg xmlns="http://www.w3.org/2000/svg" width="2000" height="2000" viewBox="0 0 2000 2000"><path d="M1369.243 2002.174c-24.801-35.373-72.472-106.202-154.381-229.377l-81.212-122.128-109.338-.635c-60.135-.349-210.587-1.09-334.337-1.647-299.095-1.346-365.21-2.454-386.197-6.47-10.399-1.99-29.777-7.917-44.803-13.704-7.15-2.754-15.925-5.903-19.5-6.997-11.212-3.432-53.612-27.092-74.5-41.574-47.235-32.746-92.662-87.572-118.994-143.614-12.197-25.958-19.91-47.553-29.329-82.104l-5.997-22-.62-88.5c-1.016-145.072-.727-819.96.367-856.5.85-28.396 1.354-35.023 3.606-47.5 23.27-128.898 105.74-233.2 223.967-283.256 22.717-9.619 40.758-15.65 62.006-20.728 22.462-5.37 28.47-6.007 66.186-7.02 102.978-2.77 1162.48-3.615 1268.025-1.013 42.55 1.049 54.253 1.97 71.783 5.654 49.902 10.485 96.68 30.138 137.485 57.764 76.276 51.64 130.373 129.687 153.465 221.403 7.461 29.636 8.579 38.438 9.612 75.696 1.052 37.947 1.34 720.367.363 857l-.623 87-5.939 22c-15.748 58.34-34.989 100.795-64.296 141.87-21.818 30.579-53.532 61.916-85.85 84.83-59.644 42.289-124.576 64.045-207.01 69.361l-9.793.632-96.32 144.653c-114.038 171.263-151.317 226.154-153.592 226.154-.405 0-6.81-8.663-14.234-19.25zm-360.768-790.25v-63.5h-627v127h627v-63.5zm626.697-243.25c-.56-57.505-1.025-64.618-4.418-67.433-1.307-1.085-98.329-1.363-551.183-1.575-548.758-.258-691.967.225-694.081 2.342-2.455 2.456-3.115 14.585-3.685 67.666l-.598 55.75h1254.517l-.552-56.75zm-.265-227.5c-.264-18.838-.745-46.907-1.067-62.377l-.587-28.126-291.14-.736c-320.179-.81-952.896-.184-956.27.946-1.681.563-2.26 1.802-2.745 5.878-.338 2.84-.91 30.702-1.27 61.915l-.655 56.75h1254.215l-.481-34.25zm0-250c-.264-18.838-.745-46.907-1.067-62.377l-.587-28.126-291.14-.736c-320.179-.81-952.896-.184-956.27.946-1.681.563-2.26 1.802-2.745 5.878-.338 2.84-.91 30.702-1.27 61.915l-.655 56.75h1254.215l-.481-34.25z"/></svg>