<svg id="Layer_1" xmlns="http://www.w3.org/2000/svg" viewBox="-411 298 256 256"><style>.st0,.st1,.st2,.st3{fill:url(#SVGID_1_);stroke:#015491;stroke-width:2;stroke-miterlimit:10}.st1,.st2,.st3{fill:#fff}.st2,.st3{fill:url(#SVGID_2_)}.st3{fill:url(#SVGID_3_)}.st4{fill:url(#SVGID_4_)}</style><radialGradient id="SVGID_1_" cx="-285" cy="426" r="87.833" gradientUnits="userSpaceOnUse"><stop offset=".808" stop-color="#0068aa"/><stop offset="1" stop-color="#0081d4"/></radialGradient><circle class="st0" cx="-282.5" cy="426.5" r="87.8"/><circle class="st1" cx="-281.7" cy="426" r="69"/><radialGradient id="SVGID_2_" cx="-281.667" cy="456.25" r="51.625" gradientUnits="userSpaceOnUse"><stop offset="0" stop-color="#0081d4"/><stop offset="1" stop-color="#0068aa"/></radialGradient><path class="st2" d="M-346.8 425s3.3 64.2 65.3 64.2 65-63.7 65-63.7-5.5 7.8-18.3 7.8-22.2-7.2-23.8-10c0 0-11.5 10.5-23 10.5s-21.8-9.5-22.2-10.5c0 0-13.3 13-23.7 11s-19.3-11-19.3-11v1.7z"/><radialGradient id="SVGID_3_" cx="-282.001" cy="394.042" r="24.01" gradientUnits="userSpaceOnUse"><stop offset="0" stop-color="#0081d4"/><stop offset="1" stop-color="#0068aa"/></radialGradient><path class="st3" d="M-300 404.2c-.1 3.4 1.1 18.6 17.5 18.6s18.5-12.2 18.5-17.9c0-5.7-13.7-27.8-15.2-31.2-1.6-3.4-2.4-6.2-2.5-8.4 0 0-.6 5.5-2.3 8.3-1.5 2.4-15.8 20.9-16 30.6z"/><linearGradient id="SVGID_4_" gradientUnits="userSpaceOnUse" x1="-289.764" y1="420.159" x2="-289.764" y2="383.63"><stop offset="0" stop-color="#00a2d4"/><stop offset=".488" stop-color="#fff"/><stop offset="1" stop-color="#00a2d4"/></linearGradient><path class="st4" d="M-296.5 405.4s.8-12.5 9.2-21.6c0 0 2.4-1.6-2.9 5.3-1.2 1.5-4 8.8-4.1 15.7s3.4 12.4 8.9 14.1c4.7 1.4 1.5 1.7-1 .8s-9.8-5.7-10.1-14.3z"/></svg>