<svg xmlns="http://www.w3.org/2000/svg" width="256" height="256" viewBox="0 0 256 256" version="1"><path fill="#006aad" d="M84 28c1-6 7-11 13-10 4 0 7 3 9 6h12c2-3 5-6 9-6s7 3 10 6h10c3-3 6-6 10-6 7-1 13 5 13 12s-7 13-14 12c-3-1-6-3-8-6h-12v10h-18V36h-12c-3 4-7 6-12 5-6 0-11-7-10-13z"/><path fill="#004272" d="M115 51c15-3 29-1 43 4 19 8 34 24 42 42 7 17 8 35 3 52-6 20-21 38-40 47-11 6-23 9-36 8-22 0-43-10-57-27-12-13-18-30-19-47-1-18 5-36 16-50 12-15 29-26 48-29z"/><path fill="#006aad" d="M127 52c17-1 33 5 47 14 11 9 20 21 25 35 7 17 7 38-1 55-7 17-21 32-38 39-18 9-40 10-59 2-13-5-25-14-33-26-9-11-13-24-15-38-1-18 4-37 15-52 14-18 37-29 59-29z"/><path fill="#004272" d="M118 62c14-2 28 0 40 6 15 8 27 20 33 35 7 19 5 41-5 58-9 13-23 24-38 28-13 3-27 3-40-1-16-5-31-17-38-32-7-14-9-31-4-46 6-25 28-44 52-48z"/><path fill="#d2d2d2" d="M120 65c10-1 20-1 29 2 20 7 37 24 42 45 3 14 2 29-4 42s-17 24-31 29c-12 6-26 7-40 5-19-4-37-16-45-34-6-12-7-26-4-40s11-28 23-37c9-7 20-11 30-12z"/><path fill="#fff" d="M77 106c35-1 69-1 104 0v36c0 3 0 6-1 8v-1-42h-3c0 3 0 7-3 10-2 2-6 3-9 1-2-1-3-4-3-6 3-1 6 2 9 4 0-3 1-5 1-7-2 0-5 2-8 0-2-2-5-2-8-2v43h-2v-1-42h-3c-2 3-5 6-9 6s-7-3-9-6h-3v43h-2v-1-42h-24v43c-1 0-2-1-2-1-1-14 0-28 0-42H78v43c-1-2-1-5-1-7v-37z"/><path fill="#004272" d="M78 107h24c0 14-1 28 0 42H78v-42zM104 107h24v42h-24v-42zM130 107h3c2 3 5 6 9 6s7-3 9-6h3v42h-24v-42z"/><path fill="#004272" d="M139 107h6c0 1-1 2-1 2h-4s-1-1-1-2zM156 107c3 0 6 0 8 2 3 2 6 0 8 0 0 2-1 4-1 7-3-2-6-5-9-4 0 2 1 5 3 6 3 2 7 1 9-1 3-3 3-7 3-10h3v42h-3c0-5 0-10-3-14-3-3-7-3-10 0-3 4-3 9-3 14h-5v-42z"/><path fill="#fff" d="M87 119c3-1 7 0 9 2 3 6 3 13 0 19-1 4-6 5-9 3-4-1-4-4-5-7 0-5 0-10 2-14 0-2 2-2 3-3zM108 127c0-5 4-9 9-8 6 0 8 8 5 12-3 3-6 5-8 8h9v5h-16c1-4 3-8 6-10 2-3 6-6 5-10-1-1-3-1-4-1 0 1-1 3-1 4h-5zM134 122h16v5c-5 5-8 13-8 20h-5c0-7 4-14 7-20h-10v-5z"/><path fill="#004272" d="M87 125c1-1 2-1 3-2 1 1 2 1 3 2v13c-1 1-2 1-3 2-1-1-2-1-3-2v-13z"/><path fill="#fff" d="M164 135c3-3 7-3 10 0 3 4 3 9 3 14v1h-5v-1c0-4 1-10-3-13-4 3-3 9-3 13v1h-5v-1c0-5 0-10 3-14z"/><path fill="#004272" d="M166 149c0-4-1-10 3-13 4 3 3 9 3 13h-6z"/><path fill="#006aad" d="M190 203c3-9 10-16 13-25 2 9 8 17 12 25 3 9-5 18-14 17-8 0-13-10-11-17z"/><path fill="#fff" d="M192 210c-2-5 1-11 4-15-1 5-3 9-3 14 1 4 4 6 7 8-3-1-7-3-8-7z"/></svg>