<svg id="svg2" xmlns="http://www.w3.org/2000/svg" viewBox="-411 298 256 256"><style>.st0{fill:url(#SVGID_1_)}.st1{fill:none;stroke:#015491;stroke-width:2;stroke-miterlimit:10}.st2{fill:#fff}.st3{fill:#015491}.st4{fill:#195191}</style><radialGradient id="SVGID_1_" cx="-294.2" cy="427.95" r="62.377" gradientTransform="matrix(1 0 0 -1 0 854)" gradientUnits="userSpaceOnUse"><stop offset="0" stop-color="#0081d4"/><stop offset="1" stop-color="#0068aa"/></radialGradient><path class="st0" d="M-285.9 390.3c0-1.8-.3-46.6-.3-46.6 0-2.7-2.3-5-5-5h-61.7c-2.8 0-5 2.2-5 5v164.7c0 2.8 2.2 5 5 5h117.3c2.8 0 5-2.2 5-5V403.1c0-2.8-2.2-5-5-5h-41.6c-6.5 0-8.7-6-8.7-7.8z"/><path class="st1" d="M-282.9 390.3c0-1.8 1.7-46.6 1.7-46.6 0-2.7-5.3-5-8-5h-63.7c-2.8 0-5 2.2-5 5v164.7c0 2.8 2.2 5 5 5h117.3c2.8 0 5-2.2 5-5V397.1c0-2.8-2.2-5-5-5h-38.6c-6.5 0-8.7 0-8.7-1.8z"/><path class="st2" d="M-324.9 363.5h53.5v8h-53.5zM-341.2 384.2h83.7v4.5h-83.7zM-341.2 397.7h83.7v4.6h-83.7zM-341.2 411.7h83.7v4.5h-83.7zM-341.2 425.8h83.7v4.5h-83.7z"/><path class="st3" d="M-231.1 393.8l-50.9-53.9-6.1-1.3s.3 50.6.3 52.5c0 1.8 3.4 8.9 9.9 8.9h47.4l-.6-6.2z"/><path class="st2" d="M-286.1 492.9c.5.5 1 .7 1.5.7 1.4 0 2.9-1.2 4-2.1l5.4-4.2c.7-.2 1.4-.4 2-.7.3.1.5.3.8.5l1.5 1 2.2-3.4-1.5-1c0-.1-.1-.1-.1-.1.6-1.6.4-3.5-.7-5.3-1.5-2.6-5-5.2-8.5-4.9-2.6.2-3.8 1.5-4.3 2.6-1.1 2.4.4 5.6 1.5 7.3-.1.1-.1.2-.2.3-.5 0-1-.1-1.6-.2-6-.7-7.1-2-7.4-2.4-.3-.6.3-1.8.7-2.9.7-1.5 1.6-3.5.5-5.3-1.1-1.8-3.5-2.3-5.5-2.4-4.1-.3-5.9 1.3-6.8 2.7-3.1 5.3 3.6 15.8 5 17.9l3.3-2.2c-2.8-4.2-6.2-11.3-4.9-13.7.4-.8 1.9-.8 3-.7 1.6.1 2.2.4 2.3.3 0 .4-.4 1.2-.6 1.7-.8 1.8-1.9 4.2-.6 6.5 1.2 2.3 4.3 3.6 9.8 4.4-2.3 4.1-1.6 4.8-.8 5.6z"/><path class="st4" d="M-280 477.5s.2-.2.9-.2h.2c1.5 0 3.5 1.4 4.5 3 .1.3.4.7.4 1.2l-.3-.2-2.6 2.1c-.2 0-.3 0-.5.1l.1-.2-.9-1.2c-1.3-1.8-2.1-4.1-1.8-4.6z"/><path class="st2" d="M-278.6 499.7l-3.3-2.3c.3-.4 6.4-8.8 16.9-7.9l-.4 4c-8.2-.7-13.1 6.2-13.2 6.2zM-262.8 493.9l.5-4.1 4 .5-.5 4z"/><path transform="rotate(-44.879 -213.338 409.933)" class="st4" d="M-218.8 398.2h11v23.5h-11z"/><path class="st4" d="M-227.3 407.3l16.6 16.6-37.8 37.8-16.6-16.6zM-253.1 466.4l-21.3 4.7 4.6-21.3 1.8-1.8 16.7 16.6z"/></svg>