<svg id="svg2" xmlns="http://www.w3.org/2000/svg" viewBox="-411 298 256 256"><style>.st0{fill:#0070b9}.st1{fill:#fff}</style><circle class="st0" cx="-254.3" cy="472.4" r="41"/><path id="path6" class="st0" d="M-308.5 341.7c4.2-4.1 11.6-4 15.7.2 3.2 2.9 3.3 7.4 3.8 11.4 9.4 2.3 20.7 5.9 23.9 16.3h-71.6c1.3-2.8 2.7-5.8 5.1-7.9 5.3-4.6 12.2-6.5 18.8-8.4.8-4 1-8.7 4.3-11.6z"/><path id="path8" class="st1" d="M-303 346c2.8-1.6 6.9.4 6.8 3.8.5 3.9-4.9 5.9-7.6 3.4-2.5-1.7-1.9-6 .8-7.2z"/><path id="path10" class="st0" d="M-351.2 364.8c3.1-2.5 11-1.5 11-1.5l.4 10 78.1.1.4-10.1s7.8-.6 11.4.6c3 1.2 2.4 5.1 2.6 7.7l-.1 55c-6.3-.3-12.8-.5-18.9 1.2-12.8 3.3-23.9 12.4-29.7 24.3-6.1 12-6.3 26.7-.9 39 2.6 6.4 7.2 11.5 11.8 16.6l-58.4.1c-2.3-.1-4.9.2-7-1.1-2-1.2-1.9-3.9-2-5.9 0-42.4-.1-127.1-.1-127.1.3-3-.4-6.3 1.4-8.9z"/><path id="path12" class="st1" d="M-323 414.7l18.5-16.9 5.2 5.4-23.3 22.6-14.5-13.5 5.5-5.7 8.6 8.1z"/><path id="path16" class="st1" d="M-305 437.5l5.8 5.8-23.5 23.1-14.4-14 5.5-5.7 8.5 8 18.1-17.2z"/><path id="path18" class="st1" d="M-255.2 441.1c1.3-.1 2.8.7 3.2 2 .8 13.2 2.7 25.5 2.7 25.5s6.9 8.3 13.6 16.2c.1 2.1-1.6 3.9-3.6 4.2l-14.4-11c-2-1-4.4-1.5-6-3.2-1.3-1.9-.3-4.3.1-6.4l1.5-24.7c0-1.5 1.3-2.5 2.9-2.6z"/></svg>