<svg id="svg2" xmlns="http://www.w3.org/2000/svg" viewBox="-411 298 256 256"><style>.st0{fill:url(#SVGID_1_);stroke:#015491;stroke-width:2;stroke-miterlimit:10}.st1{fill:#006baf}.st2{fill:url(#SVGID_2_);stroke:#015491;stroke-width:2;stroke-miterlimit:10}.st3{fill:#fff}</style><linearGradient id="SVGID_1_" gradientUnits="userSpaceOnUse" x1="-364.069" y1="357.102" x2="-208.739" y2="357.102"><stop offset="0" stop-color="#0081d4"/><stop offset="1" stop-color="#0068aa"/></linearGradient><path class="st0" d="M-364.1 339.7h155.3v34.9h-155.3z"/><path class="st1" d="M-248 423.7l-14.9 4.1v-19.7h14.9zM-334.6 430.3h17.8v43.4h-17.8z"/><path class="st1" d="M-208.6 386.2h-155.5v108.7H-352.7l69 .1-4.7-11.8h-.1v-.1h-33.7l-30-.1V397.7H-221v30.1l12.2 9.5v-9.5h.1v-30.6h.1z"/><path class="st1" d="M-284.8 448.7l-15.8.1v25.8h10.4c-.1-8.9 1.8-17.8 5.4-25.9z"/><linearGradient id="SVGID_2_" gradientUnits="userSpaceOnUse" x1="-283.958" y1="471.305" x2="-201.881" y2="471.305"><stop offset="0" stop-color="#0081d4"/><stop offset="1" stop-color="#0068aa"/></linearGradient><circle class="st2" cx="-242.9" cy="471.3" r="41"/><path id="path18_1_" class="st3" d="M-243.8 440.4c1.3-.1 2.8.7 3.2 2 .8 13.2 2.7 25.5 2.7 25.5s6.9 8.3 13.6 16.2c.1 2.1-1.6 3.9-3.6 4.2l-14.4-11c-2-1-4.4-1.5-6-3.2-1.3-1.9-.3-4.3.1-6.4l1.5-24.7c0-1.5 1.4-2.5 2.9-2.6z"/></svg>