<svg id="svg2" xmlns="http://www.w3.org/2000/svg" viewBox="-411 298 256 256"><style>.st0{fill:#0056a1}.st1{fill:#fff}</style><path class="st0" d="M-325 410.9c1.7-1.7 8-2 9.8 0 0-8.7.1-22.8.3-31.5 1.1-2.8 3.2-5 4.6-7.6-2-8.7-3.8-17.4-5.6-26.2-2.7 0-5.3 0-8-.1-2 8.9-3.8 17.8-5.6 26.6 1.4 2.2 3.2 4.3 4.4 6.7.3 8.8-.2 23.3.1 32.1z"/><path class="st0" d="M-334 495c-.1 9 10.1 15.6 18.3 12.5 5.6-1.8 9.8-7.4 9.5-13.3 0-23.6.2-47.2 0-70.8-.5-9-11.1-15-19.2-11.4-5.3 2.1-8.9 7.6-8.6 13.3.1 23.2-.1 46.4 0 69.7zm18.2-48.8h3V497h-3v-50.8zm-10.1 0h3V497h-3v-50.8z"/><path class="st1" d="M-312.8 446.2h-3V497h3v-50.8zM-322.9 446.2h-3V497h3v-50.8z"/><g><path class="st0" d="M-232.6 366c-1.9-10.2-9.3-18.9-18.8-22.9-.1 9.1.1 18.3-.1 27.4 0 3.4-3.1 6.2-6.4 6-4 .1-8 .1-12.1 0-3.2.1-6.3-2.7-6.2-5.9-.1-9 0-18-.1-27-10.8 4.9-18.3 16.1-18.4 27.9-.3 10.1 4.8 20.1 12.9 26.1-.4 30.5 0 61-.2 91.5-.2 7.7 4.1 15.5 11.3 18.5 5.7 2.6 12.8 1.4 17.5-2.6 4.6-3.8 7.1-9.8 7-15.7 0-30.3.1-60.6 0-90.9 10.5-7 16.2-20.2 13.6-32.4zm-31.3 133.4c-4.7 0-8.4-3.8-8.4-8.4 0-4.7 3.8-8.4 8.4-8.4 4.7 0 8.4 3.8 8.4 8.4.1 4.6-3.7 8.4-8.4 8.4z"/><circle class="st1" cx="-263.9" cy="491" r="8.4"/></g></svg>