<svg xmlns="http://www.w3.org/2000/svg" viewBox="0 0 256 256"><radialGradient id="a" cx="131.064" cy="152.004" r="59.152" gradientUnits="userSpaceOnUse"><stop offset=".005" stop-color="#0081d4"/><stop offset="1" stop-color="#0068aa"/></radialGradient><path fill="url(#a)" stroke="#005491" stroke-miterlimit="10" d="M182.137 210.701l-34.376-93.432h.004l-9.152-25.156c-2.854-8.444-12.161-7.711-14.816-.311l-8.553 23.364h-.057L79.99 210.701c-.635 1.674-.362 3.532.633 4.981.997 1.451 2.674 2.311 4.439 2.311h92c1.767 0 3.444-.86 4.439-2.311.998-1.449 1.27-3.307.636-4.981zm-57.499-89.761l2.44-6.665c1.453-4.05 6.547-4.452 8.109.17l3.466 9.529 13.676 37.126H109.84l14.798-40.16zm-31.783 86.182l12.955-35.152h50.506l12.957 35.152H92.855z"/><radialGradient id="b" cx="92.932" cy="71.797" r="25.04" gradientUnits="userSpaceOnUse"><stop offset=".005" stop-color="#0081d4"/><stop offset="1" stop-color="#0068aa"/></radialGradient><path fill="url(#b)" stroke="#005491" stroke-miterlimit="10" d="M103.944 43.236a5.063 5.063 0 0 1-1.504 3.606c-13.751 13.769-13.751 36.139 0 49.909a5.11 5.11 0 0 1 0 7.212 5.11 5.11 0 0 1-7.213 0c-17.741-17.741-17.741-46.591 0-64.334a5.11 5.11 0 0 1 8.717 3.607zm0 0"/><radialGradient id="c" cx="111.575" cy="71.797" r="15.174" gradientUnits="userSpaceOnUse"><stop offset=".005" stop-color="#0081d4"/><stop offset="1" stop-color="#0068aa"/></radialGradient><path fill="url(#c)" stroke="#005491" stroke-miterlimit="10" d="M119.732 57.045a5.068 5.068 0 0 1-1.504 3.606 15.681 15.681 0 0 0-4.609 11.147c0 4.203 1.639 8.176 4.609 11.146a5.11 5.11 0 0 1 0 7.213 5.11 5.11 0 0 1-7.213 0c-4.899-4.898-7.598-11.416-7.598-18.359 0-6.943 2.7-13.461 7.618-18.359a5.108 5.108 0 0 1 7.212 0 5.089 5.089 0 0 1 1.485 3.606zm0 0"/><radialGradient id="d" cx="168.721" cy="71.797" r="25.04" gradientUnits="userSpaceOnUse"><stop offset=".005" stop-color="#0081d4"/><stop offset="1" stop-color="#0068aa"/></radialGradient><path fill="url(#d)" stroke="#005491" stroke-miterlimit="10" d="M157.709 43.236a5.11 5.11 0 0 1 8.717-3.606c17.741 17.742 17.741 46.592 0 64.334a5.11 5.11 0 0 1-7.213 0 5.11 5.11 0 0 1 0-7.212c13.751-13.77 13.751-36.14 0-49.909a5.067 5.067 0 0 1-1.504-3.607zm0 0"/><radialGradient id="e" cx="150.078" cy="71.797" r="15.174" gradientUnits="userSpaceOnUse"><stop offset=".005" stop-color="#0081d4"/><stop offset="1" stop-color="#0068aa"/></radialGradient><path fill="url(#e)" stroke="#005491" stroke-miterlimit="10" d="M141.921 57.045a5.09 5.09 0 0 1 1.485-3.606 5.108 5.108 0 0 1 7.212 0c4.918 4.898 7.618 11.416 7.618 18.359 0 6.943-2.7 13.461-7.598 18.359a5.11 5.11 0 0 1-7.213 0 5.11 5.11 0 0 1 0-7.213 15.682 15.682 0 0 0 4.609-11.146c0-4.205-1.639-8.177-4.609-11.147a5.07 5.07 0 0 1-1.504-3.606zm0 0"/><radialGradient id="f" cx="131.458" cy="71.422" r="7.183" gradientUnits="userSpaceOnUse"><stop offset=".005" stop-color="#0081d4"/><stop offset="1" stop-color="#0068aa"/></radialGradient><path fill="url(#f)" stroke="#005491" stroke-miterlimit="10" d="M131.459 64.239a7.183 7.183 0 1 1-.002 14.366 7.183 7.183 0 0 1 .002-14.366zm0 0"/></svg>