<svg xmlns="http://www.w3.org/2000/svg" width="256" height="256" viewBox="0 0 256 256"><path fill="#0076c3" d="M77.4 40.6c2.4-.9 3.9 2.7 2.8 4.5-1.9 3.1-4.9 5.4-6.9 8.4-4.1 5.9-4.9 13.4-4.6 20.4.2 5.7 1.6 11.6 5 16.3 2.1 2.9 5 5.1 7 8.1 1 1.5 0 4.5-2.2 4.1-4.3-.8-7.4-4.4-9.9-7.8-7.5-11.1-8.3-25.8-4.2-38.4 2.3-6.4 6.2-13.3 13-15.6zM177.3 40.4c3.7.2 6.5 3 8.7 5.6 5.7 7 7.9 16.2 8 25 .1 9.3-2.4 19.1-8.6 26.3-2.3 2.4-5 4.9-8.5 5.1-2.2-.2-2.5-3.5-1.1-4.9 2.8-3.5 6.4-6.3 8.4-10.4 3.7-7.7 3.8-16.8 2.2-25.1-1.1-6-5.1-10.8-9.3-15-2-1.7-2.3-5.2.2-6.6z"/><path fill="#0076c3" d="M85.5 49.6c2.2-1.2 5 .2 5.6 2.5-1.1 2.5-3.1 4.3-4.7 6.4-5.6 6.5-6.2 17-1 24 1.8 2.5 4.4 4.5 5.7 7.4-.5 2.3-2.7 4-5 2.9-4-1.7-6.6-5.6-8.4-9.4-4.1-8.8-3.3-19.6 1.8-27.9 1.5-2.4 3.4-4.7 6-5.9zM167.4 49.4c2.7-.9 5.2 1.3 7 3.2 8.9 10.4 8.9 27.9-.9 37.8-1.9 2-6.1 4.3-7.9 1.1-1.8-2.4 1.5-4.5 2.7-6.2 5.7-5.4 7.3-14 4.6-21.2-1.4-4.2-4.9-7.1-7.3-10.6-1.4-1.5.2-3.6 1.8-4.1z"/><path fill="#0076c3" d="M102 57c13.5-4.2 28-4.6 41.9-2.5 8.5 1.6 17.4 3.7 23.8 9.8 3 2.7 3.9 7.5 1.4 10.8-3.1 4.2-8.1 6.6-12.9 8.4-8.2 2.9-17 4-25.7 4.3V91h5.6c.3 18.6 4.5 37 10.2 54.6 8 24.4 19.8 47.4 33.5 69-8.9.4-17.9.3-26.9.5-4.8-8.9-9.3-18-14.1-26.9-7.4.1-14.8-.1-22.2.1-4.5 8.9-9.4 17.7-13.9 26.7h-27c25.2-36.5 41-79.7 44.3-124h5.6c0-.8-.1-2.4-.1-3.2-11.6-.5-23.8-2.1-33.8-8.4-4-2.4-7.6-7.3-5.3-12 3.1-5.8 9.7-8.5 15.6-10.4z"/><path fill="#fff" d="M119.6 55.7c13.3-.9 27.1 0 39.5 5.3 3.6 1.9 7.7 4 9.2 8 1.1 3.7-2 6.7-4.7 8.5-8.5 5.5-18.6 7.2-28.5 8-12.4.7-25.3-.2-36.9-5-4-1.9-8.7-4.1-10.3-8.6-1-4.1 2.9-7.1 5.9-9.1 7.8-4.6 16.9-6.2 25.8-7.1z"/><path fill="#0076c3" d="M105.8 61.8h6.9c.1 3.1.1 6.2.3 9.3 1.6-3.1 3.2-6.2 4.9-9.4 2.1.1 4.2.1 6.4.1-1.4 5.8-2.9 11.5-4.3 17.2h-4.3c.8-3.3 1.6-6.7 2.2-10.1-1.8 3.3-3.6 6.6-5.3 10-1.2 0-2.3.1-3.5.2 0-3.4-.1-6.8-.4-10.2-.9 3.4-1.7 6.7-2.6 10.1h-5c1.6-5.7 3-11.5 4.7-17.2zM141.4 61.8c1.5-.1 3.1-.1 4.6.1 1 2.8 1.5 5.7 2.3 8.5.9-2.8 1.8-5.7 2.5-8.6h4.6c-1.4 5.8-3 11.5-4.4 17.2h-4.9c-.6-2.8-1.4-5.5-2.4-8.2-.8 2.7-1.5 5.4-2.2 8.1-1.6.1-3.2.1-4.8.2 1.6-5.8 2.7-11.7 4.7-17.3zM124.5 66c.5-1.4.9-2.7 1.4-4.1 4.7-.3 9.4 0 14.1-.1-.5 1.4-.9 2.9-1.2 4.4h-4.5c-.8 3.3-1.7 6.5-2.5 9.8h-5.4c.9-3.3 1.8-6.7 2.8-10h-4.7zM126.2 77.1c1.7 0 3.4-.1 5.1-.1-.2.7-.5 2-.7 2.6h-5.1c.3-.9.5-1.7.7-2.5z"/><path fill="#fff" d="M125 97h6.2v7H125v-7zM125 110h6.2v7H125v-7zM122.6 123h10.6c.6 2.3 1.2 4.7 1.8 7h-14c.5-2.3 1-4.7 1.6-7zM119.1 135.9c5.7 0 11.3 0 17-.1 1 2.4 1.9 4.8 2.9 7.2h-22.1c.8-2.4 1.5-4.8 2.2-7.1zM115 149h26.1c.7 2.3 1.3 4.5 1.9 6.8-10.1-.1-20.2.4-30.3.2.8-2.3 1.6-4.7 2.3-7zM110.2 161.9c11.5 0 23-.1 34.6 0 1 2.4 2 4.8 3.1 7.3-13.3-.3-26.6-.2-39.9-.4.8-2.3 1.5-4.6 2.2-6.9zM104.9 174.9h46c.9 2.3 1.9 4.7 2.9 7.1-17.3-.1-34.7.3-52-.2 1-2.3 2.1-4.6 3.1-6.9zM99 188h11c-1 2.4-1.8 4.8-3.1 7-3.9.3-7.9.1-11.8.1 1.3-2.4 2.6-4.7 3.9-7.1zM146 188h10.9c1.4 2.3 2.9 4.7 4.2 7h-11.9c-1.1-2.3-2.1-4.7-3.2-7zM91.4 202.1c3.5-.1 7-.1 10.6.1-.9 2.3-1.9 4.5-2.8 6.8H88c1.1-2.3 2.2-4.6 3.4-6.9zM154 202c3.6 0 7.1 0 10.7.1 1.1 2.3 2.2 4.6 3.4 6.9h-11c-1-2.3-2-4.7-3.1-7z"/></svg>