<svg xmlns="http://www.w3.org/2000/svg" viewBox="0 0 256 256"><path fill="#005491" d="M110.2 49.6h5.7v12.2h-5.7z"/><radialGradient id="a" cx="62.593" cy="61.973" r="22.44" gradientUnits="userSpaceOnUse"><stop offset="0" stop-color="#0081d4"/><stop offset="1" stop-color="#0068aa"/></radialGradient><path fill="url(#a)" stroke="#015491" stroke-width="2" stroke-miterlimit="10" d="M87.1 54.2c-7.8-12.4-24-16-36.4-8.4s-16.3 23.8-8.8 36.4l45.2-28z"/><radialGradient id="b" cx="163.408" cy="61.973" r="22.44" gradientUnits="userSpaceOnUse"><stop offset="0" stop-color="#0081d4"/><stop offset="1" stop-color="#0068aa"/></radialGradient><path fill="url(#b)" stroke="#015491" stroke-width="2" stroke-miterlimit="10" d="M138.9 54.2c7.8-12.4 24-16 36.4-8.4 12.4 7.7 16.3 23.8 8.8 36.4l-45.2-28z"/><radialGradient id="c" cx="113.001" cy="137.06" r="77.142" gradientUnits="userSpaceOnUse"><stop offset="0" stop-color="#0081d4"/><stop offset=".535" stop-color="#0080d2"/><stop offset=".728" stop-color="#007ccb"/><stop offset=".865" stop-color="#0075c0"/><stop offset=".976" stop-color="#006baf"/><stop offset="1" stop-color="#0068aa"/></radialGradient><circle fill="url(#c)" stroke="#015491" stroke-width="2" stroke-miterlimit="10" cx="113" cy="137.1" r="77.1"/><circle fill="#FFF" stroke="#005491" stroke-miterlimit="10" cx="113" cy="137.1" r="61.4"/><path fill="#005491" d="M113 142.9H79.7c-3.2 0-5.9-2.6-5.9-5.9 0-3.2 2.6-5.9 5.9-5.9h27.4V87.3c0-3.2 2.6-5.9 5.9-5.9 3.2 0 5.9 2.6 5.9 5.9v49.8c0 3.2-2.7 5.8-5.9 5.8z"/><circle fill="#005491" cx="113" cy="137.1" r="14.1"/><circle fill="#FFF" cx="113" cy="137.1" r="6.5"/><path fill="#005491" d="M123 44.3h-20c-2.2 0-4.1 1.8-4.1 4.1 0 2.2 1.8 4.1 4.1 4.1h20c2.2 0 4.1-1.8 4.1-4.1s-1.7-4.1-4.1-4.1z"/><g><path fill="#FFF" d="M127.5 139.4l5.9-2.3 3.5-2.8 6.4 2.5 4.9.6 5.8 3.4 1.4-6.5v-10.6l1.9-7.1 3.7-7.1 7.4-1.4h5.6l7.8 1.7 6.1 3.5v43.5l2.8-4.4 4.2-3.2 7.9-1.1 6.2 2.1 4.2 1.4 3.7 3.5 1.9 8.5 1.2 45.2-6 6.5h-9.6l-10.4-.9-5.3-4-1.9-2-5 6H158.6l-4.6-7.1-5.5 8h-6.6l-14.4-.9-3.2-6v-63.9z"/><g fill="#015491"><path d="M164.6 120.6c1.8.7 4.2 1.1 6.8 1.1 2.5 0 4.9-.4 6.8-1.1 3.1-1.2 3.6-3 3.6-4 0-.9-.7-1.6-1.6-1.6-.9 0-1.6.7-1.6 1.6-.2.6-2.6 1.9-7.1 1.9-4.4 0-6.7-1.3-7.1-1.9.3-.6 2.7-1.9 7.1-1.9.9 0 1.6-.7 1.6-1.6 0-.9-.7-1.6-1.6-1.6-2.5 0-4.9.4-6.8 1.1-3.1 1.2-3.6 3-3.6 4-.1.9.4 2.7 3.5 4z"/><path d="M202.8 148.1c-5.9 0-10.9 1.7-14.1 4.2v-35.8c0-5.8-7.6-10.4-17.3-10.4s-17.3 4.6-17.3 10.4v21.8c-3.1-2.6-8.2-4.2-14.1-4.2-9.7 0-17.3 4.6-17.3 10.4v62.8c0 5.8 7.6 10.4 17.3 10.4 7 0 13-2.4 15.7-5.9 2.7 3.5 8.7 5.9 15.7 5.9s13-2.4 15.7-5.9c2.7 3.5 8.7 5.9 15.7 5.9h.9c3.9-.1 7.5-1 10.2-2.4.1-.1.3-.1.4-.2.1 0 .1-.1.2-.1.2-.1.3-.2.5-.3 0 0 .1 0 .1-.1.2-.1.3-.2.5-.3.2-.1.3-.2.5-.4h.1c.2-.1.3-.2.5-.3l.1-.1c.1-.1.3-.2.4-.4 0 0 .1 0 .1-.1.1-.1.2-.2.4-.3l.1-.1.3-.3.1-.1.3-.3c0-.1.1-.1.1-.2.1-.1.1-.2.2-.3.1-.1.1-.1.1-.2s.1-.1.1-.2c.1-.1.1-.2.2-.4l.1-.1c.1-.1.1-.2.2-.4 0-.1 0-.1.1-.2 0-.1.1-.2.1-.3 0-.1.1-.1.1-.2s0-.1.1-.2c0-.1.1-.2.1-.3v-.2c0-.1.1-.3.1-.4v-.1c0-.1 0-.3.1-.4v-.1-49.4c-.1-5.6-7.7-10.2-17.4-10.2zm0 3.3c8.4 0 14.1 3.7 14.1 7.1s-5.7 7.1-14.1 7.1c-8.4 0-14.1-3.7-14.1-7.1s5.7-7.1 14.1-7.1zm-31.4-41.9c8.4 0 14.1 3.7 14.1 7.1 0 3.4-5.7 7.1-14.1 7.1-8.4 0-14.1-3.7-14.1-7.1 0-3.4 5.7-7.1 14.1-7.1zM140 137.4c8.4 0 14.1 3.7 14.1 7.1s-5.7 7.1-14.1 7.1c-8.4 0-14.1-3.7-14.1-7.1s5.7-7.1 14.1-7.1zm0 77c-8.4 0-14.1-3.7-14.1-7.1v-.9c3.1 2.6 8.2 4.2 14.1 4.2 1.2 0 2.5-.1 3.7-.2.9-.1 1.5-.9 1.4-1.8-.1-.9-.9-1.5-1.8-1.4-1.1.1-2.2.2-3.3.2-8.4 0-14.1-3.7-14.1-7.1v-.9c3.1 2.6 8.2 4.2 14.1 4.2 1.2 0 2.5-.1 3.7-.2.9-.1 1.5-.9 1.4-1.8s-.9-1.5-1.8-1.4c-1.1.1-2.2.2-3.3.2-8.4 0-14.1-3.7-14.1-7.1v-.9c3.1 2.6 8.2 4.2 14.1 4.2 1.2 0 2.5-.1 3.7-.2.9-.1 1.5-.9 1.4-1.8s-.9-1.5-1.8-1.4c-1.1.1-2.2.2-3.3.2-8.4 0-14.1-3.7-14.1-7.1v-.9c3.1 2.6 8.2 4.2 14.1 4.2 1.2 0 2.5-.1 3.7-.2.9-.1 1.5-.9 1.4-1.8s-.9-1.5-1.8-1.4c-1.1.1-2.2.2-3.3.2-8.4 0-14.1-3.7-14.1-7.1v-.9c3.1 2.6 8.2 4.2 14.1 4.2 1.2 0 2.5-.1 3.7-.2.9-.1 1.5-.9 1.4-1.8-.1-.9-.9-1.5-1.8-1.4-1.1.1-2.2.2-3.3.2-8.4 0-14.1-3.7-14.1-7.1v-.9c3.1 2.6 8.2 4.2 14.1 4.2 1.2 0 2.5-.1 3.7-.2.9-.1 1.5-.9 1.4-1.8-.1-.9-.9-1.5-1.8-1.4-1.1.1-2.2.2-3.3.2-8.4 0-14.1-3.7-14.1-7.1v-.9c3.1 2.6 8.2 4.2 14.1 4.2 1.2 0 2.5-.1 3.7-.2.9-.1 1.5-.9 1.4-1.8-.1-.9-.9-1.5-1.8-1.4-1.1.1-2.2.2-3.3.2-8.4 0-14.1-3.7-14.1-7.1v-.9c3.1 2.6 8.2 4.2 14.1 4.2 1.2 0 2.5-.1 3.7-.2.9-.1 1.5-.9 1.4-1.8s-.9-1.5-1.8-1.4c-1.1.1-2.2.2-3.3.2-8.4 0-14.1-3.7-14.1-7.1v-.9c3.1 2.6 8.2 4.2 14.1 4.2s10.9-1.7 14.1-4.2v.9c0 1.8-1.6 3.7-4.3 5-.8.4-1.1 1.4-.7 2.2.3.6.9.9 1.5.9.2 0 .5-.1.7-.2 1.1-.5 2.1-1.2 2.9-1.8v.8c0 1.8-1.6 3.7-4.3 5-.8.4-1.1 1.4-.7 2.2.3.6.9.9 1.5.9.2 0 .5-.1.7-.2 1.1-.5 2.1-1.2 2.9-1.8v.8c0 1.8-1.6 3.7-4.3 5-.8.4-1.1 1.4-.7 2.2.3.6.9.9 1.5.9.2 0 .5-.1.7-.2 1.1-.5 2.1-1.2 2.9-1.8v.8c0 1.8-1.6 3.7-4.3 5-.8.4-1.1 1.4-.7 2.2.3.6.9.9 1.5.9.2 0 .5-.1.7-.2 1.1-.5 2.1-1.2 2.9-1.8v.8c0 1.8-1.6 3.7-4.3 5-.8.4-1.1 1.4-.7 2.2.3.6.9.9 1.5.9.2 0 .5-.1.7-.2 1.1-.5 2.1-1.2 2.9-1.8v.8c0 1.8-1.6 3.7-4.3 5-.8.4-1.1 1.4-.7 2.2.3.6.9.9 1.5.9.2 0 .5-.1.7-.2 1.1-.5 2.1-1.2 2.9-1.8v.8c0 1.8-1.6 3.7-4.3 5-.8.4-1.1 1.4-.7 2.2.3.6.9.9 1.5.9.2 0 .5-.1.7-.2 1.1-.5 2.1-1.2 2.9-1.8v.8c0 1.8-1.6 3.7-4.3 5-.8.4-1.1 1.4-.7 2.2.3.6.9.9 1.5.9.2 0 .5-.1.7-.2 1.1-.5 2.1-1.2 2.9-1.8v.8c-.9 4.2-6.5 7.9-14.9 7.9zm31.4 0c-8.4 0-14.1-3.7-14.1-7.1v-.9c3.1 2.6 8.2 4.2 14.1 4.2 1.2 0 2.5-.1 3.7-.2.9-.1 1.5-.9 1.4-1.8-.1-.9-.9-1.5-1.8-1.4-1.1.1-2.2.2-3.3.2-8.4 0-14.1-3.7-14.1-7.1v-.9c3.1 2.6 8.2 4.2 14.1 4.2 1.2 0 2.5-.1 3.7-.2.9-.1 1.5-.9 1.4-1.8s-.9-1.5-1.8-1.4c-1.1.1-2.2.2-3.3.2-8.4 0-14.1-3.7-14.1-7.1v-.9c3.1 2.6 8.2 4.2 14.1 4.2 1.2 0 2.5-.1 3.7-.2.9-.1 1.5-.9 1.4-1.8s-.9-1.5-1.8-1.4c-1.1.1-2.2.2-3.3.2-8.4 0-14.1-3.7-14.1-7.1v-.9c3.1 2.6 8.2 4.2 14.1 4.2 1.2 0 2.5-.1 3.7-.2.9-.1 1.5-.9 1.4-1.8s-.9-1.5-1.8-1.4c-1.1.1-2.2.2-3.3.2-8.4 0-14.1-3.7-14.1-7.1v-.9c3.1 2.6 8.2 4.2 14.1 4.2 1.2 0 2.5-.1 3.7-.2.9-.1 1.5-.9 1.4-1.8-.1-.9-.9-1.5-1.8-1.4-1.1.1-2.2.2-3.3.2-8.4 0-14.1-3.7-14.1-7.1v-.9c3.1 2.6 8.2 4.2 14.1 4.2 1.2 0 2.5-.1 3.7-.2.9-.1 1.5-.9 1.4-1.8-.1-.9-.9-1.5-1.8-1.4-1.1.1-2.2.2-3.3.2-8.4 0-14.1-3.7-14.1-7.1v-.9c3.1 2.6 8.2 4.2 14.1 4.2 1.2 0 2.5-.1 3.7-.2.9-.1 1.5-.9 1.4-1.8-.1-.9-.9-1.5-1.8-1.4-1.1.1-2.2.2-3.3.2-8.4 0-14.1-3.7-14.1-7.1v-.9c3.1 2.6 8.2 4.2 14.1 4.2 1.2 0 2.5-.1 3.7-.2.9-.1 1.5-.9 1.4-1.8s-.9-1.5-1.8-1.4c-1.1.1-2.2.2-3.3.2-8.4 0-14.1-3.7-14.1-7.1v-.9c3.1 2.6 8.2 4.2 14.1 4.2 1.2 0 2.5-.1 3.7-.2.9-.1 1.5-.9 1.4-1.8s-.9-1.5-1.8-1.4c-1.1.1-2.2.2-3.3.2-8.4 0-14.1-3.7-14.1-7.1v-.9c3.1 2.6 8.2 4.2 14.1 4.2 1.2 0 2.5-.1 3.7-.2.9-.1 1.5-.9 1.4-1.8s-.9-1.5-1.8-1.4c-1.1.1-2.2.2-3.3.2-8.4 0-14.1-3.7-14.1-7.1v-.9c3.1 2.6 8.2 4.2 14.1 4.2 1.2 0 2.5-.1 3.7-.2.9-.1 1.5-.9 1.4-1.8s-.9-1.5-1.8-1.4c-1.1.1-2.2.2-3.3.2-8.4 0-14.1-3.7-14.1-7.1v-.9c3.1 2.6 8.2 4.2 14.1 4.2 1.2 0 2.5-.1 3.7-.2.9-.1 1.5-.9 1.4-1.8-.1-.9-.9-1.5-1.8-1.4-1.1.1-2.2.2-3.3.2-8.4 0-14.1-3.7-14.1-7.1v-.9c3.1 2.6 8.2 4.2 14.1 4.2s10.9-1.7 14.1-4.2v.9c0 1.8-1.6 3.7-4.3 5-.8.4-1.1 1.4-.7 2.2.3.6.9.9 1.5.9.2 0 .5-.1.7-.2 1.1-.5 2.1-1.2 2.9-1.8v.8c0 1.8-1.6 3.7-4.3 5-.8.4-1.1 1.4-.7 2.2.3.6.9.9 1.5.9.2 0 .5-.1.7-.2 1.1-.5 2.1-1.2 2.9-1.8v.8c0 1.8-1.6 3.7-4.3 5-.8.4-1.1 1.4-.7 2.2.3.6.9.9 1.5.9.2 0 .5-.1.7-.2 1.1-.5 2.1-1.2 2.9-1.8v.8c0 1.8-1.6 3.7-4.3 5-.8.4-1.1 1.4-.7 2.2.3.6.9.9 1.5.9.2 0 .5-.1.7-.2 1.1-.5 2.1-1.2 2.9-1.8v.8c0 1.8-1.6 3.7-4.3 5-.8.4-1.1 1.4-.7 2.2.3.6.9.9 1.5.9.2 0 .5-.1.7-.2 1.1-.5 2.1-1.2 2.9-1.8v.8c0 1.8-1.6 3.7-4.3 5-.8.4-1.1 1.4-.7 2.2.3.6.9.9 1.5.9.2 0 .5-.1.7-.2 1.1-.5 2.1-1.2 2.9-1.8v.8c0 1.8-1.6 3.7-4.3 5-.8.4-1.1 1.4-.7 2.2.3.6.9.9 1.5.9.2 0 .5-.1.7-.2 1.1-.5 2.1-1.2 2.9-1.8v.8c0 1.8-1.6 3.7-4.3 5-.8.4-1.1 1.4-.7 2.2.3.6.9.9 1.5.9.2 0 .5-.1.7-.2 1.1-.5 2.1-1.2 2.9-1.8v.8c0 1.8-1.6 3.7-4.3 5-.8.4-1.1 1.4-.7 2.2.3.6.9.9 1.5.9.2 0 .5-.1.7-.2 1.1-.5 2.1-1.2 2.9-1.8v.8c0 1.8-1.6 3.7-4.3 5-.8.4-1.1 1.4-.7 2.2.3.6.9.9 1.5.9.2 0 .5-.1.7-.2 1.1-.5 2.1-1.2 2.9-1.8v.8c0 1.8-1.6 3.7-4.3 5-.8.4-1.1 1.4-.7 2.2.3.6.9.9 1.5.9.2 0 .5-.1.7-.2 1.1-.5 2.1-1.2 2.9-1.8v.8c0 1.8-1.6 3.7-4.3 5-.8.4-1.1 1.4-.7 2.2.3.6.9.9 1.5.9.2 0 .5-.1.7-.2 1.1-.5 2.1-1.2 2.9-1.8v.8c-1.2 4.6-6.9 8.3-15.3 8.3zm17.3-7.1v-.9c3.1 2.6 8.2 4.2 14.1 4.2 1.2 0 2.5-.1 3.7-.2.9-.1 1.5-.9 1.4-1.8-.1-.9-.9-1.5-1.8-1.4-1.1.1-2.2.2-3.3.2-8.4 0-14.1-3.7-14.1-7.1v-.9c3.1 2.6 8.2 4.2 14.1 4.2 1.2 0 2.5-.1 3.7-.2.9-.1 1.5-.9 1.4-1.8-.1-.9-.9-1.5-1.8-1.4-1.1.1-2.2.2-3.3.2-8.4 0-14.1-3.7-14.1-7.1v-.9c3.1 2.6 8.2 4.2 14.1 4.2 1.2 0 2.5-.1 3.7-.2.9-.1 1.5-.9 1.4-1.8-.1-.9-.9-1.5-1.8-1.4-1.1.1-2.2.2-3.3.2-8.4 0-14.1-3.7-14.1-7.1v-.9c3.1 2.6 8.2 4.2 14.1 4.2 1.2 0 2.5-.1 3.7-.2.9-.1 1.5-.9 1.4-1.8-.1-.9-.9-1.5-1.8-1.4-1.1.1-2.2.2-3.3.2-8.4 0-14.1-3.7-14.1-7.1v-.9c3.1 2.6 8.2 4.2 14.1 4.2 1.2 0 2.5-.1 3.7-.2.9-.1 1.5-.9 1.4-1.8-.1-.9-.9-1.5-1.8-1.4-1.1.1-2.2.2-3.3.2-8.4 0-14.1-3.7-14.1-7.1v-.9c3.1 2.6 8.2 4.2 14.1 4.2 1.2 0 2.5-.1 3.7-.2.9-.1 1.5-.9 1.4-1.8-.1-.9-.9-1.5-1.8-1.4-1.1.1-2.2.2-3.3.2-8.4 0-14.1-3.7-14.1-7.1v-.9c3.1 2.6 8.2 4.2 14.1 4.2s10.9-1.7 14.1-4.2v.9c0 1.8-1.6 3.7-4.3 5-.8.4-1.1 1.4-.7 2.2.3.6.9.9 1.5.9.2 0 .5-.1.7-.2 1.1-.5 2.1-1.2 2.9-1.8v.8c0 1.8-1.6 3.7-4.3 5-.8.4-1.1 1.4-.7 2.2.3.6.9.9 1.5.9.2 0 .5-.1.7-.2 1.1-.5 2.1-1.2 2.9-1.8v.8c0 1.8-1.6 3.7-4.3 5-.8.4-1.1 1.4-.7 2.2.3.6.9.9 1.5.9.2 0 .5-.1.7-.2 1.1-.5 2.1-1.2 2.9-1.8v.8c0 1.8-1.6 3.7-4.3 5-.8.4-1.1 1.4-.7 2.2.3.6.9.9 1.5.9.2 0 .5-.1.7-.2 1.1-.5 2.1-1.2 2.9-1.8v.8c0 1.8-1.6 3.7-4.3 5-.8.4-1.1 1.4-.7 2.2.3.6.9.9 1.5.9.2 0 .5-.1.7-.2 1.1-.5 2.1-1.2 2.9-1.8v.8c0 1.8-1.6 3.7-4.3 5-.8.4-1.1 1.4-.7 2.2.3.6.9.9 1.5.9.2 0 .5-.1.7-.2 1.1-.5 2.1-1.2 2.9-1.8V207.3c0 .1 0 .2-.1.3-.1.3-.2.6-.4.9-.1.1-.1.2-.2.3v.1l-.2.2-.1.1-.1.1c-.1.1-.1.2-.2.2-.7.7-1.7 1.4-2.9 2-.1 0-.1.1-.2.1-1.7.8-3.7 1.4-6.1 1.7h-.1c-1.1.1-2.2.2-3.3.2-9.2.9-14.9-2.8-14.9-6.2z"/><path d="M196 162.4c1.8.7 4.2 1.1 6.8 1.1 2.5 0 4.9-.4 6.8-1.1 3.1-1.2 3.6-3 3.6-4 0-.9-.7-1.6-1.6-1.6-.9 0-1.6.7-1.6 1.6-.2.6-2.6 1.9-7.1 1.9-4.4 0-6.7-1.3-7.1-1.9.3-.6 2.7-1.9 7.1-1.9.9 0 1.6-.7 1.6-1.6s-.7-1.6-1.6-1.6c-2.5 0-4.9.4-6.8 1.1-3.1 1.2-3.6 3-3.6 4-.1 1 .4 2.8 3.5 4zM133.2 148.5c1.8.7 4.2 1.1 6.8 1.1 2.5 0 4.9-.4 6.8-1.1 3.1-1.2 3.6-3 3.6-4 0-.9-.7-1.6-1.6-1.6-.9 0-1.6.7-1.6 1.6-.2.6-2.6 1.9-7.1 1.9-4.4 0-6.7-1.3-7.1-1.9.3-.6 2.7-1.9 7.1-1.9.9 0 1.6-.7 1.6-1.6s-.7-1.6-1.6-1.6c-2.5 0-4.9.4-6.8 1.1-3.1 1.2-3.6 3-3.6 4s.4 2.7 3.5 4z"/></g></g></svg>