<svg xmlns="http://www.w3.org/2000/svg" viewBox="0 0 60 60"><g fill="#D3D3D3"><path d="M25.5 30c0 2.5 2 4.5 4.5 4.5s4.5-2 4.5-4.5-2-4.5-4.5-4.5-4.5 2-4.5 4.5z"/><path d="M51.4 29.3c-2.1-3.7-5.2-6.8-8.9-9S34.4 17 30 17s-8.8 1.2-12.5 3.4c-3.7 2.2-6.7 5.3-8.9 9l-.4.6.4.7c2.1 3.7 5.2 6.8 8.9 9S25.6 43 30 43s8.8-1.2 12.5-3.4c3.7-2.2 6.7-5.3 8.9-9l.4-.7-.4-.6zm-11 .7c0 5.7-4.6 10.4-10.4 10.4-5.7 0-10.4-4.7-10.4-10.4S24.3 19.6 30 19.6 40.4 24.3 40.4 30zm-29.1 0c2-3.3 4.9-5.9 8.2-7.7-1.6 2.2-2.5 4.8-2.5 7.7s.9 5.5 2.5 7.7c-3.3-1.8-6.2-4.4-8.2-7.7zm29.2 7.7c1.6-2.2 2.5-4.8 2.5-7.7s-.9-5.5-2.5-7.7c3.3 1.8 6.1 4.4 8.2 7.7-2 3.3-4.9 5.9-8.2 7.7z"/></g></svg>