<svg id="Layer_1" xmlns="http://www.w3.org/2000/svg" viewBox="-267 390.9 60 60"><style>.st0{fill:none}.st1{fill:#fff}</style><path class="st0" d="M-237 410h-2.2v-.5l-6.8 1.8v1.4l2.8 5.4h2.1v4.9h-2l-4.8 4.6v.2l20.4 3.4v-.7z"/><path class="st1" d="M-250.3 408.8h3.7v3.7h-3.7zM-238.6 405.7h3.7v3.7h-3.7zM-226.9 431h3.7v3.7h-3.7z"/><path d="M-224.8 430.4l-9.5-20.4v-4.9h-4.9v1.8l-6.8 1.8v-.5h-4.9v4.9h2.4l2.6 4.9h-.1v4.3l-3.8 3.7h-3v4.9h4.9v-.7l20.4 3.4v1.6h4.9v-4.9h-2.2zm1.6 4.3h-3.7V431h3.7v3.7zm-11.7-29v3.7h-3.7v-3.7h3.7zm-15.4 3.1h3.7v3.7h-3.7v-3.7zm4.9 9.9h3.7v3.7h-3.7v-3.7zm-3.1 11.7h-3.7v-3.7h3.7v3.7zm.6-2.6v-.2l4.8-4.6h2v-4.9h-2.1l-2.8-5.4v-1.4l6.8-1.8v.5h2.3l9.5 20.5v.7l-20.5-3.4z"/><path class="st1" d="M-245.4 418.7h3.7v3.7h-3.7zM-252.2 426.7h3.7v3.7h-3.7z"/><g><title>Layer 1</title></g></svg>