<svg xmlns="http://www.w3.org/2000/svg" viewBox="3 2 25 25"><path d="M17.67 14.08a2.702 2.702 0 0 0-1.92-.795 2.702 2.702 0 0 0-2.501 1.658 2.702 2.702 0 0 0 0 2.114 2.702 2.702 0 0 0 1.444 1.444 2.702 2.702 0 0 0 2.114 0 2.702 2.702 0 0 0 1.444-1.444 2.702 2.702 0 0 0 0-2.114 2.702 2.702 0 0 0-.581-.863zm-1.92 3.061"/><path d="M25.158 11.665a14.925 14.925 0 0 0-2.789-2.039 13.739 13.739 0 0 0-3.169-1.3 13.26 13.26 0 0 0-6.9 0c-1.094.295-2.16.732-3.169 1.301a14.925 14.925 0 0 0-2.789 2.039 16.36 16.36 0 0 0-2.319 2.671 3.017 3.017 0 0 0-.523 1.711c0 .619.186 1.227.523 1.711a16.32 16.32 0 0 0 2.319 2.671 14.875 14.875 0 0 0 2.789 2.038 13.787 13.787 0 0 0 3.169 1.301 13.26 13.26 0 0 0 6.9 0 13.742 13.742 0 0 0 3.169-1.301 14.965 14.965 0 0 0 2.789-2.038 16.36 16.36 0 0 0 2.319-2.671A3.02 3.02 0 0 0 28 16.048c0-.619-.186-1.227-.523-1.711a16.285 16.285 0 0 0-2.319-2.672zm.928 4.834c-1.177 1.691-2.665 3.087-4.366 4.074.246-.422.457-.87.632-1.341a9.137 9.137 0 0 0 .564-3.184c0-1.103-.19-2.174-.564-3.184a8.622 8.622 0 0 0-.632-1.341c1.701.987 3.19 2.383 4.366 4.074a.806.806 0 0 1 0 .902zm-20.672-.903c1.177-1.691 2.665-3.087 4.366-4.074-.246.422-.457.87-.632 1.341a9.137 9.137 0 0 0-.564 3.184c0 1.103.19 2.175.564 3.184.175.471.386.919.632 1.341-1.701-.987-3.19-2.383-4.366-4.074a.802.802 0 0 1 0-.902zm10.336 6.112c-2.977 0-5.391-2.543-5.391-5.679s2.414-5.679 5.391-5.679 5.391 2.543 5.391 5.679-2.414 5.679-5.391 5.679zm0 .492"/></svg>