<svg xmlns="http://www.w3.org/2000/svg" id="Layer_1" viewBox="-267 390.9 60 60"><style id="style3">.st0{fill:none}.st1{fill:#fff}</style><g id="g5" transform="translate(-8.39 9.915)"><path class="st0" id="polygon7" fill="none" d="M-239.2 410v-.5l-6.8 1.8v1.4l2.8 5.4h2.1v4.9h-2l-4.8 4.6v.2l20.4 3.4v-.7L-237 410z"/><path class="st1" id="rect9" fill="#fff" d="M-250.3 408.8h3.7v3.7h-3.7z"/><path class="st1" id="rect11" fill="#fff" d="M-238.6 405.7h3.7v3.7h-3.7z"/><path class="st1" id="rect13" fill="#fff" d="M-226.9 431h3.7v3.7h-3.7z"/><path d="M-224.8 430.4l-9.5-20.4v-4.9h-4.9v1.8l-6.8 1.8v-.5h-4.9v4.9h2.4l2.6 4.9h-.1v4.3l-3.8 3.7h-3v4.9h4.9v-.7l20.4 3.4v1.6h4.9v-4.9h-2.2zm1.6 4.3h-3.7V431h3.7v3.7zm-11.7-29v3.7h-3.7v-3.7h3.7zm-15.4 3.1h3.7v3.7h-3.7v-3.7zm4.9 9.9h3.7v3.7h-3.7v-3.7zm-3.1 11.7h-3.7v-3.7h3.7v3.7zm.6-2.6v-.2l4.8-4.6h2v-4.9h-2.1l-2.8-5.4v-1.4l6.8-1.8v.5h2.3l9.5 20.5v.7l-20.5-3.4z" id="path15"/><path class="st1" id="rect17" fill="#fff" d="M-245.4 418.7h3.7v3.7h-3.7z"/><path class="st1" id="rect19" fill="#fff" d="M-252.2 426.7h3.7v3.7h-3.7z"/></g><g id="g21"><title id="title23">Layer 1</title></g><g id="g3434" transform="matrix(.75 0 0 .75 -191.983 220.442)"><path id="path3426" d="M-28.54 257.875l1.386-2.96h1.188l-2 12h-30v-2.32l10.36-12.225-10.36-10.361v-7.094h30.625l1.375 8h-1.074l-.585-1.215c-1.104-2.292-1.935-2.785-4.341-2.785h-20.688l11.033 11.033-9.294 10.967h16.949c3.625 0 4.583-1.3 5.425-3.04z"/></g></svg>