<svg xmlns="http://www.w3.org/2000/svg" viewBox="-509 396 60 60"><path d="M-461.5 414.7l-5.9-7.5c-.4-.6-1-.9-1.6-.9-.7 0-1.3.3-1.6.9l-5.8 7.5c-.6.9-.3 2.2.6 2.8s2.1.3 2.7-.6l1.7-2.1v6c0 4.8-2.9 7.2-6.1 7.8-1 .2-1.7.2-2.9 0-3.3-.5-6.2-3-6.2-7.8v-6l1.9 2.1c.6.9 1.8 1.2 2.7.6s1.2-1.8.6-2.8l-5.9-7.5c-.4-.6-1-.9-1.6-.9-.7 0-1.3.3-1.6.9l-5.8 7.5c-.2.3-.3.7-.3 1.1 0 .7.3 1.3.9 1.7.9.6 2.1.3 2.7-.6l1.7-2.1v6c0 5 2.1 8 3.9 9.7.3.2.5.5.8.7-2.8 2.2-4.7 5.6-4.7 10.3v4.4h4.9v-4.4c0-4.7 2.9-7.2 6.1-7.8 1.1-.2 1.7-.3 2.9 0 3.3.5 6.2 3 6.2 7.8v4.4h4.9v-4.4c0-4.7-2-8.2-4.7-10.4 2.8-2.2 4.7-5.6 4.7-10.3v-6l1.9 2.1c.6.9 1.8 1.2 2.7.6.6-.4.9-1 .9-1.7-.4-.4-.4-.8-.7-1.1z"/></svg>