<svg id="Layer_1" xmlns="http://www.w3.org/2000/svg" viewBox="-267 390.9 60 60"><style>.st0{fill:none}.st1{fill:#fff}</style><path class="st0" d="M-222.2 413.5l3.4 3.3-3.4-3.3z"/><path class="st1" d="M-222.2 413.5l-2.7-2.7 2-2c.2-.2.4-.3.7-.3v-2l-2 1.9V403c0-.5-.5-1-1-1h-29.5c-.5 0-1 .5-1 1v35.8c0 .5.5 1 1 1h29.5c.5 0 1-.5 1-1v-14.9l2-2v-1.7l2.4-2.3-12.5 12.1-6.2-6.1 12.5-12.1 6.2 6.2 1-1.2-3.4-3.3zm-9.5 18.1h2.7v1.4h-2.7v-1.4zm-19.1-7.7h8.9v1.4h-8.9v-1.4zm7.3 9.1h-7v-1.4h7v1.4zm10-1.8l-8.5 2.4 2.4-8.5 6.1 6.1zm-1-13.3h-16.3v-1.4h16.3v1.4zm5.5-7.6h-21.7v-1.4h21.7v1.4z"/><path d="M-250.8 408.9h21.7v1.4h-21.7zM-250.8 416.5h16.3v1.4h-16.3zM-250.8 423.9h8.9v1.4h-8.9zM-250.5 431.6h7v1.4h-7zM-231.7 431.6h2.7v1.4h-2.7zM-216.8 412.9l-4-4.1c-.4-.4-.9-.5-1.3-.4-.3.1-.5.1-.7.3l-2 2 2.7 2.7 3.4 3.4 1.9-1.9c.6-.5.6-1.4 0-2zM-238.5 424l6.2 6.1 12.5-12.1-6.2-6.2zM-242 433.6l8.5-2.4-6.1-6.1z"/><path d="M-224.2 438.8c0 .5-.5 1-1 1h-29.5c-.5 0-1-.5-1-1V403c0-.5.5-1 1-1h29.5c.5 0 1 .5 1 1v5.3l2-1.9V403c0-1.7-1.3-3-3-3h-29.5c-1.6 0-3 1.3-3 3v35.8c0 1.6 1.4 3 3 3h29.5c1.7 0 3-1.4 3-3V422l-2 2v14.8z"/></svg>