<svg xmlns="http://www.w3.org/2000/svg" viewBox="-267 390.9 60 60"><path d="M-220.6 407h-3.9v-3.9c0-.8-.7-1.5-1.5-1.5h-.9c-.8 0-1.5.7-1.5 1.5v3.9h-3.9c-.8 0-1.5.7-1.5 1.5v.9c0 .8.7 1.5 1.5 1.5h3.9v3.9c0 .8.7 1.5 1.5 1.5h.9c.8 0 1.5-.7 1.5-1.5v-3.9h3.9c.8 0 1.5-.7 1.5-1.5v-.9c0-.8-.7-1.5-1.5-1.5zm0 0M-241.2 426.3l7.6-.7c.6-.1 1.1-.5 1.2-1 .2-.6-.1-1.2-.5-1.5l-19.5-14.2c-.4-.3-1-.4-1.5-.1-.5.2-.8.7-.8 1.3l-.3 24.1c0 .6.4 1.1.9 1.3.6.2 1.2.1 1.6-.4l5.1-5.7 5 10c.2.3.5.6.8.7.4.1.7.1 1.1-.1l3.6-1.8c.7-.4 1-1.2.6-1.9l-4.9-10zm0 0"/></svg>