<svg xmlns="http://www.w3.org/2000/svg" viewBox="0 0 60 60"><path d="M35.515 14.488c2.332-2.31 6.008-3.033 9.066-1.876-1.747 1.776-3.537 3.51-5.274 5.3-.654.63-.584 1.773.057 2.386.773.804 1.56 1.59 2.362 2.366.617.68 1.784.746 2.438.084 1.82-1.755 3.57-3.582 5.38-5.348 1.073 2.643.807 5.805-.815 8.168-1.882 2.912-5.58 4.366-8.953 3.695-5.92 5.947-11.873 11.86-17.81 17.793-1.14 1.187-2.804 1.868-4.455 1.708-1.723-.133-3.346-1.273-3.95-2.91-.82-2.003-.15-4.39 1.4-5.844 6.02-5.936 11.92-11.99 17.974-17.89-.422-2.767.528-5.712 2.58-7.632zm-23.857-.73c.96-3.396 5.337-5.25 8.436-3.52C22.6 11.363 23.978 14.354 23.32 17c-.22 1.303-1.056 2.36-1.937 3.294-2.136 2.345-3.757 5.28-4.01 8.49-.15-3.43-2.036-6.488-4.326-8.923-1.546-1.567-2.084-4.02-1.39-6.105z"/><path fill="#FFF" d="M15.105 12.846c1.247-1.15 3.32-1.12 4.586-.015 1.656 1.216 1.8 3.923.334 5.34-.986 1.026-1.804 2.19-2.633 3.345-.783-1.206-1.65-2.364-2.65-3.402-1.415-1.427-1.225-4.04.366-5.266z"/><path d="M17.1 14.46c.798-.247 1.777.608 1.538 1.44-.157 1.013-1.796 1.375-2.267.382-.56-.642 0-1.636.73-1.823z"/></svg>