<svg xmlns="http://www.w3.org/2000/svg" viewBox="0 0 60 60"><path d="M47.4 48h3.8c.5 0 1-.7 1-1.5v-3h-5.7v3c-.1.8.4 1.5.9 1.5zM46.6 20.5h5.5v20.4h-5.5zM49.3 12.8l-2.8 4.9h5.7z"/><g><path fill="#FFF" d="M14.2 46.4l-3.7 1.3-1.6-1.9V25.4l1.9-.6h2.6l.3-9.8 2-.5h13.1l3.6 4.4.4 9.6h2.4l.5.9-.3 3.6-.3 7.4z"/><path d="M44.3 34.5l-6.4 12.2c-.3.6-1.2 1.2-1.9 1.2H10.1c-.5 0-1.1-.2-1.5-.6-.4-.3-.6-.8-.6-1.4V25.8c0-1.1.9-2.1 2.1-2.1h3.4l-.1 1.8h-2.7c-.2 0-.5.1-.7.3-.2.2-.3.4-.3.7v18.8c0 .5.4.9.9.9H12l6.1-12.4c.3-.7 1-1.2 1.7-1.2h15v-5c1 .1 1.7.9 1.7 1.9v3.1h6.9c.8 0 1.5.8.9 1.9zM13.1 40c-.1-6.2 0-24.6 0-24.6 0-.9.8-1.7 1.7-1.7h13.5c.2 0 .4.1.6.2l4.4 4.7c.1.1.2.3.2.5v12.3h-1.4V20.3c0-.2-.2-.4-.4-.4h-3.3c-.4 0-.7-.3-.7-.7v-3.8c0-.2-.2-.4-.4-.4H14.8c-.1 0-.3.1-.3.3v23.1l-1.1 2.2c.1.1-.3 0-.3-.6zm16-21.5h2.1l-2.1-2.3v2.3zm.8 2.9H16.8c-.5 0-.9.4-.9.9s.4.9.9.9h13.1c.5 0 .9-.4.9-.9-.1-.5-.5-.9-.9-.9zm.8 6c0-.5-.4-.9-.9-.9h-13c-.5 0-.9.4-.9.9s.4.9.9.9h13.1c.4-.1.8-.5.8-.9zm-14.8 5.1c0 .5.4.9.9.9h.3c.6-1.5 1.9-1.7 1.9-1.7h-2.2c-.5-.1-.9.3-.9.8z"/><path d="M34.752 27.687v1.9h-2.5v-1.9z"/></g></svg>