<svg id="Layer_1" xmlns="http://www.w3.org/2000/svg" viewBox="-267 390.9 60 60"><style>.st0{fill:none}.st1{fill:#fff}</style><path class="st0" d="M-231.4 403.3H-242c-1.1 0-2.1 2-2.4 3.4h15.4c-.3-1.4-1.2-3.4-2.4-3.4z"/><path d="M-257.7 443h.8c.7 0 1.2-.5 1.2-1.2V408c0-.7-.5-1.2-1.2-1.2h-.8c-2.7 0-5.9 2.2-5.9 4.9v26.4c0 2.7 3.2 4.9 5.9 4.9zM-247.4 406.7h-5c-.7 0-1.2.5-1.2 1.2v33.8c0 .7.5 1.2 1.2 1.2h31c.7 0 1.2-.5 1.2-1.2V408c0-.7-.5-1.2-1.2-1.2h-4.6c-.3-2.7-2.4-6.2-4.9-6.2h-11.7c-2.4 0-4.5 3.5-4.8 6.1zm5.4-3.4h10.7c1.1 0 2.1 2 2.4 3.4h-15.4c.2-1.4 1.1-3.4 2.3-3.4zm13 18.8c1.1 0 2 .9 2 2s-.9 2-2 2h-16c-1.1 0-2-.9-2-2s.9-2 2-2h16zM-210.4 410.9c-.5-2.3-3.4-4.1-5.8-4.1h-.7c-.7 0-1.2.5-1.2 1.2v33.8c0 .7.5 1.2 1.2 1.2h.7c2.4 0 5.3-1.8 5.8-4.1v-28z"/><path class="st1" d="M-247 424.1c0 1.1.9 2 2 2h16.1c1.1 0 2-.9 2-2s-.9-2-2-2H-245c-1.1 0-2 .9-2 2z"/></svg>