<svg xmlns="http://www.w3.org/2000/svg" id="Layer_1" viewBox="-281 404.9 32 32"><style id="style3">.st0{fill:#424141}.st1{fill:#fcfcfc}</style><path d="M16.135.271A15.593 15.593 0 0 0 .543 15.865a15.593 15.593 0 0 0 15.592 15.592 15.593 15.593 0 0 0 15.594-15.592A15.593 15.593 0 0 0 16.135.271zm8.328 6.786l.096.47c-1.098 1.066-3.003 3.448-5.715 7.147-2.648 3.699-4.553 6.612-5.715 8.744-.258.564-.581.91-.969 1.035-.194.188-.614.25-1.26.188-.452.062-.775 0-.968-.188-.194-.125-.389-.376-.582-.752-.646-1.504-1.13-2.79-1.454-3.855 0-.251-.03-.47-.095-.659 0-.564.387-1.067 1.162-1.505.517-.251.904-.375 1.162-.375a.878.878 0 0 1 .678.564 97.9 97.9 0 0 1 .775 1.785c.13.251.26.377.389.377s.257-.093.387-.281c2.195-3.761 4.166-6.677 5.91-8.746 1.356-1.567 2.194-2.476 2.517-2.727 1.034-.752 2.261-1.16 3.682-1.222z" id="path3349" transform="translate(-281 404.9)" fill="#424141" stroke-width="0"/></svg>