<svg id="Layer_1" xmlns="http://www.w3.org/2000/svg" viewBox="-267 390.9 60 60"><style>.st0{fill:none}</style><path transform="rotate(134.999 -249.415 421.493)" class="st0" d="M-253 419.7h7.1v3.6h-7.1z"/><path transform="rotate(45.001 -235.947 422.687)" class="st0" d="M-238 406.9h4.1v31.5h-4.1z"/><path d="M-224 439.9c-2.8 0-5.1-2.3-5.1-5.1s2.3-5.1 5.1-5.1 5.1 2.3 5.1 5.1h-1.7l2.7 2.6 2.7-2.6h-1.7c0-3.9-3.2-7.1-7.1-7.1-3.9 0-7.1 3.2-7.1 7.1s3.2 7.1 7.1 7.1c1.1 0 2.2-.3 3.1-.7l-1.5-1.5c-.5.1-1 .2-1.6.2zM-220.9 413.4l-12.6-12.6c-1.2-1.2-3.1-1.2-4.3 0l-20.1 20.1c-1.2 1.2-1.2 3.1 0 4.3l12.6 12.6c1.2 1.2 3.1 1.2 4.3 0l20.1-20.1c1.2-1.2 1.2-3.1 0-4.3zm-32.3 9.3l5-5 2.5 2.5-5 5-2.5-2.5zm7.5 12.6l-2.9-2.9 22.3-22.3 2.9 2.9-22.3 22.3z"/></svg>