<svg xmlns="http://www.w3.org/2000/svg" width="512" height="512" viewBox="0 0 487.23 487.23"><g fill="#4d4d4d"><path d="M78.652 203.288c13.906 0 26.466-7.77 31.845-19.708 22.208-49.246 74.429-83.952 135.308-83.952 33.553 0 64.315 10.703 88.977 28.456l-19.33 2.786c-6.603.952-11.74 5.828-12.635 11.99-.896 6.158 2.67 12.133 8.76 14.68l106.302 44.51c4.66 1.947 10.058 1.573 14.353-.996 4.287-2.572 6.892-6.988 6.92-11.739l.552-109.013c.037-6.202-4.307-11.686-10.674-13.494-6.379-1.808-13.27.486-16.96 5.649L397.418 92.95c-39.064-35.79-92.593-57.915-151.613-57.915-89.491 0-166.434 50.864-199.25 123.157-4.557 10.02-3.408 21.494 3.045 30.559 6.452 9.069 17.36 14.536 29.052 14.536zM442.01 283.88c-6.453-9.069-17.361-14.536-29.053-14.536-13.905 0-26.466 7.77-31.844 19.709-22.21 49.246-74.43 83.952-135.308 83.952-33.555 0-64.316-10.704-88.98-28.457l19.332-2.783c6.602-.953 11.738-5.83 12.635-11.992.896-6.158-2.67-12.134-8.76-14.68l-106.301-44.51c-4.66-1.947-10.058-1.575-14.354.995-4.287 2.573-6.892 6.988-6.92 11.738l-.552 109.014c-.037 6.202 4.305 11.686 10.674 13.494 6.378 1.808 13.27-.488 16.96-5.65l14.651-20.495c39.064 35.792 92.593 57.916 151.614 57.916 89.493 0 166.432-50.863 199.247-123.155 4.56-10.02 3.412-21.493-3.04-30.56z"/></g></svg>