<svg xmlns="http://www.w3.org/2000/svg" viewBox="0 0 60 60"><path d="M33.81 11.323l7.918-2.422.512 1.673-7.918 2.422z"/><path d="M40.711 10.156l1.538-.838 9.7 17.801-1.538.838z"/><path d="M31.91 26.063l.287-1.726 18.166 3.02-.287 1.727z"/><path d="M31.075 24.575l5.857-5.72 1.223 1.252-5.857 5.72z"/><path d="M32.87 12.996l1.477-.938 4.416 6.955-1.477.938z"/><path fill="#FFF" d="M29.884 10.184h4.245v4.245h-4.245z"/><path d="M34.629 14.929h-5.245V9.684h5.245v5.245zm-4.245-1h3.245v-3.245h-3.245v3.245z"/><path fill="#FFF" d="M39.32 8h4.245v4.245H39.32z"/><path d="M44.064 12.745h-5.245V7.5h5.245v5.245zm-4.245-1h3.245V8.5h-3.245v3.245z"/><path fill="#FFF" d="M48.755 25.755H53V30h-4.245z"/><path d="M53.5 30.5h-5.245v-5.245H53.5V30.5zm-4.245-1H52.5v-3.245h-3.245V29.5z"/><g><path fill="#FFF" d="M36.19 17.32h4.245v4.245H36.19z"/><path d="M40.936 22.064H35.69V16.82h5.245v5.244zm-4.246-1h3.245V17.82H36.69v3.244z"/></g><g><path fill="#FFF" d="M29 22.748h4.245v4.245H29z"/><path d="M33.745 27.493H28.5v-5.245h5.245v5.245zm-4.245-1h3.245v-3.245H29.5v3.245z"/></g><g><path d="M23.5 35.4l7.6-.7c.6-.1 1.1-.5 1.2-1 .2-.6-.1-1.2-.5-1.5L12.3 18c-.4-.3-1-.4-1.5-.1-.5.2-.8.7-.8 1.3l-.3 24.1c0 .6.4 1.1.9 1.3.6.2 1.2.1 1.6-.4l5.1-5.7 5 10c.2.3.5.6.8.7.4.1.7.1 1.1-.1l3.6-1.8c.7-.4 1-1.2.6-1.9l-4.9-10z"/></g></svg>