<svg id="Layer_1" xmlns="http://www.w3.org/2000/svg" viewBox="-267 390.9 60 60"><style>.st0{fill:none}.st1{fill:#fff}</style><title>Layer 1</title><g><path class="st0" d="M-235.9 404.4h-3.6v-.9l-11 2.9v2.3l4.6 8.7h3.4v8h-3.2l-7.8 7.4v.3l33 5.6v-1.2z"/><path class="st1" d="M-257.5 402.4h6v6h-6zM-238.5 397.4h6v6h-6zM-219.5 438.4h6v6h-6z"/><path d="M-216.1 437.4l-15.4-33.1v-7.9h-8v3l-11 2.9v-.9h-8v8h3.9l4.2 8h-.1v7l-6.2 6h-4.8v8h8v-1.2l33 5.6v2.6h8v-8h-3.6zm2.6 7h-6v-6h6v6zm-19-47v6h-6v-6h6zm-25 5h6v6h-6v-6zm8 16h6v6h-6v-6zm-5 19h-6v-6h6v6zm1-4.3v-.3l7.8-7.5h3.2v-8h-3.4l-4.6-8.7v-2.3l11-2.9v.9h3.6l15.4 33.1v1.2l-33-5.5z"/><path class="st1" d="M-249.5 418.4h6v6h-6zM-260.5 431.4h6v6h-6z"/></g></svg>