<svg xmlns="http://www.w3.org/2000/svg" viewBox="-267 390.9 60 60"><path d="M-207.1 446.8l-5.7-19.9c-.2-.6-.7-1-1.4-1h-2.4V436c0 2.4-1.9 4.3-4.3 4.3h-32.3c-2.4 0-4.3-1.9-4.3-4.3v-10.2h-2.4c-.6 0-1.2.4-1.4 1l-5.7 19.9c-.1.4 0 .9.2 1.3.3.4.7.6 1.1.6h57.1c.4 0 .9-.2 1.1-.6.5-.3.6-.8.4-1.2zM-257 415.4l20-17.2 20 17.2c.4.3.9.5 1.4.5.6 0 1.2-.3 1.6-.7.8-.9.7-2.3-.2-3l-21.4-18.4c-.8-.7-2-.7-2.8 0l-21.4 18.4c-.9.8-1 2.1-.2 3 .7.8 2.1.9 3 .2z"/><path d="M-237.9 400.9l-16.1 13.9c-.3.3-.5.7-.5 1.1V436c0 .8.6 1.4 1.4 1.4h32.3c.8 0 1.4-.6 1.4-1.4v-20.1c0-.4-.2-.8-.5-1.1l-16.1-13.9c-.6-.5-1.4-.5-1.9 0zm-.5 30.2c0 .8-.6 1.4-1.4 1.4h-5c-.8 0-1.4-.6-1.4-1.4v-5c0-.8.6-1.4 1.4-1.4h5c.8 0 1.4.6 1.4 1.4v5zm0-10.7c0 .8-.6 1.4-1.4 1.4h-5c-.8 0-1.4-.6-1.4-1.4v-5c0-.8.6-1.4 1.4-1.4h5c.8 0 1.4.6 1.4 1.4v5zm2.8-5c0-.8.6-1.4 1.4-1.4h5c.8 0 1.4.6 1.4 1.4v5c0 .8-.6 1.4-1.4 1.4h-5c-.8 0-1.4-.6-1.4-1.4v-5zm0 10.7c0-.8.6-1.4 1.4-1.4h5c.8 0 1.4.6 1.4 1.4v5c0 .8-.6 1.4-1.4 1.4h-5c-.8 0-1.4-.6-1.4-1.4v-5z"/></svg>