<svg xmlns="http://www.w3.org/2000/svg" id="Layer_1" viewBox="-509 396 60 60" width="60" height="60"><style id="style3">.st0{opacity:.7;fill:#fff}</style><g id="g5"><path class="st0" id="polygon17" transform="matrix(.99993 0 0 1.06733 -.305 -29.453)" opacity=".7" fill="#fff" d="M-493.8 405.4v25.4h2.5l8.7-20.6 5.6 2.3v-7.1z"/><path class="st0" id="polygon19" transform="matrix(1.2941 0 0 1.25383 139.905 -110.56)" opacity=".7" fill="#fff" d="M-485.7 430.8l6.1-14.2 2.6 1.1v-5.2l-5.6-2.3-8.7 20.6z"/><path class="st0" id="polygon21" transform="matrix(1.2941 0 0 1.25383 139.905 -110.56)" opacity=".7" fill="#fff" d="M-485.7 430.8l6.1-14.2 2.6 1.1v-5.2l-5.6-2.3-8.7 20.6z"/><path id="polygon23" transform="matrix(1.2941 0 0 1.25383 139.905 -110.56)" d="M-479.6 416.6l-6.1 14.2h8.7v-13.1z"/><path class="st0" id="polygon25" transform="matrix(1.2941 0 0 1.25383 139.905 -110.56)" opacity=".7" fill="#fff" d="M-479.6 416.6l-6.1 14.2h8.7v-13.1z"/><path class="st0" id="polygon27" transform="matrix(1.2941 0 0 1.25383 139.905 -110.56)" opacity=".7" fill="#fff" d="M-479.6 416.6l-6.1 14.2h8.7v-13.1z"/><rect id="rect4165" width="22.68" height="33.067" x="-262.85" y="562.4" ry="0" transform="matrix(.92472 .38064 -.42067 .90721 0 0)" fill="#434343" stroke="#000" stroke-width=".134"/><path id="rect4161-0" transform="matrix(.98158 .19107 -.22978 .97324 0 0)" fill="#7d7d7d" fill-opacity=".678" stroke="#000" stroke-width=".141" d="M-381.394 491.135h23.074v29.764h-23.074z"/><path id="rect4161" fill="#c5c5c5" fill-opacity=".822" stroke="#000" stroke-width=".127" d="M-495.823 403.878h18.495v25.696h-18.495z"/></g></svg>