<svg id="Layer_1" xmlns="http://www.w3.org/2000/svg" viewBox="-281 404.9 32 32"><style>.st0{fill:#424141}.st1{fill:#fcfcfc}</style><path class="st0" d="M-263.7 423.4l-3.5-3.2 4.1-4.5 3.1 2.9 5.7-7.6h-22.3l7.9 10.4v11.7l5.8-2.6-4-3.6z"/><path class="st0" d="M-257 423l3.3-3.5-2.6-2.4-3.2 3.6-3.5-3.2-2.5 2.6 3.6 3.2-3.2 3.5 2.5 2.3 3.2-3.5 3.6 3.3 2.4-2.6z"/><path class="st1" d="M-255.2 423l3.2-3.5-4.4-4.1-3.3 3.6-3.5-3.2-4.1 4.4 3.6 3.2-3.2 3.5 4.4 4 3.2-3.5 3.6 3.3 4-4.4-3.5-3.3zm-.6 5.9l-3.6-3.3-3.2 3.5-2.5-2.3 3.2-3.5-3.6-3.2 2.4-2.6 3.5 3.2 3.3-3.6 2.5 2.4-3.2 3.5 3.6 3.3-2.4 2.6z"/></svg>