<svg id="Layer_1" xmlns="http://www.w3.org/2000/svg" viewBox="0 0 36.3 36"><style>.st0{fill:#424141}.st1{enable-background:new}.st2{fill:#fff}</style><ellipse id="path3337" class="st0" cx="17.2" cy="18.5" rx="15.9" ry="15.7"/><g class="st1"><path class="st2" d="M15.3 7.5h3.8l-.6 16.3h-2.6l-.6-16.3zm0 20.3c0-.2.1-.5.2-.7.1-.2.2-.4.4-.6.2-.2.4-.3.6-.4s.5-.1.7-.1c.3 0 .5 0 .7.1s.4.2.6.4c.2.2.3.4.4.6.1.2.2.4.2.7 0 .3-.1.5-.2.7-.1.2-.2.4-.4.6-.2.2-.4.3-.6.4s-.5.1-.7.1c-.3 0-.5 0-.7-.1s-.4-.2-.6-.4c-.2-.2-.3-.4-.4-.6-.1-.2-.2-.5-.2-.7z"/></g></svg>