<svg id="Layer_1" xmlns="http://www.w3.org/2000/svg" viewBox="-267 390.9 60 60"><style>.st0{fill:none}.st1{fill:#fff}</style><path class="st0" d="M-231.4 402.4H-242c-1.1 0-2.1 2-2.4 3.4h15.4c-.3-1.4-1.2-3.4-2.4-3.4z"/><path d="M-257.7 442.1h.8c.7 0 1.2-.5 1.2-1.2v-33.8c0-.7-.5-1.2-1.2-1.2h-.8c-2.7 0-5.9 2.2-5.9 4.9v26.4c0 2.7 3.2 4.9 5.9 4.9zM-210.4 410c-.5-2.3-3.4-4.1-5.8-4.1h-.7c-.7 0-1.2.5-1.2 1.2v33.8c0 .7.5 1.2 1.2 1.2h.7c2.4 0 5.3-1.8 5.8-4.1v-28z"/><path class="st0" d="M-231.4 402.4H-242c-1.1 0-2.1 2-2.4 3.4h15.4c-.3-1.4-1.2-3.4-2.4-3.4z"/><path d="M-221.4 405.9h-4.6c-.3-2.7-2.4-6.2-4.9-6.2h-11.7c-2.5 0-4.5 3.5-4.9 6.2h-5c-.7 0-1.2.5-1.2 1.2v33.8c0 .7.5 1.2 1.2 1.2h31c.7 0 1.2-.5 1.2-1.2v-33.8c.1-.7-.4-1.2-1.1-1.2zm-20.6-3.5h10.7c1.1 0 2.1 2 2.4 3.4h-15.4c.2-1.4 1.1-3.4 2.3-3.4zm6.1 31.5c-1.4 0-2.8-.4-3.9-.9l1.9-1.9c.6.1 1.3.3 2 .3 3.5 0 6.4-2.9 6.4-6.4 0-3.5-2.9-6.4-6.4-6.4-3.5 0-6.4 2.9-6.4 6.4h2.1l-3.4 3.3-3.4-3.3h2.1c0-4.9 4-8.9 8.9-8.9s8.9 4 8.9 8.9c.1 4.9-3.9 8.9-8.8 8.9z"/><path class="st1" d="M-235.9 416.1c-4.9 0-8.9 4-8.9 8.9h-2.1l3.4 3.3 3.4-3.3h-2.1c0-3.5 2.9-6.4 6.4-6.4 3.5 0 6.4 2.9 6.4 6.4 0 3.5-2.9 6.4-6.4 6.4-.8 0-1.4-.1-2-.3l-1.9 1.9c1.1.5 2.5.9 3.9.9 4.9 0 8.9-4 8.9-8.9-.1-4.9-4.1-8.9-9-8.9z"/></svg>