<svg id="Layer_1" xmlns="http://www.w3.org/2000/svg" viewBox="-267 390.9 60 60"><style>.st0{fill:none}</style><path class="st0" d="M-237 403.1c-9.9 0-17.8 8-17.8 17.8s8 17.8 17.8 17.8 17.8-8 17.8-17.8-7.9-17.8-17.8-17.8zm-4.5 34.9l-12.8-12.7 17.6-4.6 4.7-16.8 12.1 12.4-16.8 4.4-4.8 17.3z"/><path d="M-237 400.7c-11 0-20.2 8.9-20.2 20.2s8.9 20.2 20.2 20.2 20.2-8.9 20.2-20.2-8.9-20.2-20.2-20.2zm0 38c-9.9 0-17.8-8-17.8-17.8s8-17.8 17.8-17.8 17.8 8 17.8 17.8-7.9 17.8-17.8 17.8z"/><path d="M-241.5 438l4.8-17.4-17.6 4.7zM-232 403.8l-4.7 16.8 16.8-4.4z"/></svg>