<svg xmlns="http://www.w3.org/2000/svg" viewBox="0 0 60 60"><path fill="#FFF" d="M39.708 51.337H14a2.042 2.042 0 0 1-2.042-2.042V15.208c0-1.128.914-2.042 2.042-2.042h25.708c1.128 0 2.042.914 2.042 2.042v34.087a2.042 2.042 0 0 1-2.042 2.042z"/><path fill="#FFF" d="M30.722 37.694l-2.101 2.938L18 41l-1-1v-4h4l9-1z"/><path d="M35.669 45.775c-.336.475-.828.82-1.389.975l-2.79.762a2.477 2.477 0 0 1-2.103-.358 2.49 2.49 0 0 1-1.062-1.834l-.245-2.881a2.468 2.468 0 0 1 .437-1.659l.103-.148h-9.952a1.463 1.463 0 0 1-1.454-1.463c0-.804.651-1.466 1.454-1.466h12.046l1.303-1.861 1.389-1.984H18.668a1.463 1.463 0 0 1-1.454-1.465c0-.803.651-1.465 1.454-1.465l16.811-.043 1.368-1.962 4.936-7.077v-6.693c0-1.1-.851-1.988-1.948-1.988h-4.826v3.819c0 1.803-1.474 3.229-3.274 3.229h-9.706a3.202 3.202 0 0 1-3.227-3.229v-3.819h-4.878a1.987 1.987 0 0 0-1.988 1.988v34.153c0 1.1.89 2.037 1.988 2.037h25.909c1.1 0 1.949-.938 1.949-2.037V37.094l-6.113 8.681zM18.668 24.153h16.424c.801 0 1.453.661 1.453 1.464 0 .803-.652 1.465-1.453 1.465H18.668a1.463 1.463 0 0 1-1.454-1.465c0-.804.651-1.464 1.454-1.464z"/><path d="M22.056 18.292h9.697c.734 0 1.331-.596 1.331-1.332v-5.577c0-.736-.597-1.332-1.331-1.332h-1.461a3.414 3.414 0 0 0-6.826 0h-1.41a1.33 1.33 0 0 0-1.331 1.332v5.576c0 .736.595 1.333 1.331 1.333zm4.824-9.745a1.52 1.52 0 0 1 1.521 1.505h-3.045a1.524 1.524 0 0 1 1.524-1.505zM54.05 15.634a.948.948 0 0 0-.392-.609l-2.428-1.692a.937.937 0 0 0-1.311.233L32.72 38.229 36.693 41l17.201-24.662a.95.95 0 0 0 .156-.704zM30.011 42.257l.249 2.896a.556.556 0 0 0 .236.412.573.573 0 0 0 .321.104.528.528 0 0 0 .147-.021l2.805-.768a.57.57 0 0 0 .313-.22l1.053-1.51-3.976-2.772-1.053 1.51a.546.546 0 0 0-.095.369zM15.906 23.031h21.125v4.5H15.906z"/><path d="M16.385 35.698l.375-6.667 5.167-2.25 9.958-1.75 5.763 2.712-6.547 9.377z"/><path fill="none" stroke="#FFF" stroke-width="2.5" stroke-linecap="round" stroke-linejoin="round" stroke-miterlimit="10" d="M18.406 27.187h3.75l1.937 3.219 3.813-6.5 2 3.375h4.312"/></svg>