<svg id="Layer_1" xmlns="http://www.w3.org/2000/svg" viewBox="-267 390.9 60 60"><style>.st0{fill:none}</style><path d="M-216.4 435.5H-230c-.9 0-1.6-.8-1.6-1.6 0-.9.8-1.6 1.6-1.6h13.5c.9 0 1.6.8 1.6 1.6.1.9-.7 1.6-1.5 1.6z"/><path transform="rotate(-45.001 -249.558 423.082)" class="st0" d="M-253.1 421.3h7.1v3.6h-7.1z"/><path transform="rotate(-134.999 -236.045 424.256)" class="st0" d="M-238.1 408.5h4.1V440h-4.1z"/><path d="M-221.1 415l-12.6-12.6c-1.2-1.2-3.1-1.2-4.3 0l-20.1 20.1c-1.2 1.2-1.2 3.1 0 4.3l12.6 12.6c1.2 1.2 3.1 1.2 4.3 0l20.1-20.1c1.3-1.2 1.3-3.1 0-4.3zm-32.2 9.3l5-5 2.5 2.5-5 5-2.5-2.5zm7.5 12.6l-2.9-2.9 22.3-22.3 2.9 2.9-22.3 22.3z"/></svg>