<svg id="Layer_1" xmlns="http://www.w3.org/2000/svg" viewBox="-267 390.9 60 60"><style>.st0{fill:none}.st1{fill:#fff}.st2{fill:#010101}</style><path class="st0" d="M-225.2 431.3c-.3.1-.6.2-1 .3.4-.1.7-.2 1-.3zM-226.1 431.6c-.3.1-.7.2-1 .3.3-.1.7-.2 1-.3zM-224.4 438h2.8-2.8zM-227.9 432.2c.1 0 .2-.1.4-.1-.1 0-.2.1-.4.1zM-218.1 432.2c-.1 0-.2-.1-.4-.1.2 0 .3.1.4.1zM-221.6 431c.7.2 1.8.6 2.7.9-.9-.3-2-.7-2.7-.9zM-218.1 432.2c-1.6-2.2-3.2-4.4-4.9-6.5 1.7 2.2 3.3 4.3 4.9 6.5zM-224.7 431.1c.1 0 .3-.1.4-.1-.2.1-.3.1-.4.1z"/><path class="st1" d="M-223 424.2c-4.2 0-7.6 3.4-7.6 7.6s3.4 7.6 7.6 7.6 7.6-3.4 7.6-7.6-3.4-7.6-7.6-7.6zm4.9 8c-.1 0-.2-.1-.4-.1-.1 0-.3-.1-.4-.1-.9-.3-2-.7-2.7-.9v7h-2.8v-7c-.1 0-.2.1-.4.1-.1 0-.3.1-.4.1-.3.1-.6.2-1 .3-.3.1-.7.2-1 .3-.1.1-.3.1-.4.1-.1 0-.3.1-.4.1 1.6-2.2 3.2-4.4 4.9-6.5 1.8 2.2 3.4 4.4 5 6.6z"/><path d="M-223 423.2c-4.7 0-8.6 3.8-8.6 8.6s3.8 8.6 8.6 8.6 8.6-3.8 8.6-8.6-3.8-8.6-8.6-8.6zm0 16.2c-4.2 0-7.6-3.4-7.6-7.6s3.4-7.6 7.6-7.6 7.6 3.4 7.6 7.6-3.4 7.6-7.6 7.6z"/><path class="st2" d="M-218.1 432.2c-1.6-2.2-3.2-4.3-4.9-6.5-1.7 2.1-3.3 4.3-4.9 6.5.1 0 .2-.1.4-.1.1 0 .3-.1.4-.1.3-.1.6-.2 1-.3.3-.1.7-.2 1-.3.1-.1.3-.1.4-.1.1 0 .3-.1.4-.1v7h2.8v-7c.7.2 1.8.6 2.7.9.1.1.3.1.4.1.1-.1.2 0 .3 0z"/><path d="M-220.2 411.6c0-2-.8-4-2.2-5.4-1.4-1.4-3.4-2.2-5.4-2.2-2 0-4 .8-5.4 2.2l-15.3 15.3c-1 1.1-1.6 2.5-1.6 4 .1 1.4.6 2.6 1.6 3.6s2.4 1.6 3.8 1.6 2.8-.6 3.8-1.6l11.7-11.7c.3-.3.5-.7.5-1.1 0-.9-.7-1.6-1.6-1.6-.4 0-.8.2-1.1.5l-11.7 11.7c-.4.4-1 .6-1.6.6-.6 0-1.1-.2-1.5-.6-.4-.4-.6-.9-.6-1.5s.2-1.2.6-1.6l15.3-15.3c.8-.8 2-1.3 3.1-1.3 1.2 0 2.3.5 3.1 1.3.8.8 1.3 2 1.3 3.1 0 1-.8 2.7-1.8 3.7L-243 433c-2.6 2.6-6.8 2.6-9.4.1l-.2-.2c-2.5-2.6-2.5-6.8.1-9.4l14.6-14.6c.3-.3.5-.7.5-1.1 0-.9-.7-1.6-1.6-1.6-.4 0-.8.2-1.1.5l-14.7 14.7c-1.4 1.4-2.3 3.2-2.7 5v4.1c.4 1.8 1.2 3.5 2.6 4.9l.2.2c3.9 3.7 10.1 3.7 13.9-.1l17.7-17.7c1.4-1.6 2.9-4 2.9-6.2z"/></svg>