<svg id="Layer_2" xmlns="http://www.w3.org/2000/svg" viewBox="-267 390.9 60 60"><style>.st0{fill:none}.st1{fill:#fff}</style><circle class="st0" cx="-237.1" cy="402.4" r="1.6"/><path class="st1" d="M-229.9 431c-.7 0-1.3.6-1.3 1.3 0 .7.6 1.3 1.3 1.3.5 0 1-.3 1.2-.8.1-.2.1-.3.1-.5 0-.7-.6-1.3-1.3-1.3z"/><path class="st1" d="M-222.9 406.6c0 .8 0 3.3-2.6 3.4h-22.9c-1.2 0-2.6-.6-2.7-3.4v-2.3h-5.1v34.4h38.3v-34.5h-5.1l.1 2.4zm-4.5 27.2c-1 1.6-3.2 1.9-4.5.6l-10.2-10.2c-.1-.1-.2-.2-.4-.2-2.9.2-5.3-2-5.3-4.8 0-.6.1-1.1.4-1.7 0 .1.1.2.2.2l2.5 2.5c.6.5 1.2.5 1.7 0l1.1-1.1c.5-.5.5-1.1 0-1.6-.9-.9-1.8-1.8-2.7-2.6l-.2-.2c.7-.3 1.4-.4 2.2-.4 2.9.2 5 2.7 4.6 5.6 0 .2.1.3.2.4 3.4 3.3 6.7 6.7 10.1 10.1.8.9 1 2.3.3 3.4z"/><path d="M-224.4 402.9v3.7c0 1.9-.6 1.9-1.2 1.9h-22.9c-.4 0-1.1 0-1.2-1.9v-3.8h-8.1v37.4h41.3v-37.5h-7.9zm6.6 36h-38.3v-34.4h5.1v2.3c0 2.8 1.5 3.4 2.7 3.4h22.9c2.6-.1 2.6-2.6 2.6-3.4v-2.2h5.1v34.3z"/><path d="M-226.8 401h-6.6c-.6-1.3-2-2.3-3.7-2.3-1.7 0-3.2 1-3.7 2.3h-6.6v5.4h20.7V401zm-10.3 3c-.9 0-1.6-.7-1.6-1.6 0-.9.7-1.6 1.6-1.6s1.6.7 1.6 1.6c0 .9-.8 1.6-1.6 1.6zM-237.9 420.2c-.1-.1-.2-.2-.2-.4.4-2.9-1.7-5.4-4.6-5.6-.7 0-1.5.1-2.2.4l.2.2c.9.9 1.8 1.8 2.7 2.6.5.5.5 1.1 0 1.6l-1.1 1.1c-.5.5-1.2.5-1.7 0l-2.5-2.5-.2-.2c-.3.6-.4 1.2-.4 1.7.1 2.9 2.4 5.1 5.3 4.8.2 0 .3 0 .4.2l10.2 10.2c1.3 1.3 3.5 1 4.5-.6.7-1.2.5-2.6-.5-3.6-3.2-3.2-6.6-6.5-9.9-9.9zm9.2 12.6c0 .1-.1.1 0 0-.2.5-.7.8-1.2.8-.7 0-1.3-.6-1.3-1.3 0-.7.6-1.3 1.3-1.3.7 0 1.3.6 1.3 1.3 0 .2-.1.4-.1.5z"/></svg>