<svg xmlns="http://www.w3.org/2000/svg" viewBox="-267 390.9 60 60"><path d="M-217.4 435.5H-231c-.9 0-1.6-.8-1.6-1.6 0-.9.8-1.6 1.6-1.6h13.5c.9 0 1.6.8 1.6 1.6.1.9-.7 1.6-1.5 1.6zM-221 411.3c0-2-.8-4-2.2-5.4s-3.4-2.2-5.4-2.2-4 .8-5.4 2.2l-15.3 15.3c-1 1.1-1.6 2.5-1.6 4 .1 1.4.6 2.6 1.6 3.6s2.4 1.6 3.8 1.6 2.8-.6 3.8-1.6l11.7-11.7c.3-.3.5-.7.5-1.1 0-.9-.7-1.6-1.6-1.6-.4 0-.8.2-1.1.5l-11.7 11.7c-.4.4-1 .6-1.6.6s-1.1-.2-1.5-.6-.6-.9-.6-1.5.2-1.2.6-1.6l15.3-15.3c.8-.8 2-1.3 3.1-1.3 1.2 0 2.3.5 3.1 1.3.8.8 1.3 2 1.3 3.1 0 1-.8 2.7-1.8 3.7l-17.7 17.7c-2.6 2.6-6.8 2.6-9.4.1l-.2-.2c-2.5-2.6-2.5-6.8.1-9.4l14.6-14.6c.3-.3.5-.7.5-1.1 0-.9-.7-1.6-1.6-1.6-.4 0-.8.2-1.1.5l-14.7 14.7c-1.4 1.4-2.3 3.2-2.7 5v4.1c.4 1.8 1.2 3.5 2.6 4.9l.2.2c3.9 3.7 10.1 3.7 13.9-.1l17.7-17.7c1.4-1.6 2.8-4 2.8-6.2z"/></svg>