<svg id="Layer_1" xmlns="http://www.w3.org/2000/svg" viewBox="-267 390.9 60 60"><style>.st0{fill:none}</style><path d="M-216.4 431.2h-5.1v-5.1c0-.9-.8-1.6-1.6-1.6s-1.6.8-1.6 1.6v5.1h-5.1c-.9 0-1.6.8-1.6 1.6 0 .9.8 1.6 1.6 1.6h5.1v5.1c0 .9.8 1.6 1.6 1.6s1.6-.8 1.6-1.6v-5.1h5.1c.9 0 1.6-.8 1.6-1.6s-.8-1.6-1.6-1.6z"/><path transform="rotate(134.999 -249.57 421.957)" class="st0" d="M-253.1 420.2h7.1v3.6h-7.1z"/><path transform="rotate(45.001 -236.083 423.17)" class="st0" d="M-238.1 407.4h4.1v31.5h-4.1z"/><path d="M-221 413.8l-12.6-12.6c-1.2-1.2-3.1-1.2-4.3 0l-20.1 20.1c-1.2 1.2-1.2 3.1 0 4.3l12.6 12.6c1.2 1.2 3.1 1.2 4.3 0l20.1-20.1c1.2-1.2 1.2-3.1 0-4.3zm-32.3 9.3l5-5 2.5 2.5-5 5-2.5-2.5zm7.6 12.6l-2.9-2.9 22.3-22.3 2.9 2.9-22.3 22.3z"/></svg>