<svg xmlns="http://www.w3.org/2000/svg" viewBox="0 0 60 60"><g fill="#231F20"><path d="M42.1 15.5h-6.7v2.3c0 .2 0 .5-.1.7h6.8c.1 0 .2.1.2.2v26.9H26V26.8c-.2-.1-.4-.3-.6-.5L23 23.7v25.2c0 1.7 1.4 3.1 3.1 3.1h16c1.7 0 3.1-1.4 3.1-3.1V18.6c.1-1.7-1.4-3.1-3.1-3.1zm-8 31.5c1 0 1.7.8 1.7 1.7 0 1-.8 1.7-1.7 1.7-1 0-1.7-.8-1.7-1.7 0-.9.8-1.7 1.7-1.7z"/><path d="M27.6 24.3c.1.1.1.1.2.1h.1c.1 0 .2-.2.2-.3v-4.5h2.5c1 0 1.7-.8 1.7-1.7v-8c0-1-.8-1.7-1.7-1.7H14.5c-1 0-1.7.8-1.7 1.7v8c0 1 .8 1.7 1.7 1.7h8.8l4.3 4.7zM16.2 11.7h4c.3 0 .6.3.6.6s-.3.6-.6.6h-4c-.3 0-.6-.3-.6-.6s.3-.6.6-.6zm-.6 3.4c0-.3.3-.6.6-.6h8c.3 0 .6.3.6.6s-.3.6-.6.6h-8c-.3 0-.6-.3-.6-.6z"/></g></svg>