<svg xmlns="http://www.w3.org/2000/svg" viewBox="0 0 60 60"><path fill="none" d="M11.3 30c2 3.3 4.9 5.9 8.2 7.7-1.6-2.2-2.5-4.8-2.5-7.7s.9-5.5 2.5-7.7c-3.3 1.8-6.2 4.4-8.2 7.7zM30 34.5c-2.5 0-4.5-2-4.5-4.5s2-4.5 4.5-4.5c2 0 3.6 1.3 4.2 3l3.2-5.8c-1.9-1.9-4.5-3.1-7.4-3.1-5.7 0-10.4 4.7-10.4 10.4 0 5 3.5 9.1 8.2 10.1l3.2-5.8c-.3.1-.7.2-1 .2zM40.4 30c0-.8-.1-1.6-.3-2.3l-6.7 12.1c4-1.4 7-5.3 7-9.8zM43 30c0 2.9-.9 5.5-2.5 7.7 3.3-1.8 6.1-4.4 8.2-7.7-1.6-2.6-3.8-4.8-6.3-6.5l-.6 1.1c.8 1.6 1.2 3.5 1.2 5.4z"/><path fill="#1E242B" d="M51.4 29.3c-1.9-3.3-4.5-6.1-7.7-8.2l-1.3 2.4c2.5 1.7 4.6 3.9 6.3 6.5-2 3.3-4.9 5.9-8.2 7.7 1.6-2.2 2.5-4.8 2.5-7.7 0-1.9-.4-3.8-1.2-5.4l-1.7 3.1c.2.7.3 1.5.3 2.3 0 4.5-2.9 8.4-7 9.8L31.6 43c3.9-.3 7.6-1.4 10.9-3.4 3.7-2.2 6.7-5.3 8.9-9l.4-.7-.4-.6zM40.8 15.6l-3-1.6c-.3-.2-.7-.1-.9.3l-1.8 3.3c-1.7-.5-3.4-.6-5.1-.6-4.4 0-8.8 1.2-12.5 3.4-3.7 2.2-6.7 5.3-8.9 9l-.4.6.4.7c2.1 3.7 5.2 6.8 8.9 9 1.4.8 2.8 1.5 4.3 2l-1 1.9c-.2.3-.1.7.3.9l3 1.6c.3.2.7.1.9-.3l16.3-29.3c0-.3-.1-.8-.5-.9zM19.5 37.7c-3.3-1.8-6.1-4.4-8.2-7.7 2-3.3 4.9-5.9 8.2-7.7-1.6 2.2-2.5 4.8-2.5 7.7s.9 5.5 2.5 7.7zM30 25.5c-2.5 0-4.5 2-4.5 4.5 0 1.1.4 2.1 1.1 2.8l-3 5.3c-2.4-1.9-4-4.8-4-8.2 0-5.7 4.6-10.4 10.4-10.4 1.3 0 2.4.2 3.6.6l-2.9 5.3c-.3.2-.5.1-.7.1z"/></svg>