<svg xmlns="http://www.w3.org/2000/svg" viewBox="0 0 256 256"><defs><style>.cls-1{fill:#231f20}</style></defs><title>tool-removeitem</title><g id="Layer_3" data-name="Layer 3"><g id="Layer_5" data-name="Layer 5"><path class="cls-1" d="M188.54 194.74V94.16h13.93V80.62h-7v-5.8a7.76 7.76 0 0 0-7.74-7.74h-26.27V63.6a23.45 23.45 0 0 0-23.6-23.6h-19.72a23.45 23.45 0 0 0-23.6 23.6v3.48H68.23a7.76 7.76 0 0 0-7.74 7.74v5.8h-7v13.54h14.36v101A20.8 20.8 0 0 0 88.73 216H168c11.26 0 20.54-9.66 20.54-21.26zM108.08 64a9.58 9.58 0 0 1 9.67-9.67h20.12a9.58 9.58 0 0 1 9.67 9.67v3.09h-39.46zM175 93.77V195.9a6 6 0 0 1-5.8 5.8H86.41a6 6 0 0 1-5.8-5.8V93.77z"/><path class="cls-1" d="M94.54 107.7h13.15v81.24H94.54zM121.62 107.7h13.15v81.24h-13.15zM148.31 107.7h13.15v81.24h-13.15z"/></g></g></svg>