<svg xmlns="http://www.w3.org/2000/svg" viewBox="0 0 60 60"><g fill="#FFF"><path d="M45.7 47.3v-26h3.6v-3.5h-1.8v-1.5c0-1.1-.9-2-2-2h-6.8v-.9c0-3.4-2.7-6.1-6.1-6.1h-5.1c-3.4 0-6.1 2.7-6.1 6.1v.9h-6.8c-1.1 0-2 .9-2 2v1.5h-1.8v3.5h3.7v26.1c0 3 2.4 5.4 5.4 5.4h20.5c2.9 0 5.3-2.5 5.3-5.5zM24.9 13.5c0-1.4 1.1-2.5 2.5-2.5h5.2c1.4 0 2.5 1.1 2.5 2.5v.8H24.9v-.8zm17.3 7.7v26.4c0 .8-.7 1.5-1.5 1.5H19.3c-.8 0-1.5-.7-1.5-1.5V21.2h24.4z"/><path d="M21.4 24.8h3.4v21h-3.4zM28.4 24.8h3.4v21h-3.4zM35.3 24.8h3.4v21h-3.4z"/></g></svg>