<svg id="Layer_1" xmlns="http://www.w3.org/2000/svg" viewBox="-41 164.9 512 512"><style>.st0{fill:none}</style><path class="st0" d="M215 195.8c-124.4 0-225.1 100.7-225.1 225.1S90.6 646 215 646s225.1-100.7 225.1-225.1S339.4 195.8 215 195.8zm-32.8 255.8v64l-128-128 128-128v64c106 0 192 86 192 192-64-96-192-64-192-64z"/><path d="M182.2 323.6v-64l-128 128 128 128v-64s128-32 192 64c0-106-86-192-192-192z"/><path d="M215 166.2c-139.2 0-254.7 112.5-254.7 254.7S72.8 675.6 215 675.6 469.7 563 469.7 420.9 357.2 166.2 215 166.2zm0 479.8C90.6 646-10.1 545.3-10.1 420.9S90.6 195.8 215 195.8s225.1 100.7 225.1 225.1S339.4 646 215 646z"/></svg>