<svg id="Upload" xmlns="http://www.w3.org/2000/svg" viewBox="-153 276.9 288 288"><style>.st0{fill:none}.st1{fill:#1f3661}</style><path class="st0" d="M-9 292.1c-72.8 0-132.1 57.8-132.1 128.8S-81.8 549.7-9 549.7s132.1-57.8 132.1-128.8S63.8 292.1-9 292.1zm0 43.5l52.8 65.6H15.1v70.7h-48.2v-70.7h-28.7L-9 335.6zm79.6 167H-88.6v-47.2h18.8v28.4H51.7v-28.4h18.8v47.2z"/><path class="st1" d="M-9 282.1c-78.4 0-142.1 62.3-142.1 138.8S-87.4 559.7-9 559.7c78.4 0 142.1-62.3 142.1-138.8S69.4 282.1-9 282.1zm0 267.6c-72.8 0-132.1-57.8-132.1-128.8S-81.8 292.1-9 292.1s132.1 57.8 132.1 128.8S63.8 549.7-9 549.7z"/><path class="st1" d="M51.7 483.8H-69.7v-28.4h-18.9v47.2H70.6v-47.2H51.7z"/><path class="st1" d="M-33.1 471.9h48.2v-70.7h28.7L-9 335.6l-52.8 65.6h28.7z"/></svg>