<svg id="Layer_1" xmlns="http://www.w3.org/2000/svg" viewBox="-509 396 60 60"><style>.st0{fill:#333}.st1{fill:#0094ff}</style><path class="st0" d="M-460.8 442.4c.4-.7.4-1.6.1-2.3l-16.2-30.4c-.4-.8-1.2-1.2-2.1-1.2-.9 0-1.7.5-2.1 1.2l-16.3 30.4c-.2.4-.3.8-.3 1.1 0 .4.1.8.3 1.1.4.7 1.2 1.1 2 1.1h32.5c1 .1 1.7-.3 2.1-1zm-18.2-3.6c-1.3 0-2.3-1-2.3-2.3 0-1.3 1.1-2.3 2.3-2.3 1.3 0 2.3 1 2.3 2.3.1 1.3-1 2.3-2.3 2.3zm2.4-9.3c0 1.3-1.1 2.3-2.3 2.3-1.3 0-2.3-1-2.3-2.3v-9.3c0-1.3 1.1-2.3 2.3-2.3 1.3 0 2.3 1 2.3 2.3v9.3z"/><path class="st1" d="M-479 434.2c-1.3 0-2.3 1-2.3 2.3 0 1.3 1.1 2.3 2.3 2.3 1.3 0 2.3-1 2.3-2.3.1-1.3-1-2.3-2.3-2.3zM-479 417.9c-1.3 0-2.3 1-2.3 2.3v9.3c0 1.3 1.1 2.3 2.3 2.3 1.3 0 2.3-1 2.3-2.3v-9.3c.1-1.3-1-2.3-2.3-2.3z"/></svg>