<svg id="Layer_1" xmlns="http://www.w3.org/2000/svg" viewBox="-411 298 256 256"><style>.st0{fill:url(#SVGID_1_);stroke:#015491;stroke-miterlimit:10}.st1{fill:#fff}.st2,.st3{fill:url(#SVGID_2_);stroke:#015491;stroke-miterlimit:10}.st3{fill:url(#SVGID_3_)}</style><radialGradient id="SVGID_1_" cx="-238.666" cy="476.425" r="18.989" gradientUnits="userSpaceOnUse"><stop offset="0" stop-color="#0081d4"/><stop offset="1" stop-color="#0068aa"/></radialGradient><path class="st0" d="M-231 464.3c-3.4-5.5-6.9-9.9-7-9.9-.2-.2-.4-.4-.7-.4-.3 0-.5.1-.7.4 0 0-3.5 4.5-7 9.9-4.7 7.5-7.1 13.3-7.1 17.2 0 9.6 6.6 17.3 14.8 17.3 8.1 0 14.8-7.8 14.8-17.3 0-4-2.4-9.8-7.1-17.2zm-6.2 28.9"/><path class="st1" d="M-237.2 493.2c-.8.2-1.6.3-2.4.3-5.7 0-10.3-5.4-10.3-12.1 0-.9.2-2.6 1.4-5.3.1-.3.4-.4.6-.3.2.1.4.4.4.7v.7c0 7.2 4.3 13.4 10.3 14.8.2.1.4.3.4.6s-.1.6-.4.6z"/><radialGradient id="SVGID_2_" cx="-296.033" cy="353.903" r="32.573" gradientUnits="userSpaceOnUse"><stop offset="0" stop-color="#0081d4"/><stop offset="1" stop-color="#0068aa"/></radialGradient><path class="st2" d="M-264.9 337.8c-4.5 0-8.5 2.5-10.5 6.2h-10.8c-1.7-3.7-5.4-6.2-9.7-6.2-4.3 0-8 2.5-9.7 6.2h-11.1c-2-3.7-6-6.2-10.5-6.2-6.6 0-12 5.4-12 12s5.4 12 12 12c4.4 0 8.2-2.3 10.3-5.8h11.9v14h18v-14h11.8c2.1 3.5 5.9 5.8 10.3 5.8 6.6 0 12-5.4 12-12s-5.4-12-12-12z"/><radialGradient id="SVGID_3_" cx="-288" cy="409.803" r="52.563" gradientUnits="userSpaceOnUse"><stop offset="0" stop-color="#0081d4"/><stop offset="1" stop-color="#0068aa"/></radialGradient><path class="st3" d="M-238 392.1l-41.2-.1v-7.4c0-3.9-3.1-7-7-7H-307c-3.9 0-7 3.1-7 7v7.4h-41v36h98v14h36v-32c0-9.6-7.5-17.4-17-17.9z"/></svg>