<svg xmlns="http://www.w3.org/2000/svg" width="256pt" height="256pt" viewBox="0 0 256 256"><path fill="#015491" d="M111.64 44.74c11.34-6.21 25.35-6.04 37.26-1.54 8.58 3.25 15.65 9.95 19.64 18.19 5.81 11.85 6.72 25.55 5.24 38.5 3.5.79 7.01 1.55 10.51 2.33-.39 2.09-.92 4.14-1.35 6.21-5.31-1.13-10.6-2.35-15.9-3.51 15.6 26.79 31.03 53.68 46.55 80.51 6.05 10.54-2.28 26.13-14.54 26.55-47.42.05-94.83 0-142.25.02-7.14-1.2-14.54-6.19-15.61-13.83-.5-5.65.1-11.76 3.31-16.6 19.4-33.03 38.49-66.24 57.82-99.3-7.19-.62-14.48.35-21.61-.32.83-3.2 1.14-6.72 2.36-9.72 1.77.4 3.52.88 5.29 1.28 4.26-11.78 12.15-22.67 23.28-28.77z"/><path fill="#0068aa" d="M99.61 57.6c7.48-9.41 19.34-16.29 31.6-15.46-3.92 2.25-8.15 4.42-10.82 8.2-5.16 6.8-7.74 16.05-5.01 24.35.57 2.98 2.07 5.75 4.77 7.28-4.77-.28-9.47-1.25-14.24-1.51-7.54-.71-15.11-.1-22.65-.49.2-1.63.57-3.23 1.07-4.79 1.78-.19 3.59-.1 5.34-.48 3.05-5.81 5.51-12.1 9.94-17.1z"/><path fill="#006fb6" d="M131.21 42.14c8.39-.25 16.96 1.97 23.98 6.63 9.76 6.57 14.74 18.26 16.26 29.59.71 7.19.15 14.42.26 21.62 1.81 3.92 7.56 1.95 10.32 4.85-.34.21-1 .63-1.33.84-3.71-.63-7.34-1.64-11.01-2.43-3.72-1.68-6.31-5.04-9.73-7.19-11.88-7.9-25.95-11.52-39.81-14.08-2.7-1.53-4.2-4.3-4.77-7.28-2.73-8.3-.15-17.55 5.01-24.35 2.67-3.78 6.9-5.95 10.82-8.2z"/><path fill="#fff" d="M132.44 48.38c1.21-1.94 3.76-1.22 5.65-1.13 5.79.68 11.96 1.25 16.93 4.59 6.39 6.23 12.06 14.07 13.02 23.19.26 4.51.28 9.19-1.32 13.48l-.85-.06c-1.36-6.39-.45-13.19-2.46-19.53-1.06-4.43-2.95-9.06-7.02-11.54-2.89-2.09-5.74-4.33-9.04-5.74-4.6-1.78-9.61-1.16-14.42-1.5-.12-.44-.37-1.32-.49-1.76z"/><path fill="#007ac8" d="M132.93 50.14c4.81.34 9.82-.28 14.42 1.5 3.3 1.41 6.15 3.65 9.04 5.74.97 5.23 2.91 10.69.97 15.95-2.55 6.07-8.58 11.1-15.42 10.82-5.85.61-11.33-2.84-14.52-7.54-2.95-3.79-2.96-8.94-2.2-13.45 1.14-5.43 5.78-9.17 10.44-11.64-.9-.47-1.81-.93-2.73-1.38z"/><path fill="#006eb4" d="M104.33 83.26c2.73-1.1 5.81-.22 8.65.04-.85 2.54-2.39 4.76-3.7 7.08-12.52 22-25.27 43.87-38.15 65.67-1.22 2.12-2.32 4.36-3.98 6.19-.94-4.08-1.3-8.26-1.35-12.43.77-2.34 2.18-4.39 3.39-6.51 11.69-20.02 23.13-40.22 35.14-60.04z"/><path fill="#fff" d="M58.86 181.01c19.25-32.36 37.8-65.15 56.97-97.55 9.52 1.2 18.99 3.25 27.95 6.73 1.2.43 1.58 1.78 2.24 2.75 16.55 28.83 32.93 57.77 49.32 86.7 2.38 4.65 4.06 10.44 1.69 15.43-1.53 3.4-5.42 5.05-8.98 4.93-40.7-.03-81.4.15-122.1.04-3.52-.11-7.29-1.77-8.82-5.11-2-4.49-1.35-10.06 1.73-13.92z"/><path fill="#0071b9" d="M148.84 92.79c3.94 1.04 7.26 3.54 10.61 5.75 1.83 1.16 3.26 2.83 4.28 4.73 9.95 17.13 19.99 34.22 29.64 51.52-.65 3.9-1.67 7.73-2.91 11.48-13.75-22.7-26.39-46.06-39.65-69.04-.84-1.4-1.55-2.87-1.97-4.44z"/><path fill="#015491" d="M105.45 108.3c3.2-2.52 8.17-1.14 9.99 2.39 2.32.22 4.68.12 7.02.05 1.77-4.9 9.18-4.78 10.95.06 2.16.01 4.32.01 6.48-.01 1.81-2.84 5.47-4.79 8.77-3.3 4.94 1.79 6.24 9.01 2.41 12.52-2.99 3.31-8.73 2.38-10.9-1.38-2.21-.56-4.67-.07-6.97-.23-.07 2.08.01 4.16-.03 6.25-3.57.03-7.13.02-10.69 0-.03-2.08 0-4.17.03-6.25-2.36-.01-4.72 0-7.07-.01-1.95 3.07-6.23 4.56-9.45 2.56-4.54-2.52-4.85-9.76-.54-12.65z"/><path fill="#006bb0" d="M108.27 109.3c2.67-.87 4.41 1.62 6.14 3.14 2.37.9 5.03.78 7.5.37 2.41-.47 3.42-3.75 6.02-3.73 2.67.04 3.31 3.79 6 3.66 2.22.1 4.53.33 6.69-.28 2.08-1.61 4.16-4.44 7.17-3.16 4.7 1.52 4.62 8.95.03 10.57-3.12 1.31-5.22-1.71-7.48-3.21-2.49-.51-5.14-.53-7.64-.03-1.97 1.31-1.24 4.08-1.96 6.05-2.09.19-4.2.18-6.29-.02-.13-1.81.42-3.82-.68-5.44-1.99-1.34-4.52-.98-6.79-.98-3.5-.47-5.01 4.61-8.65 3.34-4.99-.91-4.93-9.24-.06-10.28z"/><path fill="#015491" d="M118.78 133.74c2.35-2.64 6.19-1.38 9.27-1.67 2.8.2 6.2-.77 8.38 1.52 2 1.97 1.33 4.95 1.47 7.46 5.05.08 10.09-.08 15.14.01 7.56 1.84 14.46 7.06 17.51 14.37 2.74 5.2 1.27 11.2 1.6 16.82-7.06.03-14.12.03-21.18 0-.18-2.93-.01-5.87-.13-8.79-19.28.01-38.55.02-57.83-.01.06-7.5.03-15 .19-22.5 8.07-.29 16.42.47 24.31-.25.05-2.34-.59-5.11 1.27-6.96z"/><path fill="#0074be" d="M121.32 134.39c4.14-.34 8.34-.41 12.49-.12 3.26 1.46 1.63 5.73 2.48 8.48 5.82.61 11.69-.09 17.53.33l.05.55c-8.57 1.17-15.63 8.98-15.24 17.74-10.56.22-21.16.12-31.72-.21.2-6.11 1.67-12.05 3.26-17.92 2.5-.21 5.12.31 7.55-.46 3.52-1.45.26-6.76 3.6-8.39z"/><path fill="#006aae" d="M95.26 143.18c4.96-.18 9.97-.54 14.91.06-1.59 5.87-3.06 11.81-3.26 17.92-3.88.36-7.91.64-11.74-.2-.15-5.92-.1-11.86.09-17.78z"/><path fill="#007fd0" d="M138.63 161.37c-.39-8.76 6.67-16.57 15.24-17.74 6.62 1.44 12.17 6.45 14.83 12.62 2.3 4.27 1.36 9.27 1.36 13.91-5.69.14-11.4.23-17.09-.02-.53-2.74.95-6.52-1.64-8.45-4.21-.56-8.47-.03-12.7-.32z"/><path fill="#0068aa" d="M63.62 152.66c.56-1.07 1.26-2.06 2.18-2.85.05 4.17.41 8.35 1.35 12.43-.09 1.5-1.15 2.71-1.83 3.99-3.19 4.91-5.85 10.14-9.02 15.06-2.94 4.39-3.14 10.43-.71 15.08 1.77 3.49 5.72 5.14 9.42 5.58 12.43.57 24.95-.71 37.34.38-3.4.73-6.88.86-10.35.99 3.01 2.74 6.63 4.66 10.24 6.45-14.06.59-28.17.03-42.25.25-5.79.38-11.47-2.59-14.86-7.2-2.7-3.81-2.33-8.78-1.64-13.16.71-4.61 3.75-8.29 5.84-12.32 4.77-8.22 9.79-16.3 14.29-24.68zM193.37 154.79c1.82 1.96 2.82 4.5 4.17 6.77 4.85 8.46 9.66 16.95 14.55 25.39 5.01 10.01-3.69 24.03-15.1 23.05-11.42-.19-22.87.37-34.28-.22 4.18-2.03 8.21-4.38 11.66-7.52 5.69-.94 11.57.4 17.26-.68 4.83-.97 8.5-5.63 8.48-10.54.64-9.23-5.97-16.46-9.77-24.24l.12-.53c1.24-3.75 2.26-7.58 2.91-11.48z"/><path fill="#0078c5" d="M162.69 174.24c1.22 5.49 5.3 9.6 7.3 14.74.59 4.47-3.59 8.42-8.02 7.84-5.9.35-8.98-7.14-5.54-11.59l1.71-.65c-2.73 4.36-1.08 12.1 5.24 11.5-1.39-1.43-3.18-2.45-4.31-4.11-.73-3.93 1.79-7.27 2.86-10.86-.17-.99-1.02-1.76-.97-2.81.43-1.02 1.3-3.05 1.73-4.06z"/><path fill="#65a8d5" d="M156.43 185.23c1.2-2.49 2.83-4.79 4.53-6.93-.05 1.05.8 1.82.97 2.81-1.07 3.59-3.59 6.93-2.86 10.86 1.13 1.66 2.92 2.68 4.31 4.11-6.32.6-7.97-7.14-5.24-11.5l-1.71.65z"/><path fill="#006cb1" d="M102.35 202.33c1.86-.34 3.76-.33 5.64-.32 22.13.13 44.27-.35 66.38.25-3.45 3.14-7.48 5.49-11.66 7.52-20.14.32-40.33.37-60.47-.01-3.61-1.79-7.23-3.71-10.24-6.45 3.47-.13 6.95-.26 10.35-.99z"/></svg>