<svg xmlns="http://www.w3.org/2000/svg" viewBox="0 0 256 256"><radialGradient id="a" cx="146.364" cy="109.553" r="60.476" gradientUnits="userSpaceOnUse"><stop offset=".521" stop-color="#0081d4"/><stop offset="1" stop-color="#0068aa"/></radialGradient><path fill-rule="evenodd" clip-rule="evenodd" fill="url(#a)" stroke="#015491" stroke-miterlimit="10" d="M214.061 130.458l-13.228-13.522c-1.666-1.699-6.501.228-12.151 4.344l-5.651-5.814a46.94 46.94 0 0 0 2.101-2.968c-1.112.001-2.203-.362-3.107-1.236l-48.66-46.483a4.46 4.46 0 0 1-1.332-2.585 136.319 136.319 0 0 0-38.794-4.053l-10.779.425a4.64 4.64 0 0 0-4.05 2.875c-.653 1.665-.261 3.56.98 4.867a4.572 4.572 0 0 0 1.862 1.143l12.183 3.952a50.863 50.863 0 0 1 30.769 28.058l.359.85 4.203 4.31-8.254 8.07 24.171 24.726 8.244-8.077 4.005 4.092c1.665 1.698 6.5-.196 12.151-4.345l5.683 5.815c-4.246 5.553-6.271 10.355-4.638 12.02l13.229 13.523c2.352 2.417 11.106-2.352 19.598-10.649 8.46-8.297 13.425-16.953 11.106-19.338z"/><radialGradient id="b" cx="91.168" cy="165.552" r="49.505" gradientUnits="userSpaceOnUse"><stop offset=".521" stop-color="#0081d4"/><stop offset="1" stop-color="#0068aa"/></radialGradient><path fill-rule="evenodd" clip-rule="evenodd" fill="url(#b)" stroke="#015491" stroke-miterlimit="10" d="M68.226 214.728l25.829-24.691c.921-.89.965-2.323.182-3.306L141 141.417l-24.207-25.04-46.713 45.638a2.509 2.509 0 0 0-3.333.127L41.336 187l26.89 27.728z"/><radialGradient id="c" cx="168.839" cy="76.226" r="28.349" gradientUnits="userSpaceOnUse"><stop offset=".521" stop-color="#0081d4"/><stop offset="1" stop-color="#0068aa"/></radialGradient><path fill-rule="evenodd" clip-rule="evenodd" fill="url(#c)" stroke="#015491" stroke-miterlimit="10" d="M192.077 62.7c2.276-3.028 1.961-7.398-.859-10.121-2.856-2.71-7.344-2.768-10.277-.222-11.085-6.376-24.538-5.521-32.633 2.935-1.095 1.171-5.471 3.705-8.107 4.978l46.032 44.012a9.47 9.47 0 0 1 .374-.632c.768-1.591 3.235-6.141 4.486-7.451 8.29-8.684 8.393-22.583.984-33.499z"/><path fill-rule="evenodd" clip-rule="evenodd" fill="#015491" d="M171.364 48.725c3.106.63 6.19 1.786 9.132 3.382a5.056 5.056 0 0 1-.978 1.456l-14.203 14.872c-1.737 1.824-4.664 1.888-6.488.151-1.878-1.812-1.941-4.739-.173-6.557l12.71-13.304zM192.411 63.253a30.812 30.812 0 0 1 3.928 8.624l-13.103 13.668c-1.736 1.824-4.663 1.888-6.488.151-1.824-1.736-1.888-4.663-.151-6.487l14.204-14.871c.485-.514.974-.861 1.61-1.085zM189.146 107.596c-1.45 1.509-3.4 1.871-4.428.901l-48.654-46.515c-1.054-1.008-.756-2.946.695-4.454 1.407-1.45 3.299-1.856 4.385-.842l48.654 46.515c.994.965.723 2.94-.652 4.395z"/></svg>