<svg id="Layer_1" xmlns="http://www.w3.org/2000/svg" viewBox="-281 404.9 32 32"><style>.st0{fill:#7c0505}.st1{fill:#fff}</style><path class="st0" d="M-265 409.6c-6.2 0-11.2 5-11.2 11.2 0 6.2 5 11.2 11.2 11.2s11.2-5 11.2-11.2c0-6.1-5-11.2-11.2-11.2zm5.5 16.8c-.5.5-1.4.5-1.9 0l-3.6-3.6-3.6 3.6c-.5.5-1.4.5-1.9 0s-.5-1.4 0-1.9l3.6-3.6-3.6-3.6c-.5-.5-.5-1.4 0-1.9s1.4-.5 1.9 0l3.6 3.6 3.6-3.6c.5-.5 1.4-.5 1.9 0s.5 1.4 0 1.9l-3.6 3.6 3.6 3.6c.5.5.5 1.4 0 1.9z"/><path class="st1" d="M-263.1 420.9l3.6-3.6c.5-.5.5-1.4 0-1.9s-1.4-.5-1.9 0l-3.6 3.6-3.6-3.6c-.5-.5-1.4-.5-1.9 0s-.5 1.4 0 1.9l3.6 3.6-3.6 3.6c-.5.5-.5 1.4 0 1.9s1.4.5 1.9 0l3.6-3.6 3.6 3.6c.5.5 1.4.5 1.9 0s.5-1.4 0-1.9l-3.6-3.6z"/></svg>