<?xml version="1.0" encoding="utf-8"?>
<!-- Generator: Adobe Illustrator 19.1.0, SVG Export Plug-In . SVG Version: 6.00 Build 0)  -->
<!DOCTYPE svg PUBLIC "-//W3C//DTD SVG 1.1//EN" "http://www.w3.org/Graphics/SVG/1.1/DTD/svg11.dtd">
<svg version="1.1"
	 id="Layer_1" xmlns:inkscape="http://www.inkscape.org/namespaces/inkscape" xmlns:cc="http://creativecommons.org/ns#" xmlns:svg="http://www.w3.org/2000/svg" xmlns:dc="http://purl.org/dc/elements/1.1/" xmlns:rdf="http://www.w3.org/1999/02/22-rdf-syntax-ns#" xmlns:sodipodi="http://sodipodi.sourceforge.net/DTD/sodipodi-0.dtd" sodipodi:docname="admin.svg" inkscape:version="1"
	 xmlns="http://www.w3.org/2000/svg" xmlns:xlink="http://www.w3.org/1999/xlink" x="0px" y="0px" viewBox="-411 298 256 256"
	 style="enable-background:new -411 298 256 256;" xml:space="preserve">
<style type="text/css">
	.st0{fill:url(#SVGID_1_);stroke:#015491;stroke-miterlimit:10;}
	.st1{fill:#FFFFFF;stroke:#015491;stroke-miterlimit:10;}
	.st2{fill:url(#SVGID_2_);stroke:#015491;stroke-miterlimit:10;}
	.st3{fill:url(#SVGID_3_);stroke:#015491;stroke-miterlimit:10;}
</style>
<g>
	<radialGradient id="SVGID_1_" cx="-283.7719" cy="424.625" r="84.3793" gradientUnits="userSpaceOnUse">
		<stop  offset="4.926108e-03" style="stop-color:#0081D4"/>
		<stop  offset="1" style="stop-color:#0068AA"/>
	</radialGradient>
	<path class="st0" d="M-359.5,360.8c0,0,35.7-4.3,76.8-22.8c0,0,33.2,14.8,75.2,23.5c0,0,5,15,5.8,41.2s-6,85.5-81,108.5
		c0,0-81.3-22.8-83.1-102.6C-366.1,394.4-359.5,360.8-359.5,360.8z"/>
	<path class="st1" d="M-348.1,371c0,0,27.5-3.2,65.2-20c0,0,37.7,17.6,64.2,21.5c0,0,3.1,20.2,3.8,32.4c1.2,21.7-8.5,74.1-68.7,91.6
		c0,0-67.4-19.8-69-88.7C-352.9,396.1-348.1,371-348.1,371z"/>
	<radialGradient id="SVGID_2_" cx="-312.5" cy="403" r="30.1667" gradientUnits="userSpaceOnUse">
		<stop  offset="4.926108e-03" style="stop-color:#0081D4"/>
		<stop  offset="1" style="stop-color:#0068AA"/>
	</radialGradient>
	<path class="st2" d="M-312.5,372.8c-16.7,0-30.2,13.5-30.2,30.2s13.5,30.2,30.2,30.2s30.2-13.5,30.2-30.2S-295.8,372.8-312.5,372.8
		z M-321.8,402.8c-5.5,0-9.9-4.4-9.9-9.9c0-5.5,4.4-9.9,9.9-9.9s9.9,4.4,9.9,9.9C-311.8,398.4-316.3,402.8-321.8,402.8z"/>
	<radialGradient id="SVGID_3_" cx="-272.0852" cy="443.2085" r="27.752" gradientUnits="userSpaceOnUse">
		<stop  offset="4.926108e-03" style="stop-color:#0081D4"/>
		<stop  offset="1" style="stop-color:#0068AA"/>
	</radialGradient>
	<path class="st3" d="M-248.5,448.2l-27.6-30.2c-0.8-0.9-1.7-1.7-2.7-2.4c-0.1,3-0.8,5.8-2.1,8.3l26.6,29.1c1.6,1.7,1.6,4.2,0.1,5.6
		c-1.5,1.4-4,1.1-5.6-0.6l-25.7-28.1c-3.7,3.3-8.7,5.4-14.2,5.4c-0.1,0-0.1,0-0.2,0l-0.1,0.1v7.7h10.8v11.3l12,0.8V466h10.2
		c5.6,5.6,13.9,6.4,19,1.8C-242.7,463-243,454.2-248.5,448.2z"/>
</g>
<sodipodi:namedview  inkscape:cx="160" pagecolor="#ffffff" bordercolor="#666666" objecttolerance="10" borderopacity="1" guidetolerance="10" inkscape:zoom="1" inkscape:cy="160" showgrid="false" gridtolerance="10" inkscape:pageopacity="0" inkscape:pageshadow="2" inkscape:window-height="480" inkscape:window-x="0" inkscape:window-y="0" inkscape:window-maximized="0" inkscape:current-layer="svg2" inkscape:window-width="640">
	</sodipodi:namedview>
</svg>
