<?xml version="1.0" encoding="utf-8"?>
<!-- Generator: Adobe Illustrator 19.1.0, SVG Export Plug-In . SVG Version: 6.00 Build 0)  -->
<!DOCTYPE svg PUBLIC "-//W3C//DTD SVG 1.1//EN" "http://www.w3.org/Graphics/SVG/1.1/DTD/svg11.dtd">
<svg version="1.1" id="Layer_1" xmlns="http://www.w3.org/2000/svg" xmlns:xlink="http://www.w3.org/1999/xlink" x="0px" y="0px"
	 viewBox="-286 409.9 22 22" style="enable-background:new -286 409.9 22 22;" xml:space="preserve">
<style type="text/css">
	.st0{fill:#FFFFFF;}
	.st1{fill:#010101;}
</style>
<g>
	<path class="st0" d="M-273.6,420.1c0,2.3,0,4.6,0,7c-0.7,0-2.1,0-2.8,0c0-2.3,0-4.6,0-7c-0.9,0.3-2.6,0.9-3.5,1.2
		c1.6-2.2,3.2-4.3,4.9-6.5c1.7,2.1,3.3,4.3,4.9,6.5C-271,421-272.7,420.4-273.6,420.1z"/>
	<path d="M-275,412.3c-4.7,0-8.6,3.8-8.6,8.6s3.8,8.6,8.6,8.6s8.6-3.8,8.6-8.6S-270.2,412.3-275,412.3z M-275,428.5
		c-4.2,0-7.6-3.4-7.6-7.6s3.4-7.6,7.6-7.6s7.6,3.4,7.6,7.6S-270.8,428.5-275,428.5z"/>
	<path class="st1" d="M-279.9,421.3c0.9-0.3,2.6-0.9,3.5-1.2c0,2.3,0,4.6,0,7c0.7,0,2.1,0,2.8,0c0-2.3,0-4.6,0-7
		c0.9,0.3,2.6,0.9,3.5,1.2c-1.6-2.2-3.2-4.3-4.9-6.5C-276.7,416.9-278.3,419.1-279.9,421.3z"/>
</g>
</svg>
