<?xml version="1.0" encoding="utf-8"?>
<!-- Generator: Adobe Illustrator 19.1.0, SVG Export Plug-In . SVG Version: 6.00 Build 0)  -->
<!DOCTYPE svg PUBLIC "-//W3C//DTD SVG 1.1//EN" "http://www.w3.org/Graphics/SVG/1.1/DTD/svg11.dtd">
<svg version="1.1" id="Layer_1" xmlns="http://www.w3.org/2000/svg" xmlns:xlink="http://www.w3.org/1999/xlink" x="0px" y="0px"
	 viewBox="-411 298 256 256" style="enable-background:new -411 298 256 256;" xml:space="preserve">
<style type="text/css">
	.st0{fill:url(#SVGID_1_);}
	.st1{fill:none;stroke:#366181;stroke-width:2;stroke-miterlimit:3;}
	.st2{fill:#FFFFFF;}
	.st3{fill:url(#SVGID_2_);stroke:#366181;stroke-width:2;stroke-miterlimit:3;}
	.st4{fill:url(#SVGID_3_);}
	.st5{fill:url(#SVGID_4_);stroke:#366181;stroke-width:2;stroke-miterlimit:3;}
	.st6{fill:url(#SVGID_5_);stroke:#366181;stroke-width:2;stroke-miterlimit:3;}
</style>
<g id="image">
</g>
<g id="Layer_2">
	<g>
		
			<radialGradient id="SVGID_1_" cx="-296.5" cy="411.167" r="73.1895" fx="-263.3317" fy="412.2272" gradientTransform="matrix(1 0 0 -1 0 854)" gradientUnits="userSpaceOnUse">
			<stop  offset="0" style="stop-color:#0081D4"/>
			<stop  offset="1" style="stop-color:#0068AA"/>
		</radialGradient>
		<path class="st0" d="M-222.3,491.3c0,2.2-1.8,4-4,4h-140.3c-2.2,0-4-1.8-4-4v-97c0-2.2,1.8-4,4-4h140.3c2.2,0,4,1.8,4,4
			L-222.3,491.3L-222.3,491.3z"/>
		<path class="st1" d="M-222.3,491.3c0,2.2-1.8,4-4,4h-140.3c-2.2,0-4-1.8-4-4v-97c0-2.2,1.8-4,4-4h140.3c2.2,0,4,1.8,4,4
			L-222.3,491.3L-222.3,491.3z"/>
	</g>
	<g>
		<path class="st2" d="M-328.2,431.8c0,2.2-1.8,4-4,4h-16.5c-2.2,0-4-1.8-4-4V418c0-2.2,1.8-4,4-4h16.5c2.2,0,4,1.8,4,4V431.8z"/>
	</g>
	<rect x="-352.8" y="460.2" class="st2" width="9.5" height="8.8"/>
	<rect x="-337.8" y="460.2" class="st2" width="9.5" height="8.8"/>
	<rect x="-317.2" y="460.2" class="st2" width="9.5" height="8.8"/>
	<rect x="-302.2" y="460.2" class="st2" width="9.5" height="8.8"/>
	<rect x="-283" y="460.2" class="st2" width="9.5" height="8.8"/>
	<rect x="-268" y="460.2" class="st2" width="9.5" height="8.8"/>
	
		<radialGradient id="SVGID_2_" cx="-340.527" cy="471.7625" r="5.8755" fx="-334.6542" fy="471.5849" gradientTransform="matrix(1 0 0 -1 0 854)" gradientUnits="userSpaceOnUse">
		<stop  offset="0" style="stop-color:#0081D4"/>
		<stop  offset="1" style="stop-color:#0068AA"/>
	</radialGradient>
	<polyline class="st3" points="-345.3,379.6 -346.2,384.9 -334.9,384.9 	"/>
</g>
<g id="Layer_3">
	<g>
		
			<radialGradient id="SVGID_3_" cx="-270.6488" cy="435.2673" r="68.7125" gradientTransform="matrix(1 0 0 -1 0 854)" gradientUnits="userSpaceOnUse">
			<stop  offset="0" style="stop-color:#0081D4"/>
			<stop  offset="1" style="stop-color:#0068AA"/>
		</radialGradient>
		<path class="st4" d="M-337.5,356.9c-2.2-0.4-4.2,1.1-4.6,3.3l-3.4,20.7c-0.4,2.2,1.2,3.9,3.4,3.9h39.3c2.2,0,5.8,0,8,0h74.6
			c2.2,0,4,1.8,4,4v5.5c0,2.2,0,5.8,0,8v74.6c0,2.2,1,3.9,2.3,3.7c1.2-0.2,2.6-2.1,2.9-4.3l15.3-92.1c0.4-2.2-1.1-4.2-3.3-4.6
			L-337.5,356.9z"/>
		<path class="st1" d="M-337.5,356.9c-2.2-0.4-4.2,1.1-4.6,3.3l-3.4,20.7c-0.4,2.2,1.2,3.9,3.4,3.9h39.3c2.2,0,5.8,0,8,0h74.6
			c2.2,0,4,1.8,4,4v5.5c0,2.2,0,5.8,0,8v74.6c0,2.2,1,3.9,2.3,3.7c1.2-0.2,2.6-2.1,2.9-4.3l15.3-92.1c0.4-2.2-1.1-4.2-3.3-4.6
			L-337.5,356.9z"/>
	</g>
	
		<radialGradient id="SVGID_4_" cx="-216.28" cy="455.657" r="0" gradientTransform="matrix(1 0 0 -1 0 854)" gradientUnits="userSpaceOnUse">
		<stop  offset="0" style="stop-color:#0081D4"/>
		<stop  offset="1" style="stop-color:#0068AA"/>
	</radialGradient>
	<path class="st5" d="M-216.3,398.3"/>
	
		<radialGradient id="SVGID_5_" cx="-318.25" cy="479" r="0" gradientTransform="matrix(1 0 0 -1 0 854)" gradientUnits="userSpaceOnUse">
		<stop  offset="0" style="stop-color:#0081D4"/>
		<stop  offset="1" style="stop-color:#0068AA"/>
	</radialGradient>
	<path class="st6" d="M-318.2,375"/>
	<g>
		<polygon class="st2" points="-343.8,376.7 -344.9,383.8 -299.7,383.8 		"/>
		<polygon class="st2" points="-199.3,401.1 -215.3,398.3 -215.3,418.8 -202.4,421 		"/>
	</g>
</g>
</svg>
