<svg id="Layer_1" data-name="Layer 1" xmlns="http://www.w3.org/2000/svg" xmlns:xlink="http://www.w3.org/1999/xlink" viewBox="0 0 30.72 30.72"><defs><style>.cls-1{stroke:#005491;fill:url(#radial-gradient);}.cls-1,.cls-3{stroke-miterlimit:10;stroke-width:0.25px;}.cls-2{fill:#005491;}.cls-3{fill:#fff;stroke:#004686;}</style><radialGradient id="radial-gradient" cx="15.53" cy="16.3" r="11.84" gradientUnits="userSpaceOnUse"><stop offset="0" stop-color="#0095e8"/><stop offset="1" stop-color="#005491"/></radialGradient></defs><title>Building-v6</title><polygon class="cls-1" points="18.05 13.56 18.05 6.53 6.77 9.18 6.77 26.07 17.04 26.07 18.05 26.07 24.28 26.07 24.28 13.56 18.05 13.56"/><rect class="cls-2" x="5.07" y="6.44" width="13.98" height="2.11" rx="0.76" transform="translate(-1.65 3.81) rotate(-16.83)"/><rect class="cls-2" x="17.17" y="12.67" width="8.33" height="2.11" rx="0.76" transform="translate(3.6 -4.41) rotate(12.89)"/><rect class="cls-3" x="11.05" y="12.43" width="2.68" height="2.56"/><rect class="cls-3" x="11.05" y="9.07" width="2.68" height="2.56"/><rect class="cls-3" x="11.05" y="19.27" width="2.68" height="5.1"/><rect class="cls-3" x="11.05" y="15.91" width="2.68" height="2.56"/><rect class="cls-3" x="19.86" y="17.46" width="1.55" height="1.48"/><rect class="cls-3" x="19.86" y="15.52" width="1.55" height="1.48"/><rect class="cls-3" x="19.86" y="21.43" width="1.55" height="2.96"/><rect class="cls-3" x="19.86" y="19.48" width="1.55" height="1.48"/></svg>