<?xml version="1.0" encoding="utf-8"?>
<!-- Generator: Adobe Illustrator 17.0.0, SVG Export Plug-In . SVG Version: 6.00 Build 0)  -->
<!DOCTYPE svg PUBLIC "-//W3C//DTD SVG 1.1//EN" "http://www.w3.org/Graphics/SVG/1.1/DTD/svg11.dtd">
<svg version="1.1" xmlns="http://www.w3.org/2000/svg" xmlns:xlink="http://www.w3.org/1999/xlink" x="0px" y="0px" width="256px"
	 height="256px" viewBox="0 0 256 256" enable-background="new 0 0 256 256" xml:space="preserve">
<g id="image">
</g>
<g id="Layer_2">
	<rect x="41" y="192.5" fill="#015491" width="172" height="5.75"/>
	<polygon fill="#015491" points="54.875,105.5 155.125,54 202.125,83 202.125,92.112 54.875,114.5 	"/>
	<polygon fill="#FFFFFF" stroke="#015491" stroke-width="2" stroke-miterlimit="10" points="46.25,117 156.25,66 208.5,95.5 
		208.5,190.75 46.25,190.75 	"/>
	<linearGradient id="SVGID_1_" gradientUnits="userSpaceOnUse" x1="150.25" y1="145" x2="51.7357" y2="145">
		<stop  offset="0" style="stop-color:#0081D4"/>
		<stop  offset="1" style="stop-color:#0068AA"/>
	</linearGradient>
	<polygon fill="url(#SVGID_1_)" stroke="#015491" stroke-miterlimit="10" points="51.5,155.25 150.75,123.75 150.75,143.75 
		51.5,166.25 	"/>
	<linearGradient id="SVGID_2_" gradientUnits="userSpaceOnUse" x1="150.75" y1="171.75" x2="51.5" y2="171.75">
		<stop  offset="0" style="stop-color:#0081D4"/>
		<stop  offset="1" style="stop-color:#0068AA"/>
	</linearGradient>
	<polygon fill="url(#SVGID_2_)" stroke="#015491" stroke-miterlimit="10" points="51.5,177.5 150.75,160 150.75,180.75 51.5,183.5 	
		"/>
	<linearGradient id="SVGID_3_" gradientUnits="userSpaceOnUse" x1="160.75" y1="100.875" x2="202.125" y2="100.875">
		<stop  offset="0" style="stop-color:#0081D4"/>
		<stop  offset="1" style="stop-color:#0068AA"/>
	</linearGradient>
	<polygon fill="url(#SVGID_3_)" stroke="#015491" stroke-miterlimit="10" points="160.75,82.25 160.75,104.5 202.125,119.5 
		202.125,103.75 	"/>
	<linearGradient id="SVGID_4_" gradientUnits="userSpaceOnUse" x1="160.75" y1="138" x2="202.125" y2="138">
		<stop  offset="0" style="stop-color:#0081D4"/>
		<stop  offset="1" style="stop-color:#0068AA"/>
	</linearGradient>
	<polygon fill="url(#SVGID_4_)" stroke="#015491" stroke-miterlimit="10" points="160.75,123.75 160.75,143.5 202.125,152.25 
		202.125,135.5 	"/>
	<linearGradient id="SVGID_5_" gradientUnits="userSpaceOnUse" x1="160.75" y1="170.75" x2="202.125" y2="170.75">
		<stop  offset="0" style="stop-color:#0081D4"/>
		<stop  offset="1" style="stop-color:#0068AA"/>
	</linearGradient>
	<polygon fill="url(#SVGID_5_)" stroke="#015491" stroke-miterlimit="10" points="160.75,160 160.75,180.25 202.125,181.5 
		202.125,166.25 	"/>
	<linearGradient id="SVGID_6_" gradientUnits="userSpaceOnUse" x1="150.75" y1="111.5" x2="51.5" y2="111.5">
		<stop  offset="0" style="stop-color:#0081D4"/>
		<stop  offset="1" style="stop-color:#0068AA"/>
	</linearGradient>
	<polygon fill="url(#SVGID_6_)" stroke="#015491" stroke-miterlimit="10" points="51.5,128 150.75,82.25 150.75,105.125 
		51.5,140.75 	"/>
</g>
<g id="Layer_3">
</g>
</svg>
