<?xml version="1.0" encoding="UTF-8" standalone="no"?>
<!-- Generator: Adobe Illustrator 16.0.0, SVG Export Plug-In . SVG Version: 6.00 Build 0)  -->

<svg
   xmlns:dc="http://purl.org/dc/elements/1.1/"
   xmlns:cc="http://creativecommons.org/ns#"
   xmlns:rdf="http://www.w3.org/1999/02/22-rdf-syntax-ns#"
   xmlns:svg="http://www.w3.org/2000/svg"
   xmlns="http://www.w3.org/2000/svg"
   xmlns:sodipodi="http://sodipodi.sourceforge.net/DTD/sodipodi-0.dtd"
   xmlns:inkscape="http://www.inkscape.org/namespaces/inkscape"
   version="1.1"
   id="Capa_1"
   x="0px"
   y="0px"
   width="486.465px"
   height="486.465px"
   viewBox="0 0 486.465 486.465"
   style="enable-background:new 0 0 486.465 486.465;"
   xml:space="preserve"
   inkscape:version="0.91 r13725"
   sodipodi:docname="chain-link.svg"><metadata
     id="metadata3397"><rdf:RDF><cc:Work
         rdf:about=""><dc:format>image/svg+xml</dc:format><dc:type
           rdf:resource="http://purl.org/dc/dcmitype/StillImage" /><dc:title></dc:title></cc:Work></rdf:RDF></metadata><defs
     id="defs3395" /><sodipodi:namedview
     pagecolor="#ffffff"
     bordercolor="#666666"
     borderopacity="1"
     objecttolerance="10"
     gridtolerance="10"
     guidetolerance="10"
     inkscape:pageopacity="0"
     inkscape:pageshadow="2"
     inkscape:window-width="1920"
     inkscape:window-height="1017"
     id="namedview3393"
     showgrid="false"
     inkscape:zoom="1.7431881"
     inkscape:cx="147.43102"
     inkscape:cy="272.67632"
     inkscape:window-x="1912"
     inkscape:window-y="-8"
     inkscape:window-maximized="1"
     inkscape:current-layer="Capa_1" /><g
     id="g3355"
     transform="matrix(0.71224714,0,0,0.71224714,69.949606,65.975217)"><g
       id="g3357"><path
         d="M 453.323,39.655 436.759,24.999 C 418.729,9.021 395.521,0.22 371.405,0.22 c -28.223,0 -55.118,12.079 -73.791,33.143 L 250.207,86.86 c -6.105,6.876 -9.164,15.722 -8.608,24.901 0.557,9.166 4.642,17.576 11.518,23.673 l 4.438,3.94 c 6.299,5.594 14.416,8.673 22.842,8.673 l 2.054,-0.059 c 9.166,-0.551 17.582,-4.637 23.699,-11.523 l 47.418,-53.503 c 8.342,-9.416 24.169,-10.362 33.601,-2.026 l 16.558,14.688 c 4.748,4.203 7.57,10.021 7.955,16.384 0.386,6.358 -1.722,12.465 -5.937,17.208 L 302.042,246.198 c -6.982,7.887 -19.377,10.164 -28.734,5.342 -14.577,-7.519 -33.58,-3.93 -44.392,8.256 l -0.813,0.926 c -7.573,8.518 -10.727,19.838 -8.674,31.104 2.074,11.198 9.047,20.801 19.153,26.09 13.986,7.311 29.763,11.33 45.621,11.33 l 0.012,0 c 28.21,0 55.117,-12.238 73.8,-33.308 L 461.706,178.892 c 36.04,-40.666 32.298,-103.161 -8.383,-139.237 z"
         id="path3359"
         inkscape:connector-curvature="0" /><path
         d="m 228.873,347.458 c -13.669,-12.103 -36.426,-10.743 -48.574,2.938 l -47.396,53.487 c -8.342,9.412 -24.159,10.387 -33.58,2.043 L 82.747,391.221 C 78,387.014 75.177,381.196 74.792,374.838 74.405,368.49 76.514,362.385 80.727,357.642 L 184.419,240.668 c 6.876,-7.765 19.047,-10.111 28.297,-5.566 15.121,7.448 34.359,3.818 46.05,-9.416 7.433,-8.374 10.555,-19.496 8.586,-30.463 -1.956,-11.031 -8.747,-20.389 -18.618,-25.666 -14.201,-7.604 -30.274,-11.624 -46.466,-11.624 -28.223,0 -55.118,12.084 -73.791,33.151 L 24.772,308.038 C -11.29,348.704 -7.536,411.12 33.133,447.181 l 16.564,14.482 c 18.021,15.979 41.229,24.582 65.345,24.582 0.011,0 0,0 0.011,0 28.223,0 55.129,-11.889 73.812,-32.957 l 47.388,-53.379 c 6.116,-6.887 9.176,-15.691 8.618,-24.819 -0.533,-9.068 -4.736,-17.694 -11.538,-23.706 l -4.46,-3.926 z"
         id="path3361"
         inkscape:connector-curvature="0" /></g></g><g
     id="g3363" /><g
     id="g3365" /><g
     id="g3367" /><g
     id="g3369" /><g
     id="g3371" /><g
     id="g3373" /><g
     id="g3375" /><g
     id="g3377" /><g
     id="g3379" /><g
     id="g3381" /><g
     id="g3383" /><g
     id="g3385" /><g
     id="g3387" /><g
     id="g3389" /><g
     id="g3391" /></svg>