<?xml version="1.0" encoding="utf-8"?>
<!-- Generator: Adobe Illustrator 19.1.0, SVG Export Plug-In . SVG Version: 6.00 Build 0)  -->
<!DOCTYPE svg PUBLIC "-//W3C//DTD SVG 1.1//EN" "http://www.w3.org/Graphics/SVG/1.1/DTD/svg11.dtd">
<svg version="1.1" id="Layer_1" xmlns="http://www.w3.org/2000/svg" xmlns:xlink="http://www.w3.org/1999/xlink" x="0px" y="0px"
	 viewBox="-285 405.9 25 30" style="enable-background:new -285 405.9 25 30;" xml:space="preserve">
<style type="text/css">
	.st0{fill:#707070;}
</style>
<g>
	<path class="st0" d="M-268.9,421l7.9-10.3c0.9-0.9,0.9-2.3,0-3.2c-0.9-0.9-2.3-0.9-3.2,0l-9.5,11.9c-0.9,0.9-0.9,2.3,0,3.2
		l9.5,11.7c0.4,0.4,1,0.6,1.6,0.6c0.5,0,1.1-0.2,1.5-0.6c0.9-0.9,0.9-2.3,0-3.2L-268.9,421z"/>
	<path class="st0" d="M-279.3,421l7.9-10.3c0.9-0.9,0.9-2.3,0-3.2c-0.9-0.9-2.3-0.9-3.2,0l-9.5,11.9c-0.9,0.9-0.9,2.3,0,3.2
		l9.5,11.7c0.4,0.4,1,0.6,1.6,0.6c0.5,0,1.1-0.2,1.5-0.6c0.9-0.9,0.9-2.3,0-3.2L-279.3,421z"/>
</g>
</svg>
