<?xml version="1.0" encoding="utf-8"?>
<!-- Generator: Adobe Illustrator 22.1.0, SVG Export Plug-In . SVG Version: 6.00 Build 0)  -->
<svg version="1.1" xmlns="http://www.w3.org/2000/svg" xmlns:xlink="http://www.w3.org/1999/xlink" x="0px" y="0px"
	 viewBox="0 0 256 256" enable-background="new 0 0 256 256" xml:space="preserve">
<g id="image">
</g>
<g id="Layer_2">
</g>
<g id="Layer_3">
</g>
<g id="Layer_4">
</g>
<g id="Layer_5">
</g>
<g id="Layer_6">
	<g>
		<g>
			<path fill="#D8DCE1" stroke="#005491" stroke-width="2" stroke-miterlimit="10" d="M35.82,82.502v117.186
				c0,7.88,6.411,14.291,14.291,14.291h154.343c7.88,0,14.291-6.411,14.291-14.291V82.502H35.82z"/>
		</g>
		<g>
			<path fill="#015491" stroke="#005491" stroke-width="4" stroke-miterlimit="10" d="M204.454,42.487H50.111
				c-7.88,0-14.291,6.411-14.291,14.291v25.724h182.925V56.778C218.745,48.898,212.333,42.487,204.454,42.487z M58.686,71.069
				c-4.736,0-8.575-3.839-8.575-8.575s3.839-8.575,8.575-8.575s8.575,3.839,8.575,8.575S63.422,71.069,58.686,71.069z
				 M195.88,71.069c-4.736,0-8.575-3.839-8.575-8.575s3.839-8.575,8.575-8.575c4.736,0,8.575,3.839,8.575,8.575
				S200.615,71.069,195.88,71.069z"/>
		</g>
		<g>
			<g>
				<path fill="#FFFFFF" stroke="#015491" stroke-miterlimit="10" d="M127.283,108.225c-6.305,0-11.433,5.128-11.433,11.433
					s5.128,11.433,11.433,11.433s11.433-5.128,11.433-11.433S133.588,108.225,127.283,108.225z"/>
			</g>
			<g>
				<path fill="#FFFFFF" stroke="#015491" stroke-miterlimit="10" d="M98.701,108.225c-6.305,0-11.433,5.128-11.433,11.433
					s5.128,11.433,11.433,11.433c6.305,0,11.433-5.128,11.433-11.433S105.006,108.225,98.701,108.225z"/>
			</g>
			<g>
				<path fill="#FFFFFF" stroke="#015491" stroke-miterlimit="10" d="M70.119,108.225c-6.305,0-11.433,5.128-11.433,11.433
					s5.128,11.433,11.433,11.433s11.433-5.128,11.433-11.433S76.424,108.225,70.119,108.225z"/>
			</g>
			<g>
				<path fill="#FFFFFF" stroke="#015491" stroke-miterlimit="10" d="M155.865,108.225c-6.305,0-11.433,5.128-11.433,11.433
					s5.128,11.433,11.433,11.433c6.305,0,11.433-5.128,11.433-11.433S162.17,108.225,155.865,108.225z"/>
			</g>
			<g>
				<path fill="#FFFFFF" stroke="#015491" stroke-miterlimit="10" d="M184.447,131.091c6.305,0,11.433-5.128,11.433-11.433
					s-5.128-11.433-11.433-11.433s-11.433,5.128-11.433,11.433S178.141,131.091,184.447,131.091z"/>
			</g>
			<g>
				<path fill="#FFFFFF" stroke="#015491" stroke-miterlimit="10" d="M127.283,136.807c-6.305,0-11.433,5.128-11.433,11.433
					s5.128,11.433,11.433,11.433s11.433-5.128,11.433-11.433S133.588,136.807,127.283,136.807z"/>
			</g>
			<g>
				<path fill="#FFFFFF" stroke="#015491" stroke-miterlimit="10" d="M98.701,136.807c-6.305,0-11.433,5.128-11.433,11.433
					s5.128,11.433,11.433,11.433c6.305,0,11.433-5.128,11.433-11.433S105.006,136.807,98.701,136.807z"/>
			</g>
			<g>
				<path fill="#FFFFFF" stroke="#015491" stroke-miterlimit="10" d="M70.119,136.807c-6.305,0-11.433,5.128-11.433,11.433
					s5.128,11.433,11.433,11.433s11.433-5.128,11.433-11.433S76.424,136.807,70.119,136.807z"/>
			</g>
			<g>
				<path fill="#FFFFFF" stroke="#015491" stroke-miterlimit="10" d="M155.865,136.807c-6.305,0-11.433,5.128-11.433,11.433
					s5.128,11.433,11.433,11.433c6.305,0,11.433-5.128,11.433-11.433S162.17,136.807,155.865,136.807z"/>
			</g>
			<g>
				<path fill="#FFFFFF" stroke="#015491" stroke-miterlimit="10" d="M184.447,136.807c-6.305,0-11.433,5.128-11.433,11.433
					s5.128,11.433,11.433,11.433s11.433-5.128,11.433-11.433S190.752,136.807,184.447,136.807z"/>
			</g>
			<g>
				<path fill="#FFFFFF" stroke="#015491" stroke-miterlimit="10" d="M127.283,165.389c-6.305,0-11.433,5.128-11.433,11.433
					s5.128,11.433,11.433,11.433s11.433-5.128,11.433-11.433C138.716,170.517,133.588,165.389,127.283,165.389z"/>
			</g>
			<g>
				<path fill="#FFFFFF" stroke="#015491" stroke-miterlimit="10" d="M98.701,165.389c-6.305,0-11.433,5.128-11.433,11.433
					s5.128,11.433,11.433,11.433c6.305,0,11.433-5.128,11.433-11.433C110.134,170.517,105.006,165.389,98.701,165.389z"/>
			</g>
			<g>
				<path fill="#FFFFFF" stroke="#015491" stroke-miterlimit="10" d="M70.119,165.389c-6.305,0-11.433,5.128-11.433,11.433
					s5.128,11.433,11.433,11.433s11.433-5.128,11.433-11.433C81.552,170.517,76.424,165.389,70.119,165.389z"/>
			</g>
			<g>
				<path fill="#FFFFFF" stroke="#015491" stroke-miterlimit="10" d="M155.865,165.389c-6.305,0-11.433,5.128-11.433,11.433
					s5.128,11.433,11.433,11.433c6.305,0,11.433-5.128,11.433-11.433C167.298,170.517,162.17,165.389,155.865,165.389z"/>
			</g>
			<g>
				<path fill="#FFFFFF" stroke="#015491" stroke-miterlimit="10" d="M184.447,165.389c-6.305,0-11.433,5.128-11.433,11.433
					s5.128,11.433,11.433,11.433s11.433-5.128,11.433-11.433C195.88,170.517,190.752,165.389,184.447,165.389z"/>
			</g>
		</g>
		<g>
			<g>
				<path fill="#CCCCCC" d="M58.686,66.782c-2.367,0-4.287-1.919-4.287-4.287V42.487c0-2.368,1.92-4.287,4.287-4.287
					c2.367,0,4.287,1.919,4.287,4.287v20.007C62.973,64.863,61.053,66.782,58.686,66.782z"/>
			</g>
		</g>
		<g>
			<g>
				<path fill="#CCCCCC" d="M195.88,66.782c-2.367,0-4.287-1.919-4.287-4.287V42.487c0-2.368,1.92-4.287,4.287-4.287
					s4.287,1.919,4.287,4.287v20.007C200.167,64.863,198.246,66.782,195.88,66.782z"/>
			</g>
		</g>
	</g>
	<g>
		<rect x="175.12" y="106.546" fill="#005491" width="4.091" height="8.706"/>
		<g>
			<radialGradient id="SVGID_1_" cx="141.197" cy="115.3533" r="15.9888" gradientUnits="userSpaceOnUse">
				<stop  offset="0" style="stop-color:#0081D4"/>
				<stop  offset="1" style="stop-color:#0068AA"/>
			</radialGradient>
			<path fill="url(#SVGID_1_)" stroke="#015491" stroke-width="2" stroke-miterlimit="10" d="M158.651,109.798
				c-5.559-8.811-17.098-11.434-25.909-5.979s-11.643,16.993-6.294,25.909L158.651,109.798z"/>
			<radialGradient id="SVGID_2_" cx="213.0289" cy="115.3533" r="15.9888" gradientUnits="userSpaceOnUse">
				<stop  offset="0" style="stop-color:#0081D4"/>
				<stop  offset="1" style="stop-color:#0068AA"/>
			</radialGradient>
			<path fill="url(#SVGID_2_)" stroke="#015491" stroke-width="2" stroke-miterlimit="10" d="M195.575,109.798
				c5.559-8.811,17.098-11.434,25.909-5.979s11.643,16.993,6.294,25.909L195.575,109.798z"/>
		</g>
		<radialGradient id="SVGID_3_" cx="177.113" cy="168.8537" r="54.965" gradientUnits="userSpaceOnUse">
			<stop  offset="0" style="stop-color:#0081D4"/>
			<stop  offset="0.5353" style="stop-color:#0080D2"/>
			<stop  offset="0.7282" style="stop-color:#007CCB"/>
			<stop  offset="0.8651" style="stop-color:#0075C0"/>
			<stop  offset="0.9756" style="stop-color:#006BAF"/>
			<stop  offset="1" style="stop-color:#0068AA"/>
		</radialGradient>
		<circle fill="url(#SVGID_3_)" stroke="#015491" stroke-width="2" stroke-miterlimit="10" cx="177.113" cy="168.854" r="54.965"/>
		<circle fill="#FFFFFF" stroke="#005491" stroke-miterlimit="10" cx="177.113" cy="168.854" r="43.741"/>
		<path fill="#005491" d="M177.113,173.05h-23.706c-2.308,0-4.196-1.888-4.196-4.196s1.888-4.196,4.196-4.196h19.511v-31.259
			c0-2.308,1.888-4.196,4.196-4.196c2.308,0,4.196,1.888,4.196,4.196v35.455C181.309,171.161,179.42,173.05,177.113,173.05z"/>
		<circle fill="#005491" cx="177.113" cy="168.854" r="10.07"/>
		<circle fill="#FFFFFF" cx="177.113" cy="168.854" r="4.615"/>
		<path fill="#005491" d="M184.246,102.77H169.98c-1.573,0-2.937,1.259-2.937,2.937c0,1.573,1.259,2.937,2.937,2.937h14.266
			c1.573,0,2.937-1.259,2.937-2.937C187.183,104.029,185.924,102.77,184.246,102.77z"/>
	</g>
</g>
</svg>
