<?xml version="1.0" encoding="utf-8"?>
<!-- Generator: Adobe Illustrator 19.1.0, SVG Export Plug-In . SVG Version: 6.00 Build 0)  -->
<!DOCTYPE svg PUBLIC "-//W3C//DTD SVG 1.1//EN" "http://www.w3.org/Graphics/SVG/1.1/DTD/svg11.dtd">
<svg version="1.1" id="Layer_1" xmlns="http://www.w3.org/2000/svg" xmlns:xlink="http://www.w3.org/1999/xlink" x="0px" y="0px"
	 viewBox="-411 298 256 256" style="enable-background:new -411 298 256 256;" xml:space="preserve">
<style type="text/css">
	.st0{display:none;}
	.st1{fill:none;}
	.st2{fill:#045997;}
	.st3{fill:#006DB3;}
	.st4{fill:#004577;}
	.st5{fill:none;stroke:#015491;stroke-miterlimit:10;}
</style>
<g id="image" class="st0">
</g>
<g id="Layer_2">
	<g>
		<path class="st1" d="M-371,425.4c-0.1,0.2,0.2,0.5,0.5,0.7v-1.2C-370.7,425-370.9,425.1-371,425.4z"/>
		<path class="st1" d="M-331.9,499.9c0.1,0,0.3,0.1,0.4,0.1c0.1,0,0.2,0,0.3-0.1H-331.9z"/>
		<path class="st1" d="M-344.1,451.3l-10.3,6.8c0,0,0,0.1,0.1,0.1l10.2-6.8L-344.1,451.3z"/>
		<path class="st2" d="M-344.1,451.4l-10.2,6.8c0.1,0.2,0.2,0.3,0.3,0.5c0.5,0.8,1.1,1.4,1.8,2.1s0.5,0.6,0.8,1.2s0.3,0.5,0.3,1.2
			s0.1,0.6,0.5,0.8s0,0.6,0,1.3c0,0.7,0.5,1,0.4,1.2s0,0.9,0,1.3c0,0,0,0,0,0.1l5.9-3.9L-344.1,451.4z"/>
		<path class="st3" d="M-217.9,397.6c0.8-0.9,1.9-2.1,2-2.4c0.2-0.4,1-2.5,1.1-2.9s0.5-0.3,0.9-0.4c0.5-0.1,1.1-1.7,2-1.6
			s5.2,3.5,5.4,3.5c0.2,0,0.5-0.7,0.5-1c0-0.4-0.4-0.9-0.3-1.5c0.1-0.6,1.1-1.9,1.2-2.6c0-0.7-0.5-0.9-0.4-1.4
			c0-0.5,0.6-4.2,0.6-5.1s-0.3-3.1-0.3-3.7c0.1-0.5,0.3-1.5,0.4-2c0.1-0.5-0.1-2.3-0.2-2.8c-0.1-0.4-1-2.3-1-2.6s0.1-2.4,0-2.7
			c-0.1-0.3-1.1-0.5-1.1-0.7s0-0.7-0.1-0.9s-0.5-0.6-0.5-0.8c0-0.2,0.1-1.2-0.1-1.4s-1.6-1.7-1.6-2.5s0.2-1.8,0.4-2.6
			s-2.2-8.2-2.4-8.9c-0.1-0.7-1.2-0.7-1.3-0.8s-0.5-0.7-0.8-0.7s-0.3,0.5-0.6,0.4c-0.3,0,0.1-0.3-0.2-0.3c-0.2,0-0.4,0.2-0.9,0
			s0.5-0.5-1.1-0.5s-2,0.6-2.5,0.8c0,0-1.3-0.7-1.7-0.7s-1,0.9-1,0.9h-0.8c0,0-0.1,0.3,0-0.1s-0.7-0.9-1-1c-0.2-0.1-0.8,0.4-1,0.5
			c-0.2,0-0.5-0.5-0.6-0.6c-0.1-0.1-0.4-0.3-1-0.5s-0.8-0.5-0.8-0.5c-0.3,0-0.6,0-0.8-0.2s-0.2-0.5-1.2-0.5s-0.8,0.3-1.2,0.3
			s-0.5-0.3-0.7-0.3s-0.4,0.5-0.7,0.6s0-0.4-0.5-0.4s-0.9,0.7-1.5,0.6s-0.4-0.4-0.9-0.4c-0.5,0-0.6,0.6-1.2,0.6
			c-0.6,0-0.3-0.3-1-0.3s-0.9,1.1-0.9,1.5s0.4,0.1,0.3,0.8s-0.7,0.9-0.9,0.9c-0.2,0-0.2-0.2-0.6-0.2s-0.4,0.7-0.5,0.8
			s-0.2-0.2-0.5-0.2c-0.7-0.1-1.1,1-1.3,1s-0.1-0.3-0.5-0.3c-0.4,0-0.3,0.3-0.7,0.4c-0.4,0.1-0.2-0.4-1.2-0.4s-1.5,1-1.8,1
			c-0.2,0-0.7-0.1-1,0.2s-0.2,1.2-0.5,1.5c-0.3,0.4-0.5,0.2-0.7,0.4s0.1,0.5-0.1,1s-0.6,0.2-0.9,0.3c-0.3,0.1-0.3,0.8-0.3,1.2
			s-0.7,0.5-1,0.5c-0.3,0-0.5,0.2-0.7,0.4c-0.2,0.2,0.2,1.2-0.6,1.2c-0.3,0-0.1-0.5-0.5-0.5c-0.2,0-0.3,0.1-0.6,0.3
			s-0.6,1.3-0.6,1.7c0,0.4-0.5,0.5-0.9,0.5c-0.3,0-0.7-0.3-1-0.3s-0.6,0.1-1,0.3s0,0.5-0.3,0.6c-0.3,0-0.5,0-0.8,0.2
			c-0.2,0.1,0.2,0.7-0.1,0.9c-0.3,0.2-1,0.2-1.2,0.4s-0.2,1.1-0.4,1.1s-0.3-0.2-0.6-0.2s-0.7,0.6-0.7,1.2c-0.1,1.5-0.8,3.7-0.8,3.7
			s-0.1,2.4-0.4,2.5c-0.3,0.1-0.3,0.4-0.3,0.4s-0.2,0-0.8,0s-0.8,0.9-1,0.9c-0.2,0-1.4,0.5-1.7,1.6s-0.6,1.3-1.6,1.3
			s-3.8,1.5-4.1,1.4c-0.3,0-0.3-0.4-0.5-0.6c-0.2-0.2-0.6,0.1-0.7,0.5c-0.1,0.4,0.5,1.1,0.5,1.3c0,0.3,0,0.5-0.4,0.6
			s-0.3,0.5-0.3,0.8c0,0.2-0.1,0.7-0.3,1l24.8,16.6L-217.9,397.6L-217.9,397.6z"/>
		<path class="st3" d="M-311.3,492c0.3-0.1,0.4,0.2,0.7,0.2c0.3,0.1,0.8-0.4,0.8-0.6c0-0.1-0.3-0.2-0.3-0.5l-1.5,1
			C-311.6,492.1-311.4,492-311.3,492z"/>
		<path class="st3" d="M-308.7,490.1c0.1,0,0.2,0,0.3,0c0.8,0,1.4,0.5,1.7,0.1s1.2-1.1,1.6-0.9c0.3,0.1,0.9,0.5,1.1,0.5
			c0.2,0,0.2-0.5,0.3-0.6s0.3,0.1,0.4,0.6c0.1,0.5,1.2,0.7,1.5,0.8s0.1,0,0.2-0.2s0.5-0.4,0.9-0.4c0.4,0,0.3,0.4,0.7,0.7
			c0.4,0.3,1.5,0,2,0.2s0.7,0,0.6-0.2c0-0.3-0.3-0.4-0.1-0.9c0.2-0.5,1.3-0.4,2.4-0.4c1.1-0.1,1.7,0.1,2.3,0.4
			c0.5,0.3,1.3,0.3,2.1,0.5c0.8,0.2,1.7,0,2.7,0.5s1.2,0.1,1.7,0.8c0.5,0.7,1.4-0.2,2.4,0.2s1.6,0.1,1.6-0.2s-0.3-0.5-0.3-0.5
			c-0.1-0.3,0.6-0.4,0.8-0.9s-0.5-1.5,2.3-1.4c1,0.1,3.3,1.4,4.4,1.5c1.1,0.1,1.3-0.6,1.4-0.8c0-0.2-1-1-1-1.8s2.6-1.8,4.1-1.8
			c1.5,0,2.6,0.8,2.6,0.8s2,0,2.2-0.2c0.2-0.2,1.4-0.3,1.9-0.5c0.5-0.2,0.9-0.8,0.9-0.8c0.2-0.1,1.1,0,1.4-0.2s0.4-0.6,0.7-0.6
			c0.3-0.1,1-0.1,1.3-0.2c0.3-0.2,0.2-0.6,0.3-0.8c0.2-0.2,0.9-0.1,1-0.3s1-0.9,1.3-0.9c0.3,0,0.3,0.1,0.5-0.3s1.1-1.1,1.4-1.3
			c0.2-0.2,0.6-0.3,1.1-0.6s0.9-0.9,1.2-1.1s0.6-0.2,1-0.2c0.4-0.1,1.7-1.5,2.2-1.9s0.9-1.6,1.3-1.9s0.9-0.5,1.5-0.7
			c0.7-0.2,3.8-3.2,4.7-4s3.8-4.2,3.9-4.4c0.1-0.2,0.1-0.6,0.1-0.7c0,0,0.4,0,0.5,0s0.4-0.3,0.5-0.4c0.1,0,0-0.5,0.2-0.7
			s1.1-0.9,1.2-1.1c0.1-0.2,0.2-0.7,0.4-1c0.2-0.3,1.1-0.5,1.7-0.8c0.6-0.3,1.1-1.5,1.5-1.9c0.4-0.3,0.7-0.4,1.2-0.6
			c0.5-0.2,0.7-0.6,1.7-1.3c1-0.7,2.1-2.3,2.6-3c0.5-0.7,2.9-4.5,3.3-5.3c0,0,0,0,0,0l-24-0.1L-308.7,490.1z"/>
		<path class="st3" d="M-314.2,494.4c1.2,0.1,1.9-1,1.9-1.2c0.1-0.2-0.1-0.2-0.1-0.6c0,0,0-0.1,0-0.1l-2.6,1.7
			C-314.7,494.4-314.5,494.4-314.2,494.4z"/>
		<path class="st2" d="M-331.1,499.1c0.2-0.4,0.7-0.9,1.1-0.9s0.7,0,0.7-0.1c-0.1-0.4,1.3-1.3,1.3-1.3c0.2-0.4,1-1.7,2.6-1.7
			c1,0,1.7,0.5,2,0.6s0.5-0.3,0.5-0.6c0-0.3-0.4-0.4-0.5-0.5c0-0.1,0.3-0.2,0.5-0.1c0.2,0,0.5,0,0.5-0.1c0-0.1,0-0.4,1-0.2
			c1,0.1,2,0.9,2.8,0.9s1.3-1,2.4-1c0.3,0,0.6,0.2,1.2,0.4l2.6-1.7c0.1-0.2,0.4-0.3,0.7-0.4l1.5-1c0-0.1,0-0.1,0-0.2
			c0-0.4,0.7-0.7,1.4-0.8l61.5-41.3l24,0.1c0.5-0.9,3.5-5.8,3.6-6.2c0.1-0.4,0.8-1,1.2-1.3s0.7-1.1,0.7-1.3c0-0.1-0.1-0.8-0.1-1.1
			c0-0.1,0-0.1,0.1-0.2H-251l-88,58.4c-0.1,0.2,0,0.4,0.2,0.5c0.3,0.1,0.5-0.2,1.1,0s2.1,1.8,2.4,1.8c0.3,0,1.1-0.4,1.7-0.3
			c0.5,0.1,1.1,0.5,1.7,0.6h0.6C-331,499.8-331.3,499.4-331.1,499.1z"/>
		<path class="st2" d="M-213.4,408.2c-0.1-0.1-0.3-0.1-0.4-0.2c-0.8-0.3-0.9-0.3-1.3-0.4c-0.4,0-0.8-1.3-1-1.5s-1-0.7-1-1
			c0-0.3,0.2-0.9,0.2-1.1c0-0.2-0.3-0.3-0.6-0.6c-0.3-0.3-0.3-0.7-0.5-0.7c-0.2,0-0.3,0.4-0.6,0.5c-0.3,0.1-0.4-0.4-0.4-0.4
			s0-3.8,0.1-4.2c0-0.1,0.4-0.5,0.8-1h-29.4L-272,381c-0.1,0.2-0.1,0.3-0.2,0.4c-0.3,0.4-0.2,1.2-0.4,1.5s-1,1.9-1,2.4
			c0,0.6-0.5,1-0.7,1.3s-0.2,0.8-0.7,1.3s-2,1.5-2.9,1.5c-0.7,0-1.2-0.3-1.8-0.5l28.5,19.2L-213.4,408.2L-213.4,408.2z"/>
		<path class="st2" d="M-197.1,406.6c0.1-0.6,0.6-2.2,0.6-2.2s-5,0.1-5.4,0s-1.5-0.7-1.9-0.7s-0.3,0.3-0.6,0.4
			c-0.3,0-0.1-0.4-0.1-0.4c0-0.1,0.3-0.4,0.3-0.4s-0.3-0.6-0.5-0.5s-0.3,0.7-1,0.8c-0.7,0.1-0.3,2-0.6,2.3c-0.3,0.3-0.6,1.4-0.6,2.1
			c0,0.1,0,0.2,0.1,0.3h9.3C-197.3,407.5-197.1,406.8-197.1,406.6z"/>
		<path class="st2" d="M-301.7,423.2l-42.4,28l0,0.2l-0.2,12.5l61.3-40.7l-32.4-21.6c-0.1,0.5-1.1,0.9-1.4,0.9
			c-0.3,0-0.7-0.2-0.9-0.2s-0.3,0.4-0.5,0.4s-0.8-0.7-1.3-0.7c-0.6,0-0.8,0.7-0.9,0.7c-0.1,0-0.2-0.3-0.6-0.3s-0.7,0.3-1,0.4
			s-0.4-0.2-0.9-0.2s-1.4-0.8-1.8-0.9c-0.5,0-0.8,0.3-0.9,0.5s-0.2,0.5-0.6,0.5c-0.3,0-0.3,0.4-0.7,0.4c-0.3,0-0.4-0.6-0.5-0.8
			c-0.1-0.2-0.3-0.7-0.3-0.9c0-0.2-0.1-0.4-0.1-0.7c0-0.3,0.3-0.8,0.3-1.1c0-0.4-0.6-0.8-0.5-1.4s0.6-0.8,0.8-0.9
			c0.2-0.1,0.3-0.7,0.3-0.7c0.6-0.3,0.9-1.4,0.9-1.7c0-0.1,0.1-0.2,0.2-0.3l-9-6l0.3,12.7L-301.7,423.2z"/>
		<path class="st4" d="M-301.7,423.2l-32.8-21.8l0.5,20.3c-0.6,0.1-1,0.2-1.5,0.6c-0.5,0.3-0.2,0.7-0.5,0.7c-0.4,0-0.3-0.4-0.7-0.4
			s-0.4,0.4-0.8,0.4s-0.5,0-0.9,0.5c-0.4,0.4-1,1.6-1.2,2.1c-0.2,0.5-0.6,0.4-0.8,0.4s-0.5-0.2-0.8-0.2s-0.6,0.4-0.5,0.9
			s0.6,0.7,0.7,1c0.1,0.3-0.2,0.3-0.5,0.4s-0.5,0-0.7,0.2c-0.2,0.2-0.2,0.5-0.7,0.7c-0.5,0.1-0.9-0.7-1.5-1.1
			c-0.6-0.4-2.6-0.6-3.4-0.6s-1.4,0.4-1.8,0.6s-1,0.5-1,0.5c-0.6,0-0.7-0.5-1-0.5s-0.6,0.6-1.4,0.7c-0.8,0.2-2-2.1-4.1-2.1
			c-0.4,0-1.3,0.7-1.6,0.7s-0.6-0.3-0.6-0.5c0-0.2,0.3-0.2,0.3-0.3c0-0.1-0.3-0.5-0.7-0.6c-0.4-0.1-0.7,0.6-1,0.7
			c-0.3,0.1-0.5-0.4-0.6-0.5c-0.1-0.1,0.4-0.5,0.4-1c0-0.5-0.6-0.5-0.5-0.7c0-0.2-0.4-0.5-0.4-0.9s1-0.9,1-1.4
			c0-0.5-0.8-0.6-0.8-0.9c0-0.2-0.4-0.6-0.5-0.6c-0.1,0-0.5,0.3-1,0.3s-0.6-0.6-0.6-0.9c0-0.3,0.4-0.2,0.4-0.5
			c0-0.3-0.2-0.3-0.5-0.3c-0.2,0-0.2-0.1-0.4-0.4c-0.2-0.3-0.4-0.5-0.7-0.5c-0.3,0-1,0.7-1.2,0.7s-0.2-0.3-0.2-0.3s-0.3-0.1-0.3,0.2
			c0,0.2,0.1,1.1-0.3,1.3c-0.4,0.2-0.3,0.5-0.3,0.5s0.1,0.6-0.2,0.6s-0.6,0.2-0.6,0.4s0.4,0.3,0.5,0.8c0.1,0.5-0.1,0.3-0.2,0.8
			c-0.1,0.5-0.1,1-0.5,1c-0.4,0-0.2-0.5-0.8-0.5s-0.9,1.2-1.1,1.3c-0.1,0-0.1,0.1-0.2,0.1v1.2c0.1,0.1,0.1,0.1,0.2,0.2
			c0.3,0.3,0.2,1.4,0.3,1.8c0,0.4,1.4,1,1.8,1.5c0.3,0.5,0,0.5,0.2,0.9s1.1,0.8,1.2,1.3s-0.1,0.4,0.1,1.1s1.2,2.1,1.6,3.2
			s1,3.1,1,3.8c0,0.8,0.5,1.3,1,1.8c0.5,0.5,0.1,0.4,0.2,1.1c0.1,0.7,0,0.8,0.4,1.4c0.4,0.6,0.5,1.2,0.6,1.7s1,1.4,1.2,1.8
			c0.2,0.4,0.7,1.2,0.9,1.8c0.2,0.6,0.8,1.1,1,1.5c0.2,0.3,0.3,0.8,0.4,1.4s0.7,1.3,1.1,1.8s1.1,1.9,1.7,2.5
			c0.4,0.5,0.7,0.9,1.1,1.4l10.3-6.8L-301.7,423.2z"/>
		<path class="st3" d="M-251,438.8h33.4c0.2-0.3,0.7-0.4,1.1-0.9c0.5-0.6,1.2-2.6,2.2-3.8s4.8-4.4,4.7-4.7c0-0.2,0.2-0.4,0.3-0.4
			c0,0,0,0,0.1,0c0.2,0,0.3,0.3,0.8,0.3s2.1-1.2,2-1.4c-0.1-0.2-0.5-0.1-0.5-0.3s0.2-0.4,0.4-0.4s0.9-0.2,1.1-0.4
			c0.1-0.2,0.8-0.8,1.2-0.8c0.4-0.1,1.9-2.3,1.9-2.3s0-0.8,0-1c0-0.2,0.3-0.7,0.4-0.8s0.4-0.4,0.4-0.6s-0.3-0.2-0.4-0.1
			c-0.1,0.1-0.6,0.5-0.6,0.1c0-0.4,0-1.2,0.1-1.7c0.1-0.4,0.4-0.8,0.2-1.1c-0.1-0.2-0.6-0.1-0.8-0.6s0.3-1.4,0.6-1.3
			c0.3,0,0.2,1,0.5,1s0.2-1.1,0.6-1s0.5,1,0.8,1s0.4-0.3,0.3-0.6c-0.2-1.6,1.6-6,1.6-6.1c0-0.1-0.2-0.3-0.3-0.3s-1-0.1-1-0.4
			c0-0.3,0.9-0.8,1-0.6c0.1,0.2,0.5,0.9,0.7,0.8c0.1,0,0.4-1.2,0.6-2.2h-9.3c0.1,0.4,0.2,0.6,0.3,1c0.1,0.6-0.1,0.4-0.4,0.5
			s-4.2-0.6-4.8-0.6c-0.4,0-1.2-0.6-1.8-0.9h-37.8l-28.5-19.2c-0.2-0.1-0.5-0.2-0.7-0.2c-0.7,0-2.2,1.5-2.5,1.5s-0.6-0.5-0.8-0.5
			c-0.2,0-0.2,0.2-0.7,0.3s-0.9-0.5-1.2-0.5s-0.7-0.8-1.1-0.8s-0.3,0.5-0.8,0.5s-2.2-1.8-2.6-1.8s-0.6,0.5-0.9,0.6s-0.7-0.5-1.3-0.5
			s-2.2-2-2.5-2.1s-2.5-2-2.9-2.1s-0.3,0.3-0.6,0.3s-0.8-0.4-1.5-0.5s-1.3,0.8-1.6,0.7c-0.3-0.1-0.3-0.3-0.5-0.2
			c-0.2,0.1-1.2,1.1-1.3,1.2c-0.1,0-0.1,0.7-0.2,0.8s-0.5,0.2-0.8,0.5c-0.3,0.3-0.1,1.9-0.3,2.3c-0.1,0.4-0.6,0.6-0.6,0.8
			c0,0.2,0.2,0.5,0.2,0.8s-0.2,0.5-0.4,0.8s0.2,0.3,0.2,0.6c0,0.3-0.4,0.7-0.9,1.2c-0.5,0.5-0.6,1.3-0.8,1.8
			c-0.2,0.5-0.2,0.5-0.5,0.5c-0.3,0-0.2-0.2-0.7-0.2c-0.5,0-0.4,0.8-0.8,1.1s-1.4,0.5-1.9,0.8c-0.5,0.3-0.3,0.5-0.5,1.5
			c-0.2,1.1-2,2.2-2.5,2.2c-0.5,0-0.8-0.4-1.2-0.4c-0.5,0-0.7,0.3-0.7,0.5c0,0.3,0.4,0.5,0.3,1c0,0,0,0,0,0l32.4,21.6l-61.3,40.7
			l-5.9,3.9c0,0.4,0.5,0.8,0.6,1.1c0.1,0.4-0.4,0.6-0.5,1.2s0.4,0.6,0.5,1.5c0.1,0.8-0.4,1.2-0.7,2.1c-0.2,0.9-1.4,1.8-2,1.7
			s-0.6-0.9-1.4-0.9c-0.8,0-0.7,2.4-0.7,2.8s0.7,1.2,1.1,1.2s0.4-0.4,0.6-0.3c0.2,0.1,0.2,0.2,0.2,0.5c0,0.3,0.4,0.8,0.7,1
			c0.3,0.3,0.3,0.5,0.2,0.7c-0.1,0.2-0.3,0.1-0.4,0s-0.3-0.4-0.4-0.7c-0.1-0.3-0.3-0.3-0.5-0.4s-0.2,0.2-0.3,0.6
			c-0.1,0.4,1,0.9,1.5,1.2c0.5,0.4,0.5,0.6,0.6,1c0.1,0.4,0.2,0.6,0.9,1c0.7,0.4,0.8,0.6,0.8,0.9c0,0.3,0,0.6,0.2,0.7
			s1.1,1.1,1.1,1.7c0,0.6,0,0.9-0.1,1.7s-0.4,1.4-0.6,1.7s-0.1,0.8-0.2,1.2s0.2,0.4,0.2,0.6c0,0.2-0.2,0.4-0.2,0.7
			c0,0.3,0.2,0.2,0.5,0.7c0.3,0.4,0.2,0.4,0.3,0.9c0.1,0.5,0.2,0.5,0.4,0.5c0.2,0.1,0.7-0.1,0.7-0.3c0-0.2-0.4-0.5-0.4-0.7
			s0.3-0.3,0.3-0.6s-0.5-0.5-0.5-0.9s0.7-0.4,0.8-0.5c0.1-0.1,0.2-0.2,0.4-0.3s1.5-0.1,2.1-0.2s0.7,0.2,0.8,0.7
			c0.1,0.4,0,1.1-0.1,1.5s-0.2,0.7-0.3,0.9c-0.1,0.2,0.1,0.6,0.4,0.9c0.3,0.3,0.3-0.2,0.6-0.3s0.5-0.2,0.7-0.3s0.6-0.1,0.9-0.1
			s0.2-0.2,0.4-0.2c0.2,0,0.2,0,0.3,0.2s-0.1,0.4-0.1,0.8c0,0.3,0.5,0.4,1,0.4s0.4-0.3,0.5-0.4s0.4-0.1,0.5,0.1s0,0.4,0,0.5
			s0.3,0.1,0.4,0.5c0,0.4-0.2,0.8-0.5,0.9c-0.1,0-0.1,0.1-0.1,0.1L-251,438.8z"/>
		<path class="st3" d="M-325.8,394.7c0.2-0.2,0.5-0.5,0.5-0.8c0-0.4-0.5-0.9-0.5-0.9s-0.1-0.8-0.2-1.7c-0.1-0.9-0.8-1-0.8-1.1
			c0-0.1,0.2-0.2,0.2-0.5c0-0.3-0.9-0.9-0.9-0.9c-0.1,0,0.1-0.2,0.1-0.3s-0.5-0.3-0.5-0.5c0-0.2,0.5-0.3,0.5-0.5
			c0-0.2-0.6-0.8-0.6-1c0-0.2,0.2-0.2,0.3-0.4c0-0.2-0.3-0.3-0.3-0.6s-0.6-0.1-0.6-0.2s-0.3-0.4-0.5-0.5s0.1-0.5-0.1-1
			c-0.2-0.6-0.9-0.1-0.9-1.1s-2.1-3.1-2.1-3.1c-0.5-0.4-0.7,0.4-1.1-0.3s-1.8-1.5-1.8-1.5l0.3,10.9L-325.8,394.7z"/>
	</g>
</g>
<g id="Layer_3">
	<path class="st5" d="M-333.9,421.4l-1.2-44c0,0,1.5,0.8,1.8,1.5s0.6-0.1,1.1,0.3c0,0,2.1,2.1,2.1,3.1s0.7,0.6,0.9,1.1
		c0.2,0.6-0.1,0.9,0.1,1c0.2,0.1,0.5,0.3,0.5,0.5s0.6,0,0.6,0.2c0,0.2,0.3,0.4,0.3,0.6s-0.2,0.2-0.3,0.4c0,0.2,0.6,0.8,0.6,1
		s-0.5,0.3-0.5,0.5c0,0.2,0.5,0.4,0.5,0.5c0,0.1-0.2,0.3-0.1,0.3c0.1,0,0.9,0.7,0.9,0.9c0,0.3-0.2,0.4-0.2,0.5
		c0,0.1,0.7,0.1,0.8,1.1c0.1,0.9,0.2,1.7,0.2,1.7s0.4,0.5,0.5,0.9c0,0.4-0.6,0.8-0.7,1.1c0,0.3-0.3,1.3-0.9,1.7c0,0-0.1,0.6-0.3,0.7
		c-0.2,0.1-0.6,0.2-0.8,0.9s0.5,1.1,0.5,1.4c0,0.4-0.3,0.8-0.3,1.1c0,0.3,0.1,0.5,0.1,0.7s0.2,0.7,0.3,0.9c0.1,0.2,0.2,0.8,0.5,0.8
		s0.3-0.4,0.7-0.4c0.3,0,0.5-0.4,0.6-0.5c0.1-0.2,0.4-0.5,0.9-0.5c0.5,0,1.3,0.9,1.8,0.9c0.5,0,0.6,0.3,0.9,0.2
		c0.3-0.1,0.6-0.4,1-0.4c0.4,0,0.5,0.3,0.6,0.3s0.3-0.7,0.9-0.7s1.1,0.7,1.3,0.7c0.2,0,0.3-0.4,0.5-0.4c0.2,0,0.6,0.2,0.9,0.2
		c0.3,0,1.3-0.5,1.4-0.9c0.1-0.5-0.3-0.8-0.3-1c0-0.3,0.2-0.5,0.7-0.5s0.7,0.4,1.2,0.4c0.5,0,2.3-1.2,2.5-2.2c0.2-1.1,0-1.2,0.5-1.5
		c0.5-0.3,1.5-0.5,1.9-0.8c0.4-0.3,0.3-1.1,0.8-1.1c0.5,0,0.4,0.2,0.7,0.2c0.3,0,0.2,0,0.5-0.5c0.2-0.5,0.4-1.3,0.8-1.8
		c0.5-0.5,0.8-0.8,0.9-1.2c0-0.3-0.3-0.3-0.2-0.6s0.4-0.5,0.4-0.8s-0.2-0.6-0.2-0.8c0-0.2,0.5-0.5,0.6-0.8c0.1-0.4,0-2,0.3-2.3
		s0.8-0.3,0.8-0.5s0-0.8,0.2-0.8c0.1,0,1.1-1.1,1.3-1.2c0.2-0.1,0.3,0.2,0.5,0.2c0.3,0.1,0.9-0.8,1.6-0.7c0.7,0,1.2,0.5,1.5,0.5
		s0.2-0.4,0.6-0.3c0.4,0.1,2.5,2,2.9,2.1s2,2.1,2.5,2.1c0.5,0,1,0.5,1.3,0.5c0.3,0,0.5-0.6,0.9-0.6s2.2,1.8,2.6,1.8
		c0.5,0,0.4-0.4,0.8-0.5s0.8,0.8,1.1,0.8c0.3,0,0.7,0.6,1.2,0.5s0.4-0.3,0.7-0.3c0.2,0,0.5,0.4,0.8,0.5c0.3,0,1.9-1.5,2.5-1.5
		s1.5,0.7,2.5,0.7s2.4-1.1,2.9-1.5c0.5-0.5,0.5-1,0.7-1.3s0.8-0.7,0.7-1.3c0-0.6,0.8-2.2,1-2.4s0.1-1,0.4-1.5s0.5-1.1,0.5-1.5
		s-0.2-0.6,0.3-0.8s0.4-0.4,0.4-0.6c0-0.3-0.6-0.9-0.5-1.3c0.1-0.4,0.4-0.7,0.7-0.5s0.2,0.6,0.5,0.6c0.3,0,3-1.4,4.1-1.4
		c1.1-0.1,1.4-0.3,1.6-1.3c0.3-1.1,1.4-1.6,1.7-1.6c0.2,0,0.5-0.9,1-0.9s0.8,0,0.8,0s0-0.3,0.3-0.4c0.3-0.1,0.4-2.5,0.4-2.5
		s0.7-2.2,0.8-3.7c0-0.6,0.4-1.2,0.7-1.2s0.4,0.2,0.6,0.2s0.2-0.9,0.4-1.1c0.2-0.2,0.9-0.2,1.2-0.4c0.3-0.2-0.1-0.8,0.1-0.9
		c0.2-0.1,0.5-0.1,0.8-0.2c0.3,0-0.1-0.4,0.3-0.6c0.4-0.2,0.6-0.3,1-0.3s0.7,0.3,1,0.3c0.3,0,0.9-0.2,0.9-0.5c0-0.4,0.2-1.5,0.6-1.7
		s0.5-0.3,0.6-0.3c0.5,0,0.2,0.5,0.5,0.5c0.8,0,0.4-0.9,0.6-1.2c0.2-0.2,0.4-0.4,0.7-0.4c0.3,0,1-0.1,1-0.5c0-0.5,0-1.1,0.3-1.2
		c0.3-0.1,0.8,0.2,0.9-0.3s-0.1-0.8,0.1-1s0.4,0,0.7-0.4s0.2-1.2,0.5-1.5s0.8-0.2,1-0.2s0.8-1,1.8-1s0.8,0.5,1.2,0.4
		c0.4-0.1,0.4-0.4,0.7-0.4c0.4,0,0.2,0.3,0.5,0.3s0.6-1,1.3-1c0.3,0,0.3,0.2,0.5,0.2s0.1-0.8,0.5-0.8s0.4,0.2,0.6,0.2
		c0.2,0,0.8-0.3,0.9-0.9s-0.3-0.4-0.3-0.8c0-0.3,0.2-1.4,0.9-1.5c0.7,0,0.4,0.3,1,0.3c0.6,0,0.7-0.6,1.2-0.6c0.5,0,0.2,0.3,0.9,0.4
		c0.6,0.1,1-0.6,1.5-0.6s0.2,0.5,0.5,0.4s0.5-0.6,0.7-0.6s0.3,0.3,0.7,0.3s0.2-0.3,1.2-0.3s1.1,0.3,1.2,0.5c0.1,0.2,0.5,0.2,0.8,0.2
		c0,0,0.2,0.4,0.8,0.5s0.9,0.3,1,0.5c0.1,0.1,0.4,0.6,0.6,0.6c0.2,0,0.8-0.5,1-0.5c0.2,0.1,1.1,0.6,1,1c-0.1,0.4,0,0.1,0,0.1h0.8
		c0,0,0.6-0.9,1-0.9s1.7,0.7,1.7,0.7c0.4-0.2,0.8-0.8,2.5-0.8s0.7,0.2,1.1,0.5s0.6,0,0.9,0s-0.1,0.3,0.2,0.3c0.3,0,0.4-0.4,0.6-0.4
		s0.6,0.6,0.8,0.7s1.1,0.1,1.3,0.8c0.1,0.7,2.5,8,2.4,8.9s-0.4,1.9-0.4,2.6c0,0.8,1.4,2.3,1.6,2.5c0.2,0.2,0.1,1.2,0.1,1.4
		c0,0.2,0.3,0.6,0.5,0.8c0.1,0.2,0.1,0.7,0.1,0.9c0,0.1,1,0.4,1.1,0.7c0.1,0.3,0,2.4,0,2.7c0,0.3,0.9,2.1,1,2.6
		c0.1,0.4,0.3,2.2,0.2,2.8c-0.1,0.5-0.3,1.5-0.4,2c-0.1,0.5,0.3,2.8,0.3,3.7s-0.5,4.6-0.6,5.1s0.5,0.7,0.4,1.4c0,0.7-1.1,2-1.2,2.6
		c-0.1,0.6,0.3,1.2,0.3,1.5c0,0.4-0.3,1.1-0.5,1c-0.2,0-4.6-3.4-5.4-3.5s-1.5,1.4-2,1.6s-0.8,0.1-0.9,0.4s-0.9,2.5-1.1,2.9
		s-2.7,3-2.8,3.4s-0.1,4.2-0.1,4.2s0.1,0.4,0.4,0.4c0.3-0.1,0.4-0.5,0.6-0.5s0.1,0.4,0.5,0.7c0.3,0.3,0.6,0.4,0.6,0.6
		c0,0.2-0.2,0.8-0.2,1.1s0.8,0.8,1,1s0.5,1.5,1,1.5c0.4,0,0.5,0.1,1.3,0.4c0.8,0.3,1.7,1.1,2.2,1.1c0.5,0,4.4,0.7,4.8,0.6
		s0.5,0.1,0.4-0.5s-0.3-0.7-0.4-1.4s0.3-1.8,0.6-2.1c0.3-0.3-0.1-2.2,0.6-2.3c0.7-0.1,0.8-0.8,1-0.8s0.5,0.5,0.5,0.5
		s-0.3,0.4-0.3,0.4c0,0.1-0.2,0.5,0.1,0.4c0.3,0,0.2-0.4,0.6-0.4c0.4,0,1.5,0.5,1.9,0.7s5.4,0,5.4,0s-0.5,1.7-0.6,2.2
		c-0.1,0.6-0.8,3.7-1,3.8c-0.2,0.1-0.6-0.6-0.7-0.8c-0.1-0.2-1,0.3-1,0.6c0,0.3,0.8,0.4,1,0.4c0.1,0,0.3,0.2,0.3,0.3
		s-1.8,4.5-1.6,6.1c0,0.3-0.1,0.6-0.3,0.6s-0.4-1-0.8-1s-0.3,1-0.6,1s-0.2-1-0.5-1c-0.3,0-0.7,0.9-0.6,1.3c0.1,0.5,0.6,0.4,0.8,0.6
		c0.1,0.2-0.1,0.6-0.2,1.1c-0.1,0.4-0.2,1.3-0.1,1.7s0.5-0.1,0.6-0.1c0.1-0.1,0.4-0.1,0.4,0.1s-0.2,0.5-0.4,0.6
		c-0.2,0.1-0.4,0.6-0.4,0.8c0,0.2,0,1,0,1s-1.5,2.2-1.9,2.3c-0.4,0.1-1,0.6-1.2,0.8c-0.1,0.2-0.8,0.4-1.1,0.4s-0.4,0.2-0.4,0.4
		c0,0.2,0.4,0.1,0.5,0.3s-1.6,1.4-2,1.4s-0.5-0.3-0.8-0.3s-0.1,0-0.1,0s-0.3,0.1-0.3,0.4c0,0.3-3.7,3.5-4.7,4.7
		c-1,1.2-1.7,3.1-2.2,3.8s-1.2,0.8-1.2,1.1s0.1,1,0.1,1.1s-0.3,1-0.7,1.3c-0.5,0.3-1.1,0.8-1.2,1.3s-3.2,5.4-3.7,6.2
		s-2.8,4.6-3.3,5.3s-1.7,2.3-2.6,3c-1,0.7-1.2,1.1-1.7,1.3c-0.5,0.2-0.8,0.3-1.2,0.6s-0.9,1.5-1.5,1.9c-0.6,0.3-1.4,0.5-1.7,0.8
		s-0.4,0.8-0.4,1s-1,1-1.2,1.1s-0.1,0.6-0.2,0.7s-0.4,0.4-0.5,0.4s-0.5,0-0.5,0c0,0,0,0.5-0.1,0.7c-0.1,0.2-2.9,3.6-3.9,4.4
		c-1,0.8-4,3.8-4.7,4c-0.7,0.2-1.1,0.4-1.5,0.7s-0.8,1.5-1.3,1.9s-1.9,1.8-2.2,1.9c-0.4,0.1-0.7,0.1-1,0.2c-0.3,0.1-0.7,0.7-1.2,1.1
		s-0.8,0.4-1.1,0.6s-1.1,0.9-1.4,1.3c-0.3,0.4-0.2,0.3-0.5,0.3c-0.3,0-1.1,0.7-1.3,0.9s-0.9,0-1,0.3c-0.2,0.2,0,0.6-0.3,0.8
		c-0.3,0.2-1,0.2-1.3,0.2c-0.3,0.1-0.5,0.5-0.7,0.6c-0.3,0.2-1.2,0.1-1.4,0.2c0,0-0.4,0.6-0.9,0.8s-1.7,0.4-1.9,0.5
		s-2.2,0.2-2.2,0.2s-1.1-0.8-2.6-0.8c-1.5,0-4,1-4.1,1.8s1,1.6,1,1.8s-0.2,1-1.4,0.8s-3.4-1.4-4.4-1.5c-2.8-0.1-2.1,1-2.3,1.4
		s-0.8,0.5-0.8,0.9c0,0,0.3,0.2,0.3,0.5c0,0.3-0.6,0.6-1.6,0.2s-1.9,0.4-2.4-0.2c-0.5-0.7-0.7-0.3-1.7-0.8s-1.9-0.3-2.7-0.5
		s-1.6-0.2-2.1-0.5s-1.2-0.4-2.3-0.4s-2.2-0.1-2.4,0.4c-0.2,0.5,0,0.7,0.1,0.9c0,0.3-0.2,0.4-0.6,0.2s-1.6,0.1-2-0.2
		s-0.3-0.6-0.7-0.7s-0.8,0.2-0.9,0.4s0.1,0.4-0.2,0.2c-0.3-0.1-1.4-0.3-1.5-0.8c-0.1-0.5-0.2-0.6-0.4-0.6c-0.2,0-0.1,0.6-0.3,0.6
		c-0.2,0-0.8-0.4-1.1-0.5c-0.3-0.1-1.3,0.6-1.6,0.9c-0.3,0.3-0.9-0.1-1.7-0.1s-1.7,0.4-1.8,0.8s0.3,0.5,0.3,0.7s-0.5,0.7-0.8,0.6
		s-0.4-0.4-0.7-0.2s-1,0.3-1,0.7c0,0.4,0.2,0.4,0.1,0.6s-0.8,1.3-1.9,1.2c-1.2-0.1-1.5-0.5-1.9-0.5c-1.1,0-1.6,1-2.4,1
		c-0.8,0-1.8-0.8-2.8-0.9s-1,0.1-1,0.2c0,0.1-0.2,0.1-0.5,0.1c-0.2,0-0.6,0-0.5,0.1s0.5,0.2,0.5,0.5c0,0.3-0.1,0.7-0.5,0.6
		c-0.4-0.1-1.1-0.6-2-0.6c-1.6,0-2.4,1.4-2.6,1.7c0,0-1.4,0.8-1.3,1.3c0,0.1-0.4,0.1-0.7,0.1c-0.3,0-0.9,0.5-1.1,0.9
		c-0.2,0.4,0.3,0.9-0.3,0.9s-1.5-0.6-2.1-0.7c-0.6-0.1-1.4,0.3-1.7,0.3s-1.8-1.6-2.4-1.8c-0.7-0.2-0.8,0.2-1.1,0s-0.4-0.5-0.1-0.7
		c0.3-0.2,0.5-0.5,0.5-0.9s-0.3-0.3-0.4-0.5s0.1-0.3,0-0.5s-0.4-0.2-0.5-0.1c-0.1,0.1-0.1,0.4-0.5,0.4c-0.4,0-0.9-0.1-1-0.4
		s0.2-0.6,0.1-0.8c-0.1-0.1-0.1-0.2-0.3-0.2s-0.2,0.2-0.4,0.2c-0.2,0-0.6,0-0.9,0.1c-0.3,0.1-0.4,0.2-0.7,0.3s-0.3,0.6-0.6,0.3
		s-0.5-0.7-0.4-0.9s0.2-0.5,0.3-0.9c0.1-0.4,0.2-1,0.1-1.5s-0.3-0.7-0.8-0.7c-0.6,0-1.8,0.1-2.1,0.2s-0.3,0.2-0.4,0.3
		s-0.8,0.2-0.8,0.5c0,0.3,0.5,0.6,0.5,0.9s-0.3,0.3-0.3,0.6s0.4,0.5,0.4,0.7c0,0.2-0.5,0.4-0.7,0.3c-0.2-0.1-0.3-0.1-0.4-0.5
		s0-0.5-0.3-0.9s-0.5-0.4-0.5-0.7s0.1-0.5,0.2-0.7c0-0.2-0.3-0.2-0.2-0.6c0.1-0.4,0.1-0.9,0.2-1.2c0.1-0.3,0.4-1,0.6-1.7
		s0.1-1.1,0.1-1.7s-1-1.5-1.1-1.7s-0.2-0.4-0.2-0.7s-0.1-0.5-0.8-0.9s-0.8-0.6-0.9-1s0-0.7-0.6-1c-0.5-0.4-1.5-0.8-1.5-1.2
		c0.1-0.4,0.1-0.6,0.3-0.6c0.2,0.1,0.4,0.1,0.5,0.4s0.3,0.6,0.4,0.7s0.3,0.1,0.4,0c0.1-0.2,0.1-0.4-0.2-0.7s-0.7-0.8-0.7-1
		s0-0.5-0.2-0.5c-0.2-0.1-0.2,0.4-0.6,0.3c-0.4,0-1.1-0.8-1.1-1.2c0-0.4-0.1-2.8,0.7-2.8s0.8,0.8,1.4,0.9s1.8-0.8,2-1.7
		s0.7-1.2,0.7-2.1c-0.1-0.8-0.5-0.9-0.5-1.5c0.1-0.5,0.6-0.8,0.5-1.2c-0.1-0.4-0.6-0.7-0.6-1.2c0-0.5-0.1-1.1,0-1.3
		s-0.4-0.5-0.4-1.2s0.4-1.2,0-1.3c-0.3-0.1-0.5-0.1-0.5-0.8s0-0.6-0.3-1.2s-0.2-0.5-0.8-1.2c-0.7-0.7-1.3-1.3-1.8-2.1
		s-0.9-1.4-1.5-2c-0.6-0.7-1.2-2-1.7-2.5c-0.5-0.5-1-1.2-1.1-1.8c-0.2-0.6-0.2-1-0.4-1.4c-0.2-0.3-0.8-0.9-1-1.5s-0.6-1.4-0.9-1.8
		c-0.2-0.4-1.2-1.3-1.2-1.8s-0.2-1.1-0.6-1.7c-0.4-0.6-0.3-0.7-0.4-1.4s0.3-0.6-0.2-1.1c-0.5-0.5-1-1-1-1.8s-0.6-2.8-1-3.8
		s-1.5-2.6-1.6-3.2s0-0.6-0.1-1.1s-1-0.9-1.2-1.3s0.1-0.4-0.2-0.9c-0.3-0.5-1.7-1.1-1.8-1.5c0-0.4,0.1-1.5-0.3-1.8s-0.8-0.6-0.7-0.9
		c0.1-0.3,0.4-0.5,0.7-0.6c0.2-0.1,0.5-1.3,1.1-1.3c0.6,0,0.4,0.5,0.8,0.5c0.4,0,0.4-0.5,0.5-1c0.1-0.5,0.3-0.3,0.2-0.8
		c-0.1-0.5-0.5-0.5-0.5-0.8s0.3-0.4,0.6-0.4c0.3,0,0.2-0.6,0.2-0.6s0-0.3,0.3-0.5c0.4-0.2,0.3-1.1,0.3-1.3c0-0.2,0.3-0.2,0.3-0.2
		s0.1,0.2,0.2,0.3s0.9-0.7,1.2-0.7s0.5,0.2,0.7,0.5s0.2,0.4,0.4,0.4c0.2,0,0.5,0,0.5,0.3c0,0.3-0.4,0.2-0.4,0.5c0,0.3,0.1,1,0.6,0.9
		c0.5,0,0.9-0.3,1-0.3s0.5,0.4,0.5,0.6c0,0.2,0.8,0.4,0.8,0.9c0,0.5-1,1-1,1.4s0.5,0.6,0.4,0.9s0.5,0.2,0.5,0.7s-0.5,0.9-0.4,1
		s0.3,0.6,0.6,0.5c0.3-0.1,0.6-0.7,1-0.7c0.4,0.1,0.8,0.5,0.7,0.6c0,0.1-0.4,0.2-0.3,0.3s0.3,0.5,0.6,0.5c0.3,0,1.3-0.7,1.6-0.7
		c2.1,0,3.3,2.2,4.1,2.1s1-0.7,1.4-0.7c0.4,0,0.5,0.5,1,0.5c0,0,0.5-0.3,1-0.5c0.5-0.2,1.1-0.6,1.8-0.6s2.8,0.2,3.4,0.6
		s1,1.3,1.5,1.1s0.5-0.5,0.7-0.7s0.4-0.2,0.7-0.2c0.3,0,0.5-0.1,0.5-0.4s-0.6-0.5-0.7-1s0.1-0.9,0.5-0.9c0.4,0,0.6,0.1,0.8,0.2
		c0.2,0,0.6,0.1,0.8-0.4s0.8-1.7,1.2-2.1c0.4-0.4,0.6-0.5,0.9-0.5s0.3-0.4,0.8-0.4s0.4,0.5,0.7,0.4c0.4,0,0-0.4,0.5-0.7
		C-334.9,421.6-334.4,421.4-333.9,421.4z"/>
</g>
</svg>
