<?xml version="1.0" encoding="utf-8"?>
<!-- Generator: Adobe Illustrator 18.1.1, SVG Export Plug-In . SVG Version: 6.00 Build 0)  -->
<!DOCTYPE svg PUBLIC "-//W3C//DTD SVG 1.1//EN" "http://www.w3.org/Graphics/SVG/1.1/DTD/svg11.dtd">
<svg version="1.1" id="Layer_1" xmlns="http://www.w3.org/2000/svg" xmlns:xlink="http://www.w3.org/1999/xlink" x="0px" y="0px"
	 viewBox="0 0 256 256" enable-background="new 0 0 256 256" xml:space="preserve">
<g>
	<g>
		
			<radialGradient id="SVGID_1_" cx="257.6508" cy="953.3337" r="65.8117" gradientTransform="matrix(-0.7012 0.713 -0.713 -0.7012 992.6987 612.8625)" gradientUnits="userSpaceOnUse">
			<stop  offset="0" style="stop-color:#0081D4"/>
			<stop  offset="1" style="stop-color:#0068AA"/>
		</radialGradient>
		<path fill="url(#SVGID_1_)" stroke="#015491" stroke-miterlimit="10" d="M141.653,190.727c-1.031-2.139-2.382-5.448-2.971-7.367
			c-1.129-3.03-0.832-3.624-6.179-3.446c-2.852,0-4.218,0.238-5.162,2.67c-1.086,2.799-2.483,5.474-3.675,8.234
			c-0.639,1.481-1.448,2.144-3.186,1.615c-3.033-0.924-6.115-1.697-9.205-2.412c-1.66-0.384-2.289-1.201-2.102-2.919
			c0.352-3.237,0.486-6.496,0.745-9.738c0.247-3.094-2.486-4.223-3.437-4.758c-0.381-0.215-3.814-2.356-6.48-0.023
			c-1.458,1.276-5.428,4.535-6.964,5.736c-1.096,0.857-1.976,0.865-2.975-0.144c-2.406-2.43-4.84-4.835-7.318-7.192
			c-1.046-0.995-0.977-1.866-0.194-2.979c1.917-2.725,2.411-3.164,4.283-5.92c3.083-4.083,0.539-7.29,0.417-7.583
			c-0.833-2-2.203-3.634-4.051-3.471c-3.244,0.285-6.492,0.56-9.721,0.971c-1.716,0.219-2.54-0.382-2.949-2.043
			c-0.758-3.08-1.588-6.147-2.546-9.17c-0.532-1.68-0.06-2.528,1.513-3.206c2.834-1.221,5.591-2.618,8.38-3.944
			c0.22-0.105,0.519-0.169,0.634-0.348c0.464-0.716,1.374-1.612,1.212-2.184c-0.708-2.492,1.76-5.724-1.354-7.518
			c-2.945-1.697-6.137-2.983-9.278-4.312c-1.436-0.608-1.753-1.422-1.355-2.848c0.899-3.212,1.745-6.44,2.523-9.683
			c0.357-1.489,1.166-1.956,2.636-1.809c3.159,0.317,6.334,0.472,9.491,0.808c1.469,0.156,2.586-0.019,3.021-1.635
			c0.041-0.152,2.209-5.957,2.26-6.108c1.25-3.75-3.917-6.25-5.667-8.083c-2.167-2.417-1.25-4.083,0.083-5.167
			c0.721-0.775,5.424-5.412,6.167-6.167c2.72-2.763,3.083-1.667,4.75-0.333c2.19,1.547,4.271,3.474,6.417,5.083
			c3,2.25,6.314-0.082,6.583-0.25c2-1.25,4-1.75,3.417-4.917c0,0-0.835-5.768-1.219-9.002c-0.186-1.569,0.303-2.428,1.886-2.831
			c3.231-0.824,6.438-1.75,9.639-2.686c1.333-0.39,2.129,0.001,2.709,1.267c1.422,3.102,2.693,5.595,3.985,8.753
			c1.5,3.667,5.17,2.065,5.583,2.083c4.25-0.667,4.854-0.844,5.833-4.083c1.083-3.583,2.417-7.583,2.417-7.583
			c0.667-2.667,2.333-2.083,4.244-1.567c3.298,0.891,6.603,1.762,9.923,2.567c2,0.667,1.459,2.382,1.333,3.75
			c0,0-0.919,5.179-1.25,8.5c-0.333,2.583,0.417,3,3.417,5c4.27,2.821,4.917,1.583,11.073-2.949c4.565-3.361,3.537-3.37,7.629,0.607
			c1.518,1.476,2.969,3.027,4.553,4.428c1.388,1.228,1.725,2.31,0.489,3.934c-1.867,2.454-3.507,5.081-5.245,7.633
			c-0.229,0.336-0.527,0.638-0.696,1.001c-0.79,1.699,3.629,8.091,5.489,7.926c3.325-0.296,6.651-0.592,9.967-0.97
			c1.473-0.168,2.272,0.31,2.65,1.785c0.827,3.231,1.723,6.445,2.677,9.641c0.431,1.444,0.026,2.278-1.336,2.89
			c-2.964,1.331-5.861,2.814-8.836,4.121c-1.289,0.566-2.053,1.245-1.684,2.745c0.076,0.311,0.115,0.665,0.046,0.971
			c-1.062,4.724,1.243,7.097,5.547,8.317c1.778,0.504,3.393,1.557,5.128,2.247c1.439,0.572,1.714,1.478,1.32,2.888
			c-0.898,3.212-1.752,6.438-2.524,9.682c-0.36,1.512-1.202,1.925-2.649,1.785c-3.16-0.306-6.337-0.45-9.491-0.8
			c-1.49-0.166-2.566,0.043-3.02,1.631c-0.065,0.228-0.188,0.468-0.352,0.636c-3.674,3.788-2.222,7.104,0.82,10.407
			c1.201,1.305,2.284,2.799,3.054,4.386c0.371,0.764,0.265,2.264-0.265,2.874c-2.186,2.515-4.125,5.766-6.428,8.183
			c-1.052,1.104-1.988,1.072-3.191,0.215c-2.646-1.885-5.059-3.34-7.684-5.215s-6.662,0.965-6.958,1.083
			c-2.5,1-2.649,3.374-2.5,5.25c0.258,3.246,0.327,3.747,0.715,6.979c0.197,1.645-0.199,2.59-1.941,3.011
			c-3.161,0.763-6.273,1.73-9.421,2.55C144.135,192.394,142.722,193.223,141.653,190.727z"/>
	</g>
	<path fill="#FFFFFF" stroke="#015491" stroke-miterlimit="10" d="M140.315,127.812l-27.221-25.741
		c-0.616-0.537-1.908-0.903-2.743-0.763c-0.512,0.086-1.049,1.286-1.065,1.993c-0.066,3.078-0.013,12.883-0.013,12.883
		l-20.698-0.017L56.729,75.928v108.524l32.06-43.081l20.31-0.038v13.333c-0.014,0.767,0.64,1.78,1.283,2
		c0.683,0.234,2.369-1.806,3.046-2.333l26.478-22.787C141.426,130.355,141.649,129.167,140.315,127.812z"/>
	<g>
		<g>
			<path fill="#FFFFFF" d="M41.976,209c0,1.65,1.35,3,3,3h40.409c1.65,0,3-1.35,3-3v-41.343c0-1.65-1.35-3-3-3H44.976
				c-1.65,0-3,1.35-3,3V209z"/>
			<path fill="none" stroke="#015491" stroke-miterlimit="10" d="M41.976,209c0,1.65,1.35,3,3,3h40.409c1.65,0,3-1.35,3-3v-41.343
				c0-1.65-1.35-3-3-3H44.976c-1.65,0-3,1.35-3,3V209z"/>
		</g>
		<rect x="49.196" y="172.446" fill="#FFFFFF" stroke="#015491" stroke-miterlimit="10" width="27.12" height="4.085"/>
		<rect x="49.196" y="181.516" fill="#FFFFFF" stroke="#015491" stroke-miterlimit="10" width="27.12" height="4.085"/>
		<rect x="49.196" y="190.83" fill="#FFFFFF" stroke="#015491" stroke-miterlimit="10" width="18.211" height="4.085"/>
	</g>
	<g>
		<g>
			<path fill="#FFFFFF" d="M41.976,148.301c0,1.65,1.35,3,3,3h40.409c1.65,0,3-1.35,3-3v-41.343c0-1.65-1.35-3-3-3H44.976
				c-1.65,0-3,1.35-3,3V148.301z"/>
			<path fill="none" stroke="#015491" stroke-miterlimit="10" d="M41.976,148.301c0,1.65,1.35,3,3,3h40.409c1.65,0,3-1.35,3-3
				v-41.343c0-1.65-1.35-3-3-3H44.976c-1.65,0-3,1.35-3,3V148.301z"/>
		</g>
		<rect x="49.196" y="111.414" fill="#FFFFFF" stroke="#015491" stroke-miterlimit="10" width="27.12" height="4.085"/>
		<rect x="49.196" y="120.483" fill="#FFFFFF" stroke="#015491" stroke-miterlimit="10" width="27.12" height="4.085"/>
		<rect x="49.196" y="129.797" fill="#FFFFFF" stroke="#015491" stroke-miterlimit="10" width="18.211" height="4.085"/>
	</g>
	<g>
		<path fill="#FFFFFF" d="M149.382,170.026c0,1.65,1.35,3,3,3h57.951c1.65,0,3-1.35,3-3V86.531c0-1.65-1.35-3-3-3h-57.951
			c-1.65,0-3,1.35-3,3V170.026z"/>
		<path fill="none" stroke="#015491" stroke-miterlimit="10" d="M149.382,170.026c0,1.65,1.35,3,3,3h57.951c1.65,0,3-1.35,3-3
			V86.531c0-1.65-1.35-3-3-3h-57.951c-1.65,0-3,1.35-3,3V170.026z"/>
	</g>
	<g>
		<g>
			<path fill="#FFFFFF" d="M41.976,89.021c0,1.65,1.35,3,3,3h40.409c1.65,0,3-1.35,3-3V47.678c0-1.65-1.35-3-3-3H44.976
				c-1.65,0-3,1.35-3,3V89.021z"/>
			<path fill="none" stroke="#015491" stroke-miterlimit="10" d="M41.976,89.021c0,1.65,1.35,3,3,3h40.409c1.65,0,3-1.35,3-3V47.678
				c0-1.65-1.35-3-3-3H44.976c-1.65,0-3,1.35-3,3V89.021z"/>
		</g>
		<rect x="49.196" y="52.801" fill="#FFFFFF" stroke="#015491" stroke-miterlimit="10" width="27.12" height="4.085"/>
		<rect x="49.196" y="61.87" fill="#FFFFFF" stroke="#015491" stroke-miterlimit="10" width="27.12" height="4.085"/>
		<rect x="49.196" y="71.184" fill="#FFFFFF" stroke="#015491" stroke-miterlimit="10" width="18.211" height="4.085"/>
	</g>
	<g>
		<rect x="156.5" y="107.862" fill="#FFFFFF" stroke="#015491" stroke-miterlimit="10" width="19.547" height="4.612"/>
		<rect x="156.5" y="118.194" fill="#FFFFFF" stroke="#015491" stroke-miterlimit="10" width="44.843" height="4.612"/>
		<rect x="156.5" y="128.434" fill="#FFFFFF" stroke="#015491" stroke-miterlimit="10" width="44.843" height="4.612"/>
		<rect x="156.5" y="138.95" fill="#FFFFFF" stroke="#015491" stroke-miterlimit="10" width="30.111" height="4.612"/>
	</g>
</g>
</svg>
