<?xml version="1.0" encoding="UTF-8" standalone="no"?>
<svg
   xmlns:dc="http://purl.org/dc/elements/1.1/"
   xmlns:cc="http://creativecommons.org/ns#"
   xmlns:rdf="http://www.w3.org/1999/02/22-rdf-syntax-ns#"
   xmlns:svg="http://www.w3.org/2000/svg"
   xmlns="http://www.w3.org/2000/svg"
   xmlns:sodipodi="http://sodipodi.sourceforge.net/DTD/sodipodi-0.dtd"
   xmlns:inkscape="http://www.inkscape.org/namespaces/inkscape"
   width="40pt"
   height="40pt"
   viewBox="0 0 40 40"
   version="1.1"
   id="svg2"
   inkscape:version="0.91 r13725"
   sodipodi:docname="cross-blue.svg">
  <metadata
     id="metadata16">
    <rdf:RDF>
      <cc:Work
         rdf:about="">
        <dc:format>image/svg+xml</dc:format>
        <dc:type
           rdf:resource="http://purl.org/dc/dcmitype/StillImage" />
        <dc:title></dc:title>
      </cc:Work>
    </rdf:RDF>
  </metadata>
  <defs
     id="defs14" />
  <sodipodi:namedview
     pagecolor="#ffffff"
     bordercolor="#666666"
     borderopacity="1"
     objecttolerance="10"
     gridtolerance="10"
     guidetolerance="10"
     inkscape:pageopacity="0"
     inkscape:pageshadow="2"
     inkscape:window-width="1920"
     inkscape:window-height="1017"
     id="namedview12"
     showgrid="false"
     inkscape:zoom="4.72"
     inkscape:cx="-12.182203"
     inkscape:cy="25"
     inkscape:window-x="-8"
     inkscape:window-y="-8"
     inkscape:window-maximized="1"
     inkscape:current-layer="svg2" />
  <path
     d="m -57.118644,6.779661 40,0 0,40 -40,0 0,-40 z"
     id="path4"
     inkscape:connector-curvature="0"
     style="fill:#ffffff" />
  <path
     fill="#999999"
     d=" M 14.29 5.62 C 22.55 2.12 32.92 7.58 34.78 16.31 C 37.18 24.76 30.63 34.17 21.99 35.19 C 15.22 36.24 7.86 32.20 5.55 25.65 C 2.25 18.10 6.43 8.26 14.29 5.62 Z"
     id="path6"
     style="fill:#006db4;fill-opacity:1" />
  <path
     fill="#ffffff"
     d=" M 15.32 9.46 C 21.42 6.62 29.32 10.47 30.89 16.99 C 32.73 23.15 28.31 30.13 22.00 31.19 C 16.61 32.35 10.83 28.98 9.05 23.80 C 6.90 18.33 9.92 11.65 15.32 9.46 Z"
     id="path8" />
  <path
     d="m 25.239558,16.970519 c -0.944863,-0.878313 -1.889726,-1.756626 -2.834589,-2.634939 -0.906179,0.959812 -1.812358,1.919624 -2.718538,2.879436 -0.988491,-0.919503 -1.976982,-1.839006 -2.972338,-2.751237 -0.906179,0.959812 -1.812358,1.919624 -2.718537,2.879436 0.967896,0.941317 1.935385,1.868497 2.910146,2.802543 -0.905772,0.973948 -1.80468,1.940625 -2.710453,2.914574 0.930727,0.878719 1.868725,1.764303 2.799452,2.643022 0.920315,-0.960218 1.841037,-1.9063 2.761352,-2.866519 0.988491,0.919503 1.976576,1.82487 2.965067,2.744373 0.906179,-0.959812 1.812359,-1.919624 2.718538,-2.879436 -0.967896,-0.941317 -1.935386,-1.868498 -2.910147,-2.802543 0.905773,-0.973949 1.811546,-1.947897 2.710047,-2.92871 z"
     id="path10"
     style="fill:#006db4;fill-opacity:1"
     inkscape:connector-curvature="0"
     inkscape:transform-center-x="0.11290147"
     inkscape:transform-center-y="0.36345005" />
</svg>
