<?xml version="1.0" encoding="utf-8"?>
<!-- Generator: Adobe Illustrator 20.0.0, SVG Export Plug-In . SVG Version: 6.00 Build 0)  -->
<svg version="1.1" xmlns="http://www.w3.org/2000/svg" xmlns:xlink="http://www.w3.org/1999/xlink" x="0px" y="0px"
	 viewBox="0 0 256 256" enable-background="new 0 0 256 256" xml:space="preserve">
<g id="image">
</g>
<g id="Layer_2">
</g>
<g id="Layer_3">
	<g>
		<g>
			<path fill="#FFFFFF" stroke="#005491" stroke-width="3" stroke-miterlimit="10" d="M206.245,164.547
				c-9.879,5.452-23.466,10.494-37.015,12.619c-12.055,1.891-34.735-2.669-34.735-8.054c0-2.041,19.891,5.028,31.923,1.818
				c9.227-2.461,7.917-11.092,2.898-12.231c-4.989-1.132-34.22-11.841-46.706-12.21c-5.882-0.174-20.402,2.046-27.429,3.19
				c-2.407,0.392-3.916,0.349-4.067,2.652c-0.699,10.706-2.077,32.598-2.828,44.033c-0.016,0.242,0.32,3.491,3.001,1.204
				c2.935-2.503,7.051-5.277,10.859-4.413c5.973,1.355,57.65,10.822,64.778,9.166c10.197-2.37,39.063-19.477,44.597-24.794
				C220.099,169.284,213.43,160.581,206.245,164.547z"/>
			<radialGradient id="SVGID_1_" cx="60.1875" cy="173.9363" r="23.2838" gradientUnits="userSpaceOnUse">
				<stop  offset="0.4925" style="stop-color:#0081D4"/>
				<stop  offset="1" style="stop-color:#0068AA"/>
			</radialGradient>
			<path fill="url(#SVGID_1_)" stroke="#005491" stroke-miterlimit="10" d="M76.854,149.261l-27.072-1.334
				c-2.09-0.103-4.225,1.472-4.744,3.499l-4.922,44.692c-0.519,2.027,0.768,3.752,2.859,3.833l30.002-0.003
				c2.092,0.081,3.933-1.56,4.093-3.647l3.295-43.059C80.523,151.155,78.944,149.364,76.854,149.261z M60.916,194.027
				c-4.134,0-7.485-3.351-7.485-7.485c0-4.134,3.351-7.485,7.485-7.485s7.485,3.351,7.485,7.485
				C68.401,190.676,65.05,194.027,60.916,194.027z"/>
		</g>
	</g>
	<radialGradient id="SVGID_2_" cx="151.9237" cy="89.8756" r="44.125" gradientUnits="userSpaceOnUse">
		<stop  offset="0.4925" style="stop-color:#0081D4"/>
		<stop  offset="1" style="stop-color:#0068AA"/>
	</radialGradient>
	<circle fill="url(#SVGID_2_)" stroke="#005491" stroke-miterlimit="10" cx="151.924" cy="89.876" r="44.125"/>
	<g>
		<path fill="#FFFFFF" stroke="#005491" stroke-miterlimit="10" d="M172.332,101.152c0-7.994-4.715-12.893-14.146-14.956
			l-3.319-0.651v-13.74c2.534,0.531,4.534,2.032,5.532,4.035c0.844,1.694,2.566,2.768,4.459,2.768c3.856,0,6.358-4.251,4.305-7.515
			c-2.68-4.261-7.703-7.118-14.296-7.85v-2.373c0-1.869-1.515-3.384-3.384-3.384c-1.869,0-3.384,1.515-3.384,3.384v2.372
			c-10.462,1.139-16.583,6.865-16.583,15.624c0,7.662,4.752,12.783,13.63,14.845l2.953,0.696v14.439
			c-2.99-0.556-5.265-2.088-6.387-4.241c-0.872-1.673-2.566-2.753-4.453-2.753h-0.498c-3.858,0-6.331,4.238-4.304,7.521
			c2.762,4.472,8.213,7.29,15.642,7.914v1.595c0,1.869,1.515,3.384,3.384,3.384s3.384-1.515,3.384-3.384v-1.63
			C166.037,116.101,172.332,110.336,172.332,101.152z M142.162,77.945c0-3.215,2.429-5.648,5.937-6.194v12.37
			C144.221,83.064,142.162,80.948,142.162,77.945z M154.866,108.978V95.689c4.797,1.079,7.04,3.216,7.04,6.642
			C161.907,106.063,159.31,108.511,154.866,108.978z"/>
	</g>
</g>
</svg>
