<?xml version="1.0" encoding="utf-8"?>
<!-- Generator: Adobe Illustrator 22.1.0, SVG Export Plug-In . SVG Version: 6.00 Build 0)  -->
<svg version="1.1" xmlns="http://www.w3.org/2000/svg" xmlns:xlink="http://www.w3.org/1999/xlink" x="0px" y="0px"
	 viewBox="0 0 256 256" enable-background="new 0 0 256 256" xml:space="preserve">
<g id="image">
</g>
<g id="Layer_2">
</g>
<g id="Layer_3">
</g>
<g id="Meter_management">
	<g>
		<g>
			<radialGradient id="SVGID_1_" cx="126.5139" cy="128" r="62.3369" gradientUnits="userSpaceOnUse">
				<stop  offset="0" style="stop-color:#0081D4"/>
				<stop  offset="1" style="stop-color:#0068AA"/>
			</radialGradient>
			<path fill="url(#SVGID_1_)" d="M141.819,44.275c-1.904-1.985-5.711-3.608-8.461-3.608h-65.51c-2.75,0-5,2.25-5,5v164.667
				c0,2.75,2.25,5,5,5h117.333c2.75,0,5-2.25,5-5V99.692c0-2.75-1.558-6.624-3.461-8.608L141.819,44.275z"/>
			<path fill="none" stroke="#015491" stroke-width="3" stroke-miterlimit="10" d="M141.819,44.275
				c-1.904-1.985-5.711-3.608-8.461-3.608h-65.51c-2.75,0-5,2.25-5,5v164.667c0,2.75,2.25,5,5,5h117.333c2.75,0,5-2.25,5-5V99.692
				c0-2.75-1.558-6.624-3.461-8.608L141.819,44.275z"/>
		</g>
		<path fill="#015491" d="M134.535,40.667c0,0,0.292,49.807,0.292,51.641c0,1.833,2.366,8.833,8.787,8.833s46.567,0,46.567,0
			L189.597,95l-50.085-53.054L134.535,40.667z"/>
	</g>
	<g>
		<g>
			<g>
				<g>
					<path fill="#FFFFFF" d="M130.687,197.232l17.616-11.961l-10.627-8.151L130.687,197.232z M139.637,183.664l1.836,1.409
						l-3.044,2.067L139.637,183.664z"/>
					<path fill="#FFFFFF" d="M137.964,176.552l10.812,8.295l53.794-70.125l-10.813-8.295L137.964,176.552z M196.962,115.462
						l-48.925,63.777l-4.466-3.426l48.924-63.777L196.962,115.462z"/>
					<path fill="#FFFFFF" d="M208.691,100.166l-4.458-3.42c-2.13-1.631-5.189-1.228-6.823,0.9l-3.688,4.807
						c-0.798-0.278-1.655-0.369-2.521-0.254c-1.454,0.191-2.746,0.937-3.639,2.1l-53.427,69.646l-0.181,0.254
						c-0.021,0.034-0.042,0.068-0.063,0.102c-0.063,0.091-0.12,0.184-0.163,0.263c-0.111,0.206-0.206,0.421-0.28,0.635
						l-6.842,19.688l-0.262,0.263v0.531c-0.489,1.846,0.171,3.814,1.705,4.99c0.827,0.634,1.855,0.983,2.895,0.983
						c0.956,0,1.88-0.285,2.687-0.832l17.621-11.966c0.185-0.125,0.362-0.268,0.533-0.429l0.211-0.221
						c0.039-0.04,0.076-0.081,0.118-0.128l0.188-0.192l0.058-0.115l26.011-33.907c0.287,0.676,0.744,1.27,1.342,1.729
						c0.76,0.584,1.667,0.893,2.625,0.893c1.354,0,2.601-0.615,3.423-1.688l20.31-26.476c1.891-2.464,1.424-6.008-1.041-7.9
						l-0.632-0.485l1.316-1.716c1.475-1.923,1.476-4.521,0.185-6.425l3.688-4.807C211.218,104.861,210.817,101.801,208.691,100.166z
						 M206.412,104.554l-5.953,7.76l1.805,1.386c0.651,0.5,0.775,1.436,0.276,2.087l-3.752,4.89l3.807,2.919
						c0.715,0.549,0.851,1.577,0.302,2.292l-20.31,26.476c-0.18,0.233-0.331,0.137-0.438,0.057
						c-0.085-0.065-0.111-0.148-0.119-0.207s-0.004-0.146,0.062-0.23l20.924-27.276l-4.606-3.535l-49.231,64.178l-17.809,12.173
						c-0.336,0.228-0.561,0.223-0.886-0.026c-0.249-0.191-0.354-0.514-0.281-0.77l7.041-20.243l0.146-0.211l53.346-69.539
						c0.241-0.315,0.592-0.517,0.987-0.569c0.39-0.052,0.785,0.052,1.1,0.293l1.806,1.386l5.955-7.763
						c0.291-0.378,0.837-0.451,1.215-0.161l4.454,3.417l0.021,0.016C206.634,103.649,206.698,104.181,206.412,104.554z"/>
					
						<rect x="195.582" y="103.052" transform="matrix(0.6084 -0.7936 0.7936 0.6084 -5.6582 200.7359)" fill="#FFFFFF" width="10.025" height="6.099"/>
				</g>
			</g>
		</g>
	</g>
	<g>
		<g>
			<path fill="#FFFFFF" d="M168.992,116.473H77.841c-1.277,0-2.312,1.035-2.312,2.312c0,1.277,1.035,2.312,2.312,2.312h91.151
				c1.277,0,2.312-1.035,2.312-2.312S170.269,116.473,168.992,116.473z"/>
		</g>
	</g>
	<g>
		<g>
			<path fill="#FFFFFF" d="M146.897,140.333H77.841c-1.277,0-2.312,1.035-2.312,2.312c0,1.277,1.035,2.312,2.312,2.312h69.056
				c1.277,0,2.312-1.035,2.312-2.312C149.21,141.368,148.174,140.333,146.897,140.333z"/>
		</g>
	</g>
	<g>
		<g>
			<path fill="#FFFFFF" d="M119.563,188.052H77.841c-1.277,0-2.312,1.035-2.312,2.312c0,1.277,1.035,2.312,2.312,2.312h41.722
				c1.277,0,2.312-1.035,2.312-2.312C121.875,189.087,120.84,188.052,119.563,188.052z"/>
		</g>
	</g>
	<g>
		<g>
			<path fill="#FFFFFF" d="M178.992,188.052h-20.45c-1.277,0-2.312,1.035-2.312,2.312c0,1.277,1.035,2.312,2.312,2.312h20.45
				c1.277,0,2.312-1.035,2.312-2.312C181.305,189.087,180.269,188.052,178.992,188.052z"/>
		</g>
	</g>
	<g>
		<g>
			<path fill="#FFFFFF" d="M118.27,73.605L98.936,55.442c-0.89-0.836-2.276-0.836-3.166,0L76.435,73.605
				c-0.931,0.874-0.977,2.338-0.103,3.268c0.875,0.93,2.337,0.976,3.268,0.102L97.352,60.3l17.751,16.676
				c0.446,0.419,1.015,0.627,1.583,0.627c0.616,0,1.231-0.245,1.686-0.729C119.247,75.943,119.201,74.48,118.27,73.605z"/>
		</g>
	</g>
	<g>
		<g>
			<path fill="#FFFFFF" d="M111.805,79.587L99.97,68.469c-1.467-1.378-3.767-1.378-5.234,0L82.901,79.587
				c-0.766,0.72-1.205,1.735-1.205,2.786v16.173c0,2.108,1.715,3.822,3.822,3.822h23.67c2.108,0,3.822-1.715,3.822-3.822V82.373
				C113.01,81.322,112.571,80.306,111.805,79.587z M101.014,97.743h-7v-9.41h7V97.743z M103.673,97.743v-9.481
				c0-1.742-1.417-3.159-3.159-3.159h-6.322c-1.742,0-3.159,1.417-3.159,3.159v9.481H86.32V82.72l11.033-10.365l11.033,10.365
				v15.024H103.673z"/>
		</g>
	</g>
	<g>
		<g>
			<path fill="#FFFFFF" d="M126.774,164.192h-20.735c-1.027,0-1.859,1.035-1.859,2.312c0,1.277,0.832,2.312,1.859,2.312h20.735
				c1.027,0,1.859-1.035,1.859-2.312C128.633,165.228,127.801,164.192,126.774,164.192z"/>
		</g>
	</g>
	<path fill="#FFFFFF" d="M98.743,153.937c-1.209-0.967-2.66-0.484-3.385,0.484l-10.398,14.509l-5.32-5.32
		c-0.967-0.967-2.418-0.967-3.385,0c-0.967,0.967-0.967,2.418,0,3.385l7.254,7.254c0.484,0.484,0.967,0.725,1.693,0.725
		c0.967,0,1.451-0.484,1.935-0.725l12.091-16.927C100.193,156.113,99.71,154.662,98.743,153.937z"/>
	<polygon fill="#FFFFFF" points="131.633,197.167 149.23,186.289 203.261,114.417 199.766,111.917 206.514,103.073 199.766,99.917 
		193.264,107.917 190.014,107.417 137.535,176.917 	"/>
	<g>
		<g>
			<path fill="#015491" d="M207.472,101.752c-0.001,0-0.001-0.001-0.002-0.001l-4.454-3.417c-1.254-0.961-3.058-0.724-4.02,0.53
				l-4.737,6.175l-0.219-0.168c-1.525-1.171-3.72-0.882-4.892,0.644l-53.462,69.691c0,0.001-0.001,0.001-0.001,0.002
				c0,0-0.001,0.001-0.001,0.001c-0.042,0.054-0.074,0.114-0.11,0.171c-0.029,0.046-0.063,0.089-0.088,0.137
				c-0.058,0.108-0.108,0.221-0.148,0.337l-6.993,20.12c0,0.001-0.001,0.002-0.001,0.003l-0.004,0.013
				c-0.391,1.125-0.018,2.368,0.927,3.093c0.495,0.379,1.086,0.57,1.678,0.57c0.539,0,1.08-0.159,1.549-0.477l0.013-0.009
				c0,0,0,0,0.001,0l17.621-11.966c0.099-0.067,0.193-0.143,0.281-0.226c0.037-0.035,0.069-0.075,0.103-0.112
				c0.046-0.049,0.095-0.096,0.137-0.148c0.003-0.004,0.006-0.009,0.009-0.012c0.002-0.002,0.004-0.004,0.006-0.006l48.114-62.72
				l1.434,1.1l-19.707,25.69c-0.777,1.013-0.586,2.465,0.427,3.242c0.42,0.322,0.914,0.478,1.405,0.478
				c0.695,0,1.381-0.312,1.836-0.905l20.31-26.476c1.219-1.59,0.919-3.875-0.671-5.096l-2.219-1.702l2.534-3.303
				c1.17-1.526,0.881-3.72-0.645-4.891l-0.219-0.168l4.736-6.174C208.961,104.518,208.725,102.715,207.472,101.752z
				 M134.558,192.186l4.099-11.795l6.231,4.78L134.558,192.186z M148.407,182.043l-7.639-5.86l51.359-66.951l7.64,5.86
				L148.407,182.043z M199.594,109.131l-1.665-1.277l3.667-4.781l1.665,1.277L199.594,109.131z"/>
		</g>
	</g>
</g>
</svg>
