<?xml version="1.0" encoding="utf-8"?>
<!-- Generator: Adobe Illustrator 19.1.0, SVG Export Plug-In . SVG Version: 6.00 Build 0)  -->
<!DOCTYPE svg PUBLIC "-//W3C//DTD SVG 1.1//EN" "http://www.w3.org/Graphics/SVG/1.1/DTD/svg11.dtd">
<svg version="1.1" id="Layer_1" xmlns="http://www.w3.org/2000/svg" xmlns:xlink="http://www.w3.org/1999/xlink" x="0px" y="0px"
	 viewBox="-273 396.9 48 48" style="enable-background:new -273 396.9 48 48;" xml:space="preserve">
<style type="text/css">
	.st0{fill:#252525;}
</style>
<path class="st0" d="M-241.5,399.2c-0.1-0.1-0.8-0.1-1.5-0.1c-0.7,0-22,0-22,0c-0.2,0-0.5,0.2-0.5,0.5c0,0,0.1,42.4,0.1,42.6
	c0,0.3,0.1,0.5,0.4,0.5h31.9c0.2,0,0.5-0.2,0.5-1.6l0-31.4c0,0,0-0.3-0.5-0.7L-241.5,399.2z M-249,409.6c1.2,0,2.1,1,2.1,2.1
	c0,1.2-1,2.1-2.1,2.1c-1.2,0-2.1-1-2.1-2.1C-251.1,410.6-250.2,409.6-249,409.6z M-246.8,432.1c0,1.8-0.9,2.6-2.2,2.6
	c-1.3,0-2.2-0.7-2.2-2.6v-13c0-1.8,0.9-2.5,2.2-2.5c1.3,0,2.2,0.7,2.2,2.5V432.1z"/>
</svg>
