<svg xmlns="http://www.w3.org/2000/svg" xmlns:xlink="http://www.w3.org/1999/xlink" viewBox="0 0 256 256"><defs><style>.cls-1,.cls-4{stroke:#005491;stroke-miterlimit:10;}.cls-1{stroke-width:2px;fill:url(#radial-gradient);}.cls-2{fill:#fff;}.cls-3{fill:#005491;}.cls-4{fill:url(#radial-gradient-2);}</style><radialGradient id="radial-gradient" cx="89.17" cy="152.91" r="55.54" gradientUnits="userSpaceOnUse"><stop offset="0.49" stop-color="#0081d4"/><stop offset="1" stop-color="#0068aa"/></radialGradient><radialGradient id="radial-gradient-2" cx="130" cy="99.25" r="29.21" xlink:href="#radial-gradient"/></defs><title>icon</title><g id="Meter_management" data-name="Meter management"><path class="cls-1" d="M78,98a57.72,57.72,0,0,1,.36-6.35H49.43A9.43,9.43,0,0,0,40,101.07V204.74a9.43,9.43,0,0,0,9.43,9.43h79.48a9.43,9.43,0,0,0,9.43-9.43V155.06c-1.05.06-2.11.09-3.17.09A57.16,57.16,0,0,1,78,98Z"/><path class="cls-2" d="M136.88,141.9a46,46,0,1,1,46-46A46,46,0,0,1,136.88,141.9Z"/><path class="cls-3" d="M136.88,55.5A40.45,40.45,0,1,1,96.43,96,40.5,40.5,0,0,1,136.88,55.5m0-11A51.45,51.45,0,1,0,188.33,96,51.45,51.45,0,0,0,136.88,44.5Z"/><rect class="cls-3" x="176.99" y="118.17" width="23.33" height="56.48" rx="5.57" ry="5.57" transform="translate(-48.27 176.28) rotate(-45)"/><rect class="cls-2" x="63.5" y="172.5" width="52.83" height="4.5"/><rect class="cls-2" x="63.5" y="191" width="52.83" height="4.5"/><rect class="cls-2" x="63.5" y="152.91" width="32.17" height="4.5"/><rect class="cls-2" x="63.5" y="136.99" width="13.58" height="4.5"/><path class="cls-4" d="M144.58,75.5H116.71A28.77,28.77,0,0,0,153,119.9v-36A8.37,8.37,0,0,0,144.58,75.5Z"/><rect class="cls-2" x="109" y="93.41" width="30.17" height="4.5"/><polygon class="cls-2" points="139.17 116.28 117.66 116.28 113.84 111.78 139.17 111.78 139.17 116.28"/></g></svg>