<?xml version="1.0" encoding="utf-8"?>
<!-- Generator: Adobe Illustrator 20.0.0, SVG Export Plug-In . SVG Version: 6.00 Build 0)  -->
<svg version="1.1" xmlns="http://www.w3.org/2000/svg" xmlns:xlink="http://www.w3.org/1999/xlink" x="0px" y="0px"
	 viewBox="0 0 256 256" enable-background="new 0 0 256 256" xml:space="preserve">
<g id="image">
</g>
<g id="Layer_2">
</g>
<g id="Layer_3">
	<polygon fill="#FFFFFF" points="49.333,130.391 94.833,132.375 101.167,145.042 147.5,146.208 159.5,132.042 204,130.391 
		194.5,108.708 180.5,80.542 166,80.542 164.064,72.542 87.167,72.542 83.833,79.542 70.167,84.538 	"/>
	<radialGradient id="SVGID_1_" cx="126.5" cy="165.4131" r="63.4045" gradientUnits="userSpaceOnUse">
		<stop  offset="0.4925" style="stop-color:#0081D4"/>
		<stop  offset="1" style="stop-color:#0068AA"/>
	</radialGradient>
	<polygon fill="url(#SVGID_1_)" stroke="#005491" stroke-miterlimit="10" points="44,145.542 44,195.227 58.5,200.542 
		205.108,200.542 209,188.042 205.108,134.671 194.5,130.391 162,130.285 146.215,149.971 102,146.542 95.5,130.391 51.5,130.285 	
		"/>
	<g>
		<g>
			<path fill="#005491" d="M210.811,132.903l0.053-0.027l-24.919-49.267c-2.015-3.982-6.037-6.455-10.498-6.455h-4.736v-4.58
				c0-1.835-1.488-3.323-3.323-3.323H86.123c-1.835,0-3.323,1.488-3.323,3.323v4.58h-4.736c-4.461,0-8.484,2.473-10.498,6.455
				l-24.92,49.267l0.053,0.027c-1.067,1.758-1.683,3.82-1.683,6.022v52.049c0,6.418,5.221,11.639,11.639,11.639h148.198
				c6.418,0,11.639-5.221,11.639-11.639v-52.049C212.493,136.722,211.878,134.661,210.811,132.903z M170.71,84.538h4.736
				c1.661,0,3.158,0.921,3.909,2.404l20.406,40.344h-13.876v-12.414c0-1.835-1.488-3.323-3.323-3.323h-4.111V93.723
				c0-1.835-1.488-3.323-3.323-3.323h-4.418V84.538z M179.24,118.195v9.091h-17.536c-3.009,0-5.752,1.773-6.988,4.515l-4.788,10.62
				c-0.046,0.1-0.146,0.165-0.256,0.165h-45.833c-0.11,0-0.21-0.065-0.256-0.165l-4.788-10.619
				c-1.237-2.743-3.979-4.516-6.988-4.516H74.271v-9.091L179.24,118.195L179.24,118.195z M89.447,75.896h74.617V90.4H89.447V75.896z
				 M171.805,97.046v14.503h-90.1V97.046L171.805,97.046L171.805,97.046z M74.156,86.942c0.75-1.483,2.248-2.404,3.909-2.404H82.8
				V90.4h-4.418c-1.835,0-3.323,1.488-3.323,3.323v17.826h-4.111c-1.835,0-3.323,1.488-3.323,3.323v12.414H53.749L74.156,86.942z
				 M200.855,195.227H52.656c-2.346,0-4.254-1.909-4.254-4.254v-52.049c0-2.345,1.908-4.254,4.254-4.254h39.151
				c0.11,0,0.211,0.065,0.256,0.166l4.788,10.619c1.237,2.743,3.979,4.515,6.988,4.515h45.833c3.009,0,5.752-1.772,6.988-4.515
				l4.788-10.62v0c0.046-0.1,0.146-0.165,0.256-0.165h39.151c2.346,0,4.254,1.909,4.254,4.254v52.049h0
				C205.109,193.319,203.2,195.227,200.855,195.227z"/>
		</g>
	</g>
	<rect x="103" y="165.413" fill="#FFFFFF" width="47.5" height="16.129"/>
	<g>
		<g>
			<path fill="#005491" d="M147.868,161.165H105.55c-3.189,0-5.784,2.594-5.784,5.784v12.979c0,3.189,2.594,5.784,5.784,5.784
				h42.318c3.189,0,5.784-2.594,5.784-5.784v-12.979C153.651,163.76,151.057,161.165,147.868,161.165z M146.215,178.276h-39.012
				v-9.674h39.012V178.276z"/>
		</g>
	</g>
</g>
</svg>
