<svg xmlns="http://www.w3.org/2000/svg" xmlns:xlink="http://www.w3.org/1999/xlink" viewBox="0 0 256 256"><defs><style>.cls-1,.cls-4{fill:#fff;}.cls-2{fill:#005491;}.cls-3,.cls-4,.cls-5{stroke:#005491;stroke-miterlimit:10;stroke-width:3px;}.cls-3{fill:url(#radial-gradient);}.cls-5{fill:url(#radial-gradient-2);}</style><radialGradient id="radial-gradient" cx="186.08" cy="116.11" r="31.1" gradientUnits="userSpaceOnUse"><stop offset="0.49" stop-color="#0081d4"/><stop offset="1" stop-color="#0068aa"/></radialGradient><radialGradient id="radial-gradient-2" cx="101.57" cy="148.31" r="15.55" xlink:href="#radial-gradient"/></defs><title>Icon</title><g id="Meter_management" data-name="Meter management"><path class="cls-1" d="M210.71,82.12h-166a3.29,3.29,0,0,0-3.29,3.29v61.4a3.29,3.29,0,0,0,3.29,3.29H55.74c-.05-.84-.07-1.68-.07-2.53a45.17,45.17,0,1,1,90.33,0c0,.85,0,1.69-.07,2.53h64.78a3.29,3.29,0,0,0,3.29-3.29V85.41A3.29,3.29,0,0,0,210.71,82.12Z"/><path class="cls-2" d="M210.71,80.62h-166a4.8,4.8,0,0,0-4.79,4.79v61.4a4.8,4.8,0,0,0,4.79,4.79h11.2c-.09-1-.14-2-.17-3h-11a1.79,1.79,0,0,1-1.79-1.79V85.41a1.79,1.79,0,0,1,1.79-1.79H210.71a1.79,1.79,0,0,1,1.79,1.79v61.4a1.79,1.79,0,0,1-1.79,1.79H146c0,1-.07,2-.16,3h64.9a4.8,4.8,0,0,0,4.79-4.79V85.41A4.8,4.8,0,0,0,210.71,80.62Z"/><path class="cls-3" d="M209.86,82.12H158.17v68h51.69A4.14,4.14,0,0,0,214,146V86.26A4.14,4.14,0,0,0,209.86,82.12Z"/><path class="cls-4" d="M186.08,124.78l-15-14.58h30.05Z"/><path class="cls-2" d="M139.61,142.41l-4.63-.89a8.06,8.06,0,0,1-5-12.67l2.91-4a1.48,1.48,0,0,0-.15-1.92l-6.28-6.28a1.47,1.47,0,0,0-1.87-.18l-3.91,2.65a8.05,8.05,0,0,1-12.47-5.45l-.75-4.86a1.47,1.47,0,0,0-1.46-1.25H97.13a1.47,1.47,0,0,0-1.45,1.2l-1.15,6a8.06,8.06,0,0,1-12.43,5.15l-5-3.42a1.5,1.5,0,0,0-1.88.18L68.9,123a1.49,1.49,0,0,0-.15,1.93l2.91,4a8.05,8.05,0,0,1-5,12.67l-4.63.89a1.48,1.48,0,0,0-1.2,1.45v8.89a1.47,1.47,0,0,0,1.25,1.46L67,155a8,8,0,0,1,5.44,12.47l-2.64,3.91a1.48,1.48,0,0,0,.18,1.88l6.28,6.28a1.49,1.49,0,0,0,1.92.15l4-2.91a8.06,8.06,0,0,1,12.67,5l.89,4.63a1.47,1.47,0,0,0,1.45,1.2H106a1.47,1.47,0,0,0,1.46-1.25l.52-3.42a8,8,0,0,1,12.72-5.27l2.79,2a1.47,1.47,0,0,0,1.92-.14l6.29-6.28a1.48,1.48,0,0,0,.17-1.88l-2.64-3.91A8.05,8.05,0,0,1,134.69,155l4.86-.75a1.47,1.47,0,0,0,1.26-1.46v-8.89A1.48,1.48,0,0,0,139.61,142.41Zm-1.76,9.07-3.61.55a11,11,0,0,0-7.44,17.07l2,2.89-4.52,4.52-1.76-1.3a11,11,0,0,0-17.4,7.21l-.33,2.16h-6.4l-.66-3.43a11,11,0,0,0-17.32-6.8l-2.94,2.16L72.91,172l2-2.9A11,11,0,0,0,67.42,152l-3.6-.55v-6.39l3.43-.66a11,11,0,0,0,6.8-17.33l-2.16-2.94,4.52-4.52,4,2.73a11,11,0,0,0,17-7l.91-4.78h6.4l.55,3.61a11,11,0,0,0,17.06,7.44l2.9-2,4.51,4.52-2.15,2.94a11,11,0,0,0,6.8,17.33l3.43.66Z"/><path class="cls-5" d="M101.57,132.76a15.55,15.55,0,1,0,15.55,15.55A15.56,15.56,0,0,0,101.57,132.76Z"/><path class="cls-4" d="M101.57,141.21a7.1,7.1,0,1,0,7.1,7.1A7.1,7.1,0,0,0,101.57,141.21Z"/></g></svg>