<?xml version="1.0" encoding="utf-8"?>
<!-- Generator: Adobe Illustrator 19.1.0, SVG Export Plug-In . SVG Version: 6.00 Build 0)  -->
<!DOCTYPE svg PUBLIC "-//W3C//DTD SVG 1.1//EN" "http://www.w3.org/Graphics/SVG/1.1/DTD/svg11.dtd">
<svg version="1.1"
	 id="svg2" xmlns:inkscape="http://www.inkscape.org/namespaces/inkscape" xmlns:cc="http://creativecommons.org/ns#" xmlns:svg="http://www.w3.org/2000/svg" xmlns:dc="http://purl.org/dc/elements/1.1/" xmlns:rdf="http://www.w3.org/1999/02/22-rdf-syntax-ns#" xmlns:sodipodi="http://sodipodi.sourceforge.net/DTD/sodipodi-0.dtd" sodipodi:docname="dummy.svg" inkscape:version="0.91 r13725"
	 xmlns="http://www.w3.org/2000/svg" xmlns:xlink="http://www.w3.org/1999/xlink" x="0px" y="0px" viewBox="-411 298 256 256"
	 style="enable-background:new -411 298 256 256;" xml:space="preserve">
<style type="text/css">
	.st0{fill:#015F9F;}
	.st1{fill:#FFFFFF;}
	.st2{fill:url(#SVGID_1_);stroke:#015491;stroke-width:2;stroke-miterlimit:10;}
	.st3{clip-path:url(#SVGID_3_);fill:url(#path28_1_);stroke:#015491;stroke-width:2;stroke-miterlimit:10;}
	.st4{fill:#0171B9;}
	.st5{fill:#DCE8F0;}
	.st6{fill:none;stroke:#FFFFFF;stroke-width:5;stroke-miterlimit:10;}
</style>
<g>
	<circle class="st0" cx="-283.2" cy="425.1" r="87.7"/>
	<circle class="st1" cx="-283.2" cy="425.1" r="73.7"/>
</g>
<sodipodi:namedview  id="namedview30" inkscape:cx="160" pagecolor="#ffffff" bordercolor="#666666" objecttolerance="10" borderopacity="1" guidetolerance="10" inkscape:zoom="0.7375" inkscape:cy="160" showgrid="false" gridtolerance="10" inkscape:pageopacity="0" inkscape:pageshadow="2" inkscape:window-height="480" inkscape:window-x="0" inkscape:window-y="0" inkscape:window-maximized="0" inkscape:current-layer="svg2" inkscape:window-width="640">
	</sodipodi:namedview>
<linearGradient id="SVGID_1_" gradientUnits="userSpaceOnUse" x1="-328.3207" y1="424.7458" x2="-235.2733" y2="424.7458">
	<stop  offset="0" style="stop-color:#0081D4"/>
	<stop  offset="1" style="stop-color:#0068AA"/>
</linearGradient>
<path class="st2" d="M-243,380c-5.4-9-15.1-14.7-25.2-16.7c-11.4-2.2-23.8-2.1-34.5,2.9c-12.2,5.7-20.6,17.9-23.1,30.9
	c-0.9,5.5,0.3,11,2,16.2c1.1,7.2,0.9,14.5,0.9,21.7c-1,4.8-6.1,8.5-5.5,13.8c2,2.2,5.1,2.6,7.7,3.6c-0.1,3.6-0.6,7.3,0,10.9
	c1,4,3.2,7.5,5,11.1c3.8,7.2,11.5,12.1,19.7,12.7c3.4,0.2,7.7,0.9,10.3-1.9c2.2-3.7,2.9-8.1,5.4-11.7c6.9-10,18.3-16.6,30.3-18.2
	c3.9-1,9.6-0.4,11.3-4.9c0.9-6.2-1.2-12.8,1.4-18.8c1.5-3.7,1.6-7.7,1.8-11.6C-234.9,406.6-235.5,391.9-243,380z"/>
<g>
	<defs>
		<circle id="SVGID_2_" cx="-283.2" cy="425.1" r="73.7"/>
	</defs>
	<clipPath id="SVGID_3_">
		<use xlink:href="#SVGID_2_"  style="overflow:visible;"/>
	</clipPath>
	<linearGradient id="path28_1_" gradientUnits="userSpaceOnUse" x1="-276.86" y1="480.595" x2="-239.81" y2="480.595">
		<stop  offset="0" style="stop-color:#0081D4"/>
		<stop  offset="1" style="stop-color:#0068AA"/>
	</linearGradient>
	<path id="path28" class="st3" d="M-276.9,478.9c5.1-8.9,13.2-15.3,22.3-17.1c4.9,8.4,9.9,16.7,14.7,25.1c-5.5,5.6-12.4,9.2-19.3,12
		c-2.4,1.3-5-0.1-7.3-1C-270.2,491-273.1,485.7-276.9,478.9z"/>
</g>
<g>
	<g>
		<path class="st4" d="M-276.9,375.7c-5.2,0.4-10.7,1.3-14.8,4.9c-5,4.2-6.8,10.8-7.2,17c7.3,0,14.7,0,22,0
			C-276.9,390.3-276.9,383-276.9,375.7z"/>
		<path class="st5" d="M-262.9,380.4c-3.8-3.4-9-4.3-14-4.7c0,7.3,0,14.6,0,22c6.8-0.1,13.6,0.2,20.5-0.2l1.1,0
			C-256.3,391.2-257.9,384.6-262.9,380.4z"/>
		<path class="st5" d="M-298.9,397.6c0.8,5.6,2.6,11.3,6.9,15.1c4.1,3.9,9.9,4.7,15.2,5.9c0-7-0.1-14-0.2-21
			C-284.2,397.6-291.6,397.6-298.9,397.6z"/>
		<path class="st4" d="M-276.9,397.6c0.1,7,0.1,14,0.2,21c5.2-0.8,10.6-2.6,14.3-6.5c4-3.8,5.6-9.3,6-14.7
			C-263.3,397.8-270.1,397.6-276.9,397.6z"/>
	</g>
	<circle class="st6" cx="-277.1" cy="397.1" r="21.2"/>
</g>
</svg>
