<?xml version="1.0" encoding="utf-8"?>
<!-- Generator: Adobe Illustrator 19.1.0, SVG Export Plug-In . SVG Version: 6.00 Build 0)  -->
<!DOCTYPE svg PUBLIC "-//W3C//DTD SVG 1.1//EN" "http://www.w3.org/Graphics/SVG/1.1/DTD/svg11.dtd">
<svg version="1.1"
	 id="svg2" sodipodi:docname="electricity.svg" inkscape:version="0.91 r13725" xmlns:svg="http://www.w3.org/2000/svg" xmlns:sodipodi="http://sodipodi.sourceforge.net/DTD/sodipodi-0.dtd" xmlns:cc="http://creativecommons.org/ns#" xmlns:rdf="http://www.w3.org/1999/02/22-rdf-syntax-ns#" xmlns:inkscape="http://www.inkscape.org/namespaces/inkscape" xmlns:dc="http://purl.org/dc/elements/1.1/"
	 xmlns="http://www.w3.org/2000/svg" xmlns:xlink="http://www.w3.org/1999/xlink" x="0px" y="0px" viewBox="-169 292.9 256 256"
	 style="enable-background:new -169 292.9 256 256;" xml:space="preserve">
<style type="text/css">
	.st0{fill:#0078C5;}
</style>
<sodipodi:namedview  inkscape:pageshadow="2" inkscape:pageopacity="0" id="namedview10" inkscape:window-y="0" inkscape:window-width="640" inkscape:window-maximized="0" inkscape:current-layer="svg2" inkscape:window-height="480" inkscape:window-x="0" objecttolerance="10" inkscape:cy="160" showgrid="false" inkscape:cx="160" bordercolor="#666666" pagecolor="#ffffff" gridtolerance="10" borderopacity="1" guidetolerance="10" inkscape:zoom="0.7375">
	</sodipodi:namedview>
<g>
	<path class="st0" d="M43.9,393.8c2.5-2.6,3.7-6.6,2.7-10.1c-0.8-3.2-3.3-5.6-5.8-7.5c-4-2.9-9.9-2.4-13.4,1
		c-7.1,7-14.1,14.1-21.2,21.1c-8-7.9-15.9-16-24-23.9c7.2-7.2,14.5-14.4,21.7-21.7c2.9-2.9,4-7.5,1.8-11.1
		c-2.4-3.7-5.9-7.5-10.6-7.8c-3.3-0.4-6.5,1-8.7,3.3c-6.9,6.9-13.8,13.8-20.7,20.7c-6.5-6.5-13-13-19.5-19.5
		c-14.5,14.4-28.9,28.9-43.3,43.3c-3.5,3.4-6.2,7.6-7.2,12.3c-1.4,6.2,0.2,12.8,4.1,17.8c-7,7.2-14.2,14.1-21.2,21.2
		c22.6,22.5,45,45.1,67.7,67.6c7.2-7.1,14.2-14.2,21.4-21.3c4,3.4,9.3,5.3,14.6,4.9c6.5,0,12.4-3.8,16.4-8.8
		c14-14.2,28.2-28.2,42.3-42.4c-5.9-6.1-12-12-18-18C29.8,407.8,37,400.9,43.9,393.8z"/>
	<path class="st0" d="M-100.4,468.9c-9.5,9.6-19.2,19-28.6,28.7c3.6,3.4,7,7,10.5,10.4c9.6-9.5,19-19,28.6-28.5
		C-93.3,475.9-96.9,472.5-100.4,468.9z"/>
</g>
</svg>
