<?xml version="1.0" encoding="UTF-8" standalone="no"?>
<svg
   xmlns:dc="http://purl.org/dc/elements/1.1/"
   xmlns:cc="http://creativecommons.org/ns#"
   xmlns:rdf="http://www.w3.org/1999/02/22-rdf-syntax-ns#"
   xmlns:svg="http://www.w3.org/2000/svg"
   xmlns="http://www.w3.org/2000/svg"
   xmlns:sodipodi="http://sodipodi.sourceforge.net/DTD/sodipodi-0.dtd"
   xmlns:inkscape="http://www.inkscape.org/namespaces/inkscape"
   width="256pt"
   height="256pt"
   viewBox="0 0 256 256"
   version="1.1"
   id="svg2"
   inkscape:version="0.92.4 (5da689c313, 2019-01-14)"
   sodipodi:docname="electricityprp.svg">
  <metadata
     id="metadata48">
    <rdf:RDF>
      <cc:Work
         rdf:about="">
        <dc:format>image/svg+xml</dc:format>
        <dc:type
           rdf:resource="http://purl.org/dc/dcmitype/StillImage" />
        <dc:title></dc:title>
      </cc:Work>
    </rdf:RDF>
  </metadata>
  <defs
     id="defs46">
    <radialGradient
       gradientUnits="userSpaceOnUse"
       r="42.771999"
       cy="128"
       cx="129"
       id="SVGID_2_">
      <stop
         id="stop4056"
         style="stop-color:#0081D4"
         offset="0" />
      <stop
         id="stop4058"
         style="stop-color:#0068AA"
         offset="1" />
    </radialGradient>
  </defs>
  <sodipodi:namedview
     pagecolor="#ffffff"
     bordercolor="#666666"
     borderopacity="1"
     objecttolerance="10"
     gridtolerance="10"
     guidetolerance="10"
     inkscape:pageopacity="0"
     inkscape:pageshadow="2"
     inkscape:window-width="640"
     inkscape:window-height="480"
     id="namedview44"
     showgrid="false"
     inkscape:zoom="0.7375"
     inkscape:cx="160"
     inkscape:cy="160"
     inkscape:window-x="767"
     inkscape:window-y="25"
     inkscape:window-maximized="0"
     inkscape:current-layer="svg2" />
  <path
     fill="#015491"
     d=" M 111.64 44.74 C 122.98 38.53 136.99 38.70 148.90 43.20 C 157.48 46.45 164.55 53.15 168.54 61.39 C 174.35 73.24 175.26 86.94 173.78 99.89 C 177.28 100.68 180.79 101.44 184.29 102.22 C 183.90 104.31 183.37 106.36 182.94 108.43 C 177.63 107.30 172.34 106.08 167.04 104.92 C 182.64 131.71 198.07 158.60 213.59 185.43 C 219.64 195.97 211.31 211.56 199.05 211.98 C 151.63 212.03 104.22 211.98 56.80 212.00 C 49.66 210.80 42.26 205.81 41.19 198.17 C 40.69 192.52 41.29 186.41 44.50 181.57 C 63.90 148.54 82.99 115.33 102.32 82.27 C 95.13 81.65 87.84 82.62 80.71 81.95 C 81.54 78.75 81.85 75.23 83.07 72.23 C 84.84 72.63 86.59 73.11 88.36 73.51 C 92.62 61.73 100.51 50.84 111.64 44.74 Z"
     id="path6" />
  <path
     fill="#0068aa"
     d=" M 99.61 57.60 C 107.09 48.19 118.95 41.31 131.21 42.14 C 127.29 44.39 123.06 46.56 120.39 50.34 C 115.23 57.14 112.65 66.39 115.38 74.69 C 115.95 77.67 117.45 80.44 120.15 81.97 C 115.38 81.69 110.68 80.72 105.91 80.46 C 98.37 79.75 90.80 80.36 83.26 79.97 C 83.46 78.34 83.83 76.74 84.33 75.18 C 86.11 74.99 87.92 75.08 89.67 74.70 C 92.72 68.89 95.18 62.60 99.61 57.60 Z"
     id="path8" />
  <path
     fill="#006fb6"
     d=" M 131.21 42.14 C 139.60 41.89 148.17 44.11 155.19 48.77 C 164.95 55.34 169.93 67.03 171.45 78.36 C 172.16 85.55 171.60 92.78 171.71 99.98 C 173.52 103.90 179.27 101.93 182.03 104.83 C 181.69 105.04 181.03 105.46 180.70 105.67 C 176.99 105.04 173.36 104.03 169.69 103.24 C 165.97 101.56 163.38 98.20 159.96 96.05 C 148.08 88.15 134.01 84.53 120.15 81.97 C 117.45 80.44 115.95 77.67 115.38 74.69 C 112.65 66.39 115.23 57.14 120.39 50.34 C 123.06 46.56 127.29 44.39 131.21 42.14 Z"
     id="path10" />
  <path
     fill="#ffffff"
     d=" M 132.44 48.38 C 133.65 46.44 136.20 47.16 138.09 47.25 C 143.88 47.93 150.05 48.50 155.02 51.84 C 161.41 58.07 167.08 65.91 168.04 75.03 C 168.30 79.54 168.32 84.22 166.72 88.51 L 165.87 88.45 C 164.51 82.06 165.42 75.26 163.41 68.92 C 162.35 64.49 160.46 59.86 156.39 57.38 C 153.50 55.29 150.65 53.05 147.35 51.64 C 142.75 49.86 137.74 50.48 132.93 50.14 C 132.81 49.70 132.56 48.82 132.44 48.38 Z"
     id="path12" />
  <path
     fill="#007ac8"
     d=" M 132.93 50.14 C 137.74 50.48 142.75 49.86 147.35 51.64 C 150.65 53.05 153.50 55.29 156.39 57.38 C 157.36 62.61 159.30 68.07 157.36 73.33 C 154.81 79.40 148.78 84.43 141.94 84.15 C 136.09 84.76 130.61 81.31 127.42 76.61 C 124.47 72.82 124.46 67.67 125.22 63.16 C 126.36 57.73 131.00 53.99 135.66 51.52 C 134.76 51.05 133.85 50.59 132.93 50.14 Z"
     id="path14" />
  <path
     fill="#006eb4"
     d=" M 104.33 83.26 C 107.06 82.16 110.14 83.04 112.98 83.30 C 112.13 85.84 110.59 88.06 109.28 90.38 C 96.76 112.38 84.01 134.25 71.13 156.05 C 69.91 158.17 68.81 160.41 67.15 162.24 C 66.21 158.16 65.85 153.98 65.80 149.81 C 66.57 147.47 67.98 145.42 69.19 143.30 C 80.88 123.28 92.32 103.08 104.33 83.26 Z"
     id="path16" />
  <path
     fill="#ffffff"
     d=" M 58.86 181.01 C 78.11 148.65 96.66 115.86 115.83 83.46 C 125.35 84.66 134.82 86.71 143.78 90.19 C 144.98 90.62 145.36 91.97 146.02 92.94 C 162.57 121.77 178.95 150.71 195.34 179.64 C 197.72 184.29 199.40 190.08 197.03 195.07 C 195.50 198.47 191.61 200.12 188.05 200.00 C 147.35 199.97 106.65 200.15 65.95 200.04 C 62.43 199.93 58.66 198.27 57.13 194.93 C 55.13 190.44 55.78 184.87 58.86 181.01 Z"
     id="path18" />
  <path
     fill="#0071b9"
     d=" M 148.84 92.79 C 152.78 93.83 156.10 96.33 159.45 98.54 C 161.28 99.70 162.71 101.37 163.73 103.27 C 173.68 120.40 183.72 137.49 193.37 154.79 C 192.72 158.69 191.70 162.52 190.46 166.27 C 176.71 143.57 164.07 120.21 150.81 97.23 C 149.97 95.83 149.26 94.36 148.84 92.79 Z"
     id="path20" />
  <path
     fill="#0068aa"
     d=" M 63.62 152.66 C 64.18 151.59 64.88 150.60 65.80 149.81 C 65.85 153.98 66.21 158.16 67.15 162.24 C 67.06 163.74 66.00 164.95 65.32 166.23 C 62.13 171.14 59.47 176.37 56.30 181.29 C 53.36 185.68 53.16 191.72 55.59 196.37 C 57.36 199.86 61.31 201.51 65.01 201.95 C 77.44 202.52 89.96 201.24 102.35 202.33 C 98.95 203.06 95.47 203.19 92.00 203.32 C 95.01 206.06 98.63 207.98 102.24 209.77 C 88.18 210.36 74.07 209.80 59.99 210.02 C 54.20 210.40 48.52 207.43 45.13 202.82 C 42.43 199.01 42.80 194.04 43.49 189.66 C 44.20 185.05 47.24 181.37 49.33 177.34 C 54.10 169.12 59.12 161.04 63.62 152.66 Z"
     id="path34" />
  <path
     fill="#0068aa"
     d=" M 193.37 154.79 C 195.19 156.75 196.19 159.29 197.54 161.56 C 202.39 170.02 207.20 178.51 212.09 186.95 C 217.10 196.96 208.40 210.98 196.99 210.00 C 185.57 209.81 174.12 210.37 162.71 209.78 C 166.89 207.75 170.92 205.40 174.37 202.26 C 180.06 201.32 185.94 202.66 191.63 201.58 C 196.46 200.61 200.13 195.95 200.11 191.04 C 200.75 181.81 194.14 174.58 190.34 166.80 L 190.46 166.27 C 191.70 162.52 192.72 158.69 193.37 154.79 Z"
     id="path36" />
  <path
     fill="#006cb1"
     d=" M 102.35 202.33 C 104.21 201.99 106.11 202.00 107.99 202.01 C 130.12 202.14 152.26 201.66 174.37 202.26 C 170.92 205.40 166.89 207.75 162.71 209.78 C 142.57 210.10 122.38 210.15 102.24 209.77 C 98.63 207.98 95.01 206.06 92.00 203.32 C 95.47 203.19 98.95 203.06 102.35 202.33 Z"
     id="path42" />
  <polygon
     transform="matrix(0.95897231,0,0,0.81792794,2.4299335,38.449527)"
     style="fill:url(#SVGID_2_);stroke:#015491;stroke-width:2;stroke-miterlimit:10"
     id="polygon4061"
     points="105.333,144.333 139,72.333 129.273,117.333 152.667,108.333 116.333,183.667 125.333,135 "
     stroke-miterlimit="10" />
</svg>
