<?xml version="1.0" encoding="utf-8"?>
<!-- Generator: Adobe Illustrator 17.0.0, SVG Export Plug-In . SVG Version: 6.00 Build 0)  -->
<!DOCTYPE svg PUBLIC "-//W3C//DTD SVG 1.1//EN" "http://www.w3.org/Graphics/SVG/1.1/DTD/svg11.dtd">
<svg version="1.1" xmlns="http://www.w3.org/2000/svg" xmlns:xlink="http://www.w3.org/1999/xlink" x="0px" y="0px" width="60px"
	 height="60px" viewBox="0 0 60 60" enable-background="new 0 0 60 60" xml:space="preserve">
<g id="Layer_1">
</g>
<g id="Layer_5">
</g>
<g id="Electricity_Demand">
	<g>
		<path fill="#FFFFFF" d="M30.9,50c-11.1,0-20.2-8.9-20.2-19.8c0-10.9,9.1-19.8,20.2-19.8c11.1,0,20.2,8.9,20.2,19.8
			C51.1,41.2,42,50,30.9,50z"/>
		<g>
			<path fill="#015491" d="M30.9,12.3c10.2,0,18.5,8.1,18.5,18s-8.3,18-18.5,18s-18.5-8.1-18.5-18S20.7,12.3,30.9,12.3 M30.9,8.8
				c-12.1,0-22,9.6-22,21.5c0,11.9,9.8,21.5,22,21.5c12.1,0,22-9.6,22-21.5C52.9,18.4,43,8.8,30.9,8.8L30.9,8.8z"/>
		</g>
	</g>
	<rect x="18.9" y="19.3" fill="#015491" width="3.8" height="8"/>
	<rect x="23.7" y="19.3" fill="#015491" width="3.8" height="8"/>
	<rect x="28.7" y="19.3" fill="#015491" width="3.8" height="8"/>
	<rect x="33.5" y="19.3" fill="#015491" width="3.8" height="8"/>
	<rect x="38.7" y="19.3" fill="#015491" width="3.8" height="8"/>
	<text transform="matrix(1 0 0 1 19.375 25.0554)" fill="#FFFFFF" font-family="'Arial-BoldMT'" font-size="5.2572">2</text>
	<text transform="matrix(1 0 0 1 24.2916 25.0551)" fill="#FFFFFF" font-family="'Arial-BoldMT'" font-size="5.2572">9</text>
	<text transform="matrix(1 0 0 1 29.2916 25.0555)" fill="#FFFFFF" font-family="'Arial-BoldMT'" font-size="5.2572">5</text>
	<text transform="matrix(1 0 0 1 34.2916 25.055)" fill="#FFFFFF" font-family="'Arial-BoldMT'" font-size="5.2572">1</text>
	<g>
		<defs>
			<rect id="SVGID_36_" x="38.5" y="19.4" width="3.7" height="7.8"/>
		</defs>
		<clipPath id="SVGID_1_">
			<use xlink:href="#SVGID_36_"  overflow="visible"/>
		</clipPath>
		<g clip-path="url(#SVGID_1_)">
			<text transform="matrix(1 0 0 1 39.042 22.5559)" fill="#FFFFFF" font-family="'Arial-BoldMT'" font-size="5.2572">4</text>
		</g>
	</g>
	<g>
		<defs>
			<rect id="SVGID_38_" x="38.5" y="19.4" width="3.7" height="7.8"/>
		</defs>
		<clipPath id="SVGID_2_">
			<use xlink:href="#SVGID_38_"  overflow="visible"/>
		</clipPath>
		<g clip-path="url(#SVGID_2_)">
			<text transform="matrix(1 0 0 1 39.0416 29.3059)" fill="#FFFFFF" font-family="'Arial-BoldMT'" font-size="5.2572">5</text>
		</g>
	</g>
	<g>
		<polygon fill="#015491" points="29.8,30.6 32.9,30.6 31.3,35.2 34.5,35.2 27.4,44.8 30,37.7 27.4,37.7 		"/>
	</g>
</g>
</svg>
