<?xml version="1.0" encoding="utf-8"?>
<!-- Generator: Adobe Illustrator 19.1.0, SVG Export Plug-In . SVG Version: 6.00 Build 0)  -->
<!DOCTYPE svg PUBLIC "-//W3C//DTD SVG 1.1//EN" "http://www.w3.org/Graphics/SVG/1.1/DTD/svg11.dtd">
<svg version="1.1" id="Layer_1" xmlns="http://www.w3.org/2000/svg" xmlns:xlink="http://www.w3.org/1999/xlink" x="0px" y="0px"
	 viewBox="-281 404.9 32 32" style="enable-background:new -281 404.9 32 32;" xml:space="preserve">
<style type="text/css">
	.st0{fill:#FFFFFF;}
</style>
<g>
	<circle class="st0" cx="-257.9" cy="419.1" r="2.1"/>
	<circle class="st0" cx="-272.1" cy="419.1" r="2.1"/>
	<circle class="st0" cx="-265.1" cy="419.1" r="2.1"/>
	<path d="M-265,407.4c-7.9,0-14.3,5.4-14.3,12c0,3.6,1.9,6.9,5.1,9.2c0.3,1.9-0.8,3.8-0.8,3.9c-0.2,0.4-0.2,1,0,1.4
		c0.2,0.4,0.7,0.6,1.1,0.6c0,0,0.1,0,0.1,0c1.4-0.2,3.6-1.2,6.7-3.1c0.7,0.1,1.3,0.1,2,0.1c7.9,0,14.3-5.4,14.3-12
		C-250.7,412.7-257.1,407.4-265,407.4z M-272.1,421.2c-1.2,0-2.1-0.9-2.1-2.1s0.9-2.1,2.1-2.1c1.2,0,2.1,0.9,2.1,2.1
		S-270.9,421.2-272.1,421.2z M-265.1,421.2c-1.2,0-2.1-0.9-2.1-2.1s0.9-2.1,2.1-2.1c1.2,0,2.1,0.9,2.1,2.1S-263.9,421.2-265.1,421.2
		z M-257.9,421.2c-1.2,0-2.1-0.9-2.1-2.1s0.9-2.1,2.1-2.1c1.2,0,2.1,0.9,2.1,2.1S-256.7,421.2-257.9,421.2z"/>
</g>
</svg>
