<?xml version="1.0" ?><!DOCTYPE svg  PUBLIC '-//W3C//DTD SVG 1.1//EN'  'http://www.w3.org/Graphics/SVG/1.1/DTD/svg11.dtd'><svg enable-background="new 0 0 128 128" height="128px" id="Layer_1" version="1.1" viewBox="0 0 128 128" width="128px" xml:space="preserve" xmlns="http://www.w3.org/2000/svg" xmlns:xlink="http://www.w3.org/1999/xlink"><path d="M63.5,11.5c3,0,6.1,0.3,9.1,0.8v8.2v3l2.9,0.8c2.9,0.9,5.7,2,8.3,3.4l2.6,1.4l2.1-2.1l5.8-5.8  c5,3.5,9.4,7.9,12.9,12.9l-5.8,5.8l-2.1,2.1l1.4,2.6c1.4,2.6,2.6,5.4,3.4,8.3l0.8,2.9h3h8.2c0.5,3,0.8,6.1,0.8,9.1s-0.3,6.1-0.8,9.1  H108h-3l-0.8,2.9c-0.9,2.9-2,5.7-3.4,8.3l-1.4,2.6l2.1,2.1l5.8,5.8c-3.5,5-7.9,9.4-12.9,12.9l-5.8-5.8l-2.1-2.1l-2.6,1.4  c-2.6,1.4-5.4,2.6-8.3,3.4l-2.9,0.8v3v8.2c-3,0.5-6.1,0.8-9.1,0.8s-6.1-0.3-9.1-0.8v-8.2v-3l-2.9-0.8c-2.9-0.9-5.7-2-8.3-3.4  l-2.6-1.4l-2.1,2.1l-5.8,5.8c-5-3.5-9.4-7.9-12.9-12.9l5.8-5.8l2.1-2.1l-1.4-2.6c-1.4-2.6-2.6-5.4-3.4-8.3l-0.8-2.9h-3h-8.2  C10.3,71.1,10,68,10,65s0.3-6.1,0.8-9.1H19h3l0.8-2.9c0.9-2.9,2-5.7,3.4-8.3l1.4-2.6L25.5,40l-5.8-5.8c3.5-5,7.9-9.4,12.9-12.9  l5.8,5.8l2.1,2.1l2.6-1.4c2.6-1.4,5.4-2.6,8.3-3.4l2.9-0.8v-3v-8.2C57.4,11.8,60.5,11.5,63.5,11.5 M63.5,7.5C59,7.5,54.6,8,50.4,9  v11.4c-3.2,0.9-6.2,2.2-9.1,3.8l-8.1-8.1c-7.5,4.7-13.9,11-18.6,18.6l8.1,8.1c-1.6,2.9-2.8,5.9-3.8,9.1H7.5C6.5,56.1,6,60.5,6,65  s0.5,8.9,1.5,13.1H19c0.9,3.2,2.2,6.2,3.8,9.1l-8.1,8.1c4.7,7.5,11,13.9,18.6,18.6l8.1-8.1c2.9,1.6,5.9,2.8,9.1,3.8V121  c4.2,1,8.6,1.5,13.1,1.5s8.9-0.5,13.1-1.5v-11.4c3.2-0.9,6.2-2.2,9.1-3.8l8.1,8.1c7.5-4.7,13.9-11,18.6-18.6l-8.1-8.1  c1.6-2.9,2.8-5.9,3.8-9.1h11.4c1-4.2,1.5-8.6,1.5-13.1s-0.5-8.9-1.5-13.1H108c-0.9-3.2-2.2-6.2-3.8-9.1l8.1-8.1  c-4.7-7.5-11-13.9-18.6-18.6l-8.1,8.1c-2.9-1.6-5.9-2.8-9.1-3.8V9C72.4,8,68,7.5,63.5,7.5L63.5,7.5z" fill="#3B97D3"/><path d="M63,39c14.8,0,26.8,12,26.8,26.8S77.8,92.5,63,92.5s-26.8-12-26.8-26.8S48.2,39,63,39 M63,37  c-15.9,0-28.8,12.9-28.8,28.8S47.1,94.5,63,94.5s28.8-12.9,28.8-28.8S78.9,37,63,37L63,37z" fill="#2C3E50"/></svg>