<?xml version="1.0" encoding="utf-8"?>
<!-- Generator: Adobe Illustrator 19.2.1, SVG Export Plug-In . SVG Version: 6.00 Build 0)  -->
<svg version="1.1" xmlns="http://www.w3.org/2000/svg" xmlns:xlink="http://www.w3.org/1999/xlink" x="0px" y="0px"
	 viewBox="0 0 256 256" enable-background="new 0 0 256 256" xml:space="preserve">
<g id="image">
</g>
<g id="Layer_2">
</g>
<g id="Layer_3">
	<g>
		
			<radialGradient id="SVGID_1_" cx="116.8725" cy="51.8011" r="29.3488" gradientTransform="matrix(0.9958 0 -0.0976 0.9904 4.4167 6.6279)" gradientUnits="userSpaceOnUse">
			<stop  offset="0.0049" style="stop-color:#0081D4"/>
			<stop  offset="1" style="stop-color:#0068AA"/>
		</radialGradient>
		<path fill="url(#SVGID_1_)" stroke="#005491" stroke-miterlimit="10" d="M80.888,68.178c-0.923-2.619,0.412-6.507,3.355-8.093
			c4.038-2.176,9.346-4.589,19.788-8.25c8.813-3.089,29.038-9.321,34.424-9.751s11.37,0.689,12.204,5.252
			c0.833,4.563-5.033,7.719-6.591,8.316c-1.558,0.597-20.775,5.755-25.214,7.255c-4.438,1.5-29.01,9.664-31.509,11.345
			c-0.158,0.106-1.055,0.221-1.209,0.117C84.606,73.332,82.42,72.525,80.888,68.178z"/>
		
			<radialGradient id="SVGID_2_" cx="112.0745" cy="90.5713" r="29.4013" gradientTransform="matrix(1.3419 0 -0.3219 1.1144 5.9006 -20.4698)" gradientUnits="userSpaceOnUse">
			<stop  offset="0.0049" style="stop-color:#0081D4"/>
			<stop  offset="1" style="stop-color:#0068AA"/>
		</radialGradient>
		<path fill="url(#SVGID_2_)" stroke="#005491" stroke-miterlimit="10" d="M79.754,94.495c-1.277-2.847,0.512-7.27,4.508-9.247
			c5.484-2.713,12.695-5.782,26.892-10.61c11.981-4.075,39.691-11.58,46.817-13.339c9.676-2.387,15.493-0.055,16.664,4.962
			c1.17,5.017-2.921,7.898-8.915,9.729c-2.171,0.663-28.032,7.345-34.067,9.335c-6.034,1.99-39.375,13.994-43.056,15.462
			c-0.161,0.064-1.3,0.317-1.646,0.217C84.714,100.362,81.874,99.221,79.754,94.495z"/>
		
			<radialGradient id="SVGID_3_" cx="153.4048" cy="135.0179" r="18.4538" gradientTransform="matrix(1 0 0 1.5001 0 -67.5186)" gradientUnits="userSpaceOnUse">
			<stop  offset="0.0049" style="stop-color:#0081D4"/>
			<stop  offset="1" style="stop-color:#0068AA"/>
		</radialGradient>
		<path fill="url(#SVGID_3_)" stroke="#005491" stroke-miterlimit="10" d="M136.401,140.421c0,3.422,0,10.898,0,11.708
			c0,0.811,0.27,2.612,2.432,2.612c2.162,0,9.187,0,10.087,0s1.171-0.45,1.171-2.972c0-2.522,0-7.565,0-8.736
			s-0.18-3.062,1.081-4.323s13.267-8.912,14.275-9.547c1.824-1.148,6.417-4.661,4.653-8.443c-1.05-2.251-2.266-7.408-9.201-4.616
			s-15.581,5.314-23.597,14.5C135.9,132.21,136.401,134.657,136.401,140.421z"/>
		
			<radialGradient id="SVGID_4_" cx="128.814" cy="122.3987" r="40.8327" gradientTransform="matrix(1 0 0 1.5001 0 -61.2081)" gradientUnits="userSpaceOnUse">
			<stop  offset="0.0049" style="stop-color:#0081D4"/>
			<stop  offset="1" style="stop-color:#0068AA"/>
		</radialGradient>
		<path fill="url(#SVGID_4_)" stroke="#005491" stroke-miterlimit="10" d="M176.466,96.037c-1.131-5.026-6.93-7.404-16.624-5.093
			c-7.139,1.702-34.908,8.989-46.92,12.969c-14.234,4.716-21.47,7.728-26.975,10.398c-4.012,1.945-5.836,6.355-4.581,9.212
			c1.959,4.46,4.742,5.359,6.77,6.371c3.265,2.085,12.056,7.746,13.125,8.815c1.261,1.261,1.081,3.152,1.081,4.323
			c0,1.171,0,6.214,0,8.736c0,2.522,0.27,2.972,1.171,2.972c0.901,0,7.926,0,10.087,0s2.432-1.801,2.432-2.612
			c0-0.811,0-8.286,0-11.708c0-5.764,0.501-8.211-0.901-9.817c-2.545-2.917-5.154-5.158-7.751-6.953
			c10.461-3.477,22.357-7.248,25.729-8.33c6.05-1.942,32.19-8.979,34.366-9.625C173.483,103.912,177.597,101.063,176.466,96.037z"/>
		
			<radialGradient id="SVGID_5_" cx="126.1157" cy="164.6988" r="19.62" gradientTransform="matrix(1 0 0 0.9314 0 13.2903)" gradientUnits="userSpaceOnUse">
			<stop  offset="0.0049" style="stop-color:#0081D4"/>
			<stop  offset="1" style="stop-color:#0068AA"/>
		</radialGradient>
		<path fill="url(#SVGID_5_)" stroke="#005491" stroke-miterlimit="10" d="M149.937,173.227h-47.643
			c-1.016,0-1.846-0.831-1.846-1.846v-9.392c0-1.016,0.831-1.846,1.846-1.846h47.643c1.016,0,1.846,0.831,1.846,1.846v9.392
			C151.784,172.396,150.953,173.227,149.937,173.227z"/>
		
			<radialGradient id="SVGID_6_" cx="126.1157" cy="191.0151" r="20.4876" gradientTransform="matrix(1 0 0 1.1619 0 -33.4702)" gradientUnits="userSpaceOnUse">
			<stop  offset="0.0049" style="stop-color:#0081D4"/>
			<stop  offset="1" style="stop-color:#0068AA"/>
		</radialGradient>
		<path fill="url(#SVGID_6_)" stroke="#005491" stroke-miterlimit="10" d="M149.021,178.356h-45.81c-1.625,0-2.954,1.03-2.954,2.288
			v3.727v0.638v0.37c0,0.127,0.023,0.25,0.049,0.372c0.505,7.133,8.172,12.851,17.501,12.851h16.619
			c9.329,0,16.996-5.719,17.501-12.851c0.026-0.122,0.049-0.245,0.049-0.372v-0.37v-0.638v-3.727
			C151.975,179.386,150.645,178.356,149.021,178.356z"/>
		
			<radialGradient id="SVGID_7_" cx="126.1819" cy="206.7775" r="7.6304" gradientTransform="matrix(1 0 0 1.4629 0 -95.5161)" gradientUnits="userSpaceOnUse">
			<stop  offset="0.0049" style="stop-color:#0081D4"/>
			<stop  offset="1" style="stop-color:#0068AA"/>
		</radialGradient>
		<path fill="url(#SVGID_7_)" stroke="#005491" stroke-miterlimit="10" d="M136.314,203.955c0,3.675-4.536,6.653-10.132,6.653
			s-10.132-2.979-10.132-6.653c0-1.79,4.536,1.711,10.132,1.711S136.314,201.962,136.314,203.955z"/>
	</g>
</g>
</svg>
