<?xml version="1.0" encoding="utf-8"?>
<svg id="Layer_1" data-name="Layer 1" viewBox="0 0 40 40" xmlns="http://www.w3.org/2000/svg">
  <defs>
    <style>.cls-1{fill:#1e242b;}</style>
  </defs>
  <title>ActionButtons-rev01</title>
  <path class="cls-1" d="M23.36,3.82V32.93l14.73,3.25V8.6h0V7L23.43,3.82v0ZM36.78,27.67l-2.14-.47V24.9l2.15.47Zm-12.21-22,2.15.47V21.54l-2.16-.48ZM30,22.27l-2-.45V6.39l2,.44Zm3.34.74-2.06-.46V7.11l2.06.45Zm0,1.6v2.3l-2.06-.45v-2.3ZM30,26.19l-2-.44v-2.3l2,.44Zm-3.3-.72L24.55,25v-2.3l2.16.47ZM36.79,8.32V23.78l-2.15-.48V7.84ZM34.63,33.72V28.78l2.14.47v4.94ZM31.29,33V28l2.06.45v4.94ZM28,32.28V27.33l2,.44v4.95Zm-3.45-.75V26.58l2.16.47V32Z"/>
  <path class="cls-1" d="M16.57,3.83v0L1.9,7V8.6h0V36.18l14.73-3.25V3.82ZM3.22,25.37l2.15-.47v2.3l-2.14.47Zm12.22-4.31-2.16.48V6.12l2.15-.47ZM10,6.84l2-.44V21.82l-2,.45Zm-3.34.73,2.06-.45V22.55L6.65,23Zm2.06,16.6v2.3l-2.06.45v-2.3ZM10,23.89l2-.44v2.3l-2,.44Zm3.3-.72,2.16-.47V25l-2.16.47ZM5.37,7.84V23.3l-2.15.48V8.32ZM3.23,34.19V29.25l2.14-.47v4.94Zm3.42-.75V28.5L8.71,28V33ZM10,32.72V27.77l2-.44v4.95Zm3.3-.72V27.05l2.16-.47v4.95Z"/>
</svg>