<?xml version="1.0" encoding="utf-8"?>
<!-- Generator: Adobe Illustrator 19.2.1, SVG Export Plug-In . SVG Version: 6.00 Build 0)  -->
<svg version="1.1" xmlns="http://www.w3.org/2000/svg" xmlns:xlink="http://www.w3.org/1999/xlink" x="0px" y="0px"
	 viewBox="0 0 256 256" enable-background="new 0 0 256 256" xml:space="preserve">
<g id="image">
</g>
<g id="Layer_2">
</g>
<g id="Layer_3">
	<g id="XMLID_990_">
		
			<radialGradient id="XMLID_2_" cx="145.8405" cy="-12.6848" r="67.2157" fx="126.6994" fy="-12.3957" gradientTransform="matrix(1 0 0 1.0018 0 125.0441)" gradientUnits="userSpaceOnUse">
			<stop  offset="0.4925" style="stop-color:#0081D4"/>
			<stop  offset="1" style="stop-color:#0068AA"/>
		</radialGradient>
		<path id="XMLID_1210_" fill="url(#XMLID_2_)" stroke="#005491" stroke-miterlimit="10" d="M109.522,188.842
			c-27.881-13.412-47.927-41.563-48.873-74.29c7.113-1.317,12.519-7.563,12.519-15.053c0-8.444-6.869-15.313-15.313-15.313
			s-15.312,6.869-15.312,15.313c0,7.516,5.444,13.779,12.595,15.066c0.628,23.278,9.986,45.07,26.519,61.602
			c5.901,5.901,12.45,10.879,19.521,14.879l-0.028,22.215c0,1.521,1.233,2.754,2.754,2.754h83.724c1.521,0,2.754-1.233,2.754-2.754
			v-21.665c0-1.521-1.233-2.754-2.754-2.754h-5.618v-17.23c20.067-12.258,33.49-34.367,33.49-59.554
			c-0.001-38.452-31.283-69.734-69.735-69.734c-38.451,0-69.733,31.282-69.733,69.734c0,25.187,13.423,47.296,33.49,59.554V188.842z
			 M50.413,99.536c0-3.92,3.189-7.109,7.109-7.109s7.109,3.189,7.109,7.109c0,3.92-3.189,7.109-7.109,7.109
			S50.413,103.455,50.413,99.536z M184.873,200.75h-78.216v-6.4h78.216V200.75z M184.873,211.583h-78.216v-6.4h78.216V211.583z"/>
		<path id="XMLID_1218_" fill="#FFFFFF" stroke="#015491" stroke-miterlimit="10" d="M148.519,61.823
			c0-1.521-1.233-2.754-2.754-2.754c-29.218,0-52.989,23.77-52.989,52.989c0,1.521,1.233,2.754,2.754,2.754
			c1.521,0,2.754-1.233,2.754-2.754c0-26.181,21.3-47.48,47.48-47.48C147.287,64.577,148.519,63.344,148.519,61.823z"/>
		<path id="XMLID_1221_" fill="#FFFFFF" stroke="#015491" stroke-miterlimit="10" d="M170.846,112.058
			c0-13.83-11.251-25.081-25.081-25.081c-13.829,0-25.081,11.251-25.081,25.081s11.251,25.081,25.081,25.081
			C159.595,137.138,170.846,125.887,170.846,112.058z"/>
		<radialGradient id="XMLID_3_" cx="145.7658" cy="112.0577" r="12.5219" gradientUnits="userSpaceOnUse">
			<stop  offset="0.0049" style="stop-color:#0081D4"/>
			<stop  offset="1" style="stop-color:#0068AA"/>
		</radialGradient>
		<path id="XMLID_1226_" fill="url(#XMLID_3_)" stroke="#005491" stroke-miterlimit="10" d="M158.288,112.058
			c0-6.905-5.617-12.522-12.522-12.522s-12.522,5.617-12.522,12.522s5.617,12.522,12.522,12.522S158.288,118.962,158.288,112.058z"
			/>
	</g>
</g>
</svg>
