<svg xmlns="http://www.w3.org/2000/svg" viewBox="0 0 40 40"><defs><style>.cls-1{fill:#1e242c;}</style></defs><title>ActionButtons</title><g id="Layer_2" data-name="Layer 2"><path class="cls-1" d="M36.49,5.19H1.9V34.81H38.1V5.19ZM28.57,22.53v3.59H25.64V22.53Zm-2.93-1.6V6.8h2.93V20.93Zm-1,5.2h-3.1V22.53h3.1Zm-6.31,0H15V22.53h3.37Zm-4.32,0H11.14V22.53h2.92Zm-3.87,0H7.27V22.53h2.93Zm0,1.6V33.2H7.27V27.73Zm1,0h2.92V33.2H11.14Zm3.87,0h3.37V33.2H15Zm6.57,0h3.1V33.2h-3.1Zm4.05,0h2.93V33.2H25.64Zm3.88,0h2.92V33.2H29.52Zm0-1.6V22.53h2.92v3.59Zm0-5.2V6.8h2.92V20.93ZM24.69,6.8V20.93h-3.1V6.8Zm-6.31,0V20.93H15V6.8Zm-4.32,0V20.93H11.14V6.8Zm-3.87,0V20.93H7.27V6.8Zm-6.69,0H6.31V20.93H3.51Zm0,15.74H6.31v3.59H3.51Zm0,5.2H6.31V33.2H3.51Zm33,5.47h-3.1V27.73h3.1Zm0-7.07h-3.1V22.53h3.1Zm0-5.2h-3.1V6.8h3.1Z"/></g></svg>