<svg xmlns="http://www.w3.org/2000/svg" xmlns:xlink="http://www.w3.org/1999/xlink" viewBox="0 0 40 40"><defs><style>.cls-1{fill:none;}.cls-2{fill:#fff;}.cls-3{fill:#1e242b;}.cls-4{clip-path:url(#clip-path);}</style><clipPath id="clip-path"><path class="cls-1" d="M23.23,25.12c0-.23-.46-3.6-.46-3.6l-4.54-1.06-3.85-.15-.1-2,.14-.69.43-.45.86-.84.55-.22V16h0a1,1,0,0,0,0-2h-.82l-.3-.69-3,.56-.73,2.4s-1.75,6.4-1.77,6.79-.52,7.12-.52,7.12l4.27.65,9,.17s1-2.21,1-2.33S23.23,25.35,23.23,25.12Z"/></clipPath></defs><title>ActionButtons-rev01</title><g id="Layer_2" data-name="Layer 2"><polygon class="cls-2" points="18.15 13.07 26.94 3.56 36.98 13.07 26.01 23.06 18.15 13.07"/><path class="cls-3" d="M26.38,2.78l-9.46,9.46-1.15-1.15a1.25,1.25,0,0,0-1.75.14L2.79,22.47a1.3,1.3,0,0,0-.15,1.79l13.1,13.1a1.3,1.3,0,0,0,1.79-.15L28.77,26a1.25,1.25,0,0,0,.14-1.75l-1.15-1.15,9.46-9.46a1.25,1.25,0,0,0,.14-1.75L28.12,2.63A1.26,1.26,0,0,0,26.38,2.78ZM34.67,13l-7,7L20,12.32l7-7L34.68,13Z"/><path class="cls-3" d="M24.22,12.73a1.14,1.14,0,0,0,1.61,0l2-2a1.14,1.14,0,0,0-1.61-1.61l-2,2A1.15,1.15,0,0,0,24.22,12.73Z"/><path class="cls-3" d="M27.27,15.78a1.14,1.14,0,0,0,1.61,0l2-2a1.14,1.14,0,0,0-1.61-1.61l-2,2A1.14,1.14,0,0,0,27.27,15.78Z"/><g class="cls-4"><path class="cls-2" d="M22.12,22.38a1,1,0,0,0-.72-.29H13.65V18.72a2.7,2.7,0,0,1,4.6-1.91A2.6,2.6,0,0,1,19,18.72a.68.68,0,0,0,.67.67h.67a.68.68,0,0,0,.67-.67A4.73,4.73,0,0,0,16.35,14a4.73,4.73,0,0,0-4.72,4.72v3.37h-.34a1,1,0,0,0-1,1v6.07a1,1,0,0,0,1,1H21.41a1,1,0,0,0,1-1V23.1A1,1,0,0,0,22.12,22.38Z"/></g><path class="cls-3" d="M34.09,30.66v7H31.32v-7H28.76V28.5h7.93v2.16Z"/></g></svg>