<svg xmlns="http://www.w3.org/2000/svg" viewBox="0 0 40 40"><defs><style>.cls-1{fill:#1e242b;}</style></defs><title>ActionButtons-rev01</title><g id="Layer_2" data-name="Layer 2"><path class="cls-1" d="M33.62,15.44l.7-7a1.49,1.49,0,0,0-2.42-1.3l-7.7,6.29A1.49,1.49,0,0,0,25,16.06l7,.71A1.49,1.49,0,0,0,33.62,15.44Z"/><path class="cls-1" d="M31.12,10.95a15.42,15.42,0,0,0-12-5.88A14.19,14.19,0,0,0,5.77,14.53a1.4,1.4,0,0,0,.86,1.79,1.43,1.43,0,0,0,1.81-.86A11.34,11.34,0,0,1,19.12,7.9,12.39,12.39,0,0,1,29.5,13.55Z"/><path class="cls-1" d="M6.38,24.56l-.7,7a1.49,1.49,0,0,0,2.42,1.3l7.7-6.29A1.49,1.49,0,0,0,15,23.94l-7-.71A1.49,1.49,0,0,0,6.38,24.56Z"/><path class="cls-1" d="M8.88,29.05a15.42,15.42,0,0,0,12,5.88,14.19,14.19,0,0,0,13.34-9.45,1.4,1.4,0,0,0-.86-1.79,1.43,1.43,0,0,0-1.81.86A11.34,11.34,0,0,1,20.88,32.1,12.39,12.39,0,0,1,10.5,26.45Z"/></g></svg>