<svg xmlns="http://www.w3.org/2000/svg" viewBox="0 0 40 40"><defs><style>.cls-1{fill:#fff;}.cls-2{fill:#1e242b;}</style></defs><title>ActionButtons-rev01</title><g id="Layer_2" data-name="Layer 2"><polygon class="cls-1" points="18.73 12.39 26.94 3.98 35.98 13.07 26.94 22.31 18.73 12.39"/><path class="cls-2" d="M26.38,2.78l-9.46,9.46-1.15-1.15a1.25,1.25,0,0,0-1.75.14L2.79,22.47a1.3,1.3,0,0,0-.15,1.79l13.1,13.1a1.3,1.3,0,0,0,1.79-.15L28.77,26a1.25,1.25,0,0,0,.14-1.75l-1.15-1.15,9.46-9.46a1.25,1.25,0,0,0,.14-1.75L28.12,2.63A1.26,1.26,0,0,0,26.38,2.78ZM34.67,13l-7,7L20,12.32l7-7L34.68,13Z"/><path class="cls-2" d="M24.22,12.73a1.14,1.14,0,0,0,1.61,0l2-2a1.14,1.14,0,0,0-1.61-1.61l-2,2A1.15,1.15,0,0,0,24.22,12.73Z"/><path class="cls-2" d="M27.27,15.78a1.14,1.14,0,0,0,1.61,0l2-2a1.14,1.14,0,0,0-1.61-1.61l-2,2A1.14,1.14,0,0,0,27.27,15.78Z"/><path class="cls-1" d="M22,20.73h-.32V19.24a5.1,5.1,0,0,0-4.94-5.12h-.3a5.1,5.1,0,0,0-4.94,5.12v1.49h-.32a1,1,0,0,0-.89,1.14v7.5a1,1,0,0,0,.89,1.14H22a1,1,0,0,0,.89-1.14v-7.5A1,1,0,0,0,22,20.73Zm-2.42,0h-6V19.24a3,3,0,1,1,6,0v1.49Z"/></g></svg>