<svg xmlns="http://www.w3.org/2000/svg" viewBox="0 0 40 40"><defs><style>.cls-1{fill:#cbc7c7;}.cls-2,.cls-4{fill:#fff;}.cls-2{stroke:#1e242b;stroke-linecap:round;stroke-miterlimit:10;stroke-width:0.5px;}.cls-3{fill:#1e242b;}.cls-4{font-size:11.7px;font-family:Arial-BoldMT, Arial;font-weight:700;}</style></defs><title>ActionButtons</title><g id="Layer_2" data-name="Layer 2"><path class="cls-1" d="M4.08,7.66H14.32a.87.87,0,0,1,.59.23l8,7.37a.87.87,0,0,1,.28.64V37a.87.87,0,0,1-.87.87H4.07A.87.87,0,0,1,3.2,37V8.53A.87.87,0,0,1,4.08,7.66Z"/><path class="cls-2" d="M17.92,1.88H28.16a.87.87,0,0,1,.59.23l8,7.37a.87.87,0,0,1,.28.64V31.24a.87.87,0,0,1-.87.87H17.9a.87.87,0,0,1-.87-.87V2.74A.87.87,0,0,1,17.92,1.88Z"/><path class="cls-3" d="M23.95,10.65a2.58,2.58,0,0,0-2.57,2.57V24.06a2.58,2.58,0,0,0,2.57,2.57h6.61a2.58,2.58,0,0,0,2.57-2.57V13.22a2.58,2.58,0,0,0-2.57-2.57H23.95Z"/><text class="cls-4" transform="translate(23.9 22.76)">2</text></g></svg>