<?xml version="1.0" encoding="utf-8"?>
<!-- Generator: Adobe Illustrator 19.1.0, SVG Export Plug-In . SVG Version: 6.00 Build 0)  -->
<!DOCTYPE svg PUBLIC "-//W3C//DTD SVG 1.1//EN" "http://www.w3.org/Graphics/SVG/1.1/DTD/svg11.dtd">
<svg version="1.1" id="Layer_1" xmlns="http://www.w3.org/2000/svg" xmlns:xlink="http://www.w3.org/1999/xlink" x="0px" y="0px"
	 viewBox="-265 388.9 64 64" style="enable-background:new -265 388.9 64 64;" xml:space="preserve">
<style type="text/css">
	.st0{fill:#838383;}
</style>
<path class="st0" d="M-209.5,423c0-1.4,0-2.7,0-4.1c-7.2,0-14.3,0-21.4,0c0-7.1,0-14.3,0.1-21.4c-1.4,0-2.7,0-4.1,0
	c0,7.1,0,14.3,0,21.4c-7.1,0-14.3,0-21.4,0.1c0,1.3,0,2.7,0,4c7.1,0,14.3,0,21.4,0c0,7.2,0,14.3,0.1,21.5c1.3,0,2.7,0,4,0
	c0-7.2,0-14.3,0-21.5C-223.8,422.9-216.7,422.9-209.5,423z"/>
</svg>
