<svg xmlns="http://www.w3.org/2000/svg" xmlns:xlink="http://www.w3.org/1999/xlink" viewBox="0 0 256 256"><defs><style>.cls-1{fill:url(#radial-gradient);}.cls-2{fill:none;}.cls-2,.cls-4{stroke:#015491;stroke-miterlimit:10;stroke-width:3px;}.cls-3{fill:#015491;}.cls-4{fill:url(#radial-gradient-2);}.cls-5{fill:#fff;}</style><radialGradient id="radial-gradient" cx="126.51" cy="128" r="62.34" gradientUnits="userSpaceOnUse"><stop offset="0" stop-color="#0081d4"/><stop offset="1" stop-color="#0068aa"/></radialGradient><radialGradient id="radial-gradient-2" cx="197.93" cy="130.15" r="38.66" xlink:href="#radial-gradient"/></defs><title>All Icons - old branding</title><g id="Meter_management" data-name="Meter management"><path class="cls-1" d="M141.82,44.27a13.48,13.48,0,0,0-8.46-3.6H67.85a5,5,0,0,0-5,5V210.33a5,5,0,0,0,5,5H185.18a5,5,0,0,0,5-5V99.69a14.41,14.41,0,0,0-3.46-8.61Z"/><path class="cls-2" d="M141.82,44.27a13.48,13.48,0,0,0-8.46-3.6H67.85a5,5,0,0,0-5,5V210.33a5,5,0,0,0,5,5H185.18a5,5,0,0,0,5-5V99.69a14.41,14.41,0,0,0-3.46-8.61Z"/><path class="cls-3" d="M134.53,40.67s.3,49.8.3,51.64,2.36,8.83,8.78,8.83h46.57L189.6,95,139.51,42Z"/><path class="cls-4" d="M236.62,128.4,206.78,93.14A2.71,2.71,0,0,0,202,94.89v16.27H161.31a2.71,2.71,0,0,0-2.71,2.71v32.55a2.71,2.71,0,0,0,2.71,2.71h25.57v.14h5.43v-.14H202v16.28a2.7,2.7,0,0,0,1.78,2.54,2.51,2.51,0,0,0,.93.17,2.72,2.72,0,0,0,2.07-1l29.84-35.26A2.72,2.72,0,0,0,236.62,128.4Z"/><path class="cls-5" d="M76.14,85.93H127a3.64,3.64,0,0,0,0-7.27H76.14a3.64,3.64,0,1,0,0,7.27Z"/><path class="cls-5" d="M76.14,100.46h36.32a3.64,3.64,0,0,0,0-7.27H76.14a3.64,3.64,0,1,0,0,7.27Z"/><path class="cls-5" d="M76.14,144.05h36.32a3.64,3.64,0,0,0,0-7.27H76.14a3.64,3.64,0,1,0,0,7.27Z"/><path class="cls-5" d="M76.14,129.52H127a3.64,3.64,0,0,0,0-7.27H76.14a3.64,3.64,0,1,0,0,7.27Z"/><path class="cls-5" d="M76.14,173.11H127a3.64,3.64,0,0,0,0-7.27H76.14a3.64,3.64,0,1,0,0,7.27Z"/><path class="cls-5" d="M76.14,187.64h36.32a3.64,3.64,0,0,0,0-7.27H76.14a3.64,3.64,0,1,0,0,7.27Z"/></g></svg>