<?xml version="1.0" encoding="utf-8"?>
<!-- Generator: Adobe Illustrator 20.0.0, SVG Export Plug-In . SVG Version: 6.00 Build 0)  -->
<svg version="1.1" xmlns="http://www.w3.org/2000/svg" xmlns:xlink="http://www.w3.org/1999/xlink" x="0px" y="0px"
	 viewBox="0 0 256 256" enable-background="new 0 0 256 256" xml:space="preserve">
<g id="image">
</g>
<g id="Layer_2">
</g>
<g id="Layer_3">
	<radialGradient id="SVGID_1_" cx="125.9161" cy="128.1333" r="82.2426" gradientUnits="userSpaceOnUse">
		<stop  offset="0.4925" style="stop-color:#0081D4"/>
		<stop  offset="1" style="stop-color:#0068AA"/>
	</radialGradient>
	<path fill="url(#SVGID_1_)" stroke="#005491" stroke-miterlimit="10" d="M155.274,197.748c-0.808-0.509-3.326-1.155-4.019-1.686
		l-14.205,9.331l-11.548-11.548l9.932-15.821c-0.37-0.67-0.3-0.785-0.624-1.501l-18.293-3.257l0.069-17.808l13.35-2.31l-6.652-6.491
		c-5.543,4.527-12.334,7.207-19.586,7.207h-0.023h-0.023c-6.86,0-13.281-2.402-18.64-6.467l0,0l-6.767,6.467H65.01
		c-6.098,0-10.879,2.079-14.597,6.398c-10.879,12.565-9.054,39.634-8.199,47.926h115.046L155.274,197.748z M76.143,120.373
		c0.877,7.553,4.042,14.273,8.661,19.194c0.97,1.039,1.986,1.986,3.071,2.841c1.386,1.108,2.841,2.055,4.388,2.864
		c3.488,1.802,7.322,2.841,11.41,2.841c4.088,0,7.922-1.039,11.41-2.841c1.548-0.808,3.003-1.755,4.388-2.864
		c1.086-0.878,2.125-1.825,3.095-2.864c4.596-4.92,7.761-11.572,8.638-19.078c0.092,0,0.162,0.023,0.254,0.023
		c4.804,0,8.708-4.481,8.708-10.001c0-3.349-1.432-6.282-3.626-8.107H72.286c-2.194,1.825-3.626,4.758-3.626,8.107
		C68.66,115.569,71.917,119.703,76.143,120.373z M210.291,168.068v-7.691l-16.006-2.887c-0.716-2.98-1.894-5.751-3.441-8.292
		l9.308-13.304l-5.451-5.451l-13.35,9.285c-2.541-1.548-5.335-2.725-8.292-3.418l-2.841-15.983h-7.691l-2.887,16.006
		c-2.979,0.716-5.751,1.894-8.292,3.441l-13.304-9.308l-5.451,5.451l9.285,13.35c-1.548,2.541-2.725,5.335-3.418,8.292l-15.983,2.84
		v7.691l16.006,2.887c0.716,2.98,1.894,5.751,3.441,8.292l-9.331,13.304l5.451,5.451l13.35-9.285
		c2.541,1.548,5.336,2.725,8.292,3.418l2.841,15.984h7.691l2.887-16.006c2.98-0.716,5.751-1.894,8.292-3.441l13.304,9.308
		l5.451-5.451l-9.285-13.35c1.548-2.541,2.725-5.335,3.418-8.292L210.291,168.068z M166.36,176.105
		c-6.56,0-11.872-5.312-11.872-11.871c0-6.56,5.312-11.872,11.872-11.872c6.56,0,11.872,5.312,11.872,11.872
		C178.232,170.793,172.92,176.105,166.36,176.105z M91.48,59.535c-9.608,4.897-17.184,14.69-20.048,24.206l-0.647,2.033h-5.267
		v11.548h5.728h8.131h3.418h44.531h3.326h12.657v-0.554V85.773h-5.173l-0.647-2.033c-2.864-9.516-10.44-19.217-20.048-24.113v21.711
		v3.049c0,0.185,0,0.277,0,0.37c-0.092,1.016-0.277,1.94-0.739,2.864c-1.201,2.31-3.603,3.973-6.375,3.973h-1.478H98.686
		c-2.587,0-4.897-1.386-6.098-3.418c-0.554-0.831-0.831-1.755-1.016-2.772c-0.092-0.37-0.092-0.647-0.092-1.016v-2.587L91.48,59.535
		L91.48,59.535z M98.686,88.545h11.548c1.663,0,3.049-0.924,3.788-2.31c0.37-0.647,0.554-1.293,0.554-2.033v-0.831v-3.418V58.15
		v-3.141v-1.201c0-0.739-0.184-1.386-0.37-2.033c-0.831-2.125-2.956-3.696-5.358-3.696H98.686c-2.217,0-4.065,1.663-4.25,3.788
		c0,0.185-0.092,0.37-0.092,0.554v2.587v3.141v22.173v3.511v0.37c0,0.924,0.278,1.755,0.74,2.494
		C95.914,87.806,97.208,88.545,98.686,88.545z"/>
</g>
</svg>
