<?xml version="1.0" encoding="UTF-8" standalone="no"?>
<!-- Svg Vector Icons : http://www.onlinewebfonts.com/icon -->

<svg
   xmlns:dc="http://purl.org/dc/elements/1.1/"
   xmlns:cc="http://creativecommons.org/ns#"
   xmlns:rdf="http://www.w3.org/1999/02/22-rdf-syntax-ns#"
   xmlns:svg="http://www.w3.org/2000/svg"
   xmlns="http://www.w3.org/2000/svg"
   xmlns:sodipodi="http://sodipodi.sourceforge.net/DTD/sodipodi-0.dtd"
   xmlns:inkscape="http://www.inkscape.org/namespaces/inkscape"
   version="1.1"
   x="0px"
   y="0px"
   viewBox="0 0 1000 1000"
   enable-background="new 0 0 1000 1000"
   xml:space="preserve"
   id="svg18"
   sodipodi:docname="finance.svg"
   inkscape:version="0.92.3 (2405546, 2018-03-11)"><defs
   id="defs22" /><sodipodi:namedview
   pagecolor="#ffffff"
   bordercolor="#666666"
   borderopacity="1"
   objecttolerance="10"
   gridtolerance="10"
   guidetolerance="10"
   inkscape:pageopacity="0"
   inkscape:pageshadow="2"
   inkscape:window-width="1920"
   inkscape:window-height="1017"
   id="namedview20"
   showgrid="false"
   inkscape:zoom="0.236"
   inkscape:cx="-188.55932"
   inkscape:cy="500"
   inkscape:window-x="-8"
   inkscape:window-y="-8"
   inkscape:window-maximized="1"
   inkscape:current-layer="svg18" />
<metadata
   id="metadata2"> Svg Vector Icons : http://www.onlinewebfonts.com/icon <rdf:RDF><cc:Work
     rdf:about=""><dc:format>image/svg+xml</dc:format><dc:type
       rdf:resource="http://purl.org/dc/dcmitype/StillImage" /><dc:title /></cc:Work></rdf:RDF></metadata>
<g
   id="g16"
   style="fill:#0068aa;fill-opacity:1"
   transform="matrix(0.6586714,0,0,0.70887154,168.66935,199.21231)"><g
     transform="matrix(0.1,0,0,-0.1,0,511)"
     id="g14"
     style="fill:#0068aa;fill-opacity:1"><path
       d="M 8074.1,3512.6 C 7266.6,2714.7 6595.6,2062.9 6581.2,2062.9 c -12,0 -529.6,443.3 -1150.2,984.9 C 4812.8,3589.3 4288,4042.2 4264,4054.2 4235.2,4071 3777.6,3761.9 2203.2,2659.6 1093.9,1880.8 161.7,1224.2 135.4,1197.9 c -47.9,-45.5 -47.9,-45.5 4.8,-196.5 151,-428.9 203.7,-548.7 244.4,-536.8 24,4.8 884.2,599.1 1912.2,1320.3 1028,718.9 1885.8,1308.3 1907.4,1308.3 21.6,0 565.5,-457.7 1207.7,-1018.4 642.2,-560.7 1181.3,-1016 1195.7,-1013.6 16.8,4.8 764.4,728.5 1660.6,1607.9 C 9401.6,3781 9900,4286.6 9900,4320.2 c 0,55.1 -311.5,642.2 -340.3,642.2 -9.5,0 -678.1,-651.8 -1485.6,-1449.8 z"
       id="path4"
       style="fill:#0068aa;fill-opacity:1"
       inkscape:connector-curvature="0" /></g></g>
<path
   style="fill:#0068aa;fill-opacity:1;stroke-width:0.04636023"
   inkscape:connector-curvature="0"
   d="m 220.49549,594.333 c -14.98849,3.11969 -26.60394,9.36429 -33.85017,17.97985 -7.54385,8.86516 -7.14702,4.62237 -7.44464,76.54699 -0.19841,42.07951 0.0992,66.30396 0.79365,69.42885 3.97241,18.97816 30.38495,31.86995 62.54159,32.71522 30.77807,0.80905 50.67582,-8.83508 62.34317,-32.21607 1.5873,-6.49417 1.68651,-127.24204 0.0992,-134.36015 -1.28969,-5.62065 -7.64305,-14.73539 -13.30198,-18.97817 -6.05574,-4.37278 -17.57199,-9.11472 -27.79855,-11.11132 -10.8218,-2.25139 -32.86224,-2.25139 -43.38228,-0.005 z m 47.35055,20.48081 c 4.96447,1.49745 11.61545,4.49758 14.88928,6.86855 10.32577,7.11811 9.63132,13.23791 -2.28176,19.98166 -21.14344,11.86004 -54.70012,11.86004 -75.84355,-0.005 -11.91308,-6.74375 -12.60753,-12.86355 -2.28176,-19.98166 5.26209,-3.74884 17.17517,-7.99164 26.80236,-9.73867 7.64305,-1.37266 30.0803,0.24957 38.71543,2.87532 z m -57.08108,49.94636 c 23.82615,8.11641 55.59298,5.99502 75.24831,-4.86673 l 4.17082,-2.37096 v 8.11641 c 0,9.61387 -1.19048,11.61047 -10.32577,16.73197 -10.52418,5.99502 -20.15137,8.11642 -37.32654,8.11642 -17.17516,0 -26.80235,-2.1214 -37.32653,-8.11642 -9.13116,-5.1215 -10.32577,-7.1181 -10.32577,-16.73197 v -8.11641 l 4.27002,2.37096 c 2.28589,1.24789 7.54385,3.49407 11.61546,4.86673 z m -7.34543,37.46237 c 22.33805,10.23781 55.89059,10.23781 78.22865,0 4.36923,-1.99661 8.03988,-3.61885 8.23829,-3.61885 0.19841,0 0.29762,3.74884 0.0992,8.36598 l -0.29762,8.49078 -4.56764,3.86843 c -8.93688,7.49247 -24.22299,11.74046 -42.58864,11.74046 -18.36564,0 -33.65175,-4.24799 -42.58862,-11.74046 l -4.56765,-3.86843 -0.29762,-8.49078 c -0.19841,-4.62235 -0.0992,-8.36598 0.0992,-8.36598 0.20255,-0.005 3.8732,1.62224 8.24243,3.61885 z m 1.09127,40.83163 c 10.42498,4.87193 22.33805,7.11811 38.02098,7.11811 18.66327,0 30.87397,-2.87012 45.96167,-10.98653 1.48809,-0.74873 1.68651,0 1.68651,7.24289 0,7.86684 -0.0992,8.36599 -3.57558,11.98484 -8.13909,8.36599 -23.82615,12.98834 -44.07673,12.98834 -20.34978,0 -35.93764,-4.74714 -44.07673,-12.98834 -3.47637,-3.61885 -3.57557,-4.118 -3.57557,-11.98484 0,-7.24289 0.19841,-7.99162 1.78572,-7.24289 0.90113,0.49915 4.47257,2.24618 7.84973,3.86842 z"
   id="path6"
   sodipodi:nodetypes="ccccscccccccccccccccscscscccccscccsccccccscscscscc" /><path
   style="fill:#0068aa;fill-opacity:1;stroke-width:0.04984405"
   inkscape:connector-curvature="0"
   d="m 390.68106,503.43979 c -24.32111,4.77501 -42.47644,17.49919 -45.82936,32.08368 -1.62021,7.15976 -1.62021,221.93048 0,229.09025 2.81285,12.4647 17.94379,24.52647 37.83184,30.2289 8.43408,2.38475 13.51073,2.91466 29.61829,2.91466 19.88804,0.13251 26.04933,-0.92741 39.45205,-6.09985 16.10756,-6.23235 26.69741,-16.43928 29.07372,-28.23605 1.72822,-8.21968 1.72822,-218.48037 0,-226.70001 -3.35293,-16.30682 -21.72428,-28.8985 -49.06978,-33.806 -10.05429,-1.73336 -30.37439,-1.46839 -41.07676,0.52442 z m 46.47745,21.34128 c 15.23895,3.9801 27.56153,11.92925 27.56153,17.89664 0,3.57712 -6.59334,9.94196 -13.61875,13.12163 -24.42912,11.26682 -61.39235,10.07445 -81.82047,-2.78221 -11.56648,-7.15976 -10.91839,-14.31952 1.94425,-21.74425 15.99954,-9.14153 44.74923,-11.92925 65.93344,-6.49181 z m 25.83331,65.75718 c -2.81286,3.8421 -11.78252,8.7496 -21.50826,11.92926 -10.70237,3.45015 -35.34302,4.9075 -46.69347,2.64972 -11.24244,-2.11977 -24.10508,-7.42473 -29.28975,-12.06174 -4.54108,-3.97458 -4.54108,-3.97458 -4.54108,-12.5972 0,-4.77502 0.21603,-8.61711 0.43205,-8.61711 0.21603,0 3.45644,1.45735 7.24143,3.17966 14.59087,6.62982 22.6964,8.08716 45.28929,7.95468 19.02394,-0.13249 22.04833,-0.39746 31.45453,-3.44464 5.72923,-1.98729 12.32258,-4.64253 14.59087,-6.09987 l 4.21704,-2.64972 0.32404,8.6171 c 0.21153,6.76783 -0.11251,9.28507 -1.51669,11.13986 z m -91.43821,28.63905 c 10.59435,4.7695 24.9692,7.42474 41.28829,7.42474 19.99606,0 34.04686,-3.31216 50.04191,-11.66429 1.6202,-0.79492 1.83623,0 1.83623,7.55722 0,10.07444 -1.29617,12.19422 -10.81039,17.49917 -25.8333,14.45202 -73.06684,11.79678 -89.49395,-5.03998 -3.24492,-3.44463 -3.46094,-4.24506 -3.46094,-12.32671 0,-7.6897 0.21602,-8.48462 1.94424,-7.6897 0.97663,0.52443 4.97764,2.37923 8.65461,4.23955 z m 4.86062,44.67535 c 24.9692,8.88209 57.82791,7.55726 80.52431,-3.17966 l 7.7815,-3.7096 v 8.35211 c 0,7.82218 -0.21603,8.6171 -3.67698,12.32676 -3.9965,4.372 -12.21456,8.4846 -23.23647,11.92926 -11.24244,3.4446 -39.99211,3.04717 -52.31469,-0.79491 -9.40171,-2.91474 -15.88704,-6.23242 -21.50826,-11.13435 -2.80835,-2.38475 -3.02438,-3.17967 -3.02438,-11.80229 v -9.27956 l 3.13239,2.11977 c 1.73273,1.06542 7.24144,3.45014 12.32258,5.17247 z m -4.42856,41.23075 c 22.80442,9.67701 57.93591,9.67701 81.2804,0 4.21705,-1.72234 8.53759,-3.58268 9.61774,-3.98011 1.72821,-0.9274 1.94424,-0.26499 1.6202,8.08719 l -0.32404,9.14702 -4.97314,4.10708 c -10.9184,8.88203 -28.74968,13.12713 -51.77463,12.06721 -21.07619,-0.92734 -36.42315,-5.96735 -43.99313,-14.58445 -2.05226,-2.25226 -2.48431,-4.1126 -2.48431,-11.26685 0,-7.5572 0.21602,-8.35211 1.94424,-7.5572 0.97663,0.52993 5.08566,2.25777 9.08667,3.98011 z m -0.54008,42.55559 c 11.35047,5.17244 24.32112,7.55719 41.39631,7.55719 20.3201,0 33.6148,-3.04717 50.04191,-11.66427 1.6202,-0.79492 1.83623,0 1.83623,7.82218 0,8.21968 -0.21603,8.7496 -3.67698,12.19427 -9.50971,9.27951 -25.94131,14.18703 -48.20567,14.18703 -22.37236,0 -41.28828,-5.70243 -48.85375,-14.58453 -2.70034,-3.17966 -3.02438,-4.51002 -3.02438,-12.06176 0,-7.55719 0.21603,-8.35211 1.94425,-7.55719 0.97212,0.52992 4.86512,2.38475 8.54208,4.10708 z"
   id="path4-5" /><path
   style="fill:#0068aa;fill-opacity:1;stroke-width:0.04636023"
   inkscape:connector-curvature="0"
   d="m 567.97253,600.30847 c -14.98846,3.11969 -26.60391,9.36429 -33.85014,17.97986 -7.54384,8.86515 -7.14702,4.62234 -7.44464,76.547 -0.19841,42.07946 0.0992,66.30394 0.79366,69.42886 3.9724,18.97812 30.38498,31.86994 62.54158,32.7152 30.77807,0.80904 50.67581,-8.83509 62.34319,-32.21608 1.58726,-6.49419 1.68652,-127.24202 0.0992,-134.36015 -1.28968,-5.62065 -7.64302,-14.73539 -13.302,-18.97818 -6.05569,-4.37277 -17.57197,-9.11471 -27.7985,-11.11132 -10.82184,-2.25138 -32.86224,-2.25138 -43.38234,-0.005 z m 47.35057,20.48083 c 4.96447,1.49742 11.61547,4.49758 14.88927,6.86854 10.32579,7.11813 9.63135,13.23789 -2.28171,19.98167 -21.14348,11.86006 -54.70015,11.86006 -75.84358,-0.007 -11.91307,-6.74378 -12.60752,-12.86354 -2.28175,-19.98167 5.26212,-3.74887 17.17518,-7.99168 26.80238,-9.73869 7.64303,-1.37265 30.08027,0.24959 38.71539,2.87532 z m -57.08106,49.94631 c 23.82612,8.11643 55.59299,5.99507 75.24834,-4.86669 l 4.17077,-2.37096 v 8.11636 c 0,9.61393 -1.19048,11.61054 -10.32573,16.732 -10.52418,5.99499 -20.15139,8.11643 -37.32658,8.11643 -17.17512,0 -26.80232,-2.12144 -37.32652,-8.11643 -9.13115,-5.12146 -10.32576,-7.11807 -10.32576,-16.732 v -8.11636 l 4.27002,2.37096 c 2.28588,1.2479 7.54382,3.49403 11.61546,4.86669 z m -7.34544,37.46237 c 22.33806,10.23781 55.89058,10.23781 78.22863,0 4.36923,-1.99661 8.03988,-3.61886 8.23833,-3.61886 0.19839,0 0.29759,3.74887 0.0992,8.36603 l -0.29765,8.49079 -4.56763,3.86839 c -8.93685,7.49248 -24.22297,11.74047 -42.58864,11.74047 -18.3656,0 -33.65172,-4.24799 -42.58861,-11.74047 l -4.56764,-3.86839 -0.29762,-8.49079 c -0.19841,-4.62234 -0.0992,-8.36603 0.0992,-8.36603 0.20254,-0.007 3.87319,1.62225 8.24242,3.61886 z m 1.09127,40.83164 c 10.42501,4.87193 22.33807,7.11813 38.02097,7.11813 18.66326,0 30.87397,-2.87015 45.9617,-10.98652 1.48807,-0.74878 1.68653,0 1.68653,7.2429 0,7.86684 -0.0993,8.36596 -3.5756,11.98482 -8.13907,8.36596 -23.82619,12.9883 -44.07678,12.9883 -20.34972,0 -35.93763,-4.7471 -44.07669,-12.9883 -3.47637,-3.61886 -3.57558,-4.11798 -3.57558,-11.98482 0,-7.2429 0.19841,-7.99168 1.78572,-7.2429 0.90113,0.49912 4.47257,2.24614 7.84973,3.86839 z"
   id="path6-6"
   sodipodi:nodetypes="ccccscccccccccccccccscscscccccscccsccccccscscscscc" /><path
   style="fill:#0068aa;fill-opacity:1;stroke-width:0.0493222"
   inkscape:connector-curvature="0"
   d="m 733.47092,497.46638 c -23.3408,4.87192 -40.76432,17.85434 -43.98212,32.73486 -1.55488,7.30501 -1.55488,226.43451 0,233.73958 2.69948,12.71768 17.22056,25.02423 36.30695,30.84239 8.09417,2.43316 12.96621,2.97383 28.42453,2.97383 19.08639,0.13519 24.99933,-0.94623 37.86182,-6.22365 15.45833,-6.35884 25.62134,-16.77293 27.90188,-28.80911 1.65858,-8.3865 1.65858,-222.91437 0,-231.30086 -3.21779,-16.63774 -20.84866,-29.48498 -47.09197,-34.49209 -9.64898,-1.76854 -29.15009,-1.49817 -39.42109,0.53505 z m 44.60413,21.7744 c 14.62473,4.06088 26.4506,12.17137 26.4506,18.25984 0,3.64975 -6.32759,10.14378 -13.06979,13.38798 -23.44451,11.49544 -58.91786,10.27889 -78.52261,-2.83871 -11.10027,-7.30508 -10.4783,-14.61015 1.86588,-22.18552 15.35468,-9.32704 42.94556,-12.17138 63.27592,-6.62359 z m 24.79202,67.09177 c -2.69948,3.92006 -11.30756,8.92717 -20.64131,12.17136 -10.271,3.52014 -33.91847,5.00705 -44.81143,2.70346 -10.78926,-2.16278 -23.13345,-7.57538 -28.10913,-12.30656 -4.35807,-4.05518 -4.35807,-4.05518 -4.35807,-12.85286 0,-4.87193 0.2073,-8.79199 0.41466,-8.79199 0.2073,0 3.3171,1.48698 6.9495,3.2442 14.00277,6.7644 21.78159,8.25131 43.46386,8.11612 18.25713,-0.13518 21.15963,-0.40549 30.18672,-3.5145 5.49828,-2.02765 11.82588,-4.7368 14.00277,-6.22372 l 4.04704,-2.70345 0.31096,8.79198 c 0.20301,6.90515 -0.10794,9.47348 -1.45557,11.36596 z m -87.75258,29.22022 c 10.16729,4.8663 23.96276,7.57545 39.62405,7.57545 19.19009,0 32.67455,-3.37938 48.02488,-11.901 1.55493,-0.81105 1.76223,0 1.76223,7.71057 0,10.2789 -1.24392,12.44174 -10.37465,17.85435 -24.79202,14.74533 -70.12177,12.03618 -85.88676,-5.14231 -3.1141,-3.5145 -3.32145,-4.33117 -3.32145,-12.57685 0,-7.84576 0.20735,-8.65681 1.86588,-7.84576 0.93725,0.53505 4.77701,2.42752 8.30582,4.32555 z m 4.66467,45.58204 c 23.96276,9.06235 55.49704,7.71063 77.27863,-3.24413 l 7.46786,-3.78494 v 8.52161 c 0,7.98094 -0.2073,8.79198 -3.52874,12.57693 -3.83542,4.46073 -11.72223,8.6568 -22.2999,12.17137 -10.78931,3.5145 -38.38018,3.10901 -50.20606,-0.81105 -9.02274,-2.9739 -15.24669,-6.35891 -20.64132,-11.36032 -2.6952,-2.43315 -2.9025,-3.2442 -2.9025,-12.04182 v -9.46785 l 3.00616,2.16278 c 1.66286,1.08705 6.94955,3.52013 11.82587,5.27742 z m -4.25007,42.06752 c 21.88524,9.87342 55.60075,9.87342 78.0043,0 4.04705,-1.75728 8.19347,-3.65538 9.23003,-4.06087 1.65858,-0.94624 1.86588,-0.27037 1.55493,8.25131 l -0.31101,9.33266 -4.77266,4.19043 c -10.47831,9.0623 -27.59087,13.39354 -49.68776,12.31212 -20.22671,-0.94616 -34.95509,-6.08846 -42.21994,-14.88045 -1.96953,-2.29796 -2.38419,-4.19607 -2.38419,-11.49551 0,-7.71056 0.20735,-8.52161 1.86588,-7.71056 0.93725,0.54068 4.88066,2.30359 8.72042,4.06087 z m -0.51831,43.41926 c 10.89296,5.27742 23.34086,7.71056 39.72776,7.71056 19.5011,0 32.25994,-3.10901 48.02488,-11.90099 1.55493,-0.81105 1.76223,0 1.76223,7.98093 0,8.3865 -0.2073,8.92718 -3.52874,12.44175 -9.12645,9.46785 -24.89573,14.47496 -46.26266,14.47496 -21.47063,0 -39.62411,-5.81816 -46.88462,-14.88052 -2.59155,-3.2442 -2.9025,-4.60156 -2.9025,-12.30656 0,-7.71056 0.2073,-8.52161 1.86588,-7.71056 0.93291,0.54068 4.66902,2.43314 8.19777,4.19043 z"
   id="path4-5-3" /></svg>