<?xml version="1.0" encoding="utf-8"?>
<!-- Generator: Adobe Illustrator 19.1.0, SVG Export Plug-In . SVG Version: 6.00 Build 0)  -->
<!DOCTYPE svg PUBLIC "-//W3C//DTD SVG 1.1//EN" "http://www.w3.org/Graphics/SVG/1.1/DTD/svg11.dtd">
<svg version="1.1" id="Layer_1" xmlns="http://www.w3.org/2000/svg" xmlns:xlink="http://www.w3.org/1999/xlink" x="0px" y="0px"
	 viewBox="-169 292.9 256 256" style="enable-background:new -169 292.9 256 256;" xml:space="preserve">
<style type="text/css">
	.st0{fill:#0171B9;stroke:#015491;stroke-width:2;stroke-miterlimit:10;}
	.st1{fill:#FFFFFF;stroke:#015491;stroke-width:2;stroke-miterlimit:10;}
	.st2{fill:#015491;}
</style>
<g id="image">
</g>
<g id="Layer_2">
</g>
<g>
	<g id="Layer_3">
		<path class="st0" d="M34,353.7H9.8v-20.4H-6.5v20.4h-69.2v-20.4h-16.3v20.4H-116c-2.8,0-5,2.2-5,5v144.7c0,2.8,2.2,5,5,5H34
			c2.8,0,5-2.2,5-5V358.7C39,356,36.7,353.7,34,353.7z"/>
		<rect x="-100.5" y="395.5" class="st1" width="118.8" height="96.4"/>
	</g>
	<g>
		<path class="st2" d="M-58.3,423.6c5.3,0,10.8,2.7,12.1,8.3c0.6,2.5,0.4,5.5-0.9,7.8c-1.3,2.4-3.7,3.9-6.3,4.7
			c3.3,0.9,6.3,2.7,7.6,5.9c1.4,3.3,1,7.5-0.9,10.6c-3.8,6.5-13.4,8.1-19.9,4.9c-3.9-1.9-5.9-5.7-7.1-9.7l2.3-1
			c1.6-0.7,2.6,0,3.3,1.4c0.7,1.4,1.3,2.7,2.5,3.8c2.2,2.1,5.2,2.7,8.1,2.2c2.7-0.4,5.3-2.1,6.4-4.7c1.2-2.6,1.1-6.4-1-8.6
			c-2.3-2.3-6.1-2.6-9.2-2.6v-3.8c3.2,0,7.3-0.6,9.2-3.7c1.7-2.8,1.2-7.2-1.3-9.4c-2.6-2.2-6.8-2.2-9.7-0.6
			c-1.5,0.9-2.7,2.3-3.4,3.9c-0.7,1.7-0.8,3.2-3.1,2.9l-2.8-0.5c0.5-3.4,1.9-6.6,4.5-8.8C-65.1,424.5-61.7,423.6-58.3,423.6z"/>
		<path class="st2" d="M-34.1,462.7h9.1c0,0,0-30.8,0.1-31.8l-7.6,6.5c-0.7,0.6-1.9,0.6-2.5-0.2l-1.7-2.3l12.7-11h4.3v38.7h8.4v4.1
			h-22.8V462.7z"/>
	</g>
</g>
</svg>
