<?xml version="1.0" encoding="utf-8"?>
<!-- Generator: Adobe Illustrator 19.1.0, SVG Export Plug-In . SVG Version: 6.00 Build 0)  -->
<!DOCTYPE svg PUBLIC "-//W3C//DTD SVG 1.1//EN" "http://www.w3.org/Graphics/SVG/1.1/DTD/svg11.dtd">
<svg version="1.1" id="Layer_1" xmlns="http://www.w3.org/2000/svg" xmlns:xlink="http://www.w3.org/1999/xlink" x="0px" y="0px"
	 viewBox="-169 292.9 256 256" style="enable-background:new -169 292.9 256 256;" xml:space="preserve">
<style type="text/css">
	.st0{fill:#0171B9;}
	.st1{fill:#015491;}
</style>
<g id="image">
</g>
<g id="Layer_2">
</g>
<g>
	<rect x="-128" y="381.5" class="st0" width="10.5" height="77.5"/>
	<path class="st1" d="M-129,460h12.5v-79.5H-129V460z M-128,381.5h10.5V459H-128V381.5z"/>
	<rect x="35" y="381.5" class="st0" width="10.5" height="77.5"/>
	<path class="st1" d="M34,380.5V460h12.5v-79.5H34z M45.5,459H35v-77.5h10.5V459z"/>
	<polygon class="st0" points="7.8,415.4 5.2,415.4 -86.6,415.4 -89.2,415.4 -87.3,413.7 -63,392 -63,382.3 -105.3,420 -63,457.7 
		-63,448 -88.5,425.3 -90.4,423.6 -87.8,423.6 5.2,423.6 7.8,423.6 5.9,425.3 -19,447.4 -19,457.1 23.3,419.5 -19,381.9 -19,391.6 
		5.9,413.7 	"/>
	<path class="st1" d="M-20,392l25.2,22.4h-91.8l24.6-21.9v-12.4l-44.9,39.9L-62,460v-12.4l-25.8-23h93L-20,447v12.4l44.9-39.8
		L-20,379.7V392z M-19,381.9l42.4,37.6L-19,457.1v-9.7l26.9-23.8h-98.3L-63,448v9.7l-42.4-37.7l42.4-37.7v9.7l-26.3,23.4H7.8
		L-19,391.6V381.9z"/>
</g>
</svg>
