<?xml version="1.0" encoding="utf-8"?>
<svg width="60pt" height="60pt" viewBox="0 0 60 60" version="1.1" id="svg2" xmlns="http://www.w3.org/2000/svg">
  <path fill="#e0e0e0" d=" M 24.03 25.05 C 25.81 22.79 28.83 22.49 31.42 21.80 C 31.11 23.85 29.34 26.92 31.95 28.17 C 33.94 29.42 35.65 27.18 37.31 26.36 C 37.54 28.82 38.31 31.52 36.89 33.78 C 34.75 38.03 28.53 39.18 24.98 36.04 C 21.70 33.46 21.20 28.14 24.03 25.05 Z" id="path10" style="fill:#006db4;fill-opacity:1"/>
  <path d="M 12.492 30.07 C 17.627 25.21 22.139 17.797 29.979 17.619 C 37.9 17.663 42.43 25.184 47.574 30.079 C 42.413 34.911 37.9 42.378 30.015 42.449 C 22.183 42.289 17.627 34.92 12.492 30.07 Z" id="path-1" style="stroke: rgb(0, 109, 180); fill: none; stroke-width: 3; fill-opacity: 0;"/>
</svg>