<svg xmlns="http://www.w3.org/2000/svg" viewBox="0 0 256 256"><defs><style>.cls-1{fill:#006db4;}</style></defs><title>removeitem</title><g id="Layer_3" data-name="Layer 3"><g id="Layer_5" data-name="Layer 5"><path class="cls-1" d="M188.54,194.74V94.16h13.93V80.62h-7v-5.8a7.76,7.76,0,0,0-7.74-7.74H161.46V63.6A23.45,23.45,0,0,0,137.86,40H118.14a23.45,23.45,0,0,0-23.6,23.6v3.48H68.23a7.76,7.76,0,0,0-7.74,7.74v5.8h-7V94.16H67.85v101A20.8,20.8,0,0,0,88.73,216H168C179.26,216,188.54,206.34,188.54,194.74ZM108.08,64a9.58,9.58,0,0,1,9.67-9.67h20.12A9.58,9.58,0,0,1,147.54,64v3.09H108.08ZM175,93.77V195.9a6,6,0,0,1-5.8,5.8H86.41a6,6,0,0,1-5.8-5.8V93.77Z"/><rect class="cls-1" x="94.54" y="107.7" width="13.15" height="81.24"/><rect class="cls-1" x="121.62" y="107.7" width="13.15" height="81.24"/><rect class="cls-1" x="148.31" y="107.7" width="13.15" height="81.24"/></g></g></svg>