<?xml version="1.0" encoding="utf-8"?>
<!-- Generator: Adobe Illustrator 19.1.0, SVG Export Plug-In . SVG Version: 6.00 Build 0)  -->
<!DOCTYPE svg PUBLIC "-//W3C//DTD SVG 1.1//EN" "http://www.w3.org/Graphics/SVG/1.1/DTD/svg11.dtd">
<svg version="1.1" id="Layer_1" xmlns="http://www.w3.org/2000/svg" xmlns:xlink="http://www.w3.org/1999/xlink" x="0px" y="0px"
	 viewBox="-169 292.9 256 256" style="enable-background:new -169 292.9 256 256;" xml:space="preserve">
<style type="text/css">
	.st0{fill:#0171B9;stroke:#015491;stroke-width:2;stroke-miterlimit:10;}
	.st1{fill:#FFFFFF;stroke:#015491;stroke-width:2;stroke-miterlimit:10;}
	.st2{fill:#015491;}
</style>
<g id="image">
</g>
<g id="Layer_2">
</g>
<g>
	<g id="Layer_3">
		<path class="st0" d="M34.1,354.2H9.9v-20.4H-6.4v20.4h-69.2v-20.4h-16.3v20.4h-24.1c-2.8,0-5,2.2-5,5v144.7c0,2.8,2.2,5,5,5H34.1
			c2.8,0,5-2.2,5-5V359.2C39.1,356.5,36.8,354.2,34.1,354.2z"/>
		<rect x="-100.4" y="396" class="st1" width="118.8" height="96.4"/>
	</g>
	<g>
		<path class="st2" d="M-52.6,463.2h9.1v-29.1c0-0.8,0-1.7,0.1-2.7l-7.6,6.5c-0.3,0.2-0.5,0.4-0.8,0.4c-0.3,0-0.5,0.1-0.7,0
			c-0.2,0-0.4-0.1-0.6-0.2c-0.2-0.1-0.3-0.2-0.4-0.4l-1.7-2.3l12.7-11h4.3v38.7h8.4v4.1h-22.9V463.2z"/>
	</g>
</g>
</svg>
