<?xml version="1.0" encoding="utf-8"?>
<!-- Generator: Adobe Illustrator 19.1.0, SVG Export Plug-In . SVG Version: 6.00 Build 0)  -->
<!DOCTYPE svg PUBLIC "-//W3C//DTD SVG 1.1//EN" "http://www.w3.org/Graphics/SVG/1.1/DTD/svg11.dtd">
<svg version="1.1" id="Layer_1" xmlns="http://www.w3.org/2000/svg" xmlns:xlink="http://www.w3.org/1999/xlink" x="0px" y="0px"
	 viewBox="-267 390.9 60 60" style="enable-background:new -267 390.9 60 60;" xml:space="preserve">
<style type="text/css">
	.st0{fill:none;}
	.st1{fill:#FFFFFF;}
	.st2{fill:#006DB3;}
	.st3{fill:#006DB4;}
</style>
<g>
	<path class="st0" d="M-226.6,403.2c0,0.1,0.1,0.1,0.1,0.2v6.5h0.1v-6.4C-226.4,403.4-226.5,403.3-226.6,403.2z"/>
	<path class="st1" d="M-225.6,410h-0.8v-0.1h-0.1v-6.5c0-0.1,0-0.2-0.1-0.2c-0.1,0-0.1-0.1-0.2-0.1h-20.4v5.9c0,0.5-0.5,1-1.1,1
		h-5.9v28.1c0,0.2,0.2,0.4,0.4,0.4h27c0.2,0,0.4-0.4,0.4-0.4h-0.1v-1.6h0.9V410z"/>
	<path class="st2" d="M-226.5,438.1h0.1c0,0-0.2,0.4-0.4,0.4h-27c-0.2,0-0.4-0.2-0.4-0.4V410h5.9c0.6,0,1.1-0.5,1.1-1v-5.9h20.4
		c0.1,0,0.2,0,0.2,0.1c0.1,0.1,0.2,0.2,0.2,0.3v6.4v0.1h0.8h0.1h1.4v-6.5c0-1.3-1.2-2.4-2.7-2.4h-22.1l-7.7,7.5v29.6
		c0,1.3,1.2,2.4,2.7,2.4h27c1.5,0,2.7-1.1,2.7-2.4v-1.7h-1.4h-0.9V438.1z"/>
	<path class="st3" d="M-216.3,421h-6h-0.8h0v-6.8c0-0.6-0.2-1.1-0.6-1.5c-0.4-0.4-1-0.7-1.5-0.7c-1.2,0-2.2,1-2.2,2.2v6.8h-6.8
		c-1.2,0-2.2,1-2.2,2.2s1,2.2,2.2,2.2h6.8v6.8c0,1.2,1,2.2,2.2,2.2c0.6,0,1.1-0.2,1.5-0.7c0.4-0.4,0.6-1,0.6-1.5v-6.8h0h0.8h6
		c1.2,0,2.2-1,2.2-2.2C-214.1,422-215.1,421-216.3,421z"/>
</g>
</svg>
