<?xml version="1.0" encoding="utf-8"?>
<!-- Generator: Adobe Illustrator 19.1.0, SVG Export Plug-In . SVG Version: 6.00 Build 0)  -->
<!DOCTYPE svg PUBLIC "-//W3C//DTD SVG 1.1//EN" "http://www.w3.org/Graphics/SVG/1.1/DTD/svg11.dtd">
<svg version="1.1" id="Layer_1" xmlns="http://www.w3.org/2000/svg" xmlns:xlink="http://www.w3.org/1999/xlink" x="0px" y="0px"
	 viewBox="-267 390.9 60 60" style="enable-background:new -267 390.9 60 60;" xml:space="preserve">
<style type="text/css">
	.st0{fill:#006DB4;}
</style>
<g>
	<polygon class="st0" points="-263.9,411 -263.9,430.5 -253.8,420.9 	"/>
	<polygon class="st0" points="-234.1,430.5 -234.1,411.1 -244.3,420.9 	"/>
	<path class="st0" d="M-249,423.2L-249,423.2c0.2,0,0.5-0.1,0.6-0.2l0,0c0,0,0,0,0,0l0.6-0.6l13.5-13.2c0,0-0.1-0.1-0.1-0.1h-29.5
		c0,0-0.1,0-0.1,0l14.2,13.7C-249.5,423.1-249.3,423.2-249,423.2z"/>
	<path class="st0" d="M-247.5,424.1c-0.4,0.4-0.9,0.6-1.5,0.6s-1.1-0.2-1.5-0.6l-2.3-2.3l-11.1,10.6v0c0,0.1,0.1,0.2,0.2,0.2h29.5
		c0.1,0,0.2-0.1,0.2-0.2v0l-11.1-10.5L-247.5,424.1z"/>
	<polygon class="st0" points="-220.1,410.2 -220.1,415.4 -229.1,415.4 -229.1,425.9 -220.1,425.9 -220.1,431.1 -210.1,420.7 	"/>
</g>
</svg>
