<?xml version="1.0" encoding="UTF-8" standalone="no"?>
<!-- Generator: Adobe Illustrator 19.1.0, SVG Export Plug-In . SVG Version: 6.00 Build 0)  -->

<svg
   xmlns:dc="http://purl.org/dc/elements/1.1/"
   xmlns:cc="http://creativecommons.org/ns#"
   xmlns:rdf="http://www.w3.org/1999/02/22-rdf-syntax-ns#"
   xmlns:svg="http://www.w3.org/2000/svg"
   xmlns="http://www.w3.org/2000/svg"
   xmlns:sodipodi="http://sodipodi.sourceforge.net/DTD/sodipodi-0.dtd"
   xmlns:inkscape="http://www.inkscape.org/namespaces/inkscape"
   version="1.1"
   id="Layer_1"
   x="0px"
   y="0px"
   viewBox="-169 292.9 256 256"
   style="enable-background:new -169 292.9 256 256;"
   xml:space="preserve"
   sodipodi:docname="flatcreatetemplateButton.svg"
   inkscape:version="0.92.4 (5da689c313, 2019-01-14)"><metadata
   id="metadata22"><rdf:RDF><cc:Work
       rdf:about=""><dc:format>image/svg+xml</dc:format><dc:type
         rdf:resource="http://purl.org/dc/dcmitype/StillImage" /><dc:title></dc:title></cc:Work></rdf:RDF></metadata><defs
   id="defs20" /><sodipodi:namedview
   pagecolor="#ffffff"
   bordercolor="#666666"
   borderopacity="1"
   objecttolerance="10"
   gridtolerance="10"
   guidetolerance="10"
   inkscape:pageopacity="0"
   inkscape:pageshadow="2"
   inkscape:window-width="1920"
   inkscape:window-height="1017"
   id="namedview18"
   showgrid="false"
   inkscape:zoom="0.921875"
   inkscape:cx="128"
   inkscape:cy="128"
   inkscape:window-x="-8"
   inkscape:window-y="-8"
   inkscape:window-maximized="1"
   inkscape:current-layer="Layer_1" />
<style
   type="text/css"
   id="style2">
	.st0{fill:#0171B9;stroke:#015491;stroke-width:2;stroke-miterlimit:10;}
	.st1{fill:#FFFFFF;stroke:#015491;stroke-width:2;stroke-miterlimit:10;}
	.st2{fill:#015491;}
</style>
<g
   id="image">
</g>
<g
   id="Layer_2">
</g>

<g
   transform="matrix(0.37297399,0,0,0.36723164,-131.5985,333.84915)"
   id="g10"><g
     id="g8"><g
       id="g6"><path class="st2"
         inkscape:connector-curvature="0"
         d="m 476.164,405.416 c 0.179,-1.93 -0.183,-3.901 -1.132,-5.664 l -46.662,-86.65 c -1.743,-3.237 -5.122,-5.257 -8.798,-5.259 l -116.07,-0.077 V 221.078 C 325.169,203.462 357.2,165.064 357.2,117.72 357.199,53.909 303.911,0 240.835,0 c -30.022,0 -60.389,12.5 -83.314,34.296 -23.878,22.701 -37.028,52.328 -37.028,83.424 0,46.99 35.152,85.771 53.624,102.897 v 87.127 l -115.571,-0.24 c -0.007,0 -0.014,0 -0.021,0 -3.714,0 -7.124,2.06 -8.852,5.348 L 4.138,399.503 c -1.616,3.073 -1.515,6.762 0.253,9.746 -0.002,0.061 -0.009,0.119 -0.009,0.18 v 58.995 c 0,5.509 4.456,9.98 9.965,10 L 466.973,480 c 0.012,0 0.023,0 0.035,0 2.646,0 5.184,-1.049 7.059,-2.917 1.883,-1.876 2.941,-4.425 2.941,-7.083 v -60.571 c 0,-1.428 -0.304,-2.783 -0.844,-4.013 z M 140.493,117.72 c 0,-52.057 46.889,-97.72 100.342,-97.72 52.235,0 96.364,44.75 96.364,97.72 0,36.937 -25.731,72.765 -49.639,90.423 -2.552,1.886 -4.059,4.87 -4.059,8.044 V 333.03 c -0.456,1.418 -3.731,5.784 -11.135,10.521 -7.024,4.493 -13.923,6.845 -17.106,6.845 h -29.048 c -3.324,0 -10.881,-2.364 -18.893,-6.884 -8.501,-4.795 -12.435,-9.134 -13.202,-10.739 V 216.186 c 0,-2.861 -1.226,-5.586 -3.367,-7.483 -15.111,-13.393 -50.257,-49.07 -50.257,-90.983 z m -75.933,209.797 109.557,0.228 v 5.533 c 0,11.259 11.48,20.534 21.11,26.333 8.659,5.213 21.346,10.784 30.985,10.784 h 29.048 c 12.175,0 25.663,-8.469 29.507,-11.063 6.996,-4.725 18.734,-14.392 18.734,-26.054 v -5.512 l 110.089,0.073 35.887,66.642 -419.942,-0.314 z M 457.007,459.965 24.382,458.459 v -44.296 l 432.625,0.323 z"
         id="path2-4" /><path class="st2"
         inkscape:connector-curvature="0"
         d="m 197.248,88.777 c 6.002,-5.997 19.119,-12.496 29.08,-12.612 5.523,-0.064 9.947,-4.593 9.883,-10.115 -0.064,-5.522 -4.59,-9.99 -10.116,-9.883 -16.105,0.188 -34.166,9.652 -42.979,18.458 -9.309,9.291 -19.53,29.926 -19.812,47.063 -0.091,5.521 4.312,10.072 9.834,10.163 0.056,0.001 0.112,0.001 0.168,0.001 5.446,0 9.905,-4.37 9.995,-9.836 0.182,-11.061 7.645,-26.949 13.947,-33.239 z"
         id="path4" /></g></g></g></svg>