<?xml version="1.0" encoding="utf-8"?>
<!-- Generator: Adobe Illustrator 19.1.0, SVG Export Plug-In . SVG Version: 6.00 Build 0)  -->
<!DOCTYPE svg PUBLIC "-//W3C//DTD SVG 1.1//EN" "http://www.w3.org/Graphics/SVG/1.1/DTD/svg11.dtd">
<svg version="1.1" id="Layer_1" xmlns="http://www.w3.org/2000/svg" xmlns:xlink="http://www.w3.org/1999/xlink" x="0px" y="0px"
	 viewBox="-169 292.9 256 256" style="enable-background:new -169 292.9 256 256;" xml:space="preserve">
<style type="text/css">
	.st0{fill:#0171B9;}
	.st1{fill:#015491;}
</style>
<g>
	<rect x="-126.8" y="345.3" class="st0" width="171.5" height="16.2"/>
	<path class="st1" d="M46.8,363.4v-20.2h-175.5v20.2H46.8z M44.8,361.4h-171.5v-16.2H44.8V361.4z"/>
	<path class="st0" d="M-101.8,409.4l59,61.8c0.6,0.6,1.3,0.9,2.1,0.9s1.6-0.3,2.1-0.9l59-61.8c0,0,0.2-0.1,0.3-0.1h21.5l-82.9,86.8
		l-82.9-86.8h21.5C-101.9,409.3-101.8,409.4-101.8,409.4z"/>
	<path class="st1" d="M-127.2,407.3c-0.5,0-0.7,0.3-0.3,0.7l86.2,90.2c0.2,0.2,0.4,0.3,0.7,0.3s0.5-0.1,0.7-0.3L46.3,408
		c0.4-0.4,0.2-0.7-0.3-0.7H20.9c-0.5,0-1.3,0.3-1.7,0.7l-59,61.8c-0.2,0.2-0.4,0.3-0.7,0.3s-0.5-0.1-0.7-0.3l-59-61.8
		c-0.4-0.4-1.1-0.7-1.7-0.7H-127.2z M-123.4,409.3h21.5c0,0,0.2,0.1,0.3,0.1l59,61.8c0.6,0.6,1.3,0.9,2.1,0.9s1.6-0.3,2.1-0.9
		l59-61.8c0,0,0.2-0.1,0.3-0.1h21.5l-82.9,86.8L-123.4,409.3z"/>
</g>
<g id="image">
</g>
<g id="Layer_2">
</g>
</svg>
