<?xml version="1.0" encoding="utf-8"?>
<!-- Generator: Adobe Illustrator 20.0.0, SVG Export Plug-In . SVG Version: 6.00 Build 0)  -->
<svg version="1.1" id="Layer_1" xmlns="http://www.w3.org/2000/svg" xmlns:xlink="http://www.w3.org/1999/xlink" x="0px" y="0px"
	 viewBox="0 0 60 60" style="enable-background:new 0 0 60 60;" xml:space="preserve">
<style type="text/css">
	.st0{fill:#006DB4;}
</style>
<g>
	<g>
		<path class="st0" d="M16.5,26.7c1,0,2-0.6,2.4-1.6c1.9-4.1,6.2-7,11.1-7s9.2,2.9,11.1,7c0.4,1,1.3,1.6,2.4,1.6h0
			c1.8,0,3.1-1.9,2.4-3.6c-2.7-6.3-8.9-10.8-16.2-10.8s-13.6,4.5-16.2,10.8c-0.7,1.7,0.6,3.6,2.4,3.6H16.5z"/>
	</g>
	<g>
		<path class="st0" d="M43.6,33c-1.1,0-2,0.7-2.4,1.6c-1.9,4.2-6.2,7.2-11.2,7.2s-9.3-3-11.2-7.2c-0.4-1-1.3-1.6-2.4-1.6h-0.5
			c-1.8,0-3.1,1.9-2.4,3.6c2.6,6.4,8.9,11,16.3,11s13.7-4.5,16.3-11C46.7,34.8,45.5,33,43.6,33L43.6,33z"/>
	</g>
</g>
<path class="st0" d="M15.2,32.2l8.5,3.5c1,0.4,1.1,1.8,0.2,2.4L19.3,39c-0.8,0.2-1.5,0.7-1.9,1.4l-2,3.4c-0.9,0.6-2.1,0-2.1-1.1
	v-9.2C13.3,32.5,14.3,31.8,15.2,32.2z"/>
<path class="st0" d="M44.3,27.4l-8.5-3.5c-1-0.4-1.1-1.8-0.2-2.4l4.5-0.9c0.8-0.2,1.5-0.7,1.9-1.4l2-3.4c0.9-0.6,2.1,0,2.1,1.1v9.2
	C46.2,27.1,45.2,27.8,44.3,27.4z"/>
</svg>
