<?xml version="1.0" encoding="utf-8"?>
<!-- Generator: Adobe Illustrator 19.1.0, SVG Export Plug-In . SVG Version: 6.00 Build 0)  -->
<!DOCTYPE svg PUBLIC "-//W3C//DTD SVG 1.1//EN" "http://www.w3.org/Graphics/SVG/1.1/DTD/svg11.dtd">
<svg version="1.1" id="Layer_1" xmlns="http://www.w3.org/2000/svg" xmlns:xlink="http://www.w3.org/1999/xlink" x="0px" y="0px"
	 viewBox="-169 292.9 256 256" style="enable-background:new -169 292.9 256 256;" xml:space="preserve">
<style type="text/css">
	.st0{fill:#0171B9;}
	.st1{fill:#015491;}
</style>
<g id="image">
</g>
<g id="Layer_2">
</g>
<g>
	<rect x="-126.5" y="476.9" class="st0" width="171.5" height="16.2"/>
	<path class="st1" d="M-128.5,474.9V495H47v-20.2H-128.5z M45,493h-171.5v-16.2H45V493z"/>
	<path class="st0" d="M-101.5,428.9l59-61.8c0.6-0.6,1.3-0.9,2.1-0.9c0.8,0,1.6,0.3,2.1,0.9l59,61.8c0,0,0.2,0.1,0.3,0.1l21.5,0
		l-82.9-86.8l-82.9,86.8h21.5C-101.7,429-101.5,429-101.5,428.9z"/>
	<path class="st1" d="M-101.7,431.1c0.6,0,1.3-0.3,1.7-0.7l59-61.8c0.2-0.2,0.4-0.3,0.7-0.3c0.3,0,0.5,0.1,0.7,0.3l59,61.8
		c0.4,0.4,1.1,0.7,1.7,0.7h25.2c0.5,0,0.7-0.3,0.3-0.7l-86.2-90.2c-0.2-0.2-0.4-0.3-0.7-0.3s-0.5,0.1-0.7,0.3l-86.2,90.2
		c-0.4,0.4-0.2,0.7,0.3,0.7H-101.7z M-40.3,342.3l82.9,86.8l-21.5,0c-0.1,0-0.3-0.1-0.3-0.1l-59-61.8c-0.6-0.6-1.3-0.9-2.1-0.9
		c-0.8,0-1.6,0.3-2.1,0.9l-59,61.8c-0.1,0.1-0.2,0.1-0.3,0.1h-21.5L-40.3,342.3z"/>
</g>
</svg>
