<?xml version="1.0" encoding="utf-8"?>
<!-- Generator: Adobe Illustrator 17.0.0, SVG Export Plug-In . SVG Version: 6.00 Build 0)  -->
<!DOCTYPE svg PUBLIC "-//W3C//DTD SVG 1.1//EN" "http://www.w3.org/Graphics/SVG/1.1/DTD/svg11.dtd">
<svg version="1.1" xmlns="http://www.w3.org/2000/svg" xmlns:xlink="http://www.w3.org/1999/xlink" x="0px" y="0px" width="256px"
	 height="256px" viewBox="0 0 256 256" enable-background="new 0 0 256 256" xml:space="preserve">
<g id="Layer_2">
	<radialGradient id="SVGID_1_" cx="128.0087" cy="109.2316" r="83.3453" gradientUnits="userSpaceOnUse">
		<stop  offset="0" style="stop-color:#0F8DD3"/>
		<stop  offset="1" style="stop-color:#0C4F75"/>
	</radialGradient>
	<path fill="url(#SVGID_1_)" stroke="#015491" stroke-width="2" stroke-miterlimit="10" d="M113.355,126.324V54.252
		c0,0,1.088-13.389,14.645-13.389s13.473,13.473,13.473,13.473v71.988l29.71-28.487c0,0,6.979-4.985,16.522,4.558
		c9.543,9.543,2.849,16.807,2.849,16.807l-55.131,54.283c0,0-3.642,4.115-7.767,4.115c-5.468,0-8.889-3.703-8.889-3.703
		l-54.98-56.689c0,0-3.134-9.401,4.843-15.953c7.976-6.552,17.662-1.424,17.662-1.424L113.355,126.324z"/>
</g>
<g id="Layer_3">
	<radialGradient id="SVGID_2_" cx="128.1773" cy="189.8646" r="101.3712" gradientUnits="userSpaceOnUse">
		<stop  offset="0" style="stop-color:#0F8DD3"/>
		<stop  offset="1" style="stop-color:#0C4F75"/>
	</radialGradient>
	<path fill="url(#SVGID_2_)" stroke="#015491" stroke-width="2" stroke-miterlimit="10" d="M50.563,172.5c0,0-0.438-7.688,7-7.688
		s6.875,6.75,6.875,7.375s0,16.896,0,16.896s-0.75,11.167,12.75,11.167c7.833,0,104.812-0.125,104.812-0.125
		s9.458-1.875,9.458-13.375c0-7.042,0-15.688,0-15.688s0.448-6.25,7.417-6.25s6.922,6.031,6.922,6.922s0,23.359,0,23.359
		s-0.047,19.823-27.88,19.823s-101.167,0-101.167,0S50.558,213.5,50.558,195.5S50.563,172.5,50.563,172.5z"/>
</g>
</svg>
