<?xml version="1.0" encoding="utf-8"?>
<!-- Generator: Adobe Illustrator 19.1.0, SVG Export Plug-In . SVG Version: 6.00 Build 0)  -->
<!DOCTYPE svg PUBLIC "-//W3C//DTD SVG 1.1//EN" "http://www.w3.org/Graphics/SVG/1.1/DTD/svg11.dtd">
<svg version="1.1" id="Layer_1" xmlns="http://www.w3.org/2000/svg" xmlns:xlink="http://www.w3.org/1999/xlink" x="0px" y="0px"
	 viewBox="-169 292.9 256 256" style="enable-background:new -169 292.9 256 256;" xml:space="preserve">
<style type="text/css">
	.st0{fill:#0171B9;}
	.st1{fill:#015491;}
</style>
<g id="image">
</g>
<g id="Layer_2">
</g>
<g>
	<polygon class="st0" points="4.1,390.5 -7,380.2 -124,380.2 -114,390.5 	"/>
	<path class="st1" d="M-6.2,378.2h-122.4l13.9,14.3h124L-6.2,378.2z M-7,380.2l11.1,10.3H-114l-10-10.3H-7z"/>
	<polygon class="st0" points="23.5,426.7 12.4,416.5 -104.5,416.5 -94.6,426.7 	"/>
	<path class="st1" d="M13.2,414.5h-122.4l13.9,14.3h124L13.2,414.5z M12.4,416.5l11.1,10.3H-94.6l-10-10.3H12.4z"/>
	<polygon class="st0" points="42.2,461.6 31.2,451.3 -83.9,451.3 -74.1,461.6 	"/>
	<path class="st1" d="M32,449.3H-88.6l13.7,14.3H47.2L32,449.3z M31.2,451.3l11,10.3H-74.1l-9.8-10.3H31.2z"/>
</g>
</svg>
