<?xml version="1.0" encoding="utf-8"?>
<!-- Generator: Adobe Illustrator 19.1.0, SVG Export Plug-In . SVG Version: 6.00 Build 0)  -->
<!DOCTYPE svg PUBLIC "-//W3C//DTD SVG 1.1//EN" "http://www.w3.org/Graphics/SVG/1.1/DTD/svg11.dtd">
<svg version="1.1" id="Layer_1" xmlns="http://www.w3.org/2000/svg" xmlns:xlink="http://www.w3.org/1999/xlink" x="0px" y="0px"
	 viewBox="-169 292.9 256 256" style="enable-background:new -169 292.9 256 256;" xml:space="preserve">
<style type="text/css">
	.st0{fill:#0171B9;}
	.st1{fill:#015491;}
</style>
<g id="image">
</g>
<g id="Layer_2">
</g>
<g>
	<path class="st0" d="M42,403.6h-166c-1.7,0-3,1.3-3,3v28.6c0,1.7,1.3,3,3,3H42c1.7,0,3-1.3,3-3v-28.6C45,404.9,43.7,403.6,42,403.6
		z"/>
	<path class="st1" d="M42,401.6h-166c-2.8,0-5,2.2-5,5v28.6c0,2.8,2.2,5,5,5H42c2.8,0,5-2.2,5-5v-28.6C47,403.8,44.8,401.6,42,401.6
		z M45,435.2c0,1.7-1.3,3-3,3h-166c-1.7,0-3-1.3-3-3v-28.6c0-1.7,1.3-3,3-3H42c1.7,0,3,1.3,3,3V435.2z"/>
</g>
</svg>
