<?xml version="1.0" encoding="utf-8"?>
<!-- Generator: Adobe Illustrator 20.0.0, SVG Export Plug-In . SVG Version: 6.00 Build 0)  -->
<svg version="1.1" id="Layer_1" xmlns="http://www.w3.org/2000/svg" xmlns:xlink="http://www.w3.org/1999/xlink" x="0px" y="0px"
	 viewBox="0 0 60 60" style="enable-background:new 0 0 60 60;" xml:space="preserve">
<style type="text/css">
	.st0{fill:#006DB4;}
</style>
<path class="st0" d="M46.1,31.7L46.1,31.7c-1.3,1.3-3.4,1.3-4.7,0L27.5,17.8c-1.3-1.3-1.3-3.4,0-4.7l0,0c1.3-1.3,3.4-1.3,4.7,0
	L46.1,27C47.4,28.3,47.4,30.4,46.1,31.7z"/>
<path class="st0" d="M13.6,31.7L13.6,31.7c1.3,1.3,3.4,1.3,4.7,0l13.9-13.9c1.3-1.3,1.3-3.4,0-4.7l0,0c-1.3-1.3-3.4-1.3-4.7,0
	L13.6,27C12.3,28.3,12.3,30.4,13.6,31.7z"/>
<path class="st0" d="M30,47.9L30,47.9c-1.8,0-3.3-1.5-3.3-3.3V15.4c0-1.8,1.5-3.3,3.3-3.3h0c1.8,0,3.3,1.5,3.3,3.3v29.1
	C33.3,46.4,31.8,47.9,30,47.9z"/>
</svg>
