<?xml version="1.0" encoding="utf-8"?>
<!-- Generator: Adobe Illustrator 19.1.0, SVG Export Plug-In . SVG Version: 6.00 Build 0)  -->
<!DOCTYPE svg PUBLIC "-//W3C//DTD SVG 1.1//EN" "http://www.w3.org/Graphics/SVG/1.1/DTD/svg11.dtd">
<svg version="1.1" id="Layer_1" xmlns="http://www.w3.org/2000/svg" xmlns:xlink="http://www.w3.org/1999/xlink" x="0px" y="0px"
	 viewBox="-267 390.9 60 60" style="enable-background:new -267 390.9 60 60;" xml:space="preserve">
<style type="text/css">
	.st0{fill:#FFFFFF;}
	.st1{fill:#006DB3;}
</style>
<g>
	<path class="st0" d="M-224.5,433.7L-224.5,433.7L-224.5,433.7z"/>
	<path class="st0" d="M-234.1,421.2c-4,3.5-1.8,11,3.8,11c2.9,0,5.3-2.3,5.8-5.1C-223.6,421.7-229.8,417.3-234.1,421.2z
		 M-230.3,428.9c-1.6,0-3-1.3-3-3s1.3-3,3-3s3,1.3,3,3S-228.7,428.9-230.3,428.9z"/>
	<path class="st0" d="M-223.8,421c0.3,0.5,0.5,1,0.7,1.5c0.8,2.2,0.8,4.7,0,7c-0.2,0.5-0.4,1-0.7,1.5c1.9-1.1,3.5-2.6,4.8-4.5
		c0.2-0.3,0.2-0.7,0-1C-220.3,423.6-221.9,422.1-223.8,421z"/>
	<path class="st0" d="M-234.1,434.4c-1.2-0.3-2.4-0.8-3.5-1.4s-2.1-1.4-3.1-2.2c-0.9-0.9-1.8-1.8-2.5-2.9c-0.8-1.1-0.8-2.7,0-3.7
		c0.7-1.1,1.6-2.1,2.5-2.9c0.9-0.9,2-1.6,3.1-2.2s2.3-1.1,3.5-1.4c2.5-0.7,5.1-0.7,7.5,0c0.2,0,0.3,0.1,0.5,0.1l0,0V416h-0.9v-12.5
		c0-0.2-0.2-0.4-0.4-0.4h-20.4v5.9c0,0.6-0.5,1-1.1,1h-5.9v28.1c0,0.2,0.2,0.4,0.4,0.4h27c0.2,0,0.4-0.2,0.4-0.4v-2.5h0.9v-1.5
		c-0.2,0-0.3,0.1-0.5,0.1C-229,435.1-231.6,435.1-234.1,434.4z"/>
	<path class="st0" d="M-224.6,418.2C-224.5,418.2-224.5,418.2-224.6,418.2C-224.5,418.2-224.5,418.2-224.6,418.2z"/>
	<path class="st0" d="M-236.8,421c-1.9,1.1-3.5,2.6-4.8,4.5c-0.2,0.3-0.2,0.7,0,1c1.3,1.9,2.9,3.4,4.8,4.5c-0.3-0.5-0.5-1-0.7-1.5
		c-0.8-2.2-0.8-4.7,0-7C-237.3,421.9-237.1,421.5-236.8,421z"/>
	<path class="st1" d="M-226.9,438.2c0,0.2-0.2,0.4-0.4,0.4h-27c-0.2,0-0.4-0.2-0.4-0.4v-28.1h5.9c0.6,0,1.1-0.5,1.1-1v-5.9h20.4
		c0.2,0,0.4,0.2,0.4,0.4V416h0.9h1.4v-12.5c0-1.3-1.2-2.4-2.7-2.4h-22.1l-7.7,7.5v29.6c0,1.3,1.2,2.4,2.7,2.4h27
		c1.5,0,2.7-1.1,2.7-2.4v-2.5h-1.4h-0.9v2.5H-226.9z"/>
	<circle class="st1" cx="-230.3" cy="425.9" r="3"/>
	<path class="st1" d="M-217.5,424.1c-0.7-1.1-1.6-2.1-2.5-2.9c-0.9-0.9-2-1.6-3.1-2.2c-0.5-0.3-0.9-0.5-1.4-0.7h-0.1
		c-0.5-0.2-1-0.4-1.5-0.5c-0.2,0-0.3-0.1-0.5-0.1c-2.5-0.7-5.1-0.7-7.5,0c-1.2,0.3-2.4,0.8-3.5,1.4s-2.1,1.4-3.1,2.2
		c-0.9,0.9-1.8,1.8-2.5,2.9c-0.8,1.1-0.8,2.7,0,3.7c0.7,1.1,1.6,2.1,2.5,2.9c0.9,0.9,2,1.6,3.1,2.2s2.3,1.1,3.5,1.4
		c2.5,0.7,5.1,0.7,7.5,0c0.2,0,0.3-0.1,0.5-0.1c0.5-0.2,1-0.3,1.5-0.5h0.1c0.5-0.2,1-0.4,1.4-0.7c1.1-0.6,2.1-1.4,3.1-2.2
		c0.9-0.9,1.8-1.8,2.5-2.9C-216.7,426.7-216.7,425.2-217.5,424.1z M-237.5,429.4c0.2,0.5,0.4,1,0.7,1.5c-1.9-1.1-3.5-2.6-4.8-4.5
		c-0.2-0.3-0.2-0.7,0-1c1.3-1.9,2.9-3.4,4.8-4.5c-0.3,0.5-0.5,1-0.7,1.5C-238.4,424.7-238.4,427.2-237.5,429.4z M-230.3,432.1
		c-5.6,0-7.8-7.4-3.8-11c4.3-3.8,10.5,0.6,9.6,5.9C-225,429.9-227.4,432.1-230.3,432.1z M-219,426.4c-1.3,1.9-2.9,3.4-4.8,4.5
		c0.3-0.5,0.5-1,0.7-1.5c0.8-2.2,0.8-4.7,0-7c-0.2-0.5-0.4-1-0.7-1.5c1.9,1.1,3.5,2.6,4.8,4.5C-218.8,425.7-218.8,426.2-219,426.4z"
		/>
</g>
</svg>
