<?xml version="1.0" encoding="utf-8"?>
<!-- Generator: Adobe Illustrator 19.1.0, SVG Export Plug-In . SVG Version: 6.00 Build 0)  -->
<!DOCTYPE svg PUBLIC "-//W3C//DTD SVG 1.1//EN" "http://www.w3.org/Graphics/SVG/1.1/DTD/svg11.dtd">
<svg version="1.1" id="Layer_1" xmlns="http://www.w3.org/2000/svg" xmlns:xlink="http://www.w3.org/1999/xlink" x="0px" y="0px"
	 viewBox="-169 292.9 256 256" style="enable-background:new -169 292.9 256 256;" xml:space="preserve">
<style type="text/css">
	.st0{fill:#0171B9;}
	.st1{fill:#015491;}
</style>
<g id="image">
</g>
<g id="Layer_2">
</g>
<g>
	<path class="st0" d="M7.9,384.2h-97.8c-20.3,0-36.7,16.5-36.7,36.7s16.5,36.7,36.7,36.7H7.9c20.3,0,36.7-16.5,36.7-36.7
		S28.1,384.2,7.9,384.2z"/>
	<path class="st1" d="M7.9,382.2h-97.8c-21.4,0-38.7,17.4-38.7,38.7s17.4,38.7,38.7,38.7H7.9c21.4,0,38.7-17.4,38.7-38.7
		S29.2,382.2,7.9,382.2z M7.9,457.7h-97.8c-20.3,0-36.7-16.5-36.7-36.7s16.5-36.7,36.7-36.7H7.9c20.3,0,36.7,16.5,36.7,36.7
		S28.1,457.7,7.9,457.7z"/>
</g>
</svg>
