<?xml version="1.0" encoding="utf-8"?>
<!-- Generator: Adobe Illustrator 19.1.0, SVG Export Plug-In . SVG Version: 6.00 Build 0)  -->
<!DOCTYPE svg PUBLIC "-//W3C//DTD SVG 1.1//EN" "http://www.w3.org/Graphics/SVG/1.1/DTD/svg11.dtd">
<svg version="1.1" id="Layer_1" xmlns="http://www.w3.org/2000/svg" xmlns:xlink="http://www.w3.org/1999/xlink" x="0px" y="0px"
	 viewBox="-169 292.9 256 256" style="enable-background:new -169 292.9 256 256;" xml:space="preserve">
<style type="text/css">
	.st0{fill:#0171B9;stroke:#015491;stroke-width:2;stroke-miterlimit:10;}
	.st1{fill:#FFFFFF;stroke:#015491;stroke-width:2;stroke-miterlimit:10;}
	.st2{fill:#015491;}
</style>
<g id="image">
</g>
<g id="Layer_2">
</g>
<g>
	<path class="st0" d="M34.1,354.2H9.9v-20.4H-6.4v20.4h-69.2v-20.4h-16.3v20.4h-24.1c-2.8,0-5,2.2-5,5v144.7c0,2.8,2.2,5,5,5H34.1
		c2.8,0,5-2.2,5-5V359.2C39.1,356.5,36.8,354.2,34.1,354.2z"/>
	<rect x="-100.4" y="396" class="st1" width="118.8" height="96.4"/>
	<g>
		<path class="st2" d="M-75.2,424.1c5.3,0,10.8,2.7,12.1,8.3c0.6,2.5,0.4,5.5-0.9,7.8c-1.3,2.4-3.7,3.9-6.3,4.7
			c3.3,0.9,6.3,2.7,7.6,5.9c1.4,3.3,1,7.5-0.9,10.6c-3.8,6.5-13.4,8.1-19.9,4.9c-3.9-1.9-5.9-5.7-7.1-9.7l2.3-1
			c1.6-0.7,2.6,0,3.3,1.4c0.7,1.4,1.3,2.7,2.5,3.8c2.2,2.1,5.2,2.7,8.1,2.2c2.7-0.4,5.3-2.1,6.4-4.7c1.2-2.6,1.1-6.4-1-8.6
			c-2.3-2.3-6.1-2.6-9.2-2.6v-3.8c3.2,0,7.3-0.6,9.2-3.7c1.7-2.8,1.2-7.2-1.3-9.4c-2.6-2.2-6.8-2.2-9.7-0.6
			c-1.5,0.9-2.7,2.3-3.4,3.9c-0.7,1.7-0.8,3.2-3.1,2.9l-2.8-0.5c0.5-3.4,1.9-6.6,4.5-8.8C-82,425-78.6,424.1-75.2,424.1z"/>
		<path class="st2" d="M-44.3,440.5c-0.7,0.9-1.4,1.8-2.1,2.7c4.7-3.2,11.7-2.9,16,0.9c4.3,3.8,5.1,10.7,2.6,15.7
			c-2.5,5.3-8.1,8-13.8,7.8c-5.8-0.2-10.8-3.4-12.7-9c-2.2-6.6,0.3-13,4.3-18.3l10.8-14.6c0.7-0.9,1.8-1.3,2.8-1.3h4.7L-44.3,440.5z
			 M-50.1,454.1c0,3.9,1.9,7.5,5.7,8.8c3.5,1.1,7.9,0.3,10.4-2.5c2.6-2.9,3-7.5,1.2-10.8c-1.8-3.5-6-4.9-9.7-4.3
			C-46.9,445.9-50.1,449.6-50.1,454.1z"/>
		<path class="st2" d="M5.3,426.9c0,1.8-1.4,2.6-3.1,2.6h-13.4l-2,11.2c4.1-0.9,8.7-1.2,12.7,0.5c3.8,1.7,6.3,5.1,6.9,9.2
			c0.7,4.2-0.3,8.6-3,11.9c-2.5,3.2-6.4,5-10.4,5.3c-4.9,0.5-10-1.1-13.7-4.4l1.6-2.3c1-1.4,2.4-0.5,3.6,0.2
			c1.4,0.8,2.8,1.5,4.3,1.8c3.1,0.7,6.6,0.2,9-1.9c4.8-4,4.6-13.4-1.6-15.9c-3.5-1.4-7.8-0.8-11.3,0.4l-3.3-1l3.4-20H5.3V426.9z"/>
	</g>
</g>
</svg>
