<?xml version="1.0" encoding="utf-8"?>
<!-- Generator: Adobe Illustrator 19.1.0, SVG Export Plug-In . SVG Version: 6.00 Build 0)  -->
<!DOCTYPE svg PUBLIC "-//W3C//DTD SVG 1.1//EN" "http://www.w3.org/Graphics/SVG/1.1/DTD/svg11.dtd">
<svg version="1.1" id="Layer_1" xmlns="http://www.w3.org/2000/svg" xmlns:xlink="http://www.w3.org/1999/xlink" x="0px" y="0px"
	 viewBox="-267 390.9 60 60" style="enable-background:new -267 390.9 60 60;" xml:space="preserve">
<style type="text/css">
	.st0{fill:#FFFFFF;}
	.st1{fill:#010101;}
</style>
<g>
	<path d="M-226.5,404.3h-20.9c-9.2,0-16.6,7.4-16.6,16.6v0c0,9.2,7.4,16.6,16.6,16.6h20.9c9.2,0,16.6-7.4,16.6-16.6v0
		C-209.9,411.7-217.4,404.3-226.5,404.3z M-216,420.9c0,5.8-3.8,10.6-10.9,10.6h-20.3c-7.1,0-10.9-4.7-10.9-10.6v0
		c0-5.8,3.8-10.6,10.9-10.6h20.3C-219.8,410.3-216,415.1-216,420.9L-216,420.9z"/>
	<path class="st0" d="M-226.9,410.3h-20.3c-7.1,0-10.9,4.7-10.9,10.6v0c0,5.8,3.8,10.6,10.9,10.6h20.3c7.1,0,10.9-4.7,10.9-10.6v0
		C-216,415.1-219.8,410.3-226.9,410.3z M-249.7,426.1c-4.1-2-4-8.5,0-10.5c3.6-2.2,8.8,0.5,9,4.7C-240,425-245.7,428.6-249.7,426.1z
		"/>
	<path class="st1" d="M-249.7,415.6c-4,2-4,8.5,0,10.5c3.9,2.5,9.6-1.2,8.9-5.8C-240.9,416.1-246.1,413.4-249.7,415.6z"/>
</g>
</svg>
