<?xml version="1.0" encoding="UTF-8" standalone="no"?>
<!-- Generator: Adobe Illustrator 19.1.0, SVG Export Plug-In . SVG Version: 6.00 Build 0)  -->

<svg
   xmlns:dc="http://purl.org/dc/elements/1.1/"
   xmlns:cc="http://creativecommons.org/ns#"
   xmlns:rdf="http://www.w3.org/1999/02/22-rdf-syntax-ns#"
   xmlns:svg="http://www.w3.org/2000/svg"
   xmlns="http://www.w3.org/2000/svg"
   xmlns:sodipodi="http://sodipodi.sourceforge.net/DTD/sodipodi-0.dtd"
   xmlns:inkscape="http://www.inkscape.org/namespaces/inkscape"
   version="1.1"
   id="Layer_1"
   x="0px"
   y="0px"
   viewBox="-169 292.9 256 256"
   style="enable-background:new -169 292.9 256 256;"
   xml:space="preserve"
   sodipodi:docname="flatcopytemplateButton.svg"
   inkscape:version="0.92.4 (5da689c313, 2019-01-14)"><metadata
   id="metadata22"><rdf:RDF><cc:Work
       rdf:about=""><dc:format>image/svg+xml</dc:format><dc:type
         rdf:resource="http://purl.org/dc/dcmitype/StillImage" /><dc:title></dc:title></cc:Work></rdf:RDF></metadata><defs
   id="defs20" /><sodipodi:namedview
   pagecolor="#ffffff"
   bordercolor="#666666"
   borderopacity="1"
   objecttolerance="10"
   gridtolerance="10"
   guidetolerance="10"
   inkscape:pageopacity="0"
   inkscape:pageshadow="2"
   inkscape:window-width="1920"
   inkscape:window-height="1017"
   id="namedview18"
   showgrid="false"
   inkscape:zoom="0.921875"
   inkscape:cx="128"
   inkscape:cy="128"
   inkscape:window-x="-8"
   inkscape:window-y="-8"
   inkscape:window-maximized="1"
   inkscape:current-layer="Layer_1" />
<style
   type="text/css"
   id="style2">
	.st0{fill:#0171B9;stroke:#015491;stroke-width:2;stroke-miterlimit:10;}
	.st1{fill:#FFFFFF;stroke:#015491;stroke-width:2;stroke-miterlimit:10;}
	.st2{fill:#015491;}
</style>
<g
   id="image">
</g>
<g
   id="Layer_2">
</g>

<g
   id="g4"
   transform="matrix(0.45585973,0,0,0.40284221,-141.11266,331.4993)"><path class="st2"
     d="m 395.264,60.6 h -81.71 V 21.184 C 313.554,9.504 304.049,0 292.37,0 H 50.265 C 38.583,0 29.081,9.504 29.081,21.184 v 342.564 c 0,11.68 9.502,21.185 21.185,21.185 h 81.71 v 39.413 c 0,11.68 9.502,21.184 21.185,21.184 h 242.104 c 11.68,0 21.185,-9.504 21.185,-21.184 V 81.784 C 416.449,70.102 406.944,60.6 395.264,60.6 Z M 50.265,366.774 c -1.664,0 -3.026,-1.359 -3.026,-3.026 V 21.184 c 0,-1.669 1.362,-3.026 3.026,-3.026 H 292.37 c 1.667,0 3.026,1.357 3.026,3.026 V 60.6 363.748 c 0,1.667 -1.359,3.026 -3.026,3.026 z m 348.026,57.56 c 0,1.678 -1.359,3.025 -3.026,3.025 H 153.16 c -1.664,0 -3.026,-1.348 -3.026,-3.025 v -38.16 H 292.37 c 11.68,0 21.185,-9.505 21.185,-21.185 v -1.253 -5.172 h 43.367 c 5.013,0 9.079,-4.061 9.079,-9.079 0,-5.018 -4.066,-9.079 -9.079,-9.079 h -43.367 v -44.384 h 43.367 c 5.013,0 9.079,-4.061 9.079,-9.079 0,-5.018 -4.066,-9.078 -9.079,-9.078 H 313.555 V 232.47 h 43.367 c 5.013,0 9.079,-4.061 9.079,-9.079 0,-5.018 -4.066,-9.079 -9.079,-9.079 h -43.367 v -43.604 h 42.8289 c 5.013,0 9.079,-4.061 9.079,-9.079 0,-5.019 -4.066,-9.079 -9.079,-9.079 H 313.555 V 78.758 h 81.71 c 1.667,0 3.026,1.356 3.026,3.026 z M 70.929,90.789 c 0,-5.019 4.066,-9.079 9.079,-9.079 h 178.0209 c 5.013,0 9.079,4.061 9.079,9.079 0,5.018 -4.066,9.079 -9.079,9.079 H 80.008 c -5.012,0 -9.079,-4.061 -9.079,-9.079 z m 86.55752,61.762 c 0,5.018 -4.066,9.079 -9.079,9.079 H 80.008 c -5.012,0 -9.079,-4.061 -9.079,-9.079 0,-5.019 4.066,-9.079 9.079,-9.079 h 68.39952 c 5.013,0 9.079,4.06 9.079,9.079 z m 46.11285,63.552 c 0,5.018 -4.066,9.079 -9.079,9.079 H 151.7391 c -5.012,0 -9.079,-4.061 -9.079,-9.079 0,-5.018 4.066,-9.079 9.079,-9.079 h 42.78127 c 5.013,0 9.079,4.061 9.079,9.079 z m 64.04563,62.542 c 0,5.019 -4.066,9.079 -9.079,9.079 h -63.27587 c -5.012,0 -9.079,-4.061 -9.079,-9.079 0,-5.018 4.066,-9.078 9.079,-9.078 H 258.566 c 5.013,-0.001 9.079,4.066 9.079,9.078 z"
     id="path2"
     inkscape:connector-curvature="0"
     sodipodi:nodetypes="scsssssscsssscssssssscssssssscssccsssccsssccsssccsssccssssssssssssssssssssssssssssscs" /></g><path class="st1"
  
   d="m -73.29787,398.49998 0.77947,15.07615"
   id="path67-1"
   inkscape:connector-curvature="0"
   sodipodi:nodetypes="cc" /><path class="st1"
   d="M -53.27948,423.22388 -52.5,438.3"
   id="path67-1-0"
   inkscape:connector-curvature="0"
   sodipodi:nodetypes="cc" /></svg>