<?xml version="1.0" encoding="utf-8"?>
<!-- Generator: Adobe Illustrator 19.1.0, SVG Export Plug-In . SVG Version: 6.00 Build 0)  -->
<!DOCTYPE svg PUBLIC "-//W3C//DTD SVG 1.1//EN" "http://www.w3.org/Graphics/SVG/1.1/DTD/svg11.dtd">
<svg version="1.1" id="Layer_1" xmlns="http://www.w3.org/2000/svg" xmlns:xlink="http://www.w3.org/1999/xlink" x="0px" y="0px"
	 viewBox="-169 292.9 256 256" style="enable-background:new -169 292.9 256 256;" xml:space="preserve">
<style type="text/css">
	.st0{fill:#0171B9;}
	.st1{fill:#015491;}
</style>
<g id="image">
</g>
<g id="Layer_2">
</g>
<g>
	<path class="st0" d="M42.4,420.9c0-1.1-0.4-2.1-1.2-2.8l-79.4-79.4c-0.8-0.8-1.8-1.2-2.8-1.2s-2.1,0.4-2.8,1.2l-79.4,79.4
		c-0.8,0.8-1.2,1.8-1.2,2.8s0.4,2.1,1.2,2.8l79.4,79.4c1.6,1.6,4.1,1.6,5.7,0l79.4-79.4C42,423,42.4,422,42.4,420.9z"/>
	<path class="st1" d="M42.7,416.6l-79.4-79.4c-1.1-1.1-2.6-1.8-4.2-1.8s-3.1,0.6-4.2,1.8l-79.4,79.4c-1.1,1.1-1.8,2.6-1.8,4.2
		c0,1.6,0.6,3.1,1.8,4.2l79.4,79.4c1.2,1.2,2.7,1.8,4.2,1.8c1.5,0,3.1-0.6,4.2-1.8l79.4-79.4c1.1-1.1,1.8-2.6,1.8-4.2
		C44.4,419.3,43.8,417.8,42.7,416.6z M-43.8,503.1l-79.4-79.4c-0.8-0.8-1.2-1.8-1.2-2.8s0.4-2.1,1.2-2.8l79.4-79.4
		c0.8-0.8,1.8-1.2,2.8-1.2s2.1,0.4,2.8,1.2l79.4,79.4c0.8,0.8,1.2,1.8,1.2,2.8c0,1.1-0.4,2.1-1.2,2.8l-79.4,79.4
		C-39.7,504.7-42.3,504.7-43.8,503.1z"/>
</g>
</svg>
