<?xml version="1.0" encoding="utf-8"?>
<!-- Generator: Adobe Illustrator 19.1.0, SVG Export Plug-In . SVG Version: 6.00 Build 0)  -->
<!DOCTYPE svg PUBLIC "-//W3C//DTD SVG 1.1//EN" "http://www.w3.org/Graphics/SVG/1.1/DTD/svg11.dtd">
<svg version="1.1" id="Layer_1" xmlns="http://www.w3.org/2000/svg" xmlns:xlink="http://www.w3.org/1999/xlink" x="0px" y="0px"
	 viewBox="-169 292.9 256 256" style="enable-background:new -169 292.9 256 256;" xml:space="preserve">
<style type="text/css">
	.st0{fill:#0171B9;stroke:#015491;stroke-width:2;stroke-miterlimit:10;}
	.st1{fill:#FFFFFF;stroke:#015491;stroke-width:2;stroke-miterlimit:10;}
	.st2{fill:#015491;}
</style>
<path class="st0" d="M34.1,354.2H9.9v-20.4H-6.4v20.4h-69.2v-20.4h-16.3v20.4h-24.1c-2.8,0-5,2.2-5,5v144.7c0,2.8,2.2,5,5,5H34.1
	c2.8,0,5-2.2,5-5V359.2C39.1,356.5,36.8,354.2,34.1,354.2z"/>
<rect x="-100.4" y="396" class="st1" width="118.8" height="96.4"/>
<g id="image">
</g>
<g id="Layer_2">
</g>
<g>
	<path class="st2" d="M-86.6,463.2h9.1v-29.1c0-0.8,0-1.7,0.1-2.7l-7.6,6.5c-0.7,0.6-2,0.6-2.5-0.2l-1.7-2.3l12.7-11h4.3v38.7h8.4
		v4.1h-22.9V463.2z"/>
	<path class="st2" d="M-41.8,424.1c6.3,0,12.1,3.8,12.8,10.4c0.7,7-4.2,12.3-8.8,16.9l-11.3,11.5c1.5-0.4,3.2-0.7,4.8-0.7h14.3
		c1.1,0,1.9,0.7,1.9,1.8v3.2h-28.5v-1.8c0-0.9,0.4-1.7,1-2.3l13.7-13.7c2.6-2.7,5.4-5.5,6.8-9.1c1.2-3.2,1.2-7.6-1.7-10
		c-2.7-2.2-7-2.2-9.9-0.4c-1.5,0.9-2.7,2.4-3.2,4.1c-0.6,1.6-0.9,2.9-3,2.6l-2.8-0.5c0.5-3.4,1.9-6.6,4.5-8.8
		C-48.6,425.1-45.2,424.1-41.8,424.1z"/>
	<path class="st2" d="M7.9,445.9c0,7.4-1.8,16.7-9.1,20.3c-3.6,1.8-8.1,1.9-11.8,0.4c-3.5-1.4-6.1-4.4-7.6-7.7
		c-1.7-3.7-2.3-7.7-2.4-11.7c-0.1-4.1,0.2-8.2,1.5-12c1.2-3.5,3.1-6.8,6.2-8.9c3.4-2.2,7.8-2.8,11.7-1.7
		C5.4,427.2,7.9,437.6,7.9,445.9z M2.4,445.9c0-5.2-0.5-12.5-5.2-15.9c-2.5-1.8-6-1.9-8.7-0.5c-2.5,1.3-3.9,3.9-4.7,6.4
		c-0.9,2.8-1.2,5.7-1.3,8.6c-0.1,3,0,6.1,0.7,9c0.6,2.7,1.6,5.6,3.7,7.5c2.2,2.1,5.5,2.7,8.4,1.7C1.6,460.5,2.4,451.7,2.4,445.9z"/>
</g>
</svg>
