<?xml version="1.0" encoding="utf-8"?>
<!-- Generator: Adobe Illustrator 19.1.0, SVG Export Plug-In . SVG Version: 6.00 Build 0)  -->
<!DOCTYPE svg PUBLIC "-//W3C//DTD SVG 1.1//EN" "http://www.w3.org/Graphics/SVG/1.1/DTD/svg11.dtd">
<svg version="1.1" id="Layer_1" xmlns="http://www.w3.org/2000/svg" xmlns:xlink="http://www.w3.org/1999/xlink" x="0px" y="0px"
	 viewBox="-273 396.9 48 48" style="enable-background:new -273 396.9 48 48;" xml:space="preserve">
<style type="text/css">
	.st0{fill:#666666;}
</style>
<g>
	<polygon class="st0" points="-253.7,407 -264.8,405 -262.9,416.2 -259.9,413.4 -254.2,419.1 -250.8,415.7 -256.5,410 	"/>
	<polygon class="st0" points="-243.8,419.1 -238.1,413.4 -235.1,416.2 -233.2,405.1 -244.4,407.2 -241.5,409.9 -247.2,415.7 	"/>
	<path class="st0" d="M-250.8,426.1c-1.1-1.1-2.3-2.2-3.4-3.4c-1.9,1.9-5.7,5.7-5.7,5.7l-3-2.8l-1.9,11.1l11.1-1.9l-2.8-3
		C-256.5,431.8-252.7,428-250.8,426.1z"/>
	<polygon class="st0" points="-233.2,436.7 -235.1,425.6 -238.1,428.4 -243.8,422.7 -247.2,426.1 -241.5,431.8 -244.3,434.8 	"/>
</g>
</svg>
