<?xml version="1.0" encoding="utf-8"?>
<!-- Generator: Adobe Illustrator 19.1.0, SVG Export Plug-In . SVG Version: 6.00 Build 0)  -->
<!DOCTYPE svg PUBLIC "-//W3C//DTD SVG 1.1//EN" "http://www.w3.org/Graphics/SVG/1.1/DTD/svg11.dtd">
<svg version="1.1" id="Layer_1" xmlns="http://www.w3.org/2000/svg" xmlns:xlink="http://www.w3.org/1999/xlink" x="0px" y="0px"
	 viewBox="-519 406 40 40" style="enable-background:new -519 406 40 40;" xml:space="preserve">
<style type="text/css">
	.st0{fill:none;}
	.st1{fill:#0171B9;}
</style>
<g>
	<path class="st0" d="M-499,413.8c-6.7,0-12.2,5.5-12.2,12.2s5.5,12.2,12.2,12.2s12.2-5.5,12.2-12.2S-492.3,413.8-499,413.8z
		 M-490.6,433.2l-3-0.2c0,0,0.1-1.9-0.5-4.1c-2.1,2.3-5.1,3.7-8.8,4.1l0,1.6l-5.4-3.2l5.5-3.1l0,1.6c2.9-0.4,5.2-1.5,6.7-3.3
		c0.2-0.3,0.4-0.5,0.6-0.8c-0.2-0.3-0.4-0.5-0.6-0.8c-1.6-1.8-3.8-2.9-6.7-3.3l0,1.6l-5.5-3.1l5.4-3.2l0,1.6c3.7,0.4,6.6,1.7,8.8,4
		c0.7-2.2,0.5-4.1,0.5-4.2l3-0.2c0,0.2,0.3,3.8-1.5,7.4C-490.3,429.5-490.5,433.1-490.6,433.2z"/>
	<path class="st1" d="M-499,410.6c-8.5,0-15.4,6.9-15.4,15.4s6.9,15.4,15.4,15.4s15.4-6.9,15.4-15.4S-490.5,410.6-499,410.6z
		 M-499,438.2c-6.7,0-12.2-5.5-12.2-12.2s5.5-12.2,12.2-12.2s12.2,5.5,12.2,12.2S-492.3,438.2-499,438.2z"/>
	<path class="st1" d="M-490.6,418.5l-3,0.2c0,0,0.1,1.9-0.5,4.2c-2.1-2.3-5.1-3.6-8.8-4l0-1.6l-5.4,3.2l5.5,3.1l0-1.6
		c2.9,0.4,5.2,1.5,6.7,3.3c0.2,0.2,0.4,0.5,0.6,0.8c-0.2,0.3-0.4,0.5-0.6,0.8c-1.6,1.8-3.8,2.9-6.7,3.3l0-1.6l-5.5,3.1l5.4,3.2
		l0-1.6c3.7-0.4,6.6-1.8,8.8-4.1c0.6,2.2,0.5,4.1,0.5,4.1l3,0.2c0-0.2,0.3-3.8-1.5-7.3C-490.3,422.3-490.5,418.7-490.6,418.5z"/>
</g>
</svg>
