<?xml version="1.0" encoding="UTF-8" standalone="no"?>
<svg
   xmlns:dc="http://purl.org/dc/elements/1.1/"
   xmlns:cc="http://creativecommons.org/ns#"
   xmlns:rdf="http://www.w3.org/1999/02/22-rdf-syntax-ns#"
   xmlns:svg="http://www.w3.org/2000/svg"
   xmlns="http://www.w3.org/2000/svg"
   xmlns:sodipodi="http://sodipodi.sourceforge.net/DTD/sodipodi-0.dtd"
   xmlns:inkscape="http://www.inkscape.org/namespaces/inkscape"
   version="1.0"
   width="64.000000pt"
   height="64.000000pt"
   viewBox="0 0 64.000000 64.000000"
   preserveAspectRatio="xMidYMid meet"
   id="svg2"
   inkscape:version="0.91 r13725"
   sodipodi:docname="geoLocationNew.svg">
  <metadata
     id="metadata14">
    <rdf:RDF>
      <cc:Work
         rdf:about="">
        <dc:format>image/svg+xml</dc:format>
        <dc:type
           rdf:resource="http://purl.org/dc/dcmitype/StillImage" />
        <dc:title></dc:title>
      </cc:Work>
    </rdf:RDF>
  </metadata>
  <defs
     id="defs12" />
  <sodipodi:namedview
     pagecolor="#ffffff"
     bordercolor="#666666"
     borderopacity="1"
     objecttolerance="10"
     gridtolerance="10"
     guidetolerance="10"
     inkscape:pageopacity="0"
     inkscape:pageshadow="2"
     inkscape:window-width="1920"
     inkscape:window-height="1017"
     id="namedview10"
     showgrid="false"
     inkscape:zoom="16.68772"
     inkscape:cx="31.892761"
     inkscape:cy="43.718952"
     inkscape:window-x="-8"
     inkscape:window-y="-8"
     inkscape:window-maximized="1"
     inkscape:current-layer="svg2" />
  <g
     transform="translate(0.000000,64.000000) scale(0.100000,-0.100000)"
     fill="#000000"
     stroke="none"
     id="g4">
    <path
       d="M300 570 c0 -38 -2 -40 -42 -51 -56 -15 -122 -81 -137 -137 -11 -40 -13 -42 -51 -42 -33 0 -40 -3 -40 -20 0 -17 7 -20 40 -20 38 0 40 -2 51 -42 15 -56 81 -122 137 -137 40 -11 42 -13 42 -51 0 -33 3 -40 20 -40 17 0 20 7 20 40 0 38 2 40 42 51 56 15 122 81 137 137 11 40 13 42 51 42 33 0 40 3 40 20 0 17 -7 20 -40 20 -38 0 -40 2 -51 42 -15 56 -81 122 -137 137 -40 11 -42 13 -42 51 0 33 -3 40 -20 40 -17 0 -20 -7 -20 -40z m101 -113 c106 -71 106 -203 0 -274 -98 -66 -241 15 -241 137 0 122 143 203 241 137z"
       id="path6" />
  </g>
  <ellipse
     style="fill:#ffffff;fill-opacity:1"
     id="path3375"
     cx="36.542374"
     cy="36.745766"
     rx="4.8135595"
     ry="4.2033896" />
  <circle
     style="fill:#000000;fill-opacity:1"
     id="path3379"
     cx="32.067795"
     cy="32"
     r="11.659606" />
</svg>
