<?xml version="1.0" encoding="utf-8"?>
<!-- Generator: Adobe Illustrator 19.1.0, SVG Export Plug-In . SVG Version: 6.00 Build 0)  -->
<!DOCTYPE svg PUBLIC "-//W3C//DTD SVG 1.1//EN" "http://www.w3.org/Graphics/SVG/1.1/DTD/svg11.dtd">
<svg version="1.1"
	 id="svg2" xmlns:inkscape="http://www.inkscape.org/namespaces/inkscape" xmlns:cc="http://creativecommons.org/ns#" xmlns:svg="http://www.w3.org/2000/svg" xmlns:dc="http://purl.org/dc/elements/1.1/" xmlns:rdf="http://www.w3.org/1999/02/22-rdf-syntax-ns#" xmlns:sodipodi="http://sodipodi.sourceforge.net/DTD/sodipodi-0.dtd" sodipodi:docname="glass.svg" inkscape:version="0.91 r13725"
	 xmlns="http://www.w3.org/2000/svg" xmlns:xlink="http://www.w3.org/1999/xlink" x="0px" y="0px" viewBox="-411 298 256 256"
	 style="enable-background:new -411 298 256 256;" xml:space="preserve">
<style type="text/css">
	.st0{fill:#006DB4;}
</style>
<g>
	<path class="st0" d="M-260.9,322.6c-40.8,0-73.9,33.1-73.9,73.9c0,12.5,3.1,24.2,8.6,34.5l-51.4,51.4l0.1,0
		c-4,3.9-6.5,9.4-6.5,15.5c0,12,9.7,21.7,21.7,21.7c6,0,11.5-2.5,15.5-6.5h0l51.4-51.4c10.3,5.5,22.1,8.6,34.6,8.6
		c40.8,0,73.9-33.1,73.9-73.9C-187,355.7-220.1,322.6-260.9,322.6L-260.9,322.6z M-354.5,505.5c-2,2-4.7,3.3-7.8,3.3
		c-6,0-10.9-4.8-10.9-10.9c0-3.1,1.3-5.8,3.3-7.8l0-0.1l49.7-49.7c4.3,5.9,9.5,11,15.3,15.4L-354.5,505.5z M-260.9,458.1
		c-34,0-61.6-27.6-61.6-61.6s27.6-61.6,61.6-61.6s61.6,27.6,61.6,61.6S-226.9,458.1-260.9,458.1L-260.9,458.1z M-260.9,458.1"/>
	<path class="st0" d="M-260.9,353.4c-23.8,0-43.1,19.3-43.1,43.1c0,1.7,1.4,3.1,3.1,3.1c1.7,0,3.1-1.4,3.1-3.1c0-20.4,16.5-37,37-37
		c1.7,0,3.1-1.4,3.1-3.1C-257.8,354.8-259.2,353.4-260.9,353.4L-260.9,353.4z M-260.9,353.4"/>
</g>
<sodipodi:namedview  id="namedview14" inkscape:cx="160" pagecolor="#ffffff" bordercolor="#666666" objecttolerance="10" borderopacity="1" guidetolerance="10" inkscape:zoom="0.7375" inkscape:cy="160" showgrid="false" gridtolerance="10" inkscape:pageopacity="0" inkscape:pageshadow="2" inkscape:window-height="480" inkscape:window-x="0" inkscape:window-y="0" inkscape:window-maximized="0" inkscape:current-layer="svg2" inkscape:window-width="640">
	</sodipodi:namedview>
</svg>
