<?xml version="1.0" encoding="UTF-8" standalone="no"?>
<!-- Generator: Adobe Illustrator 19.1.0, SVG Export Plug-In . SVG Version: 6.00 Build 0)  -->

<svg
   xmlns:dc="http://purl.org/dc/elements/1.1/"
   xmlns:cc="http://creativecommons.org/ns#"
   xmlns:rdf="http://www.w3.org/1999/02/22-rdf-syntax-ns#"
   xmlns:svg="http://www.w3.org/2000/svg"
   xmlns="http://www.w3.org/2000/svg"
   xmlns:sodipodi="http://sodipodi.sourceforge.net/DTD/sodipodi-0.dtd"
   xmlns:inkscape="http://www.inkscape.org/namespaces/inkscape"
   version="1.1"
   id="Layer_1"
   x="0px"
   y="0px"
   viewBox="-281 404.9 32 32"
   style="enable-background:new -281 404.9 32 32;"
   xml:space="preserve"
   inkscape:version="0.91 r13725"
   sodipodi:docname="grayRightTick.svg"><metadata
     id="metadata15"><rdf:RDF><cc:Work
         rdf:about=""><dc:format>image/svg+xml</dc:format><dc:type
           rdf:resource="http://purl.org/dc/dcmitype/StillImage" /><dc:title></dc:title></cc:Work></rdf:RDF></metadata><defs
     id="defs13" /><sodipodi:namedview
     pagecolor="#ffffff"
     bordercolor="#666666"
     borderopacity="1"
     objecttolerance="10"
     gridtolerance="10"
     guidetolerance="10"
     inkscape:pageopacity="0"
     inkscape:pageshadow="2"
     inkscape:window-width="1920"
     inkscape:window-height="1017"
     id="namedview11"
     showgrid="false"
     inkscape:zoom="7.375"
     inkscape:cx="-4"
     inkscape:cy="16"
     inkscape:window-x="-8"
     inkscape:window-y="-8"
     inkscape:window-maximized="1"
     inkscape:current-layer="g5" /><style
     type="text/css"
     id="style3">
	.st0{fill:#0B7E0C;}
	.st1{fill:#FFFFFF;}
</style><g
     id="g5"><path
       class="st0"
       d="M-265,409.6c-6.2,0-11.2,5-11.2,11.2c0,6.2,5,11.2,11.2,11.2s11.2-5,11.2-11.2   C-253.8,414.7-258.8,409.6-265,409.6z M-257.8,417.5l-8.7,8.7c-0.3,0.3-0.6,0.4-0.9,0.4c-0.3,0-0.7-0.1-0.9-0.4l-3.8-3.8   c-0.5-0.5-0.5-1.4,0-1.9c0.5-0.5,1.4-0.5,1.9,0l2.8,2.8l7.7-7.7c0.5-0.5,1.4-0.5,1.9,0C-257.3,416.1-257.3,417-257.8,417.5z"
       id="path7"
       style="fill:#4d4d4d" /><path
       class="st1"
       d="M-259.7,415.6l-7.7,7.7l-2.8-2.8c-0.5-0.5-1.4-0.5-1.9,0c-0.5,0.5-0.5,1.4,0,1.9l3.8,3.8   c0.3,0.3,0.6,0.4,0.9,0.4c0.3,0,0.7-0.1,0.9-0.4l8.7-8.7c0.5-0.5,0.5-1.4,0-1.9C-258.3,415.1-259.2,415.1-259.7,415.6z"
       id="path9" /><path
       style="fill:#4d4d4d"
       d="M 14.415592,26.937066 C 10.717321,26.3475 7.6967241,24.124936 5.9880891,20.736085 5.3398367,19.450363 5.0053206,18.095221 4.9210161,16.413319 4.6531295,11.068891 8.1022184,6.4362887 13.343724,5.1004609 14.81943,4.7243686 17.178057,4.7240228 18.656277,5.099682 c 3.739262,0.9502568 6.655444,3.6781385 7.92585,7.414071 0.428295,1.259501 0.45281,1.434972 0.460547,3.296416 0.0069,1.66843 -0.03935,2.130335 -0.305683,3.050848 -0.865932,2.992815 -3.064634,5.652529 -5.813944,7.032982 -1.745061,0.876208 -4.641683,1.340503 -6.507455,1.043067 z m -0.205469,-5.3538 c 0.201382,-0.106153 2.394962,-2.230336 4.874623,-4.720407 l 4.508474,-4.527402 0,-0.617239 c 0,-1.03721 -0.828107,-1.685725 -1.784821,-1.397747 -0.174281,0.05246 -2.09259,1.863117 -4.262909,4.023683 l -3.946035,3.928302 -1.545151,-1.502482 c -1.654665,-1.60897 -2.0626297,-1.825672 -2.7885333,-1.481206 -0.5613981,0.266403 -0.9220389,1.072055 -0.7343994,1.640609 0.1453777,0.440499 4.1893447,4.60011 4.6211707,4.753323 0.361161,0.128139 0.683316,0.09785 1.057581,-0.09943 z"
       id="path3343"
       inkscape:connector-curvature="0"
       transform="translate(-281,404.89999)" /><path
       style="fill:#707070;fill-opacity:1"
       d="M 14.033898,26.870064 C 11.489964,26.363938 9.6301985,25.326281 7.8219551,23.404107 7.0086872,22.539599 6.6293786,21.991258 6.1015486,20.917035 5.2473484,19.178591 5.0144784,18.290404 4.9207384,16.413319 4.6696119,11.384667 7.6849784,6.9912895 12.522316,5.3378504 c 1.0903,-0.3726729 1.463525,-0.4310198 3.084341,-0.4821797 2.236292,-0.070587 3.464539,0.1852127 5.342496,1.1126494 3.975362,1.9632497 6.351494,6.0119039 6.130108,10.4449989 -0.09368,1.875829 -0.326643,2.765322 -1.178164,4.498394 -1.020357,2.076692 -2.861793,3.919694 -4.97805,4.982286 -1.902887,0.955455 -4.875703,1.376648 -6.889149,0.976065 z m 0.564095,-5.620891 c 0.360935,-0.289904 2.532515,-2.414387 4.825736,-4.721071 l 4.169491,-4.193972 0,-0.615062 c 0,-0.982333 -0.798028,-1.637644 -1.71426,-1.407685 -0.220988,0.05546 -1.884639,1.603708 -4.340603,4.039498 L 13.55608,18.300445 12.029814,16.794593 C 11.088956,15.86632 10.35159,15.250604 10.107366,15.189307 9.2290263,14.968858 8.3351816,15.916872 8.5182809,16.874694 c 0.072944,0.38158 4.0842171,4.57398 4.5664651,4.772662 0.521091,0.214685 0.861855,0.125018 1.513247,-0.398183 z"
       id="path3345"
       inkscape:connector-curvature="0"
       transform="translate(-281,404.89999)" /></g></svg>