<?xml version="1.0" encoding="UTF-8" standalone="no"?>
<!-- Generator: Adobe Illustrator 19.1.0, SVG Export Plug-In . SVG Version: 6.00 Build 0)  -->

<svg
   xmlns:dc="http://purl.org/dc/elements/1.1/"
   xmlns:cc="http://creativecommons.org/ns#"
   xmlns:rdf="http://www.w3.org/1999/02/22-rdf-syntax-ns#"
   xmlns:svg="http://www.w3.org/2000/svg"
   xmlns="http://www.w3.org/2000/svg"
   xmlns:sodipodi="http://sodipodi.sourceforge.net/DTD/sodipodi-0.dtd"
   xmlns:inkscape="http://www.inkscape.org/namespaces/inkscape"
   version="1.1"
   id="Layer_1"
   x="0px"
   y="0px"
   viewBox="-281 404.9 32 32"
   style="enable-background:new -281 404.9 32 32;"
   xml:space="preserve"
   inkscape:version="0.91 r13725"
   sodipodi:docname="grayWrongTick.svg"><metadata
     id="metadata15"><rdf:RDF><cc:Work
         rdf:about=""><dc:format>image/svg+xml</dc:format><dc:type
           rdf:resource="http://purl.org/dc/dcmitype/StillImage" /><dc:title /></cc:Work></rdf:RDF></metadata><defs
     id="defs13" /><sodipodi:namedview
     pagecolor="#ffffff"
     bordercolor="#666666"
     borderopacity="1"
     objecttolerance="10"
     gridtolerance="10"
     guidetolerance="10"
     inkscape:pageopacity="0"
     inkscape:pageshadow="2"
     inkscape:window-width="1920"
     inkscape:window-height="1017"
     id="namedview11"
     showgrid="false"
     inkscape:zoom="7.375"
     inkscape:cx="-24"
     inkscape:cy="16"
     inkscape:window-x="-8"
     inkscape:window-y="-8"
     inkscape:window-maximized="1"
     inkscape:current-layer="g5" /><style
     type="text/css"
     id="style3">
	.st0{fill:#7C0505;}
	.st1{fill:#FFFFFF;}
</style><g
     id="g5"><path
       class="st0"
       d="M-265,409.6c-6.2,0-11.2,5-11.2,11.2c0,6.2,5,11.2,11.2,11.2s11.2-5,11.2-11.2   C-253.8,414.7-258.8,409.6-265,409.6z M-259.5,426.4c-0.5,0.5-1.4,0.5-1.9,0l-3.6-3.6l-3.6,3.6c-0.5,0.5-1.4,0.5-1.9,0   s-0.5-1.4,0-1.9l3.6-3.6l-3.6-3.6c-0.5-0.5-0.5-1.4,0-1.9s1.4-0.5,1.9,0l3.6,3.6l3.6-3.6c0.5-0.5,1.4-0.5,1.9,0s0.5,1.4,0,1.9   l-3.6,3.6l3.6,3.6C-259,425-259,425.9-259.5,426.4z"
       id="path7"
       style="fill:#707070;fill-opacity:1" /><path
       class="st1"
       d="M-263.1,420.9l3.6-3.6c0.5-0.5,0.5-1.4,0-1.9s-1.4-0.5-1.9,0l-3.6,3.6l-3.6-3.6c-0.5-0.5-1.4-0.5-1.9,0   s-0.5,1.4,0,1.9l3.6,3.6l-3.6,3.6c-0.5,0.5-0.5,1.4,0,1.9s1.4,0.5,1.9,0l3.6-3.6l3.6,3.6c0.5,0.5,1.4,0.5,1.9,0s0.5-1.4,0-1.9   L-263.1,420.9z"
       id="path9" /><path
       style="fill:#4d4d4d"
       d="M 13.985671,26.856991 C 11.316513,26.35136 8.769403,24.792148 7.174222,22.687367 4.294247,18.887349 4.132269,13.638087 6.7722567,9.6607771 7.9147188,7.9395851 9.9932258,6.2863241 11.971721,5.5250814 13.35436,4.9930996 14.32878,4.8269215 16.058801,4.8280686 c 3.159021,0.00209 5.785611,1.1345873 7.973542,3.4379094 3.264429,3.436594 4.00381,8.208381 1.935828,12.493344 -1.42161,2.945646 -4.033859,5.10225 -7.160952,5.911892 -1.401812,0.362946 -3.466371,0.442494 -4.821548,0.185777 z m 0.03902,-6.906598 1.977245,-1.961472 1.974366,1.961472 c 1.921341,1.908793 1.989874,1.961471 2.551834,1.961471 0.814522,0 1.370167,-0.555644 1.370167,-1.370166 0,-0.561961 -0.05268,-0.630494 -1.961471,-2.551835 l -1.961472,-1.974366 1.961472,-1.977245 c 1.907335,-1.922674 1.961471,-1.993157 1.961471,-2.553772 0,-0.813092 -0.556133,-1.369226 -1.369226,-1.369226 -0.560615,0 -0.631098,0.05414 -2.553772,1.961472 l -1.977245,1.961471 -1.974366,-1.961471 c -1.921341,-1.908794 -1.989874,-1.961472 -2.551834,-1.961472 -0.814522,0 -1.370167,0.555646 -1.370167,1.370167 0,0.56196 0.05268,0.630493 1.961471,2.551834 l 1.961472,1.974366 -1.961472,1.977245 c -1.907336,1.922674 -1.961471,1.993157 -1.961471,2.553773 0,0.813093 0.556133,1.369225 1.369226,1.369225 0.560615,0 0.631097,-0.05414 2.553772,-1.961471 z"
       id="path3336"
       inkscape:connector-curvature="0"
       transform="translate(-281,404.89999)" /><path
       style="fill:#707070;fill-opacity:1"
       d="M 13.288136,26.659995 C 11.067271,26.06995 8.7110492,24.566179 7.3827437,22.891096 6.5724266,21.869231 5.6261307,19.940149 5.2727919,18.589831 5.0607587,17.779525 4.9889457,17.093424 4.9889457,15.877966 c 0,-1.993261 0.2927885,-3.235337 1.1986028,-5.084746 C 6.7295256,9.6866609 7.0020789,9.3225223 8.1210938,8.2099524 10.129197,6.2134151 12.026482,5.2553001 14.597694,4.9393168 c 2.397996,-0.2946962 5.025323,0.2325098 7.029425,1.4105418 1.139867,0.6700264 3.192176,2.6998023 3.844693,3.8024814 0.549304,0.92826 1.020116,2.068818 1.334785,3.233558 0.342189,1.266606 0.304642,3.78029 -0.07762,5.196613 -1.041115,3.857416 -3.785293,6.747435 -7.542533,7.943386 -1.396386,0.444479 -4.467284,0.514294 -5.898305,0.134098 z m -1.081018,-4.970318 c 0.18439,-0.122202 1.113221,-0.990813 2.064068,-1.930246 L 16,18.05137 l 1.728814,1.708061 c 0.950847,0.939433 1.879678,1.808044 2.064069,1.930246 1.213291,0.804097 2.691643,-0.611009 1.922872,-1.840606 -0.153259,-0.245124 -1.041995,-1.205105 -1.97497,-2.13329 l -1.696318,-1.687609 1.887178,-1.92652 c 1.037947,-1.059587 1.926116,-2.081668 1.973708,-2.271292 0.115264,-0.459248 -0.16077,-1.25816 -0.522171,-1.511295 -0.160039,-0.112096 -0.555141,-0.203811 -0.878004,-0.203811 -0.57237,0 -0.635921,0.0479 -2.5461,1.91907 L 16,13.953393 14.040922,12.034324 c -1.945713,-1.905978 -1.96333,-1.91907 -2.582434,-1.91907 -0.697077,0 -1.208052,0.376045 -1.365978,1.005272 -0.1673185,0.666649 0.09221,1.058218 1.975846,2.981126 l 1.887177,1.92652 -1.696318,1.687609 c -0.932976,0.928185 -1.821712,1.888166 -1.974969,2.13329 -0.768772,1.229597 0.709581,2.644703 1.922872,1.840606 z"
       id="path4138"
       inkscape:connector-curvature="0"
       transform="translate(-281,404.89999)" /></g></svg>