<?xml version="1.0" encoding="utf-8"?>
<!-- Generator: Adobe Illustrator 19.1.0, SVG Export Plug-In . SVG Version: 6.00 Build 0)  -->
<!DOCTYPE svg PUBLIC "-//W3C//DTD SVG 1.1//EN" "http://www.w3.org/Graphics/SVG/1.1/DTD/svg11.dtd">
<svg version="1.1" id="Layer_1" xmlns="http://www.w3.org/2000/svg" xmlns:xlink="http://www.w3.org/1999/xlink" x="0px" y="0px"
	 viewBox="-267 390.9 60 60" style="enable-background:new -267 390.9 60 60;" xml:space="preserve">
<style type="text/css">
	.st0{fill:#FFFFFF;}
</style>
<g>
	<rect x="-248.4" y="417.1" class="st0" width="6.8" height="7"/>
	<rect x="-256.6" y="425.7" class="st0" width="6.9" height="7.1"/>
	<rect x="-256.6" y="408.7" class="st0" width="6.9" height="6.9"/>
	<rect x="-248.4" y="425.7" class="st0" width="6.8" height="7.1"/>
	<rect x="-256.6" y="417.1" class="st0" width="6.9" height="7"/>
	<rect x="-248.4" y="408.7" class="st0" width="6.8" height="6.9"/>
	<rect x="-232" y="417.1" class="st0" width="6.5" height="7"/>
	<rect x="-232" y="408.7" class="st0" width="6.5" height="6.9"/>
	<rect x="-240.2" y="425.7" class="st0" width="6.8" height="7.1"/>
	<rect x="-240.2" y="417.1" class="st0" width="6.8" height="7"/>
	<rect x="-240.2" y="408.7" class="st0" width="6.8" height="6.9"/>
	<rect x="-232" y="425.7" class="st0" width="6.5" height="7.1"/>
	<rect x="-224.2" y="417.1" class="st0" width="6.8" height="7"/>
	<rect x="-224.2" y="434.2" class="st0" width="6.8" height="5.9"/>
	<rect x="-240.2" y="434.2" class="st0" width="6.8" height="5.9"/>
	<rect x="-224.2" y="425.7" class="st0" width="6.8" height="7.1"/>
	<rect x="-224.2" y="408.7" class="st0" width="6.8" height="6.9"/>
	<rect x="-248.4" y="434.2" class="st0" width="6.8" height="5.9"/>
	<rect x="-232" y="434.2" class="st0" width="6.5" height="5.9"/>
	<rect x="-256.6" y="434.2" class="st0" width="6.9" height="5.9"/>
	<path d="M-217.8,398.6h-38.4c-1.2,0-2.3,1.1-2.3,2.5v39.5c0,1.4,1,2.5,2.3,2.5h38.4c1.3,0,2.3-1.1,2.3-2.5v-39.5
		C-215.5,399.7-216.6,398.6-217.8,398.6z M-232,402.1h6.5v3.3h-6.5V402.1z M-225.5,425.7v7.1h-6.5v-7.1H-225.5z M-232,424.2v-7h6.5
		v7H-232z M-225.5,415.6h-6.5v-6.9h6.5V415.6z M-233.4,425.7v7.1h-6.8v-7.1H-233.4z M-240.2,424.2v-7h6.8v7H-240.2z M-233.4,415.6
		h-6.8v-6.9h6.8V415.6z M-241.5,425.7v7.1h-6.8v-7.1H-241.5z M-248.4,424.2v-7h6.8v7H-248.4z M-241.5,415.6h-6.8v-6.9h6.8V415.6z
		 M-240.2,402.1h6.8v3.3h-6.8V402.1z M-248.4,402.1h6.8v3.3h-6.8V402.1z M-256.6,402.1h6.9v3.3h-6.9V402.1z M-256.6,408.7h6.9v6.9
		h-6.9V408.7z M-256.6,417.1h6.9v7h-6.9V417.1z M-256.6,425.7h6.9v7.1h-6.9V425.7z M-256.6,440.2v-5.9h6.9v5.9H-256.6z
		 M-248.4,440.2v-5.9h6.8v5.9H-248.4z M-240.2,440.2v-5.9h6.8v5.9H-240.2z M-232,440.2v-5.9h6.5v5.9H-232z M-217.4,440.2h-6.8v-5.9
		h6.8V440.2z M-217.4,432.7h-6.8v-7.1h6.8V432.7z M-217.4,424.2h-6.8v-7h6.8V424.2z M-217.4,415.6h-6.8v-6.9h6.8V415.6z
		 M-217.4,405.4h-6.8v-3.3h6.8V405.4z"/>
	<path class="st0" d="M-249.7,402.1h-6.9v3.3h6.9V402.1z M-254.7,404.8c-0.5,0-0.9-0.3-0.9-0.6s0.4-0.6,0.9-0.6
		c0.5,0,0.9,0.3,0.9,0.6S-254.2,404.8-254.7,404.8z M-251.8,404.8c-0.5,0-0.9-0.3-0.9-0.6s0.4-0.6,0.9-0.6c0.5,0,0.9,0.3,0.9,0.6
		S-251.3,404.8-251.8,404.8z"/>
	<path class="st0" d="M-241.5,402.1h-6.8v3.3h6.8V402.1z M-246.4,404.8c-0.5,0-0.9-0.3-0.9-0.6s0.4-0.6,0.9-0.6
		c0.5,0,0.9,0.3,0.9,0.6S-245.9,404.8-246.4,404.8z M-243.5,404.8c-0.5,0-0.9-0.3-0.9-0.6s0.4-0.6,0.9-0.6c0.5,0,0.9,0.3,0.9,0.6
		S-243,404.8-243.5,404.8z"/>
	<path class="st0" d="M-233.4,402.1h-6.8v3.3h6.8V402.1z M-238.2,404.8c-0.5,0-0.9-0.3-0.9-0.6s0.4-0.6,0.9-0.6
		c0.5,0,0.9,0.3,0.9,0.6S-237.7,404.8-238.2,404.8z M-235.3,404.8c-0.5,0-0.9-0.3-0.9-0.6s0.4-0.6,0.9-0.6c0.5,0,0.9,0.3,0.9,0.6
		S-234.8,404.8-235.3,404.8z"/>
	<path class="st0" d="M-225.5,402.1h-6.5v3.3h6.5V402.1z M-230.2,404.8c-0.5,0-0.9-0.3-0.9-0.6s0.4-0.6,0.9-0.6
		c0.5,0,0.9,0.3,0.9,0.6S-229.7,404.8-230.2,404.8z M-227.3,404.8c-0.5,0-0.9-0.3-0.9-0.6s0.4-0.6,0.9-0.6c0.5,0,0.9,0.3,0.9,0.6
		S-226.8,404.8-227.3,404.8z"/>
	<path class="st0" d="M-224.2,405.4h6.8v-3.3h-6.8V405.4z M-219.3,403.6c0.5,0,0.9,0.3,0.9,0.6s-0.4,0.6-0.9,0.6
		c-0.5,0-0.9-0.3-0.9-0.6S-219.8,403.6-219.3,403.6z M-222.2,403.6c0.5,0,0.9,0.3,0.9,0.6s-0.4,0.6-0.9,0.6c-0.5,0-0.9-0.3-0.9-0.6
		S-222.7,403.6-222.2,403.6z"/>
	<ellipse cx="-219.3" cy="404.2" rx="0.9" ry="0.6"/>
	<ellipse cx="-222.2" cy="404.2" rx="0.9" ry="0.6"/>
	<ellipse cx="-227.3" cy="404.2" rx="0.9" ry="0.6"/>
	<ellipse cx="-230.2" cy="404.2" rx="0.9" ry="0.6"/>
	<ellipse cx="-235.3" cy="404.2" rx="0.9" ry="0.6"/>
	<ellipse cx="-238.2" cy="404.2" rx="0.9" ry="0.6"/>
	<ellipse cx="-243.5" cy="404.2" rx="0.9" ry="0.6"/>
	<ellipse cx="-246.4" cy="404.2" rx="0.9" ry="0.6"/>
	<ellipse cx="-251.8" cy="404.2" rx="0.9" ry="0.6"/>
	<ellipse cx="-254.7" cy="404.2" rx="0.9" ry="0.6"/>
</g>
</svg>
