<?xml version="1.0" encoding="utf-8"?>
<!-- Generator: Adobe Illustrator 19.1.0, SVG Export Plug-In . SVG Version: 6.00 Build 0)  -->
<!DOCTYPE svg PUBLIC "-//W3C//DTD SVG 1.1//EN" "http://www.w3.org/Graphics/SVG/1.1/DTD/svg11.dtd">
<svg version="1.1" id="Layer_1" xmlns="http://www.w3.org/2000/svg" xmlns:xlink="http://www.w3.org/1999/xlink" x="0px" y="0px"
	 viewBox="-282 402.9 30 36" style="enable-background:new -282 402.9 30 36;" xml:space="preserve">
<g>
	<polygon points="-264.4,429.3 -260.8,435.8 -257.2,429.3 	"/>
	<path d="M-269.8,426.9l2.1-8.2c1-3.6,0.5-4.8-1.1-5c-0.9-0.1-3.2-0.6-4,1l-3.7,13.5c-0.9,3.4,0.1,5.4,1.7,5.4
		c1.6,0,4.6-0.2,7.7-3.4l-0.9-1.3C-270.2,430.5-270.6,429.9-269.8,426.9z"/>
	<path d="M-267.9,405.4c-2.4,0-3.6,1.9-3.6,3.3c0,1.7,1,2.7,2.7,2.7c2,0,3.6-1.6,3.6-3.4C-265.2,406.6-266.1,405.4-267.9,405.4z"/>
</g>
</svg>
