<?xml version="1.0" encoding="utf-8"?>
<!-- Generator: Adobe Illustrator 20.0.0, SVG Export Plug-In . SVG Version: 6.00 Build 0)  -->
<svg version="1.1" xmlns="http://www.w3.org/2000/svg" xmlns:xlink="http://www.w3.org/1999/xlink" x="0px" y="0px"
	 viewBox="0 0 256 256" enable-background="new 0 0 256 256" xml:space="preserve">
<g id="image">
</g>
<g id="Layer_2">
</g>
<g id="Layer_3">
	<g>
		<path fill="#FFFFFF" stroke="#005491" stroke-width="3" stroke-miterlimit="10" d="M208.134,98.155
			c1.085,1.085,1.809,2.713,1.809,4.341v14.29v22.792l0,0c0,0.362,0,0.904-0.181,1.266c-0.181,1.266-0.904,2.352-1.628,3.075
			l-38.71,39.072v20.621h-32.379v-26.591c0-7.236,2.894-14.29,8.14-19.536l30.028-30.028c2.532-2.352,6.331-2.352,8.864,0
			c1.266,1.266,1.809,2.894,1.809,4.341c0,1.628-0.543,3.256-1.809,4.341l-7.778,7.778l-14.471,14.471
			c-1.266,1.266-1.266,3.256,0,4.341c0.543,0.543,1.447,0.904,2.171,0.904c0.724,0,1.628-0.362,2.171-0.904l31.294-31.294v-2.171
			v-26.772c0-3.437,2.894-6.331,6.331-6.331C205.42,96.346,207.048,97.07,208.134,98.155z"/>
		<radialGradient id="SVGID_1_" cx="153.4149" cy="208.5824" r="14.91" gradientUnits="userSpaceOnUse">
			<stop  offset="0.4925" style="stop-color:#0081D4"/>
			<stop  offset="1" style="stop-color:#0068AA"/>
		</radialGradient>
		<rect x="133.246" y="202.432" fill="url(#SVGID_1_)" stroke="#005491" stroke-miterlimit="10" width="40.338" height="12.3"/>
		<path fill="#FFFFFF" stroke="#005491" stroke-width="3" stroke-miterlimit="10" d="M47.866,98.155
			c-1.085,1.085-1.809,2.713-1.809,4.341v14.29v22.792l0,0c0,0.362,0,0.904,0.181,1.266c0.181,1.266,0.904,2.352,1.628,3.075
			l38.71,38.71v20.621h32.379v-26.591c0-7.236-2.894-14.29-8.14-19.536l-30.028-29.847c-2.532-2.352-6.331-2.352-8.864,0
			c-1.266,1.266-1.809,2.894-1.809,4.341c0,1.628,0.543,3.256,1.809,4.341l7.778,7.778l14.471,14.471
			c1.266,1.266,1.266,3.256,0,4.341c-0.543,0.543-1.447,0.904-2.171,0.904s-1.628-0.362-2.171-0.904l-31.294-30.932v-2.171v-26.772
			c0-3.437-2.894-6.331-6.331-6.331C50.58,96.346,48.952,97.07,47.866,98.155z"/>
		<radialGradient id="SVGID_2_" cx="102.5851" cy="208.5824" r="14.91" gradientUnits="userSpaceOnUse">
			<stop  offset="0.4925" style="stop-color:#0081D4"/>
			<stop  offset="1" style="stop-color:#0068AA"/>
		</radialGradient>
		<rect x="82.416" y="202.432" fill="url(#SVGID_2_)" stroke="#005491" stroke-miterlimit="10" width="40.338" height="12.3"/>
		<radialGradient id="SVGID_3_" cx="127.5576" cy="85.3923" r="44.125" gradientUnits="userSpaceOnUse">
			<stop  offset="0.4925" style="stop-color:#0081D4"/>
			<stop  offset="1" style="stop-color:#0068AA"/>
		</radialGradient>
		<circle fill="url(#SVGID_3_)" stroke="#005491" stroke-miterlimit="10" cx="127.558" cy="85.392" r="44.125"/>
		<g>
			<path fill="#FFFFFF" stroke="#005491" stroke-miterlimit="10" d="M147.966,96.669c0-7.994-4.715-12.893-14.146-14.956
				l-3.319-0.651v-13.74c2.534,0.531,4.534,2.032,5.532,4.034c0.844,1.694,2.566,2.768,4.459,2.768c3.856,0,6.358-4.251,4.305-7.515
				c-2.68-4.261-7.703-7.118-14.296-7.85v-2.373c0-1.869-1.515-3.384-3.384-3.384c-1.869,0-3.384,1.515-3.384,3.384v2.372
				c-10.462,1.139-16.583,6.865-16.583,15.624c0,7.662,4.752,12.783,13.63,14.845l2.953,0.696v14.439
				c-2.99-0.556-5.265-2.088-6.387-4.241c-0.872-1.673-2.566-2.753-4.453-2.753h-0.498c-3.858,0-6.331,4.238-4.304,7.521
				c2.762,4.472,8.213,7.29,15.642,7.914v1.595c0,1.869,1.515,3.384,3.384,3.384s3.384-1.515,3.384-3.384v-1.63
				C141.671,111.618,147.966,105.853,147.966,96.669z M117.796,73.461c0-3.215,2.429-5.648,5.937-6.194v12.37
				C119.855,78.581,117.796,76.465,117.796,73.461z M130.5,104.495V91.205c4.797,1.079,7.04,3.216,7.04,6.642
				C137.541,101.58,134.944,104.028,130.5,104.495z"/>
		</g>
	</g>
</g>
</svg>
