<?xml version="1.0" encoding="UTF-8" standalone="no"?>
<svg
   xmlns:dc="http://purl.org/dc/elements/1.1/"
   xmlns:cc="http://creativecommons.org/ns#"
   xmlns:rdf="http://www.w3.org/1999/02/22-rdf-syntax-ns#"
   xmlns:svg="http://www.w3.org/2000/svg"
   xmlns="http://www.w3.org/2000/svg"
   xmlns:sodipodi="http://sodipodi.sourceforge.net/DTD/sodipodi-0.dtd"
   xmlns:inkscape="http://www.inkscape.org/namespaces/inkscape"
   width="720"
   height="400"
   viewBox="0 0 576 320"
   version="1.1"
   id="svg2"
   inkscape:version="0.91 r13725"
   sodipodi:docname="ihs-logo-home.svg">
  <metadata
     id="metadata66">
    <rdf:RDF>
      <cc:Work
         rdf:about="">
        <dc:format>image/svg+xml</dc:format>
        <dc:type
           rdf:resource="http://purl.org/dc/dcmitype/StillImage" />
        <dc:title></dc:title>
      </cc:Work>
    </rdf:RDF>
  </metadata>
  <defs
     id="defs64" />
  <sodipodi:namedview
     pagecolor="#ffffff"
     bordercolor="#666666"
     borderopacity="1"
     objecttolerance="10"
     gridtolerance="10"
     guidetolerance="10"
     inkscape:pageopacity="0"
     inkscape:pageshadow="2"
     inkscape:window-width="1920"
     inkscape:window-height="1017"
     id="namedview62"
     showgrid="false"
     inkscape:zoom="0.79175255"
     inkscape:cx="163.19942"
     inkscape:cy="30.01579"
     inkscape:window-x="-8"
     inkscape:window-y="-8"
     inkscape:window-maximized="1"
     inkscape:current-layer="svg2"
     units="px" />
  <path
     d="m 140.96155,21.593752 81.2052,0 c 0.12593,21.948229 0.036,43.878796 0.0539,65.827025 14.11013,0 28.20224,0 42.29436,0 0.23397,-21.948229 -0.48592,-43.91414 0.35997,-65.827025 l 85.92058,0 c 0.25194,64.20122 0.036,128.420118 0.10803,192.621338 -28.7962,0 -57.59235,0 -86.38854,0 0,-23.41498 0,-46.82996 0,-70.24493 -14.09212,0 -28.20224,0 -42.29436,0 0.0177,23.41497 0,46.82995 0,70.24493 -27.1404,0 -54.29878,0 -81.43917,0 0.12597,-64.20122 -0.25197,-128.420118 0.17997,-192.621338 z"
     id="path6"
     inkscape:connector-curvature="0"
     style="fill:#023f2a" />
  <path
     d="m 421.97618,21.593752 119.59409,0 c 0.23397,17.371264 0.0539,34.76021 0.10803,52.131474 -27.62633,-0.01804 -55.23464,0.03528 -82.86098,-0.03528 -3.72551,0.08841 -7.93696,0.07077 -10.83457,2.739098 -6.62311,5.725641 -3.65352,18.855694 5.48928,20.057352 23.75684,1.57278 49.22345,-3.551996 71.43251,7.192394 15.22596,7.12169 23.86482,23.13223 25.77256,39.07209 l 0,26.08339 c -1.74576,11.38058 -5.9392,22.97319 -14.72204,30.99613 -11.2665,10.72673 -27.59034,14.13735 -42.8163,14.38476 -41.26852,0 -82.53704,0 -123.78756,0 0,-17.22989 0,-34.45978 0,-51.68967 28.05828,0.018 56.13455,-0.0529 84.21081,0.0529 4.40942,-0.0353 9.34076,0.0884 12.86829,-2.98653 6.73111,-5.70794 3.31156,-18.74964 -5.70524,-19.84529 -23.88282,-1.41375 -49.97936,3.44597 -71.70246,-8.94187 -16.95376,-9.27764 -24.7827,-29.01691 -24.71072,-47.324771 -0.84589,-17.565643 3.81549,-36.880805 18.15958,-48.508765 10.90654,-9.277623 25.57461,-12.052084 39.50476,-13.377459 z"
     id="path10"
     inkscape:connector-curvature="0"
     style="fill:#023f2a" />
  <path
     d="m 31.522039,23.944091 c 5.133423,0.236078 10.286592,0.275431 15.420012,0.826294 -14.162967,8.402513 -6.405369,1.423727 -14.827693,12.335254 -0.236927,-4.387196 -0.335648,-8.774372 -0.592319,-13.161548 z"
     id="path14"
     inkscape:connector-curvature="0"
     style="fill:#ea5045;fill-opacity:1"
     sodipodi:nodetypes="cccc" />
  <path
     d="m 55.453701,24.209178 c 8.548865,0 14.633273,-0.247405 23.16414,0.282728 C 44.736643,31.282847 37.731747,47.160399 31.770069,71.816672 31.46411,62.963173 31.698089,57.457612 31.590098,48.586431 34.308272,32.749917 51.307295,26.035818 55.453707,24.209178 Z"
     id="path16"
     inkscape:connector-curvature="0"
     style="fill:#ea5045;fill-opacity:1"
     sodipodi:nodetypes="ccccc" />
  <path
     d="m 91.954067,25.128091 c 8.188913,-2.721436 16.953743,-1.484411 25.430613,-1.767159 0,63.759414 0,127.536508 0,191.295958 -28.796165,0 -57.592337,0 -86.388508,0 0.07198,-37.23424 -0.161986,-74.48616 0.107991,-111.73806 C 31.392125,83.939443 38.195221,64.995399 50.99152,50.663684 61.664098,38.399519 76.170168,29.528338 91.954071,25.128091 Z"
     id="path18"
     inkscape:connector-curvature="0"
     style="fill:#023f2a" />
  <path
     d="m 28.836459,254.63023 c 0.107991,-1.83786 0.21597,-3.65805 0.341956,-5.49589 12.076393,0.10605 24.152787,0.0531 36.24718,0.0353 0.07198,1.8025 0.125977,3.60502 0.197973,5.40753 -5.327292,-0.0181 -10.654583,-0.0181 -15.999873,-0.0882 0.07198,13.34209 -0.0179,26.66655 0.054,40.00868 -1.565791,0.018 -4.679377,0.0353 -6.245169,0.0353 0.07198,-13.34214 -0.03601,-26.68423 0.054,-40.02637 -4.877351,0.0529 -9.772701,0.0529 -14.650052,0.12369 z"
     id="path20"
     inkscape:connector-curvature="0"
     style="fill:#023f2a" />
  <path
     d="m 287.15611,250.9545 c 2.71764,-2.5447 6.62312,-2.33264 10.07865,-2.91582 0.0177,1.41375 0.0539,4.27656 0.0899,5.69028 -1.25987,0.0884 -3.74354,0.28275 -5.00336,0.3711 -0.23396,2.17364 -0.46793,4.36492 -0.7019,6.55623 2.95161,0.77753 5.50726,2.31497 6.87507,5.14244 -1.65577,0.12369 -4.96734,0.37112 -6.62311,0.49481 0.036,9.36599 -0.0177,18.74966 0.036,28.11565 -1.83576,0.0529 -3.67151,0.1237 -5.50728,0.19426 0.054,-9.48966 -0.036,-18.97937 0.0899,-28.46907 -1.27784,0.0353 -3.8515,0.10605 -5.12933,0.15918 0.0177,-1.20168 0.0539,-3.62271 0.0539,-4.82437 1.22383,0.0529 3.67151,0.12349 4.89534,0.15917 0.16194,-3.552 -0.17985,-7.21005 0.8459,-10.6737 z"
     id="path22"
     inkscape:connector-curvature="0"
     style="fill:#023f2a" />
  <path
     d="m 517.84941,250.15928 c 1.81777,-0.45945 3.63553,-0.91893 5.4713,-1.36072 0.072,5.42521 0.0539,10.85042 0,16.27561 5.52526,-5.37216 17.06172,-6.83893 20.93119,1.11334 1.60182,9.34831 0.30599,18.9617 0.71992,28.41604 -1.83574,-0.0706 -3.67151,-0.14133 -5.48926,-0.19426 -0.32398,-8.53542 0.86386,-17.22989 -0.73792,-25.67696 -2.75363,-5.3015 -9.7007,-2.24429 -13.75015,-0.22975 -1.76379,8.58843 -1.83577,17.37129 -1.60181,26.10107 -1.83574,-0.0706 -3.67151,-0.14133 -5.50725,-0.19426 0,-14.75586 0.0899,-29.49405 -0.0361,-44.24991 z"
     id="path24"
     inkscape:connector-curvature="0"
     style="fill:#023f2a" />
  <path
     d="m 353.69325,252.03247 c 1.99773,-0.0531 3.99547,-0.10605 5.9932,-0.15918 -0.072,3.1279 -0.12593,6.27346 -0.17985,9.41902 1.81776,-0.0882 3.65351,-0.15918 5.48927,-0.22972 0,1.30771 0,3.95844 0,5.28381 -1.81776,-0.0882 -3.63552,-0.15917 -5.45328,-0.2474 0.072,7.81089 0.072,15.62178 0,23.45034 1.83577,0.12349 3.67151,0.26505 5.50728,0.40644 -0.0539,1.29003 -0.16195,3.87009 -0.21598,5.16012 -3.7615,-0.6185 -9.55672,0.86591 -10.74456,-4.01146 -0.8279,-8.30569 -0.10803,-16.7174 -0.32397,-25.05845 -1.09785,0.0884 -3.27557,0.26507 -4.37342,0.35344 0,-1.66115 0.0177,-3.3046 0.0361,-4.94806 1.07986,0.0529 3.27555,0.12369 4.3554,0.15897 -0.036,-3.19856 -0.0539,-6.37945 -0.0899,-9.57805 z"
     id="path26"
     inkscape:connector-curvature="0"
     style="fill:#023f2a" />
  <path
     d="m 499.47387,252.03247 c 1.99773,-0.0531 3.97746,-0.10605 5.9932,-0.15918 -0.072,3.1279 -0.12594,6.27346 -0.17985,9.41902 1.81775,-0.0882 3.65352,-0.15918 5.48926,-0.24741 0,1.3254 0,3.97613 0.0177,5.3015 -1.83576,-0.0882 -3.65352,-0.15917 -5.47126,-0.2474 0.072,7.81089 0.072,15.63945 0,23.45034 1.83574,0.12349 3.67151,0.26505 5.52526,0.40644 -0.072,1.29003 -0.17985,3.87009 -0.23397,5.14246 -3.7615,-0.5655 -9.61071,0.84823 -10.76258,-4.04683 -0.79189,-8.30568 -0.0899,-16.68205 -0.30595,-25.00542 -1.09785,0.0884 -3.27556,0.26507 -4.37343,0.35344 0,-1.66115 0.0177,-3.3046 0.0361,-4.9304 1.07985,0.0353 3.27555,0.10605 4.3554,0.14133 -0.036,-3.19856 -0.0539,-6.37945 -0.0899,-9.57803 z"
     id="path28"
     inkscape:connector-curvature="0"
     style="fill:#023f2a" />
  <path
     d="m 71.040846,261.29245 c 5.075327,-1.02496 11.104527,-1.04265 15.117993,2.70375 6.749102,5.40755 6.137182,15.32136 3.923478,22.72579 -3.293564,10.10821 -18.14159,12.21114 -25.412622,5.17781 -7.415015,-9.0479 -5.741237,-26.31313 6.371151,-30.60735 z"
     id="path30"
     inkscape:connector-curvature="0"
     style="fill:#023f2a" />
  <path
     d="m 146.48681,264.33198 c 6.0112,-5.37219 16.91775,-4.70066 21.8131,1.82018 2.86162,4.02913 2.59165,9.18928 2.48367,13.87227 -5.38129,-0.0353 -10.76257,-0.0529 -16.14386,-0.31809 -2.82562,0.14133 -5.63325,0.35344 -8.44087,0.67153 0.95387,2.82746 1.96174,5.63725 2.95161,8.46474 3.11358,0.77754 6.20917,2.58006 9.52073,1.8025 3.09559,-1.23703 5.03933,-4.06449 7.19904,-6.43249 1.42182,0 4.28344,0.018 5.72324,0.018 -2.32169,4.27657 -4.91335,9.2953 -10.09665,10.6737 -7.75698,3.14558 -17.52968,-1.237 -19.79738,-9.25996 -1.63777,-7.24539 -1.25983,-16.04587 4.78737,-21.31204 z"
     id="path32"
     inkscape:connector-curvature="0"
     style="fill:#023f2a" />
  <path
     d="m 182.51802,266.36422 c 3.0056,-2.98652 6.73111,-5.05411 10.70858,-6.46783 0.23397,2.03222 0.48592,4.06447 0.71989,6.1144 -3.88748,1.13097 -9.17877,1.83785 -10.18663,6.52084 -1.24184,7.22771 -0.26997,14.70285 -0.50395,22.03658 -1.47581,-0.0353 -4.4274,-0.0882 -5.9032,-0.12349 0,-10.65603 0.12597,-21.32971 -0.072,-31.98573 1.40381,-0.31809 4.21145,-0.97196 5.61525,-1.29005 -0.09,1.29005 -0.26996,3.88777 -0.37795,5.19549 z"
     id="path34"
     inkscape:connector-curvature="0"
     style="fill:#023f2a" />
  <path
     d="m 203.37724,261.91095 c 7.91896,-3.64035 18.19558,-0.84822 21.54314,7.52815 -1.43982,0.53015 -4.30142,1.62578 -5.74124,2.15594 -0.95388,-1.80251 -1.92574,-3.62269 -2.87962,-5.42519 -3.99548,-0.28275 -8.00895,-0.22975 -11.98641,0.12389 -0.054,1.6258 -0.12594,4.87737 -0.16195,6.50318 6.31717,2.31497 13.57022,2.70377 19.13149,6.66221 2.30367,3.92312 2.23168,9.91381 -1.5298,13.00637 -4.73337,4.3649 -12.20238,4.09983 -18.05161,2.368 -4.85936,-1.43141 -5.97522,-6.75059 -7.68498,-10.76206 1.92572,-0.14133 3.86948,-0.26506 5.81322,-0.38878 1.49381,2.20897 2.28572,5.28384 5.07533,6.3088 3.63551,1.85551 7.63099,-0.018 11.30251,-0.79524 0.57591,-1.30769 1.72775,-3.88777 2.30369,-5.1778 -6.44314,-4.87738 -15.98188,-3.28692 -21.61513,-9.27762 -1.94374,-4.70066 -0.23397,-10.46165 4.48138,-12.82965 z"
     id="path36"
     inkscape:connector-curvature="0"
     style="fill:#023f2a" />
  <path
     d="m 256.45219,261.46917 c 7.05504,-2.17362 15.99987,-0.12369 19.45542,6.80359 2.95161,7.06868 2.71763,15.9222 -1.94376,22.24864 -6.55113,8.50008 -22.44302,6.98033 -26.16852,-3.44597 -2.60965,-9.01256 -1.49379,-21.63014 8.65686,-25.60626 z"
     id="path38"
     inkscape:connector-curvature="0"
     style="fill:#023f2a" />
  <path
     d="m 322.10744,263.67811 c 7.88296,-6.55618 23.28892,-3.41062 23.97281,8.09364 -3.6355,-0.38878 -6.92906,-2.1736 -8.8008,-5.30151 -4.48143,-0.67151 -13.48022,-2.36798 -12.41836,4.70067 5.12931,5.1248 13.58818,3.67572 19.27542,7.93459 4.62541,4.73602 1.67378,13.67789 -4.46339,15.69245 -5.16532,1.59046 -11.12253,1.83785 -16.05386,-0.60084 -3.88749,-1.94388 -4.6614,-6.57387 -6.26317,-10.12587 1.69178,-0.10605 5.07533,-0.28275 6.76709,-0.37109 0.28796,1.32535 0.88187,3.99378 1.18784,5.31916 5.02134,2.1913 10.29463,1.90855 15.24397,-0.33576 0.072,-1.50209 0.19798,-4.52394 0.25198,-6.02603 -7.25303,-2.52706 -15.36995,-3.18092 -21.50714,-8.16433 0.26995,-3.69337 -0.10804,-7.95225 2.80761,-10.81508 z"
     id="path40"
     inkscape:connector-curvature="0"
     style="fill:#023f2a" />
  <path
     d="m 377.07215,266.27586 c 3.20357,-2.75678 6.78511,-5.07178 10.81657,-6.4855 0.26996,2.12059 0.55791,4.25887 0.84587,6.39715 -4.10345,0.8129 -9.55673,1.53743 -10.4746,6.43247 -1.45782,7.19239 -0.37795,14.64985 -0.62993,21.94823 -1.47581,-0.0353 -4.42739,-0.0882 -5.9032,-0.12349 0.0177,-10.67369 0.10803,-21.34739 -0.072,-32.02107 1.38582,-0.3181 4.15745,-0.93662 5.54328,-1.25471 -0.036,1.27237 -0.10803,3.83477 -0.12595,5.10712 z"
     id="path42"
     inkscape:connector-curvature="0"
     style="fill:#023f2a" />
  <path
     d="m 394.87178,266.20519 c 5.43528,-7.21005 18.08758,-7.36911 23.54086,-0.12369 2.75365,4.02915 2.96961,9.18927 2.60965,13.88995 -8.20689,0.0353 -16.41381,-0.1239 -24.62072,0.17661 0.91788,2.91584 1.90775,5.79631 2.87961,8.69449 3.11361,0.75987 6.22718,2.56238 9.53873,1.8025 3.1136,-1.21934 5.05735,-4.06449 7.21705,-6.43249 1.43982,0 4.30144,0.018 5.72324,0.018 -2.57366,5.19549 -6.55113,11.48661 -13.35422,11.00946 -6.69512,1.21936 -13.85816,-1.96154 -16.12585,-8.53541 -2.03374,-6.66224 -1.97975,-14.7912 2.59165,-20.49914 z"
     id="path44"
     inkscape:connector-curvature="0"
     style="fill:#023f2a" />
  <path
     d="m 94.185771,262.26439 c 2.285694,-0.0353 4.571392,-0.0531 6.857089,-0.0708 1.87175,8.16433 3.85148,16.31098 6.33515,24.31625 2.2677,-8.3057 3.97747,-16.75276 6.42514,-25.00544 1.5658,0 4.69738,0.018 6.28117,0.0353 2.14172,8.30569 4.04946,16.69974 6.82109,24.84639 1.97974,-7.31609 3.59953,-14.73818 5.83122,-21.98357 0.39595,-3.14556 3.90549,-2.75678 6.22718,-3.41063 -2.59166,11.4159 -6.53313,22.49604 -9.46675,33.82359 -2.03372,0.018 -4.04946,0.0353 -6.08318,0.0706 -2.23171,-8.60611 -4.85936,-17.12386 -6.65912,-25.85366 -2.39368,8.57075 -4.55339,17.17686 -6.7851,25.76529 -2.01572,0.018 -4.01346,0.0529 -6.02918,0.0884 -3.20358,-10.88574 -6.209181,-21.8422 -9.754709,-32.62191 z"
     id="path46"
     inkscape:connector-curvature="0"
     style="fill:#023f2a" />
  <path
     d="m 427.1235,262.03467 c 2.01573,0.12349 4.04946,0.26506 6.06517,0.40644 l -1.31381,3.3753 c 5.72324,-5.58427 18.86148,-7.72255 21.92108,1.5551 1.79977,9.03021 0.32397,18.36088 0.86389,27.51479 -1.99774,0 -3.97747,-0.018 -5.95721,0 -0.32395,-9.50734 1.43979,-19.3328 -1.74576,-28.50441 -5.57928,-1.13098 -10.72659,0.49481 -13.93018,5.23081 -0.0177,7.63419 -0.0539,15.26835 0,22.9025 -1.45777,0 -4.40939,0 -5.86719,0 0.0177,-10.83272 0.072,-21.66548 -0.036,-32.48053 z"
     id="path48"
     inkscape:connector-curvature="0"
     style="fill:#023f2a" />
  <path
     d="m 465.18842,264.52638 c 4.80538,-5.01877 12.20238,-3.39297 17.99762,-1.30771 2.21369,-0.53016 4.44542,-1.06031 6.65911,-1.5728 -0.14384,11.39825 0.34196,22.81415 -0.16194,34.19471 -0.0899,5.38987 -3.50953,10.21424 -8.71085,12.03442 l -13.28222,0 c -2.57367,-2.315 -4.89536,-4.85971 -7.19906,-7.40445 1.52979,-0.56548 4.58941,-1.71416 6.11921,-2.27963 0.98985,1.66115 1.97973,3.33996 2.98758,5.01875 3.45557,0.21206 6.9111,0.33575 10.38463,0.45948 2.86162,-3.64039 4.26545,-8.00529 5.41727,-12.40552 -6.40713,4.04679 -16.08987,5.83166 -21.52514,-0.72453 -5.61523,-7.42213 -4.80536,-19.06776 1.31383,-26.01272 z"
     id="path50"
     inkscape:connector-curvature="0"
     style="fill:#023f2a" />
  <path
     d="m 69.547047,268.13138 c 3.725506,-4.54162 11.806429,-3.65803 14.43408,1.53744 3.455541,7.03333 1.493802,15.85151 -3.941475,21.41808 -3.383552,-0.44179 -7.397018,0.19446 -10.096658,-2.33266 -5.03933,-5.6726 -4.805361,-14.68515 -0.395947,-20.62286 z"
     id="path52"
     inkscape:connector-curvature="0"
     style="fill:#ffffff" />
  <path
     d="m 149.02447,268.39647 c 2.87962,-1.39606 5.86722,-3.26925 9.25077,-2.54472 4.98534,0.28273 6.19118,5.76095 8.09892,9.33065 -6.56912,0.21204 -13.13825,0.15918 -19.70738,0.14133 0.7919,-2.29729 1.5838,-4.61228 2.35769,-6.92728 z"
     id="path54"
     inkscape:connector-curvature="0"
     style="fill:#ffffff" />
  <path
     d="m 255.22834,268.62619 c 3.0596,-4.736 8.87282,-3.19858 13.42621,-1.92621 1.5478,3.60502 2.75365,7.31606 3.81551,11.08014 -1.56581,5.03644 -2.80765,13.13008 -9.71873,13.14774 -11.35647,0.37112 -12.49033,-15.1623 -7.52299,-22.30167 z"
     id="path56"
     inkscape:connector-curvature="0"
     style="fill:#ffffff" />
  <path
     d="m 396.36559,275.20006 c 1.85375,-4.27655 4.49938,-10.21424 10.31261,-9.43668 5.86722,-0.8129 7.97294,5.2485 9.8627,9.41902 -6.7311,0.21204 -13.46221,0.22972 -20.17531,0.018 z"
     id="path58"
     inkscape:connector-curvature="0"
     style="fill:#ffffff" />
  <path
     d="m 466.61025,274.19278 c 0.036,-4.41793 3.67151,-8.78283 8.45887,-8.27034 5.14731,-0.74222 7.39702,4.38256 9.7007,7.8639 -0.64791,5.31916 -0.21596,12.08743 -5.50726,15.35668 -3.0596,1.02494 -6.80311,1.27235 -9.62872,-0.51247 -3.97746,-3.72874 -3.34756,-9.5604 -3.02359,-14.43777 z"
     id="path60"
     inkscape:connector-curvature="0"
     style="fill:#ffffff" />
</svg>
