<?xml version="1.0" encoding="utf-8"?>
<!-- Generator: Adobe Illustrator 17.0.0, SVG Export Plug-In . SVG Version: 6.00 Build 0)  -->
<!DOCTYPE svg PUBLIC "-//W3C//DTD SVG 1.1//EN" "http://www.w3.org/Graphics/SVG/1.1/DTD/svg11.dtd">
<svg version="1.1" xmlns="http://www.w3.org/2000/svg" xmlns:xlink="http://www.w3.org/1999/xlink" x="0px" y="0px" width="256px"
	 height="256px" viewBox="0 0 256 256" enable-background="new 0 0 256 256" xml:space="preserve">
<g id="image">
</g>
<g id="Layer_2">
	<radialGradient id="SVGID_1_" cx="127" cy="127.6666" r="87" gradientUnits="userSpaceOnUse">
		<stop  offset="0.7586" style="stop-color:#0081D4"/>
		<stop  offset="1" style="stop-color:#0068AA"/>
	</radialGradient>
	<path fill="url(#SVGID_1_)" stroke="#015491" stroke-width="2" stroke-miterlimit="10" d="M127.151,182.996
		c-0.051,0-0.1,0.004-0.151,0.004c-30.836,0-55.833-24.997-55.833-55.833c0-30.836,24.997-55.833,55.833-55.833
		s55.833,24.997,55.833,55.833c0,16.472-7.137,31.274-18.482,41.493l22.717,21.941C203.662,174.758,214,152.42,214,127.667
		c0-48.049-38.951-87-87-87s-87,38.951-87,87c0,48.049,38.951,87,87,87c0.085,0,0.169-0.003,0.253-0.003L127.151,182.996z"/>
</g>
<g id="Layer_3">
	<linearGradient id="SVGID_2_" gradientUnits="userSpaceOnUse" x1="168.3847" y1="232.5712" x2="138.6648" y2="150.9164">
		<stop  offset="0" style="stop-color:#A8ACB0"/>
		<stop  offset="1" style="stop-color:#C6CBCF"/>
	</linearGradient>
	<path fill="url(#SVGID_2_)" stroke="#A7ACB0" stroke-width="2" stroke-miterlimit="10" d="M135.917,151.917v85.667
		c0,0,38,4.333,59-26.333L135.917,151.917z"/>
</g>
</svg>
