<?xml version="1.0" encoding="utf-8"?>
<!-- Generator: Adobe Illustrator 18.1.1, SVG Export Plug-In . SVG Version: 6.00 Build 0)  -->
<!DOCTYPE svg PUBLIC "-//W3C//DTD SVG 1.1//EN" "http://www.w3.org/Graphics/SVG/1.1/DTD/svg11.dtd">
<svg version="1.1" id="Layer_1" xmlns="http://www.w3.org/2000/svg" xmlns:xlink="http://www.w3.org/1999/xlink" x="0px" y="0px"
	 viewBox="0 0 256 256" enable-background="new 0 0 256 256" xml:space="preserve">
<radialGradient id="SVGID_1_" cx="119.2061" cy="163.8477" r="67.2244" gradientTransform="matrix(1 0 0 1.171 0 -55.8638)" gradientUnits="userSpaceOnUse">
	<stop  offset="0" style="stop-color:#0081D4"/>
	<stop  offset="1" style="stop-color:#0068AA"/>
</radialGradient>
<path fill="url(#SVGID_1_)" stroke="#015491" stroke-miterlimit="10" d="M162.736,70.767l0.078-14.128h23.061v158.737H52.538V56.661
	h21.593l0.126,14.124c0.027,2.984,3.453,5.389,6.437,5.389h76.605C160.29,76.174,162.719,73.758,162.736,70.767z"/>
<g>
	<g>
		<path fill="#FFFFFF" d="M69.41,189.293c0,1.65,1.35,3,3,3h92.849c1.65,0,3-1.35,3-3V66.221c0-1.65-1.35-3-3-3H72.41
			c-1.65,0-3,1.35-3,3V189.293z"/>
		<path fill="none" stroke="#015491" stroke-miterlimit="10" d="M69.41,189.293c0,1.65,1.35,3,3,3h92.849c1.65,0,3-1.35,3-3V66.221
			c0-1.65-1.35-3-3-3H72.41c-1.65,0-3,1.35-3,3V189.293z"/>
	</g>
	
		<radialGradient id="SVGID_2_" cx="725.6782" cy="95.2944" r="9.7024" gradientTransform="matrix(2.6476 0 0 1 -1803.0198 0)" gradientUnits="userSpaceOnUse">
		<stop  offset="0" style="stop-color:#0081D4"/>
		<stop  offset="1" style="stop-color:#0068AA"/>
	</radialGradient>
	<rect x="82.376" y="93.241" fill="url(#SVGID_2_)" stroke="#015491" stroke-miterlimit="10" width="71.839" height="4.107"/>
	
		<radialGradient id="SVGID_3_" cx="612.3214" cy="119.5147" r="9.7024" gradientTransform="matrix(2.0116 0 0 1 -1122.0885 0)" gradientUnits="userSpaceOnUse">
		<stop  offset="0" style="stop-color:#0081D4"/>
		<stop  offset="1" style="stop-color:#0068AA"/>
	</radialGradient>
	<rect x="82.376" y="117.461" fill="url(#SVGID_3_)" stroke="#015491" stroke-miterlimit="10" width="54.582" height="4.107"/>
	
		<radialGradient id="SVGID_4_" cx="725.6782" cy="107.4321" r="9.7024" gradientTransform="matrix(2.6476 0 0 1 -1803.0198 0)" gradientUnits="userSpaceOnUse">
		<stop  offset="0" style="stop-color:#0081D4"/>
		<stop  offset="1" style="stop-color:#0068AA"/>
	</radialGradient>
	<rect x="82.376" y="105.379" fill="url(#SVGID_4_)" stroke="#015491" stroke-miterlimit="10" width="71.839" height="4.107"/>
	<path fill="#FFFFFF" stroke="#015491" stroke-width="2" stroke-miterlimit="10" d="M99.48,99.663"/>
</g>
<radialGradient id="SVGID_5_" cx="118.597" cy="57.5917" r="27.8083" gradientUnits="userSpaceOnUse">
	<stop  offset="0" style="stop-color:#0081D4"/>
	<stop  offset="1" style="stop-color:#0068AA"/>
</radialGradient>
<path fill="url(#SVGID_5_)" stroke="#015491" stroke-miterlimit="10" d="M102.565,55.075c0-5.614,6.529-14.076,16.276-14.076
	s15.27,8.463,15.27,14.116l20.141,0.018V70.56c0,2.002-1.623,3.625-3.625,3.625H86.579c-2.002,0-3.625-1.623-3.625-3.625
	l-0.012-15.476L102.565,55.075z M118.901,48.092c-3.707,0-7.553,2.631-7.666,7.282c-0.109,4.492,3.444,7.755,7.731,7.755
	c4.359,0,7.313-3.123,7.251-7.409C126.147,51.007,122.607,48.092,118.901,48.092z"/>
<g>
	<g>
		<polygon fill="#FFFFFF" stroke="#FFFFFF" stroke-miterlimit="10" points="190.096,96.546 126.171,145.851 108.391,185.253 
			153.142,173.79 213.385,125.255 		"/>
	</g>
	<circle fill="#FFFFFF" stroke="#015491" stroke-miterlimit="10" cx="127.75" cy="168.25" r="29.75"/>
	<g>
		
			<radialGradient id="SVGID_6_" cx="188.6424" cy="204.4937" r="45.9236" gradientTransform="matrix(0.9947 0.1028 -0.1028 0.9947 -1.4481 -82.7124)" gradientUnits="userSpaceOnUse">
			<stop  offset="0" style="stop-color:#0081D4"/>
			<stop  offset="1" style="stop-color:#0068AA"/>
		</radialGradient>
		<path fill="url(#SVGID_6_)" stroke="#015491" stroke-miterlimit="10" d="M212.99,115.003L200.49,99.219
			c-1.53-1.886-4.474-2.145-6.373-0.63l-66.476,52.645l-13.194,29.404l31.316-6.711l66.634-52.803
			C214.295,119.608,214.521,116.89,212.99,115.003z M145.867,173.658l-18.299,4.058l-7.423-9.522l7.742-16.648
			c10.502,1.219,8.905,11.455,8.905,11.455S146.926,163.41,145.867,173.658z"/>
		<path fill="#FFFFFF" stroke="#015491" stroke-miterlimit="10" d="M136.793,163.001c0,0,1.596-10.236-8.905-11.455l-7.742,16.648
			l7.423,9.522l18.299-4.058C146.926,163.41,136.793,163.001,136.793,163.001z"/>
	</g>
</g>
</svg>
