<svg xmlns:dc="http://purl.org/dc/elements/1.1/" xmlns:cc="http://creativecommons.org/ns#" xmlns:rdf="http://www.w3.org/1999/02/22-rdf-syntax-ns#" xmlns:svg="http://www.w3.org/2000/svg" xmlns="http://www.w3.org/2000/svg" xmlns:sodipodi="http://sodipodi.sourceforge.net/DTD/sodipodi-0.dtd" xmlns:inkscape="http://www.inkscape.org/namespaces/inkscape" width="256" height="256" viewBox="0 0 256 256" version="1" inkscape:version="1" sodipodi:docname="indigent.svg"><metadata><rdf:RDF><cc:Work rdf:about=""><dc:format>image/svg+xml</dc:format><dc:type rdf:resource="http://purl.org/dc/dcmitype/StillImage"/></cc:Work></rdf:RDF></metadata><defs><filter inkscape:label="Light Eraser" color-interpolation-filters="sRGB"><feColorMatrix values="1" result="colormatrix"/><feComposite in2="colormatrix" operator="arithmetic" k2="1" result="composite"/></filter></defs><sodipodi:namedview pagecolor="#ffffff" bordercolor="#666666" borderopacity="1" objecttolerance="10" gridtolerance="10" guidetolerance="10" inkscape:pageopacity="0" inkscape:pageshadow="2" inkscape:window-width="640" inkscape:window-height="480" showgrid="false" inkscape:zoom="1" inkscape:cx="160" inkscape:cy="160" inkscape:window-x="0" inkscape:window-y="0" inkscape:window-maximized="0" inkscape:current-layer="svg2"/><path fill="#025593" d="M123 39C131 40 138 40 145 41 150 41 155 44 159 47 162 48 163 51 163 54 166 54 169 55 169 58 168 61 165 63 163 66 166 66 170 65 171 69 172 72 169 74 166 75 168 76 171 77 171 79 172 82 169 84 167 85 168 86 169 87 170 88 170 90 169 91 168 93 170 97 174 100 179 101 183 103 187 107 190 111 196 107 203 104 209 100 212 109 214 118 213 127 213 131 214 136 211 139 210 142 208 142 206 143 206 145 206 148 204 149 201 151 197 150 195 147 195 150 195 153 192 154 189 155 187 154 185 152 185 154 184 157 182 157 179 158 177 156 176 154 176 155 175 157 175 158 173 159 171 158 169 158 166 162 165 167 166 172 166 177 163 180 161 184 160 183 159 182 157 181 164 187 170 193 176 200 167 206 157 213 146 214 142 215 138 212 135 210 133 210 130 211 128 209 126 207 128 205 129 202 128 202 128 201 127 201 125 202 121 203 120 200 118 198 120 196 121 194 119 194 115 195 114 192 113 190 115 188 116 186 114 186 112 187 111 186 110 184 110 182 110 180 108 178 105 177 102 178 95 180 88 181 81 179 78 186 75 192 72 198 64 193 56 186 51 178 49 173 47 167 49 162 48 161 46 159 47 156 49 154 52 153 55 153 53 151 51 148 53 146 54 144 58 143 60 144 60 142 58 140 59 138 60 135 63 136 66 136 65 134 64 132 65 130 67 130 68 129 69 129 69 125 70 121 67 118 64 114 62 108 61 103 62 103 64 103 66 103 64 102 62 101 60 101 54 101 47 100 41 99 44 89 48 78 56 70 59 68 61 67 64 65 65 66 66 66 67 66 69 64 71 61 74 62 77 63 76 67 79 69 80 67 82 64 85 64 88 65 88 68 88 70 90 69 92 67 95 68 97 69 97 72 97 74 98 73 99 71 101 72 105 72 104 78 108 77 111 75 113 72 115 69 118 65 123 63 127 60 128 61 128 62 129 63 129 60 127 58 127 56 126 51 124 45 123 39Z"/><path fill="#027fcf" d="M126 41C135 42 146 41 155 46 158 48 161 50 162 54 151 55 141 60 131 65 129 57 127 49 126 41Z"/><path fill="#027fcf" d="M141 62C148 59 154 57 161 56 163 56 166 55 167 58 165 61 163 63 161 66 163 68 166 68 169 69 169 71 166 73 164 74 166 76 167 78 169 79 169 82 165 83 164 86 165 87 167 88 168 90 159 95 150 99 140 100 129 103 117 104 106 103 106 95 106 87 105 80 110 79 113 76 116 72 119 68 123 65 126 63 127 65 128 66 129 67 133 66 137 64 141 62Z"/><path fill="#027fcf" d="M69 69C69 66 72 64 74 63 75 71 74 79 74 87 75 86 77 85 78 84 80 79 80 74 82 69 82 67 84 67 85 66 86 68 86 70 88 72 90 72 91 71 93 70 95 71 96 74 97 76 98 75 100 75 102 74 103 78 103 82 104 85 104 92 104 99 103 106 101 116 98 126 95 136 87 133 79 131 71 130 71 125 71 121 69 117 66 114 64 110 63 105 65 104 69 103 68 100 69 90 67 79 69 69Z"/><path fill="#027fcf" d="M59 71C61 69 64 68 67 67 66 78 66 89 66 100 59 100 51 99 43 97 47 88 51 78 59 71Z"/><path fill="#027fcf" d="M77 71C77 70 79 70 79 69 79 74 77 78 76 82 76 79 76 75 77 71Z"/><path fill="#027fcf" d="M155 98C158 97 162 95 166 93 168 97 170 100 174 101 179 103 183 106 187 109 186 111 185 112 184 114 191 123 198 132 203 142 203 144 205 146 203 147 200 149 196 145 193 146 192 148 192 151 191 153 189 152 187 151 185 150 184 152 183 154 181 155 179 154 177 153 174 151 174 153 173 155 173 157 165 151 158 142 154 133 150 123 143 113 144 102 147 101 151 100 155 98Z"/><path fill="#ffffff" d="M105 105C118 106 130 105 142 102 142 114 148 124 153 134 144 141 135 148 127 156 122 153 118 149 113 146 108 143 102 140 97 137 100 127 103 116 105 105Z"/><path fill="#027fcf" d="M188 114C194 111 201 107 208 103 211 114 212 124 211 135 211 138 208 141 205 141 202 137 201 133 198 129 194 124 191 119 188 114Z"/><path fill="#027fcf" d="M187 111C191 110 187 115 186 112 186 112 187 111 187 111Z"/><path fill="#027fcf" d="M67 132C81 132 93 138 105 144 112 147 118 152 124 157 121 161 118 166 115 170 113 172 112 174 109 175 106 176 102 175 99 176 94 178 89 178 85 178 84 176 84 174 84 173 79 171 75 170 70 169 62 166 54 164 48 158 51 156 54 155 57 153 57 151 55 149 55 146 58 146 60 146 62 145 62 143 62 141 61 138 63 138 66 139 67 137 68 136 67 134 67 132Z"/><path fill="#027fcf" d="M121 167C130 155 142 145 154 136 157 144 162 150 168 156 166 160 164 164 164 168 164 172 163 177 161 181 159 180 157 178 155 180 149 188 144 197 137 205 135 208 132 209 129 208 129 207 129 206 130 205 132 201 137 197 139 193 139 191 138 190 136 190 132 192 129 197 125 199 124 200 122 201 121 199 121 197 122 195 123 193 120 192 118 192 116 192 116 189 117 187 117 184 115 184 113 184 112 184 113 178 117 172 121 167Z"/><path fill="#027fcf" d="M51 164C61 168 71 172 81 174 78 181 75 188 71 195 63 190 56 183 52 175 50 171 49 167 51 164Z"/><path fill="#027fcf" d="M137 209C144 201 149 191 156 183 162 188 167 193 173 199 164 205 156 212 145 212 142 213 139 211 137 209Z"/><path fill="#027fcf" d="M129 199C131 196 133 195 136 193 134 196 133 199 130 201 129 200 129 200 129 199Z"/></svg>