<?xml version="1.0" encoding="utf-8"?>
<!-- Generator: Adobe Illustrator 19.1.0, SVG Export Plug-In . SVG Version: 6.00 Build 0)  -->
<!DOCTYPE svg PUBLIC "-//W3C//DTD SVG 1.1//EN" "http://www.w3.org/Graphics/SVG/1.1/DTD/svg11.dtd">
<svg version="1.1" id="Layer_1" xmlns="http://www.w3.org/2000/svg" xmlns:xlink="http://www.w3.org/1999/xlink" x="0px" y="0px"
	 viewBox="-273 396.9 48 48" style="enable-background:new -273 396.9 48 48;" xml:space="preserve">
<style type="text/css">
	.st0{fill:#FFFFFF;}
	.st1{fill:#949494;}
</style>
<g>
	<path class="st0" d="M-235.7,419.5c-0.1-0.9-0.3-1.8-0.5-2.6c-0.1-0.4-0.3-0.8-0.5-1.2c-0.3-0.8-0.8-1.6-1.2-2.3
		c-2.4-3.6-6.5-5.9-11.1-5.9s-8.7,2.3-11.1,5.9c-0.5,0.7-0.9,1.5-1.2,2.3c-0.2,0.4-0.3,0.8-0.5,1.2c-0.3,0.8-0.4,1.7-0.5,2.6
		c0,0.5-0.1,0.9-0.1,1.4c0,1.4,0.2,2.7,0.6,4c0.1,0.4,0.3,0.8,0.5,1.2c0.3,0.8,0.8,1.6,1.2,2.3c2.4,3.6,6.5,5.9,11.1,5.9
		s8.7-2.3,11.1-5.9c0.5-0.7,0.9-1.5,1.2-2.3c0.2-0.4,0.3-0.8,0.5-1.2c0.4-1.3,0.6-2.6,0.6-4C-235.6,420.4-235.6,420-235.7,419.5z"/>
	<path class="st1" d="M-249,417.1c-1.1,0-1.9,1.1-1.9,2.4v8.3c0,1.3,0.8,2.4,1.9,2.4c1.1,0,1.9-1.1,1.9-2.4v-8.3
		C-247.1,418.2-247.9,417.1-249,417.1z"/>
	<path class="st1" d="M-249,405.2c-8.6,0-15.7,7-15.7,15.7c0,8.6,7,15.7,15.7,15.7c8.7,0,15.7-7,15.7-15.7S-240.4,405.2-249,405.2z
		 M-236.7,426.1c-0.3,0.8-0.8,1.6-1.2,2.3c-2.4,3.6-6.5,5.9-11.1,5.9s-8.7-2.3-11.1-5.9c-0.5-0.7-0.9-1.5-1.2-2.3
		c-0.2-0.4-0.3-0.8-0.5-1.2c-0.4-1.3-0.6-2.6-0.6-4c0-0.5,0-0.9,0.1-1.4c0.1-0.9,0.3-1.8,0.5-2.6c0.1-0.4,0.3-0.8,0.5-1.2
		c0.3-0.8,0.8-1.6,1.2-2.3c2.4-3.6,6.5-5.9,11.1-5.9s8.7,2.3,11.1,5.9c0.5,0.7,0.9,1.5,1.2,2.3c0.2,0.4,0.3,0.8,0.5,1.2
		c0.3,0.8,0.4,1.7,0.5,2.6c0,0.5,0.1,0.9,0.1,1.4c0,1.4-0.2,2.7-0.6,4C-236.3,425.3-236.5,425.7-236.7,426.1z"/>
	<circle class="st1" cx="-249" cy="413.4" r="1.9"/>
</g>
</svg>
