<?xml version="1.0" encoding="utf-8"?>
<!-- Generator: Adobe Illustrator 22.1.0, SVG Export Plug-In . SVG Version: 6.00 Build 0)  -->
<svg version="1.1" xmlns="http://www.w3.org/2000/svg" xmlns:xlink="http://www.w3.org/1999/xlink" x="0px" y="0px"
	 viewBox="0 0 60 60" enable-background="new 0 0 60 60" xml:space="preserve">
<g id="Layer_1">
</g>
<g id="Layer_3">
</g>
<g id="Layer_2">
	<g>
		<rect x="13.458" y="10.616" fill="#FFFFFF" width="26.047" height="33.885"/>
		<g>
			<path d="M37.558,42.276v2.225c0,0.552,0.448,0.999,1,0.999c0.552,0,1-0.448,1-0.999"/>
			<path d="M14.569,11.516h22.989v6.586l2-2.026v-5.559c0-0.552-0.448-1-1-1H13.569c-0.552,0-1,0.447-1,1v33.985
				c0,0.551,0.448,0.999,1,0.999c0.439,0,0.808-0.286,0.942-0.679l10.552,7.662V19.854l-10.495-7.62V11.516z M20.197,27.86
				c1.088,0,1.996,1.296,2.284,3.057c0,0.267,0.153,1.459,0.038,2.105c-0.243,1.876-1.189,3.277-2.324,3.277
				c-1.318,0-2.388-1.89-2.385-4.219C17.809,29.748,18.877,27.86,20.197,27.86z"/>
			<path d="M29.761,28.888l9.372-9.372c0.764-0.765,2.004-0.765,2.768,0c0.764,0.763,0.763,2.003,0,2.766l-6.032,6.033h19.528
				c1.083,0,1.957,0.876,1.957,1.957c0,1.081-0.876,1.956-1.956,1.956h-19.53l6.033,6.033c0.763,0.764,0.764,2.002,0,2.767
				c-0.382,0.382-0.883,0.573-1.384,0.574c-0.501-0.001-1.002-0.193-1.384-0.574l-9.373-9.374
				C28.996,30.891,28.996,29.654,29.761,28.888z"/>
		</g>
	</g>
</g>
</svg>
