<?xml version="1.0" encoding="utf-8"?>
<!-- Generator: Adobe Illustrator 22.1.0, SVG Export Plug-In . SVG Version: 6.00 Build 0)  -->
<svg version="1.1" xmlns="http://www.w3.org/2000/svg" xmlns:xlink="http://www.w3.org/1999/xlink" x="0px" y="0px"
	 viewBox="0 0 60 60" enable-background="new 0 0 60 60" xml:space="preserve">
<g id="Layer_1">
</g>
<g id="Layer_3">
</g>
<g id="Layer_2">
	<g>
		<g>
			<path d="M51.622,24.152L40.58,13.11c-0.616-0.616-1.615-0.616-2.231,0c-0.296,0.296-0.462,0.697-0.462,1.115v4.732H26.845
				c-0.871,0-1.577,0.706-1.577,1.577s0.706,1.577,1.577,1.577h12.619c0.871,0,1.577-0.706,1.577-1.577v-2.502l7.234,7.234
				l-7.234,7.234V30c0-0.871-0.706-1.577-1.577-1.577H22.113V23.69c0-0.871-0.707-1.577-1.578-1.577
				c-0.418,0-0.819,0.166-1.115,0.462L8.378,33.617c-0.616,0.616-0.616,1.615,0,2.23L19.42,46.889
				c0.296,0.296,0.697,0.462,1.115,0.462c0.207,0.001,0.413-0.04,0.604-0.12c0.589-0.244,0.973-0.82,0.973-1.458v-4.732h11.042
				c0.871,0,1.577-0.706,1.577-1.577s-0.706-1.577-1.577-1.577H20.536c-0.871,0-1.577,0.706-1.577,1.577v2.502l-7.234-7.234
				l7.234-7.234V30c0,0.871,0.706,1.577,1.577,1.577h17.352v4.732c0,0.871,0.707,1.577,1.578,1.577c0.418,0,0.819-0.166,1.115-0.462
				l11.042-11.042C52.237,25.767,52.237,24.768,51.622,24.152z"/>
		</g>
	</g>
</g>
</svg>
