<?xml version="1.0" encoding="utf-8"?>
<!-- Generator: Adobe Illustrator 22.1.0, SVG Export Plug-In . SVG Version: 6.00 Build 0)  -->
<svg version="1.1" id="Layer_1" xmlns="http://www.w3.org/2000/svg" xmlns:xlink="http://www.w3.org/1999/xlink" x="0px" y="0px"
	 viewBox="0 0 256 256" enable-background="new 0 0 256 256" xml:space="preserve">
<g>
	<g>
		<g>
			<radialGradient id="SVGID_1_" cx="128" cy="128" r="85.3344" gradientUnits="userSpaceOnUse">
				<stop  offset="0" style="stop-color:#0081D4"/>
				<stop  offset="1" style="stop-color:#0068AA"/>
			</radialGradient>
			<path fill="url(#SVGID_1_)" stroke="#015491" stroke-width="3" stroke-miterlimit="10" d="M211.93,91.413l-82.49-48.356
				c-0.868-0.506-1.934-0.523-2.813-0.037l-82.49,45.512c-0.907,0.498-1.471,1.453-1.471,2.489v119.469
				c0,1.573,1.274,2.844,2.844,2.844h14.223c1.57,0,2.844-1.271,2.844-2.844v-99.557h130.847v99.557
				c0,1.573,1.271,2.844,2.844,2.844h14.223c1.573,0,2.844-1.271,2.844-2.844V93.865C213.335,92.855,212.8,91.922,211.93,91.413z"/>
		</g>
	</g>
	<g>
		<g>
			<g>
				<g>
					<radialGradient id="SVGID_2_" cx="88.178" cy="151.8475" r="18.9115" gradientUnits="userSpaceOnUse">
						<stop  offset="0" style="stop-color:#0081D4"/>
						<stop  offset="1" style="stop-color:#0068AA"/>
					</radialGradient>
					<path fill="url(#SVGID_2_)" d="M71.111,170.759c-1.017,0-1.844-0.827-1.844-1.845v-34.134c0-1.018,0.827-1.845,1.844-1.845
						h34.134c1.017,0,1.845,0.827,1.845,1.845v34.134c0,1.018-0.828,1.845-1.845,1.845H71.111z"/>
					<path fill="#015491" d="M105.245,133.936c0.466,0,0.844,0.379,0.844,0.844v34.134c0,0.466-0.379,0.844-0.844,0.844H71.111
						c-0.466,0-0.844-0.379-0.844-0.844v-34.134c0-0.306,0.154-0.506,0.247-0.598c0.092-0.092,0.292-0.247,0.598-0.247H105.245
						 M105.245,131.936H71.111c-1.573,0-2.844,1.271-2.844,2.844v34.134c0,1.573,1.271,2.844,2.844,2.844h34.134
						c1.573,0,2.844-1.271,2.844-2.844v-34.134C108.089,133.208,106.818,131.936,105.245,131.936L105.245,131.936z"/>
				</g>
			</g>
		</g>
		<rect x="83.063" y="133.926" fill="#FFFFFF" width="9.75" height="10.403"/>
		<g>
			<g>
				<path fill="#015491" d="M79.645,133.822V145.2c0,1.573,1.271,2.844,2.844,2.844h11.378c1.573,0,2.844-1.271,2.844-2.844v-11.378
					h-5.689v8.533h-5.689v-8.533H79.645z"/>
			</g>
		</g>
	</g>
	<g>
		<g>
			<rect x="61.5" y="116.621" fill="#015491" width="133.042" height="5.689"/>
		</g>
	</g>
	<g>
		<g>
			<path fill="#FFFFFF" stroke="#015491" stroke-width="2" stroke-miterlimit="10" d="M142.223,82.487h-28.445
				c-1.57,0-2.844,1.274-2.844,2.844v11.378c0,1.57,1.274,2.844,2.844,2.844h28.445c1.573,0,2.844-1.274,2.844-2.844V85.332
				C145.067,83.762,143.796,82.487,142.223,82.487z"/>
		</g>
	</g>
	<g>
		<g>
			<g>
				<g>
					<radialGradient id="SVGID_3_" cx="88.1777" cy="194.7886" r="18.9114" gradientUnits="userSpaceOnUse">
						<stop  offset="0" style="stop-color:#0081D4"/>
						<stop  offset="1" style="stop-color:#0068AA"/>
					</radialGradient>
					<path fill="url(#SVGID_3_)" d="M71.111,213.7c-1.018,0-1.845-0.827-1.845-1.845v-34.134c0-1.018,0.827-1.845,1.845-1.845
						h34.134c1.017,0,1.844,0.827,1.844,1.845v34.134c0,1.018-0.827,1.845-1.844,1.845H71.111z"/>
					<path fill="#015491" d="M105.245,176.877c0.466,0,0.844,0.379,0.844,0.844v34.134c0,0.466-0.379,0.844-0.844,0.844H71.111
						c-0.466,0-0.844-0.379-0.844-0.844v-34.134c0-0.306,0.154-0.506,0.247-0.598c0.092-0.092,0.292-0.247,0.598-0.247H105.245
						 M105.245,174.877H71.111c-1.573,0-2.844,1.271-2.844,2.844v34.134c0,1.573,1.271,2.844,2.844,2.844h34.134
						c1.573,0,2.844-1.271,2.844-2.844v-34.134C108.089,176.149,106.818,174.877,105.245,174.877L105.245,174.877z"/>
				</g>
			</g>
		</g>
		<rect x="83.063" y="176.867" fill="#FFFFFF" width="9.75" height="10.403"/>
		<g>
			<g>
				<path fill="#015491" d="M79.645,176.763v11.378c0,1.573,1.271,2.844,2.844,2.844h11.378c1.573,0,2.844-1.271,2.844-2.844
					v-11.378h-5.689v8.533h-5.689v-8.533H79.645z"/>
			</g>
		</g>
	</g>
	<g>
		<g>
			<g>
				<g>
					<radialGradient id="SVGID_4_" cx="130.8448" cy="194.7886" r="18.9114" gradientUnits="userSpaceOnUse">
						<stop  offset="0" style="stop-color:#0081D4"/>
						<stop  offset="1" style="stop-color:#0068AA"/>
					</radialGradient>
					<path fill="url(#SVGID_4_)" d="M113.778,213.7c-1.018,0-1.845-0.827-1.845-1.845v-34.134c0-1.018,0.827-1.845,1.845-1.845
						h34.134c1.017,0,1.844,0.827,1.844,1.845v34.134c0,1.018-0.827,1.845-1.844,1.845H113.778z"/>
					<path fill="#015491" d="M147.912,176.877c0.466,0,0.844,0.379,0.844,0.844v34.134c0,0.466-0.379,0.844-0.844,0.844h-34.134
						c-0.466,0-0.844-0.379-0.844-0.844v-34.134c0-0.306,0.154-0.506,0.247-0.598c0.092-0.092,0.292-0.247,0.598-0.247H147.912
						 M147.912,174.877h-34.134c-1.573,0-2.844,1.271-2.844,2.844v34.134c0,1.573,1.271,2.844,2.844,2.844h34.134
						c1.573,0,2.844-1.271,2.844-2.844v-34.134C150.756,176.149,149.485,174.877,147.912,174.877L147.912,174.877z"/>
				</g>
			</g>
		</g>
		<rect x="125.73" y="176.867" fill="#FFFFFF" width="9.75" height="10.403"/>
		<g>
			<g>
				<path fill="#015491" d="M122.312,176.763v11.378c0,1.573,1.271,2.844,2.844,2.844h11.378c1.573,0,2.844-1.271,2.844-2.844
					v-11.378h-5.689v8.533H128v-8.533H122.312z"/>
			</g>
		</g>
	</g>
</g>
</svg>
