<?xml version="1.0" encoding="utf-8"?>
<!-- Generator: Adobe Illustrator 22.1.0, SVG Export Plug-In . SVG Version: 6.00 Build 0)  -->
<svg version="1.1" xmlns="http://www.w3.org/2000/svg" xmlns:xlink="http://www.w3.org/1999/xlink" x="0px" y="0px"
	 viewBox="0 0 60 60" enable-background="new 0 0 60 60" xml:space="preserve">
<g id="Layer_1">
</g>
<g id="Layer_3">
</g>
<g id="Layer_2">
	<g>
		<rect x="13.333" y="10.616" fill="#FFFFFF" width="26.047" height="33.885"/>
		<g>
			<path d="M14.444,11.516h22.989v9.637c0,0,0,0,0,0v4.306h0.624h1.375v-5.683v-9.26c0-0.552-0.448-1-0.999-1H13.444
				c-0.552,0-1,0.447-1,1v33.985c0,0.551,0.448,0.999,1,0.999c0.439,0,0.808-0.286,0.942-0.679l10.552,7.662V19.854l-10.495-7.62
				V11.516z M22.394,33.023c-0.243,1.876-1.189,3.277-2.324,3.277c-1.318,0-2.388-1.89-2.385-4.219c0-2.332,1.068-4.22,2.388-4.22
				c1.088,0,1.996,1.296,2.284,3.057C22.356,31.184,22.509,32.377,22.394,33.023z"/>
			<path d="M54.593,26.951l-9.372-9.372c-0.764-0.765-2.004-0.765-2.768,0c-0.764,0.763-0.763,2.003,0,2.766l6.032,6.033H28.957
				c-1.083,0-1.957,0.876-1.957,1.957c0,1.081,0.876,1.956,1.956,1.956h19.53l-6.033,6.033c-0.763,0.764-0.764,2.002,0,2.767
				c0.382,0.382,0.883,0.573,1.384,0.574c0.501-0.001,1.002-0.193,1.384-0.574l9.373-9.374
				C55.358,28.954,55.358,27.716,54.593,26.951z"/>
			<path d="M37.433,31.493v4.307v1.377v7.326c0,0.552,0.448,0.999,1,0.999c0.552,0,0.999-0.448,0.999-0.999v-7.326v-5.683h-1.375
				H37.433z"/>
		</g>
	</g>
</g>
</svg>
