<?xml version="1.0" encoding="utf-8"?>
<!-- Generator: Adobe Illustrator 19.1.0, SVG Export Plug-In . SVG Version: 6.00 Build 0)  -->
<!DOCTYPE svg PUBLIC "-//W3C//DTD SVG 1.1//EN" "http://www.w3.org/Graphics/SVG/1.1/DTD/svg11.dtd">
<svg version="1.1"
	 id="Layer_1" xmlns:inkscape="http://www.inkscape.org/namespaces/inkscape" xmlns:cc="http://creativecommons.org/ns#" xmlns:svg="http://www.w3.org/2000/svg" xmlns:dc="http://purl.org/dc/elements/1.1/" xmlns:rdf="http://www.w3.org/1999/02/22-rdf-syntax-ns#" xmlns:sodipodi="http://sodipodi.sourceforge.net/DTD/sodipodi-0.dtd" sodipodi:docname="landuse.svg" inkscape:version="1"
	 xmlns="http://www.w3.org/2000/svg" xmlns:xlink="http://www.w3.org/1999/xlink" x="0px" y="0px" viewBox="-411 298 256 256"
	 style="enable-background:new -411 298 256 256;" xml:space="preserve">
<style type="text/css">
	.st0{fill:#FFFFFF;}
	.st1{fill:#015491;}
	.st2{fill:url(#SVGID_1_);}
	.st3{fill:url(#SVGID_2_);}
	.st4{fill:url(#SVGID_3_);}
	.st5{fill:url(#SVGID_4_);}
	.st6{fill:url(#SVGID_5_);}
	.st7{fill:url(#SVGID_6_);stroke:#015491;stroke-width:2;stroke-miterlimit:10;}
</style>
<g>
	<g>
		<path class="st0" d="M-240.8,491.4c-17.8,0-35.7-4.9-53-9.7c-14.9-4.1-29-8-41.3-8c-13.8,0-20.7,2-24.9,3.1
			c-1.1,0.3-2,0.6-2.6,0.7l23.5-59.5c3.3-1.4,13.8-5.3,24.7-5.3c24.6,0,32,5.6,39.3,11.1c6.1,4.6,12.5,9.4,28,9.4
			c14.9,0,32.9-1.6,42.6-3.2l-20.2,57.5C-225.8,488.4-230.5,491.4-240.8,491.4z"/>
		<path class="st1" d="M-314.2,415.7c23.6,0,30.6,5.3,37.5,10.5c6.5,4.9,13.3,10,29.8,10c12.7,0,27.8-1.1,38.2-2.5l-18.2,51.9
			c-1.6,1-5.7,2.9-13.7,2.9c-17.4,0-35.1-4.9-52.2-9.6c-15.1-4.2-29.4-8.1-42.1-8.1c-11.2,0-18,1.3-22.5,2.4l20.9-52.8
			C-332.6,418.7-323.6,415.7-314.2,415.7 M-314.2,409.7c-14,0-27,6-27,6l-25,63.2c1.2,1.2,2.1,1.6,3.3,1.6c3.5,0,8.9-3.8,28-3.8
			c25.5,0,60.2,17.8,94.2,17.8c14,0,18.8-5.2,18.8-5.2l22.2-63.2c-5.5,1.8-28.5,4.2-47.2,4.2C-279,430.2-267.5,409.7-314.2,409.7
			L-314.2,409.7z"/>
	</g>
	<g>
		<radialGradient id="SVGID_1_" cx="-320.5141" cy="437.3821" r="12.9747" gradientUnits="userSpaceOnUse">
			<stop  offset="0" style="stop-color:#0081D4"/>
			<stop  offset="1" style="stop-color:#0068AA"/>
		</radialGradient>
		<path class="st2" d="M-328.7,430.5c0.4-0.3,0.8-0.7,1.1-1.1c1.3-1.3,2.8-3,9.3-3.3c0.4,0,0.8,0,1.1,0c6.6,0,10,3.3,10.8,4.2
			c0.2,5.5,0.3,11.4,0.1,13c-2.6,0.9-18.2,3.6-28.9,5.4L-328.7,430.5z"/>
		<path class="st1" d="M-317.1,427.1c5.7,0,8.8,2.6,9.8,3.6c0.2,4.7,0.3,9.7,0.2,11.8c-3.3,0.9-15.1,3-26.4,4.9l5.7-16.2
			c0.4-0.3,0.7-0.7,1-1c1.1-1.2,2.6-2.7,8.7-3C-317.8,427.1-317.4,427.1-317.1,427.1 M-317.1,425.1c-0.4,0-0.8,0-1.2,0
			c-9,0.5-9.2,3.5-11.2,4.8l-7,20c0,0,30.8-5,31.2-6s0-14,0-14S-308.9,425.1-317.1,425.1L-317.1,425.1z"/>
	</g>
	<g>
		<radialGradient id="SVGID_2_" cx="-279.2782" cy="441.4971" r="17.9623" gradientUnits="userSpaceOnUse">
			<stop  offset="0" style="stop-color:#0081D4"/>
			<stop  offset="1" style="stop-color:#0068AA"/>
		</radialGradient>
		<path class="st3" d="M-269.8,453.4c-6.7,0-24.6-4.9-28.1-5.8l-3.8-17.6c0.2-0.1,0.8-0.4,2.3-0.4c0.5,0,1,0,1.6,0.1l0.7,0.1
			c4.4,0.4,6.9,0.7,13.5,5.5c4.2,3.1,7.5,3.3,10.9,3.6c2.7,0.2,5.4,0.4,9,2c6.4,2.9,7,8.8,6.8,10.3c-0.2,0-0.3,0.1-0.5,0.1
			c-1.9,0.5-6.3,1.7-11.6,2.1C-269.3,453.4-269.5,453.4-269.8,453.4L-269.8,453.4z"/>
		<path class="st1" d="M-299.4,430.6c0.4,0,0.9,0,1.5,0.1l0.7,0.1c4.4,0.4,6.6,0.6,13,5.3c4.5,3.2,8,3.5,11.4,3.8
			c2.6,0.2,5.3,0.4,8.7,1.9c5.4,2.4,6.2,6.9,6.2,8.7c-1.9,0.5-6.2,1.7-11.3,2c-0.2,0-0.4,0-0.7,0c-6.3,0-22.7-4.4-27.2-5.6
			l-3.5-16.2C-300.3,430.6-299.9,430.6-299.4,430.6 M-299.4,428.6c-3.3,0-3.3,1.3-3.3,1.3l4,18.5c0,0,21.3,6,28.9,6
			c0.3,0,0.6,0,0.8,0c6.8-0.5,12-2.2,12.8-2.4s1.2-8.4-7-12.1s-12.5-0.2-19.8-5.5s-9.8-5.2-14.8-5.8
			C-298.4,428.6-298.9,428.6-299.4,428.6L-299.4,428.6z"/>
	</g>
	<g>
		<radialGradient id="SVGID_3_" cx="-253.3145" cy="467.7363" r="17.562" gradientUnits="userSpaceOnUse">
			<stop  offset="0" style="stop-color:#0081D4"/>
			<stop  offset="1" style="stop-color:#0068AA"/>
		</radialGradient>
		<path class="st4" d="M-245.9,476.7c-3.6,0-25.4-3.6-30.5-6.1c2.9-2.1,12.3-8,18.5-11.9h27.8c-0.5,4.8-2.3,14.6-7,16.6
			C-238.7,476-241.9,476.7-245.9,476.7z"/>
		<path class="st1" d="M-231.3,459.7c-0.7,5.6-2.7,13.1-6.3,14.7c-1.4,0.6-4.5,1.3-8.4,1.3c-3.7,0-21.8-3.1-28.5-5.4
			c3.4-2.3,10.3-6.7,16.7-10.6H-231.3 M-229.1,457.7h-29.2c0,0-20.3,12.5-19.8,13c2.8,2.8,28.3,7,32.2,7c3.8,0,7.2-0.7,9.2-1.5
			C-230,473.3-229.1,457.7-229.1,457.7L-229.1,457.7z"/>
	</g>
	<g>
		<radialGradient id="SVGID_4_" cx="-284.3303" cy="460.2256" r="11.594" gradientUnits="userSpaceOnUse">
			<stop  offset="0" style="stop-color:#0081D4"/>
			<stop  offset="1" style="stop-color:#0068AA"/>
		</radialGradient>
		<path class="st5" d="M-284.3,467.6c-0.1,0-0.2,0-0.3,0c-6.9-0.6-13.1-2.4-13.7-4c-0.6-1.7-0.6-3.1-0.6-4.4c0-0.5,0-1,0-1.5
			c-0.1-1.9-0.2-3.7,0.5-4.4c0.1-0.1,0.4-0.4,1.4-0.4c0.4,0,0.9,0,1.4,0.1c1.5,0.3,4.3,1,7.5,1.9c6.6,1.7,14.8,3.9,18.4,3.9
			C-271.2,461-279.9,467.6-284.3,467.6z"/>
		<path class="st1" d="M-297,453.9c0.3,0,0.7,0,1.2,0.1c1.5,0.3,4.2,1,7.5,1.8c5.6,1.5,12.4,3.2,16.6,3.8c-2.9,2.7-9.4,7-12.6,7
			c-0.1,0-0.1,0-0.2,0c-7-0.6-12.1-2.4-12.8-3.4c-0.5-1.5-0.5-2.8-0.5-4.1c0-0.5,0-1,0-1.5c0-0.9-0.2-3.2,0.2-3.6
			C-297.7,454-297.5,453.9-297,453.9 M-297,451.9c-3.1,0-3.1,2.5-2.9,5.9c0.1,1.8-0.2,3.7,0.7,6.2s8.8,4.2,14.5,4.7
			c0.1,0,0.2,0,0.4,0c5.9,0,19.5-10.9,15-10.9c0,0-0.1,0-0.1,0c-0.1,0-0.2,0-0.2,0c-5.1,0-21.2-4.9-25.8-5.7
			C-296,451.9-296.5,451.9-297,451.9L-297,451.9z"/>
	</g>
	<g>
		<radialGradient id="SVGID_5_" cx="-321.847" cy="456.5474" r="13.4248" gradientUnits="userSpaceOnUse">
			<stop  offset="0" style="stop-color:#0081D4"/>
			<stop  offset="1" style="stop-color:#0068AA"/>
		</radialGradient>
		<path class="st6" d="M-307.1,462.2c-1,0-2.3-0.1-3.8-0.4c-1-0.2-2-0.4-3-0.6c-5.9-1.1-11.1-2.1-15.7-2.1c-1.1,0-2.2,0.1-3.3,0.2
			c-3,0.3-5,0.9-6.2,1.2c-0.2,0-0.3,0.1-0.5,0.1c-0.1-0.4-0.2-0.7-0.3-0.9c-0.2-0.5-0.3-0.7,0.2-1.4c1.2-1.6,9.8-7.4,24.2-7.4l0.6,0
			c6.1,0.1,9.7,0.8,10.7,2.1c0.5,0.6,0.3,1.5,0,2.8c-0.2,0.6-0.3,1.2-0.4,1.8c-0.1,0.5-0.1,1.1-0.1,1.6
			C-304.5,461.5-304.5,462.2-307.1,462.2z"/>
		<path class="st1" d="M-315.4,449.9v2h0c0.2,0,0.4,0,0.6,0c8.1,0.1,9.7,1.3,10,1.7c0.2,0.3,0,1.2-0.2,2c-0.2,0.6-0.3,1.3-0.4,2
			c-0.1,0.6-0.1,1.2-0.1,1.7c0,0.6,0,1.5-0.2,1.7c0,0-0.3,0.2-1.4,0.2c-0.9,0-2.1-0.1-3.6-0.4c-1-0.2-2-0.4-2.9-0.6
			c-6-1.2-11.2-2.1-15.9-2.1c-1.2,0-2.3,0.1-3.4,0.2c-2.8,0.3-4.6,0.8-5.9,1.1c0,0,0-0.1,0-0.1c0,0,0-0.1-0.1-0.1
			c0-0.1,0.1-0.1,0.2-0.3c0.7-0.9,8.6-7,23.4-7L-315.4,449.9 M-315.4,449.9c-15.3,0-23.9,6.2-25.1,7.8c-1.3,1.8,0,2.2,0,3.5
			c0,0.4,0.1,0.5,0.4,0.5c0.8,0,2.8-1,7.3-1.5c1-0.1,2.1-0.2,3.1-0.2c5.3,0,11.2,1.3,18.5,2.7c1.7,0.3,3,0.5,4,0.5
			c4.3,0,3.4-2.6,3.7-5.5c0.3-3.5,4.3-7.7-11.3-7.8C-315,449.9-315.2,449.9-315.4,449.9L-315.4,449.9z"/>
	</g>
	<radialGradient id="SVGID_6_" cx="-246.3502" cy="407.2781" r="35.2382" gradientUnits="userSpaceOnUse">
		<stop  offset="0" style="stop-color:#0081D4"/>
		<stop  offset="1" style="stop-color:#0068AA"/>
	</radialGradient>
	<path class="st7" d="M-220.5,390.5c0-14.3-11.6-25.8-25.8-25.8c-14.3,0-25.8,11.6-25.8,25.8c0,3.9,0.9,7.6,2.5,10.9h0l23.2,48.5
		l23.6-48.5h0C-221.4,398.1-220.5,394.4-220.5,390.5z M-246.5,400.2c-5.1,0-9.2-4.1-9.2-9.2s4.1-9.2,9.2-9.2s9.2,4.1,9.2,9.2
		S-241.5,400.2-246.5,400.2z"/>
	
		<sodipodi:namedview  inkscape:cx="160" pagecolor="#ffffff" bordercolor="#666666" objecttolerance="10" borderopacity="1" guidetolerance="10" inkscape:zoom="1" inkscape:cy="160" showgrid="false" gridtolerance="10" inkscape:pageopacity="0" inkscape:pageshadow="2" inkscape:window-height="480" inkscape:window-x="0" inkscape:window-y="0" inkscape:window-maximized="0" inkscape:current-layer="svg2" inkscape:window-width="640">
		</sodipodi:namedview>
</g>
</svg>
