<?xml version="1.0" encoding="utf-8"?>
<!-- Generator: Adobe Illustrator 19.1.0, SVG Export Plug-In . SVG Version: 6.00 Build 0)  -->
<!DOCTYPE svg PUBLIC "-//W3C//DTD SVG 1.1//EN" "http://www.w3.org/Graphics/SVG/1.1/DTD/svg11.dtd">
<svg version="1.1" id="Layer_1" xmlns="http://www.w3.org/2000/svg" xmlns:xlink="http://www.w3.org/1999/xlink" x="0px" y="0px"
	 viewBox="-267 390.9 60 60" style="enable-background:new -267 390.9 60 60;" xml:space="preserve">
<style type="text/css">
	.st0{fill:#333333;}
	.st1{fill:#FFFFFF;}
</style>
<g>
	<path class="st0" d="M-224.2,412.6l8.6-7l-21.6-6.2l-21.3,17.4l8.6,2.5l-8.6,7l0.3,0.1l-0.3,0.3l8.6,2.5l-8.6,7l21.6,6.2l21.3-17.4
		l-8.6-2.5l8.6-7l-0.3-0.1l0.3-0.3L-224.2,412.6z M-222.1,426.3l-15.6,12.7l-14.3-4.1l5.7-4.7l9.3,2.7l9.8-8L-222.1,426.3z
		 M-237.6,429.1l-13.9-4l5.7-4.7l9,2.6l9.5-7.7l5,1.4L-237.6,429.1z"/>
	<polygon class="st1" points="-236.9,423 -245.8,420.4 -251.6,425.1 -237.6,429.1 -222.4,416.7 -227.4,415.3 	"/>
	<polygon class="st1" points="-236.9,432.9 -246.2,430.2 -251.9,434.9 -237.6,439 -222.1,426.3 -227,424.9 	"/>
</g>
</svg>
