<?xml version="1.0" encoding="utf-8"?>
<!-- Generator: Adobe Illustrator 19.1.0, SVG Export Plug-In . SVG Version: 6.00 Build 0)  -->
<!DOCTYPE svg PUBLIC "-//W3C//DTD SVG 1.1//EN" "http://www.w3.org/Graphics/SVG/1.1/DTD/svg11.dtd">
<svg version="1.1" id="Layer_1" xmlns="http://www.w3.org/2000/svg" xmlns:xlink="http://www.w3.org/1999/xlink" x="0px" y="0px"
	 viewBox="-279 390.9 36 60" style="enable-background:new -279 390.9 36 60;" xml:space="preserve">
<style type="text/css">
	.st0{fill:#FFFFFF;}
	.st1{fill:#006DB3;}
</style>
<g>
	<g>
		<path class="st0" d="M-249.5,447.6c-0.8,0-1.6-0.3-2.1-0.9l-23.6-23.6c-0.6-0.6-0.9-1.3-0.9-2.1s0.3-1.6,0.9-2.1l23.9-23.9
			c0.6-0.6,1.3-0.9,2.1-0.9s1.6,0.3,2.1,0.9c0.6,0.6,0.9,1.3,0.9,2.1s-0.3,1.6-0.9,2.1l-21.8,21.8l21.4,21.4
			c0.6,0.6,0.9,1.3,0.9,2.1s-0.3,1.6-0.9,2.1C-248,447.3-248.7,447.6-249.5,447.6z"/>
		<path class="st1" d="M-249.1,395.6c0.2,0,0.7,0.1,1.1,0.4c0.4,0.4,0.4,0.8,0.4,1.1s-0.1,0.7-0.4,1.1l-20.8,20.8l-2.1,2.1l2.1,2.1
			l20.4,20.4c0.4,0.4,0.4,0.8,0.4,1.1s-0.1,0.7-0.4,1.1c-0.4,0.4-0.8,0.4-1.1,0.4c-0.2,0-0.7-0.1-1.1-0.4l-23.6-23.6
			c-0.4-0.4-0.4-0.8-0.4-1.1c0-0.2,0.1-0.7,0.4-1.1l23.9-23.9C-249.8,395.7-249.4,395.6-249.1,395.6 M-249.1,392.6
			c-1.2,0-2.3,0.4-3.2,1.3l-23.9,23.9c-1.8,1.8-1.8,4.6,0,6.4l23.6,23.6c0.9,0.9,2,1.3,3.2,1.3s2.3-0.4,3.2-1.3
			c1.8-1.8,1.8-4.6,0-6.4l-20.4-20.4l20.8-20.8c1.8-1.8,1.8-4.6,0-6.4C-246.8,393.1-248,392.6-249.1,392.6L-249.1,392.6z"/>
	</g>
</g>
</svg>
