<?xml version="1.0" encoding="utf-8"?>
<!-- Generator: Adobe Illustrator 18.1.1, SVG Export Plug-In . SVG Version: 6.00 Build 0)  -->
<!DOCTYPE svg PUBLIC "-//W3C//DTD SVG 1.1//EN" "http://www.w3.org/Graphics/SVG/1.1/DTD/svg11.dtd">
<svg version="1.1" xmlns="http://www.w3.org/2000/svg" xmlns:xlink="http://www.w3.org/1999/xlink" x="0px" y="0px"
	 viewBox="0 0 131.718 131.718" enable-background="new 0 0 131.718 131.718" xml:space="preserve">
<g id="Layer_2">
</g>
<g id="Layer_1">
	<g>
	</g>
	<g>
		<path fill="#1E252C" d="M66.045,15.437c17.125,0,31.012,13.886,31.012,31.012c0,16.862-10.163,18.829-12.073,37.214
			c0,1.716-1.384,3.101-3.101,3.101H50.206c-1.716,0-3.101-1.384-3.101-3.101h-0.006c-1.904-18.385-12.065-20.352-12.065-37.214
			C35.033,29.323,48.919,15.437,66.045,15.437 M81.551,89.866c1.716,0,3.101,1.384,3.101,3.102c0,1.716-1.384,3.101-3.101,3.101
			H50.539c-1.718,0-3.102-1.384-3.102-3.101c0-1.718,1.384-3.102,3.102-3.102H81.551 M81.551,99.17c1.716,0,3.101,1.384,3.101,3.101
			c0,1.716-1.384,3.101-3.101,3.101H50.539c-1.718,0-3.102-1.384-3.102-3.101c0-1.716,1.384-3.101,3.102-3.101H81.551
			 M78.449,108.474c0,3.427-2.775,6.202-6.202,6.202H59.842c-3.427,0-6.202-2.775-6.202-6.202H78.449 M66.045,8.348
			c-21.01,0-38.102,17.092-38.102,38.102c0,10.549,3.447,16.606,6.479,21.957c2.575,4.528,4.805,8.453,5.601,15.748
			c0.076,1.62,0.54,3.143,1.295,4.479c-0.623,1.315-0.969,2.783-0.969,4.334c0,1.675,0.401,3.254,1.122,4.651
			c-0.72,1.399-1.122,2.978-1.122,4.652c0,4.369,2.761,8.099,6.631,9.547c1.482,5.717,6.686,9.948,12.862,9.948h12.405
			c6.175,0,11.381-4.23,12.862-9.948c3.87-1.447,6.631-5.178,6.631-9.547c0-1.675-0.408-3.254-1.128-4.652
			c0.72-1.398,1.128-2.977,1.128-4.651c0-1.551-0.346-3.019-0.969-4.327c0.755-1.343,1.211-2.873,1.288-4.493
			c0.802-7.289,3.025-11.208,5.599-15.742c3.04-5.343,6.487-11.408,6.487-21.957C104.145,25.44,87.055,8.348,66.045,8.348
			L66.045,8.348z M66.045,8.348"/>
	</g>
</g>
</svg>
