<?xml version="1.0" encoding="utf-8"?>
<!-- Generator: Adobe Illustrator 19.1.0, SVG Export Plug-In . SVG Version: 6.00 Build 0)  -->
<!DOCTYPE svg PUBLIC "-//W3C//DTD SVG 1.1//EN" "http://www.w3.org/Graphics/SVG/1.1/DTD/svg11.dtd">
<svg version="1.1" id="Layer_1" xmlns="http://www.w3.org/2000/svg" xmlns:xlink="http://www.w3.org/1999/xlink" x="0px" y="0px"
	 viewBox="-277 400.9 40 40" style="enable-background:new -277 400.9 40 40;" xml:space="preserve">
<g>
	<path d="M-268.1,418.1c-1.2,0-2.2,1-2.2,2.2v11.2c0,1.2,1,2.2,2.2,2.2h13.4c1.2,0,2.2-1,2.2-2.2v-11.2c0-1.2-1-2.2-2.2-2.2v-3.3
		c0-2.5,2-4.5,4.5-4.5c2.5,0,4.5,2,4.5,4.5v4.5c0,0.6,0.5,1.1,1.1,1.1c0.6,0,1.1-0.5,1.1-1.1v-4.5c0-3.7-3-6.7-6.7-6.7
		c-3.7,0-6.7,3-6.7,6.7v3.3H-268.1L-268.1,418.1z M-268.1,420.3h13.4v11.1h-13.4V420.3z M-260.3,426.7"/>
</g>
</svg>
