<?xml version="1.0" encoding="UTF-8" standalone="no"?>
<!-- Generator: Adobe Illustrator 19.1.0, SVG Export Plug-In . SVG Version: 6.00 Build 0)  -->

<svg
   xmlns:dc="http://purl.org/dc/elements/1.1/"
   xmlns:cc="http://creativecommons.org/ns#"
   xmlns:rdf="http://www.w3.org/1999/02/22-rdf-syntax-ns#"
   xmlns:svg="http://www.w3.org/2000/svg"
   xmlns="http://www.w3.org/2000/svg"
   xmlns:sodipodi="http://sodipodi.sourceforge.net/DTD/sodipodi-0.dtd"
   xmlns:inkscape="http://www.inkscape.org/namespaces/inkscape"
   version="1.1"
   id="Layer_1"
   x="0px"
   y="0px"
   viewBox="-277 400.9 40 40"
   style="enable-background:new -277 400.9 40 40;"
   xml:space="preserve"
   inkscape:version="0.91 r13725"
   sodipodi:docname="lock_closed.svg"><metadata
     id="metadata17"><rdf:RDF><cc:Work
         rdf:about=""><dc:format>image/svg+xml</dc:format><dc:type
           rdf:resource="http://purl.org/dc/dcmitype/StillImage" /></cc:Work></rdf:RDF></metadata><defs
     id="defs15"><filter
       inkscape:label="Light Eraser"
       style="color-interpolation-filters:sRGB;"
       id="filter3345"><feColorMatrix
         values="1 0 0 0 0 0 1 0 0 0 0 0 1 0 0 -0.2125 -0.7154 -0.0721 0 0 "
         result="colormatrix"
         id="feColorMatrix3347" /><feComposite
         in2="colormatrix"
         operator="arithmetic"
         k2="1"
         result="fbSourceGraphic"
         id="feComposite3349" /><feColorMatrix
         result="fbSourceGraphicAlpha"
         in="fbSourceGraphic"
         values="0 0 0 -1 0 0 0 0 -1 0 0 0 0 -1 0 0 0 0 1 0"
         id="feColorMatrix3351" /><feColorMatrix
         id="feColorMatrix3353"
         values="1 0 0 0 0 0 1 0 0 0 0 0 1 0 0 -0.2125 -0.7154 -0.0721 0 0 "
         result="colormatrix"
         in="fbSourceGraphic" /><feComposite
         id="feComposite3355"
         in2="colormatrix"
         operator="arithmetic"
         k2="1"
         result="composite" /></filter></defs><sodipodi:namedview
     pagecolor="#ffffff"
     bordercolor="#666666"
     borderopacity="1"
     objecttolerance="10"
     gridtolerance="10"
     guidetolerance="10"
     inkscape:pageopacity="0"
     inkscape:pageshadow="2"
     inkscape:window-width="640"
     inkscape:window-height="480"
     id="namedview13"
     showgrid="false"
     inkscape:zoom="5.9"
     inkscape:cx="20"
     inkscape:cy="20"
     inkscape:window-x="0"
     inkscape:window-y="0"
     inkscape:window-maximized="0"
     inkscape:current-layer="Layer_1" /><style
     type="text/css"
     id="style3">
	.st0{fill:#FFFFFF;}
</style><path
     class="st0"
     d="M-277,400.9h40v40h-40V400.9z"
     id="path5"
     style="filter:url(#filter3345)" /><path
     class="st0"
     d="M-260.5,413.3c1.4-3,6.5-2.5,7.4,0.6c0.3,1.9,0.2,3.8,0.2,5.7c-2.7,0-5.4,0.1-8.1,0  C-260.9,417.5-261.5,415.2-260.5,413.3z"
     id="path7" /><g
     id="g9"><path
       d="M-250.3,418.1v-3.3c0-3.7-3-6.7-6.7-6.7c-3.7,0-6.7,3-6.7,6.7v3.3c-1.2,0-2.2,1-2.2,2.2v11.2c0,1.2,1,2.2,2.2,2.2h13.4   c1.2,0,2.2-1,2.2-2.2v-11.2C-248.1,419.1-249.1,418.1-250.3,418.1L-250.3,418.1z M-261.5,414.8c0-2.5,2-4.5,4.5-4.5   c2.5,0,4.5,2,4.5,4.5v3.3h-8.9V414.8z M-250.3,431.5h-13.4v-11.1h13.4V431.5z M-258.1,426.7"
       id="path11" /></g></svg>