<?xml version="1.0" encoding="UTF-8" standalone="no"?>
<svg
   xmlns:dc="http://purl.org/dc/elements/1.1/"
   xmlns:cc="http://creativecommons.org/ns#"
   xmlns:rdf="http://www.w3.org/1999/02/22-rdf-syntax-ns#"
   xmlns:svg="http://www.w3.org/2000/svg"
   xmlns="http://www.w3.org/2000/svg"
   xmlns:sodipodi="http://sodipodi.sourceforge.net/DTD/sodipodi-0.dtd"
   xmlns:inkscape="http://www.inkscape.org/namespaces/inkscape"
   width="256"
   height="256"
   viewBox="0 0 256 256"
   version="1.1"
   id="svg2"
   inkscape:version="0.91 r13725"
   sodipodi:docname="maintenance-management.svg">
  <metadata
     id="metadata30">
    <rdf:RDF>
      <cc:Work
         rdf:about="">
        <dc:format>image/svg+xml</dc:format>
        <dc:type
           rdf:resource="http://purl.org/dc/dcmitype/StillImage" />
      </cc:Work>
    </rdf:RDF>
  </metadata>
  <defs
     id="defs28" />
  <sodipodi:namedview
     pagecolor="#ffffff"
     bordercolor="#666666"
     borderopacity="1"
     objecttolerance="10"
     gridtolerance="10"
     guidetolerance="10"
     inkscape:pageopacity="0"
     inkscape:pageshadow="2"
     inkscape:window-width="640"
     inkscape:window-height="480"
     id="namedview26"
     showgrid="false"
     inkscape:zoom="0.921875"
     inkscape:cx="128"
     inkscape:cy="128"
     inkscape:window-x="0"
     inkscape:window-y="0"
     inkscape:window-maximized="0"
     inkscape:current-layer="svg2" />
  <path
     fill="#0074bf"
     d="M66.1 46.2C84.1 46 102.1 46.2 120.1 46.2 126.7 46 131.7 53.8 128.8 59.8 127.3 63.6 123.1 66 119.1 65.7 101.7 65.6 84.3 65.7 67 65.6 62 65.5 57.7 61 57.8 56 57.7 51.3 61.4 46.8 66.1 46.2Z"
     id="path6" />
  <path
     fill="#0074bf"
     d="M60.7 76.6C62 74.6 63.4 72.8 64.9 71 70.3 71.1 75.7 71.3 81.1 71.5 82.5 71.6 84.4 71.2 85.4 72.5 99.2 86.1 113 99.8 126.9 113.4 123.6 122.2 120.1 131 116.9 140 113.3 136.7 110.1 133.2 106.8 129.6 109 126.5 112.1 124.3 114 121 116.2 114.7 109.4 108.2 103.2 109.8 104.9 103.5 98.4 97.2 92.2 98.8 93.8 93 88.4 87.2 82.6 87.5 82.8 82.3 78.3 77.4 73 77.6 69.8 77.7 68 80.5 66 82.5 64.2 80.5 62.5 78.5 60.7 76.6Z"
     id="path8" />
  <path
     fill="#0074bf"
     d="M92 71.8C102.9 71.8 113.9 71.7 124.8 71.9 133.9 81.5 143.1 91.2 152.3 100.7 155.3 103.1 154.3 107.5 154.1 110.9 150 121.5 145.7 132.1 141.5 142.6 139.6 148.3 132.2 151.1 127 147.9 122.7 145.6 120.6 140 122.5 135.4 125.7 127.3 129.2 119.4 132.4 111.3 118.9 98.1 105.4 85.1 92 71.8Z"
     id="path10" />
  <path
     fill="#0074bf"
     d="M70.2 81.1C73.6 79.6 77.8 81.4 79.3 84.8 80.8 87.7 79.7 91.2 77.4 93.4 72.1 98.7 67 104.3 61.7 109.7 59.3 112.3 55 113.2 52.1 110.9 48.6 108.5 48.1 103.1 51.1 100.1 55.8 95.1 60.6 90.3 65.2 85.3 66.7 83.7 68.2 82.1 70.2 81.1Z"
     id="path12" />
  <path
     fill="#0074bf"
     d="M81.2 91.3C87.2 89.3 92.9 97.1 89.1 102.2 84.9 107.3 79.9 111.6 75.5 116.5 73 119 70.9 122.6 67 122.7 62.5 123.1 58.6 118.5 59.6 114.1 59.9 112.2 61.3 110.8 62.5 109.5 67.2 104.6 71.9 99.6 76.6 94.7 78 93.4 79.3 91.9 81.2 91.3Z"
     id="path14" />
  <path
     fill="#0074bf"
     d="M91.1 102C94.8 100.5 99.6 103.1 100.4 107 101.1 109.6 100.1 112.4 98.2 114.2 93.1 119.7 87.7 125 82.5 130.5 80.2 133.2 76 134.2 73 132 69.6 129.8 68.7 124.5 71.5 121.5 76.3 116 81.5 110.9 86.6 105.6 88 104.3 89.3 102.7 91.1 102Z"
     id="path16" />
  <path
     fill="#0074bf"
     d="M101.4 112.5C107.3 109.9 113.8 117.6 109.9 122.9 105.6 128.3 100.5 132.8 95.8 137.9 93.5 140.2 91.5 143.4 87.9 143.7 84.4 144.1 81 141.4 80.3 138 79.6 135.3 80.9 132.6 82.8 130.8 87.6 125.6 92.7 120.7 97.6 115.5 98.7 114.4 99.8 113 101.4 112.5Z"
     id="path18" />
  <path
     fill="#0074bf"
     d="M150.4 129.1C154.1 132.1 157.5 135.5 160 139.6 152.5 146.4 145.2 153.6 137.8 160.6 135.6 158.5 133.4 156.3 131.1 154.1 135.8 154.3 141.4 152.8 143.2 148 145.7 141.8 148 135.4 150.4 129.1Z"
     id="path20" />
  <path
     fill="#0074bf"
     d="M164.5 142.7C170.5 140 177 142.8 183.1 144 188.8 145.6 196.3 145.6 199.7 151.4 202.5 156.9 205.2 162.7 205.3 169 205.4 172.5 201.8 174.2 199.8 176.4 194 171.1 188.8 165.2 183 160 178.9 158.7 174.9 160.8 170.9 161.3 167.3 161.9 163.2 163.1 161.8 166.8 160.4 170.7 159.6 174.8 158.7 178.8 158.1 181.2 158.3 184 160.2 185.7 165.2 190.8 170.5 195.7 175.3 200.9 173.3 203.2 171.3 206.3 167.9 206.5 162.3 207.4 157.5 203.6 152.5 201.8 147.9 200.2 144.8 195.8 144.1 191.1 142.6 183.4 139.5 175.9 140 167.9 139.8 166.6 141.1 165.7 141.9 164.8 149.5 157.5 156.8 149.9 164.5 142.7Z"
     id="path22" />
  <path
     fill="#0074bf"
     d="M166.3 168.2C171.1 166.7 175.9 165.1 180.8 163.9 184.1 167 187.5 170.1 190.9 173.2 189.9 178.4 188.6 183.5 187.6 188.7 182.8 190 177.9 190.9 173.1 192.1 169.8 188.3 166.6 184.3 163.2 180.5 164.1 176.4 165.3 172.3 166.3 168.2Z"
     id="path24" />
</svg>
