<?xml version="1.0" encoding="utf-8"?>
<!-- Generator: Adobe Illustrator 19.1.0, SVG Export Plug-In . SVG Version: 6.00 Build 0)  -->
<!DOCTYPE svg PUBLIC "-//W3C//DTD SVG 1.1//EN" "http://www.w3.org/Graphics/SVG/1.1/DTD/svg11.dtd">
<svg version="1.1"
	 id="svg2" xmlns:inkscape="http://www.inkscape.org/namespaces/inkscape" xmlns:cc="http://creativecommons.org/ns#" xmlns:svg="http://www.w3.org/2000/svg" xmlns:dc="http://purl.org/dc/elements/1.1/" xmlns:rdf="http://www.w3.org/1999/02/22-rdf-syntax-ns#" xmlns:sodipodi="http://sodipodi.sourceforge.net/DTD/sodipodi-0.dtd" sodipodi:docname="maps.svg" inkscape:version="0.91 r13725"
	 xmlns="http://www.w3.org/2000/svg" xmlns:xlink="http://www.w3.org/1999/xlink" x="0px" y="0px" viewBox="-411 298 256 256"
	 enable-background="new -411 298 256 256" xml:space="preserve">
<sodipodi:namedview  id="namedview46" inkscape:cx="165.96096" pagecolor="#ffffff" bordercolor="#666666" objecttolerance="10" borderopacity="1" guidetolerance="10" inkscape:zoom="5.9" inkscape:cy="173.55932" showgrid="false" gridtolerance="10" inkscape:pageopacity="0" inkscape:pageshadow="2" inkscape:window-height="988" inkscape:window-x="-8" inkscape:window-y="-8" inkscape:window-maximized="1" inkscape:current-layer="svg2" inkscape:window-width="1680">
	</sodipodi:namedview>
<g>
	<path fill="#015491" d="M-304.05,347.63c-4.17-1.34-8.55-2.68-12.96-1.7c-6.04,0.43-11.06,4.03-15.96,7.21
		c-0.26,4-3.08,7.75-1.94,11.79c0.37,2.24,3.71,3.15,4.99,1.14c4.68-5.47,11.89-7.67,18.61-9.42
		C-308.44,354.05-306.31,350.75-304.05,347.63z"/>
	<path fill="#015491" d="M-196.45,415.73c-0.93-6.97-2.12-13.99-4.63-20.59c-5.52-15.24-15.81-28.46-28.3-38.66
		c-2.52-0.28-5.04-0.62-7.57-0.89c-0.81,1.03-1.57,2.1-2.47,3.06c-1.31-0.1-2.58-0.4-3.86-0.64c-0.76,0.33-1.52,0.67-2.28,1
		c-3.54,0.31-7.07,0.63-10.61,0.93c-7.2-2.22-15.06-5.86-22.5-2.41c-2.05,3.41-5.17,5.82-8.53,7.87c1.71,3.43,6.67,1.92,7.69,6.09
		c1.02-1.03,2.01-2.09,3-3.16c0.14-1.74-0.97-3.91,0.48-5.32c1.45-1.62,3.39-2.67,5.31-3.61c-0.3,1.53-0.63,3.05-0.99,4.57
		c1.56,1.82,2.81,4.26,1.05,6.44c-1.8,4.52-7.56,3.16-10.93,1.37c-2.16,2.14-4.87,3.52-7.54,4.9c-3.31-1.17-5.29-4.05-6.81-7.04
		c-1.53,1.97-3.21,3.82-4.93,5.64c0.93-0.12,2.78-0.36,3.7-0.48c0.58,2.04,1.05,4.2,2.45,5.88c0.8,1.35,2.42,2.62,1.94,4.39
		c-1.55,3.91-8.66,0.04-8.84,5.14c-1.23,3.67,4.31,7.3,6.7,3.78c2.26-3.75,4.75-8.81,9.99-8.23c0.56-0.29,1.68-0.87,2.23-1.16
		c1.01,0.7,2.02,1.41,3.03,2.12c0.84-0.9,1.68-1.8,2.53-2.69c3.76,2.17,6.1,5.85,8.99,8.96c0.89-1.27,1.8-2.54,2.75-3.76
		c2.5,0.35,5.29-0.44,7.56,0.92c0.96,2.46-2.03,2.93-3.48,4.05c2.28,0.2,4.6,0.18,6.84,0.67c3.36,0.76,4.18,6.18,1.12,7.84
		c-3.91,2.37-8.57,0.34-12.66-0.47c-2.16-0.49-3.82,1.74-5.97,1.62c-2.28-0.99-4.52-2.06-6.72-3.2c-2.07-0.91-2.14-3.45-2.88-5.28
		c-4.32,1.67-9.06,0.11-13.39,1.72c-4.59-0.8-7.56,3.85-8.13,7.83c-4.15,3.1-8.44,7.43-8.02,13.05c0.31,3.8-1.57,7.92,0.6,11.43
		c2,3.21,4.6,6.17,7.67,8.38c4.68,0.26,9.41-0.85,13.86-2.31c2.95,1.43,5.71,3.25,8.7,4.61c0.01,2.36-0.02,4.72-0.07,7.07
		c2.9,3.69,4.56,8.21,5.17,12.83c-0.51,2.05-1.63,3.88-2.14,5.93c-0.32,2.64,1.1,4.99,2.07,7.33c1.09,2.32,0.53,5.04,1.56,7.39
		c1.13,2.59,2.23,5.19,2.99,7.93c2.72-0.26,5.55-0.31,8.12-1.36c4.16-2.18,6.17-6.57,8.56-10.35c1.44-1.76,1.09-4.17,1.76-6.22
		c1.45-2.9,5.11-3.83,6.65-6.59c0.99-4.23-1.59-8.4-0.92-12.63c3.34-7.78,12.59-12.24,13.37-21.26c-2.73,0.8-7.6,2.08-7.94-2.15
		c1.71-2.65,5.46-2.42,7.83-4.27c3-2.25,6.88-4.05,8.19-7.85c-0.67-1.63-1.75-3.03-2.75-4.46c-1.15,0.53-2.29,1.07-3.43,1.6
		c-2.37-2.19-6.36-4.27-5.85-8c4.08-0.11,6.28,4.62,10.23,5.03c3.13,0.34,6.32,0.05,9.44,0.55c2.43,2.17,4.56,4.66,6.95,6.88
		c2.42,5.09,2.88,11.37,7.17,15.43c0.19-2.94-0.52-6,0.42-8.84C-201.08,421.07-198.57,418.54-196.45,415.73z"/>
	<path fill="#015491" d="M-357.96,387.23c2.94,0.22,1.53-3.37,2.27-5.14c0.46-3.81,5.39-2.79,8.1-2.88
		c-0.4,1.46-0.85,2.91-1.29,4.36c1-0.11,2-0.21,3.01-0.3c-0.26-1.17-0.55-2.32-0.88-3.47c1.41-3.22-1.45-5.63-2.67-8.33
		c-1.12,0.1-2.24,0.2-3.36,0.29c-4.86,6.39-9.17,13.19-12.25,20.62C-363.03,390.24-361.32,387.17-357.96,387.23z"/>
	<path fill="#015491" d="M-333.37,453.99c-3-5.4-9.75-4.98-14.23-8.38c-3.52-1.32-2.75-6.39-6.21-7.67
		c-3.35-1.42-5.95-3.95-8.62-6.31c-2.65,0.1-5.03-0.82-6.83-2.78c-0.48,0.22-1.42,0.66-1.9,0.88c1.19,20.35,9.29,40.23,23.21,55.17
		c2.23-2.8,2.63-6.29,3-9.71c1.49-1.88,4.12-1.91,6.02-3.16c2.67-2.87,0.74-7.06,1.4-10.51
		C-336.13,459.02-333.71,456.97-333.37,453.99z"/>
	<path fill="#015491" d="M-241.63,475.34c0.38,0.18,1.13,0.55,1.5,0.73c1.87-4.31,4.53-8.46,4.63-13.31
		c-1.63,1.4-3.21,2.85-4.79,4.3C-240.57,469.85-241.59,472.53-241.63,475.34z"/>
</g>
</svg>
