<?xml version="1.0" encoding="utf-8"?>
<!-- Generator: Adobe Illustrator 19.1.0, SVG Export Plug-In . SVG Version: 6.00 Build 0)  -->
<!DOCTYPE svg PUBLIC "-//W3C//DTD SVG 1.1//EN" "http://www.w3.org/Graphics/SVG/1.1/DTD/svg11.dtd">
<svg version="1.1" id="Layer_2" xmlns="http://www.w3.org/2000/svg" xmlns:xlink="http://www.w3.org/1999/xlink" x="0px" y="0px"
	 viewBox="-527 405 25 41" style="enable-background:new -527 405 25 41;" xml:space="preserve">
<style type="text/css">
	.st0{fill:#055BD8;}
</style>
<path class="st0" d="M-502.5,417.7c0-6.6-5.4-12-12-12c-6.6,0-12,5.4-12,12c0,1.8,0.4,3.5,1.1,5.1h0l10.8,22.5l11-22.5h0
	C-502.9,421.2-502.5,419.5-502.5,417.7z M-514.6,422.2c-2.4,0-4.3-1.9-4.3-4.3c0-2.4,1.9-4.3,4.3-4.3c2.4,0,4.3,1.9,4.3,4.3
	C-510.3,420.3-512.2,422.2-514.6,422.2z"/>
</svg>
