<?xml version="1.0" encoding="utf-8"?>
<!-- Generator: Adobe Illustrator 21.0.2, SVG Export Plug-In . SVG Version: 6.00 Build 0)  -->
<svg version="1.1" xmlns="http://www.w3.org/2000/svg" xmlns:xlink="http://www.w3.org/1999/xlink" x="0px" y="0px"
	 viewBox="0 0 256 256" enable-background="new 0 0 256 256" xml:space="preserve">
<g id="image">
</g>
<g id="Layer_2">
</g>
<g id="Layer_3">
</g>
<g id="Meter_management">
	<polygon fill="#FFFFFF" points="156.104,169.593 173.394,189.843 192.894,209.093 203.894,203.343 212.894,195.343 
		205.144,184.576 181.394,158.843 168.894,147.593 	"/>
	<g>
		<path fill-rule="evenodd" clip-rule="evenodd" fill="#004272" d="M203.26,195.52l-37.59-37.506l4.239-3.324l36.753,37.487
			L203.26,195.52z M193.868,204.708l-36.723-37.516l3.412-4.179l37.56,37.495L193.868,204.708z M170.023,143.732
			c-0.827-0.886-2.503-1.711-3.35-1.719c-1.683-0.018-2.528,0.781-4.231,1.64l-4.249,4.16
			c-25.061-25.569-35.904-36.671-78.454-80.118l0.009-0.837l-9.137-15.28l-0.838-0.845l-15.057-10.3
			c-0.838-0.856-1.674-0.864-2.531-0.026l-6.844,6.704c-0.845,0.838-0.854,1.675-0.863,2.521l10.82,15.278
			c-0.009,0.847-0.009,0.847,0.838,0.856l15.076,9.423l0,0c41.75,41.783,55.937,56.259,79.311,80.136l-4.258,4.17
			c-0.845,0.828-1.71,2.503-1.718,3.35c-0.018,1.683,0.82,2.539,1.639,4.232l47.567,48.589c0.829,0.855,2.503,1.711,3.35,1.719
			c1.684,0.018,2.53-0.811,3.385-1.649l17.063-16.71c0.845-0.829,1.691-1.667,1.708-3.34c0.018-1.684-0.81-2.54-1.638-3.395
			L170.023,143.732z"/>
		<g>
			<g>
				<path fill-rule="evenodd" clip-rule="evenodd" fill="#004272" d="M91.115,175.502L91.115,175.502l-7.646,6.414
					c4.027,10.122,1.26,21.307-6.391,27.711c-7.129,7.355-17.26,8.954-26.019,6.197l-2.936-0.912l19.096-17.265L52.96,181.902
					l-19.125,17.237l-0.025-2.436c-2.562-9.629,1.194-18.879,7.38-25.746c8.587-6.932,19.701-8.996,29.478-4.332l6.676-5.898
					l87.384-80.699l7.635-6.409c-4.01-10.089-1.295-21.29,7.31-28.187c6.716-5.932,16.351-8.482,25.123-5.674l2.901,0.928
					l-19.115,17.232l14.254,15.734l19.121-17.22l0.029,2.418c2.569,9.642,0.33,19.371-7.323,25.775
					c-7.675,6.415-18.775,8.529-28.53,3.798l-7.129,7.385l0,0l0,0L91.115,175.502L91.115,175.502z"/>
			</g>
			<g>
				<radialGradient id="SVGID_1_" cx="127.8378" cy="127.8525" r="57.166" gradientUnits="userSpaceOnUse">
					<stop  offset="0.5215" style="stop-color:#0081D4"/>
					<stop  offset="1" style="stop-color:#0068AA"/>
				</radialGradient>
				<ellipse fill="url(#SVGID_1_)" stroke="#004272" stroke-miterlimit="10" cx="127.838" cy="127.852" rx="57.75" ry="56.576"/>
				<ellipse fill="#D2D2D2" stroke="#004272" stroke-miterlimit="10" cx="127.838" cy="127.852" rx="48.052" ry="47.075"/>
				<g>
					<rect x="92.226" y="112.228" fill="#FFFFFF" width="71.224" height="31.25"/>
					<g>
						<rect x="92.226" y="112.194" fill="#015491" width="15.016" height="31.316"/>
						<text transform="matrix(1 0 0 1 94.1841 134.8655)" fill="#FFFFFF" font-family="'Arial-BoldMT'" font-size="20.5933px">2</text>
					</g>
					<g>
						<rect x="110.962" y="112.194" fill="#015491" width="15.016" height="31.316"/>
						<text transform="matrix(1 0 0 1 112.9195 134.8655)" fill="#FFFFFF" font-family="'Arial-BoldMT'" font-size="20.5933px">5</text>
					</g>
					<g>
						<rect x="129.698" y="112.194" fill="#FFFFFF" width="15.016" height="31.316"/>
						<rect x="129.698" y="112.194" fill="#015491" width="15.016" height="31.316"/>
						<g>
							<defs>
								<rect id="SVGID_113_" x="129.698" y="112.194" width="15.016" height="31.316"/>
							</defs>
							<clipPath id="SVGID_2_">
								<use xlink:href="#SVGID_113_"  overflow="visible"/>
							</clipPath>
							<g clip-path="url(#SVGID_2_)">
								<text transform="matrix(1 0 0 1 131.6558 147.5159)" fill="#FFFFFF" font-family="'Arial-BoldMT'" font-size="20.5933px">7</text>
							</g>
							<g clip-path="url(#SVGID_2_)">
								<text transform="matrix(1 0 0 1 131.6558 121.4739)" fill="#FFFFFF" font-family="'Arial-BoldMT'" font-size="20.5933px">8</text>
							</g>
						</g>
					</g>
					<g>
						<rect x="148.434" y="112.194" fill="#015491" width="15.016" height="31.316"/>
						<text transform="matrix(1 0 0 1 150.3911 134.8655)" fill="#FFFFFF" font-family="'Arial-BoldMT'" font-size="20.5933px">9</text>
					</g>
				</g>
			</g>
		</g>
	</g>
</g>
</svg>
