<?xml version="1.0" encoding="utf-8"?>
<!-- Generator: Adobe Illustrator 19.1.0, SVG Export Plug-In . SVG Version: 6.00 Build 0)  -->
<!DOCTYPE svg PUBLIC "-//W3C//DTD SVG 1.1//EN" "http://www.w3.org/Graphics/SVG/1.1/DTD/svg11.dtd">
<svg version="1.1"
	 id="svg2" xmlns:inkscape="http://www.inkscape.org/namespaces/inkscape" xmlns:cc="http://creativecommons.org/ns#" xmlns:svg="http://www.w3.org/2000/svg" xmlns:dc="http://purl.org/dc/elements/1.1/" xmlns:rdf="http://www.w3.org/1999/02/22-rdf-syntax-ns#" xmlns:sodipodi="http://sodipodi.sourceforge.net/DTD/sodipodi-0.dtd" sodipodi:docname="mm-workforce.svg" inkscape:version="0.91 r13725"
	 xmlns="http://www.w3.org/2000/svg" xmlns:xlink="http://www.w3.org/1999/xlink" x="0px" y="0px" viewBox="-411 298 256 256"
	 style="enable-background:new -411 298 256 256;" xml:space="preserve">
<style type="text/css">
	.st0{fill:#FFFFFF;}
	.st1{fill:url(#SVGID_1_);stroke:#015491;stroke-width:2;stroke-miterlimit:10;}
	.st2{fill:url(#SVGID_2_);stroke:#015491;stroke-width:2;stroke-miterlimit:10;}
	.st3{fill:url(#SVGID_3_);stroke:#015491;stroke-width:2;stroke-miterlimit:10;}
	.st4{fill:url(#SVGID_4_);stroke:#015491;stroke-width:2;stroke-miterlimit:10;}
	.st5{fill:url(#SVGID_5_);stroke:#015491;stroke-width:2;stroke-miterlimit:10;}
	.st6{fill:#FFFFFF;stroke:#015491;stroke-width:2;stroke-miterlimit:10;}
</style>
<g>
	<g id="Layer_3">
		<polygon class="st0" points="-328.9,437.5 -324.8,438.5 -315.5,438.5 -283.9,435.9 -281.7,424.9 -279.5,410.8 -285.6,399.4 
			-295.6,379.1 -302.2,377.9 -332.6,377.9 -334.1,390.9 		"/>
	</g>
	<g id="Layer_2">
		
			<linearGradient id="SVGID_1_" gradientUnits="userSpaceOnUse" x1="-370.2357" y1="436.4065" x2="-279.7786" y2="436.4065" gradientTransform="matrix(1 0 0 -1 0 854)">
			<stop  offset="0" style="stop-color:#0081D4"/>
			<stop  offset="1" style="stop-color:#0068AA"/>
		</linearGradient>
		<path class="st1" d="M-359.7,392c0,0,12.2,0,13.8,0s5.8-0.3,6-6s0-9.3,0-10.8s0.1-5.7,5.2-5.7s38.5,0,40.5,0c0,0,3.6,0.6,4.5,3.7
			s8.7,31.4,9.4,33.9c0.8,2.7,1.1,4.8-1.5,3.6c-3.9-1.7-7.6-3.4-8.4-4s-1.8-0.4-2.2-2.9s-4.5-19.5-5-20.2s-0.1-5.6-5.6-5.8
			s-23.5,0-23.5,0s-4.8-0.2-4.8,5.2s0,21,0,21.8s8,28.3,8.6,29.7c0.6,1.3,1.3,3.9-0.8,3.9s-31.6-2.1-31.6,24c0,2.8,1.5,4.5-1.6,1.9
			s-9.9-7.4-12.1-9.2c-2.2-1.8-1.6-5.2-1-8.2s5.6-43.2,5.6-48.2S-361.4,392-359.7,392z"/>
		
			<linearGradient id="SVGID_2_" gradientUnits="userSpaceOnUse" x1="-326.601" y1="418.2252" x2="-250.6086" y2="418.2252" gradientTransform="matrix(1 0 0 -1 0 854)">
			<stop  offset="0" style="stop-color:#0081D4"/>
			<stop  offset="1" style="stop-color:#0068AA"/>
		</linearGradient>
		<path class="st2" d="M-316.6,429c-1.5,0,1.2,9,1.1,9.5c0,0,33.3,0.1,34.9,0c7.1-0.4,17,8.8,18.1,16.3c1.4,9.5,1,9.2,1.2,11.5
			s0.6,7.2,5.2,7.2c0,0,5.3,0.7,5.3-7.2s0.1-16,0-20.8s-5.3-21.9-43-35.2c0,0-26.6-10.6-28.8-11.6s-4.8-1.5-4,1.6s2.2,8.9,2.4,9.9
			c0.2,0.9,0.9,1.9,3.1,2.6c2.2,0.8,23.2,7.7,23.2,13C-297.7,430-307.5,429.4-316.6,429z"/>
		
			<linearGradient id="SVGID_3_" gradientUnits="userSpaceOnUse" x1="-246.1173" y1="393.35" x2="-195.6093" y2="393.35" gradientTransform="matrix(1 0 0 -1 0 854)">
			<stop  offset="0" style="stop-color:#0081D4"/>
			<stop  offset="1" style="stop-color:#0068AA"/>
		</linearGradient>
		<path class="st3" d="M-233.7,439.9c0,0-12.5,21-12.3,29.7s4.8,11.7,10.3,11.7s30.8,0,34.8,0s7.7-1.7,3.5-5.7
			S-229.2,442-233.7,439.9z"/>
		
			<linearGradient id="SVGID_4_" gradientUnits="userSpaceOnUse" x1="-349.4497" y1="391.55" x2="-310.1157" y2="391.55" gradientTransform="matrix(1 0 0 -1 0 854)">
			<stop  offset="0" style="stop-color:#0081D4"/>
			<stop  offset="1" style="stop-color:#0068AA"/>
		</linearGradient>
		<circle class="st4" cx="-329.7" cy="462.4" r="19.7"/>
		
			<linearGradient id="SVGID_5_" gradientUnits="userSpaceOnUse" x1="-305.2838" y1="391.25" x2="-265.9497" y2="391.25" gradientTransform="matrix(1 0 0 -1 0 854)">
			<stop  offset="0" style="stop-color:#0081D4"/>
			<stop  offset="1" style="stop-color:#0068AA"/>
		</linearGradient>
		<circle class="st5" cx="-285.6" cy="462.8" r="19.7"/>
	</g>
	<circle class="st6" cx="-330.1" cy="462.8" r="7.6"/>
	<circle class="st6" cx="-286" cy="462.9" r="7.6"/>
</g>
<sodipodi:namedview  id="namedview46" inkscape:cx="160" pagecolor="#ffffff" bordercolor="#666666" objecttolerance="10" borderopacity="1" guidetolerance="10" inkscape:zoom="0.7375" inkscape:cy="160" showgrid="false" gridtolerance="10" inkscape:pageopacity="0" inkscape:pageshadow="2" inkscape:window-height="480" inkscape:window-x="0" inkscape:window-y="0" inkscape:window-maximized="0" inkscape:current-layer="svg2" inkscape:window-width="640">
	</sodipodi:namedview>
</svg>
