<?xml version="1.0" encoding="utf-8"?>
<!-- Generator: Adobe Illustrator 19.1.0, SVG Export Plug-In . SVG Version: 6.00 Build 0)  -->
<!DOCTYPE svg PUBLIC "-//W3C//DTD SVG 1.1//EN" "http://www.w3.org/Graphics/SVG/1.1/DTD/svg11.dtd">
<svg version="1.1" id="Layer_1" xmlns="http://www.w3.org/2000/svg" xmlns:xlink="http://www.w3.org/1999/xlink" x="0px" y="0px"
	 viewBox="-267 390.9 60 60" style="enable-background:new -267 390.9 60 60;" xml:space="preserve">
<style type="text/css">
	.st0{fill:none;}
	.st1{fill:#4A4A4A;}
</style>
<g>
	<path class="st0" d="M-247.7,427.9l3.7,3.8l-5.2,1.4l-1.5,5.3l-3.9-3.9c0.6,2.3,2.7,4.1,5.3,4.1c3,0,5.5-2.5,5.4-5.5
		C-243.8,430.7-245.5,428.6-247.7,427.9z"/>
	<path class="st0" d="M-223.2,403.4c-0.5-0.1-1-0.2-1.5-0.2c-3,0-5.5,2.5-5.4,5.5c0,0.5,0.1,0.9,0.2,1.3l5.4-1.5L-223.2,403.4z"/>
	<path class="st0" d="M-247.7,427.9c-0.5-0.1-1-0.2-1.5-0.2c-3,0-5.5,2.5-5.4,5.5c0,0.5,0.1,0.9,0.2,1.3l5.4-1.5L-247.7,427.9z"/>
	<path class="st0" d="M-223.2,403.4l3.7,3.8l-5.2,1.4l-1.5,5.3l-3.9-3.9c0.6,2.3,2.7,4.1,5.3,4.1c3,0,5.5-2.5,5.4-5.5
		C-219.3,406.1-220.9,404.1-223.2,403.4z"/>
	<path class="st1" d="M-224.6,408.5l-5.4,1.5c0,0,0,0,0,0l3.9,3.9L-224.6,408.5z"/>
	<polygon class="st1" points="-219.5,407.2 -223.2,403.4 -223.2,403.4 -224.6,408.5 	"/>
	<path class="st1" d="M-249.2,433.1l-5.4,1.5c0,0,0,0,0,0l3.9,3.9L-249.2,433.1z"/>
	<polygon class="st1" points="-244,431.7 -247.7,427.9 -247.7,427.9 -249.2,433.1 	"/>
	<path class="st1" d="M-224.8,402.4c-3.4,0-6.2,2.7-6.2,6.2c0,1.4,0.4,2.6,1.1,3.6l-15.8,15.9c-1-0.7-2.3-1.2-3.7-1.2
		c-3.4,0-6.2,2.7-6.2,6.2s2.7,6.2,6.2,6.2s6.2-2.7,6.2-6.2c0-1.4-0.4-2.6-1.1-3.6l15.8-15.9c1,0.7,2.3,1.2,3.7,1.2
		c3.5,0,6.2-2.7,6.2-6.2S-221.3,402.4-224.8,402.4z M-243.8,433.1c0,3-2.4,5.5-5.4,5.5c-2.6,0-4.7-1.7-5.3-4.1c0,0,0,0,0,0
		c-0.1-0.4-0.2-0.9-0.2-1.3c0-3,2.4-5.5,5.4-5.5c0.5,0,1,0.1,1.5,0.2c0,0,0,0,0,0C-245.5,428.6-243.8,430.7-243.8,433.1z
		 M-224.7,414.1c-2.6,0-4.7-1.7-5.3-4.1c0,0,0,0,0,0c-0.1-0.4-0.2-0.9-0.2-1.3c0-3,2.4-5.5,5.4-5.5c0.5,0,1,0.1,1.5,0.2c0,0,0,0,0,0
		c2.3,0.7,3.9,2.8,3.9,5.2C-219.3,411.6-221.7,414.1-224.7,414.1z"/>
</g>
<g id="Layer_1_2_">
</g>
<g id="Layer_1_1_">
</g>
</svg>
