<?xml version="1.0" encoding="utf-8"?>
<!-- Generator: Adobe Illustrator 19.1.0, SVG Export Plug-In . SVG Version: 6.00 Build 0)  -->
<!DOCTYPE svg PUBLIC "-//W3C//DTD SVG 1.1//EN" "http://www.w3.org/Graphics/SVG/1.1/DTD/svg11.dtd">
<svg version="1.1" id="Layer_1" xmlns="http://www.w3.org/2000/svg" xmlns:xlink="http://www.w3.org/1999/xlink" x="0px" y="0px"
	 viewBox="-169 292.9 256 256" style="enable-background:new -169 292.9 256 256;" xml:space="preserve">
<style type="text/css">
	.st0{fill:#FFFFFF;}
	.st1{fill:#231F20;}
</style>
<g>
	<polygon class="st0" points="-41.5,338.8 -86,463.7 -41.5,423.8 -41.5,402.5 	"/>
	<path class="st1" d="M8.6,469.5l-50.1-136.6l-49.1,137.6L-41,426L8.6,469.5z M-86,463.7l44.5-124.9v-3L6.3,466.2l-47.8-41.8v-0.6
		L-86,463.7z"/>
	<polygon points="6.3,466.2 -41.5,335.8 -41.5,338.8 -41.5,423.8 -41.5,424.3 	"/>
	<polygon points="-31.3,501.1 -50.8,472.7 -55.3,472.7 -55.3,508.7 -51.1,508.7 -51.1,480.4 -31.6,508.9 -26.8,508.9 -26.8,472.7 
		-31.3,472.7 	"/>
</g>
</svg>
