<?xml version="1.0" encoding="UTF-8" standalone="no"?>
<!-- Svg Vector Icons : http://www.onlinewebfonts.com/icon -->

<svg
   xmlns:dc="http://purl.org/dc/elements/1.1/"
   xmlns:cc="http://creativecommons.org/ns#"
   xmlns:rdf="http://www.w3.org/1999/02/22-rdf-syntax-ns#"
   xmlns:svg="http://www.w3.org/2000/svg"
   xmlns="http://www.w3.org/2000/svg"
   xmlns:sodipodi="http://sodipodi.sourceforge.net/DTD/sodipodi-0.dtd"
   xmlns:inkscape="http://www.inkscape.org/namespaces/inkscape"
   version="1.1"
   x="0px"
   y="0px"
   viewBox="0 0 32 32"
   enable-background="new 0 0 1000 1000"
   xml:space="preserve"
   id="svg2"
   inkscape:version="0.91 r13725"
   sodipodi:docname="noTick.svg"
   width="32"
   height="32"><defs
     id="defs12" /><sodipodi:namedview
     pagecolor="#ffffff"
     bordercolor="#666666"
     borderopacity="1"
     objecttolerance="10"
     gridtolerance="10"
     guidetolerance="10"
     inkscape:pageopacity="0"
     inkscape:pageshadow="2"
     inkscape:window-width="1920"
     inkscape:window-height="1058"
     id="namedview10"
     showgrid="true"
     inkscape:zoom="10.86116"
     inkscape:cx="-12.054105"
     inkscape:cy="15.52772"
     inkscape:window-x="1912"
     inkscape:window-y="-8"
     inkscape:window-maximized="1"
     inkscape:current-layer="svg2"
     showguides="true"
     inkscape:guide-bbox="true"><inkscape:grid
       type="xygrid"
       id="grid3350" /><sodipodi:guide
       position="21,23"
       orientation="0,1"
       id="guide3354" /><sodipodi:guide
       position="27,9"
       orientation="0,1"
       id="guide3356" /><sodipodi:guide
       position="11,12.636772"
       orientation="1,0"
       id="guide3358" /><sodipodi:guide
       position="21,10.657241"
       orientation="1,0"
       id="guide3360" /></sodipodi:namedview><metadata
     id="metadata4"> Svg Vector Icons : http://www.onlinewebfonts.com/icon <rdf:RDF><cc:Work
     rdf:about=""><dc:format>image/svg+xml</dc:format><dc:type
       rdf:resource="http://purl.org/dc/dcmitype/StillImage" /><dc:title></dc:title></cc:Work></rdf:RDF></metadata><g
     id="g6"
     transform="matrix(0.02285656,0,0,0.02285714,4.5725772,4.47143)"><path
       d="M 846.5,153.5 C 750.8,57.8 625.4,10 500,10 374.6,10 249.2,57.8 153.5,153.5 c -191.4,191.4 -191.4,501.6 0,693 95.7,95.7 221.1,143.5 346.5,143.5 125.4,0 250.8,-47.8 346.5,-143.5 191.3,-191.4 191.3,-501.6 0,-693 z"
       id="path8"
       inkscape:connector-curvature="0"
       sodipodi:nodetypes="csssscc" /></g><g
     transform="scale(1.040027,0.96151348)"
     style="font-style:normal;font-variant:normal;font-weight:normal;font-stretch:normal;font-size:9.8186264px;line-height:125%;font-family:sans-serif;-inkscape-font-specification:sans-serif;letter-spacing:0px;word-spacing:0px;fill:#000000;fill-opacity:1;stroke:none;stroke-width:1px;stroke-linecap:butt;stroke-linejoin:miter;stroke-opacity:1"
     id="text3346"><path
       d="m 10.598348,13.390891 q 0,-0.910908 0.584899,-1.840993 0.584899,-0.939673 1.706753,-1.5533371 1.121855,-0.6136642 2.617661,-0.6136642 1.390333,0 2.454657,0.5177791 1.064324,0.5081902 1.639634,1.3903332 0.584899,0.882142 0.584899,1.9177 0,0.815023 -0.335598,1.428687 -0.326009,0.613664 -0.786257,1.064324 -0.45066,0.441071 -1.630046,1.495806 -0.326009,0.297244 -0.527367,0.527368 -0.19177,0.220535 -0.287655,0.412305 -0.09589,0.182182 -0.153416,0.373952 -0.04794,0.182181 -0.153416,0.652018 -0.182182,0.997204 -1.141032,0.997204 -0.498602,0 -0.843788,-0.326009 -0.335598,-0.326009 -0.335598,-0.968438 0,-0.805435 0.249301,-1.390333 0.249301,-0.594487 0.661607,-1.035559 0.412305,-0.450659 1.112266,-1.064323 0.613664,-0.536956 0.882142,-0.805435 0.278067,-0.278066 0.460248,-0.613664 0.19177,-0.335597 0.19177,-0.728726 0,-0.76708 -0.57531,-1.294448 -0.565721,-0.527367 -1.467041,-0.527367 -1.054735,0 -1.553337,0.536956 -0.498602,0.527367 -0.843788,1.562926 -0.326009,1.0835 -1.236917,1.0835 -0.536956,0 -0.910908,-0.373951 -0.364363,-0.38354 -0.364363,-0.824611 z m 4.679189,10.508998 q -0.584898,0 -1.025969,-0.373951 -0.431483,-0.38354 -0.431483,-1.064324 0,-0.604076 0.421894,-1.016381 0.421894,-0.412306 1.035558,-0.412306 0.604076,0 1.016382,0.412306 0.412305,0.412305 0.412305,1.016381 0,0.671195 -0.431482,1.054735 -0.431483,0.38354 -0.997205,0.38354 z"
       style="font-style:normal;font-variant:normal;font-weight:normal;font-stretch:normal;font-size:19.63725281px;font-family:'Arial Rounded MT Bold';-inkscape-font-specification:'Arial Rounded MT Bold, ';fill:#ffffff"
       id="path4163" /></g></svg>