<?xml version="1.0" encoding="utf-8"?>
<!-- Generator: Adobe Illustrator 19.1.0, SVG Export Plug-In . SVG Version: 6.00 Build 0)  -->
<!DOCTYPE svg PUBLIC "-//W3C//DTD SVG 1.1//EN" "http://www.w3.org/Graphics/SVG/1.1/DTD/svg11.dtd">
<svg version="1.1"
	 id="svg2" xmlns:inkscape="http://www.inkscape.org/namespaces/inkscape" xmlns:cc="http://creativecommons.org/ns#" xmlns:svg="http://www.w3.org/2000/svg" xmlns:dc="http://purl.org/dc/elements/1.1/" xmlns:rdf="http://www.w3.org/1999/02/22-rdf-syntax-ns#" xmlns:sodipodi="http://sodipodi.sourceforge.net/DTD/sodipodi-0.dtd" sodipodi:docname="pcs-project.svg" inkscape:version="0.91 r13725"
	 xmlns="http://www.w3.org/2000/svg" xmlns:xlink="http://www.w3.org/1999/xlink" x="0px" y="0px" viewBox="-411 298 256 256"
	 style="enable-background:new -411 298 256 256;" xml:space="preserve">
<style type="text/css">
	.st0{fill:#015491;}
	.st1{fill:url(#SVGID_1_);}
	.st2{fill:none;stroke:#015491;stroke-width:2;stroke-miterlimit:10;}
	.st3{fill:#FFFFFF;}
</style>
<g>
	<rect x="-371.2" y="417" class="st0" width="53.4" height="14.5"/>
	<g>
		<radialGradient id="SVGID_1_" cx="-249.4228" cy="426" r="44.4208" gradientUnits="userSpaceOnUse">
			<stop  offset="0" style="stop-color:#0081D4"/>
			<stop  offset="0.3187" style="stop-color:#007CCB"/>
			<stop  offset="0.8348" style="stop-color:#006DB3"/>
			<stop  offset="1" style="stop-color:#0068AA"/>
		</radialGradient>
		<path class="st1" d="M-301.1,395.1c-1.6,0-3,1.4-3,3v55.9c0,1.6,1.4,3,3,3h103.3c1.6,0,3-1.4,3-3v-55.9c0-1.6-1.4-3-3-3H-301.1z
			 M-290.7,413.4c0-2,0.8-2.3,0.8-2.3c1.5-0.7,4.1-1.2,5.7-1.2h37.5c1.6,0,4.2,0.6,5.7,1.2c0,0,0.8,0.4,0.8,2.3c0,2-0.8,2.3-0.8,2.3
			c-1.5,0.7-4.1,1.2-5.7,1.2h-37.5c-1.6,0-4.2-0.6-5.7-1.2C-289.9,415.7-290.7,415.4-290.7,413.4z M-212.6,438.5
			c-1.5,0.7-4.1,1.2-5.7,1.2h-18.5c-1.6,0-4.2-0.6-5.7-1.2c0,0-1.4-0.6-1.4-2.9s1.4-2.9,1.4-2.9c1.5-0.7,4.1-1.2,5.7-1.2h18.5
			c1.6,0,4.2,0.6,5.7,1.2c0,0,1.4,0.6,1.4,2.9S-212.6,438.5-212.6,438.5z"/>
		<path class="st2" d="M-301.1,395.1c-1.6,0-3,1.4-3,3v55.9c0,1.6,1.4,3,3,3h103.3c1.6,0,3-1.4,3-3v-55.9c0-1.6-1.4-3-3-3H-301.1z
			 M-290.7,413.4c0-2,0.8-2.3,0.8-2.3c1.5-0.7,4.1-1.2,5.7-1.2h37.5c1.6,0,4.2,0.6,5.7,1.2c0,0,0.8,0.4,0.8,2.3c0,2-0.8,2.3-0.8,2.3
			c-1.5,0.7-4.1,1.2-5.7,1.2h-37.5c-1.6,0-4.2-0.6-5.7-1.2C-289.9,415.7-290.7,415.4-290.7,413.4z M-212.6,438.5
			c-1.5,0.7-4.1,1.2-5.7,1.2h-18.5c-1.6,0-4.2-0.6-5.7-1.2c0,0-1.4-0.6-1.4-2.9s1.4-2.9,1.4-2.9c1.5-0.7,4.1-1.2,5.7-1.2h18.5
			c1.6,0,4.2,0.6,5.7,1.2c0,0,1.4,0.6,1.4,2.9S-212.6,438.5-212.6,438.5z"/>
	</g>
	<path class="st3" d="M-240.1,413.4c0-2-1.6-3.6-3.6-3.6h-43.5c-2,0-3.6,1.6-3.6,3.6c0,2,1.6,3.6,3.6,3.6h43.5
		C-241.7,417-240.1,415.4-240.1,413.4z"/>
	<path class="st3" d="M-215.4,431.5h-24.5c-2.3,0-4.1,1.8-4.1,4.1s1.8,4.1,4.1,4.1h24.5c2.3,0,4.1-1.8,4.1-4.1
		S-213.1,431.5-215.4,431.5z"/>
</g>
<sodipodi:namedview  id="namedview14" inkscape:cx="160" pagecolor="#ffffff" bordercolor="#666666" objecttolerance="10" borderopacity="1" guidetolerance="10" inkscape:zoom="0.7375" inkscape:cy="160" showgrid="false" gridtolerance="10" inkscape:pageopacity="0" inkscape:pageshadow="2" inkscape:window-height="480" inkscape:window-x="0" inkscape:window-y="0" inkscape:window-maximized="0" inkscape:current-layer="svg2" inkscape:window-width="640">
	</sodipodi:namedview>
</svg>
