<?xml version="1.0" encoding="utf-8"?>
<!-- Generator: Adobe Illustrator 19.1.0, SVG Export Plug-In . SVG Version: 6.00 Build 0)  -->
<!DOCTYPE svg PUBLIC "-//W3C//DTD SVG 1.1//EN" "http://www.w3.org/Graphics/SVG/1.1/DTD/svg11.dtd">
<svg version="1.1"
	 id="svg2" xmlns:inkscape="http://www.inkscape.org/namespaces/inkscape" xmlns:cc="http://creativecommons.org/ns#" xmlns:svg="http://www.w3.org/2000/svg" xmlns:dc="http://purl.org/dc/elements/1.1/" xmlns:rdf="http://www.w3.org/1999/02/22-rdf-syntax-ns#" xmlns:sodipodi="http://sodipodi.sourceforge.net/DTD/sodipodi-0.dtd" sodipodi:docname="pcs-setup.svg" inkscape:version="0.91 r13725"
	 xmlns="http://www.w3.org/2000/svg" xmlns:xlink="http://www.w3.org/1999/xlink" x="0px" y="0px" viewBox="-411 298 256 256"
	 style="enable-background:new -411 298 256 256;" xml:space="preserve">
<style type="text/css">
	.st0{fill:none;}
	.st1{fill:url(#SVGID_1_);}
	.st2{fill:url(#SVGID_2_);}
	.st3{fill:url(#SVGID_3_);}
	.st4{fill:url(#SVGID_4_);}
</style>
<g>
	<rect x="-310" y="362.8" class="st0" width="54.1" height="15.8"/>
	<radialGradient id="SVGID_1_" cx="-332.0417" cy="432.3125" r="10.12" gradientUnits="userSpaceOnUse">
		<stop  offset="0" style="stop-color:#0081D4"/>
		<stop  offset="1" style="stop-color:#0068AA"/>
	</radialGradient>
	<rect x="-338.3" y="419.4" class="st1" width="12.5" height="25.8"/>
	<radialGradient id="SVGID_2_" cx="-234.5833" cy="432.3125" r="10.12" gradientUnits="userSpaceOnUse">
		<stop  offset="0" style="stop-color:#0081D4"/>
		<stop  offset="1" style="stop-color:#0068AA"/>
	</radialGradient>
	<rect x="-240.8" y="419.4" class="st2" width="12.5" height="25.8"/>
	<radialGradient id="SVGID_3_" cx="-283" cy="387.6667" r="66.0272" gradientUnits="userSpaceOnUse">
		<stop  offset="0" style="stop-color:#0081D4"/>
		<stop  offset="1" style="stop-color:#0068AA"/>
	</radialGradient>
	<path class="st3" d="M-244.8,378.6v-27h-76.6v27h-47.7v45h24.3v-11h25.3v11h72.2v-11h25.3v11h25.1v-45H-244.8z M-255.8,378.6H-310
		v-15.8h54.1V378.6z"/>
	<radialGradient id="SVGID_4_" cx="-282.9063" cy="467.2917" r="62.8972" gradientUnits="userSpaceOnUse">
		<stop  offset="0" style="stop-color:#0081D4"/>
		<stop  offset="1" style="stop-color:#0068AA"/>
	</radialGradient>
	<polygon class="st4" points="-222,451.6 -247.2,451.6 -247.2,434.3 -319.7,434.3 -319.7,451.6 -344.8,451.6 -344.8,434.3 
		-365.5,434.3 -365.5,500.3 -200.3,500.3 -200.3,434.3 -222,434.3 	"/>
</g>
<sodipodi:namedview  id="namedview16" inkscape:cx="160" pagecolor="#ffffff" bordercolor="#666666" objecttolerance="10" borderopacity="1" guidetolerance="10" inkscape:zoom="0.7375" inkscape:cy="160" showgrid="false" gridtolerance="10" inkscape:pageopacity="0" inkscape:pageshadow="2" inkscape:window-height="480" inkscape:window-x="0" inkscape:window-y="0" inkscape:window-maximized="0" inkscape:current-layer="svg2" inkscape:window-width="640">
	</sodipodi:namedview>
</svg>
