<?xml version="1.0" encoding="utf-8"?>
<!-- Generator: Adobe Illustrator 19.1.0, SVG Export Plug-In . SVG Version: 6.00 Build 0)  -->
<!DOCTYPE svg PUBLIC "-//W3C//DTD SVG 1.1//EN" "http://www.w3.org/Graphics/SVG/1.1/DTD/svg11.dtd">
<svg version="1.1" id="Layer_1" xmlns="http://www.w3.org/2000/svg" xmlns:xlink="http://www.w3.org/1999/xlink" x="0px" y="0px"
	 viewBox="-509 396 60 60" style="enable-background:new -509 396 60 60;" xml:space="preserve">
<style type="text/css">
	.st0{fill:#FFFFFF;}
	.st1{fill:#4E4E50;}
</style>
<g>
	<path class="st0" d="M-479,405.6c-6.1,0-11.1,5-11.1,11.1c0,5.1,6.8,17.7,11.1,25.1c4.3-7.4,11.1-20,11.1-25.1
		C-467.9,410.6-472.9,405.6-479,405.6z M-479,420c-1.9,0-3.5-1.5-3.5-3.5s1.5-3.5,3.5-3.5s3.5,1.5,3.5,3.5S-477.1,420-479,420z"/>
	<path class="st1" d="M-479,400.6c-8.9,0-16.1,7.2-16.1,16.1c0,8.6,12.6,29,14,31.3l2.1,3.4l2.1-3.4c1.4-2.3,14-22.6,14-31.3
		C-462.9,407.8-470.1,400.6-479,400.6z M-479,441.8c-4.3-7.4-11.1-20-11.1-25.1c0-6.1,5-11.1,11.1-11.1s11.1,5,11.1,11.1
		C-467.9,421.9-474.7,434.5-479,441.8z"/>
	<circle class="st1" cx="-479" cy="416.6" r="3.5"/>
</g>
</svg>
