<?xml version="1.0" encoding="utf-8"?>
<!-- Generator: Adobe Illustrator 19.1.0, SVG Export Plug-In . SVG Version: 6.00 Build 0)  -->
<!DOCTYPE svg PUBLIC "-//W3C//DTD SVG 1.1//EN" "http://www.w3.org/Graphics/SVG/1.1/DTD/svg11.dtd">
<svg version="1.1" id="Layer_1" xmlns="http://www.w3.org/2000/svg" xmlns:xlink="http://www.w3.org/1999/xlink" x="0px" y="0px"
	 viewBox="-277 400.9 40 40" style="enable-background:new -277 400.9 40 40;" xml:space="preserve">
<style type="text/css">
	.st0{fill:#FFFFFF;}
	.st1{fill:#231F20;}
</style>
<g>
	<path class="st0" d="M-243.6,420.9c0-7.4-6-13.4-13.4-13.4s-13.4,6-13.4,13.4s6,13.4,13.4,13.4S-243.6,428.3-243.6,420.9z"/>
	<path class="st1" d="M-249.8,419.1h-5.4v-5.4c0-1-0.8-1.8-1.8-1.8s-1.8,0.8-1.8,1.8v5.4h-5.4c-1,0-1.8,0.8-1.8,1.8s0.8,1.8,1.8,1.8
		h5.4v5.4c0,1,0.8,1.8,1.8,1.8s1.8-0.8,1.8-1.8v-5.4h5.4c1,0,1.8-0.8,1.8-1.8S-248.8,419.1-249.8,419.1z"/>
	<path class="st1" d="M-257,405.2c-8.6,0-15.7,7-15.7,15.7c0,8.6,7,15.7,15.7,15.7s15.7-7,15.7-15.7S-248.4,405.2-257,405.2z
		 M-257,434.3c-7.4,0-13.4-6-13.4-13.4s6-13.4,13.4-13.4s13.4,6,13.4,13.4S-249.6,434.3-257,434.3z"/>
</g>
</svg>
