<?xml version="1.0" encoding="UTF-8" standalone="no"?>
<svg
   xmlns:dc="http://purl.org/dc/elements/1.1/"
   xmlns:cc="http://creativecommons.org/ns#"
   xmlns:rdf="http://www.w3.org/1999/02/22-rdf-syntax-ns#"
   xmlns:svg="http://www.w3.org/2000/svg"
   xmlns="http://www.w3.org/2000/svg"
   xmlns:sodipodi="http://sodipodi.sourceforge.net/DTD/sodipodi-0.dtd"
   xmlns:inkscape="http://www.inkscape.org/namespaces/inkscape"
   width="40pt"
   height="40pt"
   viewBox="0 0 40 40"
   version="1.1"
   id="svg2"
   inkscape:version="0.91 r13725"
   sodipodi:docname="plus-blue.svg">
  <metadata
     id="metadata16">
    <rdf:RDF>
      <cc:Work
         rdf:about="">
        <dc:format>image/svg+xml</dc:format>
        <dc:type
           rdf:resource="http://purl.org/dc/dcmitype/StillImage" />
        <dc:title></dc:title>
      </cc:Work>
    </rdf:RDF>
  </metadata>
  <defs
     id="defs14" />
  <sodipodi:namedview
     pagecolor="#ffffff"
     bordercolor="#666666"
     borderopacity="1"
     objecttolerance="10"
     gridtolerance="10"
     guidetolerance="10"
     inkscape:pageopacity="0"
     inkscape:pageshadow="2"
     inkscape:window-width="1920"
     inkscape:window-height="1018"
     id="namedview12"
     showgrid="false"
     inkscape:zoom="4.72"
     inkscape:cx="25"
     inkscape:cy="25"
     inkscape:window-x="-8"
     inkscape:window-y="-8"
     inkscape:window-maximized="1"
     inkscape:current-layer="svg2" />
  <path
     fill="#ffffff"
     d=" M 0.00 0.00 L 40.00 0.00 L 40.00 40.00 L 0.00 40.00 L 0.00 0.00 Z"
     id="path4" />
  <path
     fill="#999999"
     d=" M 14.29 5.62 C 22.55 2.12 32.92 7.58 34.78 16.31 C 37.18 24.76 30.63 34.17 21.99 35.19 C 15.22 36.24 7.86 32.20 5.55 25.65 C 2.25 18.10 6.43 8.26 14.29 5.62 Z"
     id="path6"
     style="fill:#ffffff;fill-opacity:1" />
  <path
     fill="#006db4"
     d=" M 15.32 9.46 C 21.42 6.62 29.32 10.47 30.89 16.99 C 32.73 23.15 28.31 30.13 22.00 31.19 C 16.61 32.35 10.83 28.98 9.05 23.80 C 6.90 18.33 9.92 11.65 15.32 9.46 Z"
     id="path8" />
  <path
     fill="#999999"
     d=" M 18.08 13.99 C 19.37 14.00 20.66 14.01 21.95 14.02 C 21.95 15.34 21.95 16.66 21.95 17.98 C 23.30 17.99 24.65 18.00 26.00 18.02 C 26.00 19.34 26.00 20.66 26.00 21.98 C 24.65 22.00 23.31 22.01 21.96 22.02 C 21.95 23.35 21.94 24.67 21.93 26.00 C 20.65 26.00 19.36 26.00 18.08 26.00 C 18.07 24.67 18.05 23.35 18.04 22.02 C 16.69 22.01 15.35 21.99 14.00 21.98 C 14.00 20.66 14.00 19.34 14.00 18.02 C 15.35 18.00 16.69 17.99 18.04 17.98 C 18.05 16.65 18.06 15.32 18.08 13.99 Z"
     id="path10"
     style="fill:#ffffff;fill-opacity:1" />
</svg>
