<?xml version="1.0" encoding="utf-8"?>
<!-- Generator: Adobe Illustrator 19.1.0, SVG Export Plug-In . SVG Version: 6.00 Build 0)  -->
<!DOCTYPE svg PUBLIC "-//W3C//DTD SVG 1.1//EN" "http://www.w3.org/Graphics/SVG/1.1/DTD/svg11.dtd">
<svg version="1.1" id="Layer_1" xmlns="http://www.w3.org/2000/svg" xmlns:xlink="http://www.w3.org/1999/xlink" x="0px" y="0px"
	 viewBox="-267 390.9 60 60" style="enable-background:new -267 390.9 60 60;" xml:space="preserve">
<style type="text/css">
	.st0{fill:#FFFFFF;}
</style>
<g>
	<polygon points="-223.7,406.6 -223.7,412.9 -250.3,412.9 -250.3,406.6 -257.3,406.6 -257.3,412.9 -257.3,420 -257.3,426.4 
		-250.3,426.4 -250.3,420 -223.7,420 -223.7,426.4 -216.7,426.4 -216.7,406.6 	"/>
	<rect x="-247.5" y="400.4" width="20.9" height="8.7"/>
	<path class="st0" d="M-227.1,425H-247v15.4h19.9V425z M-243.3,427.7h4.7v3h-4.7V427.7z M-230.4,436.3h-12.9v-3h12.9V436.3z"/>
	<path d="M-247.9,441.4h21.9V424h-21.9V441.4z M-246.9,425h19.9v15.4h-19.9V425z"/>
	<rect x="-243.3" y="427.7" width="4.7" height="3"/>
	<rect x="-243.3" y="433.3" width="12.9" height="3"/>
</g>
</svg>
