<?xml version="1.0" encoding="utf-8"?>
<!-- Generator: Adobe Illustrator 19.1.0, SVG Export Plug-In . SVG Version: 6.00 Build 0)  -->
<!DOCTYPE svg PUBLIC "-//W3C//DTD SVG 1.1//EN" "http://www.w3.org/Graphics/SVG/1.1/DTD/svg11.dtd">
<svg version="1.1" id="Layer_1" xmlns="http://www.w3.org/2000/svg" xmlns:xlink="http://www.w3.org/1999/xlink" x="0px" y="0px"
	 viewBox="-267 390.9 60 60" style="enable-background:new -267 390.9 60 60;" xml:space="preserve">
<style type="text/css">
	.st0{fill:#FFFFFF;}
	.st1{fill:#767676;}
</style>
<g>
	<path class="st0" d="M-231,405h-18v5.3c0,0.5-0.5,0.9-1,0.9h-5.2v25.4c0,0.4,0.2,0.5,0.5,0.5h6.6V437v-16.4l6.8-6.8h10.7v-8.4
		C-230.6,405.2-230.8,405-231,405z"/>
	<path class="st0" d="M-220,432.8h-4c-0.3,0-0.6-0.3-0.6-0.6c0-0.4,0.3-0.6,0.6-0.6h4h0.2l0-1.9h-0.2h-4c-0.3,0-0.6-0.3-0.6-0.6
		s0.3-0.6,0.6-0.6h4h0.2l0-1.1h-1.7v-11.3c0-0.2-0.2-0.4-0.4-0.4h-18v5.3c0,0.5-0.5,0.9-1,0.9h-5.2v25.4c0,0.3,0.2,0.5,0.5,0.5h23.7
		c0.3,0,0.4-0.2,0.4-0.5v-1.2h1.7l0-1h-0.2h-4c-0.3,0-0.6-0.3-0.6-0.6s0.3-0.6,0.6-0.6h4h0.2l0-1.9h-0.2h-4c-0.3,0-0.6-0.3-0.6-0.6
		s0.3-0.6,0.6-0.6h4h0.2l0-1.8h-0.2h-4c-0.3,0-0.6-0.3-0.6-0.6c0-0.4,0.3-0.7,0.6-0.6h4h0.2l0-1.9h-0.2h-4c-0.3,0-0.6-0.3-0.6-0.6
		c0-0.4,0.3-0.7,0.6-0.6h4h0.2l0-1.9H-220z"/>
	<path class="st0" d="M-263.8,426.1c0.3,0,6.6,0,6.6,0V426v-15.9l6.8-6.8h10.7v-8.9c0-0.2-0.2-0.4-0.4-0.4h-18v5.3
		c0,0.5-0.5,0.9-1,0.9h-5.2c0,0,0,25.1,0,25.4C-264.3,425.8-264.1,426.1-263.8,426.1z"/>
	<path class="st1" d="M-221.5,447.3c0,0.3-0.1,0.5-0.4,0.5h-23.7c-0.3,0-0.5-0.2-0.5-0.5v-25.4h5.2c0.5,0,1-0.4,1-0.9v-5.3h18
		c0.2,0,0.4,0.2,0.4,0.4v11.3h1.7h0.2v-11.3c0-1.2-1.1-2.2-2.4-2.2h-6.8v-8.4c0-1.2-1.1-2.2-2.4-2.2h-6.8v-8.9
		c0-1.2-1.1-2.2-2.4-2.2h-19.4l-6.8,6.8v26.7c0,1.2,1.1,2.2,2.4,2.2h6.8v8.9c0,1.2,1.1,2.2,2.4,2.2h6.8v8.4c0,1.2,1.1,2.2,2.4,2.2
		h23.7c1.3,0,2.4-1,2.4-2.2v-1.3h-0.1h-1.7V447.3z M-230.6,413.8h-10.7l-6.8,6.8V437v0.1h-6.6c-0.3,0-0.5-0.1-0.5-0.5v-25.4h5.2
		c0.5,0,1-0.4,1-0.9V405h18c0.2,0,0.4,0.2,0.4,0.4V413.8z M-264.3,400.2h5.2c0.5,0,1-0.4,1-0.9V394h18c0.2,0,0.4,0.2,0.4,0.4v8.9
		h-10.7l-6.8,6.8V426v0.1c0,0-6.3,0-6.6,0c-0.3,0-0.5-0.2-0.5-0.5C-264.3,425.3-264.3,400.2-264.3,400.2z"/>
	<path class="st1" d="M-224,443.9c-0.3,0-0.6,0.3-0.6,0.6s0.3,0.6,0.6,0.6h4h0.2h11.8c0.3,0,0.6-0.3,0.6-0.6c0-0.3-0.3-0.6-0.6-0.6
		h-11.8h-0.2H-224z"/>
	<path class="st1" d="M-224,440.8c-0.3,0-0.6,0.3-0.6,0.6s0.3,0.6,0.6,0.6h4h0.2h11.8c0.3,0,0.6-0.3,0.6-0.6c0-0.3-0.3-0.6-0.6-0.6
		h-11.8h-0.2H-224z"/>
	<path class="st1" d="M-224,437.8c-0.3-0.1-0.6,0.2-0.6,0.6c0,0.3,0.3,0.6,0.6,0.6h4h0.2h11.8c0.3,0,0.6-0.3,0.6-0.6
		c0-0.3-0.3-0.6-0.6-0.6h-11.8h-0.2H-224z"/>
	<path class="st1" d="M-224,434.7c-0.3-0.1-0.6,0.2-0.6,0.6c0,0.3,0.3,0.6,0.6,0.6h4h0.2h11.8c0.3,0,0.6-0.3,0.6-0.6
		c0-0.3-0.3-0.6-0.6-0.6h-11.8h-0.2H-224z"/>
	<path class="st1" d="M-224,431.6c-0.3,0-0.6,0.2-0.6,0.6c0,0.3,0.3,0.6,0.6,0.6h4h0.2h11.8c0.3,0,0.6-0.3,0.6-0.6
		c0-0.3-0.3-0.6-0.6-0.6h-11.8h-0.2H-224z"/>
	<path class="st1" d="M-224,428.5c-0.3,0-0.6,0.3-0.6,0.6s0.3,0.6,0.6,0.6h4h0.2h11.8c0.3,0,0.6-0.3,0.6-0.6c0-0.3-0.3-0.6-0.6-0.6
		h-11.8h-0.2H-224z"/>
</g>
</svg>
