<?xml version="1.0" encoding="utf-8"?>
<!-- Generator: Adobe Illustrator 19.1.0, SVG Export Plug-In . SVG Version: 6.00 Build 0)  -->
<!DOCTYPE svg PUBLIC "-//W3C//DTD SVG 1.1//EN" "http://www.w3.org/Graphics/SVG/1.1/DTD/svg11.dtd">
<svg version="1.1" id="Layer_1" xmlns="http://www.w3.org/2000/svg" xmlns:xlink="http://www.w3.org/1999/xlink" x="0px" y="0px"
	 viewBox="-267 390.9 60 60" style="enable-background:new -267 390.9 60 60;" xml:space="preserve">
<style type="text/css">
	.st0{fill:#FFFFFF;}
	.st1{fill:#767676;}
</style>
<g>
	<path class="st0" d="M-218.4,413.5v-19c0-0.3-0.3-0.6-0.6-0.6h-30.4v9c0,0.9-0.7,1.5-1.6,1.5h-8.8v42.7c0,0.4,0.3,0.8,0.7,0.8h39.9
		c0.6,0,0.7-0.3,0.7-0.8v-3.6v-0.1h3.1v0.1l4.5,0v-2.6c0,0.6-0.4,1-1,1h-26c-0.6,0-1-0.4-1-1s0.4-1,1-1h26c0.6,0,1,0.4,1,1v-5
		c0,0.6-0.4,1-1,1h-26c-0.6,0-1-0.4-1-1s0.4-1,1-1h26c0.6,0,1,0.4,1,1v-5c0,0.6-0.4,1-1,1h-26c-0.6,0-1-0.4-1-1s0.4-1,1-1h26
		c0.6,0,1,0.4,1,1v-5c0,0.6-0.4,1-1,1h-26c-0.6,0-1-0.4-1-1s0.4-1,1-1h26c0.6,0,1,0.4,1,1v-5c0,0.6-0.4,1-1,1h-26c-0.6,0-1-0.4-1-1
		s0.4-1,1-1h26c0.6,0,1,0.4,1,1v-5c0,0.6-0.4,1-1,1h-26c-0.6,0-1-0.4-1-1s0.4-1,1-1h26c0.6,0,1,0.4,1,1v-2.4L-218.4,413.5z"/>
	<path class="st1" d="M-218.4,443.4L-218.4,443.4v3.6c0,0.4-0.2,0.8-0.7,0.8H-259c-0.5,0-0.7-0.3-0.7-0.8v-42.7h8.8
		c0.9,0,1.6-0.6,1.6-1.5v-9h30.4c0.3,0,0.6,0.3,0.6,0.6v19h1.2h2.1v-19c0-2-1.8-3.6-4-3.6h-32.7l-11.4,11.4v45c0,2,1.8,3.6,4,3.6
		h39.9c2.2,0,4-1.7,4-3.6v-3.7v-0.1H-218.4z"/>
	<path class="st1" d="M-211.8,439.9h-26c-0.6,0-1,0.4-1,1s0.4,1,1,1h26c0.6,0,1-0.4,1-1S-211.3,439.9-211.8,439.9z"/>
	<path class="st1" d="M-211.8,434.9h-26c-0.6,0-1,0.4-1,1s0.4,1,1,1h26c0.6,0,1-0.4,1-1S-211.3,434.9-211.8,434.9z"/>
	<path class="st1" d="M-211.8,429.9h-26c-0.6,0-1,0.4-1,1s0.4,1,1,1h26c0.6,0,1-0.4,1-1S-211.3,429.9-211.8,429.9z"/>
	<path class="st1" d="M-211.8,424.9h-26c-0.6,0-1,0.4-1,1s0.4,1,1,1h26c0.6,0,1-0.4,1-1S-211.3,424.9-211.8,424.9z"/>
	<path class="st1" d="M-211.8,419.9h-26c-0.6,0-1,0.4-1,1s0.4,1,1,1h26c0.6,0,1-0.4,1-1S-211.3,419.9-211.8,419.9z"/>
	<path class="st1" d="M-211.8,414.9h-26c-0.6,0-1,0.4-1,1s0.4,1,1,1h26c0.6,0,1-0.4,1-1S-211.3,414.9-211.8,414.9z"/>
</g>
</svg>
