<?xml version="1.0" encoding="utf-8"?>
<!-- Generator: Adobe Illustrator 19.1.0, SVG Export Plug-In . SVG Version: 6.00 Build 0)  -->
<!DOCTYPE svg PUBLIC "-//W3C//DTD SVG 1.1//EN" "http://www.w3.org/Graphics/SVG/1.1/DTD/svg11.dtd">
<svg version="1.1" id="Layer_1" xmlns="http://www.w3.org/2000/svg" xmlns:xlink="http://www.w3.org/1999/xlink" x="0px" y="0px"
	 viewBox="-267 390.9 60 60" style="enable-background:new -267 390.9 60 60;" xml:space="preserve">
<style type="text/css">
	.st0{fill:#FFFFFF;}
	.st1{fill:#767676;}
</style>
<g>
	<path class="st0" d="M-221,440.6c0-1.7,0-3.5,0-5.3c-5.3,0-10.7,0-16,0c0-4.3,0-8.7,0-13c5.3,0,10.7,0,16,0c0-1.7,0-3.5,0-5.3
		c0.6,0.6,1.2,1.1,1.8,1.7v-5.2h-1.3v-18.8c0-0.3-0.3-0.6-0.6-0.6h-30.2v9c0,0.7-0.7,1.5-1.6,1.5h-8.7v42.7c0,0.3,0.3,0.6,0.6,0.6
		h39.9c0.2,0,0.5-0.2,0.5-0.6c0-0.5,0-3.8,0-3.8v0h1.4v-4.6C-219.8,439.5-220.3,440-221,440.6z"/>
	<path class="st1" d="M-220.6,443.5c0,0,0,3.3,0,3.8c0,0.4-0.3,0.6-0.5,0.6H-261c-0.3,0-0.6-0.3-0.6-0.6v-42.7h8.7
		c0.9,0,1.6-0.8,1.6-1.5v-9h30.2c0.3,0,0.6,0.3,0.6,0.6v18.8h1.3h2.1v-19c0-2-1.8-3.6-4-3.6h-32.7l-11.4,11.4v45c0,2,1.8,3.6,4,3.6
		h39.9c2.2,0,4-1.7,4-3.6v-3.8h-1.9L-220.6,443.5L-220.6,443.5z"/>
	<path class="st1" d="M-221,422.3c-5.3,0-10.7,0-16,0c0,4.3,0,8.7,0,13c5.3,0,10.7,0,16,0c0,1.8,0,3.6,0,5.3
		c0.6-0.5,1.2-1.1,1.8-1.7c3.5-3.3,6.7-6.9,10.3-10.1c-3.6-3.2-6.9-6.7-10.3-10.1c-0.6-0.6-1.2-1.2-1.8-1.7
		C-221,418.8-221,420.6-221,422.3z"/>
</g>
</svg>
