<?xml version="1.0" encoding="utf-8"?>
<!-- Generator: Adobe Illustrator 19.1.0, SVG Export Plug-In . SVG Version: 6.00 Build 0)  -->
<!DOCTYPE svg PUBLIC "-//W3C//DTD SVG 1.1//EN" "http://www.w3.org/Graphics/SVG/1.1/DTD/svg11.dtd">
<svg version="1.1" id="Layer_1" xmlns="http://www.w3.org/2000/svg" xmlns:xlink="http://www.w3.org/1999/xlink" x="0px" y="0px"
	 viewBox="-267 390.9 60 60" style="enable-background:new -267 390.9 60 60;" xml:space="preserve">
<style type="text/css">
	.st0{fill:#FFFFFF;}
	.st1{fill:#797979;}
	.st2{fill:#868686;}
</style>
<g>
	<polygon class="st0" points="-222.5,396.7 -233.8,400.3 -221.5,400.3 	"/>
	<path class="st0" d="M-229.1,421.8v5.5c0,0.9,0.7,1.7,1.7,1.7h17.2v-8.8h-17.2C-228.3,420.1-229.1,420.9-229.1,421.8z
		 M-224.3,422.3c1.2,0,2.2,1,2.2,2.2c0,1.2-1,2.2-2.2,2.2c-1.2,0-2.2-1-2.2-2.2C-226.5,423.3-225.5,422.3-224.3,422.3z"/>
	<path class="st0" d="M-212.9,403.5H-261c-1.5,0-2.7,1.2-2.7,2.7v36.6c0,1.5,1.2,2.7,2.7,2.7h48.1c1.5,0,2.7-1.2,2.7-2.7v-10.7
		h-17.2c-2.7,0-4.9-2.2-4.9-4.9v-5.5c0-2.7,2.2-4.9,4.9-4.9h17.2v-10.7C-210.2,404.7-211.4,403.5-212.9,403.5z M-241,426.6h-5.6
		h-0.7h0v6.4c0,0.6-0.2,1.1-0.6,1.4c-0.4,0.4-0.9,0.6-1.4,0.6c-1.1,0-2.1-0.9-2.1-2.1v-6.4h-6.4c-1.1,0-2.1-0.9-2.1-2.1
		c0-1.1,0.9-2.1,2.1-2.1h6.4v-6.4c0-1.1,0.9-2.1,2.1-2.1c0.6,0,1.1,0.2,1.4,0.6c0.4,0.4,0.6,0.9,0.6,1.4v6.4h0h0.7h5.6
		c1.1,0,2.1,0.9,2.1,2.1C-238.9,425.6-239.9,426.6-241,426.6z"/>
	<path class="st1" d="M-212.9,400.3h-5.3l-1.6-6.1c-0.1-0.4-0.4-0.8-0.8-1c-0.2-0.1-0.5-0.2-0.8-0.2c-0.2,0-0.3,0-0.5,0.1
		c0,0-22.7,7.2-22.7,7.2H-261c-3.3,0-5.9,2.7-5.9,5.9v36.6c0,3.3,2.7,5.9,5.9,5.9h48.1c3.3,0,5.9-2.7,5.9-5.9v-36.6
		C-207,402.9-209.7,400.3-212.9,400.3z M-222.5,396.7l0.9,3.6h-12.3L-222.5,396.7z M-210.2,428.9h-17.2c-0.9,0-1.7-0.7-1.7-1.7v-5.5
		c0-0.9,0.7-1.6,1.7-1.6h17.2V428.9z M-210.2,416.9h-17.2c-2.7,0-4.9,2.2-4.9,4.9v5.5c0,2.7,2.2,4.9,4.9,4.9h17.2v10.7
		c0,1.5-1.2,2.7-2.7,2.7H-261c-1.5,0-2.7-1.2-2.7-2.7v-36.6c0-1.5,1.2-2.7,2.7-2.7h48.1c1.5,0,2.7,1.2,2.7,2.7V416.9z"/>
	<path class="st1" d="M-224.3,426.7c1.2,0,2.2-1,2.2-2.2c0-1.2-1-2.2-2.2-2.2c-1.2,0-2.2,1-2.2,2.2
		C-226.5,425.7-225.5,426.7-224.3,426.7z"/>
	<path class="st2" d="M-241,422.4h-5.6h-0.7h0v-6.4c0-0.6-0.2-1.1-0.6-1.4c-0.4-0.4-0.9-0.6-1.4-0.6c-1.1,0-2.1,0.9-2.1,2.1v6.4
		h-6.4c-1.1,0-2.1,0.9-2.1,2.1c0,1.1,0.9,2.1,2.1,2.1h6.4v6.4c0,1.1,0.9,2.1,2.1,2.1c0.6,0,1.1-0.2,1.4-0.6c0.4-0.4,0.6-0.9,0.6-1.4
		v-6.4h0h0.7h5.6c1.1,0,2.1-0.9,2.1-2.1C-238.9,423.4-239.9,422.4-241,422.4z"/>
</g>
</svg>
