<?xml version="1.0" encoding="utf-8"?>
<!-- Generator: Adobe Illustrator 19.1.0, SVG Export Plug-In . SVG Version: 6.00 Build 0)  -->
<!DOCTYPE svg PUBLIC "-//W3C//DTD SVG 1.1//EN" "http://www.w3.org/Graphics/SVG/1.1/DTD/svg11.dtd">
<svg version="1.1" id="Layer_1" xmlns="http://www.w3.org/2000/svg" xmlns:xlink="http://www.w3.org/1999/xlink" x="0px" y="0px"
	 viewBox="-267 390.9 60 60" style="enable-background:new -267 390.9 60 60;" xml:space="preserve">
<style type="text/css">
	.st0{fill:#FFFFFF;}
	.st1{fill:#868686;}
</style>
<g>
	<path class="st0" d="M-223,436v-8.1h-8.1c-1.4,0-2.6-1.2-2.6-2.6c0-1.4,1.2-2.6,2.6-2.6h8.1v-8.1c0-1.2,0.9-2.3,2.1-2.6l0-3.2
		l-1.2,0v-13.6c0-0.4,0-0.6-0.6-0.6H-253v8.7c0,0.7-0.7,1.5-1.6,1.5h-8.7v41.7c0,0.3,0.3,0.6,0.6,0.6h40c0.3,0,0.4-0.3,0.4-0.6
		c0-0.5,0-4.4,0-4.4h1.3v-3.5C-222.1,438.3-223,437.2-223,436z"/>
	<path class="st1" d="M-222.3,446.5c0,0.3-0.1,0.6-0.4,0.6h-40c-0.3,0-0.6-0.3-0.6-0.6v-41.7h8.7c0.9,0,1.6-0.7,1.6-1.5v-8.7h30.2
		c0.6,0,0.6,0.2,0.6,0.6v13.6l1.2,0l2.2,0v-13.6c0-1.9-1.8-3.6-4-3.6h-32.8l-11.4,11.1v43.9c0,1.9,1.8,3.6,4,3.6h40
		c2.2,0,4-1.6,4-3.6v-4.5h-2.1h-1.3C-222.3,442.1-222.3,446-222.3,446.5z"/>
	<path class="st1" d="M-209.7,422.7h-8.1h0v-8.1c0-0.7-0.3-1.4-0.8-1.8c-0.5-0.5-1.1-0.8-1.8-0.8c-0.2,0-0.4,0-0.5,0.1
		c-1.2,0.3-2.1,1.3-2.1,2.6v8.1h-8.1c-1.4,0-2.6,1.2-2.6,2.6c0,1.4,1.2,2.6,2.6,2.6h8.1v8.1c0,1.2,0.9,2.3,2.1,2.6
		c0.2,0,0.3,0.1,0.5,0.1c0.7,0,1.4-0.3,1.8-0.8c0.5-0.5,0.8-1.1,0.8-1.8v-8.1h0h8.1c1.4,0,2.6-1.2,2.6-2.6
		C-207.1,423.8-208.3,422.7-209.7,422.7z"/>
</g>
</svg>
