<?xml version="1.0" encoding="utf-8"?>
<!-- Generator: Adobe Illustrator 19.1.0, SVG Export Plug-In . SVG Version: 6.00 Build 0)  -->
<!DOCTYPE svg PUBLIC "-//W3C//DTD SVG 1.1//EN" "http://www.w3.org/Graphics/SVG/1.1/DTD/svg11.dtd">
<svg version="1.1" id="Layer_1" xmlns="http://www.w3.org/2000/svg" xmlns:xlink="http://www.w3.org/1999/xlink" x="0px" y="0px"
	 viewBox="-201 298 676.3 256" style="enable-background:new -201 298 676.3 256;" xml:space="preserve">
<style type="text/css">
	.st0{fill:#E2383F;}
	.st1{fill:#003876;}
</style>
<g id="image">
</g>
<g id="Layer_4">
</g>
<g id="Layer_3">
	<path class="st0" d="M-57.1,370.2h25.8v65c0,0,2.8,13.8,16,13.5c17-0.3,21-11.8,21-17.2v-61.2h25.5v98.2H6.6v-13.8
		c0,0-9.8,16.5-31.2,15.8s-32.5-16.8-32.5-27.5S-57.1,370.2-57.1,370.2z"/>
	<path class="st0" d="M48.1,370.2h24.3v15.5c0,0,6.8-19,29-19h2.8v26.8c0,0-4.1-0.4-7.1-0.4c0,0-23,0.7-23,17.9s0,56.6,0,56.6H48.1
		L48.1,370.2L48.1,370.2z"/>
	<path class="st1" d="M209.9,371.8v-1.5h15.2v15.4c0,0,6.6-17,30-17s33.4,16.8,33.4,27.1V468h-16v-66.2c0,0-0.3-20-20-20
		s-26,19.9-26,26.8c0,6.9,0,59.3,0,59.3h-16.6V371.8z"/>
	<path class="st1" d="M403.8,346h14.8v26.2H434v11.5h-15.1V450c0,0,0.1,6,6.8,6s8.3,0,8.3,0v11.8c0,0-4.5,1.5-11.8,1.5
		s-17.2-2.8-18.3-17.3c-1.2-14.5,0-68.2,0-68.2h-14v-11.7h14V346z"/>
	<path class="st1" d="M386.6,417.2c0,0-0.5-48.5-41.8-48.5s-44.7,40.3-44.7,49.7c0,14.7,2.8,54,43.2,52.8s41.8-31.3,41.8-33.7H370
		c0,0-3.8,19.8-26.6,19.8c-20.6,0-26.6-16.2-26.6-33.7h69.8V417.2z M316.4,412c1-1,0.8-29.5,27-29.5s26.8,29.5,26.8,29.5H316.4z"/>
	<path class="st0" d="M200.8,425v-19.7c0,0-3.3-38-45.3-38c-44.5,0-46.5,34.2-46.3,49.8c0.2,21.8,6.7,53.6,46.5,53.6
		s45.2-28.2,45.2-31.5H175c0,0-6.5,11-18.2,11S134,443.9,135,425H200.8z M134.8,407.9c0,0,2-19.2,20.2-19.2s19.3,15.5,19.3,19.3
		L134.8,407.9z"/>
	<path class="st0" d="M-105.6,366.7c-24,0.5-29.8,16-29.8,16v-12.2h-23.8l-0.5,135.5h25.2v-49.5c1.5,1.5,8.9,14.8,28.8,14.8
		c25.2,0,40.8-23.5,40.8-54.5S-81.6,366.2-105.6,366.7z M-113.5,449.5c-18.1,0-22.6-18.4-22.6-31v-0.4c0-5.1,3.6-29.4,21.9-29.4
		s23.4,18.5,23.4,29.4C-90.9,431.3-95.4,449.5-113.5,449.5z"/>
</g>
</svg>
