<?xml version="1.0" encoding="utf-8"?>
<!-- Generator: Adobe Illustrator 19.1.0, SVG Export Plug-In . SVG Version: 6.00 Build 0)  -->
<!DOCTYPE svg PUBLIC "-//W3C//DTD SVG 1.1//EN" "http://www.w3.org/Graphics/SVG/1.1/DTD/svg11.dtd">
<svg version="1.1"
	 id="Layer_1" xmlns:inkscape="http://www.inkscape.org/namespaces/inkscape" xmlns:cc="http://creativecommons.org/ns#" xmlns:svg="http://www.w3.org/2000/svg" xmlns:dc="http://purl.org/dc/elements/1.1/" xmlns:rdf="http://www.w3.org/1999/02/22-rdf-syntax-ns#" xmlns:sodipodi="http://sodipodi.sourceforge.net/DTD/sodipodi-0.dtd" sodipodi:docname="pure.svg" inkscape:version="1"
	 xmlns="http://www.w3.org/2000/svg" xmlns:xlink="http://www.w3.org/1999/xlink" x="0px" y="0px" viewBox="-411 298 256 256"
	 style="enable-background:new -411 298 256 256;" xml:space="preserve">
<style type="text/css">
	.st0{fill:#015491;}
</style>
<sodipodi:namedview  inkscape:cx="160" pagecolor="#ffffff" bordercolor="#666666" objecttolerance="10" borderopacity="1" guidetolerance="10" inkscape:zoom="1" inkscape:cy="160" showgrid="false" gridtolerance="10" inkscape:pageopacity="0" inkscape:pageshadow="2" inkscape:window-height="480" inkscape:window-x="0" inkscape:window-y="0" inkscape:window-maximized="0" inkscape:current-layer="svg2" inkscape:window-width="640">
	</sodipodi:namedview>
<g>
	<path class="st0" d="M-223.9,421.4h-0.7h-1.9l-1.9,0v-0.2c0-0.8-0.6-1.4-1.4-1.4h-0.1c-0.8,0-1.4,0.6-1.4,1.4v0.2l-1,0v-1.8
		c0-0.8-0.6-1.4-1.4-1.4h-0.1c-0.8,0-1.4,0.6-1.4,1.4v1l-0.8,0c0,0,0.1-1.6-0.2-2.8c-0.2-0.7-0.8-1.1-1.3-1.4
		c-0.2-0.2-0.4-0.3-0.7-0.3h-0.1c-0.5,0-1,0.4-1,1v2.2h-0.8c0,0,0-0.9,0-2.2s-1.1-1.4-1.1-1.4s0-0.6,0-0.9c0-0.2-0.4-0.4-0.7-0.6v-1
		c0-0.3-0.3-0.6-0.6-0.6h-0.1c-0.3,0-0.6,0.3-0.6,0.6v5c-0.4-0.3-0.8-0.1-0.8-0.1s-0.1-1.1-0.1-2.4c0-1.3-0.8-1.2-0.9-1.3
		s0-0.6,0-1.1c0-0.3-0.5-0.3-0.8-0.3v-1.7c0-0.3-0.3-0.6-0.6-0.6h-0.1c-0.3,0-0.6,0.3-0.6,0.6v5.7c-0.3,0.1-0.8,0.1-0.8-0.5
		c0-0.9-0.2-2.2-0.8-2.5v-0.2c0-0.9-0.3-1.6-0.7-1.6h-0.2v-0.8c0-0.3-0.3-0.6-0.6-0.6h-0.1c-0.3,0-0.6,0.3-0.6,0.6v4.4
		c-0.3-0.3-0.7-0.4-0.9-0.5v-1.1c0-0.6-0.4-1.1-0.9-1.1h-0.1c0,0,0,0,0,0v-2.6c0-0.4-0.3-0.8-0.8-0.8h-0.1c0,0,0,0,0,0V409
		c0-0.3-0.3-0.6-0.6-0.6h-0.1c-0.3,0-0.6,0.3-0.6,0.6v5.3c-0.2-0.4-0.8-0.7-0.8-0.7s0-1,0-2.5s-1-1.6-1-1.6s0-0.6,0-1.5
		c0-0.6-0.5-0.7-0.8-0.8v-1.6c0-0.3-0.3-0.6-0.6-0.6h-0.1c-0.3,0-0.6,0.3-0.6,0.6v7.8l-1,0v-2.7c0,0-0.6-0.8-0.7-1
		c-0.1-0.2-0.1-0.3-0.1-0.3s-0.4-0.8-0.8-0.8v-3.5c0-0.3-0.3-0.6-0.6-0.6h-0.1c-0.3,0-0.6,0.3-0.6,0.6v14.6
		c-0.1,0.1-0.2,0.2-0.4,0.2c-0.4,0-0.4-0.4-0.4-0.4s0.1-0.7-0.1-1.3c-0.2-0.4-0.6-0.6-0.9-0.7v-2.6c0-0.5-0.4-1-1-1h-0.1
		c-0.5,0-1,0.4-1,1v1.3c0,0-0.1,0-0.1,0c-0.6,0-1.6,2.4-1.7,2.4c-0.1,0-0.2-0.4-0.3-0.6V418c0-0.4-0.3-0.7-0.6-0.8v-12.4
		c0-0.3-0.3-0.6-0.6-0.6h-0.1c-0.3,0-0.6,0.3-0.6,0.6v16.6h-6.2l0,0c-1.1-0.1-2.4,0.2-2.8,0c-0.5-0.2-2.2-1.8-2.9-1.8
		s-1.6,1.5-1.9,1.7s-0.8,0.2-0.8,0.2h-0.1v1.2h-0.3v9.7h0.5c0,0,3.7-7.5,4.4-8.1c0.7-0.6,1-0.6,1.6-0.7c0.1,0,0.6,0,0.8,0
		c0.4,0,0.7,0,1,0l0,0h6.8v11c0,0.3,0.3,0.6,0.6,0.6h0.1c0.3,0,0.6-0.3,0.6-0.6v-10.7c0.2,0,0.4,0,0.7,0c0.6,0.1,1.7,4.4,2.1,5.8v3
		c0,0.5,0.4,1,1,1h0.1c0.5,0,1-0.4,1-1v-4.2c0.3-0.6,0.8-1.3,1.2-1.3c0.2,0,0.4,0.2,0.6,0.4v11.6c0,0.3,0.3,0.6,0.6,0.6h0.1
		c0.3,0,0.6-0.3,0.6-0.6v-7.8c0.2,0,0.5-0.1,0.5-0.3c0.2-0.5,0.2-1.2,0.2-1.2s0.6-0.1,0.8-0.8c0.1-0.3,0.7-0.3,1.1-0.3v17.2
		c0,0.3,0.3,0.6,0.6,0.6h0.1c0.3,0,0.6-0.3,0.6-0.6v-10c0.8-0.3,0.7-0.9,0.7-0.9v-5.3c0,0,0,0,0.8-0.3s0-2.2,0.4-2.2
		c0.3,0,0.6-0.2,0.7-0.5v12.4c0,0.3,0.3,0.6,0.6,0.6h0.1c0.3,0,0.6-0.3,0.6-0.6v-3.9c0,0,0,0,0,0h0.1c0.4,0,0.8-0.3,0.8-0.8v-4.7
		c0,0,0,0,0,0h0.1c0.5,0,0.9-0.5,0.9-1.1v-2.6h0.9V439c0,0.3,0.3,0.6,0.6,0.6h0.1c0.3,0,0.6-0.3,0.6-0.6v-2.7
		c0.4-0.1,1.5-0.5,1.6-1.5c0.1-1,0.1-7.3,0.1-7.3s0.1-0.7,0.7-0.5c0,0,0.1-0.1,0.1-0.2V438c0,0.3,0.3,0.6,0.6,0.6h0.1
		c0.3,0,0.6-0.3,0.6-0.6v-0.9c1.4-0.5,1.7-1.8,1.7-1.8s0-8.8,0-9.5c0-0.6,0.7-0.8,0.9-0.9v8.1c0,0.4,0,0.7,0,0.7c0,0.1,0,0.4,0,0.6
		v0c0,0,0,0,0,0c0,0.5,0.3,1.1,1.3,1.1c1.6,0,1.8-1.7,1.8-1.7l-0.1-9.2h0.9v6.4c0,0.5,0.4,1,1,1h0.1c0.2,0,0.4-0.1,0.6-0.2
		c0.1,0,0.2,0,0.2-0.1c0.3-0.1,1-1.6,1-1.6v-5.5h1.1v1c0,0.8,0.6,1.4,1.4,1.4h0.1c0.8,0,1.4-0.6,1.4-1.4v-1.3c0.7,0,1.6,0,2.4,0
		c1.8,0,5.7-1,6.1-1.1h23.7v-2.1H-223.9z"/>
	<path class="st0" d="M-288.7,419.9c-1.9,0-1.2,1.3-2.3,1.4c-1,0.1-0.6-1.2-1.6-1.2c-0.7,0-0.7,1.1-1.4,0.3
		c-0.7-0.8-1.1-0.5-1.1-0.6c0-0.1,0.2-2.5-1.4-2.5c-1.2,0-1.4,1.4-1.4,2.2c-0.1,0.2-0.2,0.2-0.4,0.3c-0.3,0-0.6,0.8-0.6-0.4
		c0-1.2-0.1-2.6-1.5-2.6c-1.4,0-1.4,1.9-1.7,1.8s-0.6-1.7-0.6-1.7s0-2.8,0-4.4s-1-2.1-1.8-2.1c-0.8,0-1,0.7-1.1,0.9
		c-0.1,0.2-0.1,1-0.3,1c-0.2,0-0.1-0.2-0.2-0.4s-0.6-0.2-0.6-0.2s0-1.1,0-2.3c0-0.9-1.1-1.2-1.7-1.3v-1.7c0-0.3-0.3-0.6-0.6-0.6
		h-0.1c-0.3,0-0.6,0.3-0.6,0.6v8c-0.3,1-0.9,1.6-0.9,1.6s0.2-3.8,0-5.6c-0.1-1.2-1.1-1.3-1.7-1.2v-1.7c0-0.3-0.3-0.6-0.6-0.6h-0.1
		c-0.3,0-0.6,0.3-0.6,0.6v5.3c-0.4,0.1-0.8,0.1-1.2-0.1c0,0,0-1,0-3c0-1-0.8-1.1-1.4-1v-0.8c0-0.3-0.3-0.6-0.6-0.6h-0.1
		c-0.3,0-0.6,0.3-0.6,0.6v8.6h-0.9c0,0,0.1-3.1,0-4.5c0-1-1.2-1.3-1.8-1.4v-4.1c0-0.3-0.3-0.6-0.6-0.6h-0.1c-0.3,0-0.6,0.3-0.6,0.6
		v10.5c-0.3,0.3-0.8,0.2-0.8,0.2c0,0,0.1-1.9,0.1-3.6c0-1.2-1.2-1.4-1.8-1.3v-5.6c0-0.3-0.3-0.6-0.6-0.6h-0.1
		c-0.3,0-0.6,0.3-0.6,0.6V418c-0.1,0.1-0.2,0.1-0.3,0.1c-0.6,0.1-0.7-0.8-0.7-0.8s0-4.5,0-6c0-1.5-1-1.7-1.8-1.7v-5.5
		c0-0.3-0.3-0.6-0.6-0.6h-0.1c-0.3,0-0.6,0.3-0.6,0.6v14.6c-0.1,0.6-0.2,1.2-0.4,1.4c-0.4,0.4-0.5-0.2-0.5-0.2s0-4,0-4.8
		c0-1.2,0.1-0.4,0-1.2c-0.1-1.1-1.1-1.2-1.7-1v-10.4c0-0.3-0.3-0.6-0.6-0.6h-0.1c-0.3,0-0.6,0.3-0.6,0.6v18.8h-0.8c0,0,0-1.7,0-2.2
		s-0.9-1-1.6-1c-0.1,0-0.2,0-0.3,0.1v-4.5c0-0.3-0.3-0.6-0.6-0.6h-0.1c-0.3,0-0.6,0.3-0.6,0.6v5.5c-0.1,0.1-0.1,0.3-0.2,0.6
		c-0.2,0.4-0.6,1.5-2.3,1.5s-2.5-0.7-4.6-0.8c-2.2,0-5,0.8-5,0.8h-16.2v2.1c0,0,0.5,0,3.9,0s3.9,0.6,4.4,0.7s1.3,0.7,2.4,0.6
		c1,0,1.7-0.3,2.8-0.3c2.4,0,8,1,8,1s5.3,1.3,6.2,2.5c0.1,0.1,0.4,0.3,0.4,0.2c0-1.7,0.2-2.4,0.5-2.8v8.9c0,0.3,0.3,0.6,0.6,0.6h0.1
		c0.3,0,0.6-0.3,0.6-0.6v-9.8c0.5,0.4,1.3,1.4,1.3,1.4l1.4,0.1V443c0,0.3,0.3,0.6,0.6,0.6h0.1c0.3,0,0.6-0.3,0.6-0.6v-9.8
		c0.1,0,0.2,0,0.3,0c0.4,0,0.5-1,0.5-1s0-1.3,0-2.1c0-0.3,0-0.2,0.1-0.2c0.4,0,1-1,0.9-1.3c0-0.2,0-1.6,0-2.1c0-0.1,0.1-0.3,0.3-0.3
		c0.1,0,0.2,0,0.3,0.1v15.1c0,0.3,0.3,0.6,0.6,0.6h0.1c0.3,0,0.6-0.3,0.6-0.6v-4.5c0.8,0.1,1-1,1-1s-0.1-4.2,0-5.6
		c0-0.3,0-0.4,0-0.5c0.4-0.3,0.7-0.4,0.8-1s-0.1-0.9,0.5-0.8c0.2,0.1,0.3,0.1,0.4,0.2v16.5c0,0.3,0.3,0.6,0.6,0.6h0.1
		c0.3,0,0.6-0.3,0.6-0.6v-7.5c0.5,0.1,0.7-1.3,0.7-1.3s0-4,0-5c0-0.1,0-0.3,0-0.4c0.5-0.3,1-1.2,1-1.2l0-1c0,0,0.5,0,0.8,0v20
		c0,0.3,0.3,0.6,0.6,0.6h0.1c0.3,0,0.6-0.3,0.6-0.6v-7.4c0.6-0.2,0.8-2.2,0.8-2.2s0-4.7,0-6.2c0-0.2,0-0.3,0-0.4
		c1.1-0.8,1-1.7,1-1.7s-0.1-2.4,0.1-1.6c0.1,0.4,0.4,0.5,0.7,0.5v20.1c0,0.3,0.3,0.6,0.6,0.6h0.1c0.3,0,0.6-0.3,0.6-0.6v-8.2
		c0.5-0.3,0.8-1.4,0.8-1.4s-0.1-6.5-0.1-6.7c0.1-0.9,0.9-1.2,0.9-1.2l-0.1-1.9l1.1,0.1v17.8c0,0.3,0.3,0.6,0.6,0.6h0.1
		c0.3,0,0.6-0.3,0.6-0.6v-10.7c0.6-0.2,0.9-1.3,0.9-1.3s0-2.6,0-3.4c0-0.1,0.2-0.4,0.3-0.4c0.9-0.2,0.3-1.8,0.5-2.5
		c0.1-0.4,0.6-0.5,1-0.5v16.4c0,0.3,0.3,0.6,0.6,0.6h0.1c0.3,0,0.6-0.3,0.6-0.6v-10.4c0.5-0.2,0.7-1,0.7-1s0-2.6,0-3.7
		c0-0.3,0-0.4,0.1-0.4c0.8-0.1,1-1.1,1-1.1v-1.2c0,0,0.2-0.2,0.5-0.3c0.2-0.1,0.1-0.7,0.5-0.7c0.4,0,0,0.5,0,0.5s0,1.4,0,1.9
		s0.1,1.2,1,1.2c0.9,0,1-0.7,1-0.7s-0.1-2.1,0.2-2.2c0.4-0.1,0.8-1.1,0.8-1.4c0-0.2,0.1-0.5,0.9-0.5v2.4c0,0.3,0.3,0.6,0.6,0.6h0.1
		c0.3,0,0.6-0.3,0.6-0.6v-2.2c1.2,0.3,2.3,0.8,2.7,1.1v1.1c0,0.2,0.2,0.4,0.4,0.4h0c0.2,0,0.4-0.2,0.4-0.4c0.1-0.2,0.2-0.6,0.6-0.5
		c0.6,0.1,1.9,1.3,3,1.2c1.8-0.3,1-3.8,2.3-3.9c0.8-0.2,1.1,0.7,1.8,0.7s1.5-1.7,2-1.5c0.5,0.3,0.9,8,0.9,8l0.5,0.1v-10.1h0.3
		c0,0,0-0.4,0-0.5C-286.6,421.3-286.8,419.9-288.7,419.9z"/>
</g>
</svg>
