<?xml version="1.0" encoding="utf-8"?>
<!-- Generator: Adobe Illustrator 19.1.0, SVG Export Plug-In . SVG Version: 6.00 Build 0)  -->
<!DOCTYPE svg PUBLIC "-//W3C//DTD SVG 1.1//EN" "http://www.w3.org/Graphics/SVG/1.1/DTD/svg11.dtd">
<svg version="1.1" id="Layer_1" xmlns="http://www.w3.org/2000/svg" xmlns:xlink="http://www.w3.org/1999/xlink" x="0px" y="0px"
	 viewBox="-411 298 256 256" style="enable-background:new -411 298 256 256;" xml:space="preserve">
<style type="text/css">
	.st0{fill:url(#SVGID_1_);}
	.st1{fill:none;stroke:#015491;stroke-width:2;stroke-miterlimit:10;}
	.st2{fill:url(#SVGID_2_);}
	.st3{fill:#FFFFFF;}
	.st4{fill:#015491;}
</style>
<g>
	<g>
		<radialGradient id="SVGID_1_" cx="-246.5235" cy="367.9799" r="23.061" gradientUnits="userSpaceOnUse">
			<stop  offset="0" style="stop-color:#0081D4"/>
			<stop  offset="1" style="stop-color:#0068AA"/>
		</radialGradient>
		<path class="st0" d="M-267.7,342.3c-1.9-2-4.3-3.6-5.4-3.6s-0.8,0.3,0.6,0.6s4,2.3,5.9,4.3l43.2,45.8c1.9,2,3.6,5,3.7,6.7
			s0.3,1.6,0.3-0.2s-1.6-4.8-3.5-6.8L-267.7,342.3z"/>
		<path class="st1" d="M-267.7,342.3c-1.9-2-4.3-3.6-5.4-3.6s-0.8,0.3,0.6,0.6s4,2.3,5.9,4.3l43.2,45.8c1.9,2,3.6,5,3.7,6.7
			s0.3,1.6,0.3-0.2s-1.6-4.8-3.5-6.8L-267.7,342.3z"/>
	</g>
	<g>
		<radialGradient id="SVGID_2_" cx="-283" cy="426" r="62.3369" gradientUnits="userSpaceOnUse">
			<stop  offset="0" style="stop-color:#0081D4"/>
			<stop  offset="1" style="stop-color:#0068AA"/>
		</radialGradient>
		<path class="st2" d="M-274.7,390.3c0-1.8-0.3-46.6-0.3-46.6c0-2.7-2.3-5-5-5h-61.7c-2.8,0-5,2.2-5,5v164.7c0,2.8,2.2,5,5,5h117.3
			c2.8,0,5-2.2,5-5V404.1c0-2.8-2.2-5-5-5c0,0-35.1,0-41.6,0S-274.7,392.1-274.7,390.3z M-324.7,394.4c0-2.8,2.2-5,5-5h24
			c2.8,0,5,2.2,5,5v2.5c0,2.8-2.2,5-5,5h-24c-2.8,0-5-2.2-5-5V394.4z M-272.3,481.2c0,2.8-2.2,5-5,5h-42.4c-2.8,0-5-2.2-5-5v-2.5
			c0-2.8,2.2-5,5-5h42.4c2.8,0,5,2.2,5,5V481.2z M-246.7,452.7c0,2.8-2.2,5-5,5h-68c-2.8,0-5-2.2-5-5v-2.5c0-2.8,2.2-5,5-5h68
			c2.8,0,5,2.2,5,5V452.7z M-246.7,424.9c0,2.8-2.2,5-5,5h-68c-2.8,0-5-2.2-5-5v-2.5c0-2.8,2.2-5,5-5h68c2.8,0,5,2.2,5,5V424.9z"/>
		<path class="st1" d="M-274.7,390.3c0-1.8-0.3-46.6-0.3-46.6c0-2.7-2.3-5-5-5h-61.7c-2.8,0-5,2.2-5,5v164.7c0,2.8,2.2,5,5,5h117.3
			c2.8,0,5-2.2,5-5V404.1c0-2.8-2.2-5-5-5c0,0-35.1,0-41.6,0S-274.7,392.1-274.7,390.3z M-324.7,394.4c0-2.8,2.2-5,5-5h24
			c2.8,0,5,2.2,5,5v2.5c0,2.8-2.2,5-5,5h-24c-2.8,0-5-2.2-5-5V394.4z M-272.3,481.2c0,2.8-2.2,5-5,5h-42.4c-2.8,0-5-2.2-5-5v-2.5
			c0-2.8,2.2-5,5-5h42.4c2.8,0,5,2.2,5,5V481.2z M-246.7,452.7c0,2.8-2.2,5-5,5h-68c-2.8,0-5-2.2-5-5v-2.5c0-2.8,2.2-5,5-5h68
			c2.8,0,5,2.2,5,5V452.7z M-246.7,424.9c0,2.8-2.2,5-5,5h-68c-2.8,0-5-2.2-5-5v-2.5c0-2.8,2.2-5,5-5h68c2.8,0,5,2.2,5,5V424.9z"/>
	</g>
	<rect x="-324.7" y="389.4" class="st3" width="34" height="12.5"/>
	<rect x="-324.7" y="417.4" class="st3" width="78" height="12.5"/>
	<rect x="-324.7" y="445.2" class="st3" width="78" height="12.5"/>
	<rect x="-324.7" y="473.7" class="st3" width="52.4" height="12.5"/>
	<path class="st4" d="M-270,339.9l-5-1.3c0,0,0.3,49.8,0.3,51.6c0,1.8,2.4,8.8,8.8,8.8s46.6,0,46.6,0l-0.6-6.1L-270,339.9z"/>
</g>
</svg>
