<?xml version="1.0" encoding="utf-8"?>
<!-- Generator: Adobe Illustrator 19.1.0, SVG Export Plug-In . SVG Version: 6.00 Build 0)  -->
<!DOCTYPE svg PUBLIC "-//W3C//DTD SVG 1.1//EN" "http://www.w3.org/Graphics/SVG/1.1/DTD/svg11.dtd">
<svg version="1.1"
	 id="Layer_1" xmlns:inkscape="http://www.inkscape.org/namespaces/inkscape" xmlns:cc="http://creativecommons.org/ns#" xmlns:svg="http://www.w3.org/2000/svg" xmlns:dc="http://purl.org/dc/elements/1.1/" xmlns:rdf="http://www.w3.org/1999/02/22-rdf-syntax-ns#" xmlns:sodipodi="http://sodipodi.sourceforge.net/DTD/sodipodi-0.dtd" sodipodi:docname="reports.svg" inkscape:version="1"
	 xmlns="http://www.w3.org/2000/svg" xmlns:xlink="http://www.w3.org/1999/xlink" x="0px" y="0px" viewBox="-411 298 256 256"
	 style="enable-background:new -411 298 256 256;" xml:space="preserve">
<style type="text/css">
	.st0{fill:url(#SVGID_1_);}
	.st1{fill:none;stroke:#015491;stroke-width:2;stroke-miterlimit:10;}
	.st2{fill:url(#SVGID_2_);stroke:#015491;stroke-width:2;stroke-miterlimit:10;}
	.st3{fill:#015491;}
	.st4{fill:url(#SVGID_3_);}
	.st5{fill:url(#SVGID_4_);stroke:#015491;stroke-width:2;stroke-miterlimit:10;}
	.st6{fill:url(#SVGID_5_);}
	.st7{fill:#FFFFFF;}
	.st8{fill:url(#SVGID_6_);stroke:#015491;stroke-width:2;stroke-miterlimit:10;}
</style>
<g>
	<g>
		<g>
			<radialGradient id="SVGID_1_" cx="-265.5" cy="408.7875" r="50.5268" gradientUnits="userSpaceOnUse">
				<stop  offset="0" style="stop-color:#0081D4"/>
				<stop  offset="1" style="stop-color:#0068AA"/>
			</radialGradient>
			<path class="st0" d="M-252.4,341.6c-1.9-2-5.7-3.6-8.5-3.6h-51.2c-2.8,0-5,2.2-5,5v131.6c0,2.8,2.2,5,5,5h93.2c2.8,0,5-2.2,5-5
				v-87.8c0-2.8-1.6-6.6-3.5-8.6L-252.4,341.6z"/>
			<path class="st1" d="M-252.4,341.6c-1.9-2-5.7-3.6-8.5-3.6h-51.2c-2.8,0-5,2.2-5,5v131.6c0,2.8,2.2,5,5,5h93.2c2.8,0,5-2.2,5-5
				v-87.8c0-2.8-1.6-6.6-3.5-8.6L-252.4,341.6z"/>
		</g>
		<radialGradient id="SVGID_2_" cx="-314.3184" cy="344.231" r="0" gradientUnits="userSpaceOnUse">
			<stop  offset="0" style="stop-color:#0081D4"/>
			<stop  offset="1" style="stop-color:#0068AA"/>
		</radialGradient>
		<path class="st2" d="M-314.3,344.2"/>
		<path class="st3" d="M-259,338c0,0,0.2,40.4,0.2,41.9c0,1.5,1.9,7.2,7.1,7.2s37.7,0,37.7,0l-0.5-5l-40.6-43L-259,338z"/>
	</g>
	<g>
		<g>
			<radialGradient id="SVGID_3_" cx="-282.5" cy="426" r="50.5268" gradientUnits="userSpaceOnUse">
				<stop  offset="0" style="stop-color:#0081D4"/>
				<stop  offset="1" style="stop-color:#0068AA"/>
			</radialGradient>
			<path class="st4" d="M-269.4,358.8c-1.9-2-5.7-3.6-8.5-3.6h-51.2c-2.8,0-5,2.2-5,5v131.6c0,2.8,2.2,5,5,5h93.2c2.8,0,5-2.2,5-5
				V404c0-2.8-1.6-6.6-3.5-8.6L-269.4,358.8z"/>
			<path class="st1" d="M-269.4,358.8c-1.9-2-5.7-3.6-8.5-3.6h-51.2c-2.8,0-5,2.2-5,5v131.6c0,2.8,2.2,5,5,5h93.2c2.8,0,5-2.2,5-5
				V404c0-2.8-1.6-6.6-3.5-8.6L-269.4,358.8z"/>
		</g>
		<radialGradient id="SVGID_4_" cx="-331.3184" cy="361.4436" r="0" gradientUnits="userSpaceOnUse">
			<stop  offset="0" style="stop-color:#0081D4"/>
			<stop  offset="1" style="stop-color:#0068AA"/>
		</radialGradient>
		<path class="st5" d="M-331.3,361.4"/>
		<path class="st3" d="M-276,355.2c0,0,0.2,40.4,0.2,41.9s1.9,7.2,7.1,7.2c5.2,0,37.7,0,37.7,0l-0.5-5l-40.6-43L-276,355.2z"/>
	</g>
	<g>
		<g>
			<radialGradient id="SVGID_5_" cx="-297.938" cy="442.4629" r="50.5268" gradientUnits="userSpaceOnUse">
				<stop  offset="0" style="stop-color:#0081D4"/>
				<stop  offset="1" style="stop-color:#0068AA"/>
			</radialGradient>
			<path class="st6" d="M-284.9,375.3c-1.9-2-5.7-3.6-8.5-3.6h-51.2c-2.8,0-5,2.2-5,5v131.6c0,2.8,2.2,5,5,5h93.2c2.8,0,5-2.2,5-5
				v-87.8c0-2.8-1.6-6.6-3.5-8.6L-284.9,375.3z"/>
			<path class="st1" d="M-284.9,375.3c-1.9-2-5.7-3.6-8.5-3.6h-51.2c-2.8,0-5,2.2-5,5v131.6c0,2.8,2.2,5,5,5h93.2c2.8,0,5-2.2,5-5
				v-87.8c0-2.8-1.6-6.6-3.5-8.6L-284.9,375.3z"/>
		</g>
		<rect x="-331.7" y="412.8" class="st7" width="27.6" height="10.1"/>
		<rect x="-331.7" y="435.5" class="st7" width="63.2" height="10.1"/>
		<rect x="-331.7" y="458" class="st7" width="63.2" height="10.1"/>
		<rect x="-331.7" y="481.1" class="st7" width="42.5" height="10.1"/>
		<radialGradient id="SVGID_6_" cx="-346.7563" cy="377.9064" r="0" gradientUnits="userSpaceOnUse">
			<stop  offset="0" style="stop-color:#0081D4"/>
			<stop  offset="1" style="stop-color:#0068AA"/>
		</radialGradient>
		<path class="st8" d="M-346.8,377.9"/>
		<path class="st3" d="M-291.4,371.7c0,0,0.2,40.4,0.2,41.9c0,1.5,1.9,7.2,7.1,7.2c5.2,0,37.7,0,37.7,0l-0.5-5l-40.6-43
			L-291.4,371.7z"/>
	</g>
	
		<sodipodi:namedview  inkscape:cx="160" pagecolor="#ffffff" bordercolor="#666666" objecttolerance="10" borderopacity="1" guidetolerance="10" inkscape:zoom="1" inkscape:cy="160" showgrid="false" gridtolerance="10" inkscape:pageopacity="0" inkscape:pageshadow="2" inkscape:window-height="480" inkscape:window-x="0" inkscape:window-y="0" inkscape:window-maximized="0" inkscape:current-layer="svg2" inkscape:window-width="640">
		</sodipodi:namedview>
</g>
</svg>
