<?xml version="1.0" encoding="utf-8"?>
<!-- Generator: Adobe Illustrator 22.1.0, SVG Export Plug-In . SVG Version: 6.00 Build 0)  -->
<svg version="1.1" xmlns="http://www.w3.org/2000/svg" xmlns:xlink="http://www.w3.org/1999/xlink" x="0px" y="0px"
	 viewBox="0 0 256 256" enable-background="new 0 0 256 256" xml:space="preserve">
<g id="image">
</g>
<g id="Layer_2">
</g>
<g id="Layer_3">
</g>
<g id="Layer_4">
	<g>
		<g>
			<g>
				<g>
					<radialGradient id="SVGID_1_" cx="75.3864" cy="132.7462" r="53.9395" gradientUnits="userSpaceOnUse">
						<stop  offset="0" style="stop-color:#0081D4"/>
						<stop  offset="0.3113" style="stop-color:#007CCC"/>
						<stop  offset="0.8012" style="stop-color:#006FB5"/>
						<stop  offset="1" style="stop-color:#0068AA"/>
					</radialGradient>
					<path fill="url(#SVGID_1_)" stroke="#015491" stroke-width="2" stroke-miterlimit="10" d="M102.338,149.911
						c0,0-6.795-1.534-3.578-8.309c3.974-5.335,6.389-11.387,6.582-13.367c0,0,6.117-4.815,6.473-12.046
						c0.381-7.21-1.341-7.547-1.341-7.547c2.573-7.864,3.405-37.379-15.544-33.855c-3.157-6.191-22.953-11.046-32.182,5.449
						c-4.597,8.225-6.31,19.454-2.717,28.614c-0.134,0.683-1.272-0.668-1.688,3.568c-0.401,4.083,1.44,9.937,3.439,12.649
						c0.871,1.143,2.262,1.98,3.237,2.405c0,0,1.198,7.275,6.874,14.129c1.306,5.439-4.093,8.309-4.093,8.309
						c-17.88,3.439-34.315,13.367-34.315,24.106c0,0.792,0,8.319,0,8.319c0,11.655,27.144,14.154,51.572,14.154
						c24.433,0,31.528-3.071,31.528-10.203c0,0,0.703-9.758,0.703-10.55C117.288,164.998,113.595,153.263,102.338,149.911z"/>
				</g>
			</g>
		</g>
		<g>
			<rect x="97.736" y="55.596" fill="#FFFFFF" width="111.716" height="153.675"/>
			<g>
				<g>
					<g>
						<path fill="#015491" d="M211.31,55.596h-26.583l1.794,8.298c0.221,1.03,0.21,2.065,0.094,3.082h19.004V201.11H100.38V66.977
							h19.009c-0.116-1.023-0.121-2.058,0.099-3.093l1.794-8.287H94.696c-3.142,0-5.685,2.548-5.685,5.69V206.8
							c0,3.137,2.543,5.69,5.685,5.69H211.31c3.142,0,5.69-2.554,5.69-5.69V61.287C217,58.145,214.452,55.596,211.31,55.596z"/>
						<path fill="#015491" d="M192.223,96.724h-38.866c-3.148,0-5.69,2.548-5.69,5.685c0,3.143,2.543,5.69,5.69,5.69h38.866
							c3.148,0,5.69-2.547,5.69-5.69C197.914,99.272,195.371,96.724,192.223,96.724z"/>
						<path fill="#015491" d="M192.223,131.622h-38.866c-3.148,0-5.69,2.548-5.69,5.69c0,3.139,2.543,5.691,5.69,5.691h38.866
							c3.148,0,5.69-2.554,5.69-5.691C197.914,134.169,195.371,131.622,192.223,131.622z"/>
						<path fill="#015491" d="M110.111,98.061c-2.4,2.025-2.709,5.614-0.684,8.018l8.3,9.836c1.084,1.287,2.675,2.02,4.348,2.02
							c0.138,0,0.276-0.006,0.419-0.016c1.816-0.132,3.461-1.134,4.42-2.686l14.93-24.172c1.651-2.675,0.826-6.176-1.848-7.825
							c-2.675-1.662-6.176-0.826-7.827,1.848l-10.808,17.491l-3.236-3.831C116.098,96.339,112.515,96.031,110.111,98.061z"/>
						<path fill="#015491" d="M123.737,128.783c-4.716,0-8.536,3.819-8.536,8.53c0,4.712,3.82,8.531,8.536,8.531
							c4.712,0,8.531-3.819,8.531-8.531C132.268,132.601,128.449,128.783,123.737,128.783z"/>
						<path fill="#015491" d="M192.223,165.754h-38.866c-3.148,0-5.69,2.543-5.69,5.691c0,3.137,2.543,5.685,5.69,5.685h38.866
							c3.148,0,5.69-2.548,5.69-5.685C197.914,168.296,195.371,165.754,192.223,165.754z"/>
						<path fill="#015491" d="M123.737,162.915c-4.716,0-8.536,3.819-8.536,8.531c0,4.71,3.82,8.531,8.536,8.531
							c4.712,0,8.531-3.82,8.531-8.531C132.268,166.734,128.449,162.915,123.737,162.915z"/>
						<path fill="#015491" d="M128.866,69.817h48.266c1.183,0,2.301-0.529,3.043-1.453c0.743-0.915,1.03-2.124,0.775-3.281
							l-3.995-18.491c-0.39-1.799-1.98-3.082-3.819-3.082h-40.27c-1.837,0-3.428,1.283-3.819,3.082l-4.001,18.491
							c-0.242,1.156,0.043,2.366,0.782,3.281C126.572,69.289,127.689,69.817,128.866,69.817z"/>
					</g>
				</g>
			</g>
		</g>
	</g>
</g>
<g id="Layer_5">
</g>
<g id="Layer_6">
</g>
</svg>
