<?xml version="1.0" encoding="utf-8"?>
<!-- Generator: Adobe Illustrator 19.1.0, SVG Export Plug-In . SVG Version: 6.00 Build 0)  -->
<!DOCTYPE svg PUBLIC "-//W3C//DTD SVG 1.1//EN" "http://www.w3.org/Graphics/SVG/1.1/DTD/svg11.dtd">
<svg version="1.1" id="Layer_1" xmlns="http://www.w3.org/2000/svg" xmlns:xlink="http://www.w3.org/1999/xlink" x="0px" y="0px"
	 viewBox="-281 404.9 32 32" style="enable-background:new -281 404.9 32 32;" xml:space="preserve">
<style type="text/css">
	.st0{fill:#0B7E0C;}
	.st1{fill:#FFFFFF;}
</style>
<g>
	<path class="st0" d="M-265,409.6c-6.2,0-11.2,5-11.2,11.2c0,6.2,5,11.2,11.2,11.2s11.2-5,11.2-11.2
		C-253.8,414.7-258.8,409.6-265,409.6z M-257.8,417.5l-8.7,8.7c-0.3,0.3-0.6,0.4-0.9,0.4c-0.3,0-0.7-0.1-0.9-0.4l-3.8-3.8
		c-0.5-0.5-0.5-1.4,0-1.9c0.5-0.5,1.4-0.5,1.9,0l2.8,2.8l7.7-7.7c0.5-0.5,1.4-0.5,1.9,0C-257.3,416.1-257.3,417-257.8,417.5z"/>
	<path class="st1" d="M-259.7,415.6l-7.7,7.7l-2.8-2.8c-0.5-0.5-1.4-0.5-1.9,0c-0.5,0.5-0.5,1.4,0,1.9l3.8,3.8
		c0.3,0.3,0.6,0.4,0.9,0.4c0.3,0,0.7-0.1,0.9-0.4l8.7-8.7c0.5-0.5,0.5-1.4,0-1.9C-258.3,415.1-259.2,415.1-259.7,415.6z"/>
</g>
</svg>
