<?xml version="1.0" encoding="utf-8"?>
<!-- Generator: Adobe Illustrator 19.1.0, SVG Export Plug-In . SVG Version: 6.00 Build 0)  -->
<!DOCTYPE svg PUBLIC "-//W3C//DTD SVG 1.1//EN" "http://www.w3.org/Graphics/SVG/1.1/DTD/svg11.dtd">
<svg version="1.1" id="Layer_1" xmlns="http://www.w3.org/2000/svg" xmlns:xlink="http://www.w3.org/1999/xlink" x="0px" y="0px"
	 viewBox="-279 390.9 36 60" style="enable-background:new -279 390.9 36 60;" xml:space="preserve">
<style type="text/css">
	.st0{fill:#FFFFFF;}
	.st1{fill:#006DB3;}
</style>
<g>
	<g>
		<path class="st0" d="M-274.5,446.6c-0.6-0.5-0.9-1.3-0.9-2.1s0.3-1.5,0.9-2.1l21.4-21.4l-21.8-21.8c-0.6-0.5-0.9-1.3-0.9-2.1
			s0.3-1.5,0.9-2.1c0.5-0.6,1.3-0.9,2.1-0.9c0.8,0,1.5,0.3,2.1,0.9l23.9,23.9c0.6,0.5,0.9,1.3,0.9,2.1s-0.3,1.5-0.9,2.1l-23.6,23.6
			c-0.5,0.6-1.3,0.9-2.1,0.9S-274,447.3-274.5,446.6z"/>
		<path class="st1" d="M-272.9,395.6c0.3,0,0.7,0.1,1.2,0.5l23.9,23.9c0.3,0.4,0.4,0.9,0.4,1.1c0,0.3,0,0.7-0.4,1.1l-23.6,23.6
			c-0.4,0.3-0.9,0.4-1.1,0.4c-0.3,0-0.7,0-1.1-0.4c-0.3-0.4-0.4-0.8-0.4-1.1s0-0.7,0.4-1.1l20.4-20.4l2.1-2.1l-2.1-2.1l-20.8-20.8
			c-0.3-0.4-0.4-0.8-0.4-1.1s0-0.7,0.4-1.1C-273.6,395.7-273.1,395.6-272.9,395.6 M-272.9,392.6c-1.1,0-2.3,0.5-3.3,1.2
			c-1.8,1.8-1.8,4.6,0,6.4l20.8,20.8l-20.4,20.4c-1.8,1.8-1.8,4.6,0,6.4c0.9,0.9,2,1.3,3.2,1.3c1.2,0,2.3-0.4,3.2-1.3l23.6-23.6
			c1.8-1.8,1.8-4.6,0-6.4l-23.9-23.9C-270.6,393-271.7,392.6-272.9,392.6L-272.9,392.6z"/>
	</g>
</g>
</svg>
