<?xml version="1.0" encoding="utf-8"?>
<!-- Generator: Adobe Illustrator 22.1.0, SVG Export Plug-In . SVG Version: 6.00 Build 0)  -->
<svg version="1.1" xmlns="http://www.w3.org/2000/svg" xmlns:xlink="http://www.w3.org/1999/xlink" x="0px" y="0px"
	 viewBox="0 0 256 256" enable-background="new 0 0 256 256" xml:space="preserve">
<g id="image">
</g>
<g id="Layer_2">
</g>
<g id="Layer_3">
	<g>
		<g>
			<path fill="#FFFFFF" d="M211.824,66.529l-17.463,17.463h-59.376V49.065h59.376L211.824,66.529z"/>
			<path fill="#FFFFFF" d="M211.824,136.382l-17.463,17.463h-59.376v-34.927h59.376L211.824,136.382z"/>
		</g>
		<path fill="#FFFFFF" d="M155.941,213.92h-55.883c0-7.715,6.255-13.971,13.971-13.971c8.718,0,19.752,0,27.941,0
			C149.686,199.949,155.941,206.205,155.941,213.92z"/>
		<path fill="#FFFFFF" d="M134.985,199.949h-13.971c0-8.659,0-149.559,0-157.869h13.971
			C134.985,60.51,134.985,183.416,134.985,199.949z"/>
		<path fill="#FFFFFF" d="M121.015,83.992v34.927H61.639l-17.463-17.463l17.463-17.463H121.015z"/>
		<radialGradient id="SVGID_1_" cx="128" cy="128" r="88.3711" gradientUnits="userSpaceOnUse">
			<stop  offset="0.0049" style="stop-color:#0081D4"/>
			<stop  offset="1" style="stop-color:#0068AA"/>
		</radialGradient>
		<path fill="url(#SVGID_1_)" stroke="#015491" stroke-miterlimit="10" d="M194.361,87.485c0.926,0,1.814-0.368,2.47-1.023
			l17.463-17.463c1.364-1.364,1.364-3.575,0-4.94l-17.463-17.463c-0.655-0.655-1.543-1.023-2.47-1.023h-55.883V42.08
			c0-1.929-1.564-3.493-3.493-3.493h-13.971c-1.929,0-3.493,1.564-3.493,3.493V80.5H61.639c-0.926,0-1.814,0.368-2.47,1.023
			L41.706,98.986c-1.364,1.364-1.364,3.575,0,4.94l17.463,17.463c0.655,0.655,1.543,1.023,2.47,1.023h55.883v74.045h-3.493
			c-8.433,0-15.489,6.009-17.112,13.971H86.088c-1.929,0-3.493,1.564-3.493,3.493c0,1.929,1.564,3.493,3.493,3.493h83.824
			c1.929,0,3.493-1.564,3.493-3.493c0-1.929-1.564-3.493-3.493-3.493h-10.829c-1.623-7.962-8.678-13.971-17.112-13.971h-3.493
			v-39.118h55.883c0.926,0,1.814-0.368,2.47-1.023l17.463-17.463c1.364-1.364,1.364-3.575,0-4.94l-17.463-17.463
			c-0.655-0.655-1.543-1.023-2.47-1.023h-55.883V87.485H194.361z M192.914,52.558l13.971,13.971L192.914,80.5h-54.436V52.558
			H192.914z M63.086,115.426l-13.971-13.971l13.971-13.971h54.436v27.941H63.086z M151.848,210.427h-47.696
			c1.442-4.065,5.324-6.985,9.877-6.985h27.941C146.524,203.442,150.406,206.362,151.848,210.427z M124.507,196.457V45.573h6.985
			v150.884H124.507z M192.914,122.412l13.971,13.971l-13.971,13.971h-54.436v-27.941H192.914z"/>
	</g>
</g>
<g id="Meter_management">
</g>
</svg>
