<?xml version="1.0" encoding="utf-8"?>
<!-- Generator: Adobe Illustrator 19.1.0, SVG Export Plug-In . SVG Version: 6.00 Build 0)  -->
<!DOCTYPE svg PUBLIC "-//W3C//DTD SVG 1.1//EN" "http://www.w3.org/Graphics/SVG/1.1/DTD/svg11.dtd">
<svg version="1.1" id="Layer_1" xmlns="http://www.w3.org/2000/svg" xmlns:xlink="http://www.w3.org/1999/xlink" x="0px" y="0px"
	 viewBox="-411 298 256 256" style="enable-background:new -411 298 256 256;" xml:space="preserve">
<style type="text/css">
	.st0{display:none;}
	.st1{fill:url(#SVGID_1_);stroke:#015491;stroke-width:2;stroke-miterlimit:10;}
	.st2{fill:#FFFFFF;}
	.st3{display:inline;fill:none;stroke:#E50A49;stroke-width:0.5;stroke-miterlimit:10;}
</style>
<g id="image" class="st0">
	
		<image style="display:inline;overflow:visible;enable-background:new    ;" width="256" height="256" xlink:href="3F815B1F6AE4734A.png"  transform="matrix(1 0 0 1 -411 298)">
	</image>
</g>
<g id="Layer_2">
	
		<linearGradient id="SVGID_1_" gradientUnits="userSpaceOnUse" x1="-283.5" y1="358.5" x2="-283.5" y2="500.5" gradientTransform="matrix(1 0 0 -1 0 854)">
		<stop  offset="0" style="stop-color:#0081D4"/>
		<stop  offset="1" style="stop-color:#0068AA"/>
	</linearGradient>
	<polygon class="st1" points="-322.5,353.5 -242.5,353.5 -196,495.5 -371,495.5 	"/>
</g>
<g id="Layer_3">
	<polygon class="st2" points="-284,353 -284.4,361 -281.7,361 -282.1,353 	"/>
	<polygon class="st2" points="-284.7,366 -281.5,366 -280.7,380.9 -285.6,380.9 	"/>
	<polygon class="st2" points="-285.9,388 -280.4,388 -279.4,406 -287,406 	"/>
	<polygon class="st2" points="-287.7,417.9 -278.8,417.9 -277.5,443.1 -289,443.1 	"/>
	<polygon class="st2" points="-290,463 -276.5,463 -274.8,496.8 -291.9,496.8 	"/>
</g>
<g id="Layer_4" class="st0">
	<line class="st3" x1="-284.2" y1="352.8" x2="-292.5" y2="502.5"/>
	<line class="st3" x1="-281.8" y1="352.8" x2="-273.8" y2="511.5"/>
</g>
</svg>
