<?xml version="1.0" encoding="utf-8"?>
<!-- Generator: Adobe Illustrator 19.1.0, SVG Export Plug-In . SVG Version: 6.00 Build 0)  -->
<!DOCTYPE svg PUBLIC "-//W3C//DTD SVG 1.1//EN" "http://www.w3.org/Graphics/SVG/1.1/DTD/svg11.dtd">
<svg version="1.1"
	 id="svg2" xmlns:inkscape="http://www.inkscape.org/namespaces/inkscape" xmlns:cc="http://creativecommons.org/ns#" xmlns:svg="http://www.w3.org/2000/svg" xmlns:dc="http://purl.org/dc/elements/1.1/" xmlns:rdf="http://www.w3.org/1999/02/22-rdf-syntax-ns#" xmlns:sodipodi="http://sodipodi.sourceforge.net/DTD/sodipodi-0.dtd" sodipodi:docname="sap-hr.svg" inkscape:version="0.91 r13725"
	 xmlns="http://www.w3.org/2000/svg" xmlns:xlink="http://www.w3.org/1999/xlink" x="0px" y="0px" viewBox="-411 298 256 256"
	 style="enable-background:new -411 298 256 256;" xml:space="preserve">
<style type="text/css">
	.st0{fill:url(#SVGID_1_);stroke:#015491;stroke-width:2;stroke-miterlimit:10;}
	.st1{fill:#FFFFFF;}
	.st2{fill:#007BCA;}
</style>
<radialGradient id="SVGID_1_" cx="-306.2708" cy="420.4583" r="69.071" gradientUnits="userSpaceOnUse">
	<stop  offset="0" style="stop-color:#0081D4"/>
	<stop  offset="1" style="stop-color:#0068AA"/>
</radialGradient>
<polygon class="st0" points="-368.3,378.7 -192.9,378.7 -280.4,464.9 -368.3,464.9 "/>
<sodipodi:namedview  id="namedview24" inkscape:cx="128" pagecolor="#ffffff" bordercolor="#666666" objecttolerance="10" borderopacity="1" guidetolerance="10" inkscape:zoom="0.921875" inkscape:cy="128" showgrid="false" gridtolerance="10" inkscape:pageopacity="0" inkscape:pageshadow="2" inkscape:window-height="480" inkscape:window-x="0" inkscape:window-y="0" inkscape:window-maximized="0" inkscape:current-layer="svg2" inkscape:window-width="640">
	</sodipodi:namedview>
<path id="path18" class="st1" d="M-360.2,403.3h9.4V420h16.6v-16.7h9.3l0.2,41.6l-9.5,0.1v-18h-16.6v18h-9.4V403.3z"/>
<path id="path20" class="st1" d="M-315.2,404c0,0,16.2-1.4,24.1,0.4c3.6,2,7,5.2,7,9.6c0.5,5.1-3.6,8.7-7.6,11.1
	c5.2,3.5,6.1,10,7.8,15.5c0.4,1.5,1.4,4.4,1.4,4.4h-9.6c-1.4-3.8-2.3-7.7-3.4-11.5c-0.6-1.8-1.3-3.9-3.2-4.8
	c-2.2-0.9-4.7-0.7-7.1-0.9c0,5.7,0.2,17.1,0.2,17.1l-9.6,0.1V404z"/>
<path id="path22" class="st2" d="M-305.8,409.1c3.2-0.1,6.7-0.5,9.7,1.1c3.3,1.9,3.7,7.1,0.8,9.6c-2.7,2.7-6.9,2.2-10.5,2.2V409.1z"
	/>
</svg>
