<?xml version="1.0" encoding="utf-8"?>
<!-- Generator: Adobe Illustrator 19.1.0, SVG Export Plug-In . SVG Version: 6.00 Build 0)  -->
<!DOCTYPE svg PUBLIC "-//W3C//DTD SVG 1.1//EN" "http://www.w3.org/Graphics/SVG/1.1/DTD/svg11.dtd">
<svg version="1.1"
	 id="svg2" xmlns:inkscape="http://www.inkscape.org/namespaces/inkscape" xmlns:cc="http://creativecommons.org/ns#" xmlns:svg="http://www.w3.org/2000/svg" xmlns:dc="http://purl.org/dc/elements/1.1/" xmlns:rdf="http://www.w3.org/1999/02/22-rdf-syntax-ns#" xmlns:sodipodi="http://sodipodi.sourceforge.net/DTD/sodipodi-0.dtd" sodipodi:docname="sap-ps.svg" inkscape:version="0.91 r13725"
	 xmlns="http://www.w3.org/2000/svg" xmlns:xlink="http://www.w3.org/1999/xlink" x="0px" y="0px" viewBox="-411 298 256 256"
	 style="enable-background:new -411 298 256 256;" xml:space="preserve">
<style type="text/css">
	.st0{fill:url(#SVGID_1_);stroke:#015491;stroke-width:2;stroke-miterlimit:10;}
	.st1{fill:#FFFFFF;}
</style>
<sodipodi:namedview  id="namedview22" inkscape:cx="128" pagecolor="#ffffff" bordercolor="#666666" objecttolerance="10" borderopacity="1" guidetolerance="10" inkscape:zoom="0.921875" inkscape:cy="128" showgrid="false" gridtolerance="10" inkscape:pageopacity="0" inkscape:pageshadow="2" inkscape:window-height="480" inkscape:window-x="0" inkscape:window-y="0" inkscape:window-maximized="0" inkscape:current-layer="svg2" inkscape:window-width="640">
	</sodipodi:namedview>
<g>
	<radialGradient id="SVGID_1_" cx="-306.2708" cy="420.4583" r="69.071" gradientUnits="userSpaceOnUse">
		<stop  offset="0" style="stop-color:#0081D4"/>
		<stop  offset="1" style="stop-color:#0068AA"/>
	</radialGradient>
	<polygon class="st0" points="-368.3,378.7 -192.9,378.7 -280.4,464.9 -368.3,464.9 	"/>
	<g>
		<path class="st1" d="M-360.8,402.6c3-0.5,7.2-0.9,13.2-0.9c6,0,10.3,1.2,13.2,3.5c2.8,2.2,4.6,5.8,4.6,10c0,4.2-1.4,7.8-4,10.2
			c-3.3,3.1-8.3,4.5-14,4.5c-1.3,0-2.4-0.1-3.3-0.2v15.4h-9.7V402.6z M-351.1,422.2c0.8,0.2,1.9,0.3,3.3,0.3c5.2,0,8.4-2.6,8.4-7
			c0-4-2.8-6.3-7.6-6.3c-2,0-3.3,0.2-4,0.4V422.2z"/>
		<path class="st1" d="M-323.1,435.1c2.6,1.3,6.7,2.7,10.8,2.7c4.5,0,6.9-1.9,6.9-4.7c0-2.7-2-4.2-7.2-6.1
			c-7.2-2.5-11.8-6.5-11.8-12.7c0-7.4,6.1-13,16.3-13c4.9,0,8.5,1,11,2.2l-2.2,7.9c-1.7-0.8-4.8-2-9-2s-6.3,1.9-6.3,4.2
			c0,2.8,2.4,4,8,6.1c7.6,2.8,11.2,6.8,11.2,12.9c0,7.2-5.6,13.4-17.4,13.4c-4.9,0-9.8-1.3-12.2-2.6L-323.1,435.1z"/>
	</g>
</g>
</svg>
