<?xml version="1.0" encoding="utf-8"?>
<!-- Generator: Adobe Illustrator 19.1.0, SVG Export Plug-In . SVG Version: 6.00 Build 0)  -->
<!DOCTYPE svg PUBLIC "-//W3C//DTD SVG 1.1//EN" "http://www.w3.org/Graphics/SVG/1.1/DTD/svg11.dtd">
<svg version="1.1"
	 id="svg2" xmlns:inkscape="http://www.inkscape.org/namespaces/inkscape" xmlns:cc="http://creativecommons.org/ns#" xmlns:svg="http://www.w3.org/2000/svg" xmlns:dc="http://purl.org/dc/elements/1.1/" xmlns:rdf="http://www.w3.org/1999/02/22-rdf-syntax-ns#" xmlns:sodipodi="http://sodipodi.sourceforge.net/DTD/sodipodi-0.dtd" sodipodi:docname="sap-pm.svg" inkscape:version="0.91 r13725"
	 xmlns="http://www.w3.org/2000/svg" xmlns:xlink="http://www.w3.org/1999/xlink" x="0px" y="0px" viewBox="-411 298 256 256"
	 style="enable-background:new -411 298 256 256;" xml:space="preserve">
<style type="text/css">
	.st0{fill:url(#SVGID_1_);stroke:#015491;stroke-width:2;stroke-miterlimit:10;}
	.st1{fill:#FFFFFF;}
	.st2{fill:#0068AA;}
</style>
<sodipodi:namedview  id="namedview22" inkscape:cx="128" pagecolor="#ffffff" bordercolor="#666666" objecttolerance="10" borderopacity="1" guidetolerance="10" inkscape:zoom="0.921875" inkscape:cy="128" showgrid="false" gridtolerance="10" inkscape:pageopacity="0" inkscape:pageshadow="2" inkscape:window-height="480" inkscape:window-x="0" inkscape:window-y="0" inkscape:window-maximized="0" inkscape:current-layer="svg2" inkscape:window-width="640">
	</sodipodi:namedview>
<g>
	
		<radialGradient id="SVGID_1_" cx="-308.6708" cy="429.3417" r="69.071" gradientTransform="matrix(1 0 0 -1 0 854)" gradientUnits="userSpaceOnUse">
		<stop  offset="0" style="stop-color:#0081D4"/>
		<stop  offset="1" style="stop-color:#0068AA"/>
	</radialGradient>
	<polygon class="st0" points="-370.7,382.9 -195.3,382.9 -282.8,469.1 -370.7,469.1 	"/>
	<path id="path16" class="st1" d="M-362.6,408c8.4-0.7,17.7-2.2,25.5,1.8c6.6,3.4,7.8,13.2,2.8,18.5c-4.8,5.1-12.3,5.6-18.9,5.3
		v15.6h-9.4V408z"/>
	<path id="path18" class="st1" d="M-322.5,407.5h11.5l9.5,27l9.9-26.9l11.6-0.1l2.8,41.7h-8.9l-0.6-29.3l-11.9,28.7l-5.9,0.1
		l-11.1-29.7l-1.6,30.2h-8.6L-322.5,407.5z"/>
	<path id="path20" class="st2" d="M-353.1,413.5c3.1,0,6.5-0.5,9.3,1.1c4.1,2,4.2,8.3,0.8,10.9c-2.9,2.3-10.2,1.9-10.2,1.9
		L-353.1,413.5z"/>
</g>
</svg>
