<?xml version="1.0" encoding="utf-8"?>
<!-- Generator: Adobe Illustrator 19.1.0, SVG Export Plug-In . SVG Version: 6.00 Build 0)  -->
<!DOCTYPE svg PUBLIC "-//W3C//DTD SVG 1.1//EN" "http://www.w3.org/Graphics/SVG/1.1/DTD/svg11.dtd">
<svg version="1.1"
	 id="svg2" xmlns:inkscape="http://www.inkscape.org/namespaces/inkscape" xmlns:cc="http://creativecommons.org/ns#" xmlns:svg="http://www.w3.org/2000/svg" xmlns:dc="http://purl.org/dc/elements/1.1/" xmlns:rdf="http://www.w3.org/1999/02/22-rdf-syntax-ns#" xmlns:sodipodi="http://sodipodi.sourceforge.net/DTD/sodipodi-0.dtd" sodipodi:docname="sap-is-utilitybilling.svg" inkscape:version="0.91 r13725"
	 xmlns="http://www.w3.org/2000/svg" xmlns:xlink="http://www.w3.org/1999/xlink" x="0px" y="0px" viewBox="-411 298 256 256"
	 style="enable-background:new -411 298 256 256;" xml:space="preserve">
<style type="text/css">
	.st0{fill:#0171B9;}
	.st1{fill:url(#SVGID_1_);stroke:#015491;stroke-width:2;stroke-miterlimit:10;}
	.st2{fill:#FFFFFF;}
</style>
<sodipodi:namedview  id="namedview6" inkscape:cx="144" pagecolor="#ffffff" bordercolor="#666666" objecttolerance="10" borderopacity="1" guidetolerance="10" inkscape:zoom="3" inkscape:cy="125" showgrid="false" gridtolerance="10" inkscape:pageopacity="0" inkscape:pageshadow="2" inkscape:window-height="988" inkscape:window-x="-8" inkscape:window-y="-8" inkscape:window-maximized="1" inkscape:current-layer="svg2" inkscape:window-width="1680">
	</sodipodi:namedview>
<g>
	<g>
		<path class="st0" d="M-363.2,483.2v11.6c0,3.5,1.3,5.2,3.7,5.2c2.4,0,3.7-1.7,3.7-5.2v-11.6h4.6v11.3c0,6.2-3.1,9.2-8.4,9.2
			c-5.1,0-8.1-2.8-8.1-9.3v-11.3H-363.2z"/>
		<path class="st0" d="M-342.5,484.6v4.2h3.3v3.4h-3.3v5.3c0,1.8,0.4,2.6,1.8,2.6c0.6,0,1-0.1,1.4-0.1l0,3.5c-0.6,0.2-1.7,0.4-3,0.4
			c-1.5,0-2.7-0.5-3.4-1.3c-0.8-0.9-1.3-2.3-1.3-4.3v-6h-2v-3.4h2v-3.2L-342.5,484.6z"/>
		<path class="st0" d="M-332,484.7c0,1.3-1,2.3-2.5,2.3c-1.4,0-2.4-1-2.4-2.3c0-1.3,0.9-2.3,2.4-2.3S-332,483.4-332,484.7z
			 M-336.7,503.5v-14.7h4.6v14.7H-336.7z"/>
		<path class="st0" d="M-328.6,482.2h4.6v21.3h-4.6V482.2z"/>
		<path class="st0" d="M-315.8,484.7c0,1.3-1,2.3-2.5,2.3c-1.4,0-2.4-1-2.4-2.3c0-1.3,0.9-2.3,2.4-2.3S-315.8,483.4-315.8,484.7z
			 M-320.5,503.5v-14.7h4.6v14.7H-320.5z"/>
		<path class="st0" d="M-307.3,484.6v4.2h3.3v3.4h-3.3v5.3c0,1.8,0.4,2.6,1.8,2.6c0.6,0,1-0.1,1.4-0.1l0,3.5c-0.6,0.2-1.7,0.4-3,0.4
			c-1.5,0-2.7-0.5-3.4-1.3c-0.8-0.9-1.3-2.3-1.3-4.3v-6h-2v-3.4h2v-3.2L-307.3,484.6z"/>
		<path class="st0" d="M-297.9,488.8l2.2,7.2c0.2,0.9,0.5,2,0.7,2.7h0.1c0.2-0.8,0.5-1.9,0.7-2.7l1.8-7.2h4.9l-3.4,9.7
			c-2.1,5.8-3.5,8.2-5.2,9.6c-1.6,1.4-3.3,1.9-4.4,2l-1-3.9c0.6-0.1,1.3-0.4,2-0.8c0.7-0.4,1.4-1.1,1.9-1.8c0.1-0.2,0.2-0.5,0.2-0.7
			c0-0.2,0-0.4-0.2-0.8l-5.4-13.4H-297.9z"/>
		<path class="st0" d="M-279.7,483.5c1.2-0.2,3.6-0.4,5.9-0.4c2.8,0,4.5,0.3,6,1.1c1.4,0.8,2.4,2.1,2.4,4c0,1.8-1,3.5-3.3,4.3v0.1
			c2.3,0.6,4,2.4,4,5c0,1.8-0.8,3.3-2.1,4.3c-1.5,1.2-3.9,1.8-7.9,1.8c-2.2,0-3.9-0.2-5-0.3V483.5z M-275.2,491.3h1.5
			c2.4,0,3.7-1,3.7-2.5c0-1.5-1.2-2.3-3.2-2.3c-1,0-1.6,0.1-1.9,0.1V491.3z M-275.2,500.2c0.4,0.1,1,0.1,1.8,0.1
			c2.1,0,3.9-0.8,3.9-2.9c0-2-1.8-2.8-4.1-2.8h-1.6V500.2z"/>
		<path class="st0" d="M-257.1,484.7c0,1.3-1,2.3-2.5,2.3c-1.4,0-2.4-1-2.4-2.3c0-1.3,0.9-2.3,2.4-2.3
			C-258.1,482.4-257.2,483.4-257.1,484.7z M-261.8,503.5v-14.7h4.6v14.7H-261.8z"/>
		<path class="st0" d="M-253.7,482.2h4.6v21.3h-4.6V482.2z"/>
		<path class="st0" d="M-245.6,482.2h4.6v21.3h-4.6V482.2z"/>
		<path class="st0" d="M-232.8,484.7c0,1.3-1,2.3-2.5,2.3c-1.4,0-2.4-1-2.4-2.3c0-1.3,0.9-2.3,2.4-2.3
			C-233.7,482.4-232.8,483.4-232.8,484.7z M-237.5,503.5v-14.7h4.6v14.7H-237.5z"/>
		<path class="st0" d="M-229.4,493.5c0-1.8-0.1-3.4-0.1-4.7h4l0.2,2h0.1c0.6-0.9,2.1-2.3,4.5-2.3c3,0,5.2,2,5.2,6.3v8.7h-4.6v-8.1
			c0-1.9-0.7-3.2-2.3-3.2c-1.3,0-2,0.9-2.3,1.7c-0.1,0.3-0.2,0.7-0.2,1.1v8.5h-4.6V493.5z"/>
		<path class="st0" d="M-197.9,488.8c-0.1,0.9-0.1,2.2-0.1,4.3v8.2c0,2.8-0.6,5.1-2.2,6.6c-1.6,1.4-3.8,1.8-6,1.8
			c-1.9,0-4-0.4-5.3-1.1l0.9-3.5c0.9,0.5,2.6,1.1,4.3,1.1c2.2,0,3.8-1.2,3.8-3.9v-1h-0.1c-0.9,1.2-2.3,1.9-4,1.9
			c-3.6,0-6.2-2.9-6.2-7.2c0-4.7,3.1-7.7,6.7-7.7c2,0,3.3,0.9,4,2.1h0.1l0.2-1.7H-197.9z M-202.6,494.8c0-0.3,0-0.6-0.1-0.8
			c-0.3-1.2-1.2-2-2.5-2c-1.6,0-3,1.5-3,4.2c0,2.2,1.1,3.9,3,3.9c1.2,0,2.1-0.8,2.4-1.9c0.1-0.3,0.1-0.8,0.1-1.2V494.8z"/>
	</g>
	<radialGradient id="SVGID_1_" cx="-306.2708" cy="420.4583" r="69.071" gradientUnits="userSpaceOnUse">
		<stop  offset="0" style="stop-color:#0081D4"/>
		<stop  offset="1" style="stop-color:#0068AA"/>
	</radialGradient>
	<polygon class="st1" points="-368.3,378.7 -192.9,378.7 -280.4,464.9 -368.3,464.9 	"/>
	<g>
		<path class="st2" d="M-350.8,401.9v43.7h-9.9v-43.7H-350.8z"/>
		<path class="st2" d="M-341.8,435.4c2.7,1.4,6.7,2.7,10.9,2.7c4.5,0,6.9-1.9,6.9-4.7c0-2.7-2.1-4.3-7.3-6.2
			c-7.3-2.5-12-6.5-12-12.9c0-7.4,6.2-13.1,16.5-13.1c4.9,0,8.5,1,11.1,2.2l-2.2,8c-1.7-0.8-4.9-2.1-9.1-2.1c-4.3,0-6.3,1.9-6.3,4.2
			c0,2.8,2.5,4,8.1,6.2c7.7,2.8,11.3,6.9,11.3,13c0,7.3-5.6,13.5-17.6,13.5c-5,0-9.9-1.3-12.4-2.7L-341.8,435.4z"/>
	</g>
</g>
</svg>
