<?xml version="1.0" encoding="utf-8"?>
<!-- Generator: Adobe Illustrator 19.1.0, SVG Export Plug-In . SVG Version: 6.00 Build 0)  -->
<!DOCTYPE svg PUBLIC "-//W3C//DTD SVG 1.1//EN" "http://www.w3.org/Graphics/SVG/1.1/DTD/svg11.dtd">
<svg version="1.1"
	 id="svg2" xmlns:inkscape="http://www.inkscape.org/namespaces/inkscape" xmlns:cc="http://creativecommons.org/ns#" xmlns:svg="http://www.w3.org/2000/svg" xmlns:dc="http://purl.org/dc/elements/1.1/" xmlns:rdf="http://www.w3.org/1999/02/22-rdf-syntax-ns#" xmlns:sodipodi="http://sodipodi.sourceforge.net/DTD/sodipodi-0.dtd" sodipodi:docname="sap-erp.svg" inkscape:version="0.91 r13725"
	 xmlns="http://www.w3.org/2000/svg" xmlns:xlink="http://www.w3.org/1999/xlink" x="0px" y="0px" viewBox="-411 298 256 256"
	 style="enable-background:new -411 298 256 256;" xml:space="preserve">
<style type="text/css">
	.st0{fill:url(#SVGID_1_);stroke:#015491;stroke-width:2;stroke-miterlimit:10;}
	.st1{fill:#FFFFFF;}
	.st2{fill:#006FB6;}
</style>
<radialGradient id="SVGID_1_" cx="-306.2708" cy="420.4583" r="69.071" gradientUnits="userSpaceOnUse">
	<stop  offset="0" style="stop-color:#0081D4"/>
	<stop  offset="1" style="stop-color:#0068AA"/>
</radialGradient>
<polygon class="st0" points="-368.3,378.7 -192.9,378.7 -280.4,464.9 -368.3,464.9 "/>
<sodipodi:namedview  id="namedview18" inkscape:cx="160" pagecolor="#ffffff" bordercolor="#666666" objecttolerance="10" borderopacity="1" guidetolerance="10" inkscape:zoom="0.7375" inkscape:cy="160" showgrid="false" gridtolerance="10" inkscape:pageopacity="0" inkscape:pageshadow="2" inkscape:window-height="480" inkscape:window-x="0" inkscape:window-y="0" inkscape:window-maximized="0" inkscape:current-layer="svg2" inkscape:window-width="640">
	</sodipodi:namedview>
<path id="path10" class="st1" d="M-325.2,404c8.3-0.8,17.1-2,25,1.2c5.3,2.3,8,9.3,4.9,14.3c-1.3,2.7-3.6,4.7-6.4,5.6
	c1.7,1,3.2,2,4,3.9c2.7,5,3.2,10.8,5.4,16.1l-9.6,0c-2.1-4.6-2.3-9.8-4.6-14.4c-1.9-3.2-6-2.7-9.1-2.6c0.1,5.7,0,11.3,0,17
	c-3.1,0-9.4,0-9.4,0V404z"/>
<path id="path12" class="st1" d="M-286.2,403.9c6.9-0.8,13.9-1.5,20.7,0c3.3,0.7,6.6,2.3,8.6,5.2c3.5,4.8,2.6,12.2-2,16.1
	c-4.9,4.2-11.7,4.7-17.9,4.3c0,5.2,0,15.7,0,15.7h-9.4V403.9z"/>
<path id="path14" class="st2" d="M-315.8,409.3c3.6-0.4,7.9-0.8,10.8,1.8c2.4,2.5,2,7.1-0.9,9.1c-2.8,2.2-9.9,1.7-9.9,1.7
	L-315.8,409.3z"/>
<path id="path16" class="st2" d="M-276.7,409.4c3.1-0.1,6.4-0.6,9.3,1c4.1,1.9,4.3,8.4,0.7,11c-2.8,2.2-10.1,1.8-10.1,1.8
	L-276.7,409.4z"/>
<polygon class="st1" points="-333.8,410 -333.8,403.2 -360,403.2 -360,445 -333.8,445 -333.8,438.2 -350.8,438.2 -350.8,426.7 
	-334.9,426.7 -334.9,419.9 -350.8,419.9 -350.8,410 "/>
</svg>
