<?xml version="1.0" encoding="utf-8"?>
<!-- Generator: Adobe Illustrator 19.1.0, SVG Export Plug-In . SVG Version: 6.00 Build 0)  -->
<!DOCTYPE svg PUBLIC "-//W3C//DTD SVG 1.1//EN" "http://www.w3.org/Graphics/SVG/1.1/DTD/svg11.dtd">
<svg version="1.1"
	 id="svg2" xmlns:inkscape="http://www.inkscape.org/namespaces/inkscape" xmlns:cc="http://creativecommons.org/ns#" xmlns:svg="http://www.w3.org/2000/svg" xmlns:dc="http://purl.org/dc/elements/1.1/" xmlns:rdf="http://www.w3.org/1999/02/22-rdf-syntax-ns#" xmlns:sodipodi="http://sodipodi.sourceforge.net/DTD/sodipodi-0.dtd" sodipodi:docname="sap-crm-customerdata.svg" inkscape:version="0.91 r13725"
	 xmlns="http://www.w3.org/2000/svg" xmlns:xlink="http://www.w3.org/1999/xlink" x="0px" y="0px" viewBox="-411 298 256 256"
	 style="enable-background:new -411 298 256 256;" xml:space="preserve">
<style type="text/css">
	.st0{fill:#0171B9;}
	.st1{fill:url(#SVGID_1_);stroke:#015491;stroke-width:2;stroke-miterlimit:10;}
	.st2{fill:#FFFFFF;}
</style>
<sodipodi:namedview  id="namedview62" inkscape:cx="128" pagecolor="#ffffff" bordercolor="#666666" objecttolerance="10" borderopacity="1" guidetolerance="10" inkscape:zoom="0.921875" inkscape:cy="128" showgrid="false" gridtolerance="10" inkscape:pageopacity="0" inkscape:pageshadow="2" inkscape:window-height="480" inkscape:window-x="0" inkscape:window-y="0" inkscape:window-maximized="0" inkscape:current-layer="svg2" inkscape:window-width="640">
	</sodipodi:namedview>
<g>
	<g>
		<path class="st0" d="M-355.8,502.7c-0.7,0.4-2.4,0.8-4.6,0.8c-6.1,0-9.3-3.8-9.3-8.9c0-6,4.3-9.4,9.7-9.4c2.1,0,3.7,0.4,4.4,0.8
			l-0.8,3.2c-0.8-0.3-1.9-0.7-3.4-0.7c-3.2,0-5.7,1.9-5.7,5.9c0,3.6,2.1,5.8,5.7,5.8c1.2,0,2.6-0.3,3.3-0.6L-355.8,502.7z"/>
		<path class="st0" d="M-341.6,499c0,1.7,0.1,3.1,0.1,4.1h-3.5l-0.2-1.8h-0.1c-0.5,0.8-1.7,2.1-4,2.1c-2.6,0-4.5-1.6-4.5-5.6v-7.5h4
			v6.9c0,1.9,0.6,3,2,3c1.1,0,1.7-0.8,2-1.4c0.1-0.2,0.1-0.6,0.1-0.9v-7.7h4V499z"/>
		<path class="st0" d="M-338.4,499.7c0.7,0.4,2.3,1,3.4,1c1.2,0,1.7-0.4,1.7-1.1c0-0.7-0.4-1-1.9-1.5c-2.7-0.9-3.7-2.3-3.7-3.9
			c0-2.4,2.1-4.2,5.2-4.2c1.5,0,2.8,0.3,3.6,0.7l-0.7,2.8c-0.6-0.3-1.7-0.7-2.8-0.7c-1,0-1.5,0.4-1.5,1.1c0,0.6,0.5,0.9,2.1,1.5
			c2.4,0.8,3.5,2.1,3.5,4c0,2.4-1.9,4.2-5.6,4.2c-1.7,0-3.2-0.4-4.2-0.9L-338.4,499.7z"/>
		<path class="st0" d="M-322.4,486.6v3.7h2.9v2.9h-2.9v4.7c0,1.6,0.4,2.3,1.6,2.3c0.5,0,0.9-0.1,1.2-0.1l0,3
			c-0.5,0.2-1.5,0.3-2.6,0.3c-1.3,0-2.4-0.4-3-1.1c-0.7-0.8-1.1-2-1.1-3.8v-5.3h-1.7v-2.9h1.7v-2.8L-322.4,486.6z"/>
		<path class="st0" d="M-304.6,496.6c0,4.7-3.3,6.9-6.8,6.9c-3.8,0-6.7-2.5-6.7-6.6s2.7-6.8,6.9-6.8
			C-307.2,490-304.6,492.7-304.6,496.6z M-313.9,496.7c0,2.2,0.9,3.9,2.6,3.9c1.6,0,2.6-1.6,2.6-3.9c0-1.9-0.7-3.9-2.6-3.9
			C-313.2,492.9-313.9,494.8-313.9,496.7z"/>
		<path class="st0" d="M-302.1,494.4c0-1.6-0.1-3-0.1-4.1h3.4l0.2,1.7h0.1c0.6-0.8,1.7-2,3.9-2c1.7,0,3,0.8,3.5,2.2h0.1
			c0.5-0.7,1.1-1.2,1.7-1.6c0.7-0.4,1.5-0.6,2.4-0.6c2.5,0,4.3,1.7,4.3,5.6v7.6h-3.9v-7c0-1.9-0.6-2.9-1.9-2.9
			c-0.9,0-1.6,0.6-1.8,1.4c-0.1,0.3-0.2,0.7-0.2,1v7.5h-3.9V496c0-1.6-0.6-2.7-1.8-2.7c-1,0-1.6,0.8-1.9,1.4c-0.1,0.3-0.2,0.7-0.2,1
			v7.5h-3.9V494.4z"/>
		<path class="st0" d="M-276.3,498c0.1,1.7,1.8,2.4,3.6,2.4c1.4,0,2.5-0.2,3.6-0.5l0.5,2.7c-1.3,0.5-2.9,0.8-4.7,0.8
			c-4.4,0-6.9-2.5-6.9-6.5c0-3.3,2-6.9,6.5-6.9c4.2,0,5.7,3.2,5.7,6.4c0,0.7-0.1,1.3-0.1,1.6H-276.3z M-271.6,495.3
			c0-1-0.4-2.6-2.3-2.6c-1.7,0-2.4,1.5-2.5,2.6H-271.6z"/>
		<path class="st0" d="M-265.5,494.5c0-1.9-0.1-3.1-0.1-4.2h3.4l0.1,2.4h0.1c0.7-1.9,2.2-2.7,3.5-2.7c0.4,0,0.6,0,0.8,0.1v3.8
			c-0.3-0.1-0.6-0.1-1.1-0.1c-1.5,0-2.5,0.8-2.7,2c-0.1,0.3-0.1,0.6-0.1,0.9v6.5h-4V494.5z"/>
		<path class="st0" d="M-249.9,485.7c1.5-0.2,3.4-0.4,5.4-0.4c3.4,0,5.6,0.6,7.3,1.9c1.8,1.4,3,3.6,3,6.7c0,3.4-1.2,5.7-2.9,7.2
			c-1.9,1.6-4.7,2.3-8.2,2.3c-2.1,0-3.6-0.1-4.6-0.3V485.7z M-245.9,500.1c0.3,0.1,0.9,0.1,1.4,0.1c3.6,0,6-2,6-6.2
			c0-3.7-2.1-5.6-5.6-5.6c-0.9,0-1.5,0.1-1.8,0.2V500.1z"/>
		<path class="st0" d="M-224.4,503.2l-0.2-1.3h-0.1c-0.8,1-2.2,1.6-3.7,1.6c-2.6,0-4.2-1.9-4.2-3.9c0-3.3,3-4.9,7.5-4.9v-0.2
			c0-0.7-0.4-1.7-2.3-1.7c-1.3,0-2.7,0.4-3.6,1l-0.7-2.6c0.9-0.5,2.7-1.1,5-1.1c4.3,0,5.7,2.5,5.7,5.6v4.5c0,1.2,0.1,2.4,0.2,3.1
			H-224.4z M-224.8,497.1c-2.1,0-3.7,0.5-3.7,2c0,1,0.7,1.5,1.6,1.5c1,0,1.8-0.7,2.1-1.5c0.1-0.2,0.1-0.4,0.1-0.7V497.1z"/>
		<path class="st0" d="M-213.5,486.6v3.7h2.9v2.9h-2.9v4.7c0,1.6,0.4,2.3,1.6,2.3c0.5,0,0.9-0.1,1.2-0.1l0,3
			c-0.5,0.2-1.5,0.3-2.6,0.3c-1.3,0-2.4-0.4-3-1.1c-0.7-0.8-1.1-2-1.1-3.8v-5.3h-1.7v-2.9h1.7v-2.8L-213.5,486.6z"/>
		<path class="st0" d="M-200.9,503.2l-0.2-1.3h-0.1c-0.8,1-2.2,1.6-3.7,1.6c-2.6,0-4.2-1.9-4.2-3.9c0-3.3,3-4.9,7.5-4.9v-0.2
			c0-0.7-0.4-1.7-2.3-1.7c-1.3,0-2.7,0.4-3.6,1l-0.7-2.6c0.9-0.5,2.7-1.1,5-1.1c4.3,0,5.7,2.5,5.7,5.6v4.5c0,1.2,0.1,2.4,0.2,3.1
			H-200.9z M-201.4,497.1c-2.1,0-3.7,0.5-3.7,2c0,1,0.7,1.5,1.6,1.5c1,0,1.8-0.7,2.1-1.5c0.1-0.2,0.1-0.4,0.1-0.7V497.1z"/>
	</g>
	<radialGradient id="SVGID_1_" cx="-306.2708" cy="420.4583" r="69.071" gradientUnits="userSpaceOnUse">
		<stop  offset="0" style="stop-color:#0081D4"/>
		<stop  offset="1" style="stop-color:#0068AA"/>
	</radialGradient>
	<polygon class="st1" points="-368.3,378.7 -192.9,378.7 -280.4,464.9 -368.3,464.9 	"/>
	<g>
		<path class="st2" d="M-334.9,438.6c-1.4,0.7-4.6,1.5-8.7,1.5c-11.7,0-17.7-7.2-17.7-16.9c0-11.5,8.2-17.9,18.4-17.9
			c4,0,7,0.8,8.3,1.5l-1.5,6.1c-1.6-0.6-3.7-1.2-6.4-1.2c-6.1,0-10.8,3.7-10.8,11.2c0,6.8,4,11,10.8,11c2.3,0,4.9-0.5,6.4-1.1
			L-334.9,438.6z"/>
		<path class="st2" d="M-329.8,406.3c2.5-0.4,6.1-0.7,10.2-0.7c5,0,8.5,0.8,10.9,2.7c2,1.6,3.1,4,3.1,7.1c0,4.3-3.1,7.3-6,8.3v0.2
			c2.4,0.9,3.6,3.2,4.5,6.3c1.1,3.8,2.1,8.2,2.8,9.5h-7.8c-0.5-1-1.4-3.7-2.4-7.9c-0.9-4.2-2.4-5.4-5.5-5.4h-2.3v13.3h-7.6V406.3z
			 M-322.3,420.8h3c3.8,0,6.1-1.9,6.1-4.9c0-3.1-2.1-4.7-5.6-4.7c-1.9,0-2.9,0.1-3.5,0.2V420.8z"/>
		<path class="st2" d="M-271.6,426.7c-0.2-4.1-0.3-9-0.3-13.9h-0.1c-1,4.3-2.5,9.1-3.8,13.1l-4.1,13.2h-6l-3.6-13.1
			c-1.1-4-2.2-8.8-3-13.2h-0.1c-0.2,4.6-0.4,9.8-0.6,14l-0.6,12.8h-7.1l2.1-33.7h10.2l3.3,11.3c1.1,3.9,2.1,8.1,2.9,12.1h0.1
			c0.9-3.9,2.1-8.4,3.2-12.1l3.6-11.2h10l1.9,33.7h-7.5L-271.6,426.7z"/>
	</g>
</g>
</svg>
