<?xml version="1.0" encoding="utf-8"?>
<!-- Generator: Adobe Illustrator 17.0.0, SVG Export Plug-In . SVG Version: 6.00 Build 0)  -->
<!DOCTYPE svg PUBLIC "-//W3C//DTD SVG 1.1//EN" "http://www.w3.org/Graphics/SVG/1.1/DTD/svg11.dtd">
<svg version="1.1" xmlns="http://www.w3.org/2000/svg" xmlns:xlink="http://www.w3.org/1999/xlink" x="0px" y="0px" width="256px"
	 height="256px" viewBox="0 0 256 256" enable-background="new 0 0 256 256" xml:space="preserve">
<g id="image">
</g>
<g id="Layer_5">
</g>
<g id="Layer_2">
	<radialGradient id="SVGID_1_" cx="104.7292" cy="122.4583" r="69.071" gradientUnits="userSpaceOnUse">
		<stop  offset="0" style="stop-color:#0081D4"/>
		<stop  offset="1" style="stop-color:#0068AA"/>
	</radialGradient>
	<polygon fill="url(#SVGID_1_)" stroke="#015491" stroke-width="2" stroke-miterlimit="10" points="42.729,80.708 218.063,80.708 
		130.563,166.875 42.729,166.875 	"/>
</g>
<g id="Layer_3">
	<path fill="#FFFFFF" stroke="#015491" stroke-miterlimit="10" d="M153.667,99.167c-3.583,0-24.917,0-24.917,0v43.417L112.667,99.5
		h-14L85.75,132.583c0,0,0.292-5.792-6.833-9.667c-7.749-4.214-19.613-4.285-19.446-9.368c0.123-3.756,4.363-4.299,7.696-4.299
		c2.751,0,8.5,1,12.417,4.083l6.833-9.5c0,0-5.042-5.458-18.792-5.458s-21.875,6.5-21.875,15.75
		c0,18.792,26.833,15.125,26.833,23.875c0,4.726-5.835,4.625-7.771,4.625c-2.896,0-13.063-4.208-14.146-5.458l-6.583,9.333
		c0,0,10.042,7.583,20.667,7.583c9.347,0,13.75-4,15-5.583l-1.417,3.917l14.583,0.167l3.583-8.917c0,0,3.204,2.605,8.119,2.751
		c4.881,0.145,7.698-2.463,7.943-2.667l4.354,8.75h24.75v-17.333c0,0,13.667,0.167,14.417,0.25
		c0.75,0.083,13.333-2.75,13.583-18.167C169.917,101.833,157.25,99.167,153.667,99.167z M104.563,135.5
		c-3.667,0.167-6.396-2.75-6.396-2.75l6.333-16.583l6.881,16.967C110.548,133.8,108.229,135.333,104.563,135.5z M150.167,125.667
		H141.5v-15.5h7.5c2.958,0,7.5,0.833,7.5,7.75C156.5,124.833,150.167,125.667,150.167,125.667z"/>
</g>
<g id="Layer_4">
</g>
</svg>
