<svg xmlns="http://www.w3.org/2000/svg" xmlns:xlink="http://www.w3.org/1999/xlink" viewBox="0 0 256 256"><defs><style>.cls-1{fill:url(#radial-gradient);}.cls-2{fill:none;stroke-width:3px;}.cls-2,.cls-5,.cls-6{stroke:#015491;}.cls-2,.cls-4,.cls-5,.cls-6{stroke-miterlimit:10;}.cls-3{fill:#015491;}.cls-4{stroke:#fff;stroke-width:9px;}.cls-4,.cls-6{fill:url(#radial-gradient-2);}.cls-5,.cls-7{fill:#fff;}</style><radialGradient id="radial-gradient" cx="126.51" cy="128" r="62.34" gradientUnits="userSpaceOnUse"><stop offset="0" stop-color="#0081d4"/><stop offset="1" stop-color="#0068aa"/></radialGradient><radialGradient id="radial-gradient-2" cx="37.38" cy="20.8" r="40.66" gradientTransform="translate(101.5 38.85) rotate(90)" gradientUnits="userSpaceOnUse"><stop offset="0" stop-color="#0081d4"/><stop offset="1" stop-color="#0068aa"/></radialGradient></defs><title>mm</title><g id="Meter_management" data-name="Meter management"><path class="cls-1" d="M141.82,44.27a13.48,13.48,0,0,0-8.46-3.6H67.85a5,5,0,0,0-5,5V210.33a5,5,0,0,0,5,5H185.18a5,5,0,0,0,5-5V99.69a14.41,14.41,0,0,0-3.46-8.61Z"/><path class="cls-2" d="M141.82,44.27a13.48,13.48,0,0,0-8.46-3.6H67.85a5,5,0,0,0-5,5V210.33a5,5,0,0,0,5,5H185.18a5,5,0,0,0,5-5V99.69a14.41,14.41,0,0,0-3.46-8.61Z"/><path class="cls-3" d="M134.53,40.67s.3,49.8.3,51.64,2.36,8.83,8.78,8.83h46.57L189.6,95,139.51,42Z"/><path class="cls-4" d="M52,115.81,71.2,96.64a4.15,4.15,0,0,0,.42-.52A32.76,32.76,0,0,0,105.4,96c.45-.27.89-.56,1.32-.85.87-.59,1.72-1.22,2.52-1.88a32.68,32.68,0,0,0,6.32-7c.59-.87,1.13-1.77,1.64-2.69s1-1.88,1.37-2.86a28.44,28.44,0,0,0,1.1-3,32.83,32.83,0,0,0-2.47-25.31c-.51-.93-1-1.83-1.64-2.7A32.94,32.94,0,0,0,105.4,40.1a32.52,32.52,0,0,0-17-4.74h0A32.71,32.71,0,0,0,61.32,49.78a30.8,30.8,0,0,0-1.64,2.7,32.51,32.51,0,0,0-4,15.59,32.86,32.86,0,0,0,1.47,9.72c.32,1,.69,2,1.1,3s.88,1.93,1.38,2.86c.41.76.87,1.51,1.34,2.23-.1.09-.21.16-.31.26L41.53,105.32a4.41,4.41,0,0,0,0,6.22l4.28,4.27A4.38,4.38,0,0,0,52,115.81Z"/><path class="cls-5" d="M114.15,68.07A25.72,25.72,0,1,1,88.44,42.35a25.73,25.73,0,0,1,25.71,25.72"/><path class="cls-6" d="M52,115.81,71.2,96.64a4.15,4.15,0,0,0,.42-.52A32.76,32.76,0,0,0,105.4,96c.45-.27.89-.56,1.32-.85.87-.59,1.72-1.22,2.52-1.88a32.68,32.68,0,0,0,6.32-7c.59-.87,1.13-1.77,1.64-2.69s1-1.88,1.37-2.86a28.44,28.44,0,0,0,1.1-3,32.83,32.83,0,0,0-2.47-25.31c-.51-.93-1-1.83-1.64-2.7A32.94,32.94,0,0,0,105.4,40.1a32.52,32.52,0,0,0-17-4.74h0A32.71,32.71,0,0,0,61.32,49.78a30.8,30.8,0,0,0-1.64,2.7,32.51,32.51,0,0,0-4,15.59,32.86,32.86,0,0,0,1.47,9.72c.32,1,.69,2,1.1,3s.88,1.93,1.38,2.86c.41.76.87,1.51,1.34,2.23-.1.09-.21.16-.31.26L41.53,105.32a4.41,4.41,0,0,0,0,6.22l4.28,4.27A4.38,4.38,0,0,0,52,115.81Z"/><path class="cls-5" d="M114.15,68.07A25.72,25.72,0,1,1,88.44,42.35a25.73,25.73,0,0,1,25.71,25.72"/><path class="cls-7" d="M130.69,197.23l17.61-12-10.62-8.15Zm8.95-13.57,1.83,1.41-3,2.07Z"/><path class="cls-7" d="M138,176.55l10.82,8.3,53.79-70.13-10.81-8.29Zm59-61.09L148,179.24l-4.47-3.43L192.5,112Z"/><path class="cls-7" d="M208.69,100.17l-4.46-3.42a4.86,4.86,0,0,0-6.82.9l-3.69,4.8a5.35,5.35,0,0,0-2.52-.25,5.47,5.47,0,0,0-3.64,2.1l-53.43,69.64-.18.26-.06.1a2.63,2.63,0,0,0-.16.26,4,4,0,0,0-.28.64l-6.84,19.69-.27.26v.53a4.76,4.76,0,0,0,7.29,5.14l17.62-12a5.35,5.35,0,0,0,.54-.43l.21-.22.11-.13.19-.19.06-.12,26-33.91a4.36,4.36,0,0,0,1.34,1.73,4.3,4.3,0,0,0,6-.79l20.31-26.48a5.65,5.65,0,0,0-1-7.9l-.63-.48,1.31-1.72a5.49,5.49,0,0,0,.19-6.42l3.69-4.81A4.87,4.87,0,0,0,208.69,100.17Zm-2.28,4.38-5.95,7.76,1.8,1.39a1.49,1.49,0,0,1,.28,2.09l-3.75,4.89,3.8,2.92a1.63,1.63,0,0,1,.31,2.29l-20.31,26.47a.27.27,0,0,1-.44.06.29.29,0,0,1-.12-.21.33.33,0,0,1,.06-.23L203,124.71l-4.61-3.54-49.23,64.18-17.81,12.17a.64.64,0,0,1-.89,0,.76.76,0,0,1-.28-.77l7-20.25.15-.21,53.35-69.54a1.52,1.52,0,0,1,1-.57,1.5,1.5,0,0,1,1.1.3l1.81,1.38,6-7.76a.87.87,0,0,1,1.22-.16l4.45,3.42h0A.87.87,0,0,1,206.41,104.55Z"/><rect class="cls-7" x="195.58" y="103.05" width="10.03" height="6.1" transform="translate(-5.66 200.74) rotate(-52.52)"/><path class="cls-7" d="M169,116.47H77.84a2.32,2.32,0,0,0,0,4.63H169a2.32,2.32,0,0,0,0-4.63Z"/><path class="cls-7" d="M146.9,140.33H77.84a2.32,2.32,0,0,0,0,4.63H146.9a2.32,2.32,0,0,0,0-4.63Z"/><path class="cls-7" d="M119.56,188.05H77.84a2.32,2.32,0,0,0,0,4.63h41.72a2.32,2.32,0,1,0,0-4.63Z"/><path class="cls-7" d="M179,188.05H158.54a2.32,2.32,0,0,0,0,4.63H179a2.32,2.32,0,0,0,0-4.63Z"/><polygon class="cls-7" points="131.63 197.17 149.23 186.29 203.26 114.42 199.77 111.92 206.51 103.07 199.77 99.92 193.26 107.92 190.01 107.42 137.53 176.92 131.63 197.17"/><path class="cls-3" d="M207.47,101.75h0L203,98.33a2.88,2.88,0,0,0-4,.53L194.26,105l-.22-.17a3.49,3.49,0,0,0-4.89.65l-53.46,69.69h0s-.07.11-.11.17-.06.09-.08.14a2.07,2.07,0,0,0-.15.34l-7,20.12h0a2.76,2.76,0,0,0,4.15,3.19h0l17.62-12,.28-.22.1-.12a1.85,1.85,0,0,0,.14-.14v0h0L198.78,124l1.43,1.1L180.5,150.77a2.31,2.31,0,1,0,3.67,2.81l20.31-26.47a3.64,3.64,0,0,0-.67-5.1l-2.22-1.7,2.54-3.31a3.49,3.49,0,0,0-.65-4.89l-.22-.16,4.74-6.18A2.88,2.88,0,0,0,207.47,101.75Zm-72.91,90.44,4.1-11.8,6.23,4.78ZM148.41,182l-7.64-5.86,51.36-66.95,7.64,5.86Zm51.18-72.91-1.66-1.28,3.67-4.78,1.66,1.28Z"/><rect class="cls-7" x="75.53" y="164.19" width="56.1" height="4.62" rx="2.31" ry="2.31"/></g></svg>