<?xml version="1.0" encoding="UTF-8" standalone="no"?>
<!-- Generator: Adobe Illustrator 19.1.0, SVG Export Plug-In . SVG Version: 6.00 Build 0)  -->

<svg
   xmlns:dc="http://purl.org/dc/elements/1.1/"
   xmlns:cc="http://creativecommons.org/ns#"
   xmlns:rdf="http://www.w3.org/1999/02/22-rdf-syntax-ns#"
   xmlns:svg="http://www.w3.org/2000/svg"
   xmlns="http://www.w3.org/2000/svg"
   xmlns:sodipodi="http://sodipodi.sourceforge.net/DTD/sodipodi-0.dtd"
   xmlns:inkscape="http://www.inkscape.org/namespaces/inkscape"
   version="1.1"
   id="svg3071"
   sodipodi:docname="search.svg"
   inkscape:version="0.91 r13725"
   x="0px"
   y="0px"
   viewBox="0 0 596.38398 595.68828"
   xml:space="preserve"
   width="596.38397"
   height="595.68829"><metadata
     id="metadata10"><rdf:RDF><cc:Work
         rdf:about=""><dc:format>image/svg+xml</dc:format><dc:type
           rdf:resource="http://purl.org/dc/dcmitype/StillImage" /><dc:title></dc:title></cc:Work></rdf:RDF></metadata><defs
     id="defs8" /><style
     type="text/css"
     id="style3">
	.st0{fill:#808080;}
</style><sodipodi:namedview
     inkscape:pageshadow="2"
     inkscape:pageopacity="0"
     id="namedview7"
     inkscape:window-y="-8"
     inkscape:window-width="1680"
     inkscape:window-maximized="1"
     inkscape:current-layer="layer1"
     inkscape:window-height="1028"
     inkscape:window-x="1672"
     objecttolerance="10"
     inkscape:cy="308.56794"
     showgrid="false"
     inkscape:cx="-31.375395"
     bordercolor="#666666"
     pagecolor="#ffffff"
     gridtolerance="10"
     borderopacity="1"
     guidetolerance="10"
     inkscape:zoom="0.921875"
     fit-margin-top="0"
     fit-margin-left="0"
     fit-margin-right="0"
     fit-margin-bottom="0" /><g
     id="layer1"
     transform="translate(-289.6454,-457.71088)"><path
       id="path3058-6"
       inkscape:connector-curvature="0"
       class="st0"
       d="m 645.9,457.8 c 129.5,-3.8 246,114.5 239.9,244.1 -0.4,116.1 -95,222.9 -211.3,233.5 -55.9,6.5 -114.3,-6.4 -161.1,-38 -50.4,49.4 -98.9,101 -150.6,149 -35.6,23.9 -87.8,-17.9 -69.3,-57.7 19.7,-32.6 52,-55.6 77.5,-83.8 25,-25 49.9,-50 74.9,-74.9 -73.4,-105.1 -40.7,-265.7 68.4,-333.1 38.9,-25.4 85.2,-39.3 131.6,-39.1 l 0,0 z m 0.2,63.2 C 542.5,517.8 452.8,621.4 471.3,723.6 484.2,821.1 588,894.8 684.1,869.8 775.9,851.5 841.2,752.4 818.5,660.9 803.2,580.9 727.2,519.8 646.1,521 l 0,0 z"
       style="fill:#808080" /></g></svg>