<?xml version="1.0" encoding="UTF-8" standalone="no"?>
<svg
   xmlns:dc="http://purl.org/dc/elements/1.1/"
   xmlns:cc="http://creativecommons.org/ns#"
   xmlns:rdf="http://www.w3.org/1999/02/22-rdf-syntax-ns#"
   xmlns:svg="http://www.w3.org/2000/svg"
   xmlns="http://www.w3.org/2000/svg"
   xmlns:sodipodi="http://sodipodi.sourceforge.net/DTD/sodipodi-0.dtd"
   xmlns:inkscape="http://www.inkscape.org/namespaces/inkscape"
   width="256pt"
   height="256pt"
   viewBox="0 0 256 256"
   version="1.1"
   id="svg2"
   inkscape:version="0.91 r13725"
   sodipodi:docname="Sewer_PRP.svg">
  <metadata
     id="metadata54">
    <rdf:RDF>
      <cc:Work
         rdf:about="">
        <dc:format>image/svg+xml</dc:format>
        <dc:type
           rdf:resource="http://purl.org/dc/dcmitype/StillImage" />
      </cc:Work>
    </rdf:RDF>
  </metadata>
  <defs
     id="defs52" />
  <sodipodi:namedview
     pagecolor="#ffffff"
     bordercolor="#666666"
     borderopacity="1"
     objecttolerance="10"
     gridtolerance="10"
     guidetolerance="10"
     inkscape:pageopacity="0"
     inkscape:pageshadow="2"
     inkscape:window-width="640"
     inkscape:window-height="480"
     id="namedview50"
     showgrid="false"
     inkscape:zoom="0.7375"
     inkscape:cx="160"
     inkscape:cy="160"
     inkscape:window-x="0"
     inkscape:window-y="0"
     inkscape:window-maximized="0"
     inkscape:current-layer="svg2" />
  <path
     fill="#015491"
     d=" M 111.64 44.73 C 122.98 38.54 136.97 38.70 148.87 43.19 C 157.46 46.44 164.56 53.14 168.54 61.39 C 174.35 73.24 175.26 86.94 173.78 99.89 C 177.29 100.67 180.80 101.45 184.31 102.23 C 183.86 104.30 183.40 106.38 182.93 108.45 C 177.63 107.28 172.33 106.10 167.03 104.92 C 182.64 131.70 198.07 158.59 213.59 185.43 C 219.85 196.30 210.74 212.47 197.98 212.00 C 150.94 211.98 103.90 212.05 56.86 211.96 C 49.98 210.91 42.88 206.25 41.36 199.08 C 40.55 193.39 41.12 187.17 44.15 182.16 C 63.67 148.94 82.88 115.53 102.31 82.25 C 95.10 81.74 87.87 82.48 80.68 82.04 C 81.38 78.74 82.14 75.46 82.86 72.18 C 84.70 72.62 86.53 73.06 88.37 73.51 C 92.61 61.72 100.51 50.84 111.64 44.73 Z"
     id="path6" />
  <path
     fill="#0068aa"
     d=" M 105.50 51.44 C 112.64 45.52 121.82 41.40 131.24 42.11 C 121.09 46.44 114.19 56.89 114.27 67.92 C 114.64 72.99 115.49 78.93 120.07 81.99 C 107.85 80.18 95.51 79.93 83.18 80.04 C 83.50 78.44 83.87 76.84 84.24 75.24 C 86.07 75.08 87.91 74.90 89.74 74.74 C 93.58 66.15 98.14 57.54 105.50 51.44 Z"
     id="path8" />
  <path
     fill="#006fb6"
     d=" M 131.24 42.11 C 140.10 41.91 149.20 44.32 156.38 49.62 C 164.48 55.63 169.04 65.33 170.91 75.04 C 172.72 83.52 170.94 92.34 172.03 100.81 C 174.78 103.36 179.34 102.46 182.29 104.92 C 180.35 106.12 178.15 105.13 176.13 104.76 C 172.65 103.88 168.75 103.59 166.07 100.90 C 153.47 89.47 136.39 85.01 120.07 81.99 C 115.49 78.93 114.64 72.99 114.27 67.92 C 114.19 56.89 121.09 46.44 131.24 42.11 Z"
     id="path10" />
  <path
     fill="#ffffff"
     d=" M 132.34 48.27 C 134.74 46.06 138.18 47.49 141.06 47.58 C 146.71 48.42 153.22 49.23 157.12 53.91 C 162.24 59.55 166.81 66.20 167.91 73.91 C 168.46 78.84 168.28 83.94 166.75 88.69 C 166.46 88.43 165.90 87.92 165.61 87.67 C 164.77 81.43 165.22 74.99 163.41 68.88 C 162.35 64.45 160.42 59.88 156.41 57.37 C 152.84 54.86 149.35 51.90 145.00 50.93 C 141.03 50.10 136.95 50.34 132.93 50.16 C 132.78 49.69 132.49 48.74 132.34 48.27 Z"
     id="path12" />
  <path
     fill="#007ac8"
     d=" M 132.93 50.16 C 136.95 50.34 141.03 50.10 145.00 50.93 C 149.35 51.90 152.84 54.86 156.41 57.37 C 157.49 62.79 159.43 68.62 157.08 74.00 C 154.51 79.43 149.17 83.96 142.94 84.12 C 135.51 85.23 128.38 80.07 125.65 73.37 C 124.31 69.15 124.41 64.38 126.19 60.31 C 128.07 56.27 131.88 53.73 135.58 51.52 C 134.70 51.06 133.82 50.61 132.93 50.16 Z"
     id="path14" />
  <path
     fill="#006eb4"
     d=" M 103.13 85.00 C 104.87 81.05 109.82 83.21 113.08 83.29 C 111.53 86.83 109.44 90.09 107.54 93.44 C 95.92 113.80 84.12 134.06 72.22 154.25 C 70.62 157.02 69.07 159.84 67.08 162.35 C 66.48 158.16 65.81 153.97 65.72 149.72 C 77.75 127.91 90.65 106.56 103.13 85.00 Z"
     id="path16" />
  <path
     fill="#ffffff"
     d=" M 60.06 179.02 C 78.82 147.26 97.13 115.24 115.78 83.42 C 125.30 84.73 134.82 86.63 143.76 90.21 C 144.96 90.63 145.34 91.99 146.03 92.93 C 162.56 121.80 178.99 150.72 195.35 179.68 C 197.74 184.30 199.36 190.04 197.06 195.01 C 195.54 198.46 191.60 200.13 187.99 200.00 C 149.32 199.99 110.65 200.11 71.97 200.07 C 67.91 200.00 63.40 200.62 59.87 198.14 C 56.30 195.71 55.60 190.91 56.20 186.93 C 56.57 183.93 58.61 181.56 60.06 179.02 Z"
     id="path18" />
  <path
     fill="#0071b9"
     d=" M 148.65 92.59 C 154.75 95.12 161.43 98.36 164.51 104.56 C 174.22 121.26 183.92 137.97 193.45 154.78 C 192.63 158.68 191.63 162.54 190.46 166.35 C 177.13 144.18 164.72 121.45 151.82 99.02 C 150.60 96.96 149.52 94.82 148.65 92.59 Z"
     id="path20" />
  <path
     fill="#015491"
     d=" M 99.26 132.61 C 105.08 128.82 110.45 121.84 118.16 123.22 C 126.02 124.98 129.24 133.19 134.73 138.14 C 133.55 139.81 132.01 141.16 130.42 142.43 C 130.93 140.95 132.61 139.21 131.35 137.74 C 129.06 134.40 126.47 131.23 123.58 128.39 C 120.77 125.64 116.39 123.85 112.61 125.68 C 108.04 127.88 104.21 131.31 100.41 134.62 C 99.44 133.84 98.48 133.05 97.53 132.26 C 96.89 132.23 95.62 132.16 94.98 132.13 C 95.76 131.50 96.54 130.88 97.31 130.24 C 97.96 131.03 98.61 131.82 99.26 132.61 Z"
     id="path22" />
  <path
     fill="#0072bb"
     d=" M 112.61 125.68 C 116.39 123.85 120.77 125.64 123.58 128.39 C 126.47 131.23 129.06 134.40 131.35 137.74 C 132.61 139.21 130.93 140.95 130.42 142.43 C 130.12 142.68 129.82 142.93 129.51 143.17 C 127.73 143.89 125.93 144.53 124.15 145.22 C 121.83 142.78 119.99 139.89 117.50 137.62 C 112.99 135.48 109.90 140.77 105.97 142.08 C 107.15 143.00 108.31 143.94 109.50 144.85 L 110.42 145.58 C 108.10 147.83 105.54 149.81 103.05 151.87 C 98.63 146.73 94.33 141.49 89.94 136.33 C 91.60 134.90 93.29 133.51 94.98 132.13 C 95.62 132.16 96.89 132.23 97.53 132.26 C 98.48 133.05 99.44 133.84 100.41 134.62 C 104.21 131.31 108.04 127.88 112.61 125.68 Z"
     id="path24" />
  <path
     fill="#0083d6"
     d=" M 136.42 136.02 C 138.48 138.52 140.53 141.03 142.55 143.57 C 141.80 144.16 140.99 144.65 140.13 145.05 C 137.98 145.82 136.23 147.29 134.54 148.77 C 134.25 148.99 133.97 149.23 133.70 149.47 C 131.55 151.28 129.31 152.97 127.09 154.69 C 125.75 153.67 124.35 152.74 123.04 151.68 C 121.55 150.74 119.83 148.11 122.75 147.88 C 125.41 146.98 127.33 144.83 129.51 143.17 C 129.82 142.93 130.12 142.68 130.42 142.43 C 132.01 141.16 133.55 139.81 134.73 138.14 C 135.15 137.61 136.00 136.55 136.42 136.02 Z"
     id="path26" />
  <path
     fill="#015491"
     d=" M 105.97 142.08 C 109.90 140.77 112.99 135.48 117.50 137.62 C 119.99 139.89 121.83 142.78 124.15 145.22 C 125.93 144.53 127.73 143.89 129.51 143.17 C 127.33 144.83 125.41 146.98 122.75 147.88 C 121.85 144.24 118.33 141.77 116.04 138.90 C 112.95 138.67 111.09 142.05 108.64 143.50 C 108.85 143.84 109.28 144.52 109.50 144.85 C 108.31 143.94 107.15 143.00 105.97 142.08 Z"
     id="path28" />
  <path
     fill="#015491"
     d=" M 134.54 148.77 C 136.23 147.29 137.98 145.82 140.13 145.05 C 144.28 150.07 148.05 155.50 152.74 160.03 C 152.20 160.81 151.66 161.60 151.13 162.40 C 147.54 157.00 143.37 152.01 139.04 147.19 C 137.55 147.74 136.01 148.16 134.54 148.77 Z"
     id="path30" />
  <path
     fill="#0072bb"
     d=" M 134.54 148.77 C 136.01 148.16 137.55 147.74 139.04 147.19 C 143.37 152.01 147.54 157.00 151.13 162.40 C 148.82 164.71 146.32 166.82 143.71 168.78 C 139.75 163.53 134.88 159.01 131.20 153.53 C 132.03 152.17 132.82 150.79 133.70 149.47 C 133.97 149.23 134.25 148.99 134.54 148.77 Z"
     id="path32" />
  <path
     fill="#0068aa"
     d=" M 59.32 160.30 C 61.42 156.75 63.11 152.94 65.72 149.72 C 65.81 153.97 66.48 158.16 67.08 162.35 C 64.88 168.16 60.77 173.26 57.80 178.79 C 54.35 183.37 52.78 189.57 54.99 195.05 C 56.44 199.17 60.71 201.57 64.90 201.89 C 77.37 202.60 89.92 201.27 102.36 202.34 C 98.91 202.84 95.44 203.18 91.96 203.41 C 95.19 205.90 98.62 208.13 102.35 209.80 C 88.25 210.33 74.13 209.80 60.02 210.04 C 52.88 210.39 45.07 205.87 43.31 198.67 C 42.51 193.35 43.24 187.64 46.02 182.96 C 50.40 175.38 54.92 167.87 59.32 160.30 Z"
     id="path34" />
  <path
     fill="#015491"
     d=" M 127.09 154.69 C 129.31 152.97 131.55 151.28 133.70 149.47 C 132.82 150.79 132.03 152.17 131.20 153.53 C 134.88 159.01 139.75 163.53 143.71 168.78 C 142.89 169.09 141.25 169.70 140.44 170.01 C 140.51 169.62 140.65 168.84 140.72 168.44 C 136.90 163.75 133.03 159.10 129.15 154.46 C 128.55 154.93 127.35 155.87 126.75 156.35 C 125.49 154.81 124.22 153.28 123.04 151.68 C 124.35 152.74 125.75 153.67 127.09 154.69 Z"
     id="path36" />
  <path
     fill="#0068aa"
     d=" M 193.45 154.78 C 199.91 165.06 205.52 175.89 211.75 186.32 C 217.54 196.33 208.67 211.00 197.02 210.01 C 185.55 209.87 174.08 210.31 162.63 209.79 C 166.93 207.87 170.78 205.13 174.50 202.27 C 180.38 201.26 186.50 202.87 192.34 201.37 C 196.84 200.09 200.15 195.72 200.09 191.02 C 200.71 181.80 194.21 174.57 190.30 166.85 L 190.46 166.35 C 191.63 162.54 192.63 158.68 193.45 154.78 Z"
     id="path38" />
  <path
     fill="#0083d6"
     d=" M 152.74 160.03 C 153.12 159.54 153.88 158.56 154.26 158.07 C 156.35 160.57 158.41 163.09 160.39 165.68 C 159.81 166.01 158.66 166.68 158.08 167.02 C 156.50 167.79 154.91 168.55 153.43 169.48 C 151.52 170.75 149.90 172.37 148.20 173.89 C 146.81 175.12 145.36 176.27 144.00 177.54 C 142.00 175.41 140.16 173.13 138.52 170.72 C 139.00 170.54 139.96 170.19 140.44 170.01 C 141.25 169.70 142.89 169.09 143.71 168.78 C 146.32 166.82 148.82 164.71 151.13 162.40 C 151.66 161.60 152.20 160.81 152.74 160.03 Z"
     id="path40" />
  <path
     fill="#0072bb"
     d=" M 169.56 168.05 C 171.68 166.26 173.81 164.49 175.95 162.72 C 180.32 167.90 184.70 173.08 189.03 178.30 C 186.42 180.28 184.21 182.81 181.30 184.34 L 180.45 182.58 C 180.06 181.77 179.66 180.98 179.28 180.18 C 176.53 182.83 173.89 185.67 170.62 187.67 C 166.45 190.19 160.73 189.01 157.48 185.52 C 154.07 181.92 151.08 177.93 148.20 173.89 C 149.90 172.37 151.52 170.75 153.43 169.48 C 158.96 167.80 160.24 174.70 164.12 176.88 C 167.28 177.99 169.55 174.77 171.89 173.22 C 173.35 174.57 174.83 175.91 176.32 177.23 C 174.08 174.16 171.68 171.21 169.56 168.05 Z"
     id="path42" />
  <path
     fill="#015491"
     d=" M 153.43 169.48 C 154.91 168.55 156.50 167.79 158.08 167.02 C 160.37 169.74 162.30 172.86 165.05 175.14 C 167.61 175.61 168.94 172.63 170.71 171.29 C 170.19 170.67 169.17 169.42 168.66 168.80 C 168.89 168.61 169.33 168.24 169.56 168.05 C 171.68 171.21 174.08 174.16 176.32 177.23 C 174.83 175.91 173.35 174.57 171.89 173.22 C 169.55 174.77 167.28 177.99 164.12 176.88 C 160.24 174.70 158.96 167.80 153.43 169.48 Z"
     id="path44" />
  <path
     fill="#015491"
     d=" M 148.20 173.89 C 151.08 177.93 154.07 181.92 157.48 185.52 C 160.73 189.01 166.45 190.19 170.62 187.67 C 173.89 185.67 176.53 182.83 179.28 180.18 C 179.66 180.98 180.06 181.77 180.45 182.58 C 175.49 185.69 171.51 191.67 164.93 190.97 C 156.28 190.59 152.49 181.85 147.25 176.35 C 146.16 177.13 145.04 177.84 143.88 178.49 L 144.00 177.54 C 145.36 176.27 146.81 175.12 148.20 173.89 Z"
     id="path46" />
  <path
     fill="#006cb1"
     d=" M 102.36 202.34 C 107.55 201.76 112.78 202.10 117.98 201.99 C 136.82 202.15 155.67 201.67 174.50 202.27 C 170.78 205.13 166.93 207.87 162.63 209.79 C 142.55 210.11 122.43 210.10 102.35 209.80 C 98.62 208.13 95.19 205.90 91.96 203.41 C 95.44 203.18 98.91 202.84 102.36 202.34 Z"
     id="path48" />
</svg>
