<?xml version="1.0" encoding="utf-8"?>
<!-- Generator: Adobe Illustrator 19.1.0, SVG Export Plug-In . SVG Version: 6.00 Build 0)  -->
<!DOCTYPE svg PUBLIC "-//W3C//DTD SVG 1.1//EN" "http://www.w3.org/Graphics/SVG/1.1/DTD/svg11.dtd">
<svg version="1.1" id="Layer_1" xmlns="http://www.w3.org/2000/svg" xmlns:xlink="http://www.w3.org/1999/xlink" x="0px" y="0px"
	 viewBox="-267 390.9 60 60" style="enable-background:new -267 390.9 60 60;" xml:space="preserve">
<style type="text/css">
	.st0{fill:#FFFFFF;}
	.st1{fill:#333333;}
</style>
<path class="st0" d="M-267,390.9h60v60h-60V390.9z"/>
<g id="image">
</g>
<g id="Layer_2">
</g>
<g>
	<path class="st1" d="M-213.1,419.1h-23.2c-0.6,0-1.2,0.7-1.2,1.5c0,0.8,0.5,1.5,1.2,1.5h23.2c0.6,0,1.2-0.7,1.2-1.5
		C-212,419.7-212.5,419.1-213.1,419.1L-213.1,419.1z M-213.1,419.1"/>
	<path class="st1" d="M-260.9,422h7.4c0.6,0,1.1-0.7,1.1-1.5c0-0.8-0.5-1.5-1.1-1.5h-7.4c-0.6,0-1.1,0.7-1.1,1.5
		C-262,421.4-261.5,422-260.9,422L-260.9,422z M-260.9,422"/>
	<path class="st1" d="M-250.6,427.8c0,3.3,2.7,5.9,5.9,5.9c3.3,0,5.9-2.7,5.9-5.9V414c0-3.3-2.7-5.9-5.9-5.9c-3.3,0-5.9,2.7-5.9,5.9
		V427.8z M-244.7,410.4"/>
</g>
</svg>
