<?xml version="1.0" encoding="UTF-8" standalone="no"?>
<!-- Created with Inkscape (http://www.inkscape.org/) -->

<svg
   xmlns:dc="http://purl.org/dc/elements/1.1/"
   xmlns:cc="http://creativecommons.org/ns#"
   xmlns:rdf="http://www.w3.org/1999/02/22-rdf-syntax-ns#"
   xmlns:svg="http://www.w3.org/2000/svg"
   xmlns="http://www.w3.org/2000/svg"
   xmlns:sodipodi="http://sodipodi.sourceforge.net/DTD/sodipodi-0.dtd"
   xmlns:inkscape="http://www.inkscape.org/namespaces/inkscape"
   id="svg2"
   version="1.1"
   inkscape:version="0.91 r13725"
   width="2000"
   height="2000"
   viewBox="0 0 2000 2000"
   sodipodi:docname="Speech_bubble_text.svg">
  <metadata
     id="metadata8">
    <rdf:RDF>
      <cc:Work
         rdf:about="">
        <dc:format>image/svg+xml</dc:format>
        <dc:type
           rdf:resource="http://purl.org/dc/dcmitype/StillImage" />
        <dc:title></dc:title>
      </cc:Work>
    </rdf:RDF>
  </metadata>
  <defs
     id="defs6" />
  <sodipodi:namedview
     pagecolor="#ffffff"
     bordercolor="#666666"
     borderopacity="1"
     objecttolerance="10"
     gridtolerance="10"
     guidetolerance="10"
     inkscape:pageopacity="0"
     inkscape:pageshadow="2"
     inkscape:window-width="1920"
     inkscape:window-height="1017"
     id="namedview4"
     showgrid="false"
     inkscape:zoom="0.118"
     inkscape:cx="1000"
     inkscape:cy="1000"
     inkscape:window-x="-8"
     inkscape:window-y="-8"
     inkscape:window-maximized="1"
     inkscape:current-layer="svg2" />
  <path
     style="fill:#000000"
     d="m 1369.2434,2002.1738 c -24.8015,-35.3728 -72.4727,-106.2018 -154.3816,-229.3772 l -81.2118,-122.1273 -109.3377,-0.6348 c -60.13575,-0.3491 -210.58775,-1.0906 -334.33775,-1.6476 -299.095,-1.3464 -365.2096,-2.4539 -386.1962,-6.4693 -10.399,-1.9897 -29.7772,-7.9173 -44.8038,-13.7051 -7.15,-2.754 -15.925,-5.9025 -19.5,-6.9967 -11.2113,-3.4314 -53.6113,-27.0921 -74.5,-41.5736 -47.2349,-32.7467 -92.661697,-87.5726 -118.993497,-143.614 -12.1967,-25.958 -19.9109,-47.5532 -29.3291,-82.1045 l -5.9969,-22 -0.6201,-88.5 c -1.0164005,-145.0716 -0.7269005,-819.95982 0.3675,-856.49997 0.8504,-28.396 1.3535,-35.02297 3.606,-47.5 23.2702,-128.89754 105.739797,-233.19894 223.966097,-283.255735 22.7175,-9.61855 40.7585,-15.64953 62.0062,-20.72832 22.4624,-5.36914 28.4694,-6.0063 66.1867,-7.0203 102.9776,-2.76847 1162.47905,-3.61443 1268.02495,-1.01245 42.5503,1.04898 54.2528,1.97069 71.7823,5.65374 49.9027,10.48484 96.6811,30.13868 137.4854,57.76418 76.2758,51.640545 130.3733,129.687085 153.4645,221.403465 7.4614,29.63594 8.5791,38.43812 9.612,75.69542 1.052,37.94715 1.3413,720.36717 0.3633,856.99997 l -0.6227,87 -5.9388,22 c -15.7489,58.3408 -34.9893,100.7949 -64.296,141.8699 -21.818,30.5792 -53.532,61.9164 -85.8511,84.8312 -59.6434,42.2881 -124.5757,64.0443 -207.0096,69.3605 l -9.793,0.6316 -96.3198,144.6534 c -114.0382,171.263 -151.3172,226.1535 -153.5924,226.1535 -0.4049,0 -6.8098,-8.6625 -14.2331,-19.25 z m -360.7687,-790.2501 0,-63.5 -313.50015,0 -313.5,0 0,63.5 0,63.5 313.5,0 313.50015,0 0,-63.5 z m 626.6974,-243.24998 c -0.5595,-57.50428 -1.0255,-64.61748 -4.4177,-67.43289 -1.3076,-1.08527 -98.3293,-1.36251 -551.1833,-1.57502 -548.75855,-0.25752 -691.96725,0.22568 -694.08155,2.34193 -2.4545,2.45671 -3.1149,14.5854 -3.6846,67.66598 l -0.5984,55.74998 627.25895,0 627.2588,0 -0.5522,-56.74998 z m -0.2651,-227.5 c -0.2643,-18.8375 -0.7447,-46.90686 -1.0674,-62.37636 l -0.5868,-28.12635 -291.1391,-0.73632 c -320.1794,-0.80977 -952.89685,-0.1837 -956.27015,0.94623 -1.6819,0.56339 -2.2604,1.80217 -2.7454,5.87831 -0.3379,2.84047 -0.9094,30.70199 -1.2699,61.91449 l -0.6556,56.75 627.10755,0 627.1075,0 -0.4807,-34.25 z m 0,-249.99999 c -0.2643,-18.8375 -0.7447,-46.90686 -1.0674,-62.37636 l -0.5868,-28.12635 -291.1391,-0.73632 c -320.1794,-0.80977 -952.89685,-0.1837 -956.27015,0.94623 -1.6819,0.56339 -2.2604,1.80217 -2.7454,5.87831 -0.3379,2.84047 -0.9094,30.70199 -1.2699,61.91449 l -0.6556,56.74999 627.10755,0 627.1075,0 -0.4807,-34.24999 z"
     id="path4138"
     inkscape:connector-curvature="0" />
</svg>
