<?xml version="1.0" encoding="utf-8"?>
<!-- Generator: Adobe Illustrator 19.1.0, SVG Export Plug-In . SVG Version: 6.00 Build 0)  -->
<!DOCTYPE svg PUBLIC "-//W3C//DTD SVG 1.1//EN" "http://www.w3.org/Graphics/SVG/1.1/DTD/svg11.dtd">
<svg version="1.1"
	 id="Layer_1" xmlns:inkscape="http://www.inkscape.org/namespaces/inkscape" xmlns:cc="http://creativecommons.org/ns#" xmlns:svg="http://www.w3.org/2000/svg" xmlns:dc="http://purl.org/dc/elements/1.1/" xmlns:rdf="http://www.w3.org/1999/02/22-rdf-syntax-ns#" xmlns:sodipodi="http://sodipodi.sourceforge.net/DTD/sodipodi-0.dtd" sodipodi:docname="stormwater.svg" inkscape:version="1"
	 xmlns="http://www.w3.org/2000/svg" xmlns:xlink="http://www.w3.org/1999/xlink" x="0px" y="0px" viewBox="-411 298 256 256"
	 style="enable-background:new -411 298 256 256;" xml:space="preserve">
<style type="text/css">
	.st0{fill:url(#SVGID_1_);stroke:#015491;stroke-width:2;stroke-miterlimit:10;}
	.st1{fill:#FFFFFF;stroke:#015491;stroke-width:2;stroke-miterlimit:10;}
	.st2{fill:url(#SVGID_2_);stroke:#015491;stroke-width:2;stroke-miterlimit:10;}
	.st3{fill:url(#SVGID_3_);stroke:#015491;stroke-width:2;stroke-miterlimit:10;}
	.st4{fill:url(#SVGID_4_);}
</style>
<g>
	<radialGradient id="SVGID_1_" cx="-285" cy="426" r="87.8333" gradientUnits="userSpaceOnUse">
		<stop  offset="0.808" style="stop-color:#0068AA"/>
		<stop  offset="1" style="stop-color:#0081D4"/>
	</radialGradient>
	<circle class="st0" cx="-282.5" cy="426.5" r="87.8"/>
	<circle class="st1" cx="-281.7" cy="426" r="69"/>
	<radialGradient id="SVGID_2_" cx="-281.6667" cy="456.25" r="51.6246" gradientUnits="userSpaceOnUse">
		<stop  offset="0" style="stop-color:#0081D4"/>
		<stop  offset="1" style="stop-color:#0068AA"/>
	</radialGradient>
	<path class="st2" d="M-346.8,425c0,0,3.3,64.2,65.3,64.2s65-63.7,65-63.7s-5.5,7.8-18.3,7.8c-12.8,0-22.2-7.2-23.8-10
		c0,0-11.5,10.5-23,10.5s-21.8-9.5-22.2-10.5c0,0-13.3,13-23.7,11s-19.3-11-19.3-11V425z"/>
	<radialGradient id="SVGID_3_" cx="-282.001" cy="394.0417" r="24.0104" gradientUnits="userSpaceOnUse">
		<stop  offset="0" style="stop-color:#0081D4"/>
		<stop  offset="1" style="stop-color:#0068AA"/>
	</radialGradient>
	<path class="st3" d="M-300,404.2c-0.1,3.4,1.1,18.6,17.5,18.6s18.5-12.2,18.5-17.9c0-5.7-13.7-27.8-15.2-31.2
		c-1.6-3.4-2.4-6.2-2.5-8.4c0,0-0.6,5.5-2.3,8.3C-285.5,376-299.8,394.5-300,404.2z"/>
	<linearGradient id="SVGID_4_" gradientUnits="userSpaceOnUse" x1="-289.7639" y1="420.1588" x2="-289.7639" y2="383.63">
		<stop  offset="0" style="stop-color:#00A2D4"/>
		<stop  offset="0.4877" style="stop-color:#FFFFFF"/>
		<stop  offset="1" style="stop-color:#00A2D4"/>
	</linearGradient>
	<path class="st4" d="M-296.5,405.4c0,0,0.8-12.5,9.2-21.6c0,0,2.4-1.6-2.9,5.3c-1.2,1.5-4,8.8-4.1,15.7s3.4,12.4,8.9,14.1
		c4.7,1.4,1.5,1.7-1,0.8S-296.2,414-296.5,405.4z"/>
	
		<sodipodi:namedview  inkscape:cx="160" pagecolor="#ffffff" bordercolor="#666666" objecttolerance="10" borderopacity="1" guidetolerance="10" inkscape:zoom="1" inkscape:cy="160" showgrid="false" gridtolerance="10" inkscape:pageopacity="0" inkscape:pageshadow="2" inkscape:window-height="480" inkscape:window-x="0" inkscape:window-y="0" inkscape:window-maximized="0" inkscape:current-layer="svg2" inkscape:window-width="640">
		</sodipodi:namedview>
</g>
</svg>
