<svg xmlns:dc="http://purl.org/dc/elements/1.1/" xmlns:cc="http://creativecommons.org/ns#" xmlns:rdf="http://www.w3.org/1999/02/22-rdf-syntax-ns#" xmlns:svg="http://www.w3.org/2000/svg" xmlns="http://www.w3.org/2000/svg" xmlns:sodipodi="http://sodipodi.sourceforge.net/DTD/sodipodi-0.dtd" xmlns:inkscape="http://www.inkscape.org/namespaces/inkscape" width="256" height="256" viewBox="0 0 256 256" version="1" inkscape:version="1" sodipodi:docname="swift-water.svg"><metadata><rdf:RDF><cc:Work rdf:about=""><dc:format>image/svg+xml</dc:format><dc:type rdf:resource="http://purl.org/dc/dcmitype/StillImage"/></cc:Work></rdf:RDF></metadata><defs><filter inkscape:label="Light Eraser" color-interpolation-filters="sRGB"><feColorMatrix values="1" result="colormatrix"/><feComposite in2="colormatrix" operator="arithmetic" k2="1" result="composite"/></filter></defs><sodipodi:namedview pagecolor="#ffffff" bordercolor="#666666" borderopacity="1" objecttolerance="10" gridtolerance="10" guidetolerance="10" inkscape:pageopacity="0" inkscape:pageshadow="2" inkscape:window-width="640" inkscape:window-height="480" showgrid="false" inkscape:zoom="1" inkscape:cx="160" inkscape:cy="160" inkscape:window-x="0" inkscape:window-y="0" inkscape:window-maximized="0" inkscape:current-layer="svg2"/><path fill="#006aad" d="M84 28C85 22 91 17 97 18 101 18 104 21 106 24 110 24 114 24 118 24 120 21 123 18 127 18 131 18 134 21 137 24 140 24 144 24 147 24 150 21 153 18 157 18 164 17 170 23 170 30 170 37 163 43 156 42 153 41 150 39 148 36 144 36 140 36 136 36 136 39 136 43 136 46 130 46 124 46 118 46 118 43 118 39 118 36 114 36 110 36 106 36 103 40 99 42 94 41 88 41 83 34 84 28Z"/><path fill="#004272" d="M115 51C130 48 144 50 158 55 177 63 192 79 200 97 207 114 208 132 203 149 197 169 182 187 163 196 152 202 140 205 127 204 105 204 84 194 70 177 58 164 52 147 51 130 50 112 56 94 67 80 79 65 96 54 115 51Z"/><path fill="#006aad" d="M127 52C144 51 160 57 174 66 185 75 194 87 199 101 206 118 206 139 198 156 191 173 177 188 160 195 142 204 120 205 101 197 88 192 76 183 68 171 59 160 55 147 53 133 52 115 57 96 68 81 82 63 105 52 127 52Z"/><path fill="#004272" d="M118 62C132 60 146 62 158 68 173 76 185 88 191 103 198 122 196 144 186 161 177 174 163 185 148 189 135 192 121 192 108 188 92 183 77 171 70 156 63 142 61 125 66 110 72 85 94 66 118 62Z"/><path fill="#d2d2d2" d="M120 65C130 64 140 64 149 67 169 74 186 91 191 112 194 126 193 141 187 154 181 167 170 178 156 183 144 189 130 190 116 188 97 184 79 172 71 154 65 142 64 128 67 114 70 100 78 86 90 77 99 70 110 66 120 65Z"/><path fill="#ffffff" d="M77 106C112 105 146 105 181 106 181 118 181 130 181 142 181 145 181 148 180 150L180 149C180 135 180 121 180 107 179 107 178 107 177 107 177 110 177 114 174 117 172 119 168 120 165 118 163 117 162 114 162 112 165 111 168 114 171 116 171 113 172 111 172 109 170 109 167 111 164 109 162 107 159 107 156 107 156 121 156 135 156 149L156 150C156 150 154 150 154 150L154 149C154 135 154 121 154 107 153 107 152 107 151 107 149 110 146 113 142 113 138 113 135 110 133 107 132 107 131 107 130 107 130 121 130 135 130 149L130 150C129 150 128 150 128 150L128 149C128 135 128 121 128 107 120 107 112 107 104 107 104 121 104 135 104 149L104 150C103 150 102 149 102 149 101 135 102 121 102 107 94 107 86 107 78 107 78 121 78 135 78 149L78 150C77 148 77 145 77 143 77 131 77 118 77 106Z"/><path fill="#004272" d="M78 107C86 107 94 107 102 107 102 121 101 135 102 149 94 149 86 149 78 149 78 135 78 121 78 107Z"/><path fill="#004272" d="M104 107C112 107 120 107 128 107 128 121 128 135 128 149 120 149 112 149 104 149 104 135 104 121 104 107Z"/><path fill="#004272" d="M130 107C131 107 132 107 133 107 135 110 138 113 142 113 146 113 149 110 151 107 152 107 153 107 154 107 154 121 154 135 154 149 146 149 138 149 130 149 130 135 130 121 130 107Z"/><path fill="#004272" d="M139 107C141 107 143 107 145 107 145 108 144 109 144 109 143 109 141 109 140 109 140 109 139 108 139 107Z"/><path fill="#004272" d="M156 107C159 107 162 107 164 109 167 111 170 109 172 109 172 111 171 113 171 116 168 114 165 111 162 112 162 114 163 117 165 118 168 120 172 119 174 117 177 114 177 110 177 107 178 107 179 107 180 107 180 121 180 135 180 149 179 149 178 149 177 149 177 144 177 139 174 135 171 132 167 132 164 135 161 139 161 144 161 149 159 149 158 149 156 149 156 135 156 121 156 107Z"/><path fill="#ffffff" d="M87 119C90 118 94 119 96 121 99 127 99 134 96 140 95 144 90 145 87 143 83 142 83 139 82 136 82 131 82 126 84 122 84 120 86 120 87 119Z"/><path fill="#ffffff" d="M108 127C108 122 112 118 117 119 123 119 125 127 122 131 119 134 116 136 114 139 117 139 120 139 123 139 123 141 123 142 123 144 118 144 112 144 107 144 108 140 110 136 113 134 115 131 119 128 118 124 117 123 115 123 114 123 114 124 113 126 113 127 111 127 109 127 108 127Z"/><path fill="#ffffff" d="M134 122C139 122 145 122 150 122 150 124 150 125 150 127 145 132 142 140 142 147 140 147 139 147 137 147 137 140 141 133 144 127 141 127 137 127 134 127 134 125 134 124 134 122Z"/><path fill="#004272" d="M87 125C88 124 89 124 90 123 91 124 92 124 93 125 93 129 93 134 93 138 92 139 91 139 90 140 89 139 88 139 87 138 87 134 87 129 87 125Z"/><path fill="#ffffff" d="M164 135C167 132 171 132 174 135 177 139 177 144 177 149L177 150C175 150 174 150 172 150L172 149C172 145 173 139 169 136 165 139 166 145 166 149L166 150C164 150 163 150 161 150L161 149C161 144 161 139 164 135Z"/><path fill="#004272" d="M166 149C166 145 165 139 169 136 173 139 172 145 172 149 170 149 168 149 166 149Z"/><path fill="#006aad" d="M190 203C193 194 200 187 203 178 205 187 211 195 215 203 218 212 210 221 201 220 193 220 188 210 190 203Z"/><path fill="#ffffff" d="M192 210C190 205 193 199 196 195 195 200 193 204 193 209 194 213 197 215 200 217 197 216 193 214 192 210Z"/></svg>