<?xml version="1.0" encoding="utf-8"?>
<!-- Generator: Adobe Illustrator 19.1.0, SVG Export Plug-In . SVG Version: 6.00 Build 0)  -->
<!DOCTYPE svg PUBLIC "-//W3C//DTD SVG 1.1//EN" "http://www.w3.org/Graphics/SVG/1.1/DTD/svg11.dtd">
<svg version="1.1"
	 id="svg2" xmlns:inkscape="http://www.inkscape.org/namespaces/inkscape" xmlns:cc="http://creativecommons.org/ns#" xmlns:svg="http://www.w3.org/2000/svg" xmlns:dc="http://purl.org/dc/elements/1.1/" xmlns:rdf="http://www.w3.org/1999/02/22-rdf-syntax-ns#" xmlns:sodipodi="http://sodipodi.sourceforge.net/DTD/sodipodi-0.dtd" sodipodi:docname="telco-event-notification.svg" inkscape:version="0.91 r13725"
	 xmlns="http://www.w3.org/2000/svg" xmlns:xlink="http://www.w3.org/1999/xlink" x="0px" y="0px" viewBox="-411 298 256 256"
	 style="enable-background:new -411 298 256 256;" xml:space="preserve">
<style type="text/css">
	.st0{fill:url(#SVGID_1_);stroke:#015491;stroke-width:2;stroke-miterlimit:10;}
	.st1{fill:#006BAF;}
	.st2{fill:url(#SVGID_2_);stroke:#015491;stroke-width:2;stroke-miterlimit:10;}
	.st3{fill:#FFFFFF;}
</style>
<sodipodi:namedview  id="namedview26" inkscape:cx="160" pagecolor="#ffffff" bordercolor="#666666" objecttolerance="10" borderopacity="1" guidetolerance="10" inkscape:zoom="0.7375" inkscape:cy="160" showgrid="false" gridtolerance="10" inkscape:pageopacity="0" inkscape:pageshadow="2" inkscape:window-height="480" inkscape:window-x="0" inkscape:window-y="0" inkscape:window-maximized="0" inkscape:current-layer="svg2" inkscape:window-width="640">
	</sodipodi:namedview>
<g id="image">
</g>
<g>
	<linearGradient id="SVGID_1_" gradientUnits="userSpaceOnUse" x1="-364.0691" y1="357.1021" x2="-208.739" y2="357.1021">
		<stop  offset="0" style="stop-color:#0081D4"/>
		<stop  offset="1" style="stop-color:#0068AA"/>
	</linearGradient>
	<rect x="-364.1" y="339.7" class="st0" width="155.3" height="34.9"/>
	<polygon class="st1" points="-248,423.7 -262.9,427.8 -262.9,408.1 -248,408.1 	"/>
	<rect x="-334.6" y="430.3" class="st1" width="17.8" height="43.4"/>
	<polygon class="st1" points="-208.6,386.2 -352.2,386.2 -364.1,386.2 -364.1,494.9 -364.1,494.9 -364.1,494.9 -356,494.9 
		-352.7,494.9 -283.7,495 -288.4,483.2 -288.5,483.2 -288.5,483.1 -322.2,483.1 -352.2,483 -352.2,440.3 -352.2,397.7 -221,397.7 
		-221,427.8 -208.8,437.3 -208.8,427.8 -208.7,427.8 -208.7,397.2 -208.6,397.2 	"/>
	<path class="st1" d="M-284.8,448.7l-15.8,0.1v25.8c0,0,9.9,0,10.4,0C-290.3,465.7-288.4,456.8-284.8,448.7z"/>
	<g>
		<linearGradient id="SVGID_2_" gradientUnits="userSpaceOnUse" x1="-283.958" y1="471.305" x2="-201.8809" y2="471.305">
			<stop  offset="0" style="stop-color:#0081D4"/>
			<stop  offset="1" style="stop-color:#0068AA"/>
		</linearGradient>
		<circle class="st2" cx="-242.9" cy="471.3" r="41"/>
		<path id="path18_1_" class="st3" d="M-243.8,440.4c1.3-0.1,2.8,0.7,3.2,2c0.8,13.2,2.7,25.5,2.7,25.5s6.9,8.3,13.6,16.2
			c0.1,2.1-1.6,3.9-3.6,4.2l-14.4-11c-2-1-4.4-1.5-6-3.2c-1.3-1.9-0.3-4.3,0.1-6.4l1.5-24.7C-246.7,441.5-245.3,440.5-243.8,440.4z"
			/>
	</g>
</g>
</svg>
