<?xml version="1.0" encoding="utf-8"?>
<!-- Generator: Adobe Illustrator 19.1.0, SVG Export Plug-In . SVG Version: 6.00 Build 0)  -->
<!DOCTYPE svg PUBLIC "-//W3C//DTD SVG 1.1//EN" "http://www.w3.org/Graphics/SVG/1.1/DTD/svg11.dtd">
<svg version="1.1"
	 id="svg2" xmlns:inkscape="http://www.inkscape.org/namespaces/inkscape" xmlns:cc="http://creativecommons.org/ns#" xmlns:svg="http://www.w3.org/2000/svg" xmlns:dc="http://purl.org/dc/elements/1.1/" xmlns:rdf="http://www.w3.org/1999/02/22-rdf-syntax-ns#" xmlns:sodipodi="http://sodipodi.sourceforge.net/DTD/sodipodi-0.dtd" sodipodi:docname="telco-maintenance-management.svg" inkscape:version="0.91 r13725"
	 xmlns="http://www.w3.org/2000/svg" xmlns:xlink="http://www.w3.org/1999/xlink" x="0px" y="0px" viewBox="-411 298 256 256"
	 style="enable-background:new -411 298 256 256;" xml:space="preserve">
<style type="text/css">
	.st0{fill:#0056A1;}
	.st1{fill:#FFFFFF;}
</style>
<sodipodi:namedview  id="namedview18" inkscape:cx="160" pagecolor="#ffffff" bordercolor="#666666" objecttolerance="10" borderopacity="1" guidetolerance="10" inkscape:zoom="0.7375" inkscape:cy="160" showgrid="false" gridtolerance="10" inkscape:pageopacity="0" inkscape:pageshadow="2" inkscape:window-height="480" inkscape:window-x="0" inkscape:window-y="0" inkscape:window-maximized="0" inkscape:current-layer="svg2" inkscape:window-width="640">
	</sodipodi:namedview>
<g>
	<g>
		<path class="st0" d="M-325,410.9c1.7-1.7,8-2,9.8,0c0-8.7,0.1-22.8,0.3-31.5c1.1-2.8,3.2-5,4.6-7.6c-2-8.7-3.8-17.4-5.6-26.2
			c-2.7,0-5.3,0-8-0.1c-2,8.9-3.8,17.8-5.6,26.6c1.4,2.2,3.2,4.3,4.4,6.7C-324.8,387.6-325.3,402.1-325,410.9z"/>
		<path class="st0" d="M-334,495c-0.1,9,10.1,15.6,18.3,12.5c5.6-1.8,9.8-7.4,9.5-13.3c0-23.6,0.2-47.2,0-70.8
			c-0.5-9-11.1-15-19.2-11.4c-5.3,2.1-8.9,7.6-8.6,13.3C-333.9,448.5-334.1,471.7-334,495z M-315.8,446.2c0.7,0,2.2,0,3,0
			c0,16.9,0,33.9,0,50.8c-0.7,0-2.2,0-3,0C-315.8,480.1-315.8,463.2-315.8,446.2z M-325.9,446.2c0.7,0,2.2,0,3,0
			c0,16.9,0,33.9,0,50.8c-0.7,0-2.2,0-3,0C-325.9,480.1-325.9,463.2-325.9,446.2z"/>
		<path class="st1" d="M-312.8,446.2c-0.7,0-2.2,0-3,0c0,16.9,0,33.9,0,50.8c0.7,0,2.2,0,3,0C-312.8,480.1-312.8,463.2-312.8,446.2z
			"/>
		<path class="st1" d="M-322.9,446.2c-0.7,0-2.2,0-3,0c0,16.9,0,33.9,0,50.8c0.7,0,2.2,0,3,0C-322.9,480.1-322.9,463.2-322.9,446.2z
			"/>
	</g>
	<g>
		<path class="st0" d="M-232.6,366c-1.9-10.2-9.3-18.9-18.8-22.9c-0.1,9.1,0.1,18.3-0.1,27.4c0,3.4-3.1,6.2-6.4,6
			c-4,0.1-8,0.1-12.1,0c-3.2,0.1-6.3-2.7-6.2-5.9c-0.1-9,0-18-0.1-27c-10.8,4.9-18.3,16.1-18.4,27.9c-0.3,10.1,4.8,20.1,12.9,26.1
			c-0.4,30.5,0,61-0.2,91.5c-0.2,7.7,4.1,15.5,11.3,18.5c5.7,2.6,12.8,1.4,17.5-2.6c4.6-3.8,7.1-9.8,7-15.7c0-30.3,0.1-60.6,0-90.9
			C-235.7,391.4-230,378.2-232.6,366z M-263.9,499.4c-4.7,0-8.4-3.8-8.4-8.4c0-4.7,3.8-8.4,8.4-8.4c4.7,0,8.4,3.8,8.4,8.4
			C-255.4,495.6-259.2,499.4-263.9,499.4z"/>
		<circle class="st1" cx="-263.9" cy="491" r="8.4"/>
	</g>
</g>
</svg>
