<?xml version="1.0" encoding="utf-8"?>
<!-- Generator: Adobe Illustrator 19.1.0, SVG Export Plug-In . SVG Version: 6.00 Build 0)  -->
<!DOCTYPE svg PUBLIC "-//W3C//DTD SVG 1.1//EN" "http://www.w3.org/Graphics/SVG/1.1/DTD/svg11.dtd">
<svg version="1.1"
	 id="svg2" xmlns:inkscape="http://www.inkscape.org/namespaces/inkscape" xmlns:cc="http://creativecommons.org/ns#" xmlns:svg="http://www.w3.org/2000/svg" xmlns:dc="http://purl.org/dc/elements/1.1/" xmlns:rdf="http://www.w3.org/1999/02/22-rdf-syntax-ns#" xmlns:sodipodi="http://sodipodi.sourceforge.net/DTD/sodipodi-0.dtd" sodipodi:docname="telco-contract-management.svg" inkscape:version="0.91 r13725"
	 xmlns="http://www.w3.org/2000/svg" xmlns:xlink="http://www.w3.org/1999/xlink" x="0px" y="0px" viewBox="-411 298 256 256"
	 style="enable-background:new -411 298 256 256;" xml:space="preserve">
<style type="text/css">
	.st0{fill:url(#SVGID_1_);}
	.st1{fill:none;stroke:#015491;stroke-width:2;stroke-miterlimit:10;}
	.st2{fill:#FFFFFF;}
	.st3{fill:#015491;}
	.st4{fill:#195191;}
</style>
<sodipodi:namedview  id="namedview36" inkscape:cx="160" pagecolor="#ffffff" bordercolor="#666666" objecttolerance="10" borderopacity="1" guidetolerance="10" inkscape:zoom="0.7375" inkscape:cy="160" showgrid="false" gridtolerance="10" inkscape:pageopacity="0" inkscape:pageshadow="2" inkscape:window-height="480" inkscape:window-x="0" inkscape:window-y="0" inkscape:window-maximized="0" inkscape:current-layer="svg2" inkscape:window-width="640">
	</sodipodi:namedview>
<g>
	<g>
		<g>
			
				<radialGradient id="SVGID_1_" cx="-294.2" cy="427.95" r="62.3772" gradientTransform="matrix(1 0 0 -1 0 854)" gradientUnits="userSpaceOnUse">
				<stop  offset="0" style="stop-color:#0081D4"/>
				<stop  offset="1" style="stop-color:#0068AA"/>
			</radialGradient>
			<path class="st0" d="M-285.9,390.3c0-1.8-0.3-46.6-0.3-46.6c0-2.7-2.3-5-5-5h-61.7c-2.8,0-5,2.2-5,5v164.7c0,2.8,2.2,5,5,5h117.3
				c2.8,0,5-2.2,5-5V403.1c0-2.8-2.2-5-5-5c0,0-35.1,0-41.6,0S-285.9,392.1-285.9,390.3z"/>
			<path class="st1" d="M-282.9,390.3c0-1.8,1.7-46.6,1.7-46.6c0-2.7-5.3-5-8-5h-63.7c-2.8,0-5,2.2-5,5v164.7c0,2.8,2.2,5,5,5h117.3
				c2.8,0,5-2.2,5-5V397.1c0-2.8-2.2-5-5-5c0,0-32.1,0-38.6,0S-282.9,392.1-282.9,390.3z"/>
		</g>
		<rect x="-324.9" y="363.5" class="st2" width="53.5" height="8"/>
		<rect x="-341.2" y="384.2" class="st2" width="83.7" height="4.5"/>
		<rect x="-341.2" y="397.7" class="st2" width="83.7" height="4.6"/>
		<rect x="-341.2" y="411.7" class="st2" width="83.7" height="4.5"/>
		<rect x="-341.2" y="425.8" class="st2" width="83.7" height="4.5"/>
		<path class="st3" d="M-231.1,393.8l-50.9-53.9l-6.1-1.3c0,0,0.3,50.6,0.3,52.5c0,1.8,3.4,8.9,9.9,8.9c6.5,0,47.4,0,47.4,0
			L-231.1,393.8z"/>
	</g>
	<path class="st2" d="M-286.1,492.9c0.5,0.5,1,0.7,1.5,0.7c1.4,0,2.9-1.2,4-2.1l5.4-4.2c0.7-0.2,1.4-0.4,2-0.7
		c0.3,0.1,0.5,0.3,0.8,0.5l1.5,1l2.2-3.4l-1.5-1c0-0.1-0.1-0.1-0.1-0.1c0.6-1.6,0.4-3.5-0.7-5.3c-1.5-2.6-5-5.2-8.5-4.9
		c-2.6,0.2-3.8,1.5-4.3,2.6c-1.1,2.4,0.4,5.6,1.5,7.3c-0.1,0.1-0.1,0.2-0.2,0.3c-0.5,0-1-0.1-1.6-0.2c-6-0.7-7.1-2-7.4-2.4
		c-0.3-0.6,0.3-1.8,0.7-2.9c0.7-1.5,1.6-3.5,0.5-5.3c-1.1-1.8-3.5-2.3-5.5-2.4c-4.1-0.3-5.9,1.3-6.8,2.7c-3.1,5.3,3.6,15.8,5,17.9
		l3.3-2.2c-2.8-4.2-6.2-11.3-4.9-13.7c0.4-0.8,1.9-0.8,3-0.7c1.6,0.1,2.2,0.4,2.3,0.3c0,0.4-0.4,1.2-0.6,1.7
		c-0.8,1.8-1.9,4.2-0.6,6.5c1.2,2.3,4.3,3.6,9.8,4.4C-287.6,491.4-286.9,492.1-286.1,492.9L-286.1,492.9z"/>
	<path class="st4" d="M-280,477.5c0,0,0.2-0.2,0.9-0.2c0.1,0,0.1,0,0.2,0c1.5,0,3.5,1.4,4.5,3c0.1,0.3,0.4,0.7,0.4,1.2l-0.3-0.2
		l-2.6,2.1c-0.2,0-0.3,0-0.5,0.1l0.1-0.2l-0.9-1.2C-279.5,480.3-280.3,478-280,477.5L-280,477.5z"/>
	<path class="st2" d="M-278.6,499.7l-3.3-2.3c0.3-0.4,6.4-8.8,16.9-7.9l-0.4,4C-273.6,492.8-278.5,499.7-278.6,499.7L-278.6,499.7z"
		/>
	<polygon class="st2" points="-262.8,493.9 -262.3,489.8 -258.3,490.3 -258.8,494.3 	"/>
	
		<rect x="-218.8" y="398.2" transform="matrix(0.7086 -0.7056 0.7056 0.7086 -351.4155 -31.0765)" class="st4" width="11" height="23.5"/>
	<polygon class="st4" points="-227.3,407.3 -210.7,423.9 -248.5,461.7 -265.1,445.1 	"/>
	<polygon class="st4" points="-253.1,466.4 -274.4,471.1 -269.8,449.8 -268,448 -251.3,464.6 	"/>
	<path class="st4" d="M-255.6,466.8"/>
</g>
</svg>
