<?xml version="1.0" encoding="utf-8"?>
<!-- Generator: Adobe Illustrator 19.1.0, SVG Export Plug-In . SVG Version: 6.00 Build 0)  -->
<!DOCTYPE svg PUBLIC "-//W3C//DTD SVG 1.1//EN" "http://www.w3.org/Graphics/SVG/1.1/DTD/svg11.dtd">
<svg version="1.1"
	 id="svg2" xmlns:inkscape="http://www.inkscape.org/namespaces/inkscape" xmlns:cc="http://creativecommons.org/ns#" xmlns:svg="http://www.w3.org/2000/svg" xmlns:dc="http://purl.org/dc/elements/1.1/" xmlns:rdf="http://www.w3.org/1999/02/22-rdf-syntax-ns#" xmlns:sodipodi="http://sodipodi.sourceforge.net/DTD/sodipodi-0.dtd" sodipodi:docname="telco-performance-management.svg" inkscape:version="0.91 r13725"
	 xmlns="http://www.w3.org/2000/svg" xmlns:xlink="http://www.w3.org/1999/xlink" x="0px" y="0px" viewBox="-411 298 256 256"
	 style="enable-background:new -411 298 256 256;" xml:space="preserve">
<style type="text/css">
	.st0{fill:#0070B9;}
	.st1{fill:#FFFFFF;}
</style>
<sodipodi:namedview  id="namedview20" inkscape:cx="160" pagecolor="#ffffff" bordercolor="#666666" objecttolerance="10" borderopacity="1" guidetolerance="10" inkscape:zoom="0.7375" inkscape:cy="160" showgrid="false" gridtolerance="10" inkscape:pageopacity="0" inkscape:pageshadow="2" inkscape:window-height="480" inkscape:window-x="0" inkscape:window-y="0" inkscape:window-maximized="0" inkscape:current-layer="svg2" inkscape:window-width="640">
	</sodipodi:namedview>
<g>
	<circle class="st0" cx="-254.3" cy="472.4" r="41"/>
	<path id="path6" class="st0" d="M-308.5,341.7c4.2-4.1,11.6-4,15.7,0.2c3.2,2.9,3.3,7.4,3.8,11.4c9.4,2.3,20.7,5.9,23.9,16.3h-71.6
		c1.3-2.8,2.7-5.8,5.1-7.9c5.3-4.6,12.2-6.5,18.8-8.4C-312,349.3-311.8,344.6-308.5,341.7z"/>
	<path id="path8" class="st1" d="M-303,346c2.8-1.6,6.9,0.4,6.8,3.8c0.5,3.9-4.9,5.9-7.6,3.4C-306.3,351.5-305.7,347.2-303,346z"/>
	<path id="path10" class="st0" d="M-351.2,364.8c3.1-2.5,11-1.5,11-1.5l0.4,10l78.1,0.1l0.4-10.1c0,0,7.8-0.6,11.4,0.6
		c3,1.2,2.4,5.1,2.6,7.7l-0.1,55c-6.3-0.3-12.8-0.5-18.9,1.2c-12.8,3.3-23.9,12.4-29.7,24.3c-6.1,12-6.3,26.7-0.9,39
		c2.6,6.4,7.2,11.5,11.8,16.6l-58.4,0.1c-2.3-0.1-4.9,0.2-7-1.1c-2-1.2-1.9-3.9-2-5.9c0-42.4-0.1-127.1-0.1-127.1
		C-352.3,370.7-353,367.4-351.2,364.8z"/>
	<path id="path12" class="st1" d="M-323,414.7l18.5-16.9l5.2,5.4l-23.3,22.6l-14.5-13.5l5.5-5.7L-323,414.7z"/>
	<path id="path16" class="st1" d="M-305,437.5l5.8,5.8l-23.5,23.1l-14.4-14l5.5-5.7l8.5,8L-305,437.5z"/>
	<path id="path18" class="st1" d="M-255.2,441.1c1.3-0.1,2.8,0.7,3.2,2c0.8,13.2,2.7,25.5,2.7,25.5s6.9,8.3,13.6,16.2
		c0.1,2.1-1.6,3.9-3.6,4.2l-14.4-11c-2-1-4.4-1.5-6-3.2c-1.3-1.9-0.3-4.3,0.1-6.4l1.5-24.7C-258.1,442.2-256.8,441.2-255.2,441.1z"
		/>
</g>
</svg>
