<svg xmlns:dc="http://purl.org/dc/elements/1.1/" xmlns:cc="http://creativecommons.org/ns#" xmlns:rdf="http://www.w3.org/1999/02/22-rdf-syntax-ns#" xmlns:svg="http://www.w3.org/2000/svg" xmlns="http://www.w3.org/2000/svg" xmlns:sodipodi="http://sodipodi.sourceforge.net/DTD/sodipodi-0.dtd" xmlns:inkscape="http://www.inkscape.org/namespaces/inkscape" width="256" height="256" viewBox="0 0 256 256" version="1.1" inkscape:version="0.9" sodipodi:docname="telecommunication-mtn.svg"><metadata><rdf:RDF><cc:Work rdf:about=""><dc:format>image/svg+xml</dc:format><dc:type rdf:resource="http://purl.org/dc/dcmitype/StillImage"/></cc:Work></rdf:RDF></metadata><defs><filter inkscape:label="Light Eraser" color-interpolation-filters="sRGB"><feColorMatrix values="1" result="colormatrix"/><feComposite in2="colormatrix" operator="arithmetic" k2="1" result="composite"/></filter></defs><sodipodi:namedview pagecolor="#ffffff" bordercolor="#666666" borderopacity="1" objecttolerance="10" gridtolerance="10" guidetolerance="10" inkscape:pageopacity="0" inkscape:pageshadow="2" inkscape:window-width="640" inkscape:window-height="480" showgrid="false" inkscape:zoom="0.7" inkscape:cx="160" inkscape:cy="160" inkscape:window-x="0" inkscape:window-y="0" inkscape:window-maximized="0" inkscape:current-layer="svg2"/><path fill="#0076c3" d="M77.4 40.6C79.8 39.7 81.3 43.3 80.2 45.1 78.3 48.2 75.3 50.5 73.3 53.5 69.2 59.4 68.4 66.9 68.7 73.9 68.9 79.6 70.3 85.5 73.7 90.2 75.8 93.1 78.7 95.3 80.7 98.3 81.7 99.8 80.7 102.8 78.5 102.4 74.2 101.6 71.1 98 68.6 94.6 61.1 83.5 60.3 68.8 64.4 56.2 66.7 49.8 70.6 42.9 77.4 40.6Z"/><path fill="#0076c3" d="M177.3 40.4C181 40.6 183.8 43.4 186 46 191.7 53 193.9 62.2 194 71 194.1 80.3 191.6 90.1 185.4 97.3 183.1 99.7 180.4 102.2 176.9 102.4 174.7 102.2 174.4 98.9 175.8 97.5 178.6 94 182.2 91.2 184.2 87.1 187.9 79.4 188 70.3 186.4 62 185.3 56 181.3 51.2 177.1 47 175.1 45.3 174.8 41.8 177.3 40.4Z"/><path fill="#0076c3" d="M85.5 49.6C87.7 48.4 90.5 49.8 91.1 52.1 90 54.6 88 56.4 86.4 58.5 80.8 65 80.2 75.5 85.4 82.5 87.2 85 89.8 87 91.1 89.9 90.6 92.2 88.4 93.9 86.1 92.8 82.1 91.1 79.5 87.2 77.7 83.4 73.6 74.6 74.4 63.8 79.5 55.5 81 53.1 82.9 50.8 85.5 49.6Z"/><path fill="#0076c3" d="M167.4 49.4C170.1 48.5 172.6 50.7 174.4 52.6 183.3 63 183.3 80.5 173.5 90.4 171.6 92.4 167.4 94.7 165.6 91.5 163.8 89.1 167.1 87 168.3 85.3 174 79.9 175.6 71.3 172.9 64.1 171.5 59.9 168 57 165.6 53.5 164.2 52 165.8 49.9 167.4 49.4Z"/><path fill="#0076c3" d="M102 57C115.5 52.8 130 52.4 143.9 54.5 152.4 56.1 161.3 58.2 167.7 64.3 170.7 67 171.6 71.8 169.1 75.1 166 79.3 161 81.7 156.2 83.5 148 86.4 139.2 87.5 130.5 87.8 130.5 88.6 130.5 90.2 130.5 91 132.3 91 134.2 91 136.1 91 136.4 109.6 140.6 128 146.3 145.6 154.3 170 166.1 193 179.8 214.6 170.9 215 161.9 214.9 152.9 215.1 148.1 206.2 143.6 197.1 138.8 188.2 131.4 188.3 124 188.1 116.6 188.3 112.1 197.2 107.2 206 102.7 215 93.7 215 84.7 215 75.7 215 100.9 178.5 116.7 135.3 120 91 121.8 91 123.7 91 125.6 91 125.6 90.2 125.5 88.6 125.5 87.8 113.9 87.3 101.7 85.7 91.7 79.4 87.7 77 84.1 72.1 86.4 67.4 89.5 61.6 96.1 58.9 102 57Z"/><path fill="#ffffff" d="M119.6 55.7C132.9 54.8 146.7 55.7 159.1 61 162.7 62.9 166.8 65 168.3 69 169.4 72.7 166.3 75.7 163.6 77.5 155.1 83 145 84.7 135.1 85.5 122.7 86.2 109.8 85.3 98.2 80.5 94.2 78.6 89.5 76.4 87.9 71.9 86.9 67.8 90.8 64.8 93.8 62.8 101.6 58.2 110.7 56.6 119.6 55.7Z"/><path fill="#0076c3" d="M105.8 61.8C108.1 61.8 110.4 61.8 112.7 61.8 112.8 64.9 112.8 68 113 71.1 114.6 68 116.2 64.9 117.9 61.7 120 61.8 122.1 61.8 124.3 61.8 122.9 67.6 121.4 73.3 120 79 118.5 79 117.1 79 115.7 79 116.5 75.7 117.3 72.3 117.9 68.9 116.1 72.2 114.3 75.5 112.6 78.9 111.4 78.9 110.3 79 109.1 79.1 109.1 75.7 109 72.3 108.7 68.9 107.8 72.3 107 75.6 106.1 79 104.5 79 102.8 79 101.1 79 102.7 73.3 104.1 67.5 105.8 61.8Z"/><path fill="#0076c3" d="M141.4 61.8C142.9 61.7 144.5 61.7 146 61.9 147 64.7 147.5 67.6 148.3 70.4 149.2 67.6 150.1 64.7 150.8 61.8 152.3 61.8 153.8 61.8 155.4 61.8 154 67.6 152.4 73.3 151 79 149.4 79 147.7 79 146.1 79 145.5 76.2 144.7 73.5 143.7 70.8 142.9 73.5 142.2 76.2 141.5 78.9 139.9 79 138.3 79 136.7 79.1 138.3 73.3 139.4 67.4 141.4 61.8Z"/><path fill="#0076c3" d="M124.5 66C125 64.6 125.4 63.3 125.9 61.9 130.6 61.6 135.3 61.9 140 61.8 139.5 63.2 139.1 64.7 138.8 66.2 137.3 66.2 135.8 66.2 134.3 66.2 133.5 69.5 132.6 72.7 131.8 76 130 76 128.2 76 126.4 76 127.3 72.7 128.2 69.3 129.2 66 127.6 66 126.1 66 124.5 66Z"/><path fill="#0076c3" d="M126.2 77.1C127.9 77.1 129.6 77 131.3 77 131.1 77.7 130.8 79 130.6 79.6 128.9 79.6 127.2 79.6 125.5 79.6 125.8 78.7 126 77.9 126.2 77.1Z"/><path fill="#ffffff" d="M125 97C127 97 129.1 97 131.2 97 131.2 99.3 131.2 101.7 131.2 104 129.1 104 127 104 125 104 125 101.7 125 99.3 125 97Z"/><path fill="#ffffff" d="M125 110C127 110 129.1 110 131.2 110 131.2 112.3 131.2 114.7 131.2 117 129.1 117 127 117 125 117 125 114.7 125 112.3 125 110Z"/><path fill="#ffffff" d="M122.6 123C126.1 123 129.6 123 133.2 123 133.8 125.3 134.4 127.7 135 130 130.3 130 125.6 130 121 130 121.5 127.7 122 125.3 122.6 123Z"/><path fill="#ffffff" d="M119.1 135.9C124.8 135.9 130.4 135.9 136.1 135.8 137.1 138.2 138 140.6 139 143 131.6 143 124.3 143 116.9 143 117.7 140.6 118.4 138.2 119.1 135.9Z"/><path fill="#ffffff" d="M115 149C123.7 149 132.4 149 141.1 149 141.8 151.3 142.4 153.5 143 155.8 132.9 155.7 122.8 156.2 112.7 156 113.5 153.7 114.3 151.3 115 149Z"/><path fill="#ffffff" d="M110.2 161.9C121.7 161.9 133.2 161.8 144.8 161.9 145.8 164.3 146.8 166.7 147.9 169.2 134.6 168.9 121.3 169 108 168.8 108.8 166.5 109.5 164.2 110.2 161.9Z"/><path fill="#ffffff" d="M104.9 174.9C120.3 174.9 135.6 174.9 150.9 174.9 151.8 177.2 152.8 179.6 153.8 182 136.5 181.9 119.1 182.3 101.8 181.8 102.8 179.5 103.9 177.2 104.9 174.9Z"/><path fill="#ffffff" d="M99 188C102.7 188 106.3 188 110 188 109 190.4 108.2 192.8 106.9 195 103 195.3 99 195.1 95.1 195.1 96.4 192.7 97.7 190.4 99 188Z"/><path fill="#ffffff" d="M146 188C149.6 188 153.3 188 156.9 188 158.3 190.3 159.8 192.7 161.1 195 157.1 195 153.2 195 149.2 195 148.1 192.7 147.1 190.3 146 188Z"/><path fill="#ffffff" d="M91.4 202.1C94.9 202 98.4 202 102 202.2 101.1 204.5 100.1 206.7 99.2 209 95.5 209 91.8 209 88 209 89.1 206.7 90.2 204.4 91.4 202.1Z"/><path fill="#ffffff" d="M154 202C157.6 202 161.1 202 164.7 202.1 165.8 204.4 166.9 206.7 168.1 209 164.4 209 160.7 209 157.1 209 156.1 206.7 155.1 204.3 154 202Z"/></svg>