<?xml version="1.0" encoding="utf-8"?>
<!-- Generator: Adobe Illustrator 19.2.1, SVG Export Plug-In . SVG Version: 6.00 Build 0)  -->
<svg version="1.1" xmlns="http://www.w3.org/2000/svg" xmlns:xlink="http://www.w3.org/1999/xlink" x="0px" y="0px"
	 viewBox="0 0 256 256" enable-background="new 0 0 256 256" xml:space="preserve">
<g id="image">
</g>
<g id="Layer_2">
</g>
<g id="Layer_3">
	<radialGradient id="SVGID_1_" cx="131.0638" cy="152.0041" r="59.1522" gradientUnits="userSpaceOnUse">
		<stop  offset="0.0049" style="stop-color:#0081D4"/>
		<stop  offset="1" style="stop-color:#0068AA"/>
	</radialGradient>
	<path fill="url(#SVGID_1_)" stroke="#005491" stroke-miterlimit="10" d="M182.137,210.701l-34.376-93.432h0.004l-9.152-25.156
		c-2.854-8.444-12.161-7.711-14.816-0.311l-8.553,23.364h-0.057l-35.197,95.535c-0.635,1.674-0.362,3.532,0.633,4.981
		c0.997,1.451,2.674,2.311,4.439,2.311h92c1.767,0,3.444-0.86,4.439-2.311C182.499,214.233,182.771,212.375,182.137,210.701z
		 M124.638,120.94l2.44-6.665c1.453-4.05,6.547-4.452,8.109,0.17l3.466,9.529l13.676,37.126h-42.489L124.638,120.94z
		 M92.855,207.122l12.955-35.152h50.506l12.957,35.152H92.855z"/>
	<g>
		<radialGradient id="SVGID_2_" cx="92.9324" cy="71.7969" r="25.0401" gradientUnits="userSpaceOnUse">
			<stop  offset="0.0049" style="stop-color:#0081D4"/>
			<stop  offset="1" style="stop-color:#0068AA"/>
		</radialGradient>
		<path fill="url(#SVGID_2_)" stroke="#005491" stroke-miterlimit="10" d="M103.944,43.236c0,1.312-0.501,2.604-1.504,3.606
			c-13.751,13.769-13.751,36.139,0,49.909c1.986,1.986,1.986,5.226,0,7.212c-1.987,1.987-5.226,1.987-7.213,0
			c-17.741-17.741-17.741-46.591,0-64.334c1.987-1.986,5.226-1.986,7.213,0C103.443,40.633,103.944,41.944,103.944,43.236
			L103.944,43.236z M103.944,43.236"/>
		<radialGradient id="SVGID_3_" cx="111.5747" cy="71.7966" r="15.1744" gradientUnits="userSpaceOnUse">
			<stop  offset="0.0049" style="stop-color:#0081D4"/>
			<stop  offset="1" style="stop-color:#0068AA"/>
		</radialGradient>
		<path fill="url(#SVGID_3_)" stroke="#005491" stroke-miterlimit="10" d="M119.732,57.045c0,1.311-0.501,2.602-1.504,3.606
			c-2.97,2.97-4.609,6.942-4.609,11.147c0,4.203,1.639,8.176,4.609,11.146c1.986,1.987,1.986,5.226,0,7.213
			c-1.987,1.986-5.226,1.986-7.213,0c-4.899-4.898-7.598-11.416-7.598-18.359c0-6.943,2.7-13.461,7.618-18.359
			c1.986-1.987,5.226-1.987,7.212,0C119.231,54.421,119.732,55.733,119.732,57.045L119.732,57.045z M119.732,57.045"/>
		<radialGradient id="SVGID_4_" cx="168.7208" cy="71.7969" r="25.0401" gradientUnits="userSpaceOnUse">
			<stop  offset="0.0049" style="stop-color:#0081D4"/>
			<stop  offset="1" style="stop-color:#0068AA"/>
		</radialGradient>
		<path fill="url(#SVGID_4_)" stroke="#005491" stroke-miterlimit="10" d="M157.709,43.236c0-1.292,0.501-2.603,1.504-3.606
			c1.987-1.986,5.226-1.986,7.213,0c17.741,17.742,17.741,46.592,0,64.334c-1.987,1.987-5.226,1.987-7.213,0
			c-1.986-1.986-1.986-5.226,0-7.212c13.751-13.77,13.751-36.14,0-49.909C158.21,45.84,157.709,44.548,157.709,43.236
			L157.709,43.236z M157.709,43.236"/>
		<radialGradient id="SVGID_5_" cx="150.0785" cy="71.7966" r="15.1744" gradientUnits="userSpaceOnUse">
			<stop  offset="0.0049" style="stop-color:#0081D4"/>
			<stop  offset="1" style="stop-color:#0068AA"/>
		</radialGradient>
		<path fill="url(#SVGID_5_)" stroke="#005491" stroke-miterlimit="10" d="M141.921,57.045c0-1.312,0.501-2.623,1.485-3.606
			c1.986-1.987,5.226-1.987,7.212,0c4.918,4.898,7.618,11.416,7.618,18.359c0,6.943-2.7,13.461-7.598,18.359
			c-1.987,1.986-5.226,1.986-7.213,0c-1.986-1.987-1.986-5.226,0-7.213c2.97-2.97,4.609-6.943,4.609-11.146
			c0-4.205-1.639-8.177-4.609-11.147C142.422,59.647,141.921,58.355,141.921,57.045L141.921,57.045z M141.921,57.045"/>
		<radialGradient id="SVGID_6_" cx="131.4583" cy="71.4216" r="7.1825" gradientUnits="userSpaceOnUse">
			<stop  offset="0.0049" style="stop-color:#0081D4"/>
			<stop  offset="1" style="stop-color:#0068AA"/>
		</radialGradient>
		<path fill="url(#SVGID_6_)" stroke="#005491" stroke-miterlimit="10" d="M131.459,64.239c3.966,0,7.182,3.216,7.182,7.183
			c0,3.967-3.216,7.182-7.182,7.182c-3.967,0-7.183-3.215-7.183-7.182C124.276,67.455,127.492,64.239,131.459,64.239L131.459,64.239
			z M131.459,64.239"/>
	</g>
</g>
</svg>
