<?xml version="1.0" encoding="utf-8"?>
<!-- Generator: Adobe Illustrator 20.0.0, SVG Export Plug-In . SVG Version: 6.00 Build 0)  -->
<svg version="1.1" xmlns="http://www.w3.org/2000/svg" xmlns:xlink="http://www.w3.org/1999/xlink" x="0px" y="0px"
	 viewBox="0 0 256 256" enable-background="new 0 0 256 256" xml:space="preserve">
<g id="image">
</g>
<g id="Layer_2">
</g>
<g id="Layer_3">
</g>
<g id="Layer_4">
</g>
<g id="Layer_5">
</g>
<g id="Layer_6">
	<g>
		<g>
			<rect x="110.2" y="49.6" fill="#005491" width="5.7" height="12.2"/>
			<g>
				<radialGradient id="SVGID_1_" cx="62.5932" cy="61.9727" r="22.44" gradientUnits="userSpaceOnUse">
					<stop  offset="0" style="stop-color:#0081D4"/>
					<stop  offset="1" style="stop-color:#0068AA"/>
				</radialGradient>
				<path fill="url(#SVGID_1_)" stroke="#015491" stroke-width="2" stroke-miterlimit="10" d="M87.1,54.2c-7.8-12.4-24-16-36.4-8.4
					s-16.3,23.8-8.8,36.4L87.1,54.2z"/>
				<radialGradient id="SVGID_2_" cx="163.4079" cy="61.9727" r="22.44" gradientUnits="userSpaceOnUse">
					<stop  offset="0" style="stop-color:#0081D4"/>
					<stop  offset="1" style="stop-color:#0068AA"/>
				</radialGradient>
				<path fill="url(#SVGID_2_)" stroke="#015491" stroke-width="2" stroke-miterlimit="10" d="M138.9,54.2c7.8-12.4,24-16,36.4-8.4
					c12.4,7.7,16.3,23.8,8.8,36.4L138.9,54.2z"/>
			</g>
			<radialGradient id="SVGID_3_" cx="113.0005" cy="137.0595" r="77.1423" gradientUnits="userSpaceOnUse">
				<stop  offset="0" style="stop-color:#0081D4"/>
				<stop  offset="0.5353" style="stop-color:#0080D2"/>
				<stop  offset="0.7282" style="stop-color:#007CCB"/>
				<stop  offset="0.8651" style="stop-color:#0075C0"/>
				<stop  offset="0.9756" style="stop-color:#006BAF"/>
				<stop  offset="1" style="stop-color:#0068AA"/>
			</radialGradient>
			<circle fill="url(#SVGID_3_)" stroke="#015491" stroke-width="2" stroke-miterlimit="10" cx="113" cy="137.1" r="77.1"/>
			<circle fill="#FFFFFF" stroke="#005491" stroke-miterlimit="10" cx="113" cy="137.1" r="61.4"/>
			<path fill="#005491" d="M113,142.9H79.7c-3.2,0-5.9-2.6-5.9-5.9c0-3.2,2.6-5.9,5.9-5.9h27.4V87.3c0-3.2,2.6-5.9,5.9-5.9
				c3.2,0,5.9,2.6,5.9,5.9v49.8C118.9,140.3,116.2,142.9,113,142.9z"/>
			<circle fill="#005491" cx="113" cy="137.1" r="14.1"/>
			<circle fill="#FFFFFF" cx="113" cy="137.1" r="6.5"/>
			<path fill="#005491" d="M123,44.3h-20c-2.2,0-4.1,1.8-4.1,4.1c0,2.2,1.8,4.1,4.1,4.1h20c2.2,0,4.1-1.8,4.1-4.1
				C127.1,46.1,125.4,44.3,123,44.3z"/>
		</g>
		<g>
			<polygon fill="#FFFFFF" points="127.5,139.4 133.4,137.1 136.9,134.3 143.3,136.8 148.2,137.4 154,140.8 155.4,134.3 
				155.4,123.7 157.3,116.6 161,109.5 168.4,108.1 174,108.1 181.8,109.8 187.9,113.3 187.9,120.5 187.9,156.8 190.7,152.4 
				194.9,149.2 202.8,148.1 209,150.2 213.2,151.6 216.9,155.1 218.8,163.6 220,208.8 214,215.3 204.4,215.3 194,214.4 188.7,210.4 
				186.8,208.4 181.8,214.4 171.4,214.4 158.6,214.4 154,207.3 148.5,215.3 141.9,215.3 127.5,214.4 124.3,208.4 124.3,189.5 
				124.3,149.2 124.3,144.5 			"/>
			<g>
				<path fill="#015491" d="M164.6,120.6c1.8,0.7,4.2,1.1,6.8,1.1c2.5,0,4.9-0.4,6.8-1.1c3.1-1.2,3.6-3,3.6-4c0-0.9-0.7-1.6-1.6-1.6
					c-0.9,0-1.6,0.7-1.6,1.6c-0.2,0.6-2.6,1.9-7.1,1.9c-4.4,0-6.7-1.3-7.1-1.9c0.3-0.6,2.7-1.9,7.1-1.9c0.9,0,1.6-0.7,1.6-1.6
					c0-0.9-0.7-1.6-1.6-1.6c-2.5,0-4.9,0.4-6.8,1.1c-3.1,1.2-3.6,3-3.6,4C161,117.5,161.5,119.3,164.6,120.6L164.6,120.6z"/>
				<path fill="#015491" d="M202.8,148.1c-5.9,0-10.9,1.7-14.1,4.2v-35.8c0-5.8-7.6-10.4-17.3-10.4s-17.3,4.6-17.3,10.4v21.8
					c-3.1-2.6-8.2-4.2-14.1-4.2c-9.7,0-17.3,4.6-17.3,10.4v62.8c0,5.8,7.6,10.4,17.3,10.4c7,0,13-2.4,15.7-5.9
					c2.7,3.5,8.7,5.9,15.7,5.9s13-2.4,15.7-5.9c2.7,3.5,8.7,5.9,15.7,5.9c0.3,0,0.6,0,0.9,0c0,0,0,0,0,0c3.9-0.1,7.5-1,10.2-2.4
					c0.1-0.1,0.3-0.1,0.4-0.2c0.1,0,0.1-0.1,0.2-0.1c0.2-0.1,0.3-0.2,0.5-0.3c0,0,0.1,0,0.1-0.1c0.2-0.1,0.3-0.2,0.5-0.3
					c0,0,0,0,0,0c0.2-0.1,0.3-0.2,0.5-0.4c0,0,0,0,0.1,0c0.2-0.1,0.3-0.2,0.5-0.3c0,0,0,0,0.1-0.1c0.1-0.1,0.3-0.2,0.4-0.4
					c0,0,0.1,0,0.1-0.1c0.1-0.1,0.2-0.2,0.4-0.3c0,0,0.1-0.1,0.1-0.1c0.1-0.1,0.2-0.2,0.3-0.3c0,0,0.1-0.1,0.1-0.1
					c0.1-0.1,0.2-0.2,0.3-0.3c0-0.1,0.1-0.1,0.1-0.2c0.1-0.1,0.1-0.2,0.2-0.3c0.1-0.1,0.1-0.1,0.1-0.2c0-0.1,0.1-0.1,0.1-0.2
					c0.1-0.1,0.1-0.2,0.2-0.4c0,0,0.1-0.1,0.1-0.1c0.1-0.1,0.1-0.2,0.2-0.4c0-0.1,0-0.1,0.1-0.2c0-0.1,0.1-0.2,0.1-0.3
					c0-0.1,0.1-0.1,0.1-0.2c0-0.1,0-0.1,0.1-0.2c0-0.1,0.1-0.2,0.1-0.3c0-0.1,0-0.1,0-0.2c0-0.1,0.1-0.3,0.1-0.4c0,0,0-0.1,0-0.1
					c0-0.1,0-0.3,0.1-0.4c0,0,0,0,0-0.1c0-0.2,0-0.3,0-0.5v-48.9C220.1,152.7,212.5,148.1,202.8,148.1L202.8,148.1z M202.8,151.4
					c8.4,0,14.1,3.7,14.1,7.1s-5.7,7.1-14.1,7.1c-8.4,0-14.1-3.7-14.1-7.1S194.4,151.4,202.8,151.4z M171.4,109.5
					c8.4,0,14.1,3.7,14.1,7.1c0,3.4-5.7,7.1-14.1,7.1c-8.4,0-14.1-3.7-14.1-7.1C157.3,113.2,163,109.5,171.4,109.5z M140,137.4
					c8.4,0,14.1,3.7,14.1,7.1s-5.7,7.1-14.1,7.1c-8.4,0-14.1-3.7-14.1-7.1S131.6,137.4,140,137.4z M140,214.4
					c-8.4,0-14.1-3.7-14.1-7.1v-0.9c3.1,2.6,8.2,4.2,14.1,4.2c1.2,0,2.5-0.1,3.7-0.2c0.9-0.1,1.5-0.9,1.4-1.8
					c-0.1-0.9-0.9-1.5-1.8-1.4c-1.1,0.1-2.2,0.2-3.3,0.2c-8.4,0-14.1-3.7-14.1-7.1v-0.9c3.1,2.6,8.2,4.2,14.1,4.2
					c1.2,0,2.5-0.1,3.7-0.2c0.9-0.1,1.5-0.9,1.4-1.8s-0.9-1.5-1.8-1.4c-1.1,0.1-2.2,0.2-3.3,0.2c-8.4,0-14.1-3.7-14.1-7.1v-0.9
					c3.1,2.6,8.2,4.2,14.1,4.2c1.2,0,2.5-0.1,3.7-0.2c0.9-0.1,1.5-0.9,1.4-1.8s-0.9-1.5-1.8-1.4c-1.1,0.1-2.2,0.2-3.3,0.2
					c-8.4,0-14.1-3.7-14.1-7.1v-0.9c3.1,2.6,8.2,4.2,14.1,4.2c1.2,0,2.5-0.1,3.7-0.2c0.9-0.1,1.5-0.9,1.4-1.8s-0.9-1.5-1.8-1.4
					c-1.1,0.1-2.2,0.2-3.3,0.2c-8.4,0-14.1-3.7-14.1-7.1v-0.9c3.1,2.6,8.2,4.2,14.1,4.2c1.2,0,2.5-0.1,3.7-0.2
					c0.9-0.1,1.5-0.9,1.4-1.8c-0.1-0.9-0.9-1.5-1.8-1.4c-1.1,0.1-2.2,0.2-3.3,0.2c-8.4,0-14.1-3.7-14.1-7.1v-0.9
					c3.1,2.6,8.2,4.2,14.1,4.2c1.2,0,2.5-0.1,3.7-0.2c0.9-0.1,1.5-0.9,1.4-1.8c-0.1-0.9-0.9-1.5-1.8-1.4c-1.1,0.1-2.2,0.2-3.3,0.2
					c-8.4,0-14.1-3.7-14.1-7.1v-0.9c3.1,2.6,8.2,4.2,14.1,4.2c1.2,0,2.5-0.1,3.7-0.2c0.9-0.1,1.5-0.9,1.4-1.8
					c-0.1-0.9-0.9-1.5-1.8-1.4c-1.1,0.1-2.2,0.2-3.3,0.2c-8.4,0-14.1-3.7-14.1-7.1v-0.9c3.1,2.6,8.2,4.2,14.1,4.2
					c1.2,0,2.5-0.1,3.7-0.2c0.9-0.1,1.5-0.9,1.4-1.8s-0.9-1.5-1.8-1.4c-1.1,0.1-2.2,0.2-3.3,0.2c-8.4,0-14.1-3.7-14.1-7.1v-0.9
					c3.1,2.6,8.2,4.2,14.1,4.2s10.9-1.7,14.1-4.2v0.9c0,1.8-1.6,3.7-4.3,5c-0.8,0.4-1.1,1.4-0.7,2.2c0.3,0.6,0.9,0.9,1.5,0.9
					c0.2,0,0.5-0.1,0.7-0.2c1.1-0.5,2.1-1.2,2.9-1.8v0.8c0,1.8-1.6,3.7-4.3,5c-0.8,0.4-1.1,1.4-0.7,2.2c0.3,0.6,0.9,0.9,1.5,0.9
					c0.2,0,0.5-0.1,0.7-0.2c1.1-0.5,2.1-1.2,2.9-1.8v0.8c0,1.8-1.6,3.7-4.3,5c-0.8,0.4-1.1,1.4-0.7,2.2c0.3,0.6,0.9,0.9,1.5,0.9
					c0.2,0,0.5-0.1,0.7-0.2c1.1-0.5,2.1-1.2,2.9-1.8v0.8c0,1.8-1.6,3.7-4.3,5c-0.8,0.4-1.1,1.4-0.7,2.2c0.3,0.6,0.9,0.9,1.5,0.9
					c0.2,0,0.5-0.1,0.7-0.2c1.1-0.5,2.1-1.2,2.9-1.8v0.8c0,1.8-1.6,3.7-4.3,5c-0.8,0.4-1.1,1.4-0.7,2.2c0.3,0.6,0.9,0.9,1.5,0.9
					c0.2,0,0.5-0.1,0.7-0.2c1.1-0.5,2.1-1.2,2.9-1.8v0.8c0,1.8-1.6,3.7-4.3,5c-0.8,0.4-1.1,1.4-0.7,2.2c0.3,0.6,0.9,0.9,1.5,0.9
					c0.2,0,0.5-0.1,0.7-0.2c1.1-0.5,2.1-1.2,2.9-1.8v0.8c0,1.8-1.6,3.7-4.3,5c-0.8,0.4-1.1,1.4-0.7,2.2c0.3,0.6,0.9,0.9,1.5,0.9
					c0.2,0,0.5-0.1,0.7-0.2c1.1-0.5,2.1-1.2,2.9-1.8v0.8c0,1.8-1.6,3.7-4.3,5c-0.8,0.4-1.1,1.4-0.7,2.2c0.3,0.6,0.9,0.9,1.5,0.9
					c0.2,0,0.5-0.1,0.7-0.2c1.1-0.5,2.1-1.2,2.9-1.8v0.8C154,210.7,148.4,214.4,140,214.4L140,214.4z M171.4,214.4
					c-8.4,0-14.1-3.7-14.1-7.1v-0.9c3.1,2.6,8.2,4.2,14.1,4.2c1.2,0,2.5-0.1,3.7-0.2c0.9-0.1,1.5-0.9,1.4-1.8
					c-0.1-0.9-0.9-1.5-1.8-1.4c-1.1,0.1-2.2,0.2-3.3,0.2c-8.4,0-14.1-3.7-14.1-7.1v-0.9c3.1,2.6,8.2,4.2,14.1,4.2
					c1.2,0,2.5-0.1,3.7-0.2c0.9-0.1,1.5-0.9,1.4-1.8s-0.9-1.5-1.8-1.4c-1.1,0.1-2.2,0.2-3.3,0.2c-8.4,0-14.1-3.7-14.1-7.1v-0.9
					c3.1,2.6,8.2,4.2,14.1,4.2c1.2,0,2.5-0.1,3.7-0.2c0.9-0.1,1.5-0.9,1.4-1.8s-0.9-1.5-1.8-1.4c-1.1,0.1-2.2,0.2-3.3,0.2
					c-8.4,0-14.1-3.7-14.1-7.1v-0.9c3.1,2.6,8.2,4.2,14.1,4.2c1.2,0,2.5-0.1,3.7-0.2c0.9-0.1,1.5-0.9,1.4-1.8s-0.9-1.5-1.8-1.4
					c-1.1,0.1-2.2,0.2-3.3,0.2c-8.4,0-14.1-3.7-14.1-7.1v-0.9c3.1,2.6,8.2,4.2,14.1,4.2c1.2,0,2.5-0.1,3.7-0.2
					c0.9-0.1,1.5-0.9,1.4-1.8c-0.1-0.9-0.9-1.5-1.8-1.4c-1.1,0.1-2.2,0.2-3.3,0.2c-8.4,0-14.1-3.7-14.1-7.1v-0.9
					c3.1,2.6,8.2,4.2,14.1,4.2c1.2,0,2.5-0.1,3.7-0.2c0.9-0.1,1.5-0.9,1.4-1.8c-0.1-0.9-0.9-1.5-1.8-1.4c-1.1,0.1-2.2,0.2-3.3,0.2
					c-8.4,0-14.1-3.7-14.1-7.1v-0.9c3.1,2.6,8.2,4.2,14.1,4.2c1.2,0,2.5-0.1,3.7-0.2c0.9-0.1,1.5-0.9,1.4-1.8
					c-0.1-0.9-0.9-1.5-1.8-1.4c-1.1,0.1-2.2,0.2-3.3,0.2c-8.4,0-14.1-3.7-14.1-7.1v-0.9c3.1,2.6,8.2,4.2,14.1,4.2
					c1.2,0,2.5-0.1,3.7-0.2c0.9-0.1,1.5-0.9,1.4-1.8s-0.9-1.5-1.8-1.4c-1.1,0.1-2.2,0.2-3.3,0.2c-8.4,0-14.1-3.7-14.1-7.1v-0.9
					c3.1,2.6,8.2,4.2,14.1,4.2c1.2,0,2.5-0.1,3.7-0.2c0.9-0.1,1.5-0.9,1.4-1.8s-0.9-1.5-1.8-1.4c-1.1,0.1-2.2,0.2-3.3,0.2
					c-8.4,0-14.1-3.7-14.1-7.1v-0.9c3.1,2.6,8.2,4.2,14.1,4.2c1.2,0,2.5-0.1,3.7-0.2c0.9-0.1,1.5-0.9,1.4-1.8s-0.9-1.5-1.8-1.4
					c-1.1,0.1-2.2,0.2-3.3,0.2c-8.4,0-14.1-3.7-14.1-7.1v-0.9c3.1,2.6,8.2,4.2,14.1,4.2c1.2,0,2.5-0.1,3.7-0.2
					c0.9-0.1,1.5-0.9,1.4-1.8s-0.9-1.5-1.8-1.4c-1.1,0.1-2.2,0.2-3.3,0.2c-8.4,0-14.1-3.7-14.1-7.1v-0.9c3.1,2.6,8.2,4.2,14.1,4.2
					c1.2,0,2.5-0.1,3.7-0.2c0.9-0.1,1.5-0.9,1.4-1.8c-0.1-0.9-0.9-1.5-1.8-1.4c-1.1,0.1-2.2,0.2-3.3,0.2c-8.4,0-14.1-3.7-14.1-7.1
					v-0.9c3.1,2.6,8.2,4.2,14.1,4.2s10.9-1.7,14.1-4.2v0.9c0,1.8-1.6,3.7-4.3,5c-0.8,0.4-1.1,1.4-0.7,2.2c0.3,0.6,0.9,0.9,1.5,0.9
					c0.2,0,0.5-0.1,0.7-0.2c1.1-0.5,2.1-1.2,2.9-1.8v0.8c0,1.8-1.6,3.7-4.3,5c-0.8,0.4-1.1,1.4-0.7,2.2c0.3,0.6,0.9,0.9,1.5,0.9
					c0.2,0,0.5-0.1,0.7-0.2c1.1-0.5,2.1-1.2,2.9-1.8v0.8c0,1.8-1.6,3.7-4.3,5c-0.8,0.4-1.1,1.4-0.7,2.2c0.3,0.6,0.9,0.9,1.5,0.9
					c0.2,0,0.5-0.1,0.7-0.2c1.1-0.5,2.1-1.2,2.9-1.8v0.8c0,1.8-1.6,3.7-4.3,5c-0.8,0.4-1.1,1.4-0.7,2.2c0.3,0.6,0.9,0.9,1.5,0.9
					c0.2,0,0.5-0.1,0.7-0.2c1.1-0.5,2.1-1.2,2.9-1.8v0.8c0,1.8-1.6,3.7-4.3,5c-0.8,0.4-1.1,1.4-0.7,2.2c0.3,0.6,0.9,0.9,1.5,0.9
					c0.2,0,0.5-0.1,0.7-0.2c1.1-0.5,2.1-1.2,2.9-1.8v0.8c0,1.8-1.6,3.7-4.3,5c-0.8,0.4-1.1,1.4-0.7,2.2c0.3,0.6,0.9,0.9,1.5,0.9
					c0.2,0,0.5-0.1,0.7-0.2c1.1-0.5,2.1-1.2,2.9-1.8v0.8c0,1.8-1.6,3.7-4.3,5c-0.8,0.4-1.1,1.4-0.7,2.2c0.3,0.6,0.9,0.9,1.5,0.9
					c0.2,0,0.5-0.1,0.7-0.2c1.1-0.5,2.1-1.2,2.9-1.8v0.8c0,1.8-1.6,3.7-4.3,5c-0.8,0.4-1.1,1.4-0.7,2.2c0.3,0.6,0.9,0.9,1.5,0.9
					c0.2,0,0.5-0.1,0.7-0.2c1.1-0.5,2.1-1.2,2.9-1.8v0.8c0,1.8-1.6,3.7-4.3,5c-0.8,0.4-1.1,1.4-0.7,2.2c0.3,0.6,0.9,0.9,1.5,0.9
					c0.2,0,0.5-0.1,0.7-0.2c1.1-0.5,2.1-1.2,2.9-1.8v0.8c0,1.8-1.6,3.7-4.3,5c-0.8,0.4-1.1,1.4-0.7,2.2c0.3,0.6,0.9,0.9,1.5,0.9
					c0.2,0,0.5-0.1,0.7-0.2c1.1-0.5,2.1-1.2,2.9-1.8v0.8c0,1.8-1.6,3.7-4.3,5c-0.8,0.4-1.1,1.4-0.7,2.2c0.3,0.6,0.9,0.9,1.5,0.9
					c0.2,0,0.5-0.1,0.7-0.2c1.1-0.5,2.1-1.2,2.9-1.8v0.8c0,1.8-1.6,3.7-4.3,5c-0.8,0.4-1.1,1.4-0.7,2.2c0.3,0.6,0.9,0.9,1.5,0.9
					c0.2,0,0.5-0.1,0.7-0.2c1.1-0.5,2.1-1.2,2.9-1.8v0.8C185.5,210.7,179.8,214.4,171.4,214.4L171.4,214.4z M188.7,207.3v-0.9
					c3.1,2.6,8.2,4.2,14.1,4.2c1.2,0,2.5-0.1,3.7-0.2c0.9-0.1,1.5-0.9,1.4-1.8c-0.1-0.9-0.9-1.5-1.8-1.4c-1.1,0.1-2.2,0.2-3.3,0.2
					c-8.4,0-14.1-3.7-14.1-7.1v-0.9c3.1,2.6,8.2,4.2,14.1,4.2c1.2,0,2.5-0.1,3.7-0.2c0.9-0.1,1.5-0.9,1.4-1.8
					c-0.1-0.9-0.9-1.5-1.8-1.4c-1.1,0.1-2.2,0.2-3.3,0.2c-8.4,0-14.1-3.7-14.1-7.1v-0.9c3.1,2.6,8.2,4.2,14.1,4.2
					c1.2,0,2.5-0.1,3.7-0.2c0.9-0.1,1.5-0.9,1.4-1.8c-0.1-0.9-0.9-1.5-1.8-1.4c-1.1,0.1-2.2,0.2-3.3,0.2c-8.4,0-14.1-3.7-14.1-7.1
					v-0.9c3.1,2.6,8.2,4.2,14.1,4.2c1.2,0,2.5-0.1,3.7-0.2c0.9-0.1,1.5-0.9,1.4-1.8c-0.1-0.9-0.9-1.5-1.8-1.4
					c-1.1,0.1-2.2,0.2-3.3,0.2c-8.4,0-14.1-3.7-14.1-7.1v-0.9c3.1,2.6,8.2,4.2,14.1,4.2c1.2,0,2.5-0.1,3.7-0.2
					c0.9-0.1,1.5-0.9,1.4-1.8c-0.1-0.9-0.9-1.5-1.8-1.4c-1.1,0.1-2.2,0.2-3.3,0.2c-8.4,0-14.1-3.7-14.1-7.1v-0.9
					c3.1,2.6,8.2,4.2,14.1,4.2c1.2,0,2.5-0.1,3.7-0.2c0.9-0.1,1.5-0.9,1.4-1.8c-0.1-0.9-0.9-1.5-1.8-1.4c-1.1,0.1-2.2,0.2-3.3,0.2
					c-8.4,0-14.1-3.7-14.1-7.1v-0.9c3.1,2.6,8.2,4.2,14.1,4.2c5.9,0,10.9-1.7,14.1-4.2v0.9c0,1.8-1.6,3.7-4.3,5
					c-0.8,0.4-1.1,1.4-0.7,2.2c0.3,0.6,0.9,0.9,1.5,0.9c0.2,0,0.5-0.1,0.7-0.2c1.1-0.5,2.1-1.2,2.9-1.8v0.8c0,1.8-1.6,3.7-4.3,5
					c-0.8,0.4-1.1,1.4-0.7,2.2c0.3,0.6,0.9,0.9,1.5,0.9c0.2,0,0.5-0.1,0.7-0.2c1.1-0.5,2.1-1.2,2.9-1.8v0.8c0,1.8-1.6,3.7-4.3,5
					c-0.8,0.4-1.1,1.4-0.7,2.2c0.3,0.6,0.9,0.9,1.5,0.9c0.2,0,0.5-0.1,0.7-0.2c1.1-0.5,2.1-1.2,2.9-1.8v0.8c0,1.8-1.6,3.7-4.3,5
					c-0.8,0.4-1.1,1.4-0.7,2.2c0.3,0.6,0.9,0.9,1.5,0.9c0.2,0,0.5-0.1,0.7-0.2c1.1-0.5,2.1-1.2,2.9-1.8v0.8c0,1.8-1.6,3.7-4.3,5
					c-0.8,0.4-1.1,1.4-0.7,2.2c0.3,0.6,0.9,0.9,1.5,0.9c0.2,0,0.5-0.1,0.7-0.2c1.1-0.5,2.1-1.2,2.9-1.8v0.8c0,1.8-1.6,3.7-4.3,5
					c-0.8,0.4-1.1,1.4-0.7,2.2c0.3,0.6,0.9,0.9,1.5,0.9c0.2,0,0.5-0.1,0.7-0.2c1.1-0.5,2.1-1.2,2.9-1.8v0.8c0,0.1,0,0.2,0,0.3
					c0,0.1,0,0.1,0,0.2c0,0,0,0.1,0,0.1c0,0.1,0,0.2-0.1,0.3c0,0,0,0,0,0c-0.1,0.3-0.2,0.6-0.4,0.9c0,0,0,0,0,0
					c-0.1,0.1-0.1,0.2-0.2,0.3c0,0,0,0,0,0.1c-0.1,0.1-0.1,0.1-0.2,0.2c0,0-0.1,0.1-0.1,0.1c0,0-0.1,0.1-0.1,0.1
					c-0.1,0.1-0.1,0.2-0.2,0.2c0,0,0,0,0,0c-0.7,0.7-1.7,1.4-2.9,2c-0.1,0-0.1,0.1-0.2,0.1c-1.7,0.8-3.7,1.4-6.1,1.7
					c0,0-0.1,0-0.1,0c-1.1,0.1-2.2,0.2-3.3,0.2C194.4,214.4,188.7,210.7,188.7,207.3L188.7,207.3z"/>
				<path fill="#015491" d="M196,162.4c1.8,0.7,4.2,1.1,6.8,1.1c2.5,0,4.9-0.4,6.8-1.1c3.1-1.2,3.6-3,3.6-4c0-0.9-0.7-1.6-1.6-1.6
					c-0.9,0-1.6,0.7-1.6,1.6c-0.2,0.6-2.6,1.9-7.1,1.9c-4.4,0-6.7-1.3-7.1-1.9c0.3-0.6,2.7-1.9,7.1-1.9c0.9,0,1.6-0.7,1.6-1.6
					s-0.7-1.6-1.6-1.6c-2.5,0-4.9,0.4-6.8,1.1c-3.1,1.2-3.6,3-3.6,4C192.4,159.4,192.9,161.2,196,162.4z"/>
				<path fill="#015491" d="M133.2,148.5c1.8,0.7,4.2,1.1,6.8,1.1c2.5,0,4.9-0.4,6.8-1.1c3.1-1.2,3.6-3,3.6-4c0-0.9-0.7-1.6-1.6-1.6
					c-0.9,0-1.6,0.7-1.6,1.6c-0.2,0.6-2.6,1.9-7.1,1.9c-4.4,0-6.7-1.3-7.1-1.9c0.3-0.6,2.7-1.9,7.1-1.9c0.9,0,1.6-0.7,1.6-1.6
					s-0.7-1.6-1.6-1.6c-2.5,0-4.9,0.4-6.8,1.1c-3.1,1.2-3.6,3-3.6,4S130.1,147.2,133.2,148.5L133.2,148.5z"/>
			</g>
		</g>
	</g>
</g>
</svg>
