<?xml version="1.0" encoding="utf-8"?>
<!-- Generator: Adobe Illustrator 20.0.0, SVG Export Plug-In . SVG Version: 6.00 Build 0)  -->
<svg version="1.1" xmlns="http://www.w3.org/2000/svg" xmlns:xlink="http://www.w3.org/1999/xlink" x="0px" y="0px"
	 viewBox="0 0 60 60" enable-background="new 0 0 60 60" xml:space="preserve">
<g id="Layer_1">
</g>
<g id="Layer_5">
	<g>
		<path fill="#231F20" d="M42.1,15.5h-6.7v2.3c0,0.2,0,0.5-0.1,0.7h6.8c0.1,0,0.2,0.1,0.2,0.2v26.9H26V26.8
			c-0.2-0.1-0.4-0.3-0.6-0.5L23,23.7v25.2c0,1.7,1.4,3.1,3.1,3.1h16c1.7,0,3.1-1.4,3.1-3.1V18.6C45.3,16.9,43.8,15.5,42.1,15.5z
			 M34.1,47c1,0,1.7,0.8,1.7,1.7c0,1-0.8,1.7-1.7,1.7c-1,0-1.7-0.8-1.7-1.7C32.4,47.8,33.2,47,34.1,47z"/>
		<path fill="#231F20" d="M27.6,24.3c0.1,0.1,0.1,0.1,0.2,0.1c0,0,0.1,0,0.1,0c0.1,0,0.2-0.2,0.2-0.3v-4.5h2.5c1,0,1.7-0.8,1.7-1.7
			v-8c0-1-0.8-1.7-1.7-1.7H14.5c-1,0-1.7,0.8-1.7,1.7v8c0,1,0.8,1.7,1.7,1.7h8.8L27.6,24.3z M16.2,11.7h4c0.3,0,0.6,0.3,0.6,0.6
			s-0.3,0.6-0.6,0.6h-4c-0.3,0-0.6-0.3-0.6-0.6C15.6,12,15.9,11.7,16.2,11.7z M15.6,15.1c0-0.3,0.3-0.6,0.6-0.6h8
			c0.3,0,0.6,0.3,0.6,0.6c0,0.3-0.3,0.6-0.6,0.6h-8C15.9,15.7,15.6,15.4,15.6,15.1z"/>
	</g>
</g>
</svg>