<?xml version="1.0" encoding="utf-8"?>
<!-- Generator: Adobe Illustrator 19.1.0, SVG Export Plug-In . SVG Version: 6.00 Build 0)  -->
<!DOCTYPE svg PUBLIC "-//W3C//DTD SVG 1.1//EN" "http://www.w3.org/Graphics/SVG/1.1/DTD/svg11.dtd">
<svg version="1.1" id="Layer_1" xmlns="http://www.w3.org/2000/svg" xmlns:xlink="http://www.w3.org/1999/xlink" x="0px" y="0px"
	 viewBox="-281 404.9 32 32" style="enable-background:new -281 404.9 32 32;" xml:space="preserve">
<style type="text/css">
	.st0{fill:#424141;}
	.st1{fill:#FFFFFF;}
</style>
<g>
	<polygon class="st0" points="-266.6,424.1 -258.7,415.3 -258.2,415.9 -254.2,411 -276.6,411 -268.7,421.4 -268.7,433.1 
		-262.4,430.1 -262.4,424.1 	"/>
	<polygon class="st0" points="-258.7,417.2 -263.8,422.8 -261,422.8 -261.1,427.5 -256.3,427.5 -256.3,422.8 -253.6,422.8 	"/>
	<path class="st1" d="M-250.7,424.1l-8-8.8l-7.9,8.8h4.2h0.1l0,4.6h7.2l0-4.6H-250.7z M-256.3,427.5h-4.7l0-4.6h-2.7l5.1-5.7
		l5.1,5.7h-2.8L-256.3,427.5z"/>
</g>
</svg>
