<?xml version="1.0" encoding="utf-8"?>
<!-- Generator: Adobe Illustrator 19.1.0, SVG Export Plug-In . SVG Version: 6.00 Build 0)  -->
<!DOCTYPE svg PUBLIC "-//W3C//DTD SVG 1.1//EN" "http://www.w3.org/Graphics/SVG/1.1/DTD/svg11.dtd">
<svg version="1.1" id="Layer_1" xmlns="http://www.w3.org/2000/svg" xmlns:xlink="http://www.w3.org/1999/xlink" x="0px" y="0px"
	 viewBox="3 2 25 25" enable-background="new 3 2 25 25" xml:space="preserve">
<g>
	<path d="M17.67,14.08c-0.249-0.249-0.539-0.444-0.863-0.581c-0.336-0.142-0.692-0.214-1.057-0.214
		c-0.366,0-0.722,0.072-1.057,0.214c-0.324,0.137-0.614,0.332-0.863,0.581c-0.249,0.249-0.444,0.539-0.581,0.863
		c-0.142,0.336-0.214,0.692-0.214,1.057c0,0.366,0.072,0.722,0.214,1.057c0.137,0.324,0.332,0.614,0.581,0.863
		c0.249,0.249,0.539,0.445,0.863,0.581c0.336,0.142,0.692,0.214,1.057,0.214c0.366,0,0.722-0.072,1.057-0.214
		c0.324-0.137,0.614-0.332,0.863-0.581c0.249-0.249,0.445-0.539,0.581-0.863c0.142-0.336,0.214-0.692,0.214-1.057
		c0-0.366-0.072-0.722-0.214-1.057C18.114,14.619,17.919,14.329,17.67,14.08L17.67,14.08z M15.75,17.141"/>
	<path d="M25.158,11.665c-0.861-0.795-1.799-1.481-2.789-2.039C21.36,9.058,20.294,8.62,19.2,8.326
		c-1.124-0.303-2.285-0.456-3.45-0.456c-1.165,0-2.326,0.153-3.45,0.456c-1.094,0.295-2.16,0.732-3.169,1.301
		c-0.99,0.558-1.928,1.244-2.789,2.039c-0.855,0.79-1.635,1.688-2.319,2.671C3.686,14.821,3.5,15.429,3.5,16.048
		c0,0.619,0.186,1.227,0.523,1.711c0.684,0.983,1.464,1.882,2.319,2.671c0.861,0.795,1.799,1.481,2.789,2.038
		c1.009,0.568,2.075,1.006,3.169,1.301c1.124,0.303,2.285,0.457,3.45,0.457c1.165,0,2.326-0.154,3.45-0.457
		c1.094-0.295,2.16-0.732,3.169-1.301c0.99-0.558,1.928-1.244,2.789-2.038c0.855-0.79,1.635-1.688,2.319-2.671
		C27.814,17.274,28,16.667,28,16.048c0-0.619-0.186-1.227-0.523-1.711C26.793,13.353,26.013,12.454,25.158,11.665L25.158,11.665z
		 M26.086,16.499c-1.177,1.691-2.665,3.087-4.366,4.074c0.246-0.422,0.457-0.87,0.632-1.341c0.374-1.01,0.564-2.081,0.564-3.184
		c0-1.103-0.19-2.174-0.564-3.184c-0.175-0.471-0.386-0.919-0.632-1.341c1.701,0.987,3.19,2.383,4.366,4.074
		C26.27,15.861,26.27,16.235,26.086,16.499L26.086,16.499z M5.414,15.596c1.177-1.691,2.665-3.087,4.366-4.074
		c-0.246,0.422-0.457,0.87-0.632,1.341c-0.374,1.01-0.564,2.081-0.564,3.184c0,1.103,0.19,2.175,0.564,3.184
		c0.175,0.471,0.386,0.919,0.632,1.341c-1.701-0.987-3.19-2.383-4.366-4.074C5.229,16.235,5.229,15.861,5.414,15.596L5.414,15.596z
		 M15.75,21.708c-2.977,0-5.391-2.543-5.391-5.679c0-3.136,2.414-5.679,5.391-5.679c2.977,0,5.391,2.543,5.391,5.679
		C21.141,19.165,18.727,21.708,15.75,21.708L15.75,21.708z M15.75,22.2"/>
</g>
</svg>
