<?xml version="1.0" encoding="utf-8"?>
<!-- Generator: Adobe Illustrator 22.0.1, SVG Export Plug-In . SVG Version: 6.00 Build 0)  -->
<svg version="1.1" xmlns="http://www.w3.org/2000/svg" xmlns:xlink="http://www.w3.org/1999/xlink" x="0px" y="0px"
	 viewBox="0 0 60 60" enable-background="new 0 0 60 60" xml:space="preserve">
<g id="Layer_1">
</g>
<g id="Layer_3">
</g>
<g id="Layer_2">
	<g>
		<rect x="33.884" y="10.073" transform="matrix(0.9563 -0.2925 0.2925 0.9563 -1.5393 11.6015)" width="8.28" height="1.749"/>
		<rect x="45.454" y="8.499" transform="matrix(0.8781 -0.4785 0.4785 0.8781 -3.2687 24.4429)" width="1.751" height="20.272"/>
		<rect x="40.261" y="17.504" transform="matrix(0.164 -0.9865 0.9865 0.164 8.0392 62.9103)" width="1.75" height="18.415"/>
		<rect x="30.522" y="21.467" transform="matrix(0.7154 -0.6987 0.6987 0.7154 -5.7596 30.5431)" width="8.187" height="1.75"/>
		<rect x="34.942" y="11.885" transform="matrix(0.8442 -0.536 0.536 0.8442 -2.9987 21.6915)" width="1.75" height="8.239"/>
		<g>
			<rect x="29.884" y="10.184" fill="#FFFFFF" width="4.245" height="4.245"/>
			<path d="M34.629,14.929h-5.245V9.684h5.245V14.929z M30.384,13.929h3.245v-3.245h-3.245V13.929z"/>
		</g>
		<g>
			<rect x="39.32" y="8" fill="#FFFFFF" width="4.245" height="4.245"/>
			<path d="M44.064,12.745h-5.245V7.5h5.245V12.745z M39.819,11.745h3.245V8.5h-3.245V11.745z"/>
		</g>
		<g>
			<rect x="48.755" y="25.755" fill="#FFFFFF" width="4.245" height="4.245"/>
			<path d="M53.5,30.5h-5.245v-5.245H53.5V30.5z M49.255,29.5H52.5v-3.245h-3.245V29.5z"/>
		</g>
		<g>
			<rect x="36.19" y="17.32" fill="#FFFFFF" width="4.245" height="4.245"/>
			<path d="M40.936,22.064H35.69V16.82h5.245V22.064z M36.69,21.064h3.245V17.82H36.69V21.064z"/>
		</g>
		<g>
			<rect x="29" y="22.748" fill="#FFFFFF" width="4.245" height="4.245"/>
			<path d="M33.745,27.493H28.5v-5.245h5.245V27.493z M29.5,26.493h3.245v-3.245H29.5V26.493z"/>
		</g>
	</g>
	<g>
		<g>
			<path d="M23.5,35.4l7.6-0.7c0.6-0.1,1.1-0.5,1.2-1c0.2-0.6-0.1-1.2-0.5-1.5L12.3,18c-0.4-0.3-1-0.4-1.5-0.1
				c-0.5,0.2-0.8,0.7-0.8,1.3L9.7,43.3c0,0.6,0.4,1.1,0.9,1.3c0.6,0.2,1.2,0.1,1.6-0.4l5.1-5.7l5,10c0.2,0.3,0.5,0.6,0.8,0.7
				c0.4,0.1,0.7,0.1,1.1-0.1l3.6-1.8c0.7-0.4,1-1.2,0.6-1.9L23.5,35.4z"/>
		</g>
	</g>
</g>
</svg>
