<?xml version="1.0" encoding="utf-8"?>
<!-- Generator: Adobe Illustrator 19.1.0, SVG Export Plug-In . SVG Version: 6.00 Build 0)  -->
<!DOCTYPE svg PUBLIC "-//W3C//DTD SVG 1.1//EN" "http://www.w3.org/Graphics/SVG/1.1/DTD/svg11.dtd">
<svg version="1.1" id="Layer_1" xmlns:svg="http://www.w3.org/2000/svg"
	 xmlns="http://www.w3.org/2000/svg" xmlns:xlink="http://www.w3.org/1999/xlink" x="0px" y="0px" viewBox="-267 390.9 60 60"
	 style="enable-background:new -267 390.9 60 60;" xml:space="preserve">
<style type="text/css">
	.st0{fill:none;}
	.st1{fill:#FFFFFF;}
</style>
<g>
	<title>Layer 1</title>
	<g id="Layer_1_1_">
	</g>
	<g id="Layer_3">
	</g>
</g>
<g>
	<polygon class="st0" points="-235.9,404.4 -239.5,404.4 -239.5,403.5 -250.5,406.4 -250.5,408.7 -245.9,417.4 -242.5,417.4 
		-242.5,425.4 -245.7,425.4 -253.5,432.8 -253.5,433.1 -220.5,438.7 -220.5,437.5 	"/>
	<rect x="-257.5" y="402.4" class="st1" width="6" height="6"/>
	<rect x="-238.5" y="397.4" class="st1" width="6" height="6"/>
	<rect x="-219.5" y="438.4" class="st1" width="6" height="6"/>
	<path d="M-216.1,437.4l-15.4-33.1v-7.9h-8v3l-11,2.9v-0.9h-8v8h3.9l4.2,8h-0.1v7l-6.2,6h-4.8v8h8v-1.2l33,5.6v2.6h8v-8H-216.1z
		 M-213.5,444.4h-6v-6h6V444.4z M-232.5,397.4v6h-6v-6H-232.5z M-257.5,402.4h6v6h-6V402.4z M-249.5,418.4h6v6h-6V418.4z
		 M-254.5,437.4h-6v-6h6V437.4z M-253.5,433.1v-0.3l7.8-7.5h3.2v-8h-3.4l-4.6-8.7v-2.3l11-2.9v0.9h3.6l15.4,33.1v1.2L-253.5,433.1z"
		/>
	<rect x="-249.5" y="418.4" class="st1" width="6" height="6"/>
	<rect x="-260.5" y="431.4" class="st1" width="6" height="6"/>
</g>
</svg>
