<?xml version="1.0" encoding="utf-8"?>
<!-- Generator: Adobe Illustrator 19.1.0, SVG Export Plug-In . SVG Version: 6.00 Build 0)  -->
<!DOCTYPE svg PUBLIC "-//W3C//DTD SVG 1.1//EN" "http://www.w3.org/Graphics/SVG/1.1/DTD/svg11.dtd">
<svg version="1.1" id="Layer_1" xmlns="http://www.w3.org/2000/svg" xmlns:xlink="http://www.w3.org/1999/xlink" x="0px" y="0px"
	 viewBox="-267 390.9 60 60" style="enable-background:new -267 390.9 60 60;" xml:space="preserve">
<style type="text/css">
	.st0{fill:none;}
	.st1{fill:#FFFFFF;}
</style>
<g>
	<path class="st0" d="M-231.4,402.4H-242c-1.1,0-2.1,2-2.4,3.4h15.4C-229.3,404.4-230.2,402.4-231.4,402.4z"/>
	<path d="M-257.7,442.1h0.8c0.7,0,1.2-0.5,1.2-1.2v-33.8c0-0.7-0.5-1.2-1.2-1.2h-0.8c-2.7,0-5.9,2.2-5.9,4.9v26.4
		C-263.6,439.9-260.4,442.1-257.7,442.1z"/>
	<path d="M-210.4,410c-0.5-2.3-3.4-4.1-5.8-4.1h-0.7c-0.7,0-1.2,0.5-1.2,1.2v33.8c0,0.7,0.5,1.2,1.2,1.2h0.7c2.4,0,5.3-1.8,5.8-4.1
		V410z"/>
	<g>
		<path class="st0" d="M-231.4,402.4H-242c-1.1,0-2.1,2-2.4,3.4h15.4C-229.3,404.4-230.2,402.4-231.4,402.4z"/>
		<path d="M-221.4,405.9h-4.6c-0.3-2.7-2.4-6.2-4.9-6.2h-11.7c-2.5,0-4.5,3.5-4.9,6.2h-5c-0.7,0-1.2,0.5-1.2,1.2v33.8
			c0,0.7,0.5,1.2,1.2,1.2h31c0.7,0,1.2-0.5,1.2-1.2v-33.8C-220.2,406.4-220.7,405.9-221.4,405.9z M-242,402.4h10.7
			c1.1,0,2.1,2,2.4,3.4h-15.4C-244.1,404.4-243.2,402.4-242,402.4z M-235.9,433.9c-1.4,0-2.8-0.4-3.9-0.9l1.9-1.9
			c0.6,0.1,1.3,0.3,2,0.3c3.5,0,6.4-2.9,6.4-6.4c0-3.5-2.9-6.4-6.4-6.4c-3.5,0-6.4,2.9-6.4,6.4h2.1l-3.4,3.3l-3.4-3.3h2.1
			c0-4.9,4-8.9,8.9-8.9c4.9,0,8.9,4,8.9,8.9C-227,429.9-231,433.9-235.9,433.9z"/>
		<path class="st1" d="M-235.9,416.1c-4.9,0-8.9,4-8.9,8.9h-2.1l3.4,3.3l3.4-3.3h-2.1c0-3.5,2.9-6.4,6.4-6.4c3.5,0,6.4,2.9,6.4,6.4
			c0,3.5-2.9,6.4-6.4,6.4c-0.8,0-1.4-0.1-2-0.3l-1.9,1.9c1.1,0.5,2.5,0.9,3.9,0.9c4.9,0,8.9-4,8.9-8.9
			C-227,420.1-231,416.1-235.9,416.1z"/>
	</g>
</g>
</svg>
