<?xml version="1.0" encoding="utf-8"?>
<!-- Generator: Adobe Illustrator 19.1.0, SVG Export Plug-In . SVG Version: 6.00 Build 0)  -->
<!DOCTYPE svg PUBLIC "-//W3C//DTD SVG 1.1//EN" "http://www.w3.org/Graphics/SVG/1.1/DTD/svg11.dtd">
<svg version="1.1" id="Layer_1" xmlns="http://www.w3.org/2000/svg" xmlns:xlink="http://www.w3.org/1999/xlink" x="0px" y="0px"
	 viewBox="-267 390.9 60 60" style="enable-background:new -267 390.9 60 60;" xml:space="preserve">
<g>
	<g>
		<path d="M-234.2,423.3l7.6-0.7c0.6-0.1,1.1-0.5,1.2-1c0.2-0.6-0.1-1.2-0.5-1.5l-19.5-14.2c-0.4-0.3-1-0.4-1.5-0.1
			c-0.5,0.2-0.8,0.7-0.8,1.3l-0.3,24.1c0,0.6,0.4,1.1,0.9,1.3c0.6,0.2,1.2,0.1,1.6-0.4l5.1-5.7l5,10c0.2,0.3,0.5,0.6,0.8,0.7
			c0.4,0.1,0.7,0.1,1.1-0.1l3.6-1.8c0.7-0.4,1-1.2,0.6-1.9L-234.2,423.3z M-234.2,423.3"/>
	</g>
</g>
</svg>
