<?xml version="1.0" encoding="utf-8"?>
<!-- Generator: Adobe Illustrator 19.1.0, SVG Export Plug-In . SVG Version: 6.00 Build 0)  -->
<!DOCTYPE svg PUBLIC "-//W3C//DTD SVG 1.1//EN" "http://www.w3.org/Graphics/SVG/1.1/DTD/svg11.dtd">
<svg version="1.1" id="Layer_2" xmlns="http://www.w3.org/2000/svg" xmlns:xlink="http://www.w3.org/1999/xlink" x="0px" y="0px"
	 viewBox="-267 390.9 60 60" style="enable-background:new -267 390.9 60 60;" xml:space="preserve">
<style type="text/css">
	.st0{fill:none;}
	.st1{fill:#FFFFFF;}
</style>
<g>
	<circle class="st0" cx="-237.1" cy="402.4" r="1.6"/>
	<path class="st1" d="M-229.9,431c-0.7,0-1.3,0.6-1.3,1.3c0,0.7,0.6,1.3,1.3,1.3c0.5,0,1-0.3,1.2-0.8c0,0,0,0,0,0
		c0.1-0.2,0.1-0.3,0.1-0.5C-228.6,431.6-229.2,431-229.9,431z"/>
	<path class="st1" d="M-222.9,406.6c0,0.8,0,3.3-2.6,3.4l0,0h-22.9c-1.2,0-2.6-0.6-2.7-3.4l0-2.3h-5.1v34.4h38.3v-34.5h-5.1
		L-222.9,406.6z M-227.4,433.8c-1,1.6-3.2,1.9-4.5,0.6c-3.4-3.4-6.8-6.8-10.2-10.2c-0.1-0.1-0.2-0.2-0.4-0.2c-2.9,0.2-5.3-2-5.3-4.8
		c0-0.6,0.1-1.1,0.4-1.7c0,0.1,0.1,0.2,0.2,0.2c0.8,0.8,1.7,1.7,2.5,2.5c0.6,0.5,1.2,0.5,1.7,0c0.4-0.4,0.7-0.7,1.1-1.1
		c0.5-0.5,0.5-1.1,0-1.6c-0.9-0.9-1.8-1.8-2.7-2.6c-0.1-0.1-0.1-0.1-0.2-0.2c0.7-0.3,1.4-0.4,2.2-0.4c2.9,0.2,5,2.7,4.6,5.6
		c0,0.2,0.1,0.3,0.2,0.4c3.4,3.3,6.7,6.7,10.1,10.1C-226.9,431.3-226.7,432.7-227.4,433.8z"/>
	<path d="M-224.4,402.9l0,3.7c0,1.9-0.6,1.9-1.2,1.9h-22.9c-0.4,0-1.1,0-1.2-1.9l0-3.8h-8.1v37.4h41.3v-37.5H-224.4z M-217.8,438.9
		h-38.3v-34.4h5.1l0,2.3c0,2.8,1.5,3.4,2.7,3.4h22.9l0,0c2.6-0.1,2.6-2.6,2.6-3.4l0-2.2h5.1V438.9z"/>
	<path d="M-226.8,401h-6.6c-0.6-1.3-2-2.3-3.7-2.3c-1.7,0-3.2,1-3.7,2.3h-6.6v5.4h20.7V401z M-237.1,404c-0.9,0-1.6-0.7-1.6-1.6
		c0-0.9,0.7-1.6,1.6-1.6s1.6,0.7,1.6,1.6C-235.5,403.3-236.3,404-237.1,404z"/>
	<path d="M-237.9,420.2c-0.1-0.1-0.2-0.2-0.2-0.4c0.4-2.9-1.7-5.4-4.6-5.6c-0.7,0-1.5,0.1-2.2,0.4c0.1,0.1,0.1,0.1,0.2,0.2
		c0.9,0.9,1.8,1.8,2.7,2.6c0.5,0.5,0.5,1.1,0,1.6c-0.4,0.4-0.7,0.7-1.1,1.1c-0.5,0.5-1.2,0.5-1.7,0c-0.8-0.8-1.7-1.7-2.5-2.5
		c-0.1-0.1-0.1-0.1-0.2-0.2c-0.3,0.6-0.4,1.2-0.4,1.7c0.1,2.9,2.4,5.1,5.3,4.8c0.2,0,0.3,0,0.4,0.2c3.4,3.4,6.8,6.8,10.2,10.2
		c1.3,1.3,3.5,1,4.5-0.6c0.7-1.2,0.5-2.6-0.5-3.6C-231.2,426.9-234.6,423.6-237.9,420.2z M-228.7,432.8
		C-228.7,432.9-228.8,432.9-228.7,432.8c-0.2,0.5-0.7,0.8-1.2,0.8c-0.7,0-1.3-0.6-1.3-1.3c0-0.7,0.6-1.3,1.3-1.3
		c0.7,0,1.3,0.6,1.3,1.3C-228.6,432.5-228.7,432.7-228.7,432.8z"/>
</g>
</svg>
