<?xml version="1.0" encoding="utf-8"?>
<!-- Generator: Adobe Illustrator 19.1.0, SVG Export Plug-In . SVG Version: 6.00 Build 0)  -->
<!DOCTYPE svg PUBLIC "-//W3C//DTD SVG 1.1//EN" "http://www.w3.org/Graphics/SVG/1.1/DTD/svg11.dtd">
<svg version="1.1" id="Layer_1" xmlns="http://www.w3.org/2000/svg" xmlns:xlink="http://www.w3.org/1999/xlink" x="0px" y="0px"
	 viewBox="-267 390.9 60 60" style="enable-background:new -267 390.9 60 60;" xml:space="preserve">
<style type="text/css">
	.st0{fill:none;}
	.st1{fill:#FFFFFF;}
</style>
<g id="Layer_1_1_">
</g>
<g id="Layer_4">
</g>
<g id="Layer_1_2_">
</g>
<g>
	<polygon class="st0" points="-222.2,413.5 -218.8,416.8 -222.2,413.5 	"/>
	<path class="st1" d="M-222.2,413.5l-2.7-2.7l2-2c0.2-0.2,0.4-0.3,0.7-0.3v-2l-2,1.9V403c0-0.5-0.5-1-1-1h-29.5c-0.5,0-1,0.5-1,1
		v35.8c0,0.5,0.5,1,1,1h29.5c0.5,0,1-0.5,1-1v-14.9l2-2v-1.7l2.4-2.3l-12.5,12.1l-6.2-6.1l12.5-12.1l6.2,6.2l1-1.2L-222.2,413.5
		L-222.2,413.5z M-231.7,431.6h2.7v1.4h-2.7V431.6z M-250.8,423.9h8.9v1.4h-8.9V423.9z M-243.5,433h-7v-1.4h7V433z M-233.5,431.2
		l-8.5,2.4l2.4-8.5L-233.5,431.2z M-234.5,417.9h-16.3v-1.4h16.3V417.9z M-229,410.3h-21.7v-1.4h21.7V410.3z"/>
	<rect x="-250.8" y="408.9" width="21.7" height="1.4"/>
	<rect x="-250.8" y="416.5" width="16.3" height="1.4"/>
	<rect x="-250.8" y="423.9" width="8.9" height="1.4"/>
	<rect x="-250.5" y="431.6" width="7" height="1.4"/>
	<rect x="-231.7" y="431.6" width="2.7" height="1.4"/>
	<path d="M-216.8,412.9l-4-4.1c-0.4-0.4-0.9-0.5-1.3-0.4c-0.3,0.1-0.5,0.1-0.7,0.3l-2,2l2.7,2.7l3.4,3.4l1.9-1.9
		C-216.2,414.4-216.2,413.5-216.8,412.9z"/>
	<polygon points="-238.5,424 -232.3,430.1 -219.8,418 -226,411.8 	"/>
	<polygon points="-242,433.6 -233.5,431.2 -239.6,425.1 	"/>
	<path d="M-224.2,438.8c0,0.5-0.5,1-1,1h-29.5c-0.5,0-1-0.5-1-1V403c0-0.5,0.5-1,1-1h29.5c0.5,0,1,0.5,1,1v5.3l2-1.9V403
		c0-1.7-1.3-3-3-3h-29.5c-1.6,0-3,1.3-3,3v35.8c0,1.6,1.4,3,3,3h29.5c1.7,0,3-1.4,3-3V422l-2,2V438.8z"/>
</g>
</svg>
