<?xml version="1.0" encoding="utf-8"?>
<!-- Generator: Adobe Illustrator 19.1.0, SVG Export Plug-In . SVG Version: 6.00 Build 0)  -->
<!DOCTYPE svg PUBLIC "-//W3C//DTD SVG 1.1//EN" "http://www.w3.org/Graphics/SVG/1.1/DTD/svg11.dtd">
<svg version="1.1" id="Layer_1" xmlns="http://www.w3.org/2000/svg" xmlns:xlink="http://www.w3.org/1999/xlink" x="0px" y="0px"
	 viewBox="-267 390.9 60 60" style="enable-background:new -267 390.9 60 60;" xml:space="preserve">
<style type="text/css">
	.st0{fill:none;}
</style>
<g>
	<path d="M-216.4,431.2h-5.1v-5.1c0-0.9-0.8-1.6-1.6-1.6s-1.6,0.8-1.6,1.6v5.1h-5.1c-0.9,0-1.6,0.8-1.6,1.6c0,0.9,0.8,1.6,1.6,1.6
		h5.1v5.1c0,0.9,0.8,1.6,1.6,1.6s1.6-0.8,1.6-1.6v-5.1h5.1c0.9,0,1.6-0.8,1.6-1.6C-214.8,432-215.6,431.2-216.4,431.2z"/>
	
		<rect x="-253.1" y="420.2" transform="matrix(-0.7071 0.7071 -0.7071 -0.7071 -127.6767 896.7939)" class="st0" width="7.1" height="3.6"/>
	
		<rect x="-238.1" y="407.4" transform="matrix(0.7071 0.7071 -0.7071 0.7071 230.0752 290.8806)" class="st0" width="4.1" height="31.5"/>
	<path d="M-221,413.8l-12.6-12.6c-1.2-1.2-3.1-1.2-4.3,0l-20.1,20.1c-1.2,1.2-1.2,3.1,0,4.3l12.6,12.6c1.2,1.2,3.1,1.2,4.3,0
		l20.1-20.1C-219.8,416.9-219.8,415-221,413.8z M-253.3,423.1l5-5l2.5,2.5l-5,5L-253.3,423.1z M-245.7,435.7l-2.9-2.9l22.3-22.3
		l2.9,2.9L-245.7,435.7z"/>
</g>
</svg>
