<?xml version="1.0" encoding="utf-8"?>
<!-- Generator: Adobe Illustrator 20.0.0, SVG Export Plug-In . SVG Version: 6.00 Build 0)  -->
<svg version="1.1" xmlns="http://www.w3.org/2000/svg" xmlns:xlink="http://www.w3.org/1999/xlink" x="0px" y="0px"
	 viewBox="0 0 60 60" enable-background="new 0 0 60 60" xml:space="preserve">
<g id="Layer_1">
</g>
<g id="Layer_5">
	<g>
		<path fill="#231F20" d="M45.7,47.3v-1.6V23.2v-1.9h3.6v-3.5h-1.8v-1.5c0-1.1-0.9-2-2-2h-6.8v-0.9c0-3.4-2.7-6.1-6.1-6.1h-5.1
			c-3.4,0-6.1,2.7-6.1,6.1v0.9h-6.8c-1.1,0-2,0.9-2,2v1.5h-1.8v3.5h3.7v1.9v22.6v1.6c0,3,2.4,5.4,5.4,5.4h20.5
			C43.3,52.8,45.7,50.3,45.7,47.3z M24.9,13.5c0-1.4,1.1-2.5,2.5-2.5h5.2c1.4,0,2.5,1.1,2.5,2.5v0.8H24.9V13.5z M42.2,21.2v10.3v2.6
			v13.5c0,0.8-0.7,1.5-1.5,1.5H19.3c-0.8,0-1.5-0.7-1.5-1.5V34.1v-2.6V21.2H42.2z"/>
		<rect x="21.4" y="24.8" fill="#231F20" width="3.4" height="21"/>
		<rect x="28.4" y="24.8" fill="#231F20" width="3.4" height="21"/>
		<rect x="35.3" y="24.8" fill="#231F20" width="3.4" height="21"/>
	</g>
</g>
</svg>
