<?xml version="1.0" encoding="utf-8"?>
<!-- Generator: Adobe Illustrator 21.1.0, SVG Export Plug-In . SVG Version: 6.00 Build 0)  -->
<svg version="1.1" xmlns="http://www.w3.org/2000/svg" xmlns:xlink="http://www.w3.org/1999/xlink" x="0px" y="0px"
	 viewBox="0 0 60 60" enable-background="new 0 0 60 60" xml:space="preserve">
<g id="Layer_1">
</g>
<g id="Layer_5">
	<g>
		<path d="M47.4,48l3.8,0c0.5,0,1-0.7,1-1.5l0-3h-5.7l0,3C46.4,47.3,46.9,48,47.4,48z"/>
		<rect x="46.6" y="20.5" width="5.5" height="20.4"/>
		<polygon points="49.3,12.8 46.5,17.7 52.2,17.7 		"/>
	</g>
	<g>
		<g>
			<polygon fill="#FFFFFF" points="14.2,46.4 10.5,47.7 8.9,45.8 8.9,25.4 10.8,24.8 13.4,24.8 13.7,15 15.7,14.5 26.7,14.5 
				28.8,14.5 32.4,18.9 32.8,28.5 35.2,28.5 35.7,29.4 35.4,33 35.1,40.4 			"/>
			<g>
				<path d="M44.3,34.5l-6.4,12.2c-0.3,0.6-1.2,1.2-1.9,1.2l-25.9,0c-0.5,0-1.1-0.2-1.5-0.6C8.2,47,8,46.5,8,45.9l0-20.1
					c0-1.1,0.9-2.1,2.1-2.1l3.4,0l-0.1,1.8h-2.7c-0.2,0-0.5,0.1-0.7,0.3c-0.2,0.2-0.3,0.4-0.3,0.7l0,18.8c0,0.5,0.4,0.9,0.9,0.9H12
					l6.1-12.4c0.3-0.7,1-1.2,1.7-1.2h15l0-5c1,0.1,1.7,0.9,1.7,1.9v3.1h6.9C44.2,32.6,44.9,33.4,44.3,34.5z M13.1,40
					c-0.1-6.2,0-24.6,0-24.6c0-0.9,0.8-1.7,1.7-1.7h13.5c0.2,0,0.4,0.1,0.6,0.2l4.4,4.7c0.1,0.1,0.2,0.3,0.2,0.5v12.3h-1.4V20.3
					c0-0.2-0.2-0.4-0.4-0.4h-3.3c-0.4,0-0.7-0.3-0.7-0.7v-3.8c0-0.2-0.2-0.4-0.4-0.4H14.8c-0.1,0-0.3,0.1-0.3,0.3v23.1l-1.1,2.2
					C13.5,40.7,13.1,40.6,13.1,40z M29.1,18.5h2.1l-2.1-2.3L29.1,18.5L29.1,18.5z M29.9,21.4H16.8c-0.5,0-0.9,0.4-0.9,0.9
					c0,0.5,0.4,0.9,0.9,0.9h13.1c0.5,0,0.9-0.4,0.9-0.9C30.7,21.8,30.3,21.4,29.9,21.4z M30.7,27.4c0-0.5-0.4-0.9-0.9-0.9H16.8
					c-0.5,0-0.9,0.4-0.9,0.9c0,0.5,0.4,0.9,0.9,0.9h13.1C30.3,28.2,30.7,27.8,30.7,27.4z M15.9,32.5c0,0.5,0.4,0.9,0.9,0.9h0.3
					c0.6-1.5,1.9-1.7,1.9-1.7h-2.2C16.3,31.6,15.9,32,15.9,32.5z"/>
			</g>
		</g>
		<rect x="32.6" y="27.4" transform="matrix(-1.836970e-16 1 -1 -1.836970e-16 62.1522 -4.913)" width="1.9" height="2.5"/>
	</g>
</g>
</svg>
