<?xml version="1.0" encoding="utf-8"?>
<!-- Generator: Adobe Illustrator 19.1.0, SVG Export Plug-In . SVG Version: 6.00 Build 0)  -->
<!DOCTYPE svg PUBLIC "-//W3C//DTD SVG 1.1//EN" "http://www.w3.org/Graphics/SVG/1.1/DTD/svg11.dtd">
<svg version="1.1" id="Layer_1" xmlns="http://www.w3.org/2000/svg" xmlns:xlink="http://www.w3.org/1999/xlink" x="0px" y="0px"
	 viewBox="-267 390.9 60 60" style="enable-background:new -267 390.9 60 60;" xml:space="preserve">
<style type="text/css">
	.st0{fill:none;}
</style>
<g>
	
		<rect x="-253" y="419.7" transform="matrix(-0.7071 0.7071 -0.7071 -0.7071 -127.7393 895.8919)" class="st0" width="7.1" height="3.6"/>
	
		<rect x="-238" y="406.9" transform="matrix(0.7071 0.7071 -0.7071 0.7071 229.7732 290.6433)" class="st0" width="4.1" height="31.5"/>
	<path d="M-224,439.9c-2.8,0-5.1-2.3-5.1-5.1c0-2.8,2.3-5.1,5.1-5.1s5.1,2.3,5.1,5.1l0,0h-1.7l2.7,2.6l2.7-2.6h-1.7l0,0
		c0-3.9-3.2-7.1-7.1-7.1c-3.9,0-7.1,3.2-7.1,7.1s3.2,7.1,7.1,7.1c1.1,0,2.2-0.3,3.1-0.7l-1.5-1.5
		C-222.9,439.8-223.4,439.9-224,439.9z"/>
	<path d="M-220.9,413.4l-12.6-12.6c-1.2-1.2-3.1-1.2-4.3,0l-20.1,20.1c-1.2,1.2-1.2,3.1,0,4.3l12.6,12.6c1.2,1.2,3.1,1.2,4.3,0
		l20.1-20.1C-219.7,416.5-219.7,414.6-220.9,413.4z M-253.2,422.7l5-5l2.5,2.5l-5,5L-253.2,422.7z M-245.7,435.3l-2.9-2.9l22.3-22.3
		l2.9,2.9L-245.7,435.3z"/>
</g>
</svg>
