<?xml version="1.0" encoding="utf-8"?>
<!-- Generator: Adobe Illustrator 19.1.0, SVG Export Plug-In . SVG Version: 6.00 Build 0)  -->
<!DOCTYPE svg PUBLIC "-//W3C//DTD SVG 1.1//EN" "http://www.w3.org/Graphics/SVG/1.1/DTD/svg11.dtd">
<svg version="1.1" id="Layer_1" xmlns="http://www.w3.org/2000/svg" xmlns:xlink="http://www.w3.org/1999/xlink" x="0px" y="0px"
	 viewBox="-267 390.9 60 60" style="enable-background:new -267 390.9 60 60;" xml:space="preserve">
<style type="text/css">
	.st0{fill:none;}
	.st1{fill:#FFFFFF;}
	.st2{fill:#010101;}
</style>
<g>
	<path class="st0" d="M-225.2,431.3c-0.3,0.1-0.6,0.2-1,0.3C-225.8,431.5-225.5,431.4-225.2,431.3z"/>
	<path class="st0" d="M-226.1,431.6c-0.3,0.1-0.7,0.2-1,0.3C-226.8,431.8-226.4,431.7-226.1,431.6z"/>
	<path class="st0" d="M-224.4,438c0.7,0,2.1,0,2.8,0v0C-222.3,438-223.7,438-224.4,438L-224.4,438z"/>
	<path class="st0" d="M-227.9,432.2c0.1,0,0.2-0.1,0.4-0.1C-227.6,432.1-227.7,432.2-227.9,432.2L-227.9,432.2z"/>
	<path class="st0" d="M-218.1,432.2L-218.1,432.2c-0.1,0-0.2-0.1-0.4-0.1C-218.3,432.1-218.2,432.2-218.1,432.2z"/>
	<path class="st0" d="M-221.6,431L-221.6,431c0.7,0.2,1.8,0.6,2.7,0.9C-219.8,431.6-220.9,431.2-221.6,431z"/>
	<path class="st0" d="M-218.1,432.2c-1.6-2.2-3.2-4.4-4.9-6.5C-221.3,427.9-219.7,430-218.1,432.2z"/>
	<path class="st0" d="M-224.7,431.1c0.1,0,0.3-0.1,0.4-0.1v0C-224.5,431.1-224.6,431.1-224.7,431.1z"/>
	<path class="st1" d="M-223,424.2c-4.2,0-7.6,3.4-7.6,7.6s3.4,7.6,7.6,7.6s7.6-3.4,7.6-7.6S-218.8,424.2-223,424.2z M-218.1,432.2
		c-0.1,0-0.2-0.1-0.4-0.1c-0.1,0-0.3-0.1-0.4-0.1c-0.9-0.3-2-0.7-2.7-0.9c0,2.3,0,4.6,0,7v0c-0.7,0-2.1,0-2.8,0v0c0-2.3,0-4.6,0-7
		c-0.1,0-0.2,0.1-0.4,0.1c-0.1,0-0.3,0.1-0.4,0.1c-0.3,0.1-0.6,0.2-1,0.3c-0.3,0.1-0.7,0.2-1,0.3c-0.1,0.1-0.3,0.1-0.4,0.1
		c-0.1,0-0.3,0.1-0.4,0.1l0,0h0c1.6-2.2,3.2-4.4,4.9-6.5c0,0,0,0,0,0C-221.3,427.8-219.7,430-218.1,432.2
		C-218.1,432.2-218.1,432.2-218.1,432.2L-218.1,432.2L-218.1,432.2z"/>
	<path d="M-223,423.2c-4.7,0-8.6,3.8-8.6,8.6c0,4.8,3.8,8.6,8.6,8.6c4.8,0,8.6-3.8,8.6-8.6C-214.4,427-218.2,423.2-223,423.2z
		 M-223,439.4c-4.2,0-7.6-3.4-7.6-7.6s3.4-7.6,7.6-7.6s7.6,3.4,7.6,7.6S-218.8,439.4-223,439.4z"/>
	<path class="st2" d="M-218.1,432.2c-1.6-2.2-3.2-4.3-4.9-6.5c0,0,0,0,0,0c-1.7,2.1-3.3,4.3-4.9,6.5h0c0.1,0,0.2-0.1,0.4-0.1
		c0.1,0,0.3-0.1,0.4-0.1c0.3-0.1,0.6-0.2,1-0.3c0.3-0.1,0.7-0.2,1-0.3c0.1-0.1,0.3-0.1,0.4-0.1c0.1,0,0.3-0.1,0.4-0.1v0
		c0,2.4,0,4.7,0,7c0.7,0,2.1,0,2.8,0c0-2.4,0-4.7,0-7v0c0.7,0.2,1.8,0.6,2.7,0.9c0.1,0.1,0.3,0.1,0.4,0.1
		C-218.3,432.1-218.2,432.2-218.1,432.2L-218.1,432.2C-218.1,432.2-218.1,432.2-218.1,432.2z"/>
	<path d="M-220.2,411.6c0-2-0.8-4-2.2-5.4c-1.4-1.4-3.4-2.2-5.4-2.2c-2,0-4,0.8-5.4,2.2l-15.3,15.3c-1,1.1-1.6,2.5-1.6,4
		c0.1,1.4,0.6,2.6,1.6,3.6c1,1,2.4,1.6,3.8,1.6c1.4,0,2.8-0.6,3.8-1.6l11.7-11.7c0.3-0.3,0.5-0.7,0.5-1.1c0-0.9-0.7-1.6-1.6-1.6
		c-0.4,0-0.8,0.2-1.1,0.5v0l-11.7,11.7c-0.4,0.4-1,0.6-1.6,0.6c-0.6,0-1.1-0.2-1.5-0.6c-0.4-0.4-0.6-0.9-0.6-1.5
		c0-0.6,0.2-1.2,0.6-1.6l15.3-15.3c0.8-0.8,2-1.3,3.1-1.3c1.2,0,2.3,0.5,3.1,1.3c0.8,0.8,1.3,2,1.3,3.1c0,1-0.8,2.7-1.8,3.7
		L-243,433c-2.6,2.6-6.8,2.6-9.4,0.1l-0.2-0.2c-2.5-2.6-2.5-6.8,0.1-9.4l14.6-14.6c0.3-0.3,0.5-0.7,0.5-1.1c0-0.9-0.7-1.6-1.6-1.6
		c-0.4,0-0.8,0.2-1.1,0.5l0,0l-14.7,14.7c-1.4,1.4-2.3,3.2-2.7,5v4.1c0.4,1.8,1.2,3.5,2.6,4.9l0.2,0.2c3.9,3.7,10.1,3.7,13.9-0.1
		l17.7-17.7C-221.7,416.2-220.2,413.8-220.2,411.6z"/>
</g>
</svg>
