<?xml version="1.0" encoding="utf-8"?>
<!-- Generator: Adobe Illustrator 19.1.0, SVG Export Plug-In . SVG Version: 6.00 Build 0)  -->
<!DOCTYPE svg PUBLIC "-//W3C//DTD SVG 1.1//EN" "http://www.w3.org/Graphics/SVG/1.1/DTD/svg11.dtd">
<svg version="1.1" id="Layer_1" xmlns="http://www.w3.org/2000/svg" xmlns:xlink="http://www.w3.org/1999/xlink" x="0px" y="0px"
	 viewBox="-281 404.9 32 32" style="enable-background:new -281 404.9 32 32;" xml:space="preserve">
<style type="text/css">
	.st0{fill:#424141;}
	.st1{fill:#FCFCFC;}
</style>
<g>
	<polygon class="st0" points="-263.7,423.4 -267.2,420.2 -263.1,415.7 -260,418.6 -254.3,411 -276.6,411 -268.7,421.4 -268.7,433.1 
		-262.9,430.5 -266.9,426.9 	"/>
	<polygon class="st0" points="-257,423 -253.7,419.5 -256.3,417.1 -259.5,420.7 -263,417.5 -265.5,420.1 -261.9,423.3 -265.1,426.8 
		-262.6,429.1 -259.4,425.6 -255.8,428.9 -253.4,426.3 	"/>
	<path class="st1" d="M-255.2,423l3.2-3.5l-4.4-4.1l-3.3,3.6l-3.5-3.2l-4.1,4.4l3.6,3.2l-3.2,3.5l4.4,4l3.2-3.5l3.6,3.3l4-4.4
		L-255.2,423z M-255.8,428.9l-3.6-3.3l-3.2,3.5l-2.5-2.3l3.2-3.5l-3.6-3.2l2.4-2.6l3.5,3.2l3.3-3.6l2.5,2.4l-3.2,3.5l3.6,3.3
		L-255.8,428.9z"/>
</g>
</svg>
