<?xml version="1.0" encoding="utf-8"?>
<!-- Generator: Adobe Illustrator 22.1.0, SVG Export Plug-In . SVG Version: 6.00 Build 0)  -->
<svg version="1.1" xmlns="http://www.w3.org/2000/svg" xmlns:xlink="http://www.w3.org/1999/xlink" x="0px" y="0px"
	 viewBox="0 0 60 60" enable-background="new 0 0 60 60" xml:space="preserve">
<g id="Layer_1">
</g>
<g id="Layer_5">
	<g>
		<g>
			<path fill="#D3D3D3" d="M25.5,30c0,2.5,2,4.5,4.5,4.5s4.5-2,4.5-4.5s-2-4.5-4.5-4.5S25.5,27.5,25.5,30z"/>
			<path fill="#D3D3D3" d="M51.4,29.3c-2.1-3.7-5.2-6.8-8.9-9C38.8,18.1,34.4,17,30,17c0,0,0,0,0,0c0,0,0,0,0,0
				c-4.4,0-8.8,1.2-12.5,3.4c-3.7,2.2-6.7,5.3-8.9,9L8.2,30l0.4,0.7c2.1,3.7,5.2,6.8,8.9,9C21.2,41.9,25.6,43,30,43c0,0,0,0,0,0
				s0,0,0,0c4.4,0,8.8-1.2,12.5-3.4c3.7-2.2,6.7-5.3,8.9-9l0.4-0.7L51.4,29.3z M40.4,30c0,5.7-4.6,10.4-10.4,10.4c0,0,0,0,0,0
				s0,0,0,0c-5.7,0-10.4-4.7-10.4-10.4S24.3,19.6,30,19.6c0,0,0,0,0,0s0,0,0,0C35.7,19.6,40.4,24.3,40.4,30z M11.3,30
				c2-3.3,4.9-5.9,8.2-7.7C17.9,24.5,17,27.1,17,30s0.9,5.5,2.5,7.7C16.2,35.9,13.3,33.3,11.3,30z M40.5,37.7
				c1.6-2.2,2.5-4.8,2.5-7.7s-0.9-5.5-2.5-7.7c3.3,1.8,6.1,4.4,8.2,7.7C46.7,33.3,43.8,35.9,40.5,37.7z"/>
		</g>
	</g>
</g>
</svg>
