<?xml version="1.0" encoding="utf-8"?>
<!-- Generator: Adobe Illustrator 22.1.0, SVG Export Plug-In . SVG Version: 6.00 Build 0)  -->
<svg version="1.1" xmlns="http://www.w3.org/2000/svg" xmlns:xlink="http://www.w3.org/1999/xlink" x="0px" y="0px"
	 viewBox="0 0 60 60" enable-background="new 0 0 60 60" xml:space="preserve">
<g id="Layer_1">
</g>
<g id="Layer_5">
	<g>
		<path fill="none" d="M11.3,30c2,3.3,4.9,5.9,8.2,7.7C17.9,35.5,17,32.9,17,30s0.9-5.5,2.5-7.7C16.2,24.1,13.3,26.7,11.3,30z"/>
		<path fill="none" d="M30,34.5c-2.5,0-4.5-2-4.5-4.5c0-2.5,2-4.5,4.5-4.5c2,0,3.6,1.3,4.2,3l3.2-5.8c-1.9-1.9-4.5-3.1-7.4-3.1
			c0,0,0,0,0,0c0,0,0,0,0,0c-5.7,0-10.4,4.7-10.4,10.4c0,5,3.5,9.1,8.2,10.1l3.2-5.8C30.7,34.4,30.3,34.5,30,34.5z"/>
		<path fill="none" d="M40.4,30c0-0.8-0.1-1.6-0.3-2.3l-6.7,12.1C37.4,38.4,40.4,34.5,40.4,30z"/>
		<path fill="none" d="M43,30c0,2.9-0.9,5.5-2.5,7.7c3.3-1.8,6.1-4.4,8.2-7.7c-1.6-2.6-3.8-4.8-6.3-6.5l-0.6,1.1
			C42.6,26.2,43,28.1,43,30z"/>
		<path fill="#1E242B" d="M51.4,29.3c-1.9-3.3-4.5-6.1-7.7-8.2l-1.3,2.4c2.5,1.7,4.6,3.9,6.3,6.5c-2,3.3-4.9,5.9-8.2,7.7
			c1.6-2.2,2.5-4.8,2.5-7.7c0-1.9-0.4-3.8-1.2-5.4l-1.7,3.1c0.2,0.7,0.3,1.5,0.3,2.3c0,4.5-2.9,8.4-7,9.8L31.6,43
			c3.9-0.3,7.6-1.4,10.9-3.4c3.7-2.2,6.7-5.3,8.9-9l0.4-0.7L51.4,29.3z"/>
		<path fill="#1E242B" d="M40.8,15.6l-3-1.6c-0.3-0.2-0.7-0.1-0.9,0.3l-1.8,3.3C33.4,17.1,31.7,17,30,17c0,0,0,0,0,0c0,0,0,0,0,0
			c-4.4,0-8.8,1.2-12.5,3.4c-3.7,2.2-6.7,5.3-8.9,9L8.2,30l0.4,0.7c2.1,3.7,5.2,6.8,8.9,9c1.4,0.8,2.8,1.5,4.3,2l-1,1.9
			c-0.2,0.3-0.1,0.7,0.3,0.9l3,1.6c0.3,0.2,0.7,0.1,0.9-0.3l16.3-29.3C41.3,16.2,41.2,15.7,40.8,15.6z M19.5,37.7
			c-3.3-1.8-6.1-4.4-8.2-7.7c2-3.3,4.9-5.9,8.2-7.7C17.9,24.5,17,27.1,17,30S17.9,35.5,19.5,37.7z M30,25.5c-2.5,0-4.5,2-4.5,4.5
			c0,1.1,0.4,2.1,1.1,2.8l-3,5.3c-2.4-1.9-4-4.8-4-8.2c0-5.7,4.6-10.4,10.4-10.4c0,0,0,0,0,0c0,0,0,0,0,0c1.3,0,2.4,0.2,3.6,0.6
			l-2.9,5.3C30.4,25.6,30.2,25.5,30,25.5z"/>
	</g>
</g>
</svg>
