<?xml version="1.0" encoding="UTF-8" standalone="no"?>
<!-- Generator: Adobe Illustrator 16.0.0, SVG Export Plug-In . SVG Version: 6.00 Build 0)  -->

<svg
   xmlns:dc="http://purl.org/dc/elements/1.1/"
   xmlns:cc="http://creativecommons.org/ns#"
   xmlns:rdf="http://www.w3.org/1999/02/22-rdf-syntax-ns#"
   xmlns:svg="http://www.w3.org/2000/svg"
   xmlns="http://www.w3.org/2000/svg"
   xmlns:sodipodi="http://sodipodi.sourceforge.net/DTD/sodipodi-0.dtd"
   xmlns:inkscape="http://www.inkscape.org/namespaces/inkscape"
   version="1.1"
   id="Capa_1"
   x="0px"
   y="0px"
   width="512px"
   height="512px"
   viewBox="0 0 487.23 487.23"
   style="enable-background:new 0 0 487.23 487.23;"
   xml:space="preserve"
   inkscape:version="0.91 r13725"
   sodipodi:docname="tool-refresh.svg"><metadata
     id="metadata45"><rdf:RDF><cc:Work
         rdf:about=""><dc:format>image/svg+xml</dc:format><dc:type
           rdf:resource="http://purl.org/dc/dcmitype/StillImage" /><dc:title /></cc:Work></rdf:RDF></metadata><defs
     id="defs43" /><sodipodi:namedview
     pagecolor="#ffffff"
     bordercolor="#666666"
     borderopacity="1"
     objecttolerance="10"
     gridtolerance="10"
     guidetolerance="10"
     inkscape:pageopacity="0"
     inkscape:pageshadow="2"
     inkscape:window-width="1920"
     inkscape:window-height="1017"
     id="namedview41"
     showgrid="true"
     showguides="true"
     inkscape:guide-bbox="true"
     inkscape:zoom="0.65186406"
     inkscape:cx="189.27992"
     inkscape:cy="347.77599"
     inkscape:window-x="-8"
     inkscape:window-y="-8"
     inkscape:window-maximized="1"
     inkscape:current-layer="g5"><inkscape:grid
       type="xygrid"
       id="grid3373" /><sodipodi:guide
       position="0,875.49141"
       orientation="1,0"
       id="guide3375" /><sodipodi:guide
       position="95.162109,818.39414"
       orientation="1,0"
       id="guide3377" /><sodipodi:guide
       position="494.84297,875.49141"
       orientation="1,0"
       id="guide3379" /><sodipodi:guide
       position="399.68086,837.42656"
       orientation="1,0"
       id="guide3381" /><sodipodi:guide
       position="-570.97266,494.84297"
       orientation="0,1"
       id="guide3383" /><sodipodi:guide
       position="647.10234,399.68086"
       orientation="0,1"
       id="guide3385" /><sodipodi:guide
       position="-228.38906,0"
       orientation="0,1"
       id="guide3387" /><sodipodi:guide
       position="647.10234,95.162109"
       orientation="0,1"
       id="guide3389" /></sodipodi:namedview><g
     id="g3"
     transform="matrix(0.65998257,0,0,0.61648444,87.212789,90.510452)"><g
       id="g5"><path
         d="m -12.970837,182.93732 c 21.0693511,0 40.100904,-12.6047 48.250748,-31.96939 C 68.929803,71.085964 148.05421,14.789043 240.29717,14.789043 c 50.84004,0 97.44979,17.362439 134.8175,46.159563 l -29.28915,4.517852 c -10.00472,1.545265 -17.78736,9.453853 -19.14319,19.449149 -1.35855,9.989937 4.04599,19.682353 13.27192,23.812883 l 161.06808,72.19987 c 7.06032,3.15886 15.23977,2.55175 21.74727,-1.61495 6.49674,-4.17344 10.4432,-11.33551 10.48626,-19.04174 l 0.83528,-176.831514 c 0.0564,-10.059626 -6.52499,-18.955951 -16.17325,-21.888333 -9.6644,-2.932383 -20.10493,0.789383 -25.69643,9.163026 L 470.0209,3.9587931 C 410.8306,-54.096486 329.72489,-89.984664 240.29717,-89.984664 c -135.59627,0 -252.178492,82.5060924 -301.900761,199.771914 -6.905646,16.25409 -5.165111,34.86561 4.612284,49.57041 9.777396,14.71017 26.304407,23.57966 44.02047,23.57966 z"
         id="path7"
         inkscape:connector-curvature="0"
         style="fill:#4d4d4d" /><path
         d="m 537.58701,313.66557 c -9.77874,-14.71151 -26.3071,-23.57967 -44.02181,-23.57967 -21.06936,0 -40.1009,12.60468 -48.25075,31.96941 -33.65123,79.88197 -112.77564,136.17889 -205.01728,136.17889 -50.84136,0 -97.45112,-17.36245 -134.82017,-46.15958 l 29.2905,-4.51517 c 10.00337,-1.54527 17.786,-9.45517 19.14452,-19.45181 1.3572,-9.98862 -4.04599,-19.68236 -13.2719,-23.81289 L -20.427968,292.09488 c -7.061674,-3.15756 -15.239768,-2.55311 -21.748616,1.61495 -6.495397,4.17342 -10.443209,11.33551 -10.484905,19.0404 l -0.836641,176.83149 c -0.0565,10.05964 6.523643,18.95596 16.173254,21.88836 9.664409,2.93238 20.106273,-0.79073 25.696431,-9.16571 l 22.200563,-33.24395 c 59.188955,58.05795 140.296002,93.94614 229.723722,93.94614 135.59897,0 252.17715,-82.50476 301.89808,-199.77056 6.90967,-16.2541 5.16913,-34.86427 -4.60691,-49.57043 z"
         id="path9"
         inkscape:connector-curvature="0"
         style="fill:#4d4d4d" /></g></g><g
     id="g11" /><g
     id="g13" /><g
     id="g15" /><g
     id="g17" /><g
     id="g19" /><g
     id="g21" /><g
     id="g23" /><g
     id="g25" /><g
     id="g27" /><g
     id="g29" /><g
     id="g31" /><g
     id="g33" /><g
     id="g35" /><g
     id="g37" /><g
     id="g39" /></svg>