<?xml version="1.0" encoding="utf-8"?>
<!-- Generator: Adobe Illustrator 19.1.0, SVG Export Plug-In . SVG Version: 6.00 Build 0)  -->
<!DOCTYPE svg PUBLIC "-//W3C//DTD SVG 1.1//EN" "http://www.w3.org/Graphics/SVG/1.1/DTD/svg11.dtd">
<svg version="1.1" id="Layer_1" xmlns="http://www.w3.org/2000/svg" xmlns:xlink="http://www.w3.org/1999/xlink" x="0px" y="0px"
	 viewBox="-267 390.9 60 60" style="enable-background:new -267 390.9 60 60;" xml:space="preserve">
<style type="text/css">
	.st0{fill:none;}
	.st1{fill:#FFFFFF;}
</style>
<g>
	<path class="st0" d="M-231.4,403.3H-242c-1.1,0-2.1,2-2.4,3.4h15.4C-229.3,405.3-230.2,403.3-231.4,403.3z"/>
	<path d="M-257.7,443h0.8c0.7,0,1.2-0.5,1.2-1.2V408c0-0.7-0.5-1.2-1.2-1.2h-0.8c-2.7,0-5.9,2.2-5.9,4.9v26.4
		C-263.6,440.8-260.4,443-257.7,443z"/>
	<path d="M-247.4,406.7h-5c-0.7,0-1.2,0.5-1.2,1.2v33.8c0,0.7,0.5,1.2,1.2,1.2h31c0.7,0,1.2-0.5,1.2-1.2V408c0-0.7-0.5-1.2-1.2-1.2
		h-4.6c-0.3-2.7-2.4-6.2-4.9-6.2h-11.7C-245,400.6-247.1,404.1-247.4,406.7z M-242,403.3h10.7c1.1,0,2.1,2,2.4,3.4h-15.4
		C-244.1,405.3-243.2,403.3-242,403.3z M-239,422.1v-6.1c0-1.1,0.9-2,2-2s2,0.9,2,2v6.1h6.1c1.1,0,2,0.9,2,2s-0.9,2-2,2h-6.1v6.1
		c0,1.1-0.9,2-2,2s-2-0.9-2-2V426h-6.1c-1.1,0-2-0.9-2-2s0.9-2,2-2H-239z"/>
	<path d="M-210.4,410.9c-0.5-2.3-3.4-4.1-5.8-4.1h-0.7c-0.7,0-1.2,0.5-1.2,1.2v33.8c0,0.7,0.5,1.2,1.2,1.2h0.7
		c2.4,0,5.3-1.8,5.8-4.1V410.9z"/>
	<path class="st1" d="M-247,424.1c0,1.1,0.9,2,2,2h6.1v6.1c0,1.1,0.9,2,2,2s2-0.9,2-2V426h6.1c1.1,0,2-0.9,2-2s-0.9-2-2-2h-6.1v-6.1
		c0-1.1-0.9-2-2-2s-2,0.9-2,2v6.1h-6.1C-246.1,422.1-247,423-247,424.1z"/>
</g>
</svg>
