<?xml version="1.0" encoding="utf-8"?>
<!-- Generator: Adobe Illustrator 19.1.0, SVG Export Plug-In . SVG Version: 6.00 Build 0)  -->
<!DOCTYPE svg PUBLIC "-//W3C//DTD SVG 1.1//EN" "http://www.w3.org/Graphics/SVG/1.1/DTD/svg11.dtd">
<svg version="1.1" id="Layer_1" xmlns="http://www.w3.org/2000/svg" xmlns:xlink="http://www.w3.org/1999/xlink" x="0px" y="0px"
	 viewBox="-267 390.9 60 60" style="enable-background:new -267 390.9 60 60;" xml:space="preserve">
<style type="text/css">
	.st0{fill:none;}
</style>
<g id="Layer_1_1_">
</g>
<g>
	<path class="st0" d="M-237,403.1c-9.9,0-17.8,8-17.8,17.8s8,17.8,17.8,17.8s17.8-8,17.8-17.8S-227.1,403.1-237,403.1z M-241.5,438
		l-12.8-12.7l17.6-4.6l4.7-16.8l12.1,12.4l-16.8,4.4L-241.5,438z"/>
	<path d="M-237,400.7c-11,0-20.2,8.9-20.2,20.2s8.9,20.2,20.2,20.2s20.2-8.9,20.2-20.2S-225.7,400.7-237,400.7z M-237,438.7
		c-9.9,0-17.8-8-17.8-17.8s8-17.8,17.8-17.8s17.8,8,17.8,17.8S-227.1,438.7-237,438.7z"/>
	<g>
		<polygon points="-241.5,438 -236.7,420.6 -254.3,425.3 		"/>
		<polygon points="-232,403.8 -236.7,420.6 -219.9,416.2 		"/>
	</g>
</g>
</svg>
