<?xml version="1.0" encoding="UTF-8" standalone="no"?>
<!-- Generator: Adobe Illustrator 19.1.0, SVG Export Plug-In . SVG Version: 6.00 Build 0)  -->

<svg
   xmlns:dc="http://purl.org/dc/elements/1.1/"
   xmlns:cc="http://creativecommons.org/ns#"
   xmlns:rdf="http://www.w3.org/1999/02/22-rdf-syntax-ns#"
   xmlns:svg="http://www.w3.org/2000/svg"
   xmlns="http://www.w3.org/2000/svg"
   xmlns:sodipodi="http://sodipodi.sourceforge.net/DTD/sodipodi-0.dtd"
   xmlns:inkscape="http://www.inkscape.org/namespaces/inkscape"
   version="1.1"
   id="Layer_1"
   x="0px"
   y="0px"
   viewBox="-281 404.9 32 32"
   style="enable-background:new -281 404.9 32 32;"
   xml:space="preserve"
   inkscape:version="0.91 r13725"
   sodipodi:docname="tool-check.svg"><metadata
     id="metadata17"><rdf:RDF><cc:Work
         rdf:about=""><dc:format>image/svg+xml</dc:format><dc:type
           rdf:resource="http://purl.org/dc/dcmitype/StillImage" /></cc:Work></rdf:RDF></metadata><defs
     id="defs15" /><sodipodi:namedview
     pagecolor="#ffffff"
     bordercolor="#666666"
     borderopacity="1"
     objecttolerance="10"
     gridtolerance="10"
     guidetolerance="10"
     inkscape:pageopacity="0"
     inkscape:pageshadow="2"
     inkscape:window-width="1033"
     inkscape:window-height="816"
     id="namedview13"
     showgrid="false"
     inkscape:zoom="7.375"
     inkscape:cx="16"
     inkscape:cy="16"
     inkscape:window-x="0"
     inkscape:window-y="0"
     inkscape:window-maximized="0"
     inkscape:current-layer="Layer_1" /><style
     type="text/css"
     id="style3">
	.st0{fill:#424141;}
	.st1{fill:#FCFCFC;}
</style><path
     style="fill:#424141;fill-opacity:1;stroke:none;stroke-width:0"
     d="M 16.134766 0.27148438 A 15.593221 15.59322 0 0 0 0.54296875 15.865234 A 15.593221 15.59322 0 0 0 16.134766 31.457031 A 15.593221 15.59322 0 0 0 31.728516 15.865234 A 15.593221 15.59322 0 0 0 16.134766 0.27148438 z M 24.462891 7.0566406 L 24.558594 7.5273438 C 23.460706 8.5930806 21.55618 10.975094 18.84375 14.673828 C 16.195902 18.372562 14.291376 21.286495 13.128906 23.417969 C 12.87058 23.982182 12.547646 24.327744 12.160156 24.453125 C 11.966411 24.641196 11.546207 24.703315 10.900391 24.640625 C 10.448319 24.703315 10.125386 24.641196 9.9316406 24.453125 C 9.7378957 24.327744 9.5433543 24.077314 9.3496094 23.701172 C 8.7037928 22.196602 8.2193926 20.91144 7.8964844 19.845703 C 7.8964844 19.594942 7.8653629 19.375571 7.8007812 19.1875 C 7.8007812 18.623286 8.1879108 18.120473 8.9628906 17.681641 C 9.4795439 17.430879 9.8666734 17.306641 10.125 17.306641 C 10.447908 17.369331 10.673571 17.557642 10.802734 17.871094 C 11.190224 18.748759 11.448962 19.342798 11.578125 19.65625 C 11.707288 19.907012 11.837634 20.033203 11.966797 20.033203 C 12.09596 20.033203 12.224352 19.940024 12.353516 19.751953 C 14.549292 15.990529 16.519967 13.074643 18.263672 11.005859 C 19.619887 9.4385993 20.458342 8.5300585 20.78125 8.2792969 C 21.814556 7.527012 23.042094 7.119331 24.462891 7.0566406 z "
     id="path3349"
     transform="translate(-281,404.89999)" /></svg>