<?xml version="1.0" encoding="utf-8"?>
<!-- Generator: Adobe Illustrator 21.0.2, SVG Export Plug-In . SVG Version: 6.00 Build 0)  -->
<svg version="1.1" xmlns="http://www.w3.org/2000/svg" xmlns:xlink="http://www.w3.org/1999/xlink" x="0px" y="0px"
	 viewBox="0 0 60 60" enable-background="new 0 0 60 60" xml:space="preserve">
<g id="Layer_1">
</g>
<g id="Layer_3">
</g>
<g id="Layer_2">
	<path fill="#FFFFFF" d="M39.708,51.337H14c-1.128,0-2.042-0.914-2.042-2.042V15.208c0-1.128,0.914-2.042,2.042-2.042h25.708
		c1.128,0,2.042,0.914,2.042,2.042v34.087C41.75,50.423,40.836,51.337,39.708,51.337z"/>
	<polygon fill="#FFFFFF" points="30.722,37.694 28.621,40.632 18,41 17,40 17,36 21,36 30,35 	"/>
	<g>
		<g>
			<path d="M35.669,45.775c-0.336,0.475-0.828,0.82-1.389,0.975l-2.79,0.762c-0.219,0.062-0.445,0.094-0.673,0.094
				c-0.514,0-1.011-0.157-1.43-0.452c-0.615-0.428-1.001-1.103-1.062-1.834l-0.245-2.881c-0.058-0.591,0.101-1.183,0.437-1.659
				l0.103-0.148h-9.952c-0.803,0-1.454-0.662-1.454-1.463c0-0.804,0.651-1.466,1.454-1.466h12.046l1.303-1.861l1.389-1.984H18.668
				c-0.803,0-1.454-0.662-1.454-1.465c0-0.803,0.651-1.465,1.454-1.465l16.811-0.043l1.368-1.962l4.936-7.077v-6.693
				c0-1.1-0.851-1.988-1.948-1.988h-4.826v3.819c0,1.803-1.474,3.229-3.274,3.229h-9.706c-1.804,0-3.227-1.427-3.227-3.229v-3.819
				h-4.878c-1.099,0-1.988,0.889-1.988,1.988v34.153c0,1.1,0.89,2.037,1.988,2.037h25.909c1.1,0,1.949-0.938,1.949-2.037V37.094
				L35.669,45.775z M18.668,24.153h16.424c0.801,0,1.453,0.661,1.453,1.464c0,0.803-0.652,1.465-1.453,1.465H18.668
				c-0.803,0-1.454-0.662-1.454-1.465C17.214,24.813,17.865,24.153,18.668,24.153z"/>
			<path d="M22.056,18.292h9.697c0.734,0,1.331-0.596,1.331-1.332v-5.577c0-0.736-0.597-1.332-1.331-1.332h-1.461
				c-0.01-1.875-1.534-3.395-3.413-3.395c-1.88,0-3.402,1.519-3.413,3.395h-1.41c-0.736,0-1.331,0.596-1.331,1.332v5.576
				C20.725,17.695,21.32,18.292,22.056,18.292z M26.88,8.547c0.835,0,1.512,0.672,1.521,1.505h-3.045
				C25.366,9.219,26.044,8.547,26.88,8.547z"/>
			<path d="M54.05,15.634c-0.045-0.248-0.186-0.465-0.392-0.609l-2.428-1.692c-0.164-0.115-0.353-0.17-0.539-0.17
				c-0.296,0-0.591,0.14-0.772,0.403L32.72,38.229l3.973,2.771l17.201-24.662C54.036,16.133,54.093,15.88,54.05,15.634z"/>
			<path d="M30.011,42.257l0.249,2.896c0.012,0.167,0.101,0.316,0.236,0.412c0.096,0.066,0.209,0.104,0.321,0.104
				c0.049,0,0.099-0.007,0.147-0.021l2.805-0.768c0.127-0.035,0.237-0.113,0.313-0.22l1.053-1.51l-3.976-2.772l-1.053,1.51
				C30.032,41.994,29.997,42.126,30.011,42.257z"/>
		</g>
		<rect x="15.906" y="23.031" width="21.125" height="4.5"/>
		<polygon points="16.385,35.698 16.76,29.031 21.927,26.781 31.885,25.031 37.648,27.743 31.101,37.12 		"/>
		
			<polyline fill="none" stroke="#FFFFFF" stroke-width="2.5" stroke-linecap="round" stroke-linejoin="round" stroke-miterlimit="10" points="
			18.406,27.187 22.156,27.187 24.093,30.406 27.906,23.906 29.906,27.281 34.218,27.281 		"/>
	</g>
</g>
</svg>
