<?xml version="1.0" encoding="utf-8"?>
<!-- Generator: Adobe Illustrator 19.1.0, SVG Export Plug-In . SVG Version: 6.00 Build 0)  -->
<!DOCTYPE svg PUBLIC "-//W3C//DTD SVG 1.1//EN" "http://www.w3.org/Graphics/SVG/1.1/DTD/svg11.dtd">
<svg version="1.1" id="Layer_1" xmlns="http://www.w3.org/2000/svg" xmlns:xlink="http://www.w3.org/1999/xlink" x="0px" y="0px"
	 viewBox="-267 390.9 60 60" style="enable-background:new -267 390.9 60 60;" xml:space="preserve">
<g>
	<g>
		<path d="M-217.4,435.5H-231c-0.9,0-1.6-0.8-1.6-1.6c0-0.9,0.8-1.6,1.6-1.6h13.5c0.9,0,1.6,0.8,1.6,1.6
			C-215.8,434.8-216.6,435.5-217.4,435.5z"/>
	</g>
	<path d="M-221,411.3c0-2-0.8-4-2.2-5.4s-3.4-2.2-5.4-2.2s-4,0.8-5.4,2.2l-15.3,15.3c-1,1.1-1.6,2.5-1.6,4c0.1,1.4,0.6,2.6,1.6,3.6
		s2.4,1.6,3.8,1.6c1.4,0,2.8-0.6,3.8-1.6l11.7-11.7c0.3-0.3,0.5-0.7,0.5-1.1c0-0.9-0.7-1.6-1.6-1.6c-0.4,0-0.8,0.2-1.1,0.5l0,0
		l-11.7,11.7c-0.4,0.4-1,0.6-1.6,0.6s-1.1-0.2-1.5-0.6s-0.6-0.9-0.6-1.5s0.2-1.2,0.6-1.6l15.3-15.3c0.8-0.8,2-1.3,3.1-1.3
		c1.2,0,2.3,0.5,3.1,1.3c0.8,0.8,1.3,2,1.3,3.1c0,1-0.8,2.7-1.8,3.7l-17.7,17.7c-2.6,2.6-6.8,2.6-9.4,0.1l-0.2-0.2
		c-2.5-2.6-2.5-6.8,0.1-9.4l14.6-14.6c0.3-0.3,0.5-0.7,0.5-1.1c0-0.9-0.7-1.6-1.6-1.6c-0.4,0-0.8,0.2-1.1,0.5l0,0l-14.7,14.7
		c-1.4,1.4-2.3,3.2-2.7,5v4.1c0.4,1.8,1.2,3.5,2.6,4.9l0.2,0.2c3.9,3.7,10.1,3.7,13.9-0.1l17.7-17.7
		C-222.4,415.9-221,413.5-221,411.3z"/>
</g>
</svg>
