<?xml version="1.0" encoding="utf-8"?>
<!-- Generator: Adobe Illustrator 19.1.0, SVG Export Plug-In . SVG Version: 6.00 Build 0)  -->
<!DOCTYPE svg PUBLIC "-//W3C//DTD SVG 1.1//EN" "http://www.w3.org/Graphics/SVG/1.1/DTD/svg11.dtd">
<svg version="1.1" id="Layer_1" xmlns="http://www.w3.org/2000/svg" xmlns:xlink="http://www.w3.org/1999/xlink" x="0px" y="0px"
	 viewBox="-509 396 60 60" style="enable-background:new -509 396 60 60;" xml:space="preserve">
<path d="M-461.5,414.7l-5.9-7.5c-0.4-0.6-1-0.9-1.6-0.9c-0.7,0-1.3,0.3-1.6,0.9l-5.8,7.5c-0.6,0.9-0.3,2.2,0.6,2.8s2.1,0.3,2.7-0.6
	l1.7-2.1v6c0,4.8-2.9,7.2-6.1,7.8c-1,0.2-1.7,0.2-2.9,0c-3.3-0.5-6.2-3-6.2-7.8v-6l1.9,2.1c0.6,0.9,1.8,1.2,2.7,0.6s1.2-1.8,0.6-2.8
	l-5.9-7.5c-0.4-0.6-1-0.9-1.6-0.9c-0.7,0-1.3,0.3-1.6,0.9l-5.8,7.5c-0.2,0.3-0.3,0.7-0.3,1.1c0,0.7,0.3,1.3,0.9,1.7
	c0.9,0.6,2.1,0.3,2.7-0.6l1.7-2.1v6c0,5,2.1,8,3.9,9.7c0.3,0.2,0.5,0.5,0.8,0.7c-2.8,2.2-4.7,5.6-4.7,10.3v4.4h4.9v-4.4
	c0-4.7,2.9-7.2,6.1-7.8c1.1-0.2,1.7-0.3,2.9,0c3.3,0.5,6.2,3,6.2,7.8v4.4h4.9v-4.4c0-4.7-2-8.2-4.7-10.4c2.8-2.2,4.7-5.6,4.7-10.3
	v-6l1.9,2.1c0.6,0.9,1.8,1.2,2.7,0.6c0.6-0.4,0.9-1,0.9-1.7C-461.2,415.4-461.2,415-461.5,414.7z"/>
</svg>
