<?xml version="1.0" encoding="utf-8"?>
<!-- Generator: Adobe Illustrator 19.1.0, SVG Export Plug-In . SVG Version: 6.00 Build 0)  -->
<!DOCTYPE svg PUBLIC "-//W3C//DTD SVG 1.1//EN" "http://www.w3.org/Graphics/SVG/1.1/DTD/svg11.dtd">
<svg version="1.1" id="Layer_1" xmlns="http://www.w3.org/2000/svg" xmlns:xlink="http://www.w3.org/1999/xlink" x="0px" y="0px"
	 viewBox="-267 390.9 60 60" style="enable-background:new -267 390.9 60 60;" xml:space="preserve">
<style type="text/css">
	.st0{fill:none;}
	.st1{fill:#FFFFFF;}
</style>
<g>
	<polygon class="st0" points="-237,410 -239.2,410 -239.2,409.5 -246,411.3 -246,412.7 -243.2,418.1 -241.1,418.1 -241.1,423 
		-243.1,423 -247.9,427.6 -247.9,427.8 -227.5,431.2 -227.5,430.5 	"/>
	<rect x="-250.3" y="408.8" class="st1" width="3.7" height="3.7"/>
	<rect x="-238.6" y="405.7" class="st1" width="3.7" height="3.7"/>
	<rect x="-226.9" y="431" class="st1" width="3.7" height="3.7"/>
	<path d="M-224.8,430.4l-9.5-20.4v-4.9h-4.9v1.8l-6.8,1.8v-0.5h-4.9v4.9h2.4l2.6,4.9h-0.1v4.3l-3.8,3.7h-3v4.9h4.9v-0.7l20.4,3.4
		v1.6h4.9v-4.9H-224.8z M-223.2,434.7h-3.7V431h3.7V434.7z M-234.9,405.7v3.7h-3.7v-3.7H-234.9z M-250.3,408.8h3.7v3.7h-3.7V408.8z
		 M-245.4,418.7h3.7v3.7h-3.7V418.7z M-248.5,430.4h-3.7v-3.7h3.7V430.4z M-247.9,427.8v-0.2l4.8-4.6h2v-4.9h-2.1l-2.8-5.4v-1.4
		l6.8-1.8v0.5h2.3l9.5,20.5v0.7L-247.9,427.8z"/>
	<rect x="-245.4" y="418.7" class="st1" width="3.7" height="3.7"/>
	<rect x="-252.2" y="426.7" class="st1" width="3.7" height="3.7"/>
</g>
<g>
	<title>Layer 1</title>
	<g id="Layer_1_3_">
	</g>
	<g id="Layer_3_2_">
	</g>
</g>
<g id="Layer_1_1_">
</g>
<g id="Layer_3">
</g>
</svg>
