<?xml version="1.0" encoding="UTF-8" standalone="no"?>
<!-- Generator: Adobe Illustrator 19.1.0, SVG Export Plug-In . SVG Version: 6.00 Build 0)  -->

<svg
   xmlns:dc="http://purl.org/dc/elements/1.1/"
   xmlns:cc="http://creativecommons.org/ns#"
   xmlns:rdf="http://www.w3.org/1999/02/22-rdf-syntax-ns#"
   xmlns:svg="http://www.w3.org/2000/svg"
   xmlns="http://www.w3.org/2000/svg"
   xmlns:sodipodi="http://sodipodi.sourceforge.net/DTD/sodipodi-0.dtd"
   xmlns:inkscape="http://www.inkscape.org/namespaces/inkscape"
   version="1.1"
   id="Layer_1"
   x="0px"
   y="0px"
   viewBox="-267 390.9 60 60"
   style="enable-background:new -267 390.9 60 60;"
   xml:space="preserve"
   inkscape:version="0.91 r13725"
   sodipodi:docname="tool-polygon-select.svg"><metadata
     id="metadata33"><rdf:RDF><cc:Work
         rdf:about=""><dc:format>image/svg+xml</dc:format><dc:type
           rdf:resource="http://purl.org/dc/dcmitype/StillImage" /></cc:Work></rdf:RDF></metadata><defs
     id="defs31" /><sodipodi:namedview
     pagecolor="#ffffff"
     bordercolor="#666666"
     borderopacity="1"
     objecttolerance="10"
     gridtolerance="10"
     guidetolerance="10"
     inkscape:pageopacity="0"
     inkscape:pageshadow="2"
     inkscape:window-width="1920"
     inkscape:window-height="1017"
     id="namedview29"
     showgrid="false"
     inkscape:zoom="3.9333333"
     inkscape:cx="-56.57329"
     inkscape:cy="34.067797"
     inkscape:window-x="-8"
     inkscape:window-y="-8"
     inkscape:window-maximized="1"
     inkscape:current-layer="Layer_1" /><style
     type="text/css"
     id="style3">
	.st0{fill:none;}
	.st1{fill:#FFFFFF;}
</style><g
     id="g5"
     transform="translate(-8.3898305,9.9152542)"><polygon
       class="st0"
       points="-239.2,410 -239.2,409.5 -246,411.3 -246,412.7 -243.2,418.1 -241.1,418.1 -241.1,423 -243.1,423 -247.9,427.6 -247.9,427.8 -227.5,431.2 -227.5,430.5 -237,410 "
       id="polygon7"
       style="fill:none" /><rect
       x="-250.3"
       y="408.79999"
       class="st1"
       width="3.7"
       height="3.7"
       id="rect9"
       style="fill:#ffffff" /><rect
       x="-238.60001"
       y="405.70001"
       class="st1"
       width="3.7"
       height="3.7"
       id="rect11"
       style="fill:#ffffff" /><rect
       x="-226.89999"
       y="431"
       class="st1"
       width="3.7"
       height="3.7"
       id="rect13"
       style="fill:#ffffff" /><path
       d="m -224.8,430.4 -9.5,-20.4 0,-4.9 -4.9,0 0,1.8 -6.8,1.8 0,-0.5 -4.9,0 0,4.9 2.4,0 2.6,4.9 -0.1,0 0,4.3 -3.8,3.7 -3,0 0,4.9 4.9,0 0,-0.7 20.4,3.4 0,1.6 4.9,0 0,-4.9 -2.2,0 z m 1.6,4.3 -3.7,0 0,-3.7 3.7,0 0,3.7 z m -11.7,-29 0,3.7 -3.7,0 0,-3.7 3.7,0 z m -15.4,3.1 3.7,0 0,3.7 -3.7,0 0,-3.7 z m 4.9,9.9 3.7,0 0,3.7 -3.7,0 0,-3.7 z m -3.1,11.7 -3.7,0 0,-3.7 3.7,0 0,3.7 z m 0.6,-2.6 0,-0.2 4.8,-4.6 2,0 0,-4.9 -2.1,0 -2.8,-5.4 0,-1.4 6.8,-1.8 0,0.5 2.3,0 9.5,20.5 0,0.7 -20.5,-3.4 z"
       id="path15"
       inkscape:connector-curvature="0" /><rect
       x="-245.39999"
       y="418.70001"
       class="st1"
       width="3.7"
       height="3.7"
       id="rect17"
       style="fill:#ffffff" /><rect
       x="-252.2"
       y="426.70001"
       class="st1"
       width="3.7"
       height="3.7"
       id="rect19"
       style="fill:#ffffff" /></g><g
     id="g21"><title
       id="title23">Layer 1</title><g
       id="Layer_1_3_" /><g
       id="Layer_3_2_" /></g><g
     id="Layer_1_1_" /><g
     id="Layer_3" /><g
     style="fill:#000000"
     id="g3434"
     transform="matrix(0.75,0,0,0.75,-191.98305,220.44236)"><path
       id="path3426"
       d="m -28.540913,257.87488 1.38731,-2.95963 1.1875,0 -2,12 -30,0 0,-2.32007 10.36081,-12.22537 -10.36081,-10.36081 0,-7.09375 30.625,0 1.375,8 -1.07425,0 -0.585,-1.21506 0,6e-5 c -1.10368,-2.29263 -1.9345,-2.785 -4.34075,-2.785 l -20.6875,0 11.033,11.033 -9.29437,10.967 16.94887,0 c 3.62525,0 4.58275,-1.29932 5.42519,-3.04038 z"
       inkscape:connector-curvature="0"
       style="fill:#000000" /></g></svg>