<?xml version="1.0" encoding="utf-8"?>
<!-- Generator: Adobe Illustrator 19.1.0, SVG Export Plug-In . SVG Version: 6.00 Build 0)  -->
<!DOCTYPE svg PUBLIC "-//W3C//DTD SVG 1.1//EN" "http://www.w3.org/Graphics/SVG/1.1/DTD/svg11.dtd">
<svg version="1.1" id="Layer_1" xmlns="http://www.w3.org/2000/svg" xmlns:xlink="http://www.w3.org/1999/xlink" x="0px" y="0px"
	 viewBox="-267 390.9 60 60" style="enable-background:new -267 390.9 60 60;" xml:space="preserve">
<style type="text/css">
	.st0{fill:#FFFFFF;}
</style>
<g>
	<path d="M-256,407.9c-0.5,0-1.5,0-2,0c0,4.7,0,9.3,0,14c0.5,0,1.5,0,2,0C-256,417.2-256,412.6-256,407.9z"/>
	<path d="M-216,407.9c-0.5,0-1.5,0-2.1,0c0,4.7,0,9.3,0,14c0.5,0,1.5,0,2.1,0C-216,417.2-216,412.6-216,407.9z"/>
	<path d="M-258,423.9c0,3.3,0,6.7,0,10c14,0,28,0,42.1,0c0-3.3,0-6.7,0-10C-230,423.9-244,423.9-258,423.9z M-217.9,428.9
		c-1.4,0-2.7,0-4.1,0c0,0.5,0,1.5,0,2c-0.5,0-1.5,0-2,0c0-0.5,0-1.5,0-2c-2,0-4,0-6,0c0,0.5,0,1.5,0,2c-0.5,0-1.5,0-2,0
		c0-0.5,0-1.5,0-2c-2,0-4,0-6,0c0,0.5,0,1.5,0,2c-0.5,0-1.5,0-2,0c0-0.5,0-1.5,0-2c-2,0-4,0-6,0c0,0.5,0,1.5,0,2c-0.5,0-1.5,0-2,0
		c0-0.5,0-1.5,0-2c-2,0-4,0-6,0c0,0.5,0,1.5,0,2c-0.5,0-1.5,0-2,0c0-1.3,0-2.7,0-4c12.7,0,25.4,0,38.1,0
		C-217.9,427.4-217.9,428.4-217.9,428.9z"/>
	<path class="st0" d="M-256.1,430.9c0.5,0,1.5,0,2,0c0-0.5,0-1.5,0-2c2,0,4,0,6,0c0,0.5,0,1.5,0,2c0.5,0,1.5,0,2,0c0-0.5,0-1.5,0-2
		c2,0,4,0,6,0c0,0.5,0,1.5,0,2c0.5,0,1.5,0,2,0c0-0.5,0-1.5,0-2c2,0,4,0,6,0c0,0.5,0,1.5,0,2c0.5,0,1.5,0,2,0c0-0.5,0-1.5,0-2
		c2,0,4,0,6,0c0,0.5,0,1.5,0,2c0.5,0,1.5,0,2,0c0-0.5,0-1.5,0-2c1.4,0,2.7,0,4.1,0c0-0.5,0-1.5,0-2c-12.7,0-25.4,0-38.1,0
		C-256.1,428.2-256.1,429.5-256.1,430.9z"/>
	<polygon points="-250.6,417.6 -223.4,417.6 -224,419.1 -218.8,416.9 -224,414.7 -223.4,416.1 -250.6,416.1 -250,414.7 
		-255.2,416.9 -250,419.1 	"/>
</g>
</svg>
