<?xml version="1.0" encoding="UTF-8" standalone="no"?>
<!-- Generator: Adobe Illustrator 19.1.0, SVG Export Plug-In . SVG Version: 6.00 Build 0)  -->

<svg
   xmlns:dc="http://purl.org/dc/elements/1.1/"
   xmlns:cc="http://creativecommons.org/ns#"
   xmlns:rdf="http://www.w3.org/1999/02/22-rdf-syntax-ns#"
   xmlns:svg="http://www.w3.org/2000/svg"
   xmlns="http://www.w3.org/2000/svg"
   xmlns:sodipodi="http://sodipodi.sourceforge.net/DTD/sodipodi-0.dtd"
   xmlns:inkscape="http://www.inkscape.org/namespaces/inkscape"
   version="1.1"
   id="Layer_1"
   x="0px"
   y="0px"
   viewBox="-509 396 60 60"
   xml:space="preserve"
   inkscape:version="0.91 r13725"
   sodipodi:docname="tool-background-layer.svg"
   width="60"
   height="60"><metadata
     id="metadata33"><rdf:RDF><cc:Work
         rdf:about=""><dc:format>image/svg+xml</dc:format><dc:type
           rdf:resource="http://purl.org/dc/dcmitype/StillImage" /><dc:title /></cc:Work></rdf:RDF></metadata><defs
     id="defs31" /><sodipodi:namedview
     pagecolor="#ffffff"
     bordercolor="#666666"
     borderopacity="1"
     objecttolerance="10"
     gridtolerance="10"
     guidetolerance="10"
     inkscape:pageopacity="0"
     inkscape:pageshadow="2"
     inkscape:window-width="1680"
     inkscape:window-height="1028"
     id="namedview29"
     showgrid="false"
     inkscape:zoom="11.125147"
     inkscape:cx="36.458696"
     inkscape:cy="33.371465"
     inkscape:window-x="1672"
     inkscape:window-y="-8"
     inkscape:window-maximized="1"
     inkscape:current-layer="g5" /><style
     type="text/css"
     id="style3">
	.st0{opacity:0.7;fill:#FFFFFF;}
</style><g
     id="g5"><polygon
       class="st0"
       points="-493.8,405.4 -493.8,430.8 -491.3,430.8 -482.6,410.2 -477,412.5 -477,405.4 "
       id="polygon17"
       style="opacity:0.7;fill:#ffffff"
       transform="matrix(0.99992682,0,0,1.0673279,-0.30469758,-29.453408)" /><polygon
       class="st0"
       points="-485.7,430.8 -479.6,416.6 -477,417.7 -477,412.5 -482.6,410.2 -491.3,430.8 "
       id="polygon19"
       style="opacity:0.7;fill:#ffffff"
       transform="matrix(1.2941094,0,0,1.2538331,139.90451,-110.56085)" /><polygon
       class="st0"
       points="-485.7,430.8 -479.6,416.6 -477,417.7 -477,412.5 -482.6,410.2 -491.3,430.8 "
       id="polygon21"
       style="opacity:0.7;fill:#ffffff"
       transform="matrix(1.2941094,0,0,1.2538331,139.90451,-110.56085)" /><polygon
       points="-479.6,416.6 -485.7,430.8 -477,430.8 -477,417.7 "
       id="polygon23"
       transform="matrix(1.2941094,0,0,1.2538331,139.90451,-110.56085)" /><polygon
       class="st0"
       points="-479.6,416.6 -485.7,430.8 -477,430.8 -477,417.7 "
       id="polygon25"
       style="opacity:0.7;fill:#ffffff"
       transform="matrix(1.2941094,0,0,1.2538331,139.90451,-110.56085)" /><polygon
       class="st0"
       points="-479.6,416.6 -485.7,430.8 -477,430.8 -477,417.7 "
       id="polygon27"
       style="opacity:0.7;fill:#ffffff"
       transform="matrix(1.2941094,0,0,1.2538331,139.90451,-110.56085)" /><rect
       style="fill:#434343;fill-opacity:1;stroke:#000000;stroke-width:0.13355812;stroke-miterlimit:4;stroke-dasharray:none;stroke-opacity:1"
       id="rect4165"
       width="22.679651"
       height="33.066921"
       x="-262.84973"
       y="562.40027"
       ry="0"
       transform="matrix(0.92472271,0.38064145,-0.42067499,0.90721142,0,0)" /><rect
       style="fill:#7d7d7d;fill-opacity:0.67757012;stroke:#000000;stroke-width:0.14145228;stroke-miterlimit:4;stroke-dasharray:none;stroke-opacity:1"
       id="rect4161-0"
       width="23.073734"
       height="29.764215"
       x="-381.39401"
       y="491.13452"
       transform="matrix(0.9815755,0.19107468,-0.22978187,0.97324215,0,0)" /><rect
       style="fill:#c5c5c5;fill-opacity:0.82242988;stroke:#000000;stroke-width:0.12738121;stroke-miterlimit:4;stroke-dasharray:none;stroke-opacity:1"
       id="rect4161"
       width="18.49534"
       height="25.696196"
       x="-495.82343"
       y="403.87775" /></g></svg>