<?xml version="1.0" encoding="utf-8"?>
<!-- Generator: Adobe Illustrator 19.1.0, SVG Export Plug-In . SVG Version: 6.00 Build 0)  -->
<!DOCTYPE svg PUBLIC "-//W3C//DTD SVG 1.1//EN" "http://www.w3.org/Graphics/SVG/1.1/DTD/svg11.dtd">
<svg version="1.1" id="Layer_1" xmlns="http://www.w3.org/2000/svg" xmlns:xlink="http://www.w3.org/1999/xlink" x="0px" y="0px"
	 viewBox="-267 390.9 60 60" style="enable-background:new -267 390.9 60 60;" xml:space="preserve">
<g>
	<g>
		<path d="M-207.1,446.8l-5.7-19.9c-0.2-0.6-0.7-1-1.4-1h-2.4V436c0,2.4-1.9,4.3-4.3,4.3h-32.3c-2.4,0-4.3-1.9-4.3-4.3c0,0,0,0,0,0
			c0,0,0,0,0,0v-10.2h-2.4c-0.6,0-1.2,0.4-1.4,1l-5.7,19.9c-0.1,0.4,0,0.9,0.2,1.3c0.3,0.4,0.7,0.6,1.1,0.6c0,0,57.1,0,57.1,0
			c0.4,0,0.9-0.2,1.1-0.6C-207,447.7-206.9,447.2-207.1,446.8z"/>
		<path d="M-257,415.4l20-17.2l20,17.2c0.4,0.3,0.9,0.5,1.4,0.5c0.6,0,1.2-0.3,1.6-0.7c0.8-0.9,0.7-2.3-0.2-3l-21.4-18.4
			c-0.8-0.7-2-0.7-2.8,0l-21.4,18.4c-0.9,0.8-1,2.1-0.2,3C-259.3,416-257.9,416.1-257,415.4z"/>
		<path d="M-237.9,400.9l-16.1,13.9c-0.3,0.3-0.5,0.7-0.5,1.1V436c0,0.8,0.6,1.4,1.4,1.4h32.3c0.8,0,1.4-0.6,1.4-1.4v-20.1
			c0-0.4-0.2-0.8-0.5-1.1l-16.1-13.9C-236.6,400.4-237.4,400.4-237.9,400.9z M-238.4,431.1c0,0.8-0.6,1.4-1.4,1.4h-5
			c-0.8,0-1.4-0.6-1.4-1.4v-5c0-0.8,0.6-1.4,1.4-1.4h5c0.8,0,1.4,0.6,1.4,1.4V431.1z M-238.4,420.4c0,0.8-0.6,1.4-1.4,1.4h-5
			c-0.8,0-1.4-0.6-1.4-1.4v-5c0-0.8,0.6-1.4,1.4-1.4h5c0.8,0,1.4,0.6,1.4,1.4V420.4z M-235.6,415.4c0-0.8,0.6-1.4,1.4-1.4h5
			c0.8,0,1.4,0.6,1.4,1.4v5c0,0.8-0.6,1.4-1.4,1.4h-5c-0.8,0-1.4-0.6-1.4-1.4V415.4z M-235.6,426.1c0-0.8,0.6-1.4,1.4-1.4h5
			c0.8,0,1.4,0.6,1.4,1.4v5c0,0.8-0.6,1.4-1.4,1.4h-5c-0.8,0-1.4-0.6-1.4-1.4V426.1z"/>
	</g>
</g>
</svg>
