<?xml version="1.0" encoding="utf-8"?>
<!-- Generator: Adobe Illustrator 19.1.0, SVG Export Plug-In . SVG Version: 6.00 Build 0)  -->
<!DOCTYPE svg PUBLIC "-//W3C//DTD SVG 1.1//EN" "http://www.w3.org/Graphics/SVG/1.1/DTD/svg11.dtd">
<svg version="1.1" id="Layer_1" xmlns="http://www.w3.org/2000/svg" xmlns:xlink="http://www.w3.org/1999/xlink" x="0px" y="0px"
	 viewBox="-41 164.9 512 512" style="enable-background:new -41 164.9 512 512;" xml:space="preserve">
<style type="text/css">
	.st0{fill:none;}
</style>
<g>
	<path class="st0" d="M215,195.8c-124.4,0-225.1,100.7-225.1,225.1S90.6,646,215,646s225.1-100.7,225.1-225.1S339.4,195.8,215,195.8
		z M182.2,451.6v64l-128-128l128-128v64c106,0,192,86,192,192C310.2,419.6,182.2,451.6,182.2,451.6z"/>
	<path d="M182.2,323.6v-64l-128,128l128,128v-64c0,0,128-32,192,64C374.2,409.6,288.2,323.6,182.2,323.6z"/>
	<path d="M215,166.2c-139.2,0-254.7,112.5-254.7,254.7S72.8,675.6,215,675.6S469.7,563,469.7,420.9S357.2,166.2,215,166.2z M215,646
		C90.6,646-10.1,545.3-10.1,420.9S90.6,195.8,215,195.8s225.1,100.7,225.1,225.1S339.4,646,215,646z"/>
</g>
</svg>
