<?xml version="1.0" encoding="utf-8"?>
<!-- Generator: Adobe Illustrator 19.1.0, SVG Export Plug-In . SVG Version: 6.00 Build 0)  -->
<!DOCTYPE svg PUBLIC "-//W3C//DTD SVG 1.1//EN" "http://www.w3.org/Graphics/SVG/1.1/DTD/svg11.dtd">
<svg version="1.1" id="Upload" xmlns="http://www.w3.org/2000/svg" xmlns:xlink="http://www.w3.org/1999/xlink" x="0px" y="0px"
	 viewBox="-153 276.9 288 288" style="enable-background:new -153 276.9 288 288;" xml:space="preserve">
<style type="text/css">
	.st0{fill:none;}
	.st1{fill:#1F3661;}
</style>
<g>
	<path class="st0" d="M-9,292.1c-72.8,0-132.1,57.8-132.1,128.8S-81.8,549.7-9,549.7c72.8,0,132.1-57.8,132.1-128.8
		S63.8,292.1-9,292.1z M-9,335.6l52.8,65.6H15.1v70.7h-48.2v-70.7h-28.7L-9,335.6z M70.6,502.6H-88.6v-18.8v-28.4h18.8v28.4H51.7
		v-28.4h18.8V502.6z"/>
	<path class="st1" d="M-9,282.1c-78.4,0-142.1,62.3-142.1,138.8S-87.4,559.7-9,559.7c78.4,0,142.1-62.3,142.1-138.8
		S69.4,282.1-9,282.1z M-9,549.7c-72.8,0-132.1-57.8-132.1-128.8S-81.8,292.1-9,292.1c72.8,0,132.1,57.8,132.1,128.8
		S63.8,549.7-9,549.7z"/>
	<polygon class="st1" points="51.7,483.8 -69.7,483.8 -69.7,455.4 -88.6,455.4 -88.6,483.8 -88.6,502.6 70.6,502.6 70.6,455.4 
		51.7,455.4 	"/>
	<polygon class="st1" points="-33.1,471.9 15.1,471.9 15.1,401.2 43.8,401.2 -9,335.6 -61.8,401.2 -33.1,401.2 	"/>
</g>
</svg>
