<?xml version="1.0" encoding="utf-8"?>
<!-- Generator: Adobe Illustrator 19.1.0, SVG Export Plug-In . SVG Version: 6.00 Build 0)  -->
<!DOCTYPE svg PUBLIC "-//W3C//DTD SVG 1.1//EN" "http://www.w3.org/Graphics/SVG/1.1/DTD/svg11.dtd">
<svg version="1.1" id="Layer_1" xmlns="http://www.w3.org/2000/svg" xmlns:xlink="http://www.w3.org/1999/xlink" x="0px" y="0px"
	 viewBox="-509 396 60 60" style="enable-background:new -509 396 60 60;" xml:space="preserve">
<style type="text/css">
	.st0{fill:#333333;}
	.st1{fill:#0094FF;}
</style>
<g>
	<path class="st0" d="M-460.8,442.4c0.4-0.7,0.4-1.6,0.1-2.3l-16.2-30.4c-0.4-0.8-1.2-1.2-2.1-1.2c-0.9,0-1.7,0.5-2.1,1.2
		l-16.3,30.4c-0.2,0.4-0.3,0.8-0.3,1.1v0c0,0.4,0.1,0.8,0.3,1.1c0.4,0.7,1.2,1.1,2,1.1h32.5C-461.9,443.5-461.2,443.1-460.8,442.4z
		 M-479,438.8c-1.3,0-2.3-1-2.3-2.3c0-1.3,1.1-2.3,2.3-2.3c1.3,0,2.3,1,2.3,2.3C-476.6,437.8-477.7,438.8-479,438.8z M-476.6,429.5
		c0,1.3-1.1,2.3-2.3,2.3c-1.3,0-2.3-1-2.3-2.3v-9.3c0-1.3,1.1-2.3,2.3-2.3c1.3,0,2.3,1,2.3,2.3V429.5z"/>
	<path class="st1" d="M-479,434.2c-1.3,0-2.3,1-2.3,2.3c0,1.3,1.1,2.3,2.3,2.3c1.3,0,2.3-1,2.3-2.3
		C-476.6,435.2-477.7,434.2-479,434.2z"/>
	<path class="st1" d="M-479,417.9c-1.3,0-2.3,1-2.3,2.3v9.3c0,1.3,1.1,2.3,2.3,2.3c1.3,0,2.3-1,2.3-2.3v-9.3
		C-476.6,418.9-477.7,417.9-479,417.9z"/>
</g>
</svg>
