<?xml version="1.0" encoding="utf-8"?>
<!-- Generator: Adobe Illustrator 19.1.0, SVG Export Plug-In . SVG Version: 6.00 Build 0)  -->
<!DOCTYPE svg PUBLIC "-//W3C//DTD SVG 1.1//EN" "http://www.w3.org/Graphics/SVG/1.1/DTD/svg11.dtd">
<svg version="1.1" id="Layer_1" xmlns="http://www.w3.org/2000/svg" xmlns:xlink="http://www.w3.org/1999/xlink" x="0px" y="0px"
	 viewBox="-509 396 60 60" style="enable-background:new -509 396 60 60;" xml:space="preserve">
<style type="text/css">
	.st0{fill:#333333;}
	.st1{fill:#FFFFFF;}
</style>
<g>
	<path class="st0" d="M-458.5,441.8c0.4-0.7,0.4-1.6,0.1-2.3l-16.2-30.4c-0.4-0.8-1.2-1.2-2.1-1.2c-0.9,0-1.7,0.5-2.1,1.2
		l-16.3,30.4c-0.2,0.4-0.3,0.8-0.3,1.1v0c0,0.4,0.1,0.8,0.3,1.1c0.4,0.7,1.2,1.1,2,1.1h32.5C-459.7,443-458.9,442.5-458.5,441.8z
		 M-476.7,438.3c-1.3,0-2.3-1-2.3-2.3c0-1.3,1.1-2.3,2.3-2.3c1.3,0,2.3,1,2.3,2.3C-474.4,437.3-475.4,438.3-476.7,438.3z
		 M-474.4,429c0,1.3-1.1,2.3-2.3,2.3c-1.3,0-2.3-1-2.3-2.3v-9.3c0-1.3,1.1-2.3,2.3-2.3c1.3,0,2.3,1,2.3,2.3V429z"/>
	<path class="st1" d="M-476.7,433.6c-1.3,0-2.3,1-2.3,2.3c0,1.3,1.1,2.3,2.3,2.3c1.3,0,2.3-1,2.3-2.3
		C-474.4,434.7-475.4,433.6-476.7,433.6z"/>
	<path class="st1" d="M-476.7,417.3c-1.3,0-2.3,1-2.3,2.3v9.3c0,1.3,1.1,2.3,2.3,2.3c1.3,0,2.3-1,2.3-2.3v-9.3
		C-474.4,418.4-475.4,417.3-476.7,417.3z"/>
</g>
</svg>
