<?xml version="1.0" encoding="utf-8"?>
<!-- Generator: Adobe Illustrator 19.1.0, SVG Export Plug-In . SVG Version: 6.00 Build 0)  -->
<!DOCTYPE svg PUBLIC "-//W3C//DTD SVG 1.1//EN" "http://www.w3.org/Graphics/SVG/1.1/DTD/svg11.dtd">
<svg version="1.1"
	 id="Layer_1" xmlns:inkscape="http://www.inkscape.org/namespaces/inkscape" xmlns:cc="http://creativecommons.org/ns#" xmlns:svg="http://www.w3.org/2000/svg" xmlns:dc="http://purl.org/dc/elements/1.1/" xmlns:rdf="http://www.w3.org/1999/02/22-rdf-syntax-ns#" xmlns:sodipodi="http://sodipodi.sourceforge.net/DTD/sodipodi-0.dtd" sodipodi:docname="water.svg" inkscape:version="1"
	 xmlns="http://www.w3.org/2000/svg" xmlns:xlink="http://www.w3.org/1999/xlink" x="0px" y="0px" viewBox="-411 298 256 256"
	 style="enable-background:new -411 298 256 256;" xml:space="preserve">
<style type="text/css">
	.st0{fill:url(#SVGID_1_);stroke:#015491;stroke-miterlimit:10;}
	.st1{fill:#FFFFFF;}
	.st2{fill:url(#SVGID_2_);stroke:#015491;stroke-miterlimit:10;}
	.st3{fill:url(#SVGID_3_);stroke:#015491;stroke-miterlimit:10;}
</style>
<sodipodi:namedview  inkscape:cx="160" pagecolor="#ffffff" bordercolor="#666666" objecttolerance="10" borderopacity="1" guidetolerance="10" inkscape:zoom="1" inkscape:cy="160" showgrid="false" gridtolerance="10" inkscape:pageopacity="0" inkscape:pageshadow="2" inkscape:window-height="480" inkscape:window-x="0" inkscape:window-y="0" inkscape:window-maximized="0" inkscape:current-layer="svg2" inkscape:window-width="640">
	</sodipodi:namedview>
<g>
	<g>
		<g>
			<radialGradient id="SVGID_1_" cx="-238.6662" cy="476.4254" r="18.9891" gradientUnits="userSpaceOnUse">
				<stop  offset="0" style="stop-color:#0081D4"/>
				<stop  offset="1" style="stop-color:#0068AA"/>
			</radialGradient>
			<path class="st0" d="M-231,464.3c-3.4-5.5-6.9-9.9-7-9.9c-0.2-0.2-0.4-0.4-0.7-0.4c-0.3,0-0.5,0.1-0.7,0.4c0,0-3.5,4.5-7,9.9
				c-4.7,7.5-7.1,13.3-7.1,17.2c0,9.6,6.6,17.3,14.8,17.3c8.1,0,14.8-7.8,14.8-17.3C-223.9,477.5-226.3,471.7-231,464.3L-231,464.3z
				 M-237.2,493.2"/>
		</g>
		<path class="st1" d="M-237.2,493.2c-0.8,0.2-1.6,0.3-2.4,0.3c-5.7,0-10.3-5.4-10.3-12.1c0-0.9,0.2-2.6,1.4-5.3
			c0.1-0.3,0.4-0.4,0.6-0.3c0.2,0.1,0.4,0.4,0.4,0.7c0,0.3,0,0.5,0,0.7c0,7.2,4.3,13.4,10.3,14.8c0.2,0.1,0.4,0.3,0.4,0.6
			C-236.8,492.9-236.9,493.2-237.2,493.2L-237.2,493.2z"/>
	</g>
	<radialGradient id="SVGID_2_" cx="-296.0332" cy="353.9031" r="32.5726" gradientUnits="userSpaceOnUse">
		<stop  offset="0" style="stop-color:#0081D4"/>
		<stop  offset="1" style="stop-color:#0068AA"/>
	</radialGradient>
	<path class="st2" d="M-264.9,337.8c-4.5,0-8.5,2.5-10.5,6.2h-10.8c-1.7-3.7-5.4-6.2-9.7-6.2c-4.3,0-8,2.5-9.7,6.2h-11.1
		c-2-3.7-6-6.2-10.5-6.2c-6.6,0-12,5.4-12,12s5.4,12,12,12c4.4,0,8.2-2.3,10.3-5.8h11.9v14h18v-14h11.8c2.1,3.5,5.9,5.8,10.3,5.8
		c6.6,0,12-5.4,12-12S-258.3,337.8-264.9,337.8z"/>
	<radialGradient id="SVGID_3_" cx="-288" cy="409.8025" r="52.5627" gradientUnits="userSpaceOnUse">
		<stop  offset="0" style="stop-color:#0081D4"/>
		<stop  offset="1" style="stop-color:#0068AA"/>
	</radialGradient>
	<path class="st3" d="M-238,392.1L-238,392.1l-41.2-0.1v-7.4c0-3.9-3.1-7-7-7H-307c-3.9,0-7,3.1-7,7v7.4h-41v36h98v14h36v-18v-8.3
		V410C-221,400.4-228.5,392.6-238,392.1z"/>
</g>
<sodipodi:namedview  id="namedview16" inkscape:cx="160" pagecolor="#ffffff" bordercolor="#666666" objecttolerance="10" borderopacity="1" guidetolerance="10" inkscape:zoom="0.7375" inkscape:cy="160" showgrid="false" gridtolerance="10" inkscape:pageopacity="0" inkscape:pageshadow="2" inkscape:window-height="480" inkscape:window-x="0" inkscape:window-y="0" inkscape:window-maximized="0" inkscape:current-layer="svg2" inkscape:window-width="640">
	</sodipodi:namedview>
</svg>
