<?xml version="1.0" encoding="UTF-8" standalone="no"?>
<svg
   xmlns:dc="http://purl.org/dc/elements/1.1/"
   xmlns:cc="http://creativecommons.org/ns#"
   xmlns:rdf="http://www.w3.org/1999/02/22-rdf-syntax-ns#"
   xmlns:svg="http://www.w3.org/2000/svg"
   xmlns="http://www.w3.org/2000/svg"
   xmlns:sodipodi="http://sodipodi.sourceforge.net/DTD/sodipodi-0.dtd"
   xmlns:inkscape="http://www.inkscape.org/namespaces/inkscape"
   width="256pt"
   height="256pt"
   viewBox="0 0 256 256"
   version="1.1"
   id="svg2"
   inkscape:version="0.91 r13725"
   sodipodi:docname="Water_PRP.svg">
  <metadata
     id="metadata48">
    <rdf:RDF>
      <cc:Work
         rdf:about="">
        <dc:format>image/svg+xml</dc:format>
        <dc:type
           rdf:resource="http://purl.org/dc/dcmitype/StillImage" />
      </cc:Work>
    </rdf:RDF>
  </metadata>
  <defs
     id="defs46" />
  <sodipodi:namedview
     pagecolor="#ffffff"
     bordercolor="#666666"
     borderopacity="1"
     objecttolerance="10"
     gridtolerance="10"
     guidetolerance="10"
     inkscape:pageopacity="0"
     inkscape:pageshadow="2"
     inkscape:window-width="640"
     inkscape:window-height="480"
     id="namedview44"
     showgrid="false"
     inkscape:zoom="0.7375"
     inkscape:cx="160"
     inkscape:cy="160"
     inkscape:window-x="0"
     inkscape:window-y="0"
     inkscape:window-maximized="0"
     inkscape:current-layer="svg2" />
  <path
     fill="#015491"
     d=" M 111.64 44.74 C 122.98 38.53 136.99 38.70 148.90 43.20 C 157.48 46.45 164.55 53.15 168.54 61.39 C 174.35 73.24 175.26 86.94 173.78 99.89 C 177.28 100.68 180.79 101.44 184.29 102.22 C 183.90 104.31 183.37 106.36 182.94 108.43 C 177.63 107.30 172.34 106.08 167.04 104.92 C 182.64 131.71 198.07 158.60 213.59 185.43 C 219.64 195.97 211.31 211.56 199.05 211.98 C 151.63 212.03 104.22 211.98 56.80 212.00 C 49.66 210.80 42.26 205.81 41.19 198.17 C 40.69 192.52 41.29 186.41 44.50 181.57 C 63.90 148.54 82.99 115.33 102.32 82.27 C 95.13 81.65 87.84 82.62 80.71 81.95 C 81.54 78.75 81.85 75.23 83.07 72.23 C 84.84 72.63 86.59 73.11 88.36 73.51 C 92.62 61.73 100.51 50.84 111.64 44.74 Z"
     id="path6" />
  <path
     fill="#0068aa"
     d=" M 99.61 57.60 C 107.09 48.19 118.95 41.31 131.21 42.14 C 127.29 44.39 123.06 46.56 120.39 50.34 C 115.23 57.14 112.65 66.39 115.38 74.69 C 115.95 77.67 117.45 80.44 120.15 81.97 C 115.38 81.69 110.68 80.72 105.91 80.46 C 98.37 79.75 90.80 80.36 83.26 79.97 C 83.46 78.34 83.83 76.74 84.33 75.18 C 86.11 74.99 87.92 75.08 89.67 74.70 C 92.72 68.89 95.18 62.60 99.61 57.60 Z"
     id="path8" />
  <path
     fill="#006fb6"
     d=" M 131.21 42.14 C 139.60 41.89 148.17 44.11 155.19 48.77 C 164.95 55.34 169.93 67.03 171.45 78.36 C 172.16 85.55 171.60 92.78 171.71 99.98 C 173.52 103.90 179.27 101.93 182.03 104.83 C 181.69 105.04 181.03 105.46 180.70 105.67 C 176.99 105.04 173.36 104.03 169.69 103.24 C 165.97 101.56 163.38 98.20 159.96 96.05 C 148.08 88.15 134.01 84.53 120.15 81.97 C 117.45 80.44 115.95 77.67 115.38 74.69 C 112.65 66.39 115.23 57.14 120.39 50.34 C 123.06 46.56 127.29 44.39 131.21 42.14 Z"
     id="path10" />
  <path
     fill="#ffffff"
     d=" M 132.44 48.38 C 133.65 46.44 136.20 47.16 138.09 47.25 C 143.88 47.93 150.05 48.50 155.02 51.84 C 161.41 58.07 167.08 65.91 168.04 75.03 C 168.30 79.54 168.32 84.22 166.72 88.51 L 165.87 88.45 C 164.51 82.06 165.42 75.26 163.41 68.92 C 162.35 64.49 160.46 59.86 156.39 57.38 C 153.50 55.29 150.65 53.05 147.35 51.64 C 142.75 49.86 137.74 50.48 132.93 50.14 C 132.81 49.70 132.56 48.82 132.44 48.38 Z"
     id="path12" />
  <path
     fill="#007ac8"
     d=" M 132.93 50.14 C 137.74 50.48 142.75 49.86 147.35 51.64 C 150.65 53.05 153.50 55.29 156.39 57.38 C 157.36 62.61 159.30 68.07 157.36 73.33 C 154.81 79.40 148.78 84.43 141.94 84.15 C 136.09 84.76 130.61 81.31 127.42 76.61 C 124.47 72.82 124.46 67.67 125.22 63.16 C 126.36 57.73 131.00 53.99 135.66 51.52 C 134.76 51.05 133.85 50.59 132.93 50.14 Z"
     id="path14" />
  <path
     fill="#006eb4"
     d=" M 104.33 83.26 C 107.06 82.16 110.14 83.04 112.98 83.30 C 112.13 85.84 110.59 88.06 109.28 90.38 C 96.76 112.38 84.01 134.25 71.13 156.05 C 69.91 158.17 68.81 160.41 67.15 162.24 C 66.21 158.16 65.85 153.98 65.80 149.81 C 66.57 147.47 67.98 145.42 69.19 143.30 C 80.88 123.28 92.32 103.08 104.33 83.26 Z"
     id="path16" />
  <path
     fill="#ffffff"
     d=" M 58.86 181.01 C 78.11 148.65 96.66 115.86 115.83 83.46 C 125.35 84.66 134.82 86.71 143.78 90.19 C 144.98 90.62 145.36 91.97 146.02 92.94 C 162.57 121.77 178.95 150.71 195.34 179.64 C 197.72 184.29 199.40 190.08 197.03 195.07 C 195.50 198.47 191.61 200.12 188.05 200.00 C 147.35 199.97 106.65 200.15 65.95 200.04 C 62.43 199.93 58.66 198.27 57.13 194.93 C 55.13 190.44 55.78 184.87 58.86 181.01 Z"
     id="path18" />
  <path
     fill="#0071b9"
     d=" M 148.84 92.79 C 152.78 93.83 156.10 96.33 159.45 98.54 C 161.28 99.70 162.71 101.37 163.73 103.27 C 173.68 120.40 183.72 137.49 193.37 154.79 C 192.72 158.69 191.70 162.52 190.46 166.27 C 176.71 143.57 164.07 120.21 150.81 97.23 C 149.97 95.83 149.26 94.36 148.84 92.79 Z"
     id="path20" />
  <path
     fill="#015491"
     d=" M 105.45 108.30 C 108.65 105.78 113.62 107.16 115.44 110.69 C 117.76 110.91 120.12 110.81 122.46 110.74 C 124.23 105.84 131.64 105.96 133.41 110.80 C 135.57 110.81 137.73 110.81 139.89 110.79 C 141.70 107.95 145.36 106.00 148.66 107.49 C 153.60 109.28 154.90 116.50 151.07 120.01 C 148.08 123.32 142.34 122.39 140.17 118.63 C 137.96 118.07 135.50 118.56 133.20 118.40 C 133.13 120.48 133.21 122.56 133.17 124.65 C 129.60 124.68 126.04 124.67 122.48 124.65 C 122.45 122.57 122.48 120.48 122.51 118.40 C 120.15 118.39 117.79 118.40 115.44 118.39 C 113.49 121.46 109.21 122.95 105.99 120.95 C 101.45 118.43 101.14 111.19 105.45 108.30 Z"
     id="path22" />
  <path
     fill="#006bb0"
     d=" M 108.27 109.30 C 110.94 108.43 112.68 110.92 114.41 112.44 C 116.78 113.34 119.44 113.22 121.91 112.81 C 124.32 112.34 125.33 109.06 127.93 109.08 C 130.60 109.12 131.24 112.87 133.93 112.74 C 136.15 112.84 138.46 113.07 140.62 112.46 C 142.70 110.85 144.78 108.02 147.79 109.30 C 152.49 110.82 152.41 118.25 147.82 119.87 C 144.70 121.18 142.60 118.16 140.34 116.66 C 137.85 116.15 135.20 116.13 132.70 116.63 C 130.73 117.94 131.46 120.71 130.74 122.68 C 128.65 122.87 126.54 122.86 124.45 122.66 C 124.32 120.85 124.87 118.84 123.77 117.22 C 121.78 115.88 119.25 116.24 116.98 116.24 C 113.48 115.77 111.97 120.85 108.33 119.58 C 103.34 118.67 103.40 110.34 108.27 109.30 Z"
     id="path24" />
  <path
     fill="#015491"
     d=" M 118.78 133.74 C 121.13 131.10 124.97 132.36 128.05 132.07 C 130.85 132.27 134.25 131.30 136.43 133.59 C 138.43 135.56 137.76 138.54 137.90 141.05 C 142.95 141.13 147.99 140.97 153.04 141.06 C 160.60 142.90 167.50 148.12 170.55 155.43 C 173.29 160.63 171.82 166.63 172.15 172.25 C 165.09 172.28 158.03 172.28 150.97 172.25 C 150.79 169.32 150.96 166.38 150.84 163.46 C 131.56 163.47 112.29 163.48 93.01 163.45 C 93.07 155.95 93.04 148.45 93.20 140.95 C 101.27 140.66 109.62 141.42 117.51 140.70 C 117.56 138.36 116.92 135.59 118.78 133.74 Z"
     id="path26" />
  <path
     fill="#0074be"
     d=" M 121.32 134.39 C 125.46 134.05 129.66 133.98 133.81 134.27 C 137.07 135.73 135.44 140.00 136.29 142.75 C 142.11 143.36 147.98 142.66 153.82 143.08 L 153.87 143.63 C 145.30 144.80 138.24 152.61 138.63 161.37 C 128.07 161.59 117.47 161.49 106.91 161.16 C 107.11 155.05 108.58 149.11 110.17 143.24 C 112.67 143.03 115.29 143.55 117.72 142.78 C 121.24 141.33 117.98 136.02 121.32 134.39 Z"
     id="path28" />
  <path
     fill="#006aae"
     d=" M 95.26 143.18 C 100.22 143.00 105.23 142.64 110.17 143.24 C 108.58 149.11 107.11 155.05 106.91 161.16 C 103.03 161.52 99.00 161.80 95.17 160.96 C 95.02 155.04 95.07 149.10 95.26 143.18 Z"
     id="path30" />
  <path
     fill="#007fd0"
     d=" M 138.63 161.37 C 138.24 152.61 145.30 144.80 153.87 143.63 C 160.49 145.07 166.04 150.08 168.70 156.25 C 171.00 160.52 170.06 165.52 170.06 170.16 C 164.37 170.30 158.66 170.39 152.97 170.14 C 152.44 167.40 153.92 163.62 151.33 161.69 C 147.12 161.13 142.86 161.66 138.63 161.37 Z"
     id="path32" />
  <path
     fill="#0068aa"
     d=" M 63.62 152.66 C 64.18 151.59 64.88 150.60 65.80 149.81 C 65.85 153.98 66.21 158.16 67.15 162.24 C 67.06 163.74 66.00 164.95 65.32 166.23 C 62.13 171.14 59.47 176.37 56.30 181.29 C 53.36 185.68 53.16 191.72 55.59 196.37 C 57.36 199.86 61.31 201.51 65.01 201.95 C 77.44 202.52 89.96 201.24 102.35 202.33 C 98.95 203.06 95.47 203.19 92.00 203.32 C 95.01 206.06 98.63 207.98 102.24 209.77 C 88.18 210.36 74.07 209.80 59.99 210.02 C 54.20 210.40 48.52 207.43 45.13 202.82 C 42.43 199.01 42.80 194.04 43.49 189.66 C 44.20 185.05 47.24 181.37 49.33 177.34 C 54.10 169.12 59.12 161.04 63.62 152.66 Z"
     id="path34" />
  <path
     fill="#0068aa"
     d=" M 193.37 154.79 C 195.19 156.75 196.19 159.29 197.54 161.56 C 202.39 170.02 207.20 178.51 212.09 186.95 C 217.10 196.96 208.40 210.98 196.99 210.00 C 185.57 209.81 174.12 210.37 162.71 209.78 C 166.89 207.75 170.92 205.40 174.37 202.26 C 180.06 201.32 185.94 202.66 191.63 201.58 C 196.46 200.61 200.13 195.95 200.11 191.04 C 200.75 181.81 194.14 174.58 190.34 166.80 L 190.46 166.27 C 191.70 162.52 192.72 158.69 193.37 154.79 Z"
     id="path36" />
  <path
     fill="#0078c5"
     d=" M 162.69 174.24 C 163.91 179.73 167.99 183.84 169.99 188.98 C 170.58 193.45 166.40 197.40 161.97 196.82 C 156.07 197.17 152.99 189.68 156.43 185.23 L 158.14 184.58 C 155.41 188.94 157.06 196.68 163.38 196.08 C 161.99 194.65 160.20 193.63 159.07 191.97 C 158.34 188.04 160.86 184.70 161.93 181.11 C 161.76 180.12 160.91 179.35 160.96 178.30 C 161.39 177.28 162.26 175.25 162.69 174.24 Z"
     id="path38" />
  <path
     fill="#65a8d5"
     d=" M 156.43 185.23 C 157.63 182.74 159.26 180.44 160.96 178.30 C 160.91 179.35 161.76 180.12 161.93 181.11 C 160.86 184.70 158.34 188.04 159.07 191.97 C 160.20 193.63 161.99 194.65 163.38 196.08 C 157.06 196.68 155.41 188.94 158.14 184.58 L 156.43 185.23 Z"
     id="path40" />
  <path
     fill="#006cb1"
     d=" M 102.35 202.33 C 104.21 201.99 106.11 202.00 107.99 202.01 C 130.12 202.14 152.26 201.66 174.37 202.26 C 170.92 205.40 166.89 207.75 162.71 209.78 C 142.57 210.10 122.38 210.15 102.24 209.77 C 98.63 207.98 95.01 206.06 92.00 203.32 C 95.47 203.19 98.95 203.06 102.35 202.33 Z"
     id="path42" />
</svg>
