<?xml version="1.0" encoding="utf-8"?>
<!-- Generator: Adobe Illustrator 21.1.0, SVG Export Plug-In . SVG Version: 6.00 Build 0)  -->
<svg version="1.1" xmlns="http://www.w3.org/2000/svg" xmlns:xlink="http://www.w3.org/1999/xlink" x="0px" y="0px"
	 viewBox="0 0 256 256" enable-background="new 0 0 256 256" xml:space="preserve">
<g id="image">
</g>
<g id="Layer_2">
</g>
<g id="Layer_3">
	<path display="none" fill-rule="evenodd" clip-rule="evenodd" fill="#FFFFFF" d="M180.753,50.433
		c3.839-2.293,8.858-1.801,12.158,1.38c3.28,3.112,4.045,7.948,2.085,11.855c6.707,10.987,7.137,25.541-2.105,35.229
		c-0.605,0.626-1.34,1.826-1.993,2.94l0.599,0.566c2.337,2.221,1.426,5.811-0.584,7.886c-1.984,2.113-5.555,3.227-7.887,0.973
		l-48.66-46.483c-2.359-2.292-1.421-5.843,0.596-7.95c2.016-2.108,5.544-3.162,7.881-0.94l0.738,0.722
		c1.141-0.666,2.401-1.445,2.93-2.018C155.666,45.022,169.731,44.741,180.753,50.433L180.753,50.433z"/>
	<radialGradient id="SVGID_1_" cx="146.3638" cy="109.5534" r="60.4757" gradientUnits="userSpaceOnUse">
		<stop  offset="0.5215" style="stop-color:#0081D4"/>
		<stop  offset="1" style="stop-color:#0068AA"/>
	</radialGradient>
	<path fill-rule="evenodd" clip-rule="evenodd" fill="url(#SVGID_1_)" stroke="#015491" stroke-miterlimit="10" d="M214.061,130.458
		l-13.228-13.522c-1.666-1.699-6.501,0.228-12.151,4.344l-5.651-5.814c0.78-1.02,1.482-2.013,2.101-2.968
		c-1.112,0.001-2.203-0.362-3.107-1.236l-48.66-46.483c-0.779-0.757-1.192-1.651-1.332-2.585
		c-12.633-3.19-25.694-4.574-38.794-4.053L82.46,58.566c-1.797,0.098-3.364,1.209-4.05,2.875c-0.653,1.665-0.261,3.56,0.98,4.867
		c0.523,0.523,1.143,0.914,1.862,1.143l12.183,3.952c13.784,4.541,24.988,14.731,30.769,28.058l0.359,0.85
		c1.417,1.453,2.817,2.889,4.203,4.31l-8.254,8.07l24.171,24.726l8.244-8.077c1.333,1.362,2.667,2.725,4.005,4.092
		c1.665,1.698,6.5-0.196,12.151-4.345l5.683,5.815c-4.246,5.553-6.271,10.355-4.638,12.02l13.229,13.523
		c2.352,2.417,11.106-2.352,19.598-10.649C211.415,141.499,216.38,132.843,214.061,130.458z"/>
	<radialGradient id="SVGID_2_" cx="91.1683" cy="165.5522" r="49.5048" gradientUnits="userSpaceOnUse">
		<stop  offset="0.5215" style="stop-color:#0081D4"/>
		<stop  offset="1" style="stop-color:#0068AA"/>
	</radialGradient>
	<path fill-rule="evenodd" clip-rule="evenodd" fill="url(#SVGID_2_)" stroke="#015491" stroke-miterlimit="10" d="M68.226,214.728
		l25.829-24.691c0.921-0.89,0.965-2.323,0.182-3.306L141,141.417l-24.207-25.04l-46.713,45.638c-0.983-0.804-2.413-0.76-3.333,0.127
		L41.336,187L68.226,214.728z"/>
	<g>
		<path display="none" fill-rule="evenodd" clip-rule="evenodd" fill="#FFFFFF" d="M180.753,49.433
			c3.839-2.293,8.858-1.801,12.158,1.38c3.28,3.112,4.045,7.948,2.085,11.855c6.707,10.987,7.137,25.541-2.105,35.229
			c-0.605,0.626-1.34,1.826-1.993,2.94l0.599,0.566c2.337,2.221,1.426,5.811-0.584,7.886c-1.984,2.113-5.555,3.227-7.887,0.973
			l-48.66-46.483c-2.359-2.292-1.421-5.843,0.596-7.95c2.016-2.108,5.544-3.162,7.881-0.94l0.738,0.722
			c1.141-0.666,2.401-1.445,2.93-2.018C155.666,44.022,169.731,43.741,180.753,49.433L180.753,49.433z"/>
		<radialGradient id="SVGID_3_" cx="168.8393" cy="76.2261" r="28.349" gradientUnits="userSpaceOnUse">
			<stop  offset="0.5215" style="stop-color:#0081D4"/>
			<stop  offset="1" style="stop-color:#0068AA"/>
		</radialGradient>
		<path fill-rule="evenodd" clip-rule="evenodd" fill="url(#SVGID_3_)" stroke="#015491" stroke-miterlimit="10" d="M192.077,62.7
			c2.276-3.028,1.961-7.398-0.859-10.121c-2.856-2.71-7.344-2.768-10.277-0.222c-11.085-6.376-24.538-5.521-32.633,2.935
			c-1.095,1.171-5.471,3.705-8.107,4.978l46.032,44.012c0.098-0.182,0.238-0.423,0.374-0.632c0.768-1.591,3.235-6.141,4.486-7.451
			C199.383,87.515,199.486,73.616,192.077,62.7z"/>
		<path fill-rule="evenodd" clip-rule="evenodd" fill="#015491" d="M171.364,48.725c3.106,0.63,6.19,1.786,9.132,3.382
			c-0.223,0.525-0.574,1.028-0.978,1.456l-14.203,14.872c-1.737,1.824-4.664,1.888-6.488,0.151
			c-1.878-1.812-1.941-4.739-0.173-6.557L171.364,48.725z"/>
		<path fill-rule="evenodd" clip-rule="evenodd" fill="#015491" d="M192.411,63.253c1.788,2.725,3.108,5.667,3.928,8.624
			l-13.103,13.668c-1.736,1.824-4.663,1.888-6.488,0.151c-1.824-1.736-1.888-4.663-0.151-6.487l14.204-14.871
			C191.286,63.824,191.775,63.477,192.411,63.253L192.411,63.253z"/>
		<path fill-rule="evenodd" clip-rule="evenodd" fill="#015491" d="M189.146,107.596c-1.45,1.509-3.4,1.871-4.428,0.901
			l-48.654-46.515c-1.054-1.008-0.756-2.946,0.695-4.454c1.407-1.45,3.299-1.856,4.385-0.842l48.654,46.515
			C190.792,104.166,190.521,106.141,189.146,107.596L189.146,107.596z"/>
	</g>
</g>
</svg>
