<?xml version="1.0" encoding="utf-8"?>
<!-- Generator: Adobe Illustrator 19.1.0, SVG Export Plug-In . SVG Version: 6.00 Build 0)  -->
<!DOCTYPE svg PUBLIC "-//W3C//DTD SVG 1.1//EN" "http://www.w3.org/Graphics/SVG/1.1/DTD/svg11.dtd">
<svg version="1.1" id="Layer_1" xmlns="http://www.w3.org/2000/svg" xmlns:xlink="http://www.w3.org/1999/xlink" x="0px" y="0px"
	 viewBox="-281 404.9 32 32" style="enable-background:new -281 404.9 32 32;" xml:space="preserve">
<style type="text/css">
	.st0{fill:#7C0505;}
	.st1{fill:#FFFFFF;}
</style>
<g>
	<path class="st0" d="M-265,409.6c-6.2,0-11.2,5-11.2,11.2c0,6.2,5,11.2,11.2,11.2s11.2-5,11.2-11.2
		C-253.8,414.7-258.8,409.6-265,409.6z M-259.5,426.4c-0.5,0.5-1.4,0.5-1.9,0l-3.6-3.6l-3.6,3.6c-0.5,0.5-1.4,0.5-1.9,0
		s-0.5-1.4,0-1.9l3.6-3.6l-3.6-3.6c-0.5-0.5-0.5-1.4,0-1.9s1.4-0.5,1.9,0l3.6,3.6l3.6-3.6c0.5-0.5,1.4-0.5,1.9,0s0.5,1.4,0,1.9
		l-3.6,3.6l3.6,3.6C-259,425-259,425.9-259.5,426.4z"/>
	<path class="st1" d="M-263.1,420.9l3.6-3.6c0.5-0.5,0.5-1.4,0-1.9s-1.4-0.5-1.9,0l-3.6,3.6l-3.6-3.6c-0.5-0.5-1.4-0.5-1.9,0
		s-0.5,1.4,0,1.9l3.6,3.6l-3.6,3.6c-0.5,0.5-0.5,1.4,0,1.9s1.4,0.5,1.9,0l3.6-3.6l3.6,3.6c0.5,0.5,1.4,0.5,1.9,0s0.5-1.4,0-1.9
		L-263.1,420.9z"/>
</g>
</svg>
