<?xml version="1.0" encoding="utf-8"?>
<!-- Generator: Adobe Illustrator 20.0.0, SVG Export Plug-In . SVG Version: 6.00 Build 0)  -->
<svg version="1.1" id="Layer_1" xmlns="http://www.w3.org/2000/svg" xmlns:xlink="http://www.w3.org/1999/xlink" x="0px" y="0px"
	 viewBox="0 0 840 174" style="enable-background:new 0 0 840 174;" xml:space="preserve">
<style type="text/css">
	.Arched_x0020_Green{fill:url(#SVGID_1_);stroke:#FFFFFF;stroke-width:0.25;stroke-miterlimit:1;}
	.st0{fill:#0E2D6D;}
	.st1{fill:#A9112C;}
</style>
<linearGradient id="SVGID_1_" gradientUnits="userSpaceOnUse" x1="-24" y1="419.2803" x2="-23.2929" y2="418.5732">
	<stop  offset="0" style="stop-color:#2AB45B"/>
	<stop  offset="0.9831" style="stop-color:#0F341A"/>
</linearGradient>
<path class="st0" d="M45.4,142.4c-2.8,2.4-5.4,4-8,5c-2.6,1-5.3,1.5-8.2,1.5c-4.8,0-8.6-1.2-11.2-3.5c-2.6-2.4-3.9-5.4-3.9-9.1
	c0-2.2,0.5-4.1,1.5-5.9c1-1.8,2.3-3.2,3.9-4.3c1.6-1.1,3.4-1.9,5.4-2.4c1.5-0.4,3.7-0.8,6.6-1.1c6-0.7,10.5-1.6,13.3-2.6
	c0-1,0-1.7,0-2c0-3-0.7-5.2-2.1-6.4c-1.9-1.7-4.7-2.5-8.5-2.5c-3.5,0-6.1,0.6-7.8,1.8c-1.7,1.2-2.9,3.4-3.7,6.5l-7.3-1
	c0.7-3.1,1.8-5.7,3.3-7.6c1.5-1.9,3.7-3.4,6.6-4.4c2.9-1,6.2-1.6,10-1.6c3.8,0,6.8,0.4,9.2,1.3c2.4,0.9,4.1,2,5.2,3.3
	c1.1,1.3,1.9,3,2.3,5.1c0.2,1.3,0.4,3.6,0.4,6.9v10c0,6.9,0.2,11.3,0.5,13.2c0.3,1.8,0.9,3.6,1.9,5.3h-7.8
	C46.1,146.3,45.6,144.5,45.4,142.4z M44.7,125.7c-2.7,1.1-6.8,2-12.2,2.8c-3.1,0.4-5.2,0.9-6.5,1.5c-1.3,0.6-2.3,1.4-2.9,2.4
	c-0.7,1.1-1,2.2-1,3.5c0,2,0.8,3.7,2.3,5c1.5,1.3,3.7,2,6.6,2c2.9,0,5.4-0.6,7.7-1.9c2.2-1.3,3.9-3,4.9-5.2c0.8-1.7,1.2-4.2,1.2-7.5
	V125.7z"/>
<path class="st0" d="M63.9,147.9v-44.1h6.7v6.3c3.2-4.8,7.9-7.3,14-7.3c2.7,0,5.1,0.5,7.3,1.4c2.2,1,3.9,2.2,5,3.8
	c1.1,1.5,1.9,3.4,2.3,5.5c0.3,1.4,0.4,3.8,0.4,7.3v27.1h-7.5V121c0-3-0.3-5.3-0.9-6.8c-0.6-1.5-1.6-2.7-3.1-3.6
	c-1.5-0.9-3.2-1.3-5.2-1.3c-3.2,0-5.9,1-8.2,3c-2.3,2-3.5,5.9-3.5,11.5v24.1H63.9z"/>
<path class="st0" d="M517.8,131.7l7.3,1c-0.8,5.1-2.9,9-6.2,11.9c-3.3,2.9-7.4,4.3-12.2,4.3c-6,0-10.9-2-14.5-5.9
	c-3.7-3.9-5.5-9.6-5.5-17c0-4.8,0.8-8.9,2.4-12.5c1.6-3.6,4-6.2,7.2-8c3.2-1.8,6.7-2.7,10.5-2.7c4.8,0,8.7,1.2,11.7,3.6
	c3,2.4,5,5.9,5.9,10.3l-7.3,1.1c-0.7-3-1.9-5.2-3.7-6.7c-1.8-1.5-3.9-2.2-6.4-2.2c-3.8,0-6.8,1.3-9.2,4c-2.4,2.7-3.5,7-3.5,12.8
	c0,5.9,1.1,10.2,3.4,12.9c2.3,2.7,5.2,4,8.9,4c2.9,0,5.4-0.9,7.3-2.7C516,138.2,517.2,135.4,517.8,131.7z"/>
<path class="st0" d="M528.7,125.8c0-8.2,2.3-14.2,6.8-18.1c3.8-3.3,8.4-4.9,13.9-4.9c6.1,0,11,2,14.9,6c3.8,4,5.8,9.5,5.8,16.5
	c0,5.7-0.9,10.1-2.6,13.4c-1.7,3.3-4.2,5.8-7.4,7.6c-3.3,1.8-6.8,2.7-10.6,2.7c-6.2,0-11.2-2-15-5.9
	C530.6,139,528.7,133.3,528.7,125.8z M536.4,125.8c0,5.6,1.2,9.9,3.7,12.7c2.5,2.8,5.6,4.2,9.3,4.2c3.7,0,6.8-1.4,9.3-4.2
	c2.5-2.8,3.7-7.1,3.7-12.9c0-5.5-1.2-9.6-3.7-12.4c-2.5-2.8-5.6-4.2-9.2-4.2c-3.7,0-6.8,1.4-9.3,4.2
	C537.6,116,536.4,120.2,536.4,125.8z"/>
<path class="st0" d="M578.8,147.9v-44.1h6.7v6.2c1.4-2.2,3.2-3.9,5.5-5.2c2.3-1.3,4.9-2,7.8-2c3.3,0,5.9,0.7,8,2
	c2.1,1.4,3.6,3.3,4.4,5.7c3.5-5.1,8-7.7,13.6-7.7c4.4,0,7.7,1.2,10.1,3.6c2.4,2.4,3.5,6.1,3.5,11.2v30.3h-7.4v-27.8
	c0-3-0.2-5.1-0.7-6.5c-0.5-1.3-1.4-2.4-2.6-3.2c-1.3-0.8-2.8-1.2-4.5-1.2c-3.1,0-5.7,1-7.7,3.1c-2,2.1-3.1,5.4-3.1,9.9v25.6H605
	v-28.6c0-3.3-0.6-5.8-1.8-7.5c-1.2-1.7-3.2-2.5-6-2.5c-2.1,0-4,0.6-5.8,1.7c-1.8,1.1-3.1,2.7-3.9,4.9c-0.8,2.1-1.2,5.2-1.2,9.2v22.9
	H578.8z"/>
<path class="st0" d="M649.6,164.8v-61h6.8v5.7c1.6-2.2,3.4-3.9,5.4-5c2-1.1,4.5-1.7,7.3-1.7c3.8,0,7.1,1,10,2.9
	c2.9,1.9,5,4.7,6.5,8.2c1.5,3.5,2.2,7.4,2.2,11.6c0,4.5-0.8,8.6-2.4,12.2c-1.6,3.6-4,6.4-7.1,8.3c-3.1,1.9-6.3,2.9-9.7,2.9
	c-2.5,0-4.7-0.5-6.7-1.6c-2-1.1-3.6-2.4-4.9-4v21.5H649.6z M656.3,126.1c0,5.7,1.1,9.9,3.4,12.6c2.3,2.7,5.1,4.1,8.3,4.1
	c3.3,0,6.2-1.4,8.5-4.2c2.4-2.8,3.5-7.2,3.5-13.1c0-5.6-1.2-9.8-3.5-12.6c-2.3-2.8-5.1-4.2-8.3-4.2c-3.2,0-6,1.5-8.4,4.5
	C657.6,116.1,656.3,120.4,656.3,126.1z"/>
<path class="st0" d="M725.6,142.4c-2.8,2.4-5.4,4-8,5c-2.6,1-5.3,1.5-8.2,1.5c-4.8,0-8.6-1.2-11.2-3.5c-2.6-2.4-3.9-5.4-3.9-9.1
	c0-2.2,0.5-4.1,1.5-5.9c1-1.8,2.3-3.2,3.9-4.3c1.6-1.1,3.4-1.9,5.4-2.4c1.5-0.4,3.7-0.8,6.6-1.1c6-0.7,10.5-1.6,13.3-2.6
	c0-1,0-1.7,0-2c0-3-0.7-5.2-2.1-6.4c-1.9-1.7-4.7-2.5-8.5-2.5c-3.5,0-6.1,0.6-7.8,1.8c-1.7,1.2-2.9,3.4-3.7,6.5l-7.3-1
	c0.7-3.1,1.8-5.7,3.3-7.6c1.5-1.9,3.7-3.4,6.6-4.4c2.9-1,6.2-1.6,10-1.6c3.8,0,6.8,0.4,9.2,1.3c2.4,0.9,4.1,2,5.2,3.3
	c1.1,1.3,1.9,3,2.3,5.1c0.2,1.3,0.4,3.6,0.4,6.9v10c0,6.9,0.2,11.3,0.5,13.2c0.3,1.8,0.9,3.6,1.9,5.3h-7.8
	C726.3,146.3,725.8,144.5,725.6,142.4z M725,125.7c-2.7,1.1-6.8,2-12.2,2.8c-3.1,0.4-5.2,0.9-6.5,1.5c-1.3,0.6-2.3,1.4-2.9,2.4
	c-0.7,1.1-1,2.2-1,3.5c0,2,0.8,3.7,2.3,5c1.5,1.3,3.7,2,6.6,2c2.9,0,5.4-0.6,7.7-1.9c2.2-1.3,3.9-3,4.9-5.2c0.8-1.7,1.2-4.2,1.2-7.5
	V125.7z"/>
<path class="st0" d="M744.1,147.9v-44.1h6.7v6.3c3.2-4.8,7.9-7.3,14-7.3c2.7,0,5.1,0.5,7.3,1.4c2.2,1,3.9,2.2,5,3.8
	c1.1,1.5,1.9,3.4,2.3,5.5c0.3,1.4,0.4,3.8,0.4,7.3v27.1h-7.5V121c0-3-0.3-5.3-0.9-6.8c-0.6-1.5-1.6-2.7-3.1-3.6
	c-1.5-0.9-3.2-1.3-5.2-1.3c-3.2,0-5.9,1-8.2,3c-2.3,2-3.5,5.9-3.5,11.5v24.1H744.1z"/>
<path class="st0" d="M791.1,164.8l-0.8-7c1.6,0.4,3.1,0.7,4.3,0.7c1.7,0,3-0.3,4-0.8c1-0.6,1.8-1.3,2.4-2.3c0.5-0.7,1.2-2.6,2.3-5.6
	c0.1-0.4,0.4-1,0.7-1.8l-16.7-44.2h8.1l9.2,25.5c1.2,3.2,2.3,6.6,3.2,10.2c0.9-3.4,1.9-6.8,3.1-10l9.4-25.7h7.5l-16.8,44.8
	c-1.8,4.8-3.2,8.2-4.2,10c-1.3,2.5-2.8,4.3-4.6,5.4c-1.7,1.1-3.8,1.7-6.1,1.7C794.4,165.7,792.8,165.4,791.1,164.8z"/>
<polygon class="st0" points="123,34.5 211.1,34.5 211.1,58.8 156,58.8 156,76.9 207.1,76.9 207.1,100.1 156,100.1 156,122.6 
	212.7,122.6 212.7,148.3 123,148.3 "/>
<polygon class="st0" points="361.2,34.5 394.4,34.5 394.4,74.3 430.8,74.3 430.8,34.5 464.2,34.5 464.2,148.3 430.8,148.3 
	430.8,102.3 394.4,102.3 394.4,148.3 361.2,148.3 "/>
<path class="st1" d="M239.5,127c-1-1.8-1.8-3.7-2.6-5.7l-12.6,27.1h36.5c-0.5-0.3-1.1-0.5-1.6-0.8
	C251.1,143.2,244.6,136.4,239.5,127"/>
<path class="st1" d="M320.6,146.5c-1,0.6-2.1,1.2-3.2,1.8h36.9l-12.5-27c-0.5,1.2-0.9,2.4-1.5,3.5c-2.8,5.9-6.5,10.8-11,14.9
	C326.7,142.3,323.8,144.6,320.6,146.5"/>
<path class="st1" d="M288.7,29.1c3.1,0,6.1,0.2,9,0.5l-8.8-18.9l-8.7,18.8c1.8-0.2,3.6-0.3,5.5-0.3
	C286.6,29.1,287.6,29.1,288.7,29.1"/>
<path class="st0" d="M328.5,47.8c-5-5.4-11-9.4-18.2-11.9c-6.3-2.2-13.5-3.4-21.6-3.4c-5.4,0-10.5,0.5-15.1,1.6
	c-9.8,2.3-17.8,6.9-24.2,13.9c-9.4,10.4-14.1,24.8-14.1,43.4c0,4.9,0.3,9.5,1,13.8c1.1,7.3,3.2,13.8,6.2,19.4
	c4.8,8.9,11,15.3,18.6,19.4c7.7,4.1,17.3,6.1,29,6.1c11.5,0,21.1-2.4,28.8-7.1c7.7-4.7,13.6-11.4,17.7-19.9
	c3.4-7.1,5.4-15.9,5.9-26.4c0.1-2.1,0.2-4.2,0.2-6.4C342.5,72.2,337.9,58,328.5,47.8 M304.9,116.6c-3.8,4.9-9.1,7.4-16,7.4
	c-6.7,0-12-2.5-15.9-7.5c-3.9-5-5.8-13.3-5.8-24.8c0-11.6,2-19.9,5.9-24.9c3.9-5,9.1-7.5,15.5-7.5c6.7,0,12.1,2.5,16,7.4
	c3.9,4.9,5.9,12.8,5.9,23.5C310.5,102.8,308.6,111.7,304.9,116.6"/>
</svg>
