<?xml version="1.0" encoding="utf-8"?>
<!-- Generator: Adobe Illustrator 22.0.1, SVG Export Plug-In . SVG Version: 6.00 Build 0)  -->
<svg version="1.1" id="Layer_1" xmlns="http://www.w3.org/2000/svg" xmlns:xlink="http://www.w3.org/1999/xlink" x="0px" y="0px"
	 viewBox="0 0 310.7 28.8" style="enable-background:new 0 0 310.7 28.8;" xml:space="preserve">
<style type="text/css">
	.st0{fill:#1E242B;}
	.st1{fill:#C3D52E;}
</style>
<g>
	<path class="st1" d="M24.6,3.9l-5.5,17.5H18L12.8,6.2c-0.1-0.2-0.1-0.4-0.2-0.6c0,0.2-0.1,0.4-0.2,0.6L7.2,21.4H6.1L0.6,3.9h1.1
		C1.9,3.9,2,4,2.1,4.2l4.4,14.4c0.1,0.3,0.2,0.7,0.2,1.1c0-0.2,0.1-0.4,0.1-0.6C6.9,19,7,18.8,7,18.6l5-14.4C12,4.1,12.1,4,12.2,4
		c0.1-0.1,0.2-0.1,0.3-0.1h0.3c0.1,0,0.2,0,0.3,0.1c0.1,0.1,0.1,0.1,0.2,0.2l5,14.4c0.1,0.2,0.1,0.3,0.2,0.5c0,0.2,0.1,0.4,0.1,0.6
		c0-0.2,0.1-0.4,0.1-0.6c0-0.2,0.1-0.4,0.1-0.5l4.4-14.4c0-0.1,0.1-0.2,0.2-0.2c0.1-0.1,0.2-0.1,0.3-0.1H24.6z"/>
	<path class="st1" d="M56.2,3.9l-5.5,17.5h-1.1L44.3,6.2c-0.1-0.2-0.1-0.4-0.2-0.6C44.1,5.8,44,6,44,6.2l-5.2,15.2h-1.1L32.1,3.9
		h1.1c0.2,0,0.4,0.1,0.5,0.3l4.4,14.4c0.1,0.3,0.2,0.7,0.2,1.1c0-0.2,0.1-0.4,0.1-0.6c0-0.2,0.1-0.4,0.1-0.5l5-14.4
		c0-0.1,0.1-0.2,0.2-0.2c0.1-0.1,0.2-0.1,0.3-0.1h0.3c0.1,0,0.2,0,0.3,0.1c0.1,0.1,0.1,0.1,0.2,0.2l5,14.4c0.1,0.2,0.1,0.3,0.2,0.5
		c0,0.2,0.1,0.4,0.1,0.6c0-0.2,0.1-0.4,0.1-0.6c0-0.2,0.1-0.4,0.1-0.5l4.4-14.4c0-0.1,0.1-0.2,0.2-0.2c0.1-0.1,0.2-0.1,0.3-0.1H56.2
		z"/>
	<path class="st1" d="M87.7,3.9l-5.5,17.5H81L75.9,6.2c-0.1-0.2-0.1-0.4-0.2-0.6c0,0.2-0.1,0.4-0.2,0.6l-5.2,15.2h-1.1L63.7,3.9h1.1
		c0.2,0,0.4,0.1,0.5,0.3l4.4,14.4c0.1,0.3,0.2,0.7,0.2,1.1c0-0.2,0.1-0.4,0.1-0.6c0-0.2,0.1-0.4,0.1-0.5l5-14.4
		c0-0.1,0.1-0.2,0.2-0.2c0.1-0.1,0.2-0.1,0.3-0.1h0.3c0.1,0,0.2,0,0.3,0.1c0.1,0.1,0.1,0.1,0.2,0.2l5,14.4c0.1,0.2,0.1,0.3,0.2,0.5
		c0,0.2,0.1,0.4,0.1,0.6c0-0.2,0.1-0.4,0.1-0.6c0-0.2,0.1-0.4,0.1-0.5l4.4-14.4c0-0.1,0.1-0.2,0.2-0.2c0.1-0.1,0.2-0.1,0.3-0.1H87.7
		z"/>
	<path class="st1" d="M95,20.5c0-0.2,0-0.3,0.1-0.4c0.1-0.1,0.1-0.3,0.2-0.4c0.1-0.1,0.2-0.2,0.4-0.2s0.3-0.1,0.5-0.1
		c0.2,0,0.3,0,0.4,0.1c0.1,0.1,0.3,0.1,0.4,0.2c0.1,0.1,0.2,0.2,0.2,0.4s0.1,0.3,0.1,0.4c0,0.2,0,0.3-0.1,0.5
		c-0.1,0.1-0.1,0.3-0.2,0.4c-0.1,0.1-0.2,0.2-0.4,0.2c-0.1,0.1-0.3,0.1-0.4,0.1c-0.3,0-0.6-0.1-0.8-0.3S95,20.8,95,20.5z"/>
	<path class="st1" d="M111.3,21.4h-4.2V3.4h4.2V21.4z"/>
	<path class="st1" d="M141.5,3.4v18.1h-3.7V11c0-0.2,0-0.5,0-0.8c0-0.3,0-0.6,0.1-0.9l-4.8,9.3c-0.1,0.3-0.3,0.5-0.6,0.7
		c-0.3,0.1-0.5,0.2-0.9,0.2H131c-0.3,0-0.6-0.1-0.9-0.2c-0.3-0.1-0.5-0.4-0.6-0.7l-4.8-9.3c0,0.3,0,0.6,0.1,0.9c0,0.3,0,0.5,0,0.8
		v10.4h-3.7V3.4h3.2c0.2,0,0.3,0,0.5,0c0.1,0,0.3,0,0.4,0.1c0.1,0,0.2,0.1,0.3,0.2c0.1,0.1,0.2,0.2,0.3,0.4l4.6,9.2
		c0.2,0.3,0.3,0.6,0.5,1s0.3,0.7,0.4,1c0.1-0.4,0.3-0.7,0.4-1.1c0.2-0.3,0.3-0.7,0.5-1l4.6-9.1c0.1-0.2,0.2-0.3,0.3-0.4
		c0.1-0.1,0.2-0.2,0.3-0.2c0.1,0,0.2-0.1,0.4-0.1s0.3,0,0.5,0H141.5z"/>
	<path class="st1" d="M170,24.8h-3.4c-0.5,0-0.9-0.1-1.3-0.2s-0.8-0.4-1.1-0.7l-2.2-2.5c-0.7,0.2-1.5,0.2-2.3,0.2
		c-1.4,0-2.7-0.2-3.8-0.7c-1.2-0.5-2.1-1.1-3-2s-1.5-1.8-1.9-2.9c-0.5-1.1-0.7-2.3-0.7-3.6s0.2-2.5,0.7-3.6c0.5-1.1,1.1-2.1,1.9-2.9
		c0.8-0.8,1.8-1.5,3-1.9s2.4-0.7,3.8-0.7s2.7,0.2,3.8,0.7s2.1,1.1,3,2c0.8,0.8,1.5,1.8,1.9,2.9s0.7,2.3,0.7,3.6
		c0,0.8-0.1,1.5-0.2,2.2s-0.4,1.4-0.7,2c-0.3,0.6-0.7,1.2-1.1,1.7c-0.4,0.5-0.9,1-1.5,1.4L170,24.8z M154.6,12.4
		c0,0.9,0.1,1.7,0.3,2.4c0.2,0.7,0.6,1.3,1,1.8c0.4,0.5,1,0.9,1.6,1.1c0.6,0.3,1.4,0.4,2.2,0.4c0.8,0,1.5-0.1,2.1-0.4
		c0.6-0.3,1.2-0.6,1.6-1.1c0.4-0.5,0.8-1.1,1-1.8c0.2-0.7,0.3-1.5,0.3-2.4c0-0.9-0.1-1.7-0.3-2.4c-0.2-0.7-0.6-1.3-1-1.8
		s-1-0.9-1.6-1.1c-0.6-0.3-1.3-0.4-2.1-0.4c-0.8,0-1.5,0.1-2.2,0.4c-0.6,0.3-1.2,0.6-1.6,1.1s-0.8,1.1-1,1.8
		C154.7,10.7,154.6,11.5,154.6,12.4z"/>
	<path class="st1" d="M187.8,7c-0.1,0.2-0.3,0.3-0.4,0.4c-0.1,0.1-0.3,0.1-0.5,0.1c-0.2,0-0.4-0.1-0.6-0.2s-0.5-0.3-0.7-0.4
		c-0.3-0.1-0.6-0.3-0.9-0.4c-0.4-0.1-0.8-0.2-1.2-0.2c-0.8,0-1.4,0.2-1.8,0.5S181,7.7,181,8.3c0,0.4,0.1,0.7,0.3,0.9
		c0.2,0.2,0.5,0.4,0.9,0.6s0.8,0.3,1.3,0.5s1,0.3,1.5,0.5c0.5,0.2,1,0.4,1.5,0.6c0.5,0.2,0.9,0.5,1.3,0.9c0.4,0.4,0.7,0.8,0.9,1.4
		c0.2,0.5,0.3,1.2,0.3,1.9c0,0.8-0.1,1.6-0.4,2.3c-0.3,0.7-0.7,1.4-1.3,1.9c-0.5,0.5-1.2,1-2,1.3c-0.8,0.3-1.7,0.5-2.7,0.5
		c-0.6,0-1.1-0.1-1.7-0.2c-0.6-0.1-1.1-0.3-1.7-0.5s-1.1-0.5-1.5-0.8c-0.5-0.3-0.9-0.6-1.3-1l1.2-2c0.1-0.1,0.2-0.3,0.4-0.4
		c0.2-0.1,0.3-0.1,0.5-0.1c0.2,0,0.5,0.1,0.7,0.2c0.3,0.2,0.5,0.3,0.9,0.5c0.3,0.2,0.7,0.4,1.1,0.5c0.4,0.2,0.9,0.2,1.5,0.2
		c0.8,0,1.4-0.2,1.8-0.5c0.4-0.3,0.6-0.9,0.6-1.6c0-0.4-0.1-0.8-0.3-1c-0.2-0.3-0.5-0.5-0.9-0.7s-0.8-0.3-1.3-0.5
		c-0.5-0.1-1-0.3-1.5-0.4c-0.5-0.2-1-0.4-1.5-0.6c-0.5-0.2-0.9-0.5-1.3-0.9c-0.4-0.4-0.7-0.9-0.9-1.4s-0.3-1.3-0.3-2.1
		c0-0.7,0.1-1.3,0.4-2c0.3-0.6,0.7-1.2,1.2-1.7s1.2-0.9,1.9-1.2c0.8-0.3,1.6-0.5,2.6-0.5c0.6,0,1.1,0,1.6,0.1c0.5,0.1,1,0.2,1.5,0.4
		s0.9,0.4,1.3,0.6c0.4,0.2,0.8,0.5,1.1,0.8L187.8,7z"/>
	<path class="st1" d="M197.9,20.5c0-0.2,0-0.3,0.1-0.4c0.1-0.1,0.1-0.3,0.2-0.4s0.2-0.2,0.4-0.2c0.1-0.1,0.3-0.1,0.5-0.1
		c0.2,0,0.3,0,0.4,0.1s0.3,0.1,0.4,0.2s0.2,0.2,0.2,0.4s0.1,0.3,0.1,0.4c0,0.2,0,0.3-0.1,0.5c-0.1,0.1-0.1,0.3-0.2,0.4
		s-0.2,0.2-0.4,0.2s-0.3,0.1-0.4,0.1c-0.3,0-0.6-0.1-0.8-0.3S197.9,20.8,197.9,20.5z"/>
	<path class="st1" d="M222.8,18.5c0.1,0,0.2,0,0.2,0.1l0.5,0.5c-0.4,0.4-0.8,0.7-1.2,1c-0.4,0.3-0.9,0.6-1.4,0.8
		c-0.5,0.2-1.1,0.4-1.7,0.5c-0.6,0.1-1.3,0.2-2,0.2c-1.2,0-2.3-0.2-3.3-0.6c-1-0.4-1.9-1-2.6-1.8c-0.7-0.8-1.3-1.7-1.7-2.8
		c-0.4-1.1-0.6-2.3-0.6-3.7c0-1.3,0.2-2.5,0.6-3.6c0.4-1.1,1-2,1.7-2.8c0.7-0.8,1.6-1.4,2.7-1.8c1-0.4,2.2-0.7,3.4-0.7
		c1.2,0,2.3,0.2,3.2,0.6c0.9,0.4,1.8,0.9,2.5,1.6l-0.4,0.6c-0.1,0.1-0.2,0.1-0.3,0.1c-0.1,0-0.3-0.1-0.5-0.3
		c-0.2-0.2-0.5-0.4-0.9-0.6c-0.4-0.2-0.9-0.4-1.5-0.6c-0.6-0.2-1.3-0.3-2.1-0.3c-1.1,0-2,0.2-2.9,0.5c-0.9,0.4-1.6,0.9-2.3,1.6
		c-0.6,0.7-1.1,1.5-1.5,2.5c-0.4,1-0.5,2.1-0.5,3.3c0,1.2,0.2,2.3,0.5,3.3c0.4,1,0.9,1.8,1.5,2.5c0.6,0.7,1.4,1.2,2.2,1.5
		c0.9,0.4,1.8,0.5,2.8,0.5c0.6,0,1.2,0,1.7-0.1c0.5-0.1,0.9-0.2,1.4-0.4s0.8-0.4,1.2-0.6c0.4-0.2,0.7-0.5,1.1-0.8
		c0,0,0.1-0.1,0.1-0.1C222.8,18.5,222.8,18.5,222.8,18.5z"/>
	<path class="st1" d="M248.6,12.6c0,1.4-0.2,2.6-0.6,3.7c-0.4,1.1-1,2-1.7,2.8c-0.7,0.8-1.6,1.4-2.6,1.8c-1,0.4-2.2,0.6-3.4,0.6
		s-2.4-0.2-3.4-0.6c-1-0.4-1.9-1-2.6-1.8c-0.7-0.8-1.3-1.7-1.7-2.8c-0.4-1.1-0.6-2.3-0.6-3.7c0-1.3,0.2-2.6,0.6-3.7s1-2,1.7-2.8
		c0.7-0.8,1.6-1.4,2.6-1.8c1-0.4,2.2-0.6,3.4-0.6s2.4,0.2,3.4,0.6c1,0.4,1.9,1,2.6,1.8s1.3,1.7,1.7,2.8S248.6,11.3,248.6,12.6z
		 M247.3,12.6c0-1.2-0.2-2.3-0.5-3.3c-0.3-1-0.8-1.8-1.4-2.5s-1.4-1.2-2.2-1.6s-1.8-0.5-2.9-0.5c-1,0-2,0.2-2.9,0.5
		s-1.6,0.9-2.2,1.6c-0.6,0.7-1.1,1.5-1.5,2.5s-0.5,2.1-0.5,3.3c0,1.2,0.2,2.3,0.5,3.3c0.3,1,0.8,1.8,1.5,2.5
		c0.6,0.7,1.4,1.2,2.2,1.5c0.9,0.4,1.8,0.5,2.9,0.5c1,0,2-0.2,2.9-0.5c0.9-0.4,1.6-0.9,2.2-1.5c0.6-0.7,1.1-1.5,1.4-2.5
		C247.1,15,247.3,13.9,247.3,12.6z"/>
	<path class="st1" d="M257.4,20.5c0-0.2,0-0.3,0.1-0.4c0.1-0.1,0.1-0.3,0.2-0.4s0.2-0.2,0.4-0.2c0.1-0.1,0.3-0.1,0.5-0.1
		c0.2,0,0.3,0,0.4,0.1s0.3,0.1,0.4,0.2s0.2,0.2,0.2,0.4s0.1,0.3,0.1,0.4c0,0.2,0,0.3-0.1,0.5c-0.1,0.1-0.1,0.3-0.2,0.4
		s-0.2,0.2-0.4,0.2s-0.3,0.1-0.4,0.1c-0.3,0-0.6-0.1-0.8-0.3S257.4,20.8,257.4,20.5z"/>
	<path class="st1" d="M281.7,4.3c0,0.2-0.1,0.3-0.2,0.5l-11.1,15.5h11.2v1.1h-12.9V21c0-0.1,0-0.2,0-0.2c0-0.1,0.1-0.1,0.1-0.2
		L280,4.9h-11V3.9h12.7V4.3z"/>
	<path class="st1" d="M304.9,21.4h-1c-0.1,0-0.2,0-0.3-0.1c-0.1-0.1-0.1-0.1-0.2-0.2l-2.1-5.1h-8.6l-2.1,5.1c0,0.1-0.1,0.2-0.2,0.2
		c-0.1,0.1-0.2,0.1-0.3,0.1h-1l7.2-17.5h1.3L304.9,21.4z M301,15l-3.6-8.9c-0.1-0.3-0.2-0.6-0.4-1c0,0.2-0.1,0.4-0.2,0.6
		c-0.1,0.2-0.1,0.3-0.2,0.5l-3.6,8.8H301z"/>
</g>
</svg>
