<svg xmlns="http://www.w3.org/2000/svg" viewBox="0 0 152.4 152.4"><style>.st0{fill:#fff}.st1{fill:#1e242b;stroke:#c2d52e;stroke-width:4;stroke-miterlimit:10}.st2{clip-path:url(#SVGID_2_)}.st3{clip-path:url(#SVGID_4_)}.st4,.st5,.st6{fill:#231f20}.st5{display:none;stroke:#fff;stroke-width:5;stroke-miterlimit:10}.st6{clip-path:url(#SVGID_6_)}.st7{clip-path:url(#SVGID_8_)}.st8{clip-path:url(#SVGID_10_);fill:#231f20}.st9{fill:none}.st10{clip-path:url(#SVGID_12_);fill:#231f20}.st11{fill:#ec1c24}.st12,.st13{clip-path:url(#SVGID_16_);fill:#fff}.st13{clip-path:url(#SVGID_18_)}.st14{clip-path:url(#SVGID_20_)}.st15{clip-path:url(#SVGID_22_)}.st16{clip-path:url(#SVGID_24_)}.st17{clip-path:url(#SVGID_26_)}.st18,.st19,.st20{fill:#1e242b}.st19,.st20{stroke:#fff;stroke-miterlimit:10}.st20{fill:none;stroke-width:2}.st21{clip-path:url(#SVGID_30_)}.st22{clip-path:url(#SVGID_32_)}.st23{clip-path:url(#SVGID_34_)}.st24{clip-path:url(#SVGID_36_)}.st25{clip-path:url(#SVGID_38_)}.st26{clip-path:url(#SVGID_40_)}.st27{clip-path:url(#SVGID_44_)}.st28{clip-path:url(#SVGID_46_)}.st29{clip-path:url(#SVGID_48_);fill:#231f20}.st30{clip-path:url(#SVGID_50_);fill:#fff}.st31{clip-path:url(#SVGID_52_)}.st32{clip-path:url(#SVGID_54_);fill:#fff}.st33{clip-path:url(#SVGID_56_)}.st34{clip-path:url(#SVGID_58_)}.st35{fill:#1e242b;stroke:#fff;stroke-width:2;stroke-miterlimit:10}.st36{clip-path:url(#SVGID_60_)}.st37{display:none}.st38{display:inline;fill:#fff;stroke:#fff;stroke-miterlimit:10}.st39{clip-path:url(#SVGID_64_)}.st40{display:none;fill:#231f20}.st41,.st42{fill-rule:evenodd;clip-rule:evenodd;fill:#231f20}.st42{fill:#fff}.st43{clip-path:url(#SVGID_68_)}.st44{fill:none;stroke:#000;stroke-width:3;stroke-miterlimit:10}</style><g id="Screen_3"><path d="M38.4 64.5c0 14.1 11.5 25.6 25.6 25.6 3.1 0 6.2-.6 9.1-1.7l24.4 24.4c.3.3.8.5 1.3.5h13.4c1 0 1.9-.8 1.9-1.9v-11c0-.5-.2-1-.5-1.3l-3.7-3.7c-.3-.4-.8-.5-1.3-.5H104v-4.6c0-1-.8-1.9-1.9-1.9h-1.8v-1.8c0-1-.8-1.9-1.9-1.9h-4v-4c0-.5-.2-1-.5-1.3L88 73.5c1.1-2.9 1.7-5.9 1.7-9.1C89.5 50.4 78 39 63.9 39c-14 0-25.5 11.4-25.5 25.5zm47.4 0c0 3-.6 6-1.8 8.8-.3.7-.1 1.5.4 2l6.3 6.3v5.1c0 1 .8 1.9 1.9 1.9h4v1.8c0 1 .8 1.9 1.9 1.9h1.8v4.6c0 1 .8 1.9 1.9 1.9h5.7l2.6 2.6v8.4h-2.6l-23-22.9c-.7-.7-1.7-.7-2.4 0s-.7 1.7 0 2.4l20.4 20.4h-3.4L74.8 84.9c-.5-.5-1.3-.7-2-.4-2.8 1.2-5.7 1.8-8.8 1.8-12 0-21.8-9.8-21.8-21.8S52 42.7 64 42.7s21.8 9.8 21.8 21.8z"/><path d="M49.2 56.8c0 3.8 3.1 7 7 7s7-3.1 7-7-3.1-7-7-7-7 3.1-7 7zm10.2 0c0 1.8-1.5 3.3-3.3 3.3s-3.3-1.5-3.3-3.3 1.5-3.3 3.3-3.3c1.9 0 3.3 1.5 3.3 3.3z"/></g></svg>