<svg xmlns="http://www.w3.org/2000/svg" viewBox="0 0 152.4 152.4"><title>_</title><g data-name="Screen 9"><path d="M121.22 124.1h-2.89V33.49a1.73 1.73 0 0 0-1.73-1.74H84.28a1.73 1.73 0 0 0-1.73 1.74V41h-3.47v-7.5a1.73 1.73 0 0 0-1.73-1.74h-7.5v-5.2a1.73 1.73 0 1 0-3.46 0v5.19h-7.51a1.74 1.74 0 0 0-1.73 1.74V41H52a1.73 1.73 0 0 0-1.74 1.73v14.42H35.79a1.74 1.74 0 0 0-1.73 1.73v65.22h-2.88a1.74 1.74 0 0 0 0 3.47h90a1.74 1.74 0 0 0 0-3.47zM60.61 35.22h15V41h-15zM49.07 124.1v-5.77h5.77v5.77m11.55-44.44v44.44H58.3v-7.5a1.72 1.72 0 0 0-1.73-1.73h-9.23a1.72 1.72 0 0 0-1.73 1.73v7.5h-8.08V60.61h28.86v19zm1.73-22.51H53.69v-12.7h28.86v33.48h-12.7v-5.77H75a1.74 1.74 0 1 0 0-3.47h-5.15v-5.77H75a1.73 1.73 0 1 0 0-3.46h-5.15v-.58a1.74 1.74 0 0 0-1.73-1.73zm30.59 66.95H69.85V81.39h28.86zm16.16 0h-12.7V77.35a1.73 1.73 0 0 0-3.46 0v.58h-3.46v-.58a1.74 1.74 0 0 0-3.47 0v.58H86V35.22h28.86v88.88z"/><path d="M77.35 120.64a1.72 1.72 0 0 0 1.73-1.73V86.59a1.73 1.73 0 1 0-3.46 0v32.32a1.73 1.73 0 0 0 1.73 1.73zM84.28 120.64a1.73 1.73 0 0 0 1.72-1.73V86.59a1.73 1.73 0 0 0-3.46 0v32.32a1.72 1.72 0 0 0 1.74 1.73zM91.2 120.64a1.73 1.73 0 0 0 1.74-1.73V86.59a1.74 1.74 0 0 0-3.47 0v32.32a1.73 1.73 0 0 0 1.73 1.73zM93.51 46.76A1.73 1.73 0 0 0 95.25 45v-2.28a1.74 1.74 0 0 0-3.47 0V45a1.73 1.73 0 0 0 1.73 1.76zM100.44 46.76a1.72 1.72 0 0 0 1.73-1.76v-2.28a1.73 1.73 0 0 0-3.46 0V45a1.72 1.72 0 0 0 1.73 1.76zM107.37 46.76A1.73 1.73 0 0 0 109.1 45v-2.28a1.74 1.74 0 0 0-3.47 0V45a1.73 1.73 0 0 0 1.74 1.76zM93.51 58.3a1.73 1.73 0 0 0 1.74-1.73v-2.31a1.74 1.74 0 0 0-3.47 0v2.31a1.73 1.73 0 0 0 1.73 1.73zM100.44 58.3a1.72 1.72 0 0 0 1.73-1.73v-2.31a1.73 1.73 0 0 0-3.46 0v2.31a1.72 1.72 0 0 0 1.73 1.73zM107.37 58.3a1.73 1.73 0 0 0 1.73-1.73v-2.31a1.74 1.74 0 0 0-3.47 0v2.31a1.73 1.73 0 0 0 1.74 1.73zM93.51 69.85a1.74 1.74 0 0 0 1.74-1.73v-2.31a1.74 1.74 0 0 0-3.47 0v2.31a1.74 1.74 0 0 0 1.73 1.73zM100.44 69.85a1.73 1.73 0 0 0 1.73-1.73v-2.31a1.73 1.73 0 0 0-3.46 0v2.31a1.73 1.73 0 0 0 1.73 1.73zM107.37 69.85a1.74 1.74 0 0 0 1.73-1.73v-2.31a1.74 1.74 0 0 0-3.47 0v2.31a1.74 1.74 0 0 0 1.74 1.73zM45 74.47a1.73 1.73 0 0 0 1.73-1.74v-2.3a1.73 1.73 0 1 0-3.46 0v2.3A1.73 1.73 0 0 0 45 74.47zM52 74.47a1.74 1.74 0 0 0 1.73-1.74v-2.3a1.74 1.74 0 1 0-3.47 0v2.3A1.74 1.74 0 0 0 52 74.47zM58.88 74.47a1.73 1.73 0 0 0 1.73-1.74v-2.3a1.73 1.73 0 1 0-3.46 0v2.3a1.74 1.74 0 0 0 1.73 1.74zM45 86a1.72 1.72 0 0 0 1.73-1.73V82a1.73 1.73 0 1 0-3.46 0v2.31A1.73 1.73 0 0 0 45 86zM52 86a1.73 1.73 0 0 0 1.73-1.73V82a1.74 1.74 0 0 0-3.47 0v2.31A1.74 1.74 0 0 0 52 86zM58.88 86a1.72 1.72 0 0 0 1.73-1.73V82a1.73 1.73 0 1 0-3.46 0v2.31A1.74 1.74 0 0 0 58.88 86zM45 97.55a1.72 1.72 0 0 0 1.73-1.73v-2.31a1.73 1.73 0 1 0-3.46 0v2.31A1.72 1.72 0 0 0 45 97.55zM52 97.55a1.73 1.73 0 0 0 1.73-1.73v-2.31a1.74 1.74 0 0 0-3.47 0v2.31A1.73 1.73 0 0 0 52 97.55zM58.88 97.55a1.72 1.72 0 0 0 1.73-1.73v-2.31a1.73 1.73 0 1 0-3.46 0v2.31a1.73 1.73 0 0 0 1.73 1.73zM45 109.1a1.73 1.73 0 0 0 1.73-1.73v-2.31a1.73 1.73 0 1 0-3.46 0v2.31A1.73 1.73 0 0 0 45 109.1zM52 109.1a1.74 1.74 0 0 0 1.73-1.73v-2.31a1.74 1.74 0 0 0-3.47 0v2.31A1.74 1.74 0 0 0 52 109.1zM58.88 109.1a1.73 1.73 0 0 0 1.73-1.73v-2.31a1.73 1.73 0 1 0-3.46 0v2.31a1.74 1.74 0 0 0 1.73 1.73zM107.37 81.39a1.73 1.73 0 0 0 1.73-1.73v-2.31a1.74 1.74 0 0 0-3.47 0v2.31a1.73 1.73 0 0 0 1.74 1.73zM107.37 92.94a1.74 1.74 0 0 0 1.73-1.74v-2.3a1.74 1.74 0 1 0-3.47 0v2.3a1.74 1.74 0 0 0 1.74 1.74zM107.37 104.48a1.73 1.73 0 0 0 1.73-1.73v-2.31a1.74 1.74 0 0 0-3.47 0v2.31a1.73 1.73 0 0 0 1.74 1.73zM107.37 116a1.73 1.73 0 0 0 1.73-1.73V112a1.74 1.74 0 0 0-3.47 0v2.31a1.73 1.73 0 0 0 1.74 1.69zM76.77 52A1.73 1.73 0 0 0 75 50.22H61.19a1.74 1.74 0 0 0 0 3.47H75A1.73 1.73 0 0 0 76.77 52z"/></g></svg>