<svg data-name="Screen 3" xmlns="http://www.w3.org/2000/svg" viewBox="0 0 152.4 152.4"><title>icons</title><path d="M114 101.24h-6a3.36 3.36 0 0 0-2.39-2.43v-8.62a.84.84 0 1 0-1.67 0v8.62a3.41 3.41 0 0 0 .84 6.69 3.35 3.35 0 0 0 3.22-2.56h6a.85.85 0 0 0 0-1.7zm-9.2 2.55a1.7 1.7 0 1 1 1.67-1.7 1.69 1.69 0 0 1-1.66 1.7z"/><path d="M121.44 92.28a19.48 19.48 0 0 0-7-7.1h-.05a18.93 18.93 0 0 0-19.15 0 19.53 19.53 0 0 0-7 7.1 19.79 19.79 0 0 0 0 19.47.13.13 0 0 0 0 .06 19.42 19.42 0 0 0 7 7.07h.07a18.84 18.84 0 0 0 19.1 0h.07a19.45 19.45 0 0 0 7-7.07v-.06c0-.06 0 0 0 0a19.79 19.79 0 0 0 0-19.47zm-7.14 24.82l-.4-.7a.83.83 0 0 0-1.15-.31.85.85 0 0 0-.3 1.16l.4.71a17.24 17.24 0 0 1-7.21 2v-.81a.84.84 0 1 0-1.67 0v.81a17.23 17.23 0 0 1-7.2-2l.4-.71a.86.86 0 0 0-.31-1.16.82.82 0 0 0-1.14.31l-.4.7a17.73 17.73 0 0 1-5.27-5.36l.69-.4a.86.86 0 0 0 .3-1.17.83.83 0 0 0-1.14-.31l-.69.41a18 18 0 0 1-1.93-7.33h.8a.85.85 0 0 0 0-1.7h-.8a18 18 0 0 1 1.93-7.32l.69.41a.91.91 0 0 0 .42.11A.81.81 0 0 0 91 94a.86.86 0 0 0-.3-1.16l-.69-.4a17.87 17.87 0 0 1 5.27-5.37l.4.71a.82.82 0 0 0 .72.42.8.8 0 0 0 .42-.11.86.86 0 0 0 .31-1.16l-.4-.71a17.31 17.31 0 0 1 7.2-2v.81a.84.84 0 1 0 1.67 0v-.81a17.4 17.4 0 0 1 7.21 2l-.4.71a.86.86 0 0 0 .3 1.16.83.83 0 0 0 .42.11.85.85 0 0 0 .73-.42l.39-.71a17.79 17.79 0 0 1 5.28 5.37l-.69.4a.85.85 0 0 0 .42 1.59.78.78 0 0 0 .41-.12l.7-.4a18 18 0 0 1 1.92 7.32h-.79a.85.85 0 0 0 0 1.7h.79a18.06 18.06 0 0 1-1.92 7.33l-.7-.41a.83.83 0 0 0-1.14.31.86.86 0 0 0 .31 1.16l.69.41a17.73 17.73 0 0 1-5.23 5.37z"/><path d="M88.35 61.79H41.81v46.54h42.74a18 18 0 0 1-.76-3.2h-9.88V93.89h11.23c1-2.49 1.35-3.42 3.22-5.31v-.36-8.78h11.22v2.19a21.19 21.19 0 0 1 3.22-.51V61.79zm-32.1 43.33H45V93.89h11.25zm0-14.44H45V79.44h11.25zm0-14.45H45V65h11.25zm14.45 28.89H59.46V93.89H70.7zm0-14.44H59.46V79.44H70.7zm0-14.45H59.46V65H70.7zm14.44 14.45H73.91V79.44h11.23zm0-14.45H73.91V65h11.23zm14.44 0H88.35V65h11.23z"/><path d="M110.8 82.06a20.32 20.32 0 0 1 3.2 1.38V36.12a1.61 1.61 0 0 0-1.6-1.61h-8V29.7a1.6 1.6 0 0 0-1.6-1.61H91.56A1.61 1.61 0 0 0 90 29.7v4.81H54.65V29.7A1.61 1.61 0 0 0 53 28.09H41.81a1.61 1.61 0 0 0-1.6 1.61v4.81h-8a1.61 1.61 0 0 0-1.6 1.61V118a1.6 1.6 0 0 0 1.6 1.6h61.1a17.26 17.26 0 0 1-4-3.21H33.79V53.77h77v28.3zM93.16 36.12V31.3h8v9.63h-8zm-49.74 0V31.3h8v9.63h-8zm-9.63 14.44V37.72h6.42v4.82a1.6 1.6 0 0 0 1.6 1.6H53a1.61 1.61 0 0 0 1.61-1.6v-4.82H90v4.82a1.61 1.61 0 0 0 1.61 1.6h11.23a1.6 1.6 0 0 0 1.6-1.6v-4.82h6.42v12.84z"/></svg>