<svg xmlns="http://www.w3.org/2000/svg" xmlns:xlink="http://www.w3.org/1999/xlink" viewBox="0 0 152.4 152.4"><style>.st0{fill:#fff}.st1{fill:#1e242b;stroke:#c2d52e;stroke-width:4;stroke-miterlimit:10}.st2{clip-path:url(#SVGID_2_)}.st3{clip-path:url(#SVGID_4_)}.st4,.st5,.st6{fill:#231f20}.st5{display:none;stroke:#fff;stroke-width:5;stroke-miterlimit:10}.st6{clip-path:url(#SVGID_6_)}.st7{clip-path:url(#SVGID_8_)}.st8{clip-path:url(#SVGID_10_);fill:#231f20}.st9{fill:none}.st10{clip-path:url(#SVGID_12_);fill:#231f20}.st11{fill:#ec1c24}.st12,.st13{clip-path:url(#SVGID_16_);fill:#fff}.st13{clip-path:url(#SVGID_18_)}.st14{clip-path:url(#SVGID_20_)}.st15{clip-path:url(#SVGID_22_)}.st16{clip-path:url(#SVGID_24_)}.st17{clip-path:url(#SVGID_26_)}.st18,.st19,.st20{fill:#1e242b}.st19,.st20{stroke:#fff;stroke-miterlimit:10}.st20{fill:none;stroke-width:2}.st21{clip-path:url(#SVGID_30_)}.st22{clip-path:url(#SVGID_32_)}.st23{clip-path:url(#SVGID_34_)}.st24{clip-path:url(#SVGID_36_)}.st25{clip-path:url(#SVGID_38_)}.st26{clip-path:url(#SVGID_40_)}.st27{clip-path:url(#SVGID_44_)}.st28{clip-path:url(#SVGID_46_)}.st29{clip-path:url(#SVGID_48_);fill:#231f20}.st30{clip-path:url(#SVGID_50_);fill:#fff}.st31{clip-path:url(#SVGID_52_)}.st32{clip-path:url(#SVGID_54_);fill:#fff}.st33{clip-path:url(#SVGID_56_)}.st34{clip-path:url(#SVGID_58_)}.st35{fill:#1e242b;stroke:#fff;stroke-width:2;stroke-miterlimit:10}.st36{clip-path:url(#SVGID_60_)}.st37{display:none}.st38{display:inline;fill:#fff;stroke:#fff;stroke-miterlimit:10}.st39{clip-path:url(#SVGID_64_)}.st40{display:none;fill:#231f20}.st41,.st42{fill-rule:evenodd;clip-rule:evenodd;fill:#231f20}.st42{fill:#fff}.st43{clip-path:url(#SVGID_68_)}.st44{fill:none;stroke:#000;stroke-width:3;stroke-miterlimit:10}</style><g id="Screen_3"><path class="st0" d="M42.6 122.6c-4.9 0-10.8-2.9-12.3-7.6-.3-.8-.8-1.7-1.2-2.5-1.4-2.5-3.1-5.4 1.1-8.5.1-.5-.3-2.6-1.1-3.7-3.6-5.4-6.1-11.4-8.4-17.2-.3-.8-.7-1.6-1-2.5l-.2-.4c-1.8-4.3-1.7-4.5 2.9-8.9l.5-.5.3.6c2.2 4.7 5.6 6.6 10.6 5.9 5.5-.8 7.7-3 7.6-7.6-.1-4.8-.1-9.6-.1-14.7v-8.1l.8.4c4.8 2.8 5.7 6.4 6.4 9.5.2.8-.1 1.6-.4 2.4-.3.7-.5 1.4-.3 1.9.1.3.5.6 1.1.8 2.7.9 5.3.2 7.3-1.9l.3-.3c.1 0 .1-.1.2-.1 1.6-3.8 3.7-6.1 6.3-7.1 2.9-1.1 6.4-.5 11.1 1.9 1.9.9 4.4-.3 6.8-3.5.7-.9 1.3-1.7 2-2.6 5.5-7.1 11.1-14.4 19.8-18.4 3.9-1.8 8.3-1.9 12-.2 3.6 1.6 6.2 4.6 7.4 8.5.3 1.1.8 2.1 1.3 3.2 1.1 2.3 2.2 4.7 1.6 7.4-.2.7 0 1.6.1 2.6.2 1.7.5 3.6-.6 4.7-.9.9-2.6 1.1-5.2.7-.3-.1-.9.3-1.4 1.1-.9 1.4-1.3 3.6-.2 5.2l.1.1c.8 1.1 1.9 2.7 3.1 2.7.8 0 1.5-.8 2.3-2.2 1.4-2.6 4.2-1.5 5.8-.8l.4.2c.6.2 1 .6 1.2 1.1.3.8-.1 1.7-.4 2.4-.2.4-.3.8-.4 1.1-1 5.5-3.1 9.3-7.2 12.7-3.6 3-6 6.8-8.5 10.9-2 3.2-4.1 6.6-6.8 9.5-12.5 13.2-26.6 19-43.2 17.7-4.8-.4-9.2 1-13.5 2.3-1.8.6-3.7 1.2-5.7 1.6-.5.1-1.4.2-2.3.2zm-20-50.1c-3.7 3.6-3.6 3.7-2.2 7.3l.2.4c.3.8.7 1.6 1 2.5 2.3 5.8 4.8 11.7 8.3 17 .7 1.1 1.8 4.3.9 5-3.5 2.6-2.3 4.7-.8 7.2.5.9 1 1.8 1.3 2.7 1.6 5 8.8 7.8 13.6 6.7 1.9-.4 3.8-1 5.6-1.6 4.4-1.4 8.9-2.8 13.9-2.4 16.3 1.3 30.2-4.4 42.4-17.4 2.6-2.8 4.7-6.1 6.7-9.3 2.5-4 5-8.1 8.7-11.1 3.9-3.2 5.9-6.9 6.8-12.1.1-.4.3-.9.5-1.3.3-.6.6-1.2.4-1.6-.1-.2-.3-.4-.7-.5l-.4-.2c-2-.8-3.7-1.3-4.6.4-1 1.8-2 2.7-3.1 2.8-1.7.1-3-1.7-3.9-3.1l-.1-.1c-1.4-2-.9-4.7.2-6.3.7-1.1 1.6-1.7 2.4-1.6 2.2.4 3.7.2 4.3-.4.8-.8.6-2.3.3-3.8-.2-1.1-.3-2.1-.1-3 .5-2.4-.5-4.5-1.5-6.8-.5-1.1-1-2.2-1.4-3.3-1.1-3.6-3.5-6.4-6.9-7.9-3.5-1.5-7.5-1.5-11.2.2C94.7 34.8 89.1 42 83.7 49c-.7.9-1.3 1.7-2 2.6-2.8 3.6-5.7 4.9-8.1 3.7-4.4-2.2-7.7-2.8-10.3-1.8-2.4.9-4.2 3-5.7 6.6-.1.3-.3.4-.5.5-.1 0-.1.1-.2.1-2.3 2.5-5.3 3.2-8.4 2.2-.8-.3-1.4-.7-1.7-1.3-.4-.8-.1-1.8.2-2.6.2-.6.5-1.3.3-1.8-.7-2.9-1.4-5.9-5.2-8.4v6.3c0 5.1-.1 9.9.1 14.7.2 6.6-4.2 8.1-8.5 8.7-4.9.6-8.7-1.4-11.1-6z"/><path d="M109.1 29c5.7 0 10.9 3.5 12.6 9.4 1 3.4 3.7 6.6 2.9 10.3-.6 2.6 2.5 7.8-2.9 7.8-.6 0-1.3-.1-2.2-.2h-.2c-1.7 0-3.9 4.4-1.9 7.1.9 1.2 2.1 3 3.5 3 .9 0 1.8-.7 2.8-2.5.6-1 1.4-1.4 2.2-1.4 1.1 0 2.4.6 3.4.9 2.1.8.4 2.7.1 4-.9 4.9-2.7 8.8-7 12.4-6.5 5.4-9.4 14-15.4 20.4C96.3 111.8 83.9 118 68.9 118c-1.5 0-3-.1-4.5-.2-.6 0-1.1-.1-1.7-.1-6.3 0-11.8 2.7-17.6 4-.8.2-1.6.3-2.4.3-4.8 0-10.4-2.9-11.8-7.3-1.1-3.5-5.5-6.7-.3-10.5.5-.4-.2-3.1-1-4.3-4.1-6.1-6.6-12.9-9.4-19.6-1.8-4.4-2-4.3 2.6-8.8 1.9 4.2 4.9 6.3 9.1 6.3.6 0 1.3 0 2-.1 4.8-.7 8.2-2.5 8-8.2-.2-7 0-13.9 0-21.9 4.5 2.7 5.4 5.9 6.2 9.2.4 1.8-2.4 4.3.8 5.4.8.3 1.7.4 2.5.4 2 0 3.8-.8 5.3-2.5.2-.2.5-.3.6-.5 2.2-5.2 5.1-7.3 8.8-7.3 2.3 0 5 .8 7.9 2.3.5.3 1 .4 1.5.4 1.9 0 4-1.6 5.9-4 6.2-7.8 12-16.4 21.7-20.8 2-.7 4-1.2 6-1.2m0-1.7V29v-1.7c-2.3 0-4.6.5-6.8 1.5-9 4.1-14.7 11.5-20.3 18.7-.7.8-1.3 1.7-2 2.6-1.6 2.1-3.3 3.3-4.5 3.3-.3 0-.5-.1-.8-.2-3.3-1.7-6.2-2.5-8.7-2.5-2.3 0-4.3.7-6.1 2.1-1.7 1.3-3.1 3.3-4.2 5.9-.1.1-.3.2-.4.4-1.2 1.3-2.6 1.9-4.1 1.9-.6 0-1.3-.1-1.9-.3-.2-.1-.3-.1-.3-.1 0-.2.2-.6.3-.9.3-.9.7-1.9.4-3.1-.8-3.2-1.7-7.2-7-10.3l-2.6-1.6V55c0 5.1-.1 9.9.1 14.7.1 4-1.6 5.7-6.5 6.4-.6.1-1.2.1-1.7.1-3.5 0-5.9-1.7-7.6-5.3l-1-2.2-1.8 1.7c-2.3 2.3-3.6 3.5-4.1 5-.5 1.7.1 3.1.9 5.3l.2.4c.3.8.7 1.6 1 2.5 2.4 5.9 4.8 12 8.6 17.5.4.6.7 1.7.8 2.4-1.8 1.5-2.7 3.2-2.6 5.1.1 1.7.9 3.3 1.7 4.6.5.8.9 1.6 1.1 2.3.8 2.5 2.7 4.7 5.4 6.3 2.4 1.4 5.4 2.2 8.1 2.2 1 0 1.9-.1 2.8-.3 2-.5 3.9-1.1 5.7-1.6 3.9-1.2 7.5-2.3 11.5-2.3.5 0 1 0 1.6.1 1.6.1 3.1.2 4.7.2 15 0 28-6 39.6-18.3 2.8-3 4.9-6.4 7-9.6 2.5-4 4.9-7.8 8.3-10.6 4.3-3.6 6.6-7.6 7.6-13.5 0-.1.2-.5.3-.8.4-.9.9-2.1.4-3.4-.3-.8-1-1.4-1.9-1.8-.1-.1-.3-.1-.4-.2-1-.4-2.3-.9-3.6-.9-1.6 0-3 .8-3.8 2.3-.8 1.5-1.3 1.6-1.3 1.6s-.2 0-.7-.5c-.5-.5-.9-1.1-1.3-1.6l-.1-.1c-.6-.8-.5-1.9-.3-2.5.2-.9.7-1.6.9-1.8.8.1 1.6.2 2.2.2 1.8 0 3.1-.5 4-1.5 1.4-1.6 1-3.8.8-5.5-.1-.8-.3-1.7-.2-2.2.7-3.1-.6-5.8-1.7-8.2-.5-1-1-2-1.2-3-1-3.2-2.9-5.9-5.5-7.8-2.7-2.1-5.8-3.1-9-3.1z"/><path d="M42.6 124.3c-2.8 0-5.8-.8-8.3-2.3-2.8-1.6-4.8-4-5.6-6.5-.2-.7-.6-1.4-1.1-2.2-.8-1.4-1.7-3-1.8-4.8-.1-2 .8-3.7 2.6-5.3-.1-.6-.4-1.5-.7-1.9-3.7-5.5-6.2-11.6-8.6-17.6l-1.2-2.9c-.9-2.2-1.6-3.8-1-5.6.5-1.6 1.8-2.9 4.2-5.2l2.3-2.2 1.3 2.9c1.8 4 4.5 5.5 8.8 4.9 4.7-.7 6.2-2.1 6.1-5.9-.1-4.8-.1-9.6-.1-14.7v-.3-10.9l3.4 2c5.4 3.2 6.4 7.3 7.2 10.6.3 1.3-.1 2.5-.4 3.4 0 .1-.1.3-.2.4 2 .6 3.8.1 5.4-1.5.1-.1.2-.2.4-.3 1.2-2.7 2.6-4.6 4.3-6 1.8-1.5 4-2.2 6.4-2.2 2.6 0 5.5.8 8.9 2.6.2.1.3.1.5.1 1 0 2.6-1.2 4.2-3.1.6-.8 1.2-1.6 1.8-2.3l.2-.2C87.2 40 93 32.5 102.1 28.4c2.1-1 4.3-1.5 6.5-1.6h1c3.1.1 6.1 1.1 8.6 2.9 2.7 2 4.7 4.7 5.7 8 .3.9.7 1.9 1.2 2.9 1.2 2.5 2.5 5.3 1.7 8.6-.1.4.1 1.3.2 2 .3 1.9.6 4.2-.9 5.9-1 1.1-2.4 1.7-4.4 1.7-.6 0-1.3-.1-2-.2-.2.2-.5.7-.6 1.4-.1.5-.2 1.4.2 2.1l.1.1c.4.5.8 1.1 1.2 1.6l.3.3c.1-.1.5-.5.9-1.3.9-1.6 2.4-2.5 4.2-2.5 1.4 0 2.7.5 3.8.9l.4.2c1.1.4 1.8 1.1 2.2 2 .6 1.5 0 2.9-.4 3.8-.1.2-.2.5-.3.7-1 6-3.4 10.1-7.8 13.8-3.3 2.8-5.7 6.5-8.2 10.5-2.1 3.3-4.2 6.7-7 9.7-11.7 12.4-24.8 18.4-39.9 18.4-1.5 0-3.1-.1-4.7-.2-.5 0-1-.1-1.5-.1-3.9 0-7.5 1.1-11.3 2.3-1.9.6-3.8 1.2-5.8 1.7-.9.2-1.8.3-2.9.3zM23.1 69.5l-1.3 1.2c-2.3 2.2-3.5 3.4-4 4.8-.5 1.5 0 2.8.9 4.9l1.2 2.9c2.4 5.9 4.8 11.9 8.5 17.4.5.7.8 1.9.9 2.6v.3l-.2.2c-1.7 1.4-2.5 2.9-2.4 4.7.1 1.6.9 3.1 1.6 4.4.5.8.9 1.6 1.2 2.4.7 2.3 2.6 4.5 5.2 6 3.2 1.9 7.3 2.6 10.5 1.9 1.9-.5 3.8-1.1 5.7-1.6 3.9-1.2 7.6-2.4 11.6-2.4.5 0 1.1 0 1.6.1 1.6.1 3.1.2 4.6.2 14.9 0 27.7-5.9 39.2-18.1 2.8-2.9 4.9-6.3 6.9-9.6 2.5-4 4.9-7.8 8.4-10.7 4.2-3.5 6.4-7.5 7.4-13.2 0-.2.2-.5.3-.9.4-.9.9-1.9.4-3-.3-.7-.8-1.2-1.7-1.5l-.4-.1c-1-.4-2.2-.9-3.4-.9-1.4 0-2.6.7-3.3 2-.9 1.6-1.5 1.8-1.6 1.8h-.2c-.2 0-.5-.2-1-.6-.5-.5-.9-1.1-1.3-1.7l-.1-.1c-.7-1-.6-2.3-.4-2.9.2-1 .7-1.8 1.1-2.1l.2-.2h.2c2.9.5 4.7.1 5.8-1.1 1.2-1.4.9-3.5.6-5.1-.1-.9-.3-1.8-.1-2.4.7-3-.6-5.6-1.7-7.9-.5-1.1-1-2.1-1.3-3.1-.9-3.1-2.8-5.7-5.3-7.5-2.3-1.7-5.1-2.6-8-2.7v.7c5.9.2 10.9 4 12.6 9.7.3 1.1.8 2.1 1.3 3.2 1.1 2.3 2.2 4.7 1.6 7.4-.2.7 0 1.6.1 2.6.2 1.7.5 3.4-.5 4.5-.9 1-2.6 1.3-5.3.8-.4 0-1.1.5-1.6 1.5-.7 1.3-1.1 3.3 0 4.8l.1.1c.7 1.1 1.9 2.7 3 2.7.8 0 1.6-.8 2.4-2.2.6-1.1 1.5-1.6 2.7-1.6 1.1 0 2.2.4 3.1.8l.4.2c.6.2 1 .6 1.2 1.1.3.8-.1 1.7-.4 2.4-.2.4-.3.8-.4 1.1-1 5.5-3.1 9.3-7.2 12.7-3.6 3-6 6.8-8.5 10.9-2 3.2-4.1 6.6-6.8 9.5-12.5 13.2-26.6 19-43.2 17.7-4.8-.4-9.2 1-13.5 2.3-1.8.6-3.7 1.2-5.7 1.6-5.1 1.2-13-1.7-14.8-7.3-.3-.8-.8-1.7-1.2-2.5-1.4-2.5-3.1-5.4 1.1-8.5.1-.5-.3-2.6-1.1-3.7-3.6-5.4-6.1-11.4-8.4-17.2-.3-.8-.7-1.6-1-2.5l-.2-.4c-1.8-4.3-1.7-4.5 2.9-8.9l.5-.5.3.6c2.2 4.7 5.6 6.6 10.6 5.9 5.5-.8 7.7-3 7.6-7.6-.1-4.8-.1-9.6-.1-14.7V47l.8.4c4.8 2.8 5.7 6.4 6.4 9.5.2.8-.1 1.6-.4 2.4-.3.7-.5 1.4-.3 1.9.1.3.5.6 1.1.8 2.7.9 5.3.2 7.3-1.9l.3-.3c.1 0 .1-.1.2-.1C59 54.5 62 52 66.1 52c2.3 0 4.9.8 8.1 2.4 1.9 1 4.4-.3 6.8-3.5.7-.9 1.3-1.7 2-2.6 5.5-7.1 11.1-14.4 19.8-18.4 1.9-.9 3.8-1.3 5.8-1.4v-.7c-2.1.1-4.1.6-6.1 1.5-8.8 4-14.5 11.4-20.1 18.5l-.2.2c-.6.8-1.2 1.6-1.8 2.3-1.8 2.2-3.5 3.5-4.9 3.5-.3 0-.7-.1-1-.2-3.3-1.6-6-2.5-8.4-2.5-2.2 0-4.1.7-5.8 2-1.6 1.3-2.9 3.2-4.1 5.7l-.1.1-.1.1-.3.3c-1.8 1.9-4.1 2.5-6.5 1.7-.2.1-.3 0-.4 0l-.3-.2.1-.4c0-.3.2-.6.3-1 .3-.8.6-1.8.4-2.8-.8-3.1-1.7-7-6.8-10l-1.9-1.1V54.9c0 5.1-.1 9.9.1 14.7.1 4.3-1.8 6.2-7 6.9-4.7.7-7.8-1.1-9.8-5.5l-.8-1.5zm-.5 3c-3.7 3.6-3.6 3.7-2.2 7.3l.2.4c.3.8.7 1.6 1 2.5 2.3 5.8 4.8 11.7 8.3 17 .7 1.1 1.8 4.3.9 5-3.5 2.6-2.3 4.7-.8 7.2.5.9 1 1.8 1.3 2.7 1.4 4.3 6.9 6.9 11.3 6.9.8 0 1.6-.1 2.3-.3 1.9-.4 3.8-1 5.6-1.6 3.8-1.2 7.8-2.4 12.1-2.4.6 0 1.2 0 1.7.1 16.3 1.3 30.1-4.4 42.4-17.4 2.6-2.8 4.7-6.1 6.7-9.3 2.5-4 5-8.1 8.7-11.1 3.9-3.2 5.9-6.9 6.8-12.1.1-.4.3-.9.5-1.3.3-.6.6-1.2.4-1.6-.1-.2-.3-.4-.7-.5l-.4-.2c-.9-.3-1.9-.7-2.8-.7-.8 0-1.4.4-1.8 1.1-1 1.9-2.1 2.8-3.3 2.8-1.6 0-2.9-1.8-3.8-3.1l-.1-.1c-1.3-1.9-.9-4.4-.1-5.9.7-1.4 1.7-2.2 2.7-2 2.3.4 3.8.2 4.4-.5.7-.8.5-2.3.2-3.7-.2-1.1-.3-2.1-.1-3 .5-2.4-.5-4.5-1.5-6.8-.5-1.1-1-2.2-1.4-3.3-1.7-5.5-6.5-9-12.2-9-2 0-4 .4-5.9 1.3C94.5 34.8 88.9 42 83.5 49c-.7.9-1.3 1.7-2 2.6-2.8 3.6-5.7 4.9-8.1 3.7-3-1.5-5.5-2.3-7.6-2.3-3.7 0-6.4 2.2-8.4 7-.1.3-.3.4-.5.5-.1 0-.1.1-.2.1-2.3 2.4-5.3 3.2-8.4 2.2-.8-.3-1.4-.7-1.7-1.3-.4-.8-.1-1.8.2-2.6.2-.6.5-1.3.3-1.8-.7-2.9-1.4-5.9-5.2-8.4V55c0 5.1-.1 9.9.1 14.7.2 6.6-4.2 8.1-8.5 8.7-4.7.7-8.5-1.3-10.9-5.9z"/><g><defs><path id="SVGID_1_" d="M129.6 67.5c.2-1.3 2-3.2-.1-4-1.7-.7-4.3-1.9-5.6.4-2.6 4.9-4.9 1.5-6.3-.5-2-2.8.4-7.4 2.1-7.1 8.3 1.4 4.5-4.7 5.1-7.6.8-3.8-1.9-6.9-2.9-10.3-2.4-7.9-11-11.5-18.7-8-9.6 4.4-15.5 13-21.7 20.8-2.4 3.1-5.2 4.8-7.5 3.6-7.6-3.8-13.1-3.4-16.7 5-.1.2-.4.3-.6.5-2.2 2.3-5 3-7.9 2-3.1-1.1-.3-3.6-.8-5.4-.8-3.3-1.7-6.5-6.2-9.2 0 8-.1 14.9 0 21.9.2 5.7-3.2 7.5-8 8.2-5.3.8-8.9-1.4-11.1-6.2-4.6 4.4-4.4 4.4-2.6 8.8 2.8 6.7 5.3 13.5 9.4 19.6.8 1.2 1.5 3.9 1 4.3-5.2 3.8-.8 7 .3 10.5 1.6 5.2 9 8.2 14.2 7 6.4-1.5 12.3-4.5 19.3-4 17.1 1.4 30.9-4.9 42.8-17.5 6-6.4 8.9-15 15.4-20.4 4.4-3.6 6.2-7.5 7.1-12.4z"/></defs><clipPath id="SVGID_2_"><use xlink:href="#SVGID_1_" overflow="visible"/></clipPath><g class="st2"><defs><path id="SVGID_3_" d="M23.5 50.7h102.1v70.6H23.5z"/></defs><clipPath id="SVGID_4_"><use xlink:href="#SVGID_3_" overflow="visible"/></clipPath><path d="M125.7 46.3h-15.9c-.9 0-1.6.7-1.6 1.6s.7 1.6 1.6 1.6h15.9c.8 0 1.5.7 1.5 1.5v18H76.3L50.6 49.5h52.6c.9 0 1.6-.7 1.6-1.6s-.7-1.6-1.6-1.6H23.7c-2.6 0-4.7 2.1-4.7 4.7v32c0 .9.7 1.6 1.6 1.6s1.6-.7 1.6-1.6V71.1l19.9 15.1-19.9 15.1V89.5c0-.9-.7-1.6-1.6-1.6s-1.6.7-1.6 1.6v32c0 2.6 2.1 4.7 4.7 4.7h102c2.6 0 4.7-2.1 4.7-4.7V51.1c.1-2.7-2.1-4.8-4.7-4.8zM22.2 105.4l23.6-17.9c.9-.7.9-2 0-2.6L22.2 67v-5.7L55 86.2l-32.8 24.9v-5.7zm105 16c0 .8-.7 1.5-1.5 1.5H50.6l25.7-19.5h13.6c.9 0-1.7-.6-1.7-1.5s2.8-1.8 1.9-1.8H75.8c-1 0 .5-.7-30.6 22.8h-7.4l36-27.3h53.5v4.5H89.4c-.9 0-1.6.7-1.6 1.6 0 .9.7 1.6 1.6 1.6h37.8v18.1zm0-29h-54c-.4 0-.7.1-1 .3l-39.8 30.2h-8.7c-.8 0-1.5-.7-1.5-1.5v-6.2l36.5-27.7c.9-.7.9-2 0-2.6L22.2 57.2V51c0-.8.7-1.5 1.5-1.5h8.7l39.8 30.2c.8.6-2.1.2 55 .3v12.4zm0-15.6H73.7l-36-27.3h7.4C76.3 73 74.8 72.3 75.8 72.3h51.4v4.5z" class="st3"/></g><path class="st2" d="M115.5 69.1H132v3.3h-16.5z"/><path transform="rotate(-37.524 39.858 119.313)" class="st2" d="M35.1 117.7h9.5v3.2h-9.5z"/></g></g></svg>