<svg xmlns="http://www.w3.org/2000/svg" viewBox="0 0 152.4 152.4"><style>.st0{fill:#fff}.st1{fill:#1e242b;stroke:#c2d52e;stroke-width:4;stroke-miterlimit:10}.st2{clip-path:url(#SVGID_2_)}.st3{clip-path:url(#SVGID_4_)}.st4,.st5,.st6{fill:#231f20}.st5{display:none;stroke:#fff;stroke-width:5;stroke-miterlimit:10}.st6{clip-path:url(#SVGID_6_)}.st7{clip-path:url(#SVGID_8_)}.st8{clip-path:url(#SVGID_10_);fill:#231f20}.st9{fill:none}.st10{clip-path:url(#SVGID_12_);fill:#231f20}.st11{fill:#ec1c24}.st12,.st13{clip-path:url(#SVGID_16_);fill:#fff}.st13{clip-path:url(#SVGID_18_)}.st14{clip-path:url(#SVGID_20_)}.st15{clip-path:url(#SVGID_22_)}.st16{clip-path:url(#SVGID_24_)}.st17{clip-path:url(#SVGID_26_)}.st18,.st19,.st20{fill:#1e242b}.st19,.st20{stroke:#fff;stroke-miterlimit:10}.st20{fill:none;stroke-width:2}.st21{clip-path:url(#SVGID_30_)}.st22{clip-path:url(#SVGID_32_)}.st23{clip-path:url(#SVGID_34_)}.st24{clip-path:url(#SVGID_36_)}.st25{clip-path:url(#SVGID_38_)}.st26{clip-path:url(#SVGID_40_)}.st27{clip-path:url(#SVGID_44_)}.st28{clip-path:url(#SVGID_46_)}.st29{clip-path:url(#SVGID_48_);fill:#231f20}.st30{clip-path:url(#SVGID_50_);fill:#fff}.st31{clip-path:url(#SVGID_52_)}.st32{clip-path:url(#SVGID_54_);fill:#fff}.st33{clip-path:url(#SVGID_56_)}.st34{clip-path:url(#SVGID_58_)}.st35{fill:#1e242b;stroke:#fff;stroke-width:2;stroke-miterlimit:10}.st36{clip-path:url(#SVGID_60_)}.st37{display:none}.st38{display:inline;fill:#fff;stroke:#fff;stroke-miterlimit:10}.st39{clip-path:url(#SVGID_64_)}.st40{display:none;fill:#231f20}.st41,.st42{fill-rule:evenodd;clip-rule:evenodd;fill:#231f20}.st42{fill:#fff}.st43{clip-path:url(#SVGID_68_)}.st44{fill:none;stroke:#000;stroke-width:3;stroke-miterlimit:10}</style><g id="Screen_3"><path class="st4" d="M52.2 112.8V99.7h-2.9v15l-6 4-5.9-4V90.9h-3v21.9l-3.6-2.4-1.6 2.4 14.1 9.5 14.2-9.5-1.7-2.4zM118 110.4l-3.6 2.4v-19h-2.9v20.9l-6 4-5.9-4v-12h-3v10.1l-3.6-2.4-1.6 2.4 14.1 9.5 14.2-9.5z"/><path class="st9" d="M41.9 71.6v4.5h48.8V79H43.9l27.6 27.5V119h5.9v-12.5L104.9 79H93.7v-2.9H107v-4.5H83.3z"/><path class="st4" d="M110 68.6h-3V42.9L94.3 30.1H65.5V45H41.9v23.7h-3v9.5l29.6 29.6V122h11.8v-14.2L110 78.1v-9.5zM95.2 39v-3.9L102 42h-6.8v-3zm-26.7-5.9h23.7v12H104v23.7H83.3v-11l-.9-.9-3-3-3-3-3-3-3-3h-2.1V33.1zm9.8 23.7h-6.8v-6h.9l5.9 6zm-33.5-8.9h23.7v12h11.8v8.9H44.8V47.9zM104.9 79l-27.5 27.5V119h-5.9v-12.5L43.9 79h63.6l-.1-3H41.9v-4.4H107V76"/></g></svg>