<svg xmlns="http://www.w3.org/2000/svg" viewBox="0 0 152.4 152.4"><style>.st0{fill:#fff}.st1{fill:#1e242b;stroke:#c2d52e;stroke-width:4;stroke-miterlimit:10}.st2{clip-path:url(#SVGID_2_)}.st3{clip-path:url(#SVGID_4_)}.st4,.st5,.st6{fill:#231f20}.st5{display:none;stroke:#fff;stroke-width:5;stroke-miterlimit:10}.st6{clip-path:url(#SVGID_6_)}.st7{clip-path:url(#SVGID_8_)}.st8{clip-path:url(#SVGID_10_);fill:#231f20}.st9{fill:none}.st10{clip-path:url(#SVGID_12_);fill:#231f20}.st11{fill:#ec1c24}.st12,.st13{clip-path:url(#SVGID_16_);fill:#fff}.st13{clip-path:url(#SVGID_18_)}.st14{clip-path:url(#SVGID_20_)}.st15{clip-path:url(#SVGID_22_)}.st16{clip-path:url(#SVGID_24_)}.st17{clip-path:url(#SVGID_26_)}.st18,.st19,.st20{fill:#1e242b}.st19,.st20{stroke:#fff;stroke-miterlimit:10}.st20{fill:none;stroke-width:2}.st21{clip-path:url(#SVGID_30_)}.st22{clip-path:url(#SVGID_32_)}.st23{clip-path:url(#SVGID_34_)}.st24{clip-path:url(#SVGID_36_)}.st25{clip-path:url(#SVGID_38_)}.st26{clip-path:url(#SVGID_40_)}.st27{clip-path:url(#SVGID_44_)}.st28{clip-path:url(#SVGID_46_)}.st29{clip-path:url(#SVGID_48_);fill:#231f20}.st30{clip-path:url(#SVGID_50_);fill:#fff}.st31{clip-path:url(#SVGID_52_)}.st32{clip-path:url(#SVGID_54_);fill:#fff}.st33{clip-path:url(#SVGID_56_)}.st34{clip-path:url(#SVGID_58_)}.st35{fill:#1e242b;stroke:#fff;stroke-width:2;stroke-miterlimit:10}.st36{clip-path:url(#SVGID_60_)}.st37{display:none}.st38{display:inline;fill:#fff;stroke:#fff;stroke-miterlimit:10}.st39{clip-path:url(#SVGID_64_)}.st40{display:none;fill:#231f20}.st41,.st42{fill-rule:evenodd;clip-rule:evenodd;fill:#231f20}.st42{fill:#fff}.st43{clip-path:url(#SVGID_68_)}.st44{fill:none;stroke:#000;stroke-width:3;stroke-miterlimit:10}</style><g id="Screen_3"><path class="st4" d="M112.6 55L88.2 33.4c-.3-.2-.6-.4-1-.4H45.5c-.8 0-1.4.6-1.4 1.4V66h-7.2c-.8 0-1.4.6-1.4 1.4v17.3c0 .8.6 1.4 1.4 1.4h7.2v31.6c0 .8.6 1.4 1.4 1.4h66.1c.8 0 1.4-.6 1.4-1.4V56.1c.1-.4-.1-.8-.4-1.1zM88.7 37.7l19.2 16.9H88.7V37.7zM38.3 83.4V69h21.6c.8 0 1.4-.6 1.4-1.4v-6.1l12.5 14.8L61.3 91v-6.1c0-.8-.6-1.4-1.4-1.4l-21.6-.1zm71.9 33.1H47V86.3h11.5v8.6c0 .6.4 1.1.9 1.4.2.1.3.1.5.1.4 0 .8-.2 1.1-.5l15.8-18.7c.5-.5.5-1.3 0-1.9L61 56.6c-.4-.5-1-.6-1.6-.4-.6.2-.9.7-.9 1.4v8.6H47V35.9h38.8V56c0 .8.6 1.4 1.4 1.4h23v59.1z"/></g></svg>