<svg xmlns="http://www.w3.org/2000/svg" viewBox="0 0 152.4 152.4"><style>.st0{fill:#fff}.st1{fill:#1e242b;stroke:#c2d52e;stroke-width:4;stroke-miterlimit:10}.st2{clip-path:url(#SVGID_2_)}.st3{clip-path:url(#SVGID_4_)}.st4,.st5,.st6{fill:#231f20}.st5{display:none;stroke:#fff;stroke-width:5;stroke-miterlimit:10}.st6{clip-path:url(#SVGID_6_)}.st7{clip-path:url(#SVGID_8_)}.st8{clip-path:url(#SVGID_10_);fill:#231f20}.st9{fill:none}.st10{clip-path:url(#SVGID_12_);fill:#231f20}.st11{fill:#ec1c24}.st12,.st13{clip-path:url(#SVGID_16_);fill:#fff}.st13{clip-path:url(#SVGID_18_)}.st14{clip-path:url(#SVGID_20_)}.st15{clip-path:url(#SVGID_22_)}.st16{clip-path:url(#SVGID_24_)}.st17{clip-path:url(#SVGID_26_)}.st18,.st19,.st20{fill:#1e242b}.st19,.st20{stroke:#fff;stroke-miterlimit:10}.st20{fill:none;stroke-width:2}.st21{clip-path:url(#SVGID_30_)}.st22{clip-path:url(#SVGID_32_)}.st23{clip-path:url(#SVGID_34_)}.st24{clip-path:url(#SVGID_36_)}.st25{clip-path:url(#SVGID_38_)}.st26{clip-path:url(#SVGID_40_)}.st27{clip-path:url(#SVGID_44_)}.st28{clip-path:url(#SVGID_46_)}.st29{clip-path:url(#SVGID_48_);fill:#231f20}.st30{clip-path:url(#SVGID_50_);fill:#fff}.st31{clip-path:url(#SVGID_52_)}.st32{clip-path:url(#SVGID_54_);fill:#fff}.st33{clip-path:url(#SVGID_56_)}.st34{clip-path:url(#SVGID_58_)}.st35{fill:#1e242b;stroke:#fff;stroke-width:2;stroke-miterlimit:10}.st36{clip-path:url(#SVGID_60_)}.st37{display:none}.st38{display:inline;fill:#fff;stroke:#fff;stroke-miterlimit:10}.st39{clip-path:url(#SVGID_64_)}.st40{display:none;fill:#231f20}.st41,.st42{fill-rule:evenodd;clip-rule:evenodd;fill:#231f20}.st42{fill:#fff}.st43{clip-path:url(#SVGID_68_)}.st44{fill:none;stroke:#000;stroke-width:3;stroke-miterlimit:10}</style><g id="Screen_3"><path class="st4" d="M118.5 93.1c-1.6-2.7-5.1-3.7-7.7-2.1l-16.5 8c-2.6 1.3-5.2 1.3-10.8 1.3-5.5 0-14-1.4-14.1-1.4-.8-.1-1.5.4-1.7 1.2-.1.8.4 1.5 1.2 1.7.4.1 8.8 1.5 14.6 1.5 6 0 8.9 0 12.1-1.6l16.6-8.1c.7-.4 1.4-.5 2.2-.3.7.2 1.4.7 1.7 1.3.4.7.5 1.4.3 2.2s-.7 1.4-1.4 1.8l-19.4 12.1s-4.2 2.6-13.6 2.6c-8.1 0-20.7-6.9-20.9-7-.1-.1-3.2-1.6-9.2-1.6-.8 0-1.4.6-1.4 1.4 0 .8.6 1.4 1.4 1.4 5.2 0 7.9 1.3 7.9 1.3.5.3 13.3 7.4 22.2 7.4 10.4 0 14.9-3 15.1-3.1l19.3-12c1.3-.8 2.3-2 2.7-3.5.3-1.6.1-3.2-.6-4.5zM43.2 78.8h-8.6c-.8 0-1.4.6-1.4 1.4s.6 1.4 1.4 1.4h8.6c.8 0 1.4.6 1.4 1.4v31.6c0 .8-.6 1.4-1.4 1.4h-8.6c-.8 0-1.4.6-1.4 1.4 0 .8.6 1.4 1.4 1.4h8.6c2.4 0 4.3-1.9 4.3-4.3V83.1c0-2.4-1.9-4.3-4.3-4.3z"/><path class="st4" d="M51.8 87.4h11.5c1.7 0 4.5 2.1 7 4 3.1 2.4 6.1 4.6 8.7 4.6h8.6c2.2 0 3.3 1 3.3 1 .3.3.6.4 1 .4s.7-.1 1-.4c.6-.6.6-1.5 0-2-.2-.2-2-1.9-5.3-1.9H79c-1.7 0-4.5-2.1-7-4-3.1-2.4-6.1-4.6-8.7-4.6H51.8c-.8 0-1.4.6-1.4 1.4s.6 1.5 1.4 1.5zM40.3 109.6c0-1.2-1-2.2-2.2-2.2-1.2 0-2.2 1-2.2 2.2 0 1.2 1 2.2 2.2 2.2 1.3 0 2.2-1 2.2-2.2z"/><g><path class="st4" d="M86.2 82.6c-13.5 0-24.6-11-24.6-24.6s11-24.6 24.6-24.6 24.6 11 24.6 24.6-11.1 24.6-24.6 24.6zm0-46.3c-12 0-21.7 9.7-21.7 21.7s9.7 21.7 21.7 21.7S107.9 70 107.9 58s-9.7-21.7-21.7-21.7z"/><path class="st4" d="M86.2 66.7c-1.9 0-3.5-1.6-3.5-3.5 0-1-.8-1.7-1.7-1.7-1 0-1.7.8-1.7 1.7 0 3.2 2.2 5.9 5.2 6.7v.2c0 1 .8 1.7 1.7 1.7 1 0 1.7-.8 1.7-1.7v-.2c3-.8 5.2-3.5 5.2-6.7 0-3.8-3.1-6.9-6.9-6.9-1.9 0-3.5-1.6-3.5-3.5s1.6-3.5 3.5-3.5 3.5 1.6 3.5 3.5c0 1 .8 1.7 1.7 1.7 1 0 1.7-.8 1.7-1.7 0-3.2-2.2-5.9-5.2-6.7v-.2c0-1-.8-1.7-1.7-1.7-1 0-1.7.8-1.7 1.7v.2c-3 .8-5.2 3.5-5.2 6.7 0 3.8 3.1 6.9 6.9 6.9 1.9 0 3.5 1.6 3.5 3.5s-1.6 3.5-3.5 3.5z"/></g></g></svg>