<svg xmlns="http://www.w3.org/2000/svg" viewBox="0 0 152.4 152.4"><style>.st0{fill:#fff}.st1{fill:#1e242b;stroke:#c2d52e;stroke-width:4;stroke-miterlimit:10}.st2{clip-path:url(#SVGID_2_)}.st3{clip-path:url(#SVGID_4_)}.st4,.st5,.st6{fill:#231f20}.st5{display:none;stroke:#fff;stroke-width:5;stroke-miterlimit:10}.st6{clip-path:url(#SVGID_6_)}.st7{clip-path:url(#SVGID_8_)}.st8{clip-path:url(#SVGID_10_);fill:#231f20}.st9{fill:none}.st10{clip-path:url(#SVGID_12_);fill:#231f20}.st11{fill:#ec1c24}.st12,.st13{clip-path:url(#SVGID_16_);fill:#fff}.st13{clip-path:url(#SVGID_18_)}.st14{clip-path:url(#SVGID_20_)}.st15{clip-path:url(#SVGID_22_)}.st16{clip-path:url(#SVGID_24_)}.st17{clip-path:url(#SVGID_26_)}.st18,.st19,.st20{fill:#1e242b}.st19,.st20{stroke:#fff;stroke-miterlimit:10}.st20{fill:none;stroke-width:2}.st21{clip-path:url(#SVGID_30_)}.st22{clip-path:url(#SVGID_32_)}.st23{clip-path:url(#SVGID_34_)}.st24{clip-path:url(#SVGID_36_)}.st25{clip-path:url(#SVGID_38_)}.st26{clip-path:url(#SVGID_40_)}.st27{clip-path:url(#SVGID_44_)}.st28{clip-path:url(#SVGID_46_)}.st29{clip-path:url(#SVGID_48_);fill:#231f20}.st30{clip-path:url(#SVGID_50_);fill:#fff}.st31{clip-path:url(#SVGID_52_)}.st32{clip-path:url(#SVGID_54_);fill:#fff}.st33{clip-path:url(#SVGID_56_)}.st34{clip-path:url(#SVGID_58_)}.st35{fill:#1e252c}.st36{fill:none;stroke:#c2d52e;stroke-width:4;stroke-miterlimit:10}.st37{clip-path:url(#SVGID_60_)}.st38{clip-path:url(#SVGID_62_)}.st39{fill:#1e242b;stroke:#fff;stroke-width:2;stroke-miterlimit:10}.st40{clip-path:url(#SVGID_64_)}.st41{display:none}.st42{display:inline;fill:#fff;stroke:#fff;stroke-miterlimit:10}.st43{clip-path:url(#SVGID_68_)}.st44{display:none;fill:#231f20}.st45,.st46{fill-rule:evenodd;clip-rule:evenodd;fill:#231f20}.st46{fill:#fff}.st47{fill:#ffb1b5}.st48{fill:#b9b9b9}.st49{fill:#cdcdcd}.st50{fill:#1f6c8c}.st51{fill:#834b10}.st52{fill:#85bc94}.st53{fill:#8dc79d}.st54{fill:#8f563b}.st55{fill:#dc4d41}.st56{clip-path:url(#SVGID_72_)}.st57{clip-path:url(#SVGID_74_)}.st58{clip-path:url(#SVGID_76_)}.st59{fill:none;stroke:#000;stroke-width:3;stroke-miterlimit:10}</style><g id="Screen_9"><path d="M122.4 60.3l-2.6-2c-.7-.6-1.8-.4-2.4.3l-2.8 3.6-.1-.1c-.9-.7-2.2-.5-2.9.4l-31.5 41.1s0 .1-.1.1c0 0 0 .1-.1.1 0 .1-.1.1-.1.2l-4.1 11.9c-.2.7 0 1.4.5 1.8.3.2.6.3 1 .3.3 0 .6-.1.9-.3l10.4-7.1c.1 0 .1-.1.2-.1l.1-.1.1-.1 28.4-37 .8.6L106.5 89c-.5.6-.3 1.5.3 1.9.2.2.5.3.8.3.4 0 .8-.2 1.1-.5l12-15.6c.7-.9.5-2.3-.4-3l-1.3-1 1.5-1.9c.7-.9.5-2.2-.4-2.9l-.1-.1 2.8-3.6c.4-.7.3-1.7-.4-2.3zm-43 53.3l2.4-7 3.7 2.8-6.1 4.2zm8.2-6l-4.5-3.5 30.3-39.5 4.5 3.5-30.3 39.5zm30.1-43l-1-.8 2.2-2.8 1 .8-2.2 2.8zM100.8 71.2H47.1c-.8 0-1.4.6-1.4 1.4 0 .8.6 1.4 1.4 1.4h53.7c.8 0 1.4-.6 1.4-1.4 0-.7-.6-1.4-1.4-1.4zM87.8 85.3H47.1c-.8 0-1.4.6-1.4 1.4 0 .8.6 1.4 1.4 1.4h40.7c.8 0 1.4-.6 1.4-1.4s-.6-1.4-1.4-1.4zM71.7 113.4H47.1c-.8 0-1.4.6-1.4 1.4 0 .8.6 1.4 1.4 1.4h24.6c.8 0 1.4-.6 1.4-1.4 0-.8-.6-1.4-1.4-1.4zM100.8 113.4h-12c-.8 0-1.4.6-1.4 1.4 0 .8.6 1.4 1.4 1.4h12.1c.8 0 1.4-.6 1.4-1.4-.1-.8-.7-1.4-1.5-1.4z"/><path d="M109.7 62c.8 0 1.4-.6 1.4-1.4v-9.2-.2-.2c0-.1 0-.1-.1-.2 0-.1-.1-.1-.1-.1l-.1-.1-21.9-21.9-.1-.1-.1-.1s-.1 0-.2-.1H40.2c-1.6 0-2.8 1.3-2.8 2.8v90.1c0 1.6 1.3 2.8 2.8 2.8h68c1.6 0 2.8-1.3 2.8-2.8V93.9c0-.8-.6-1.4-1.4-1.4-.8 0-1.4.6-1.4 1.4v27.3c0 .1 0 .1-.1.1h-68c-.1 0-.1 0-.1-.1v-90c0-.1 0-.1.1-.1h46.4V50c0 1.6 1.3 2.9 2.9 2.9h18.9v7.9c0 .6.6 1.2 1.4 1.2zM89.5 50.1c-.1 0-.2-.1-.2-.2V33l17.1 17.1H89.5z"/><path d="M70.9 47.8L59.5 37.1c-.5-.5-1.3-.5-1.9 0L46.3 47.8c-.5.5-.6 1.4-.1 1.9s1.4.6 1.9.1L58.6 40l10.5 9.8c.3.2.6.4.9.4.4 0 .7-.1 1-.4.5-.7.5-1.5-.1-2z"/><path d="M67.1 49.5l-7-6.6c-.9-.8-2.2-.8-3.1 0l-7 6.6c-.5.4-.7 1-.7 1.6v9.5c0 1.2 1 2.3 2.3 2.3h13.9c1.2 0 2.3-1 2.3-2.3v-9.5c0-.6-.2-1.2-.7-1.6zm-7.5 10.7h-2v-4.7h2v4.7zm2.7 0v-5.6c0-1-.8-1.9-1.9-1.9h-3.7c-1 0-1.9.8-1.9 1.9v5.6H52v-8.9l6.5-6.1 6.5 6.1v8.9h-2.7zM75.7 99.4H60.5c-.8 0-1.4.6-1.4 1.4 0 .8.6 1.4 1.4 1.4h15.2c.8 0 1.4-.6 1.4-1.4s-.7-1.4-1.4-1.4zM52 99.4h-4.7c-.8 0-1.4.6-1.4 1.4s.6 1.4 1.4 1.4H52c.8 0 1.4-.6 1.4-1.4 0-.8-.6-1.4-1.4-1.4z"/></g></svg>