<svg xmlns="http://www.w3.org/2000/svg" viewBox="0 0 152.4 152.4"><style>.st0{fill:#fff}.st1{fill:#1e242b;stroke:#c2d52e;stroke-width:4;stroke-miterlimit:10}.st2{clip-path:url(#SVGID_2_)}.st3{clip-path:url(#SVGID_4_)}.st4,.st5,.st6{fill:#231f20}.st5{display:none;stroke:#fff;stroke-width:5;stroke-miterlimit:10}.st6{clip-path:url(#SVGID_6_)}.st7{clip-path:url(#SVGID_8_)}.st8{clip-path:url(#SVGID_10_);fill:#231f20}.st9{fill:none}.st10{clip-path:url(#SVGID_12_);fill:#231f20}.st11{fill:#ec1c24}.st12,.st13{clip-path:url(#SVGID_16_);fill:#fff}.st13{clip-path:url(#SVGID_18_)}.st14{clip-path:url(#SVGID_20_)}.st15{clip-path:url(#SVGID_22_)}.st16{clip-path:url(#SVGID_24_)}.st17{clip-path:url(#SVGID_26_)}.st18,.st19,.st20{fill:#1e242b}.st19,.st20{stroke:#fff;stroke-miterlimit:10}.st20{fill:none;stroke-width:2}.st21{clip-path:url(#SVGID_30_)}.st22{clip-path:url(#SVGID_32_)}.st23{clip-path:url(#SVGID_34_)}.st24{clip-path:url(#SVGID_36_)}.st25{clip-path:url(#SVGID_38_)}.st26{clip-path:url(#SVGID_40_)}.st27{clip-path:url(#SVGID_44_)}.st28{clip-path:url(#SVGID_46_)}.st29{clip-path:url(#SVGID_48_);fill:#231f20}.st30{clip-path:url(#SVGID_50_);fill:#fff}.st31{clip-path:url(#SVGID_52_)}.st32{clip-path:url(#SVGID_54_);fill:#fff}.st33{clip-path:url(#SVGID_56_)}.st34{clip-path:url(#SVGID_58_)}.st35{fill:#1e242b;stroke:#fff;stroke-width:2;stroke-miterlimit:10}.st36{clip-path:url(#SVGID_60_)}.st37{display:none}.st38{display:inline;fill:#fff;stroke:#fff;stroke-miterlimit:10}.st39{clip-path:url(#SVGID_64_)}.st40{display:none;fill:#231f20}.st41,.st42{fill-rule:evenodd;clip-rule:evenodd;fill:#231f20}.st42{fill:#fff}.st43{clip-path:url(#SVGID_68_)}.st44{fill:none;stroke:#000;stroke-width:3;stroke-miterlimit:10}</style><g id="Screen_3"><path d="M112.6 119.7l-4.2-4.2V61.7l-.8-.8-6.9-6.9V30H39.3v80H47v7.7h59.3l4.2 4.2c.3.3.7.5 1.1.5s.8-.2 1.1-.5c.5-.6.5-1.6-.1-2.2zm-9.4-58.9H85.4V43l15.4 15.4 2.4 2.4zm-60.8 46.1V33.2h55.3V51L85.3 38.5l-.8-.8H47v69.2h-4.6zm7.7 7.7V40.8h32.3v23.1h23.1v48.6l-11.6-11.6c2.7-3.2 4.3-7.3 4.3-11.7C98.2 79.2 90 71 80 71s-18.2 8.2-18.2 18.2S70 107.4 80 107.4c4.5 0 8.5-1.6 11.7-4.3l11.6 11.6H50.1zM80 104.3c-8.3 0-15.1-6.8-15.1-15.1S71.6 74.1 80 74.1s15.1 6.8 15.1 15.1-6.8 15.1-15.1 15.1z"/><path d="M71 85.4h9.2c.9 0 1.5-.7 1.5-1.5s-.7-1.5-1.5-1.5H71c-.9 0-1.5.7-1.5 1.5s.7 1.5 1.5 1.5zM89.5 91.6H71c-.9 0-1.5.7-1.5 1.5 0 .9.7 1.5 1.5 1.5h18.4c.9 0 1.5-.7 1.5-1.5.1-.8-.6-1.5-1.4-1.5z"/></g></svg>