<svg xmlns="http://www.w3.org/2000/svg" viewBox="0 0 152.4 152.4"><style>.st0{fill:#fff}.st1{fill:#1e242b;stroke:#c2d52e;stroke-width:4;stroke-miterlimit:10}.st2{clip-path:url(#SVGID_2_)}.st3{clip-path:url(#SVGID_4_)}.st4,.st5,.st6{fill:#231f20}.st5{display:none;stroke:#fff;stroke-width:5;stroke-miterlimit:10}.st6{clip-path:url(#SVGID_6_)}.st7{clip-path:url(#SVGID_8_)}.st8{clip-path:url(#SVGID_10_);fill:#231f20}.st9{fill:none}.st10{clip-path:url(#SVGID_12_);fill:#231f20}.st11{fill:#ec1c24}.st12,.st13{clip-path:url(#SVGID_16_);fill:#fff}.st13{clip-path:url(#SVGID_18_)}.st14{clip-path:url(#SVGID_20_)}.st15{clip-path:url(#SVGID_22_)}.st16{clip-path:url(#SVGID_24_)}.st17{clip-path:url(#SVGID_26_)}.st18,.st19,.st20{fill:#1e242b}.st19,.st20{stroke:#fff;stroke-miterlimit:10}.st20{fill:none;stroke-width:2}.st21{clip-path:url(#SVGID_30_)}.st22{clip-path:url(#SVGID_32_)}.st23{clip-path:url(#SVGID_34_)}.st24{clip-path:url(#SVGID_36_)}.st25{clip-path:url(#SVGID_38_)}.st26{clip-path:url(#SVGID_40_)}.st27{clip-path:url(#SVGID_44_)}.st28{clip-path:url(#SVGID_46_)}.st29{clip-path:url(#SVGID_48_);fill:#231f20}.st30{clip-path:url(#SVGID_50_);fill:#fff}.st31{clip-path:url(#SVGID_52_)}.st32{clip-path:url(#SVGID_54_);fill:#fff}.st33{clip-path:url(#SVGID_56_)}.st34{clip-path:url(#SVGID_58_)}.st35{fill:#1e242b;stroke:#fff;stroke-width:2;stroke-miterlimit:10}.st36{clip-path:url(#SVGID_60_)}.st37{display:none}.st38{display:inline;fill:#fff;stroke:#fff;stroke-miterlimit:10}.st39{clip-path:url(#SVGID_64_)}.st40{display:none;fill:#231f20}.st41,.st42{fill-rule:evenodd;clip-rule:evenodd;fill:#231f20}.st42{fill:#fff}.st43{clip-path:url(#SVGID_68_)}.st44{fill:none;stroke:#000;stroke-width:3;stroke-miterlimit:10}</style><g id="Screen_3"><path d="M107.7 31.7h-63L26.3 84.8v29.4c0 3.6 2.9 6.5 6.5 6.5h86.8c3.6 0 6.5-2.9 6.5-6.5V84.8l-18.4-53.1zm-60.5 3.5h58l16.6 48.1H98.4c-1.5 0-2.9.8-3.7 2-.4.7-.7 1.5-.7 2.4v7.2c0 .5-.4.9-.9.9H59.3c-.5 0-.9-.4-.9-.9v-7.2c0-.9-.3-1.8-.8-2.5-.8-1.2-2.1-2-3.7-2H30.6l16.6-48zm75.3 79.1c0 1.6-1.3 2.9-2.9 2.9H32.8c-1.6 0-2.9-1.3-2.9-2.9V86.9H54c.5 0 .9.4.9.9V95c0 .9.3 1.8.8 2.5.8 1.2 2.1 2 3.7 2h33.9c1.5 0 2.9-.8 3.7-2 .5-.7.8-1.6.8-2.5v-7.2c0-.5.4-.9.9-.9h24.1v27.4z"/><path d="M108.2 79.8h3.6V69.1H40.6v10.7h3.5v-7.2h64.1zM49.5 58.4h53.4v7.1h3.6V54.8H45.9v10.7h3.6zM54.8 44.1h42.8v7.2h3.5V40.6H51.3v10.7h3.5z"/></g></svg>