<svg xmlns="http://www.w3.org/2000/svg" xmlns:xlink="http://www.w3.org/1999/xlink" viewBox="0 0 152.4 152.4"><style>.st0{fill:#fff}.st1{fill:#1e242b;stroke:#c2d52e;stroke-width:4;stroke-miterlimit:10}.st2{clip-path:url(#SVGID_2_)}.st3{clip-path:url(#SVGID_4_)}.st4,.st5,.st6{fill:#231f20}.st5{display:none;stroke:#fff;stroke-width:5;stroke-miterlimit:10}.st6{clip-path:url(#SVGID_6_)}.st7{clip-path:url(#SVGID_8_)}.st8{clip-path:url(#SVGID_10_);fill:#231f20}.st9{fill:none}.st10{clip-path:url(#SVGID_12_);fill:#231f20}.st11{fill:#ec1c24}.st12,.st13{clip-path:url(#SVGID_16_);fill:#fff}.st13{clip-path:url(#SVGID_18_)}.st14{clip-path:url(#SVGID_20_)}.st15{clip-path:url(#SVGID_22_)}.st16{clip-path:url(#SVGID_24_)}.st17{clip-path:url(#SVGID_26_)}.st18,.st19,.st20{fill:#1e242b}.st19,.st20{stroke:#fff;stroke-miterlimit:10}.st20{fill:none;stroke-width:2}.st21{clip-path:url(#SVGID_30_)}.st22{clip-path:url(#SVGID_32_)}.st23{clip-path:url(#SVGID_34_)}.st24{clip-path:url(#SVGID_36_)}.st25{clip-path:url(#SVGID_38_)}.st26{clip-path:url(#SVGID_40_)}.st27{clip-path:url(#SVGID_44_)}.st28{clip-path:url(#SVGID_46_)}.st29{clip-path:url(#SVGID_48_);fill:#231f20}.st30{clip-path:url(#SVGID_50_);fill:#fff}.st31{clip-path:url(#SVGID_52_)}.st32{clip-path:url(#SVGID_54_);fill:#fff}.st33{clip-path:url(#SVGID_56_)}.st34{clip-path:url(#SVGID_58_)}.st35{fill:#1e242b;stroke:#fff;stroke-width:2;stroke-miterlimit:10}.st36{clip-path:url(#SVGID_60_)}.st37{display:none}.st38{display:inline;fill:#fff;stroke:#fff;stroke-miterlimit:10}.st39{clip-path:url(#SVGID_64_)}.st40{display:none;fill:#231f20}.st41,.st42{fill-rule:evenodd;clip-rule:evenodd;fill:#231f20}.st42{fill:#fff}.st43{clip-path:url(#SVGID_68_)}.st44{fill:none;stroke:#000;stroke-width:3;stroke-miterlimit:10}</style><g id="Screen_3"><defs><path id="SVGID_43_" d="M35.6 70.9h81.2v57.3H35.6z"/></defs><clipPath id="SVGID_2_"><use xlink:href="#SVGID_43_" overflow="visible"/></clipPath><path class="st2" d="M96.4 47.3C90.1 41.7 82 39.1 73.6 40c-13.4 1.5-24.2 12.3-25.7 25.7-1 9.1 2.2 18 8.8 24.3 4.2 4.1 6.7 9.7 6.7 15.4V119.5H67l4.3 5.7h10l4.3-5.7H89V106.8c0-6 2.7-11.8 7.3-15.9 6.2-5.5 9.8-13.5 9.8-21.8s-3.5-16.3-9.7-21.8zm-16.6 75.2h-7.1l-2.1-2.8H82l-2.2 2.8zm6.4-5.7h-20V114h19.9v2.8zm0-5.7h-20v-2.8h19.9v2.8zm8.2-22.3c-4.9 4.3-7.8 10.3-8.2 16.6H66.3c0-6.4-2.8-12.8-7.6-17.3-5.9-5.7-8.8-13.7-7.9-21.9 1.3-12.2 11-22 23.1-23.3 7.6-.8 14.9 1.5 20.6 6.5 5.6 5 8.8 12.2 8.8 19.6 0 7.6-3.3 14.8-8.9 19.8z"/><path d="M47.8 68.3H106v2.8H47.8z"/><g><defs><path id="SVGID_45_" d="M37 24.2h73.4v40.5H37z"/></defs><clipPath id="SVGID_4_"><use xlink:href="#SVGID_45_" overflow="visible"/></clipPath><g class="st3"><defs><path id="SVGID_47_" d="M47.8 34.3H106v50.4H47.8z"/></defs><clipPath id="SVGID_6_"><use xlink:href="#SVGID_47_" overflow="visible"/></clipPath><path class="st6" d="M106.1 63.4c0-8-3.2-15.2-8.4-20.5 0-.1-.1-.1-.1-.2 0 0-.1-.1-.2-.1-5.3-5.2-12.5-8.4-20.5-8.4s-15.2 3.2-20.5 8.4c-.1 0-.1.1-.2.1 0 0-.1.1-.1.2-5.2 5.3-8.4 12.5-8.4 20.5 0 7.8 3 15.1 8.5 20.6.3.3.6.4 1 .4s.7-.1 1-.4l.1-.1 4.4-4.4c.6-.6.6-1.5 0-2-.6-.6-1.5-.6-2 0L57.4 81c-4-4.5-6.4-10.1-6.7-16.1h4.9c.8 0 1.4-.6 1.4-1.4 0-.8-.6-1.4-1.4-1.4h-4.9c.3-6.2 2.8-11.8 6.7-16.1l3.4 3.4c.3.3.6.4 1 .4s.7-.1 1-.4c.6-.6.6-1.5 0-2L59.4 44c4.3-3.9 9.9-6.3 16.1-6.7v4.9c0 .8.6 1.4 1.4 1.4s1.4-.6 1.4-1.4v-4.9c6.2.3 11.8 2.8 16.1 6.7L91 47.3c-.6.6-.6 1.5 0 2 .3.3.6.4 1 .4s.7-.1 1-.4l3.4-3.4c3.9 4.3 6.3 9.9 6.7 16.1h-4.9c-.8 0-1.4.6-1.4 1.4 0 .8.6 1.4 1.4 1.4h4.9c-.3 6-2.7 11.6-6.7 16.1L93 77.5c-.6-.6-1.5-.6-2 0-.6.6-.6 1.5 0 2l4.5 4.5c.3.3.6.4 1 .4.2 0 .4 0 .5-.1.2-.1.3-.2.5-.3 5.5-5.5 8.6-12.8 8.6-20.6zm0 0"/><path class="st4" d="M82.6 45.4c-.6-.2-1.2 0-1.4.6L78 53.8h-.4c-1.5 0-2.9.8-3.6 2.2-.7 1.4-.5 3.1.5 4.6.1.1.2.3.4.4.8.6 1.8.9 2.7.9 1.5 0 2.9-.8 3.6-2.2.7-1.4.5-3.1-.5-4.5-.1-.1-.2-.3-.4-.4-.1-.1-.2-.1-.2-.2l3.1-7.8c.2-.5-.1-1.2-.6-1.4zm-3.3 13.3c-.3.6-1 1-1.7 1-.5 0-.9-.2-1.4-.5-.5-.7-.6-1.6-.3-2.2.3-.6 1-1 1.7-1 .2 0 .5 0 .7.1h.1l.6.3c.5.8.6 1.6.3 2.3zm0 0"/></g></g></g></svg>