<svg xmlns="http://www.w3.org/2000/svg" xmlns:xlink="http://www.w3.org/1999/xlink" viewBox="0 0 152.4 152.4" id="svg653"><style id="style610">.st0{fill:#fff}.st1{fill:#1e242b;stroke:#c2d52e;stroke-width:4;stroke-miterlimit:10}.st2{clip-path:url(#SVGID_2_)}.st3{clip-path:url(#SVGID_4_)}.st4,.st5,.st6{fill:#231f20}.st5{display:none;stroke:#fff;stroke-width:5;stroke-miterlimit:10}.st6{clip-path:url(#SVGID_6_)}.st7{clip-path:url(#SVGID_8_)}.st8{clip-path:url(#SVGID_10_);fill:#231f20}.st9{fill:none}.st10{clip-path:url(#SVGID_12_);fill:#231f20}.st11{fill:#ec1c24}.st12,.st13{clip-path:url(#SVGID_16_);fill:#fff}.st13{clip-path:url(#SVGID_18_)}.st14{clip-path:url(#SVGID_20_)}.st15{clip-path:url(#SVGID_22_)}.st16{clip-path:url(#SVGID_24_)}.st17{clip-path:url(#SVGID_26_)}.st18,.st19,.st20{fill:#1e242b}.st19,.st20{stroke:#fff;stroke-miterlimit:10}.st20{fill:none;stroke-width:2}.st21{clip-path:url(#SVGID_30_)}.st22{clip-path:url(#SVGID_32_)}.st23{clip-path:url(#SVGID_34_)}.st24{clip-path:url(#SVGID_36_)}.st25{clip-path:url(#SVGID_38_)}.st26{clip-path:url(#SVGID_40_)}.st27{clip-path:url(#SVGID_44_)}.st28{clip-path:url(#SVGID_46_)}.st29{clip-path:url(#SVGID_48_);fill:#231f20}.st30{clip-path:url(#SVGID_50_);fill:#fff}.st31{clip-path:url(#SVGID_52_)}.st32{clip-path:url(#SVGID_54_);fill:#fff}.st33{clip-path:url(#SVGID_56_)}.st34{clip-path:url(#SVGID_58_)}.st35{fill:#1e242b;stroke:#fff;stroke-width:2;stroke-miterlimit:10}.st36{clip-path:url(#SVGID_60_)}.st37{display:none}.st38{display:inline;fill:#fff;stroke:#fff;stroke-miterlimit:10}.st39{clip-path:url(#SVGID_64_)}.st40{display:none;fill:#231f20}.st41,.st42{fill-rule:evenodd;clip-rule:evenodd;fill:#231f20}.st42{fill:#fff}.st43{clip-path:url(#SVGID_68_)}.st44{fill:none;stroke:#000;stroke-width:3;stroke-miterlimit:10}</style><g id="g620"><defs id="defs613"><path id="SVGID_43_" d="M35.6 70.9h81.2v57.3H35.6z"/></defs><clipPath id="SVGID_2_"><use xlink:href="#SVGID_43_" id="use615" width="100%" height="100%" overflow="visible"/></clipPath><path class="st2" d="M96.4 47.3C90.1 41.7 82 39.1 73.6 40c-13.4 1.5-24.2 12.3-25.7 25.7-1 9.1 2.2 18 8.8 24.3 4.2 4.1 6.7 9.7 6.7 15.4V119.5H67l4.3 5.7h10l4.3-5.7H89V106.8c0-6 2.7-11.8 7.3-15.9 6.2-5.5 9.8-13.5 9.8-21.8s-3.5-16.3-9.7-21.8zm-16.6 75.2h-7.1l-2.1-2.8H82zm6.4-5.7h-20V114h19.9v2.8zm0-5.7h-20v-2.8h19.9v2.8zm8.2-22.3c-4.9 4.3-7.8 10.3-8.2 16.6H66.3c0-6.4-2.8-12.8-7.6-17.3-5.9-5.7-8.8-13.7-7.9-21.9 1.3-12.2 11-22 23.1-23.3 7.6-.8 14.9 1.5 20.6 6.5 5.6 5 8.8 12.2 8.8 19.6 0 7.6-3.3 14.8-8.9 19.8z" clip-path="url(#SVGID_2_)" id="path618"/></g><path id="path1052" d="M74.495 75.982c-20.6 0-31.2-4.9-34.2-7.9-1.7-1.7-2.6-3.1-2.6-5.5 0-1.8 1.3-2.6 2.3-3.3.3-.2.5-.3.8-.6.4-.3 1.1-.9 1.5-1.4.2-10.4 5.3-19.8 14-26.1l2.4-1.7v15.3c0 1 .8 1.8 1.8 1.8s1.8-.8 1.8-1.8v-17l.9-.4c1.9-.8 3.8-1.4 5.8-1.8v-.7c0-2 1.7-3.7 3.7-3.7h7.9c2 0 3.7 1.7 3.7 3.7v.9c2 .5 4 1.1 5.9 1.9l.9.4v16.9c0 1 .8 1.8 1.8 1.8s1.8-.8 1.8-1.8v-15.2l2.4 1.7c8.6 6.3 13.6 15.8 13.9 26.2 1.9 1.4 2.5 1.8 2.7 2l.3.3c.8.7 1.8 1.6 1.7 3.4-.1 2.1-2.7 5.4-9.3 8.6-6.9 3.3-21.6 4-29.7 4.1-.9-.1-1.6-.1-2.2-.1zm-18.9-40.3c-6.5 5.7-10.2 13.6-10.4 22.1l-.1.4-.1.7-.3.3c-.1.1-1.3 1.3-2.1 2-.3.3-.7.5-1 .7-.7.4-.9.6-.9.8 0 1.2.2 1.8 1.8 3.3.1.1 7.7 7.4 34 7 6.3-.1 21.7-.7 28.4-3.8 6.1-2.9 7.6-5.5 7.6-6.1 0-.2 0-.3-.7-.9l-.3-.3c-.1-.1-.6-.5-3-2.2l-.6-.4v-.8c0-8.7-3.7-16.8-10.3-22.6v9.1c0 2.6-2.1 4.8-4.8 4.8-2.7 0-4.8-2.1-4.8-4.8v-14.9c-1.8-.7-3.7-1.2-5.6-1.6l-1.2-.2v-3.4c0-.4-.3-.7-.7-.7h-7.9c-.4 0-.7.3-.7.7v3.3l-1.2.2c-1.9.3-3.7.9-5.5 1.5v15c0 2.6-2.1 4.8-4.8 4.8-2.6 0-4.8-2.1-4.8-4.8z" class="st4" fill="#231f20"/></svg>