<svg xmlns="http://www.w3.org/2000/svg" viewBox="0 0 152.4 152.4"><style>.st0{fill:#fff}.st1{fill:#1e242b;stroke:#c2d52e;stroke-width:4;stroke-miterlimit:10}.st2{clip-path:url(#SVGID_2_)}.st3{clip-path:url(#SVGID_4_)}.st4,.st5,.st6{fill:#231f20}.st5{display:none;stroke:#fff;stroke-width:5;stroke-miterlimit:10}.st6{clip-path:url(#SVGID_6_)}.st7{clip-path:url(#SVGID_8_)}.st8{clip-path:url(#SVGID_10_);fill:#231f20}.st9{fill:none}.st10{clip-path:url(#SVGID_12_);fill:#231f20}.st11{fill:#ec1c24}.st12,.st13{clip-path:url(#SVGID_16_);fill:#fff}.st13{clip-path:url(#SVGID_18_)}.st14{clip-path:url(#SVGID_20_)}.st15{clip-path:url(#SVGID_22_)}.st16{clip-path:url(#SVGID_24_)}.st17{clip-path:url(#SVGID_26_)}.st18,.st19,.st20{fill:#1e242b}.st19,.st20{stroke:#fff;stroke-miterlimit:10}.st20{fill:none;stroke-width:2}.st21{clip-path:url(#SVGID_30_)}.st22{clip-path:url(#SVGID_32_)}.st23{clip-path:url(#SVGID_34_)}.st24{clip-path:url(#SVGID_36_)}.st25{clip-path:url(#SVGID_38_)}.st26{clip-path:url(#SVGID_40_)}.st27{clip-path:url(#SVGID_44_)}.st28{clip-path:url(#SVGID_46_)}.st29{clip-path:url(#SVGID_48_);fill:#231f20}.st30{clip-path:url(#SVGID_50_);fill:#fff}.st31{clip-path:url(#SVGID_52_)}.st32{clip-path:url(#SVGID_54_);fill:#fff}.st33{clip-path:url(#SVGID_56_)}.st34{clip-path:url(#SVGID_58_)}.st35{fill:#1e242b;stroke:#fff;stroke-width:2;stroke-miterlimit:10}.st36{clip-path:url(#SVGID_60_)}.st37{display:none}.st38{display:inline;fill:#fff;stroke:#fff;stroke-miterlimit:10}.st39{clip-path:url(#SVGID_64_)}.st40{display:none;fill:#231f20}.st41,.st42{fill-rule:evenodd;clip-rule:evenodd;fill:#231f20}.st42{fill:#fff}.st43{clip-path:url(#SVGID_68_)}.st44{fill:none;stroke:#000;stroke-width:3;stroke-miterlimit:10}</style><g id="Screen_4"><path d="M99.5 58.8h-6.1V46.4c0-2.7-2.2-4.9-5-4.9-2.7 0-4.9 2.2-4.9 4.9v12.3H70.1V46.4c0-2.7-2.2-4.9-5-4.9-2.7 0-4.9 2.2-4.9 4.9v12.3h-7.4c-.7 0-1.2.5-1.2 1.2v20.5c0 4.3 3.5 7.8 7.8 7.8h9.5c-.1.1-.1.3-.1.4v20.9c0 .7.5 1.2 1.2 1.2s1.2-.6 1.2-1.2V88.7c0-.2 0-.3-.1-.4h10c-.1.1-.1.3-.1.4v13.5c0 .7.5 1.2 1.2 1.2s1.2-.5 1.2-1.2V88.7c0-.2 0-.3-.1-.4h9.5c4.3 0 7.8-3.5 7.8-7.8V60c.2-.7-.4-1.2-1.1-1.2zM86 46.4c0-1.3 1.1-2.4 2.5-2.4 1.3 0 2.4 1.1 2.4 2.4v12.3H86V46.4zm-23.3 0c0-1.3 1.1-2.4 2.5-2.4 1.3 0 2.4 1.1 2.4 2.4v12.3h-4.9V46.4zm35.6 34.1c0 3-2.4 5.4-5.4 5.4H59.5c-3 0-5.4-2.4-5.4-5.4V61.2h44.2v19.3z" id="_x32_5_3_"/></g></svg>