<svg xmlns="http://www.w3.org/2000/svg" viewBox="0 0 152.4 152.4"><style>.st0{fill:#fff}.st1{fill:#1e242b;stroke:#c2d52e;stroke-width:4;stroke-miterlimit:10}.st2{clip-path:url(#SVGID_2_)}.st3{clip-path:url(#SVGID_4_)}.st4,.st5,.st6{fill:#231f20}.st5{display:none;stroke:#fff;stroke-width:5;stroke-miterlimit:10}.st6{clip-path:url(#SVGID_6_)}.st7{clip-path:url(#SVGID_8_)}.st8{clip-path:url(#SVGID_10_);fill:#231f20}.st9{fill:none}.st10{clip-path:url(#SVGID_12_);fill:#231f20}.st11{fill:#ec1c24}.st12,.st13{clip-path:url(#SVGID_16_);fill:#fff}.st13{clip-path:url(#SVGID_18_)}.st14{clip-path:url(#SVGID_20_)}.st15{clip-path:url(#SVGID_22_)}.st16{clip-path:url(#SVGID_24_)}.st17{clip-path:url(#SVGID_26_)}.st18,.st19,.st20{fill:#1e242b}.st19,.st20{stroke:#fff;stroke-miterlimit:10}.st20{fill:none;stroke-width:2}.st21{clip-path:url(#SVGID_30_)}.st22{clip-path:url(#SVGID_32_)}.st23{clip-path:url(#SVGID_34_)}.st24{clip-path:url(#SVGID_36_)}.st25{clip-path:url(#SVGID_38_)}.st26{clip-path:url(#SVGID_40_)}.st27{clip-path:url(#SVGID_44_)}.st28{clip-path:url(#SVGID_46_)}.st29{clip-path:url(#SVGID_48_);fill:#231f20}.st30{clip-path:url(#SVGID_50_);fill:#fff}.st31{clip-path:url(#SVGID_52_)}.st32{clip-path:url(#SVGID_54_);fill:#fff}.st33{clip-path:url(#SVGID_56_)}.st34{clip-path:url(#SVGID_58_)}.st35{fill:#1e242b;stroke:#fff;stroke-width:2;stroke-miterlimit:10}.st36{clip-path:url(#SVGID_60_)}.st37{display:none}.st38{display:inline;fill:#fff;stroke:#fff;stroke-miterlimit:10}.st39{clip-path:url(#SVGID_64_)}.st40{display:none;fill:#231f20}.st41,.st42{fill-rule:evenodd;clip-rule:evenodd;fill:#231f20}.st42{fill:#fff}.st43{clip-path:url(#SVGID_68_)}.st44{fill:none;stroke:#000;stroke-width:3;stroke-miterlimit:10}</style><g id="Screen_3"><path class="st4" d="M53 50.1c-.3 0-.6-.1-.9-.2-.1-.1-.2-.1-.3-.2-.9-.5-2.2-1.3-3.1-3.8-.7-2.1.4-4.9 2.4-6 2-1.1 4.8-2.4 11.2-4.7 5-1.7 16.4-5.3 19.6-5.5 4.6-.4 7.6 1.1 8.1 3.9.6 3.3-3 5.4-4.4 6-.4.2-2.3.7-5.5 1.6-3.3.9-7.3 2-8.7 2.5l-1 .3c-12.5 4.2-15.8 5.5-16.4 5.9-.1.1-.6.2-1 .2zm-.2-2.2zM51 45.1c.6 1.7 1.3 2.1 2.1 2.6h.1c1.5-.8 6.6-2.6 16.6-6l1-.3c1.4-.5 5.3-1.6 8.8-2.5 2.3-.6 4.9-1.4 5.2-1.5.5-.2 3.3-1.6 2.9-3.3-.3-1.8-3.2-2.2-5.6-2-2.8.2-14 3.7-19 5.4-6.2 2.2-9 3.5-10.9 4.5-1.1.6-1.6 2.1-1.2 3.1zM53.4 65c-.2 0-.3 0-.5-.1-1.6-.5-3.5-1.3-4.8-4.3-1-2.3.4-5.4 3.1-6.7 2.7-1.3 6.5-3.1 15.2-6 6.8-2.3 22.5-6.6 26.3-7.5 3.6-.9 6.5-.7 8.5.5 1.2.7 2 1.8 2.3 3.2.7 3.1-1.2 5.5-5.8 6.9-.4.1-2.1.6-4.5 1.2-4.9 1.3-12.3 3.3-14.5 4-3.4 1.1-22 7.8-24 8.6-.1 0-.7.2-1.3.2zm-3.1-5.3c.9 2.1 2.1 2.6 3.1 2.9.1 0 .3 0 .4-.1 2-.8 20.6-7.5 24.1-8.7 2.3-.8 9.8-2.7 14.7-4 2.3-.6 4.1-1.1 4.4-1.2 4.8-1.5 4.4-3.3 4.2-4-.2-.7-.6-1.3-1.2-1.7-1.4-.8-3.7-.9-6.6-.2-3.7.9-19.3 5.1-26.1 7.4C58.8 53 55 54.7 52.4 56c-1.8.9-2.6 2.7-2.1 3.7zM87.9 95.1h-5.6c-1.5 0-2.5-1.1-2.5-2.6v-6.6-2c0-2-.1-3.3.8-4.3 4.1-4.8 8.6-6.5 12.2-7.9.5-.2 1-.4 1.4-.6 4.6-1.8 6 1.5 6.5 2.8.1.1.1.3.2.4 1.1 2.5-.8 4.8-3 6.2-1.6 1-7.2 4.6-7.8 5.2-.3.3-.3.8-.3 1.3V92.1c-.1 1.1-.1 3-1.9 3zm-5.8-2.4H87.3v-5.6c0-.8 0-2.1 1-3.1.9-.9 8.1-5.5 8.2-5.5.1-.1 2.8-1.8 2.2-3.2-.1-.1-.1-.3-.2-.5-.6-1.4-1-2.5-3.4-1.5-.5.2-.9.4-1.4.6-3.5 1.4-7.6 2.9-11.3 7.2-.3.3-.3 1.1-.2 2.7v8.6c-.1.2-.1.3-.1.3z"/><path class="st4" d="M68.1 95.1h-5.6c-1.8 0-1.8-1.9-1.8-2.9v-5.1c0-.5 0-1.1-.3-1.3-.4-.4-3.3-2.3-7.1-4.7l-.3-.2c-1.1-.5-2.8-1.3-4-4-1-2.3.4-5.4 3.1-6.7 2.7-1.3 6.6-3 15.2-5.9 6.8-2.3 22.6-6.4 26.3-7.3 3.6-.9 6.5-.7 8.5.5 1.2.7 2 1.8 2.3 3.2.7 3.2-1.3 5.4-5.9 6.8-.4.1-1.9.5-4 1.1-4.7 1.4-12.7 3.6-15.1 4.4l-1.3.4c-2.4.8-6.7 2.1-10.9 3.5 1 .8 1.9 1.7 2.7 2.7.9 1 .9 2.3.8 4.3v8.6c0 1.5-1 2.6-2.6 2.6zM63 92.7h5.3V85.8v-2c0-1.6 0-2.4-.2-2.7-1.3-1.4-2.6-2.6-4.1-3.7L62 76l2.3-.8c4.9-1.6 10.2-3.3 13.1-4.2l1.3-.4c2.4-.8 10.5-3 15.3-4.3 2.1-.6 3.6-1 3.9-1.1 4.8-1.4 4.4-3.2 4.2-4-.2-.7-.6-1.3-1.2-1.7-1.4-.9-3.7-.9-6.6-.2-3.7.9-19.4 5-26.2 7.2-8.5 2.8-12.4 4.5-14.9 5.8-1.7.8-2.4 2.6-2 3.6.8 1.8 1.8 2.3 2.8 2.8.1.1.3.1.4.2l.1.1c3.1 2 6.9 4.5 7.5 5.1 1 1 1 2.3 1 3.1V92.7zM88 107H62.2c-1.5 0-2.7-1.2-2.7-2.7V100c0-1.5 1.2-2.7 2.7-2.7H88c1.5 0 2.7 1.2 2.7 2.7v4.4c0 1.4-1.2 2.6-2.7 2.6zm-25.8-7.3c-.1 0-.3.1-.3.3v4.4c0 .1.1.3.3.3H88c.1 0 .3-.1.3-.3V100c0-.1-.1-.3-.3-.3H62.2zM79.8 122.8h-9.3c-5.8 0-10.6-3.6-11-8.2v-3c0-1.4 1.3-2.5 2.8-2.5H88c1.6 0 2.8 1.1 2.8 2.5v3c-.4 4.6-5.2 8.2-11 8.2zm-17.5-11.3c-.3 0-.5.1-.5.2v2.7c.2 3.4 4.1 6.1 8.6 6.1h9.3c4.5 0 8.4-2.7 8.6-6.1v-2.8s-.2-.1-.5-.1H62.3z"/></g></svg>