<svg xmlns="http://www.w3.org/2000/svg" xmlns:xlink="http://www.w3.org/1999/xlink" viewBox="0 0 152.4 152.4"><style>.st0{fill:#fff}.st1{fill:#1e242b;stroke:#c2d52e;stroke-width:4;stroke-miterlimit:10}.st2{clip-path:url(#SVGID_2_)}.st3{clip-path:url(#SVGID_4_)}.st4,.st5,.st6{fill:#231f20}.st5{display:none;stroke:#fff;stroke-width:5;stroke-miterlimit:10}.st6{clip-path:url(#SVGID_6_)}.st7{clip-path:url(#SVGID_8_)}.st8{clip-path:url(#SVGID_10_);fill:#231f20}.st9{fill:none}.st10{clip-path:url(#SVGID_12_);fill:#231f20}.st11{fill:#ec1c24}.st12,.st13{clip-path:url(#SVGID_16_);fill:#fff}.st13{clip-path:url(#SVGID_18_)}.st14{clip-path:url(#SVGID_20_)}.st15{clip-path:url(#SVGID_22_)}.st16{clip-path:url(#SVGID_24_)}.st17{clip-path:url(#SVGID_26_)}.st18,.st19,.st20{fill:#1e242b}.st19,.st20{stroke:#fff;stroke-miterlimit:10}.st20{fill:none;stroke-width:2}.st21{clip-path:url(#SVGID_30_)}.st22{clip-path:url(#SVGID_32_)}.st23{clip-path:url(#SVGID_34_)}.st24{clip-path:url(#SVGID_36_)}.st25{clip-path:url(#SVGID_38_)}.st26{clip-path:url(#SVGID_40_)}.st27{clip-path:url(#SVGID_44_)}.st28{clip-path:url(#SVGID_46_)}.st29{clip-path:url(#SVGID_48_);fill:#231f20}.st30{clip-path:url(#SVGID_50_);fill:#fff}.st31{clip-path:url(#SVGID_52_)}.st32{clip-path:url(#SVGID_54_);fill:#fff}.st33{clip-path:url(#SVGID_56_)}.st34{clip-path:url(#SVGID_58_)}.st35{fill:#1e242b;stroke:#fff;stroke-width:2;stroke-miterlimit:10}.st36{clip-path:url(#SVGID_60_)}.st37{display:none}.st38{display:inline;fill:#fff;stroke:#fff;stroke-miterlimit:10}.st39{clip-path:url(#SVGID_64_)}.st40{display:none;fill:#231f20}.st41,.st42{fill-rule:evenodd;clip-rule:evenodd;fill:#231f20}.st42{fill:#fff}.st43{clip-path:url(#SVGID_68_)}.st44{fill:none;stroke:#000;stroke-width:3;stroke-miterlimit:10}</style><g id="Screen_3"><path class="st4" d="M74.1 90c-20.6 0-31.2-4.9-34.2-7.9-1.7-1.7-2.6-3.1-2.6-5.5 0-1.8 1.3-2.6 2.3-3.3.3-.2.5-.3.8-.6.4-.3 1.1-.9 1.5-1.4.2-10.4 5.3-19.8 14-26.1l2.4-1.7V59c0 1 .8 1.8 1.8 1.8s1.8-.8 1.8-1.8V42l.9-.4c1.9-.8 3.8-1.4 5.8-1.8v-.9c0-2 1.7-3.7 3.7-3.7h7.9c2 0 3.7 1.7 3.7 3.7v.9c2 .5 4 1.1 5.9 1.9l.9.4V59c0 1 .8 1.8 1.8 1.8s1.8-.8 1.8-1.8V43.8l2.4 1.7c8.6 6.3 13.6 15.8 13.9 26.2 1.9 1.4 2.5 1.8 2.7 2l.3.3c.8.7 1.8 1.6 1.7 3.4-.1 2.1-2.7 5.4-9.3 8.6-6.9 3.3-21.6 4-29.7 4.1-.9-.1-1.6-.1-2.2-.1zM55.2 49.7C48.7 55.4 45 63.3 44.8 71.9l-.1.4-.1.7-.3.3c-.1.1-1.3 1.3-2.1 2-.3.3-.7.5-1 .7-.7.4-.9.6-.9.8 0 1.2.2 1.8 1.8 3.3.1.1 7.7 7.4 34 7 6.3-.1 21.7-.7 28.4-3.8 6.1-2.9 7.6-5.5 7.6-6.1 0-.2 0-.3-.7-.9l-.3-.3c-.1-.1-.6-.5-3-2.2l-.6-.4v-.8c0-8.7-3.7-16.8-10.3-22.6v9c0 2.6-2.1 4.8-4.8 4.8s-4.8-2.1-4.8-4.8V44.1c-1.8-.7-3.7-1.2-5.6-1.6l-1.2-.2V39c0-.4-.3-.7-.7-.7h-7.9c-.4 0-.7.3-.7.7v3.3l-1.2.2c-1.9.3-3.7.9-5.5 1.5v15c0 2.6-2.1 4.8-4.8 4.8-2.6 0-4.8-2.1-4.8-4.8v-9.3z"/><defs><path id="SVGID_39_" d="M106.6 89.5c-2.3 5.6-13.8 10.1-30.8 10.1-17.9 0-28.8-4.3-30.9-10.1h-4.4v41.3h73.3V89.5h-7.2z"/></defs><clipPath id="SVGID_2_"><use xlink:href="#SVGID_39_" overflow="visible"/></clipPath><g class="st2"><path d="M103.1 93.5c-.1-.4-.3-.8-.7-1-.4-.2-.8-.3-1.2-.2-1 .2-2 .2-2.9-.2-2.4-.9-3.7-3.7-2.7-6.1.4-.9 1-1.7 1.8-2.3.4-.2.6-.6.7-1 .1-.4 0-.9-.3-1.2-1.7-2.3-3.8-4.2-6.1-5.9-.4-.2-.8-.3-1.2-.3-.4.1-.8.4-1 .7-.5.8-1.2 1.5-2.1 1.9-.6.3-1.3.4-1.9.4-1.9 0-3.6-1.1-4.3-2.8-.4-.9-.5-1.9-.3-2.9.1-.4 0-.9-.2-1.2-.2-.4-.6-.6-1.1-.6-2.8-.4-5.7-.4-8.4.1-.4.1-.8.3-1 .7-.2.4-.3.8-.2 1.2.2.9.2 1.9-.2 2.8-.7 1.8-2.5 3-4.4 3-.6 0-1.2-.1-1.7-.3-.9-.4-1.7-1-2.3-1.9-.2-.4-.6-.6-1-.7-.4-.1-.9 0-1.2.3-2.3 1.7-4.3 3.7-5.9 6.1-.3.4-.3.8-.3 1.2.1.4.4.8.7 1 .8.5 1.5 1.2 1.9 2.1.5 1.2.5 2.4.1 3.6-.5 1.2-1.3 2.1-2.5 2.6-.9.4-2 .5-2.9.3-.4-.1-.9 0-1.2.2-.4.2-.6.6-.7 1.1-.4 2.8-.4 5.7.1 8.5.1.4.3.8.7 1 .4.2.8.3 1.2.2 1-.3 2-.2 2.9.2 1.2.5 2.1 1.3 2.6 2.5s.5 2.4.1 3.6c-.4.9-1 1.7-1.9 2.3-.4.2-.6.6-.7 1-.1.4 0 .9.3 1.2 1.7 2.3 3.8 4.3 6.1 5.9.4.3.8.3 1.2.2.4-.1.8-.4 1-.7.5-.9 1.3-1.5 2.2-2 .6-.3 1.3-.4 1.9-.4 1.9 0 3.6 1.1 4.3 2.8.4.9.5 2 .3 3-.1.4 0 .9.2 1.2.2.4.6.6 1.1.7 1.3.2 2.6.3 3.8.3 1.6 0 3.2-.1 4.7-.4.4-.1.8-.3 1-.7.2-.4.3-.8.2-1.2-.3-1-.2-2 .1-2.9.7-1.8 2.5-3 4.4-3 .6 0 1.2.1 1.7.3.9.4 1.7 1 2.3 1.9.2.4.6.6 1 .7.4.1.9 0 1.2-.3 2.3-1.7 4.3-3.8 5.9-6.1.2-.4.3-.8.2-1.2-.1-.4-.4-.8-.7-1-.9-.5-1.5-1.3-1.9-2.2-1.1-2.4 0-5.2 2.4-6.3.9-.4 2-.5 2.9-.3.4.1.9 0 1.2-.2.4-.2.6-.6.7-1.1.5-2.5.5-5.4 0-8.2zm-2.8 6.6c-1.1 0-2.2.2-3.2.7-4 1.8-5.7 6.4-4 10.4.4 1 1 1.8 1.8 2.5-.9 1.2-2 2.3-3.2 3.3-.8-.8-1.7-1.4-2.7-1.8-.9-.3-1.8-.5-2.8-.5-3.2 0-6.2 2-7.3 5-.4 1-.6 2.1-.5 3.1-1.5.2-3 .2-4.6.1 0-1.1-.2-2.2-.7-3.2-1.3-2.8-4.1-4.7-7.2-4.7-1.1 0-2.2.2-3.2.7-1 .4-1.8 1.1-2.6 1.8-1.2-1-2.3-2-3.3-3.2.8-.8 1.4-1.7 1.8-2.8.8-2 .7-4.1-.2-6-.9-1.9-2.4-3.4-4.4-4.1-1-.4-2-.6-3.1-.5-.2-1.5-.2-3-.1-4.5 1.1 0 2.2-.2 3.2-.7 1.9-.9 3.4-2.4 4.1-4.4.8-2 .7-4.1-.2-6-.4-.9-1-1.8-1.8-2.5 1-1.2 2-2.3 3.2-3.3.8.8 1.7 1.4 2.7 1.7.9.3 1.8.5 2.8.5 3.2 0 6.2-2 7.3-5 .4-1 .5-2 .5-3 1.5-.2 3-.2 4.5-.1 0 1.1.2 2.1.7 3.1 1.3 2.8 4.1 4.7 7.2 4.7 1.1 0 2.2-.2 3.2-.7.9-.4 1.8-1 2.5-1.7 1.2.9 2.3 2 3.3 3.2-.8.8-1.3 1.7-1.7 2.7-1.6 4 .5 8.6 4.5 10.1 1 .4 2 .5 3 .5.6 1.6.6 3.1.5 4.6zm0 0"/><defs><path id="SVGID_41_" d="M48 70.5h55.7v55.8H48z"/></defs><clipPath id="SVGID_4_"><use xlink:href="#SVGID_41_" overflow="visible"/></clipPath><path d="M75.7 86.4c-1.7 0-3.3.4-4.8 1-6 2.7-8.7 9.7-6.1 15.8 1.9 4.3 6.2 7.1 10.9 7.1 1.7 0 3.3-.3 4.8-1 6-2.7 8.7-9.7 6-15.8-1.8-4.4-6.1-7.1-10.8-7.1zm3.6 20c-1.1.5-2.3.8-3.6.8-3.5 0-6.6-2.1-8.1-5.2-2-4.4 0-9.7 4.5-11.6 1.1-.5 2.3-.8 3.6-.8 3.5 0 6.6 2.1 8.1 5.2 2 4.4 0 9.6-4.5 11.6zm0 0"/></g></g></svg>