<svg xmlns="http://www.w3.org/2000/svg" viewBox="0 0 152.4 152.4"><style>.st0{fill:#fff}.st1{fill:#1e242b;stroke:#c2d52e;stroke-width:4;stroke-miterlimit:10}.st2{clip-path:url(#SVGID_2_)}.st3{clip-path:url(#SVGID_4_)}.st4,.st5,.st6{fill:#231f20}.st5{display:none;stroke:#fff;stroke-width:5;stroke-miterlimit:10}.st6{clip-path:url(#SVGID_6_)}.st7{clip-path:url(#SVGID_8_)}.st8{clip-path:url(#SVGID_10_);fill:#231f20}.st9{fill:none}.st10{clip-path:url(#SVGID_12_);fill:#231f20}.st11{fill:#ec1c24}.st12,.st13{clip-path:url(#SVGID_16_);fill:#fff}.st13{clip-path:url(#SVGID_18_)}.st14{clip-path:url(#SVGID_20_)}.st15{clip-path:url(#SVGID_22_)}.st16{clip-path:url(#SVGID_24_)}.st17{clip-path:url(#SVGID_26_)}.st18,.st19,.st20{fill:#1e242b}.st19,.st20{stroke:#fff;stroke-miterlimit:10}.st20{fill:none;stroke-width:2}.st21{clip-path:url(#SVGID_30_)}.st22{clip-path:url(#SVGID_32_)}.st23{clip-path:url(#SVGID_34_)}.st24{clip-path:url(#SVGID_36_)}.st25{clip-path:url(#SVGID_38_)}.st26{clip-path:url(#SVGID_40_)}.st27{clip-path:url(#SVGID_44_)}.st28{clip-path:url(#SVGID_46_)}.st29{clip-path:url(#SVGID_48_);fill:#231f20}.st30{clip-path:url(#SVGID_50_);fill:#fff}.st31{clip-path:url(#SVGID_52_)}.st32{clip-path:url(#SVGID_54_);fill:#fff}.st33{clip-path:url(#SVGID_56_)}.st34{clip-path:url(#SVGID_58_)}.st35{fill:#1e242b;stroke:#fff;stroke-width:2;stroke-miterlimit:10}.st36{clip-path:url(#SVGID_60_)}.st37{display:none}.st38{display:inline;fill:#fff;stroke:#fff;stroke-miterlimit:10}.st39{clip-path:url(#SVGID_64_)}.st40{display:none;fill:#231f20}.st41,.st42{fill-rule:evenodd;clip-rule:evenodd;fill:#231f20}.st42{fill:#fff}.st43{clip-path:url(#SVGID_68_)}.st44{fill:none;stroke:#000;stroke-width:3;stroke-miterlimit:10}</style><g id="Screen_3"><path d="M32.2 64.5c0 17.8 14.5 32.2 32.2 32.2s32.2-14.5 32.2-32.2-14.3-32.3-32.1-32.3-32.3 14.5-32.3 32.3zm3 0c0-16.2 13.1-29.3 29.3-29.3s29.3 13.1 29.3 29.3-13.2 29.3-29.3 29.3c-16.2 0-29.3-13.2-29.3-29.3zM85.4 96.3l21.6 21.6c1.5 1.4 3.4 2.2 5.4 2.2 4.2 0 7.7-3.4 7.7-7.7 0-2-.8-4-2.2-5.4L96.3 85.4c-.6-.6-1.5-.6-2.1 0l-8.8 8.8c-.6.6-.6 1.5 0 2.1zm3.1-1l6.7-6.7 20.6 20.6c.9.9 1.4 2.1 1.4 3.4 0 2.6-2.1 4.7-4.7 4.7-1.3 0-2.5-.5-3.4-1.4L88.5 95.3z"/><path transform="rotate(-45.001 86.46 90.857)" d="M85 86.7h2.9V95H85z"/><path transform="rotate(-45.001 90.856 86.46)" d="M89.4 82.3h2.9v8.3h-2.9z"/><path d="M39.6 64.5c0 13.7 11.2 24.9 24.9 24.9s24.9-11.2 24.9-24.9-11.2-24.9-24.9-24.9-24.9 11.1-24.9 24.9zm2.9 0c0-12.1 9.9-22 22-22s22 9.9 22 22-9.9 22-22 22-22-9.9-22-22z"/><path transform="rotate(-45.001 95.251 95.251)" d="M89 93.8h12.4v2.9H89z"/></g></svg>