<svg xmlns="http://www.w3.org/2000/svg" viewBox="0 0 65 65.04"><defs><style>.cls-1{fill:none}.cls-2{clip-path:url(#clip-path)}.cls-3{fill:#000}</style><clipPath id="clip-path"><circle class="cls-1" cx="32.43" cy="32.48" r="32.3"/></clipPath></defs><title>SpruceIcons</title><g id="Screen_9" data-name="Screen 9"><g class="cls-2"><path class="cls-3" d="M160.12-51.42c4.92-3 10.19-2.55 14.09 1.15l.31.29 15.39-9.32-.28-.46c-2.37-3.92-7.1-6.43-7.1-6.43-8.89-5.16-20.25-4.83-29.66.86-9.6 5.81-15.14 15.38-14.33 24.58a38.08 38.08 0 0 0-3.81-1.16 36.16 36.16 0 0 0-27.51 4.2 36.14 36.14 0 0 0-16.48 22.43c-.22.9-.41 1.84-.57 2.81l-5.64-9.32-14.3 8.66L68.74 21 37.81 6.49l-14.29 8.65 8.85 14.61-2.71 1.64-8.86-14.64L5.56 26 15 41.55l14.31-8.66L31 35.64l-14.3 8.65 25.59 42.38 15.24-9.22L32.45 36l2.71-1.64 25.08 41.45 15.11-9.15-20-33.12 29 14.39-.23 13.46 13.31-8.09-12-6 .55-32.16 19.92 33.1 15.39-9.32-6.64-11c.93.31 1.85.58 2.76.8a35.86 35.86 0 0 0 27.32-3.9 35.36 35.36 0 0 0 8.42-7.12l.45-.52-15.24-7.88-.28.21a21.17 21.17 0 0 1-1.89 1.3 19.33 19.33 0 0 1-15 2.2 20.22 20.22 0 0 1-14.79-24.43 20.11 20.11 0 0 1 9.15-12.46 20.08 20.08 0 0 1 15.28-2.33c9.61 2.36 14 11.73 14.07 20.08L130.68 2.5l27.17 14.13 15.23-9.22-12-6.22.05-2.71c12.35 4.78 19.51 4.39 29.32-1.55l1.95-1.21c13.11-8.62 15.79-23.08 10.77-31.54-4.29-7.22-10.13-8.63-15-9.08a53.4 53.4 0 0 0-14.24 1.16l-3.64.75c-6.79 1.43-12.14 2.55-14-.51-1.29-2.03-.29-5.4 3.83-7.92zM139.87-39c1 .43 2 .91 3 1.43l.71.39a30.19 30.19 0 0 1 11.36 10.41s.58.9 1.07 1.81c-2.29 0-9.15-.54-14-8.64a16.06 16.06 0 0 1-2.14-5.4zM15.35 40.05L7.06 26.34l13.37-8.09L28.72 32zM56 77.08l-13.34 8.09-24.52-40.51 13.38-8.09zm39.18-23.69l-10 6 .19-11zm64.91-56.57l-9.81-4.9 10-6.05zm-4.75-39.76c2.26 3.73 7.95 2.53 15.15 1l3.63-.75a51.7 51.7 0 0 1 14.12-1.13c4.59.44 10 1.82 14 8.54 5.93 10-.6 23.61-10.42 30.06L189.9-4c-9.53 5.77-16.49 6.1-28.62 1.36h-.11l.23-13.39L148-8l12 6v3.84l10.86 5.65-13.05 7.89L132.9 2.43 146-5.51v-.31c0-8.85-4.6-18.91-14.9-21.45a21.19 21.19 0 0 0-16.1 2.46 21.2 21.2 0 0 0-9.65 13.13A21.31 21.31 0 0 0 121 14.07a20.55 20.55 0 0 0 17.5-3.48l13.36 6.91a34.21 34.21 0 0 1-7.7 6.37 34.74 34.74 0 0 1-26.5 3.78 33.57 33.57 0 0 1-4.09-1.28l-1.47-.56 7.68 12.7-13.55 8.19-21.31-35.42-.61 35.44L52.47 31l21.38 35.3-13.24 8-25.09-41.43-3.64 2.2-1.66-2.75 3.64-2.2L25 15.51l12.88-7.79 31.87 14.94L71.3-12.5l12.86-7.79 6.69 11 .15-1.52a35.39 35.39 0 0 1 .8-4.19 35 35 0 0 1 16-21.75 35 35 0 0 1 26.68-4.08 36.21 36.21 0 0 1 4.22 1.32 17.37 17.37 0 0 0 2.3 6.43c6.3 10.41 15.82 9.08 15.92 9.08l.72-.11-.31-.66a25 25 0 0 0-1.5-2.64 31.26 31.26 0 0 0-11.75-10.78l-.72-.4a37.41 37.41 0 0 0-3.68-1.73c-1-8.95 4.33-18.38 13.76-24.08 9.09-5.51 20.05-5.82 28.66-.8a21 21 0 0 1 6.26 5.56l-13.7 8.29c-4.25-3.8-9.86-4.18-15.1-1-4.77 2.88-5.73 6.92-4.22 9.41z"/><path class="cls-3" transform="rotate(-31.18 31.726 12.078)" d="M24.2 11.53h15.05v1.09H24.2z"/><path class="cls-3" transform="rotate(-31.18 14.026 22.765)" d="M6.21 22.21h15.63v1.09H6.21z"/><path class="cls-3" transform="rotate(-31.18 23.577 34.43)" d="M13.63 33.89h19.89v1.09H13.63z"/><path class="cls-3" transform="rotate(-31.18 26.933 39.984)" d="M16.99 39.43h19.89v1.09H16.99z"/><path class="cls-3" transform="rotate(-31.18 11.795 33.114)" d="M11.25 25.33h1.09v15.56h-1.09z"/><path class="cls-3" transform="rotate(-31.2 23.96 25.18)" d="M23.51 17.51h1.09v15.56h-1.09z"/><path class="cls-3" transform="rotate(-31.18 30.9 64.674)" d="M30.34 41.72h1.09v45.9h-1.09z"/><path class="cls-3" transform="matrix(.86 -.52 .52 .86 -7.39 18.78)" d="M29.41 14.2h1.09v16.85h-1.09z"/><path class="cls-3" transform="rotate(-31.18 41.56 54.225)" d="M41.01 27.44h1.09v53.58h-1.09z"/><path class="cls-3" transform="rotate(-31.18 48.519 53.307)" d="M47.97 29.09h1.09v48.43h-1.09z"/><path class="cls-3" transform="rotate(-31.18 62.384 48.195)" d="M61.84 26.79h1.09V69.6h-1.09z"/><path class="cls-3" d="M69.75 22.66L37.87 7.72l.07 1.24 32.83 15.39M98.47 52.67L49.83 28.58l1.09 1.69 1.74.87L97.43 53.3"/></g><path class="cls-3" d="M32.43 2.12A30.36 30.36 0 0 1 53.9 54 30.36 30.36 0 1 1 11 11a30.17 30.17 0 0 1 21.43-8.88m0-1.94a32.31 32.31 0 1 0 32.3 32.3A32.3 32.3 0 0 0 32.43.18z"/></g></svg>