<svg viewBox="0 0 152.4 152.4" id="svg63" xmlns="http://www.w3.org/2000/svg"><style id="style2">.st0{fill:#fff}.st1{fill:#1e242b;stroke:#c2d52e;stroke-width:4;stroke-miterlimit:10}.st2{clip-path:url(#SVGID_2_)}.st3{clip-path:url(#SVGID_4_)}.st4,.st5,.st6{fill:#231f20}.st5{display:none;stroke:#fff;stroke-width:5;stroke-miterlimit:10}.st6{clip-path:url(#SVGID_6_)}.st7{clip-path:url(#SVGID_8_)}.st8{clip-path:url(#SVGID_10_);fill:#231f20}.st9{fill:none}.st10{clip-path:url(#SVGID_12_);fill:#231f20}.st11{fill:#ec1c24}.st12,.st13{clip-path:url(#SVGID_16_);fill:#fff}.st13{clip-path:url(#SVGID_18_)}.st14{clip-path:url(#SVGID_20_)}.st15{clip-path:url(#SVGID_22_)}.st16{clip-path:url(#SVGID_24_)}.st17{clip-path:url(#SVGID_26_)}.st18,.st19,.st20{fill:#1e242b}.st19,.st20{stroke:#fff;stroke-miterlimit:10}.st20{fill:none;stroke-width:2}.st21{clip-path:url(#SVGID_30_)}.st22{clip-path:url(#SVGID_32_)}.st23{clip-path:url(#SVGID_34_)}.st24{clip-path:url(#SVGID_36_)}.st25{clip-path:url(#SVGID_38_)}.st26{clip-path:url(#SVGID_40_)}.st27{clip-path:url(#SVGID_44_)}.st28{clip-path:url(#SVGID_46_)}.st29{clip-path:url(#SVGID_48_);fill:#231f20}.st30{clip-path:url(#SVGID_50_);fill:#fff}.st31{clip-path:url(#SVGID_52_)}.st32{clip-path:url(#SVGID_54_);fill:#fff}.st33{clip-path:url(#SVGID_56_)}.st34{clip-path:url(#SVGID_58_)}.st35{fill:#1e242b;stroke:#fff;stroke-width:2;stroke-miterlimit:10}.st36{clip-path:url(#SVGID_60_)}.st37{display:none}.st38{display:inline;fill:#fff;stroke:#fff;stroke-miterlimit:10}.st39{clip-path:url(#SVGID_64_)}.st40{display:none;fill:#231f20}.st41,.st42{fill-rule:evenodd;clip-rule:evenodd;fill:#231f20}.st42{fill:#fff}.st43{clip-path:url(#SVGID_68_)}.st44{fill:none;stroke:#000;stroke-width:3;stroke-miterlimit:10}</style><g id="Screen_3"><path d="M81.5 40.3c-3 0-5.4 2.4-5.4 5.4 0 3 2.4 5.4 5.4 5.4 3 0 5.4-2.4 5.4-5.4-.1-3-2.5-5.4-5.4-5.4zm0 7.8c-1.3 0-2.4-1-2.4-2.4s1-2.4 2.4-2.4c1.3 0 2.4 1 2.4 2.4 0 1.3-1.1 2.4-2.4 2.4z" id="path6"/><path class="st4" d="M63.1 83.8h37.8c.8 0 1.4-.6 1.4-1.4 0-.8-.6-1.4-1.4-1.4H63.1c-.8 0-1.4.6-1.4 1.4 0 .8.6 1.4 1.4 1.4z" id="path8" fill="#231f20"/><path class="st4" d="M63.1 75.4h37.8c.8 0 1.4-.6 1.4-1.4 0-.8-.6-1.4-1.4-1.4H63.1c-.8 0-1.4.6-1.4 1.4 0 .7.6 1.4 1.4 1.4z" id="path10" fill="#231f20"/><path d="M114.6 103.4v24H48.4v-72H60v4.2c0 .9.6 1.5 1.5 1.5h40c.9 0 1.5-.6 1.5-1.5v-4.2h11.6v17.4l2.8-2.2V55.1c.1-1.5-1-2.7-2.5-2.7H103v-3.3c0-.9-.6-1.5-1.5-1.5h-7.2c.1-1 .3-2.2.1-3.4-.4-6.1-5.2-11.3-11.3-12.1-8.1-1-14.9 5.2-14.9 13 0 .9.1 1.6.3 2.4h-7.2c-.9 0-1.5.6-1.5 1.5v3.3H47.9c-1.5 0-2.7 1.2-2.7 2.7v72.6c0 1.5 1.2 2.7 2.7 2.7h66.8c1.5 0 2.7-1.2 2.7-2.7v-26.4zM63 50.6h7.6c.4 0 .9-.1 1.2-.6.3-.3.4-.7.1-1.3-.4-1-.6-2.2-.6-3.4 0-6 5.2-10.9 11.6-10.1 4.6.6 8.4 4.6 8.8 9.4.1 1.5-.1 2.8-.6 4.2-.1.3-.1.8.2 1.2.3.3.6.6 1.2.6h7.6v7.5H63z" id="path12"/><path class="st4" d="M94.2 89.4H63.1c-.8 0-1.4.6-1.4 1.4 0 .8.6 1.4 1.4 1.4h29.8z" id="path14" fill="#231f20"/><g id="g58"><g id="g56"><g id="g24"><path class="st4" d="M80.9 114.6H63.1c-.8 0-1.4.6-1.4 1.4 0 .8.6 1.4 1.4 1.4h22.3c-1.7-.6-3.2-1.6-4.5-2.8z" id="path20" fill="#231f20"/><path class="st4" d="M100.9 114.6h-1.2c-1.3 1.2-2.8 2.2-4.5 2.8h5.7c.8 0 1.4-.6 1.4-1.4.1-.7-.6-1.4-1.4-1.4z" id="path22" fill="#231f20"/></g><path class="st4" d="M76.7 106.2H63.1c-.8 0-1.4.6-1.4 1.4 0 .8.6 1.4 1.4 1.4h14.2c-.3-.9-.5-1.8-.6-2.8z" id="path26" fill="#231f20"/><path class="st4" d="M78.4 97.8H63.1c-.8 0-1.4.6-1.4 1.4 0 .8.6 1.4 1.4 1.4h14.1c.3-1 .7-1.9 1.2-2.8z" id="path28" fill="#231f20"/><g id="g54"><path class="st9" id="polygon30" fill="none" d="M91.8 106.4l3.7-.8-2.2-2.7z"/><path class="st9" d="M143.3 72.5l-6.9-8.7c-.5-.6-1.5-.7-2.1-.2l-35 27.7c1.1.4 2 1 2.7 1.9 1.1 1.4 1.3 3 1.3 4.1 1 .2 2.5.7 3.6 2 .7.8 1.1 1.7 1.3 2.8l34.9-27.6c.3-.2.5-.5.5-.9 0-.5-.1-.8-.3-1.1z" id="path40" fill="none"/><path d="M94.3 100.9L98 93c-.237-1.106-.9-1.7-1.6-2l-8.1 18.1 19.4-4c-.538-1.15-.791-1.445-1.3-1.9l-8.8 1.9zm-2.5 5.5l1.6-3.6 2.1 2.8z" id="path44" stroke-opacity="0"/><path d="M144.8 71.2l-6.9-8.7c-1.2-1.4-3.4-1.7-4.9-.5L96.4 91c.638.718.903 1.411 1.6 2 1.1.2 1.9.7 2.5 1.4.5.6.817 1.383.917 1.983.101.562-.183 2.675-.183 2.675.643.026.911.043 1.766.142.7.1 1.8.5 2.5 1.4.6.7.8 1.5.9 2.6.641.906.806 1.199 1.3 1.9 11.179-8.881 24.625-19.579 36.6-29.1.7-.6 1.1-1.4 1.2-2.2.2-1-.1-1.9-.7-2.6zm-1.2 2.3c0 .4-.2.7-.5.9L108.2 102c-.2-1.1-.6-2-1.3-2.8-1.1-1.3-2.6-1.8-3.6-2 0-1-.2-2.7-1.3-4.1-.7-.9-1.6-1.5-2.7-1.9l35-27.7c.6-.5 1.6-.4 2.1.2l6.9 8.7c.2.4.3.7.3 1.1z" id="path46"/><path class="st4" d="M90.3 116.4c-6.5 0-11.7-5.3-11.7-11.7 0-6.4 5.3-11.7 11.7-11.7 1.7 0 3.4.4 4.8 1.1l.8-1.8c-1.7-.8-3.6-1.2-5.7-1.2-7.6 0-13.7 6.2-13.7 13.7 0 7.5 6.2 13.7 13.7 13.7 7.2 0 13.038-5.686 13.638-12.686l-2.079.358c-.7 5.6-5.559 10.228-11.459 10.228z" id="path42" fill="#231f20" stroke-width="0" stroke-opacity="0"/></g></g></g></g></svg>