<svg xmlns="http://www.w3.org/2000/svg" viewBox="0 0 152.4 152.4"><style>.st0{fill:#fff}.st1{fill:#1e242b;stroke:#c2d52e;stroke-width:4;stroke-miterlimit:10}.st2{clip-path:url(#SVGID_2_)}.st3{clip-path:url(#SVGID_4_)}.st4,.st5,.st6{fill:#231f20}.st5{display:none;stroke:#fff;stroke-width:5;stroke-miterlimit:10}.st6{clip-path:url(#SVGID_6_)}.st7{clip-path:url(#SVGID_8_)}.st8{clip-path:url(#SVGID_10_);fill:#231f20}.st9{fill:none}.st10{clip-path:url(#SVGID_12_);fill:#231f20}.st11{fill:#ec1c24}.st12,.st13{clip-path:url(#SVGID_16_);fill:#fff}.st13{clip-path:url(#SVGID_18_)}.st14{clip-path:url(#SVGID_20_)}.st15{clip-path:url(#SVGID_22_)}.st16{clip-path:url(#SVGID_24_)}.st17{clip-path:url(#SVGID_26_)}.st18,.st19,.st20{fill:#1e242b}.st19,.st20{stroke:#fff;stroke-miterlimit:10}.st20{fill:none;stroke-width:2}.st21{clip-path:url(#SVGID_30_)}.st22{clip-path:url(#SVGID_32_)}.st23{clip-path:url(#SVGID_34_)}.st24{clip-path:url(#SVGID_36_)}.st25{clip-path:url(#SVGID_38_)}.st26{clip-path:url(#SVGID_40_)}.st27{clip-path:url(#SVGID_44_)}.st28{clip-path:url(#SVGID_46_)}.st29{clip-path:url(#SVGID_48_);fill:#231f20}.st30{clip-path:url(#SVGID_50_);fill:#fff}.st31{clip-path:url(#SVGID_52_)}.st32{clip-path:url(#SVGID_54_);fill:#fff}.st33{clip-path:url(#SVGID_56_)}.st34{clip-path:url(#SVGID_58_)}.st35{fill:#1e242b;stroke:#fff;stroke-width:2;stroke-miterlimit:10}.st36{clip-path:url(#SVGID_60_)}.st37{display:none}.st38{display:inline;fill:#fff;stroke:#fff;stroke-miterlimit:10}.st39{clip-path:url(#SVGID_64_)}.st40{display:none;fill:#231f20}.st41,.st42{fill-rule:evenodd;clip-rule:evenodd;fill:#231f20}.st42{fill:#fff}.st43{clip-path:url(#SVGID_68_)}.st44{fill:none;stroke:#000;stroke-width:3;stroke-miterlimit:10}</style><g id="Screen_3"><path d="M55.7 74.5c-1.7-1.7-4.4-2-6.4-.9V55.7c0-.9-.2-1.8-.6-2.5.2-.1.5-.1.8-.1 1.5 0 2.6 1.2 2.6 2.6V69c0 .8.6 1.4 1.4 1.4s1.4-.6 1.4-1.4V55.7c0-3-2.4-5.4-5.4-5.4-1 0-1.9.3-2.8.8-.8-.5-1.7-.8-2.8-.8-3 0-5.4 2.4-5.4 5.4V81c0 1.2.4 2.8 1 3.8l15.9 25.7c.3.6.6 1.7.6 2.4v5c0 .8.6 1.4 1.4 1.4s1.4-.6 1.4-1.4v-5c0-1.2-.4-2.8-1-3.8L41.9 83.4c-.3-.6-.6-1.7-.6-2.4V55.7c0-1.5 1.2-2.6 2.6-2.6 1.5 0 2.6 1.2 2.6 2.6V78.4c0 1.3.5 2.7 1.6 3.7l12.3 12.3c.5.5 1.4.5 1.9 0s.5-1.4 0-1.9L50 80.2c-1-1-1-2.7 0-3.7s2.7-1 3.7 0l15.2 15.2c1.7 1.7 3.1 5.1 3.1 7.5V118c0 .8.6 1.4 1.4 1.4s1.4-.6 1.4-1.4V99.2c0-3.1-1.7-7.3-3.9-9.5L55.7 74.5zM108.5 50.3c-1 0-1.9.3-2.8.8a5.376 5.376 0 0 0-8.2 4.6V69c0 .8.6 1.4 1.4 1.4s1.4-.6 1.4-1.4V55.7c0-1.5 1.2-2.6 2.6-2.6.3 0 .5 0 .8.1-.4.8-.6 1.6-.6 2.5v17.9c-2.1-1.1-4.7-.9-6.4.9L81.5 89.7c-2.2 2.2-3.9 6.4-3.9 9.5V118c0 .8.6 1.4 1.4 1.4s1.4-.6 1.4-1.4V99.2c0-2.4 1.4-5.8 3.1-7.5l15.2-15.2c1-1 2.7-1 3.7 0s1 2.7 0 3.7L90 92.5c-.5.5-.5 1.4 0 1.9s1.4.5 1.9 0l12.3-12.3c1-1 1.5-2.4 1.6-3.7V55.7c0-1.5 1.2-2.6 2.6-2.6 1.5 0 2.6 1.2 2.6 2.6V81c0 .7-.3 1.8-.6 2.4l-15.9 25.7c-.6 1-1 2.6-1 3.8v5c0 .8.6 1.4 1.4 1.4s1.4-.6 1.4-1.4v-5c0-.7.3-1.8.6-2.4l15.9-25.7c.6-1 1-2.6 1-3.8V55.7c.1-2.9-2.3-5.4-5.3-5.4zM97.8 45.2c0-6.7-5.5-12.2-12.2-12.2-3.7 0-7.2 1.7-9.4 4.5-2.2-2.7-5.6-4.5-9.4-4.5-6.7 0-12.2 5.5-12.2 12.2 0 2.7.9 5.2 2.5 7.3l18 23.8c.3.3.7.5 1.1.5s.8-.2 1.1-.5l18-23.8c1.6-2.1 2.5-4.6 2.5-7.3zm-4.7 5.7L76.2 73.3 59.3 50.9c-1.2-1.6-1.9-3.6-1.9-5.7 0-5.2 4.2-9.4 9.4-9.4 5.1 0 9.3 4.2 9.3 9.3 0 .8.6 1.4 1.4 1.4s1.4-.6 1.4-1.4c0-1.8-.4-3.5-1.1-5 1.7-2.7 4.7-4.3 7.9-4.3 5.2 0 9.4 4.2 9.4 9.4-.1 2.1-.7 4-2 5.7z"/></g></svg>