<svg data-name="Screen 3" xmlns="http://www.w3.org/2000/svg" viewBox="0 0 152.4 152.4"><title>icons</title><path d="M119.56 51.8L77.85 27.35a1.41 1.41 0 0 0-1.42 0l-41.7 23A1.43 1.43 0 0 0 34 51.6V112a1.44 1.44 0 0 0 1.44 1.44h7.19a1.44 1.44 0 0 0 1.42-1.44V61.67h66.15V112a1.44 1.44 0 0 0 1.44 1.44h7.19a1.43 1.43 0 0 0 1.44-1.44V53a1.43 1.43 0 0 0-.71-1.2zm-2.16 58.76h-4.32V60.23a1.43 1.43 0 0 0-1.44-1.44h-69a1.44 1.44 0 0 0-1.44 1.44v50.33h-4.34V52.45l40.25-22.21 40.29 23.62v56.7z"/><path d="M48 94.74V112a1.43 1.43 0 0 0 1.43 1.44h17.29a1.43 1.43 0 0 0 1.44-1.44V94.74a1.43 1.43 0 0 0-1.44-1.43H49.46A1.43 1.43 0 0 0 48 94.74zm2.87 1.44h14.41v14.38H50.9z"/><path d="M53.78 94.74v5.76a1.43 1.43 0 0 0 1.44 1.43H61a1.43 1.43 0 0 0 1.44-1.43v-5.76h-2.91v4.32h-2.87v-4.32zM65.28 94.74V112a1.44 1.44 0 0 0 1.44 1.44H84a1.44 1.44 0 0 0 1.42-1.44V94.74A1.44 1.44 0 0 0 84 93.31H66.72a1.44 1.44 0 0 0-1.44 1.43zm2.88 1.44h14.38v14.38H68.16z"/><path d="M71 94.74v5.76a1.43 1.43 0 0 0 1.44 1.43h5.75a1.44 1.44 0 0 0 1.44-1.43v-5.76h-2.84v4.32h-2.88v-4.32zM48 77.49v17.25a1.43 1.43 0 0 0 1.43 1.44h17.29a1.43 1.43 0 0 0 1.44-1.44V77.49a1.43 1.43 0 0 0-1.44-1.44H49.46A1.43 1.43 0 0 0 48 77.49zm2.87 1.43h14.41v14.39H50.9z"/><path d="M53.78 77.49v5.75a1.44 1.44 0 0 0 1.44 1.44H61a1.44 1.44 0 0 0 1.44-1.44v-5.75h-2.91v4.31h-2.87v-4.31zM42.61 64.54h69.03v2.88H42.61zM84.32 47.28H69.94a1.44 1.44 0 0 0-1.44 1.44v5.75a1.43 1.43 0 0 0 1.44 1.44h14.38a1.44 1.44 0 0 0 1.44-1.44v-5.75a1.45 1.45 0 0 0-1.44-1.44zM82.88 53H71.37v-2.84h11.51z"/></svg>