<svg xmlns="http://www.w3.org/2000/svg" viewBox="0 0 152.4 152.4"><style>.st0{fill:#fff}.st1{fill:#1e242b;stroke:#c2d52e;stroke-width:4;stroke-miterlimit:10}.st2{clip-path:url(#SVGID_2_)}.st3{clip-path:url(#SVGID_4_)}.st4,.st5,.st6{fill:#231f20}.st5{display:none;stroke:#fff;stroke-width:5;stroke-miterlimit:10}.st6{clip-path:url(#SVGID_6_)}.st7{clip-path:url(#SVGID_8_)}.st8{clip-path:url(#SVGID_10_);fill:#231f20}.st9{fill:none}.st10{clip-path:url(#SVGID_12_);fill:#231f20}.st11{fill:#ec1c24}.st12,.st13{clip-path:url(#SVGID_16_);fill:#fff}.st13{clip-path:url(#SVGID_18_)}.st14{clip-path:url(#SVGID_20_)}.st15{clip-path:url(#SVGID_22_)}.st16{clip-path:url(#SVGID_24_)}.st17{clip-path:url(#SVGID_26_)}.st18,.st19,.st20{fill:#1e242b}.st19,.st20{stroke:#fff;stroke-miterlimit:10}.st20{fill:none;stroke-width:2}.st21{clip-path:url(#SVGID_30_)}.st22{clip-path:url(#SVGID_32_)}.st23{clip-path:url(#SVGID_34_)}.st24{clip-path:url(#SVGID_36_)}.st25{clip-path:url(#SVGID_38_)}.st26{clip-path:url(#SVGID_40_)}.st27{clip-path:url(#SVGID_44_)}.st28{clip-path:url(#SVGID_46_)}.st29{clip-path:url(#SVGID_48_);fill:#231f20}.st30{clip-path:url(#SVGID_50_);fill:#fff}.st31{clip-path:url(#SVGID_52_)}.st32{clip-path:url(#SVGID_54_);fill:#fff}.st33{clip-path:url(#SVGID_56_)}.st34{clip-path:url(#SVGID_58_)}.st35{fill:#1e242b;stroke:#fff;stroke-width:2;stroke-miterlimit:10}.st36{clip-path:url(#SVGID_60_)}.st37{display:none}.st38{display:inline;fill:#fff;stroke:#fff;stroke-miterlimit:10}.st39{clip-path:url(#SVGID_64_)}.st40{display:none;fill:#231f20}.st41,.st42{fill-rule:evenodd;clip-rule:evenodd;fill:#231f20}.st42{fill:#fff}.st43{clip-path:url(#SVGID_68_)}.st44{fill:none;stroke:#000;stroke-width:3;stroke-miterlimit:10}</style><g id="Screen_3"><circle class="st5" cx="76.2" cy="76.2" r="73.7"/><g id="Map-geo-tag_1_"><path class="st4" d="M114.7 62.1c-.3-.2-.8-.3-1.2-.2l-23.7 8.3c3.4-6.6 6.2-13.5 6.2-18 0-9.7-7.9-17.6-17.6-17.6-9.7 0-17.6 7.9-17.6 17.6 0 7.9 8.6 22.8 13.7 31 .8 1.4 2.3 2.2 3.9 2.2s3.1-.9 3.9-2.2c1.2-2 2.7-4.4 4.2-7v38.6l-22.1-7v-42-.2-.2-.1c0-.1-.1-.2-.1-.2 0-.1-.1-.1-.1-.2l-.2-.2c-.1-.1-.1-.1-.2-.1s-.1 0-.2-.1c-.1 0-.2-.1-.3-.1h-.5L38 72.3c-.5.2-.9.7-.9 1.2v43c0 .4.2.8.5 1.1.2.2.5.3.8.3.1 0 .3 0 .4-.1l24.4-7.7 24.4 7.7c.3.1.6.1.8 0l26.1-9.1c.5-.2.9-.7.9-1.2V63.1c-.1-.4-.3-.8-.7-1zM80.2 81.9c-.4.6-1 1-1.7 1s-1.4-.4-1.7-1c-8.4-13.6-13.3-24.4-13.3-29.7 0-8.3 6.7-15 15-15s15 6.7 15 15c0 5.3-4.8 16.1-13.3 29.7zm-40.5-7.4l22.1-7v40.3l-22.1 7V74.5zm73 32l-23.4 8.2V73.2l23.4-8.2v41.5z"/><path class="st4" d="M78.5 42.4c-4.5 0-8.2 3.7-8.2 8.2 0 4.5 3.7 8.2 8.2 8.2s8.2-3.7 8.2-8.2c0-4.6-3.7-8.2-8.2-8.2zm0 13.7c-3.1 0-5.6-2.5-5.6-5.6 0-3.1 2.5-5.6 5.6-5.6s5.6 2.5 5.6 5.6c-.1 3.1-2.5 5.6-5.6 5.6z"/></g></g></svg>