<svg xmlns="http://www.w3.org/2000/svg" xmlns:xlink="http://www.w3.org/1999/xlink" viewBox="0 0 152.4 152.4"><style>.st0{fill:#fff}.st1{fill:#1e242b;stroke:#c2d52e;stroke-width:4;stroke-miterlimit:10}.st2{clip-path:url(#SVGID_2_)}.st3{clip-path:url(#SVGID_4_)}.st4,.st5,.st6{fill:#231f20}.st5{display:none;stroke:#fff;stroke-width:5;stroke-miterlimit:10}.st6{clip-path:url(#SVGID_6_)}.st7{clip-path:url(#SVGID_8_)}.st8{clip-path:url(#SVGID_10_);fill:#231f20}.st9{fill:none}.st10{clip-path:url(#SVGID_12_);fill:#231f20}.st11{fill:#ec1c24}.st12,.st13{clip-path:url(#SVGID_16_);fill:#fff}.st13{clip-path:url(#SVGID_18_)}.st14{clip-path:url(#SVGID_20_)}.st15{clip-path:url(#SVGID_22_)}.st16{clip-path:url(#SVGID_24_)}.st17{clip-path:url(#SVGID_26_)}.st18,.st19,.st20{fill:#1e242b}.st19,.st20{stroke:#fff;stroke-miterlimit:10}.st20{fill:none;stroke-width:2}.st21{clip-path:url(#SVGID_30_)}.st22{clip-path:url(#SVGID_32_)}.st23{clip-path:url(#SVGID_34_)}.st24{clip-path:url(#SVGID_36_)}.st25{clip-path:url(#SVGID_38_)}.st26{clip-path:url(#SVGID_40_)}.st27{clip-path:url(#SVGID_44_)}.st28{clip-path:url(#SVGID_46_)}.st29{clip-path:url(#SVGID_48_);fill:#231f20}.st30{clip-path:url(#SVGID_50_);fill:#fff}.st31{clip-path:url(#SVGID_52_)}.st32{clip-path:url(#SVGID_54_);fill:#fff}.st33{clip-path:url(#SVGID_56_)}.st34{clip-path:url(#SVGID_58_)}.st35{fill:#1e242b;stroke:#fff;stroke-width:2;stroke-miterlimit:10}.st36{clip-path:url(#SVGID_60_)}.st37{display:none}.st38{display:inline;fill:#fff;stroke:#fff;stroke-miterlimit:10}.st39{clip-path:url(#SVGID_64_)}.st40{display:none;fill:#231f20}.st41,.st42{fill-rule:evenodd;clip-rule:evenodd;fill:#231f20}.st42{fill:#fff}.st43{clip-path:url(#SVGID_68_)}.st44{fill:none;stroke:#000;stroke-width:3;stroke-miterlimit:10}</style><g id="Screen_3"><defs><path id="SVGID_5_" transform="rotate(-45.001 76.197 76.2)" d="M34.5 34.5h83.4v83.4H34.5z"/></defs><clipPath id="SVGID_2_"><use xlink:href="#SVGID_5_" overflow="visible"/></clipPath><path d="M82 74.9H45.7c-.7 0-1.3.6-1.3 1.3 0 .3.1.7.4.9.2.2.5.4.9.4H82c.7 0 1.3-.6 1.3-1.3-.1-.7-.6-1.3-1.3-1.3zm0 0" clip-path="url(#SVGID_2_)" fill="#231f20"/><path d="M124 87c.3-.4.3-.9.1-1.3-.2-.4-.7-.7-1.1-.7h-13.4l-5-8.7 5-8.7h10.7c1.1 0 2-.6 2.4-1.6.4-1 .2-2-.5-2.8-2.1-2.2-4.7-3.8-7.7-4.7-7.1-2.1-14.5-.4-19.3 4.6-1.5 1.5-2.6 3.2-3.5 5.1H28.6c-2.1 0-4.2.8-5.7 2.3-1.5 1.5-2.3 3.5-2.3 5.7s.9 4.2 2.3 5.7c1.5 1.5 3.5 2.3 5.7 2.3h63.1c.9 2 2.2 3.7 3.7 5.3 7.3 7.3 19.3 7.3 26.6 0 .7-.7 1.4-1.5 2-2.5zm-26.8.7c-1.5-1.5-2.7-3.3-3.5-5.2-.2-.5-.7-.8-1.2-.8h-64c-3 0-5.5-2.5-5.5-5.5 0-1.5.6-2.8 1.6-3.9 1-1 2.4-1.6 3.9-1.6h64c.5 0 1-.3 1.2-.8.8-1.9 1.9-3.6 3.4-5.1 4.2-4.3 10.6-5.8 16.8-3.9 2.5.8 4.6 2 6.4 3.8.1.1.2.2.2.3v.1H109c-.5 0-.9.2-1.1.6l-5.8 10c-.2.4-.2.9 0 1.3l5.8 10c.2.4.6.6 1.1.6h11.4l-.1.1c-6.5 6.4-16.8 6.4-23.1 0zm0 0" clip-path="url(#SVGID_2_)" fill="#231f20"/><path d="M31.3 73.4c-1.5-1.5-4.1-1.5-5.6 0s-1.5 4.1 0 5.6 4.1 1.5 5.6 0c1.6-1.5 1.6-4.1 0-5.6zm-3.8 3.8c-.6-.6-.6-1.5 0-2 .6-.6 1.5-.6 2 0 .6.6.6 1.5 0 2-.5.6-1.4.6-2 0zm0 0M87.7 74.9h-1.9c-.7 0-1.3.6-1.3 1.3 0 .3.1.7.4.9.2.2.5.4.9.4h1.9c.7 0 1.3-.6 1.3-1.3-.1-.7-.6-1.3-1.3-1.3zm0 0" clip-path="url(#SVGID_2_)" fill="#231f20"/></g></svg>