<svg xmlns="http://www.w3.org/2000/svg" viewBox="0 0 152.4 152.4"><style>.st0{fill:#fff}.st1{fill:#1e242b;stroke:#c2d52e;stroke-width:4;stroke-miterlimit:10}.st2{clip-path:url(#SVGID_2_)}.st3{clip-path:url(#SVGID_4_)}.st4,.st5,.st6{fill:#231f20}.st5{display:none;stroke:#fff;stroke-width:5;stroke-miterlimit:10}.st6{clip-path:url(#SVGID_6_)}.st7{clip-path:url(#SVGID_8_)}.st8{clip-path:url(#SVGID_10_);fill:#231f20}.st9{fill:none}.st10{clip-path:url(#SVGID_12_);fill:#231f20}.st11{fill:#ec1c24}.st12,.st13{clip-path:url(#SVGID_16_);fill:#fff}.st13{clip-path:url(#SVGID_18_)}.st14{clip-path:url(#SVGID_20_)}.st15{clip-path:url(#SVGID_22_)}.st16{clip-path:url(#SVGID_24_)}.st17{clip-path:url(#SVGID_26_)}.st18,.st19,.st20{fill:#1e242b}.st19,.st20{stroke:#fff;stroke-miterlimit:10}.st20{fill:none;stroke-width:2}.st21{clip-path:url(#SVGID_30_)}.st22{clip-path:url(#SVGID_32_)}.st23{clip-path:url(#SVGID_34_)}.st24{clip-path:url(#SVGID_36_)}.st25{clip-path:url(#SVGID_38_)}.st26{clip-path:url(#SVGID_40_)}.st27{clip-path:url(#SVGID_44_)}.st28{clip-path:url(#SVGID_46_)}.st29{clip-path:url(#SVGID_48_);fill:#231f20}.st30{clip-path:url(#SVGID_50_);fill:#fff}.st31{clip-path:url(#SVGID_52_)}.st32{clip-path:url(#SVGID_54_);fill:#fff}.st33{clip-path:url(#SVGID_56_)}.st34{clip-path:url(#SVGID_58_)}.st35{fill:#1e242b;stroke:#fff;stroke-width:2;stroke-miterlimit:10}.st36{clip-path:url(#SVGID_60_)}.st37{display:none}.st38{display:inline;fill:#fff;stroke:#fff;stroke-miterlimit:10}.st39{clip-path:url(#SVGID_64_)}.st40{display:none;fill:#231f20}.st41,.st42{fill-rule:evenodd;clip-rule:evenodd;fill:#231f20}.st42{fill:#fff}.st43{clip-path:url(#SVGID_68_)}.st44{fill:none;stroke:#000;stroke-width:3;stroke-miterlimit:10}</style><g id="Screen_4"><path class="st4" d="M76.2 32.6c-24 0-43.6 19.6-43.6 43.6s19.6 43.6 43.6 43.6 43.6-19.6 43.6-43.6-19.6-43.6-43.6-43.6zm0 83.6c-22.1 0-40-17.9-40-40s17.9-40 40-40 40 17.9 40 40-17.9 40-40 40z"/><path class="st4" d="M63.2 38.4c.5-.2 1.1-.3 1.6-.5-.5.1-1 .3-1.6.5zM65.1 37.8c.5-.1 1-.3 1.5-.4-.5.1-1 .2-1.5.4zM74.3 116.1h-.7.7zM71.2 36.5c.3 0 .7-.1 1.1-.1-.4.1-.8.1-1.1.1zM69.1 36.9c.4-.1.8-.1 1.2-.2-.4 0-.8.1-1.2.2zM67.1 37.3c.4-.1.9-.2 1.3-.3-.4.1-.9.2-1.3.3zM76.2 116.2zM72.4 116c-.3 0-.6-.1-.9-.1.3 0 .6.1.9.1zM73.4 36.3c.3 0 .5 0 .8-.1-.3.1-.5.1-.8.1zM70.5 115.8c-.3 0-.6-.1-.9-.1.3 0 .6 0 .9.1zM68.7 115.5c-.3-.1-.7-.1-1-.2.3 0 .7.1 1 .2zM67 115.1l-1.2-.3 1.2.3zM76.2 36.2zM77.9 36.3h.8-.8zM50.8 96.2c0-1.7.8-2.8 1.7-4.1.9-1.3 2-2.8 2-5 0-3.5-3.1-3.8-4.8-4-1.2-.1-2.3-.3-3-.9-.5-.5-1-1.4-1.5-2.3-1.4-2.6-3.5-6.3-8.7-7.1 1.4-15.9 12.1-29.2 26.7-34.3-15.6 5.4-26.9 20.3-26.9 37.8 0 18.3 12.4 33.8 29.2 38.5-5.4-1.5-10.4-4.2-14.7-7.7V96.2zM49.4 90c-1 1.5-2.3 3.3-2.3 6.2v7.4c-6.7-7.1-10.8-16.7-10.9-27.2 3.1.6 4.4 2.9 5.7 5.2.6 1.2 1.3 2.3 2.1 3.2 1.6 1.6 3.6 1.8 5.2 2 .6.1 1.4.2 1.6.4 0 .8-.5 1.6-1.4 2.8zM78.5 40.4c-.4.4-.5.8-.5 1.3s.2 1 .6 1.3c.7.6.8.9.8.9 0 .1-.4.7-2.2 1.6-3.1 1.6-6.6 4.7-7.1 8.1-.2 1.5.2 2.9 1.2 3.9.3.3.8.5 1.3.5 2.5 0 4.5-.9 6.4-1.8 1.9-.9 3.8-1.8 6.4-1.8 7 0 12.6 1.6 12.6 3.6 0 .7-.2 1-.3 1.1-.9.9-3.9.8-6.6.8h-2.2c-2.5 0-3.2-.4-4.1-.8-1-.5-2.2-1-5-1-3 0-8.6.5-12.2 4.2-3 3-2.7 6.5-2.4 8.9 0 .5.1 1.1.1 1.5 0 3.6 3.7 5.5 7.3 5.5 5.6 0 10.4 1 10.9 1.8 0 2 .6 3.4 1.1 4.5.4.9.7 1.7.7 2.7 0 .8-.1 1-.5 1.5-.7.9-1.3 1.9-1.3 4 0 3.8 3.7 8 4.1 8.5.3.4.8.6 1.4.6.2 0 .3 0 .5-.1 1.1-.3 10.5-2.9 10.5-9 0-1.9.6-2.5 1.5-3.2.9-.8 2.1-1.8 2.1-4 0-1.5 2.6-5.2 5-7.9.3-.4.5-.9.5-1.4 0-.5-.3-1-.7-1.3-1.4-1.1-5.3-4.7-6.6-8.1.7.4 1.7 1 2.4 1.8.6.6 1.4.9 2.3.9 2.4-.1 5.5-3.1 7.8-5.6.8 2.4 1.4 5 1.7 7.6-2.3-18.8-17.8-33.6-36.9-34.9 2.5.2 4.9.6 7.2 1.2-3.3.3-6.4 1.2-7.8 2.6zm34.1 19.4c-2.4 2.9-5.2 5.4-6.3 5.8-1.5-1.4-5.1-4-7.4-2.6-.9.6-1.8 1.9-.8 4.7 1.3 3.6 4.5 7 6.4 8.7-1.8 2.2-4.7 6.1-4.7 8.9 0 .5-.1.6-.9 1.3-1.1 1-2.8 2.4-2.8 6 0 2.3-3.9 4.3-6.6 5.2-1-1.3-2.5-3.6-2.5-5.2 0-1 .2-1.3.6-1.8.7-.9 1.3-1.8 1.3-3.7 0-1.8-.5-3.1-1-4.2-.4-1-.8-1.8-.8-3.1 0-4.7-9.1-5.5-14.5-5.5-1.5 0-3.6-.6-3.6-1.8 0-.6-.1-1.2-.1-1.8-.2-2.2-.4-4.2 1.4-6 2.8-2.8 7.7-3.1 9.6-3.1 2 0 2.6.3 3.4.7 1.4.6 2.6 1.1 5.7 1.1h2.1c3.9.1 7.2.1 9.2-1.8.9-.9 1.4-2.1 1.4-3.7 0-6.6-11.4-7.3-16.4-7.3-3.4 0-5.8 1.1-7.9 2.2-1.3.6-2.5 1.2-3.7 1.4V54c.3-1.6 2.6-4.1 5.2-5.4 1.8-.9 3.9-2.2 4.2-4.4.1-.8-.1-1.6-.4-2.2 2.4-.9 7-1.6 11-1.9 8.3 4.2 15.1 11.2 18.9 19.7z"/><path class="st4" d="M115.9 71.4c0 .4.1.8.1 1.2 0-.3-.1-.8-.1-1.2zM116.1 73.5c0 .3 0 .6.1.9-.1-.3-.1-.6-.1-.9zM116.2 76.2c0 22-17.9 39.9-39.9 40 22-.1 39.9-18 39.9-40zM116.2 76.2v-1.8 1.8zM67.7 115.3c-.2 0-.5-.1-.7-.2.2 0 .4.1.7.2zM69.6 115.6c-.3 0-.6-.1-.9-.2.3.1.6.2.9.2zM76.2 116.2s.1 0 0 0c.1 0 0 0 0 0zM76.2 116.2h-1.9 1.9zM71.5 115.9c-.3 0-.7-.1-1-.1.3 0 .7.1 1 .1zM73.6 116.1c-.4 0-.8-.1-1.2-.1.4 0 .8.1 1.2.1zM116 72.7c0 .3 0 .6.1.8 0-.3-.1-.6-.1-.8zM70.3 36.7c.3 0 .6-.1.9-.1-.3 0-.6 0-.9.1zM68.4 37c.2 0 .4-.1.7-.1-.2 0-.4 0-.7.1zM78.7 36.3h.3-.3zM72.2 36.4c.4 0 .8-.1 1.1-.1-.3.1-.7.1-1.1.1zM76.2 36.2h1.7-1.7zM64.8 37.9c.1 0 .2-.1.3-.1-.1 0-.2 0-.3.1zM63.1 38.4h0zM66.6 37.4c.2 0 .3-.1.5-.1-.2 0-.3 0-.5.1zM65.8 114.8c-.1 0-.3-.1-.4-.1.2 0 .3.1.4.1zM74.2 36.3c.7 0 1.3-.1 2-.1-.7 0-1.3 0-2 .1zM115.9 71.2v0z"/></g></svg>