<svg xmlns="http://www.w3.org/2000/svg" xmlns:xlink="http://www.w3.org/1999/xlink" viewBox="0 0 152.4 156.8"><style>.st0{fill:#fff}.st1{fill:#1e242b;stroke:#c2d52e;stroke-width:4;stroke-miterlimit:10}.st2{clip-path:url(#SVGID_2_)}.st3{clip-path:url(#SVGID_4_)}.st4,.st5,.st6{fill:#231f20}.st5{display:none;stroke:#fff;stroke-width:5;stroke-miterlimit:10}.st6{clip-path:url(#SVGID_6_)}.st7{clip-path:url(#SVGID_8_)}.st8{clip-path:url(#SVGID_10_);fill:#231f20}.st9{fill:none}.st10{clip-path:url(#SVGID_12_);fill:#231f20}.st11{fill:#ec1c24}.st12,.st13{clip-path:url(#SVGID_16_);fill:#fff}.st13{clip-path:url(#SVGID_18_)}.st14{clip-path:url(#SVGID_20_)}.st15{clip-path:url(#SVGID_22_)}.st16{clip-path:url(#SVGID_24_)}.st17{clip-path:url(#SVGID_26_)}.st18,.st19,.st20{fill:#1e242b}.st19,.st20{stroke:#fff;stroke-miterlimit:10}.st20{fill:none;stroke-width:2}.st21{clip-path:url(#SVGID_30_)}.st22{clip-path:url(#SVGID_32_)}.st23{clip-path:url(#SVGID_34_)}.st24{clip-path:url(#SVGID_36_)}.st25{clip-path:url(#SVGID_38_)}.st26{clip-path:url(#SVGID_40_)}.st27{clip-path:url(#SVGID_44_)}.st28{clip-path:url(#SVGID_46_)}.st29{clip-path:url(#SVGID_48_);fill:#231f20}.st30{clip-path:url(#SVGID_50_);fill:#fff}.st31{clip-path:url(#SVGID_52_)}.st32{clip-path:url(#SVGID_54_);fill:#fff}.st33{clip-path:url(#SVGID_56_)}.st34{clip-path:url(#SVGID_58_)}.st35{fill:#1e242b;stroke:#fff;stroke-width:2;stroke-miterlimit:10}.st36{clip-path:url(#SVGID_60_)}.st37{display:none}.st38{display:inline;fill:#fff;stroke:#fff;stroke-miterlimit:10}.st39{clip-path:url(#SVGID_64_)}.st40{display:none;fill:#231f20}.st41,.st42{fill-rule:evenodd;clip-rule:evenodd;fill:#231f20}.st42{fill:#fff}.st43{clip-path:url(#SVGID_68_)}.st44{fill:none;stroke:#000;stroke-width:3;stroke-miterlimit:10}</style><g id="Screen_3"><defs><path id="SVGID_7_" d="M42.6 91h53.3l1.2-2.5 3-3.9 4.8-2.6 7.2-1.8 2.2-13.1-.9-6.9-12.7-20.1-19.9-4.3H63.3l-20.7 8.9-6.5 10.2L35 76.5z"/></defs><clipPath id="SVGID_2_"><use xlink:href="#SVGID_7_" overflow="visible"/></clipPath><g class="st2"><defs><path id="SVGID_9_" d="M41.8 40.1h68.8v59.6H41.8z"/></defs><clipPath id="SVGID_4_"><use xlink:href="#SVGID_9_" overflow="visible"/></clipPath><path d="M110.7 74.5c0-9.4-3.8-17.9-9.9-24.2 0-.1-.1-.1-.2-.2l-.2-.2C94.2 43.8 85.6 40 76.2 40S58.3 43.8 52 50c-.1 0-.1.1-.2.2l-.2.2c-6.1 6.2-9.9 14.8-9.9 24.2 0 9.2 3.6 17.8 10.1 24.4.3.3.8.5 1.2.5.4 0 .9-.2 1.2-.5l.1-.1 5.2-5.2c.7-.7.7-1.7 0-2.4s-1.7-.7-2.4 0L53 95.4c-4.8-5.3-7.5-11.9-7.9-19H51c.9 0 1.7-.8 1.7-1.7 0-.9-.8-1.7-1.7-1.7h-5.8c.4-7.3 3.3-13.9 7.9-19l4.1 4.1c.3.3.8.5 1.2.5.4 0 .9-.2 1.2-.5.7-.7.7-1.7 0-2.4l-4.1-4.1c5.1-4.6 11.7-7.5 19-7.9v5.8c0 .9.8 1.7 1.7 1.7.9 0 1.7-.8 1.7-1.7v-5.8c7.3.4 13.9 3.3 19 7.9l-4.1 4.1c-.7.7-.7 1.7 0 2.4.3.3.8.5 1.2.5.4 0 .9-.2 1.2-.5l4.1-4.1c4.6 5.1 7.5 11.7 7.9 19h-5.8c-.9 0-1.7.8-1.7 1.7 0 .9.8 1.7 1.7 1.7h5.8c-.4 7.1-3.1 13.7-7.9 19l-4.1-4.1c-.7-.7-1.7-.7-2.4 0s-.7 1.7 0 2.4l5.3 5.3c.3.3.8.5 1.2.5.2 0 .4 0 .6-.1.2-.1.4-.2.6-.4 6.6-6.7 10.2-15.3 10.2-24.5zm0 0" clip-path="url(#SVGID_4_)" fill="#231f20"/><path class="st4" d="M84 55.1c-.9-.3-1.9.1-2.2.9l-4.9 12.2h-.7c-2.4 0-4.5 1.3-5.6 3.4-1.1 2.2-.8 4.9.8 7.1l.6.6c1.3 1 2.8 1.5 4.2 1.5 2.4 0 4.5-1.3 5.6-3.4 1.1-2.2.8-4.9-.8-7.1l-.6-.6c-.1-.1-.3-.2-.4-.3l4.9-12.1c.4-.9 0-1.9-.9-2.2zm-5.2 20.7c-.5 1-1.5 1.6-2.6 1.6-.7 0-1.5-.3-2.2-.8-.8-1.2-1-2.4-.4-3.5.5-1 1.5-1.6 2.6-1.6.4 0 .7.1 1.1.2h.1c.3.1.6.3 1 .5.8 1.3 1 2.6.4 3.6zm0 0"/></g><g><path class="st9" d="M127.6 108.7c.3-.4.3-.9.1-1.3-.2-.4-.7-.7-1.1-.7h-13.4l-5-8.7 5-8.7h10.7c1.1 0 2-.6 2.4-1.6.4-1 .2-2-.5-2.8-2.1-2.2-4.7-3.8-7.7-4.7-7.1-2.1-14.5-.4-19.3 4.6-1.5 1.5-2.6 3.2-3.5 5.1H32.2c-2.1 0-4.2.8-5.7 2.3-1.5 1.5-2.3 3.5-2.3 5.7s.9 4.2 2.3 5.7c1.5 1.5 3.5 2.3 5.7 2.3h63.1c.9 2 2.2 3.7 3.7 5.3 7.3 7.3 19.3 7.3 26.6 0 .7-.8 1.3-1.6 2-2.5zm-26.9.6"/><path class="st4" d="M91.3 96.6h-1.9c-.7 0-1.3.6-1.3 1.3 0 .3.1.7.4.9.2.2.5.4.9.4h1.9c.7 0 1.3-.6 1.3-1.3-.1-.8-.6-1.3-1.3-1.3zm0 0"/><defs><path id="SVGID_11_" transform="rotate(-45.001 79.77 97.82)" d="M38.1 56.1h83.4v83.4H38.1z"/></defs><clipPath id="SVGID_6_"><use xlink:href="#SVGID_11_" overflow="visible"/></clipPath><path class="st6" d="M85.5 96.6H49.2c-.7 0-1.3.6-1.3 1.3 0 .3.1.7.4.9.2.2.5.4.9.4h36.3c.7 0 1.3-.6 1.3-1.3 0-.8-.6-1.3-1.3-1.3zm0 0"/><path class="st6" d="M127.6 108.7c.3-.4.3-.9.1-1.3-.2-.4-.7-.7-1.1-.7h-13.4l-5-8.7 5-8.7h10.7c1.1 0 2-.6 2.4-1.6.4-1 .2-2-.5-2.8-2.1-2.2-4.7-3.8-7.7-4.7-7.1-2.1-14.5-.4-19.3 4.6-1.5 1.5-2.6 3.2-3.5 5.1H32.2c-2.1 0-4.2.8-5.7 2.3-1.5 1.5-2.3 3.5-2.3 5.7s.9 4.2 2.3 5.7c1.5 1.5 3.5 2.3 5.7 2.3h63.1c.9 2 2.2 3.7 3.7 5.3 7.3 7.3 19.3 7.3 26.6 0 .7-.8 1.3-1.6 2-2.5zm-26.9.6c-1.5-1.5-2.7-3.3-3.5-5.2-.2-.5-.7-.8-1.2-.8H32c-3 0-5.5-2.5-5.5-5.5 0-1.5.6-2.8 1.6-3.9 1-1 2.4-1.6 3.9-1.6h64c.5 0 1-.3 1.2-.8.8-1.9 1.9-3.6 3.4-5.1 4.2-4.3 10.6-5.8 16.8-3.9 2.5.8 4.6 2 6.4 3.8.1.1.2.2.2.3v.1h-11.5c-.5 0-.9.2-1.1.6l-5.8 10c-.2.4-.2.9 0 1.3l5.8 10c.2.4.6.6 1.1.6h11.4l-.1.1c-6.4 6.4-16.7 6.4-23.1 0zm0 0"/><path class="st4" d="M34.9 95c-1.5-1.5-4.1-1.5-5.6 0s-1.5 4.1 0 5.6 4.1 1.5 5.6 0 1.5-4 0-5.6zm-3.8 3.8c-.6-.6-.6-1.5 0-2 .6-.6 1.5-.6 2 0 .6.6.6 1.5 0 2-.5.6-1.5.6-2 0zm0 0"/></g></g></svg>