<svg xmlns="http://www.w3.org/2000/svg" viewBox="0 0 152.4 152.4"><style>.st0{fill:#fff}.st1{fill:#1e242b;stroke:#c2d52e;stroke-width:4;stroke-miterlimit:10}.st2{clip-path:url(#SVGID_2_)}.st3{clip-path:url(#SVGID_4_)}.st4,.st5,.st6{fill:#231f20}.st5{display:none;stroke:#fff;stroke-width:5;stroke-miterlimit:10}.st6{clip-path:url(#SVGID_6_)}.st7{clip-path:url(#SVGID_8_)}.st8{clip-path:url(#SVGID_10_);fill:#231f20}.st9{fill:none}.st10{clip-path:url(#SVGID_12_);fill:#231f20}.st11{fill:#ec1c24}.st12,.st13{clip-path:url(#SVGID_16_);fill:#fff}.st13{clip-path:url(#SVGID_18_)}.st14{clip-path:url(#SVGID_20_)}.st15{clip-path:url(#SVGID_22_)}.st16{clip-path:url(#SVGID_24_)}.st17{clip-path:url(#SVGID_26_)}.st18,.st19,.st20{fill:#1e242b}.st19,.st20{stroke:#fff;stroke-miterlimit:10}.st20{fill:none;stroke-width:2}.st21{clip-path:url(#SVGID_30_)}.st22{clip-path:url(#SVGID_32_)}.st23{clip-path:url(#SVGID_34_)}.st24{clip-path:url(#SVGID_36_)}.st25{clip-path:url(#SVGID_38_)}.st26{clip-path:url(#SVGID_40_)}.st27{clip-path:url(#SVGID_44_)}.st28{clip-path:url(#SVGID_46_)}.st29{clip-path:url(#SVGID_48_);fill:#231f20}.st30{clip-path:url(#SVGID_50_);fill:#fff}.st31{clip-path:url(#SVGID_52_)}.st32{clip-path:url(#SVGID_54_);fill:#fff}.st33{clip-path:url(#SVGID_56_)}.st34{clip-path:url(#SVGID_58_)}.st35{fill:#1e242b;stroke:#fff;stroke-width:2;stroke-miterlimit:10}.st36{clip-path:url(#SVGID_60_)}.st37{display:none}.st38{display:inline;fill:#fff;stroke:#fff;stroke-miterlimit:10}.st39{clip-path:url(#SVGID_64_)}.st40{display:none;fill:#231f20}.st41,.st42{fill-rule:evenodd;clip-rule:evenodd;fill:#231f20}.st42{fill:#fff}.st43{clip-path:url(#SVGID_68_)}.st44{fill:none;stroke:#000;stroke-width:3;stroke-miterlimit:10}</style><g id="Screen_3"><path d="M121.4 119.8l-9.5-9.9c2.8-3 4.5-7.1 4.5-11.5 0-9.4-7.7-17.1-17.1-17.1S82.2 89 82.2 98.4s7.7 17.1 17.1 17.1c3.9 0 7.4-1.3 10.3-3.5l9.5 9.9c.3.3.7.5 1.1.5.4 0 .8-.1 1.1-.4.7-.6.7-1.6.1-2.2zm-36-21.4c0-7.7 6.3-13.9 13.9-13.9s13.9 6.3 13.9 13.9-6.3 13.9-13.9 13.9-13.9-6.2-13.9-13.9z"/><path d="M76.1 96.9c-1.3 0-2.6 0-3.9-.1-.8 0-1.5-.1-2.3-.1-.5 0-.9 0-1.4-.1-1-.1-2-.2-2.9-.3-.2 0-.4 0-.5-.1-1.1-.1-2.2-.3-3.2-.4h-.1c-5.4-.8-10-2-13.6-3.4h-.1c-.7-.3-1.3-.5-1.9-.8-.1 0-.1-.1-.2-.1-.5-.3-1-.5-1.5-.8-.1-.1-.2-.1-.3-.2-.4-.2-.8-.5-1.1-.7-.1-.1-.3-.2-.4-.3-.3-.2-.6-.4-.8-.7-.1-.1-.3-.2-.4-.4l-.6-.6c-.1-.1-.2-.3-.3-.4-.1-.2-.3-.4-.4-.6-.1-.2-.2-.3-.2-.5-.1-.2-.1-.4-.2-.6-.1-.3-.1-.5-.1-.8V72l.1.1c.3.3.7.6 1.1.9 6 4.5 17.9 8 35.2 8 17.2 0 29.1-3.5 35.1-8 .5-.3.9-.7 1.3-1.1v7.5c0 .9.7 1.6 1.6 1.6s1.6-.7 1.6-1.6V46.2c0-.3-.1-.5-.2-.8-1.8-6.8-15.5-13.5-39.4-13.5s-37.5 6.7-39.4 13.5c-.1.2-.2.5-.2.8V104.8c0 .3.1.5.2.7 1.8 7.7 16.9 12.2 31.4 13.3h.1c.8 0 1.5-.6 1.6-1.5.1-.9-.6-1.6-1.5-1.7-17.6-1.3-27.9-6.7-28.6-11.1 0-.1 0-.1-.1-.2V91l.1.1c.3.3.7.6 1.1.9 6 4.5 17.9 8 35.2 8 .9 0 1.6-.7 1.6-1.6s-.6-1.5-1.5-1.5zM40.7 53.8c.5.4 1 .7 1.5 1.1.1.1.2.1.4.2l1.5.9.6.3 1.8.9c.1 0 .2.1.3.1.7.3 1.5.6 2.4.9.2.1.5.2.7.2.7.2 1.3.4 2 .6.3.1.5.1.8.2.9.3 1.9.5 2.9.7.1 0 .3.1.4.1.9.2 1.8.4 2.7.5.3.1.6.1 1 .2.9.1 1.8.3 2.8.4.2 0 .5.1.7.1 1.2.1 2.4.3 3.7.4.3 0 .6 0 .9.1 1 .1 2 .1 3.1.2h1.2c1.4 0 2.8.1 4.2.1 1.4 0 2.8 0 4.2-.1h1.2c1 0 2.1-.1 3.1-.2.3 0 .6 0 .9-.1 1.3-.1 2.5-.2 3.7-.4.2 0 .5-.1.7-.1.9-.1 1.9-.3 2.8-.4.3-.1.7-.1 1-.2.9-.2 1.9-.3 2.7-.5.1 0 .3-.1.4-.1 1-.2 2-.5 2.9-.7.3-.1.5-.1.8-.2.7-.2 1.4-.4 2-.6.2-.1.5-.2.7-.2l2.4-.9c.1 0 .2-.1.3-.1l1.8-.9.6-.3 1.5-.9c.1-.1.3-.1.4-.2.6-.4 1.1-.7 1.5-1.1l.3-.3c.2-.2.4-.3.6-.5v13c0 .3-.1.5-.1.8 0 .2-.1.4-.2.6-.1.2-.1.3-.2.5s-.2.4-.4.6c-.1.1-.2.3-.3.4l-.6.6c-.1.1-.3.2-.4.4-.3.2-.5.5-.8.7-.1.1-.3.2-.4.3-.4.2-.7.5-1.1.7-.1.1-.2.1-.3.2-.5.3-1 .5-1.5.8-.1 0-.1.1-.2.1-.6.3-1.2.6-1.9.8h-.1c-3.6 1.4-8.2 2.6-13.6 3.4h-.1c-1 .2-2.1.3-3.2.4-.2 0-.4 0-.5.1-1 .1-1.9.2-2.9.3-.5 0-.9.1-1.4.1-.8 0-1.5.1-2.3.1-1.3 0-2.5.1-3.9.1s-2.6 0-3.9-.1c-.8 0-1.5-.1-2.3-.1-.5 0-.9 0-1.4-.1-1-.1-2-.2-2.9-.3-.2 0-.4 0-.5-.1-1.1-.1-2.2-.3-3.2-.4h-.1c-5.4-.8-10-2-13.6-3.4h-.1c-.7-.3-1.3-.5-1.9-.8-.1 0-.1-.1-.2-.1-.5-.3-1-.5-1.5-.8-.1-.1-.2-.1-.3-.2-.4-.2-.8-.5-1.1-.7-.1-.1-.3-.2-.4-.3-.3-.2-.6-.4-.8-.7-.1-.1-.3-.2-.4-.4l-.6-.6c-.1-.1-.2-.3-.3-.4-.1-.2-.3-.4-.4-.6-.1-.2-.2-.3-.2-.5-.1-.2-.1-.4-.2-.6-.1-.3-.1-.5-.1-.8V53c.2.2.4.3.6.5-.2.1-.1.2.1.3zm35.4-18.7c21.5 0 36.4 6.3 36.4 11.9s-15 11.9-36.4 11.9S39.7 52.6 39.7 47s15-11.9 36.4-11.9z"/></g></svg>