<svg data-name="Screen 3" xmlns="http://www.w3.org/2000/svg" viewBox="0 0 152.4 152.4"><title>icons</title><path d="M96.17 106.73a1.47 1.47 0 0 0-1.47 1.47v2.7a1.69 1.69 0 0 1-1.08 1.57 1.47 1.47 0 0 0 .53 2.84 1.58 1.58 0 0 0 .52-.09 4.64 4.64 0 0 0 3-4.32v-2.7a1.47 1.47 0 0 0-1.5-1.47zM68.77 112.58H47.52a1.68 1.68 0 0 1-1.68-1.68V57.07a1.47 1.47 0 0 0-2.94 0v53.83a4.62 4.62 0 0 0 4.62 4.62h21.25a1.47 1.47 0 0 0 0-2.94zM44.37 52.33a1.47 1.47 0 0 0 1.47-1.47V46.8a1.68 1.68 0 0 1 1.68-1.67H58.1v2.07a2.91 2.91 0 0 0 2.9 2.9h18.55a2.91 2.91 0 0 0 2.9-2.9v-2.07H93a1.67 1.67 0 0 1 1.7 1.67v8.08a1.48 1.48 0 0 0 3 0V46.8a4.63 4.63 0 0 0-4.7-4.61H82.42a2.9 2.9 0 0 0-2.87-2.49h-2a7.37 7.37 0 0 0-14.45 0H61a2.9 2.9 0 0 0-2.87 2.49H47.52a4.62 4.62 0 0 0-4.62 4.61v4.06a1.47 1.47 0 0 0 1.47 1.47zm25.9-15.59a4.44 4.44 0 0 1 4.18 3H66.1a4.43 4.43 0 0 1 4.17-3zM61 42.64h18.51v4.51H61zM97.64 72.13v-4.82a1.47 1.47 0 0 0-2.94 0v4.82a1.47 1.47 0 0 0 2.94 0z"/><path d="M96.17 100.61a10.66 10.66 0 1 0 10.66 10.65 10.67 10.67 0 0 0-10.66-10.65zm0 18.37a7.72 7.72 0 1 1 7.72-7.72 7.72 7.72 0 0 1-7.72 7.74z"/><path d="M117.88 105.87l-4.1-.63a17.1 17.1 0 0 0-.9-2.17l2.46-3.34a1.46 1.46 0 0 0-.15-1.91l-.52-.53a1.47 1.47 0 0 0-2.39 1.63l-2.28 3.15a1.46 1.46 0 0 0-.1 1.58 15.5 15.5 0 0 1 1.37 3.31 1.48 1.48 0 0 0 1.19 1.05l3.76.57v5.36l-3.76.58a1.45 1.45 0 0 0-1.19 1 15.64 15.64 0 0 1-1.37 3.3 1.48 1.48 0 0 0 .1 1.59l2.25 3.06-3.79 3.79-3.06-2.25a1.48 1.48 0 0 0-1.59-.1 15.64 15.64 0 0 1-3.3 1.37 1.46 1.46 0 0 0-1 1.19l-.58 3.76h-5.44l-.57-3.76a1.46 1.46 0 0 0-1-1.19 15.64 15.64 0 0 1-3.3-1.37 1.48 1.48 0 0 0-1.59.1l-3.06 2.25-3.79-3.79 2.25-3.06a1.48 1.48 0 0 0 .1-1.59 15.64 15.64 0 0 1-1.37-3.3 1.46 1.46 0 0 0-1.19-1l-3.76-.58v-5.36l3.76-.57a1.48 1.48 0 0 0 1.14-1.01 15.42 15.42 0 0 1 1.37-3.3 1.48 1.48 0 0 0-.1-1.59L80.13 99l3.79-3.79L87 97.47a1.48 1.48 0 0 0 1.59.1 15.64 15.64 0 0 1 3.3-1.37 1.49 1.49 0 0 0 1-1.19l.57-3.76h5.36l.61 3.75a1.49 1.49 0 0 0 1 1.19 15.64 15.64 0 0 1 3.3 1.37 1.48 1.48 0 0 0 1.59-.1l3.06-2.25a1.47 1.47 0 0 0 2.06-2.1l-.87-.88a1.47 1.47 0 0 0-1.91-.14l-3.34 2.45a21.56 21.56 0 0 0-2.17-.9l-.63-4.09a1.47 1.47 0 0 0-1.45-1.25h-2.43v-3.75a1.47 1.47 0 0 0-2.94 0v3.76h-2.47a1.46 1.46 0 0 0-1.45 1.25l-.63 4.09a20.64 20.64 0 0 0-2.17.9l-3.34-2.45a1.47 1.47 0 0 0-1.91.14l-5.58 5.58a1.47 1.47 0 0 0-.15 1.91l2.45 3.34a18.64 18.64 0 0 0-.89 2.17l-4.1.63a1.46 1.46 0 0 0-1.25 1.45v7.89a1.47 1.47 0 0 0 1.25 1.45l4.1.63a18.5 18.5 0 0 0 .89 2.16L77 122.8a1.47 1.47 0 0 0 .14 1.91l5.58 5.57a1.46 1.46 0 0 0 1.91.15L88 128a17.1 17.1 0 0 0 2.17.9l.63 4.1a1.46 1.46 0 0 0 1.45 1.25h7.89a1.47 1.47 0 0 0 1.45-1.25l.63-4.1a17 17 0 0 0 2.16-.9l3.35 2.46a1.46 1.46 0 0 0 1.91-.15l5.57-5.57a1.46 1.46 0 0 0 .15-1.91l-2.46-3.35a17 17 0 0 0 .9-2.16l4.1-.63a1.47 1.47 0 0 0 1.25-1.45v-7.89a1.46 1.46 0 0 0-1.27-1.48zM78.84 63.06v-.11-.34-.11l-.06-.34v-.11c0-.11 0-.21-.08-.32a.56.56 0 0 0 0-.12 1.71 1.71 0 0 0-.09-.3v-.14c0-.04-.07-.18-.1-.27l-.06-.16-.11-.24a1.42 1.42 0 0 0-.08-.18 1.86 1.86 0 0 0-.1-.2 1.24 1.24 0 0 0-.1-.2l-.09-.17a2.53 2.53 0 0 0-.13-.22l-.07-.11a8.3 8.3 0 0 0-.92-1.22l-.23-.24-.07-.08-.22-.2a.94.94 0 0 0-.1-.1l-.1-.09-.2-.16-.09-.07-.11-.09h-.07l-.11-.08-.18-.13-.13-.08-.16-.1-.12-.07-.14-.08H74.53l-.35-.17h-.07a8.72 8.72 0 0 0-1.9-.58l-.42-.06h-1.08A8.62 8.62 0 0 0 61.66 64v3.45a8.62 8.62 0 0 0 17.23 0V64v-.46a.31.31 0 0 1 0-.1zm-8.25-4.75h1.07l.15.05h.14l.28.1.25.1.26.12.26.32.17.09.17.12h.06l.16.11.06.05.15.11h.06l.11.1.1.09.11.1.09.09.1.11a.6.6 0 0 0 .08.08l.11.13.06.08.11.13.06.08.09.13.07.09a.57.57 0 0 0 .08.13l.06.11a.75.75 0 0 1 .07.12l.07.12v.1l.07.14a.36.36 0 0 1 0 .09 1.11 1.11 0 0 1 .07.16v.07c0 .06 0 .12.07.19a5.3 5.3 0 0 1 .28 1.16v.11a4.76 4.76 0 0 1-1.78-1.62 1.49 1.49 0 0 0-.91-.5 1.48 1.48 0 0 0-1.21.48 7 7 0 0 1-7.19 2.06v-.11-.14-.14a.69.69 0 0 0 0-.13v-.15-.13a.83.83 0 0 1 0-.15v-.38a1.46 1.46 0 0 1 .07-.19A.19.19 0 0 1 65 62a2.6 2.6 0 0 1 .1-.25v-.08l.08-.17a.41.41 0 0 1 0-.09l.07-.15.06-.1.07-.13a.61.61 0 0 0 .07-.1l.08-.13a.86.86 0 0 0 .07-.1 1 1 0 0 1 .08-.11l.08-.1.09-.12.15-.07.09-.11.09-.09.09-.1.09-.09.11-.1.09-.08.11-.1.09-.08.12-.08.1-.08.11-.08.11-.07.12-.08.1-.07.13-.07.11-.06.13-.06.11-.06.13-.06.12-.05H70.63zm-.32 14.78a5.68 5.68 0 0 1-5.67-5.67v-.79a9.94 9.94 0 0 0 8.16-1.95A7.71 7.71 0 0 0 76 66.53v.89a5.69 5.69 0 0 1-5.73 5.67zM82.31 85.81a9.07 9.07 0 0 0-6-7.47h-.13l-.31-.1h-.07l-.26-.07-.35-.17-.34-.06H65.87l-.34.06-.33.07-.26.07h-.06l-.32.1h-.12a9.07 9.07 0 0 0-6 7.47 1.46 1.46 0 0 0 .63 1.39 20.33 20.33 0 0 0 22.81 0 1.48 1.48 0 0 0 .43-1.29zm-12 2a17.3 17.3 0 0 1-8.94-2.48 6.11 6.11 0 0 1 4-4.2h9.25L75 81h.23a6.13 6.13 0 0 1 4 4.2 17.34 17.34 0 0 1-8.96 2.56zM87.23 59.62a1.47 1.47 0 1 0 0 2.94h15.5a5.25 5.25 0 1 0 0-2.94zm20.54-.83a2.31 2.31 0 1 1-2.31 2.3 2.31 2.31 0 0 1 2.31-2.3zM85.76 78.34a1.47 1.47 0 0 0 1.47 1.47h15.5a5.25 5.25 0 1 0 0-2.94h-15.5a1.47 1.47 0 0 0-1.47 1.47zm22-2.31a2.31 2.31 0 1 1-2.31 2.31 2.32 2.32 0 0 1 2.32-2.34z"/></svg>