<svg data-name="Screen 3" xmlns="http://www.w3.org/2000/svg" viewBox="0 0 152.4 152.4"><title>icons</title><path d="M116.58 67.33h-6a35.32 35.32 0 0 0-3.79-9.14l4.21-4.28a1.64 1.64 0 0 0 0-2.32l-10.19-10.22a1.65 1.65 0 0 0-2.33 0l-4.28 4.28a35.18 35.18 0 0 0-9.14-3.79v-6a1.64 1.64 0 0 0-1.64-1.64H69a1.65 1.65 0 0 0-1.64 1.64v6a35.24 35.24 0 0 0-9.15 3.79l-4.27-4.27a1.64 1.64 0 0 0-2.32 0L41.37 51.59a1.64 1.64 0 0 0 0 2.32l4.26 4.26a35 35 0 0 0-3.81 9.16h-6A1.65 1.65 0 0 0 34.17 69v14.42a1.63 1.63 0 0 0 .35 1 5.71 5.71 0 0 0-.35 1.95v26.26a5.59 5.59 0 0 0 5.58 5.58h43.67a1.63 1.63 0 0 0 1.64-1.64v-6a35.06 35.06 0 0 0 9.17-3.8l4.25 4.23a1.65 1.65 0 0 0 2.33 0L111 100.81a1.65 1.65 0 0 0 0-2.33l-4.26-4.26a35.08 35.08 0 0 0 3.78-9.16h6a1.63 1.63 0 0 0 1.64-1.64V69a1.64 1.64 0 0 0-1.58-1.67zM69 114.94H39.75a2.3 2.3 0 0 1-2.29-2.3V86.38a2.3 2.3 0 0 1 2.29-2.3h32.51a2.3 2.3 0 0 1 2.3 2.3v26.26a2.3 2.3 0 0 1-2.3 2.3zM68 76.2a8.21 8.21 0 1 1 9.45 8.11 5.58 5.58 0 0 0-5.18-3.52H69.4A8.1 8.1 0 0 1 68 76.2zm47 5.58h-5.7a1.64 1.64 0 0 0-1.6 1.29 31.87 31.87 0 0 1-4.34 10.51 1.62 1.62 0 0 0 .22 2l4 4-7.89 7.89-4-4a1.63 1.63 0 0 0-2-.22 31.83 31.83 0 0 1-10.51 4.36 1.65 1.65 0 0 0-1.29 1.61v5.66h-4.55a5.52 5.52 0 0 0 .5-2.3v-12.2a24.27 24.27 0 0 0 22.6-24.18 24 24 0 0 0-5-14.77 24.38 24.38 0 0 0-12.67-8.58 1.64 1.64 0 0 0-.91 3.15 21 21 0 0 1-4 41.08v-9.51A11.49 11.49 0 1 0 64.71 76.2a11.36 11.36 0 0 0 1 4.59h-9.96a20.76 20.76 0 0 1-.51-4.59A21 21 0 0 1 70.53 56a1.64 1.64 0 1 0-.88-3.16A24.43 24.43 0 0 0 57 61.43a24.22 24.22 0 0 0-4.58 19.36H39.75a5.51 5.51 0 0 0-2.29.5V70.62h5.66a1.64 1.64 0 0 0 1.6-1.3 32 32 0 0 1 4.37-10.51 1.64 1.64 0 0 0-.22-2.05l-4-4 7.89-7.89 4 4a1.65 1.65 0 0 0 2 .22 31.82 31.82 0 0 1 10.5-4.34 1.66 1.66 0 0 0 1.3-1.61v-5.68h11.22v5.7a1.64 1.64 0 0 0 1.29 1.6 32 32 0 0 1 10.49 4.35 1.64 1.64 0 0 0 2-.22l4-4 7.89 7.89-4 4a1.65 1.65 0 0 0-.22 2.05 31.83 31.83 0 0 1 4.35 10.48 1.64 1.64 0 0 0 1.6 1.3h5.71z"/><path d="M69.22 90.64h-5.07a4.93 4.93 0 0 0-4.64-3.28h-2.63a4.92 4.92 0 0 0-4.64 3.28h-9.12a1.65 1.65 0 0 0 0 3.29h9.12a4.92 4.92 0 0 0 4.64 3.28h2.63a4.93 4.93 0 0 0 4.64-3.28h5.07a1.65 1.65 0 0 0 0-3.29zm-9.71 3.29h-2.63a1.65 1.65 0 0 1 0-3.29h2.63a1.65 1.65 0 0 1 0 3.29zM69.22 103.78h-11a4.94 4.94 0 0 0-4.64-3.29H51a4.94 4.94 0 0 0-4.64 3.29h-3.24a1.64 1.64 0 0 0 0 3.28h3.21a4.93 4.93 0 0 0 4.67 3.28h2.6a4.93 4.93 0 0 0 4.64-3.28h11a1.64 1.64 0 0 0 0-3.28zm-15.62 3.28H51a1.64 1.64 0 0 1 0-3.28h2.6a1.64 1.64 0 0 1 0 3.28z"/></svg>