<svg xmlns="http://www.w3.org/2000/svg" viewBox="0 0 152.4 152.4"><style>.st0{fill:#fff}.st1{fill:#1e242b;stroke:#c2d52e;stroke-width:4;stroke-miterlimit:10}.st2{clip-path:url(#SVGID_2_)}.st3{clip-path:url(#SVGID_4_)}.st4,.st5,.st6{fill:#231f20}.st5{display:none;stroke:#fff;stroke-width:5;stroke-miterlimit:10}.st6{clip-path:url(#SVGID_6_)}.st7{clip-path:url(#SVGID_8_)}.st8{clip-path:url(#SVGID_10_);fill:#231f20}.st9{fill:none}.st10{clip-path:url(#SVGID_12_);fill:#231f20}.st11{fill:#ec1c24}.st12,.st13{clip-path:url(#SVGID_16_);fill:#fff}.st13{clip-path:url(#SVGID_18_)}.st14{clip-path:url(#SVGID_20_)}.st15{clip-path:url(#SVGID_22_)}.st16{clip-path:url(#SVGID_24_)}.st17{clip-path:url(#SVGID_26_)}.st18,.st19,.st20{fill:#1e242b}.st19,.st20{stroke:#fff;stroke-miterlimit:10}.st20{fill:none;stroke-width:2}.st21{clip-path:url(#SVGID_30_)}.st22{clip-path:url(#SVGID_32_)}.st23{clip-path:url(#SVGID_34_)}.st24{clip-path:url(#SVGID_36_)}.st25{clip-path:url(#SVGID_38_)}.st26{clip-path:url(#SVGID_40_)}.st27{clip-path:url(#SVGID_44_)}.st28{clip-path:url(#SVGID_46_)}.st29{clip-path:url(#SVGID_48_);fill:#231f20}.st30{clip-path:url(#SVGID_50_);fill:#fff}.st31{clip-path:url(#SVGID_52_)}.st32{clip-path:url(#SVGID_54_);fill:#fff}.st33{clip-path:url(#SVGID_56_)}.st34{clip-path:url(#SVGID_58_)}.st35{fill:#1e242b;stroke:#fff;stroke-width:2;stroke-miterlimit:10}.st36{clip-path:url(#SVGID_60_)}.st37{display:none}.st38{display:inline;fill:#fff;stroke:#fff;stroke-miterlimit:10}.st39{clip-path:url(#SVGID_64_)}.st40{display:none;fill:#231f20}.st41,.st42{fill-rule:evenodd;clip-rule:evenodd;fill:#231f20}.st42{fill:#fff}.st43{clip-path:url(#SVGID_68_)}.st44{fill:none;stroke:#000;stroke-width:3;stroke-miterlimit:10}</style><path class="st4" d="M112.3 54.7H98.4v-5.6c0-6.9-5.6-12.5-12.5-12.5H66.5c-6.9 0-12.5 5.6-12.5 12.5v5.6H40.1c-3.8 0-7 3.1-7 7v47.2c0 3.8 3.1 7 7 7h72.3c3.8 0 7-3.1 7-7V61.6c-.1-3.8-3.3-6.9-7.1-6.9zm-55.6-5.6c0-5.4 4.4-9.7 9.8-9.7h19.4c5.4 0 9.7 4.4 9.7 9.7v5.6h-2.8v-5.6c0-3.8-3.1-7-7-7H66.5c-3.8 0-7 3.1-7 7v5.6h-2.8v-5.6zm33.4 0v5.6H62.3v-5.6c0-2.3 1.9-4.2 4.2-4.2h19.4c2.3 0 4.2 1.9 4.2 4.2zM66.9 113c.7-4.5 4.6-8 9.2-8 4.7 0 8.6 3.5 9.2 8H66.9zm35.7 0H88.2c-.7-6-5.8-10.7-12-10.7s-11.3 4.7-12 10.7H49.8v-3l7-1.2.3-.8c.3-.9.7-1.8 1.1-2.7l.4-.7-4.1-5.8 6.2-6.2 5.8 4.1.7-.4c.9-.5 1.8-.8 2.7-1.1l.8-.3 1.2-7h8.8l1.2 7 .8.3c.9.3 1.8.7 2.7 1.1l.7.4 5.8-4.1 6.2 6.2-4.1 5.8.4.7c.5.9.8 1.8 1.1 2.7l.3.8 7 1.2-.2 3zm13.8-4.2c0 2.3-1.8 4.2-4.1 4.2h-7v-5.3l-7.7-1.3-.6-1.5 4.5-6.3L92 89l-6.3 4.5-1.5-.6-1.3-7.7H69.5l-1.3 7.7-1.5.6-6.4-4.5-9.5 9.5 4.5 6.3-.6 1.5-7.7 1.3v5.3h-7c-2.3 0-4.2-1.9-4.2-4.2V71.3H47v8.3h11.1v-8.3h36.1v8.3h11.1v-8.3h11.1v37.5zM49.8 76.9v-5.6h5.6v5.6h-5.6zm47.2 0v-5.6h5.6v5.6H97zm19.5-8.3H35.9v-7c0-2.3 1.9-4.2 4.2-4.2h72.3c2.3 0 4.2 1.9 4.2 4.2v7z" id="Screen_3"/></svg>