<svg xmlns="http://www.w3.org/2000/svg" viewBox="0 0 152.4 152.4"><style>.st0{fill:#fff}.st1{fill:#1e242b;stroke:#c2d52e;stroke-width:4;stroke-miterlimit:10}.st2{clip-path:url(#SVGID_2_)}.st3{clip-path:url(#SVGID_4_)}.st4,.st5,.st6{fill:#231f20}.st5{display:none;stroke:#fff;stroke-width:5;stroke-miterlimit:10}.st6{clip-path:url(#SVGID_6_)}.st7{clip-path:url(#SVGID_8_)}.st8{clip-path:url(#SVGID_10_);fill:#231f20}.st9{fill:none}.st10{clip-path:url(#SVGID_12_);fill:#231f20}.st11{fill:#ec1c24}.st12,.st13{clip-path:url(#SVGID_16_);fill:#fff}.st13{clip-path:url(#SVGID_18_)}.st14{clip-path:url(#SVGID_20_)}.st15{clip-path:url(#SVGID_22_)}.st16{clip-path:url(#SVGID_24_)}.st17{clip-path:url(#SVGID_26_)}.st18,.st19,.st20{fill:#1e242b}.st19,.st20{stroke:#fff;stroke-miterlimit:10}.st20{fill:none;stroke-width:2}.st21{clip-path:url(#SVGID_30_)}.st22{clip-path:url(#SVGID_32_)}.st23{clip-path:url(#SVGID_34_)}.st24{clip-path:url(#SVGID_36_)}.st25{clip-path:url(#SVGID_38_)}.st26{clip-path:url(#SVGID_40_)}.st27{clip-path:url(#SVGID_44_)}.st28{clip-path:url(#SVGID_46_)}.st29{clip-path:url(#SVGID_48_);fill:#231f20}.st30{clip-path:url(#SVGID_50_);fill:#fff}.st31{clip-path:url(#SVGID_52_)}.st32{clip-path:url(#SVGID_54_);fill:#fff}.st33{clip-path:url(#SVGID_56_)}.st34{clip-path:url(#SVGID_58_)}.st35{fill:#1e242b;stroke:#fff;stroke-width:2;stroke-miterlimit:10}.st36{clip-path:url(#SVGID_60_)}.st37{display:none}.st38{display:inline;fill:#fff;stroke:#fff;stroke-miterlimit:10}.st39{clip-path:url(#SVGID_64_)}.st40{display:none;fill:#231f20}.st41,.st42{fill-rule:evenodd;clip-rule:evenodd;fill:#231f20}.st42{fill:#fff}.st43{clip-path:url(#SVGID_68_)}.st44{fill:none;stroke:#000;stroke-width:3;stroke-miterlimit:10}</style><g id="Screen_3"><path class="st4" d="M107.7 59.3H42c-3.9 0-7.1 3.2-7.1 7.1v37.2c0 3.9 3.2 7.1 7.1 7.1h65.7c3.9 0 7.1-3.2 7.1-7.1V66.5c0-4-3.2-7.2-7.1-7.2zm4.3 44.3c0 2.4-1.9 4.3-4.3 4.3H42c-2.4 0-4.3-1.9-4.3-4.3V66.5c0-2.4 1.9-4.3 4.3-4.3h65.7c2.4 0 4.3 1.9 4.3 4.3v37.1z"/><path class="st4" d="M57.7 66.5H43.4c-.8 0-1.4.6-1.4 1.4v11.4c0 .8.6 1.4 1.4 1.4h14.3c.8 0 1.4-.6 1.4-1.4V67.9c0-.8-.6-1.4-1.4-1.4zm-1.5 11.4H44.8v-8.6h11.4v8.6z"/><path class="st4" d="M43.4 72.2h4.3v2.9h-4.3zM53.4 72.2h4.3v2.9h-4.3zM99.1 86.5c-4.7 0-8.6 3.8-8.6 8.6s3.8 8.6 8.6 8.6c4.7 0 8.6-3.8 8.6-8.6s-3.9-8.6-8.6-8.6zm0 14.3c-3.2 0-5.7-2.6-5.7-5.7 0-3.2 2.6-5.7 5.7-5.7 3.2 0 5.7 2.6 5.7 5.7s-2.5 5.7-5.7 5.7z"/><path class="st4" d="M90.5 86.5c-4.7 0-8.6 3.8-8.6 8.6s3.8 8.6 8.6 8.6 8.6-3.8 8.6-8.6-3.8-8.6-8.6-8.6zm0 14.3c-3.2 0-5.7-2.6-5.7-5.7 0-3.2 2.6-5.7 5.7-5.7 3.2 0 5.7 2.6 5.7 5.7.1 3.1-2.5 5.7-5.7 5.7zM42 89.3h8.6v2.9H42zM56.2 89.3h8.6v2.9h-8.6zM70.5 89.3h8.6v2.9h-8.6zM42 97.9h37.2v2.9H42zM113.7 52.1L48.8 41.7c-3.9-.6-7.6 2-8.2 5.9l-2.3 14.3 2.8.5 2.3-14.3c.4-2.3 2.6-3.9 4.9-3.6L113.2 55c2.3.4 3.9 2.6 3.6 4.9L112 90.5l2.8.4 4.8-30.6c.6-3.9-2-7.5-5.9-8.2z"/><path class="st4" d="M86.2 67.9h2.9v5.7h-2.9zM92 67.9h2.9v5.7H92zM97.7 67.9h2.9v5.7h-2.9zM103.4 67.9h2.9v5.7h-2.9z"/><path transform="rotate(-80.346 115.544 64.673)" class="st4" d="M114.1 62.5h2.9v4.3h-2.9z"/><path transform="rotate(-80.27 66.96 56.462)" class="st4" d="M65.5 31.1h2.9v50.7h-2.9z"/></g></svg>