<svg xmlns="http://www.w3.org/2000/svg" viewBox="0 0 152.4 152.4"><style>.st0{fill:#fff}.st1{fill:#1e242b;stroke:#c2d52e;stroke-width:4;stroke-miterlimit:10}.st2{clip-path:url(#SVGID_2_)}.st3{clip-path:url(#SVGID_4_)}.st4,.st5,.st6{fill:#231f20}.st5{display:none;stroke:#fff;stroke-width:5;stroke-miterlimit:10}.st6{clip-path:url(#SVGID_6_)}.st7{clip-path:url(#SVGID_8_)}.st8{clip-path:url(#SVGID_10_);fill:#231f20}.st9{fill:none}.st10{clip-path:url(#SVGID_12_);fill:#231f20}.st11{fill:#ec1c24}.st12,.st13{clip-path:url(#SVGID_16_);fill:#fff}.st13{clip-path:url(#SVGID_18_)}.st14{clip-path:url(#SVGID_20_)}.st15{clip-path:url(#SVGID_22_)}.st16{clip-path:url(#SVGID_24_)}.st17{clip-path:url(#SVGID_26_)}.st18,.st19,.st20{fill:#1e242b}.st19,.st20{stroke:#fff;stroke-miterlimit:10}.st20{fill:none;stroke-width:2}.st21{clip-path:url(#SVGID_30_)}.st22{clip-path:url(#SVGID_32_)}.st23{clip-path:url(#SVGID_34_)}.st24{clip-path:url(#SVGID_36_)}.st25{clip-path:url(#SVGID_38_)}.st26{clip-path:url(#SVGID_40_)}.st27{clip-path:url(#SVGID_44_)}.st28{clip-path:url(#SVGID_46_)}.st29{clip-path:url(#SVGID_48_);fill:#231f20}.st30{clip-path:url(#SVGID_50_);fill:#fff}.st31{clip-path:url(#SVGID_52_)}.st32{clip-path:url(#SVGID_54_);fill:#fff}.st33{clip-path:url(#SVGID_56_)}.st34{clip-path:url(#SVGID_58_)}.st35{fill:#1e242b;stroke:#fff;stroke-width:2;stroke-miterlimit:10}.st36{clip-path:url(#SVGID_60_)}.st37{display:none}.st38{display:inline;fill:#fff;stroke:#fff;stroke-miterlimit:10}.st39{clip-path:url(#SVGID_64_)}.st40{display:none;fill:#231f20}.st41,.st42{fill-rule:evenodd;clip-rule:evenodd;fill:#231f20}.st42{fill:#fff}.st43{clip-path:url(#SVGID_68_)}.st44{fill:none;stroke:#000;stroke-width:3;stroke-miterlimit:10}</style><g id="Screen_3"><path d="M35.3 74H31c-1.2 0-2.2 1-2.2 2.2 0 1.2 1 2.2 2.2 2.2h4.3c1.2 0 2.2-1 2.2-2.2-.1-1.2-1-2.2-2.2-2.2zm86.1 0h-4.3c-1.2 0-2.2 1-2.2 2.2 0 1.2 1 2.2 2.2 2.2h4.3c1.2 0 2.2-1 2.2-2.2 0-1.2-1-2.2-2.2-2.2zM106.3 59c-1.2 0-2.2 1-2.2 2.2v30.1c0 1.2 1 2.2 2.2 2.2s2.2-1 2.2-2.2V61.1c0-1.2-1-2.1-2.2-2.1zm-43 0c-1.2 0-2.2 1-2.2 2.2v30.1c0 1.2 1 2.2 2.2 2.2 1.2 0 2.2-1 2.2-2.2V61.1c-.1-1.2-1-2.1-2.2-2.1zm-17.2 8.6c-1.2 0-2.2 1-2.2 2.2v12.9c0 1.2 1 2.2 2.2 2.2s2.2-1 2.2-2.2v-13c-.1-1.2-1.1-2.1-2.2-2.1zm51.6-17.2c-1.2 0-2.2 1-2.2 2.2V100c0 1.2 1 2.2 2.2 2.2s2.2-1 2.2-2.2V52.5c0-1.2-1-2.1-2.2-2.1zm-17.2 0c-1.2 0-2.2 1-2.2 2.2V100c0 1.2 1 2.2 2.2 2.2 1.2 0 2.2-1 2.2-2.2V52.5c0-1.2-1-2.1-2.2-2.1zm-25.8 0c-1.2 0-2.2 1-2.2 2.2V100c0 1.2 1 2.2 2.2 2.2s2.2-1 2.2-2.2V52.5c-.1-1.2-1-2.1-2.2-2.1zm34.4-8.6c-1.2 0-2.2 1-2.2 2.2v64.6c0 1.2 1 2.2 2.2 2.2 1.2 0 2.2-1 2.2-2.2V43.9c0-1.2-1-2.1-2.2-2.1zm-17.2 0c-1.2 0-2.2 1-2.2 2.2v64.6c0 1.2 1 2.2 2.2 2.2 1.2 0 2.2-1 2.2-2.2V43.9c-.1-1.2-1-2.1-2.2-2.1z"/></g></svg>