<svg xmlns="http://www.w3.org/2000/svg" viewBox="0 0 152.4 152.4"><style>.st0{fill:#fff}.st1{fill:#1e242b;stroke:#c2d52e;stroke-width:4;stroke-miterlimit:10}.st2{clip-path:url(#SVGID_2_)}.st3{clip-path:url(#SVGID_4_)}.st4,.st5,.st6{fill:#231f20}.st5{display:none;stroke:#fff;stroke-width:5;stroke-miterlimit:10}.st6{clip-path:url(#SVGID_6_)}.st7{clip-path:url(#SVGID_8_)}.st8{clip-path:url(#SVGID_10_);fill:#231f20}.st9{fill:none}.st10{clip-path:url(#SVGID_12_);fill:#231f20}.st11{fill:#ec1c24}.st12,.st13{clip-path:url(#SVGID_16_);fill:#fff}.st13{clip-path:url(#SVGID_18_)}.st14{clip-path:url(#SVGID_20_)}.st15{clip-path:url(#SVGID_22_)}.st16{clip-path:url(#SVGID_24_)}.st17{clip-path:url(#SVGID_26_)}.st18,.st19,.st20{fill:#1e242b}.st19,.st20{stroke:#fff;stroke-miterlimit:10}.st20{fill:none;stroke-width:2}.st21{clip-path:url(#SVGID_30_)}.st22{clip-path:url(#SVGID_32_)}.st23{clip-path:url(#SVGID_34_)}.st24{clip-path:url(#SVGID_36_)}.st25{clip-path:url(#SVGID_38_)}.st26{clip-path:url(#SVGID_40_)}.st27{clip-path:url(#SVGID_44_)}.st28{clip-path:url(#SVGID_46_)}.st29{clip-path:url(#SVGID_48_);fill:#231f20}.st30{clip-path:url(#SVGID_50_);fill:#fff}.st31{clip-path:url(#SVGID_52_)}.st32{clip-path:url(#SVGID_54_);fill:#fff}.st33{clip-path:url(#SVGID_56_)}.st34{clip-path:url(#SVGID_58_)}.st35{fill:#1e242b;stroke:#fff;stroke-width:2;stroke-miterlimit:10}.st36{clip-path:url(#SVGID_60_)}.st37{display:none}.st38{display:inline;fill:#fff;stroke:#fff;stroke-miterlimit:10}.st39{clip-path:url(#SVGID_64_)}.st40{display:none;fill:#231f20}.st41,.st42{fill-rule:evenodd;clip-rule:evenodd;fill:#231f20}.st42{fill:#fff}.st43{clip-path:url(#SVGID_68_)}.st44{fill:none;stroke:#000;stroke-width:3;stroke-miterlimit:10}</style><g id="Screen_4"><path class="st4" d="M104.3 104.1c.3-.3.5-.7.5-1.1V39.2c0-.8-.6-1.4-1.4-1.4H62.8c-1-3.2-4-5.6-7.6-5.6-3.5 0-6.6 2.3-7.6 5.6h-4.5c-.8 0-1.4.6-1.4 1.4v79.5c0 .8.6 1.4 1.4 1.4h44.6c.5 0 .8-.2 1.1-.5l15.5-15.5zm-15.2 11.3v-10.9H100l-10.9 10.9zM55.2 35c2 0 3.7 1.1 4.6 2.8h-9.2c.9-1.6 2.7-2.8 4.6-2.8zm-10.6 5.7h15.8v9.8c0 1.3-1 2.3-2.3 2.3-1.3 0-2.3-1-2.3-2.3v-5.6c0-.8-.6-1.4-1.4-1.4s-1.4.6-1.4 1.4v5.6c0 2.8 2.3 5.1 5.1 5.1s5.1-2.3 5.1-5.1v-9.8H102v61H87.7c-.8 0-1.4.6-1.4 1.4v14.3H44.6V40.7z"/><path class="st4" d="M92.2 96.9c.8 0 1.4-.6 1.4-1.4s-.6-1.4-1.4-1.4H54.4c-.8 0-1.4.6-1.4 1.4s.6 1.4 1.4 1.4h37.8zM54.4 88.5h37.8c.8 0 1.4-.6 1.4-1.4s-.6-1.4-1.4-1.4H54.4c-.8 0-1.4.6-1.4 1.4s.6 1.4 1.4 1.4zM54.4 80h37.8c.8 0 1.4-.6 1.4-1.4 0-.8-.6-1.4-1.4-1.4H54.4c-.8 0-1.4.6-1.4 1.4 0 .8.6 1.4 1.4 1.4zM54.4 71.6h37.8c.8 0 1.4-.6 1.4-1.4s-.6-1.4-1.4-1.4H54.4c-.8 0-1.4.6-1.4 1.4s.6 1.4 1.4 1.4zM54.4 63.2h37.8c.8 0 1.4-.6 1.4-1.4 0-.8-.6-1.4-1.4-1.4H54.4c-.8 0-1.4.6-1.4 1.4 0 .8.6 1.4 1.4 1.4zM110.9 37.8H109c-.8 0-1.4.6-1.4 1.4s.6 1.4 1.4 1.4h.5v76.7h-15c-.8 0-1.4.6-1.4 1.4s.6 1.4 1.4 1.4h16.4c.8 0 1.4-.6 1.4-1.4V39.3c0-.8-.6-1.5-1.4-1.5zM118.4 37.8h-1.9c-.8 0-1.4.6-1.4 1.4s.6 1.4 1.4 1.4h.5v76.7h-.5c-.8 0-1.4.6-1.4 1.4s.6 1.4 1.4 1.4h1.9c.8 0 1.4-.6 1.4-1.4V39.3c0-.8-.6-1.5-1.4-1.5z"/></g></svg>