<svg xmlns="http://www.w3.org/2000/svg" viewBox="0 0 152.4 152.4"><style>.st0{fill:#fff}.st1{fill:#1e242b;stroke:#c2d52e;stroke-width:4;stroke-miterlimit:10}.st2{clip-path:url(#SVGID_2_)}.st3{clip-path:url(#SVGID_4_)}.st4,.st5,.st6{fill:#231f20}.st5{display:none;stroke:#fff;stroke-width:5;stroke-miterlimit:10}.st6{clip-path:url(#SVGID_6_)}.st7{clip-path:url(#SVGID_8_)}.st8{clip-path:url(#SVGID_10_);fill:#231f20}.st9{fill:none}.st10{clip-path:url(#SVGID_12_);fill:#231f20}.st11{fill:#ec1c24}.st12,.st13{clip-path:url(#SVGID_16_);fill:#fff}.st13{clip-path:url(#SVGID_18_)}.st14{clip-path:url(#SVGID_20_)}.st15{clip-path:url(#SVGID_22_)}.st16{clip-path:url(#SVGID_24_)}.st17{clip-path:url(#SVGID_26_)}.st18,.st19,.st20{fill:#1e242b}.st19,.st20{stroke:#fff;stroke-miterlimit:10}.st20{fill:none;stroke-width:2}.st21{clip-path:url(#SVGID_30_)}.st22{clip-path:url(#SVGID_32_)}.st23{clip-path:url(#SVGID_34_)}.st24{clip-path:url(#SVGID_36_)}.st25{clip-path:url(#SVGID_38_)}.st26{clip-path:url(#SVGID_40_)}.st27{clip-path:url(#SVGID_44_)}.st28{clip-path:url(#SVGID_46_)}.st29{clip-path:url(#SVGID_48_);fill:#231f20}.st30{clip-path:url(#SVGID_50_);fill:#fff}.st31{clip-path:url(#SVGID_52_)}.st32{clip-path:url(#SVGID_54_);fill:#fff}.st33{clip-path:url(#SVGID_56_)}.st34{clip-path:url(#SVGID_58_)}.st35{fill:#1e242b;stroke:#fff;stroke-width:2;stroke-miterlimit:10}.st36{clip-path:url(#SVGID_60_)}.st37{display:none}.st38{display:inline;fill:#fff;stroke:#fff;stroke-miterlimit:10}.st39{clip-path:url(#SVGID_64_)}.st40{display:none;fill:#231f20}.st41,.st42{fill-rule:evenodd;clip-rule:evenodd;fill:#231f20}.st42{fill:#fff}.st43{clip-path:url(#SVGID_68_)}.st44{fill:none;stroke:#000;stroke-width:3;stroke-miterlimit:10}</style><g id="Screen_3"><path d="M109.7 47.5H97.8v-3.3c0-.9-.6-1.5-1.5-1.5h-7.2c.1-1 .3-2.2.1-3.4-.4-6.1-5.2-11.3-11.3-12.1-8.1-1-14.9 5.2-14.9 13 0 .9.1 1.6.3 2.4h-7.2c-.9 0-1.5.6-1.5 1.5v3.3H42.8c-1.5 0-2.7 1.2-2.7 2.7v72.6c0 1.5 1.2 2.7 2.7 2.7h66.8c1.5 0 2.7-1.2 2.7-2.7V50.2c.1-1.5-1.1-2.7-2.6-2.7zm-51.8-1.8h7.6c.4 0 .9-.1 1.2-.6.3-.3.4-.7.1-1.3-.4-1-.6-2.2-.6-3.4 0-6 5.2-10.9 11.6-10.1 4.6.6 8.4 4.6 8.8 9.4.1 1.5-.1 2.8-.6 4.2-.1.4-.1.9.1 1.3.3.3.6.6 1.2.6H95v7.5H57.9v-7.6zm51.5 76.8H43.2v-72h11.6v4.2c0 .9.6 1.5 1.5 1.5h40c.9 0 1.5-.6 1.5-1.5v-4.2h11.6v72z"/><path d="M76.3 35.4c-3 0-5.4 2.4-5.4 5.4s2.4 5.4 5.4 5.4 5.4-2.4 5.4-5.4-2.4-5.4-5.4-5.4zm0 7.8c-1.3 0-2.4-1-2.4-2.4s1-2.4 2.4-2.4 2.4 1 2.4 2.4c0 1.3-1 2.4-2.4 2.4z"/><g><path d="M73.8 70.5h25.5c.8 0 1.5-.7 1.5-1.5s-.7-1.5-1.5-1.5H73.8c-.8 0-1.5.7-1.5 1.5s.7 1.5 1.5 1.5zM73.8 76.8h25.8c.8 0 1.5-.7 1.5-1.5s-.7-1.5-1.5-1.5H73.8c-.8 0-1.5.7-1.5 1.5s.7 1.5 1.5 1.5zM58.5 76.4c.3.3.7.4 1 .4.4 0 .8-.1 1-.4l7.9-7.9c.6-.6.6-1.5 0-2.1-.6-.6-1.5-.6-2.1 0l-6.9 6.9-3.7-3.7c-.6-.6-1.5-.6-2.1 0-.6.6-.6 1.5 0 2.1l4.9 4.7zM73.8 88.3h19.5c.8 0 1.5-.7 1.5-1.5s-.7-1.5-1.5-1.5H73.8c-.8 0-1.5.7-1.5 1.5s.7 1.5 1.5 1.5zM73.8 94.6h25.8c.8 0 1.5-.7 1.5-1.5s-.7-1.5-1.5-1.5H73.8c-.8 0-1.5.7-1.5 1.5s.7 1.5 1.5 1.5zM58.5 94.2c.3.3.7.4 1 .4.4 0 .8-.1 1-.4l7.9-7.9c.6-.6.6-1.5 0-2.1-.6-.6-1.5-.6-2.1 0l-6.9 6.9-3.7-3.7c-.6-.6-1.5-.6-2.1 0-.6.6-.6 1.5 0 2.1l4.9 4.7zM73.8 106.1h10.5c.8 0 1.5-.7 1.5-1.5s-.7-1.5-1.5-1.5H73.8c-.8 0-1.5.7-1.5 1.5s.7 1.5 1.5 1.5zM73.8 112.5h25.8c.8 0 1.5-.7 1.5-1.5s-.7-1.5-1.5-1.5H73.8c-.8 0-1.5.7-1.5 1.5s.7 1.5 1.5 1.5zM58.5 112c.3.3.7.4 1 .4.4 0 .8-.1 1-.4l7.9-7.9c.6-.6.6-1.5 0-2.1-.6-.6-1.5-.6-2.1 0l-6.9 6.9-3.7-3.7c-.6-.6-1.5-.6-2.1 0-.6.6-.6 1.5 0 2.1l4.9 4.7z"/></g></g></svg>