<svg data-name="Screen 3" xmlns="http://www.w3.org/2000/svg" viewBox="0 0 152.4 152.4"><title>Spruce icons_</title><path d="M107.4 61.37L122.23 48a2 2 0 0 0 .66-1.5 2 2 0 0 0-.66-1.48L107.4 31.71H75.64v-3.3a1.65 1.65 0 1 0-3.29 0v3.3h-29a5.6 5.6 0 0 0-5.6 5.59v18.47a5.61 5.61 0 0 0 5.6 5.6h29v3.29H45L30.16 78a2 2 0 0 0 0 3L45 94.33h27.35V124a1.65 1.65 0 1 0 3.29 0V94.33h34a5.6 5.6 0 0 0 5.59-5.6V70.26a5.6 5.6 0 0 0-5.59-5.6h-34v-3.29zm4.5 8.89v18.47a2.3 2.3 0 0 1-2.3 2.3H46.26L33.44 79.49 46.26 68h63.34a2.3 2.3 0 0 1 2.3 2.26zM41 55.77V37.3a2.3 2.3 0 0 1 2.3-2.3h62.8L119 46.54l-12.86 11.53h-62.8a2.3 2.3 0 0 1-2.34-2.3z"/></svg>