<svg xmlns="http://www.w3.org/2000/svg" viewBox="0 0 152.4 152.4"><style>.st0{fill:#fff}.st1{fill:#1e242b;stroke:#c2d52e;stroke-width:4;stroke-miterlimit:10}.st2{clip-path:url(#SVGID_2_)}.st3{clip-path:url(#SVGID_4_)}.st4,.st5,.st6{fill:#231f20}.st5{display:none;stroke:#fff;stroke-width:5;stroke-miterlimit:10}.st6{clip-path:url(#SVGID_6_)}.st7{clip-path:url(#SVGID_8_)}.st8{clip-path:url(#SVGID_10_);fill:#231f20}.st9{fill:none}.st10{clip-path:url(#SVGID_12_);fill:#231f20}.st11{fill:#ec1c24}.st12,.st13{clip-path:url(#SVGID_16_);fill:#fff}.st13{clip-path:url(#SVGID_18_)}.st14{clip-path:url(#SVGID_20_)}.st15{clip-path:url(#SVGID_22_)}.st16{clip-path:url(#SVGID_24_)}.st17{clip-path:url(#SVGID_26_)}.st18,.st19,.st20{fill:#1e242b}.st19,.st20{stroke:#fff;stroke-miterlimit:10}.st20{fill:none;stroke-width:2}.st21{clip-path:url(#SVGID_30_)}.st22{clip-path:url(#SVGID_32_)}.st23{clip-path:url(#SVGID_34_)}.st24{clip-path:url(#SVGID_36_)}.st25{clip-path:url(#SVGID_38_)}.st26{clip-path:url(#SVGID_40_)}.st27{clip-path:url(#SVGID_44_)}.st28{clip-path:url(#SVGID_46_)}.st29{clip-path:url(#SVGID_48_);fill:#231f20}.st30{clip-path:url(#SVGID_50_);fill:#fff}.st31{clip-path:url(#SVGID_52_)}.st32{clip-path:url(#SVGID_54_);fill:#fff}.st33{clip-path:url(#SVGID_56_)}.st34{clip-path:url(#SVGID_58_)}.st35{fill:#1e242b;stroke:#fff;stroke-width:2;stroke-miterlimit:10}.st36{clip-path:url(#SVGID_60_)}.st37{display:none}.st38{display:inline;fill:#fff;stroke:#fff;stroke-miterlimit:10}.st39{clip-path:url(#SVGID_64_)}.st40{display:none;fill:#231f20}.st41,.st42{fill-rule:evenodd;clip-rule:evenodd;fill:#231f20}.st42{fill:#fff}.st43{clip-path:url(#SVGID_68_)}.st44{fill:none;stroke:#000;stroke-width:3;stroke-miterlimit:10}</style><g id="Screen_3"><path class="st4" d="M74.4 94.4h1.8v7.3h-1.8zM74.4 50.7h1.8V58h-1.8z"/><path class="st4" d="M91 59.8c-.4 0-.8-.3-.9-.7l-3.7-17.9-.9-6c-.1-.4-.5-.8-.9-.8H65.9c-.5 0-.8.3-.9.8-.4 2.4-1.6 9.8-1.6 9.9l-2.5 14c-.1.4-.5.8-.9.8H33.4c-.5 0-.9.4-.9.9v1.8c0 .5.4.9.9.9h9.1c.5 0 .9.4.9.9v7.3c0 .5.4.9.9.9h1.8c.5 0 .9-.4.9-.9v-7.3c0-.5.4-.9.9-.9h10.9c.6 0 1 .5.9 1.1l-8.9 49.2v.1l-.6 3.2c-.1.6.3 1.1.9 1.1H101.2c.6 0 1-.5.9-1.1l-.9-4.9h-.1l-9.8-47.5c-.1-.6.3-1.1.9-1.1h12.2c.5 0 .9.4.9.9v7.3c0 .5.4.9.9.9h1.8c.5 0 .9-.4.9-.9v-7.3c0-.5.4-.9.9-.9h9.1c.5 0 .9-.4.9-.9v-1.8c0-.5-.4-.9-.9-.9H91zM69 38h4.4c.5 0 .9.4.9.9v4.5h1.8v-4.5c0-.5.4-.9.9-.9h4.2c.4 0 .8.3.9.7l4.1 20c.1.6-.3 1.1-.9 1.1H65.4c-.6 0-1-.5-.9-1.1l3.6-20c.1-.4.5-.7.9-.7zm27.8 76.4H77.1c-.5 0-.9-.4-.9-.9V109h-1.8v4.5c0 .5-.4.9-.9.9H55.6c-.6 0-1-.5-.9-1.1l8.9-49.1c.1-.4.5-.8.9-.8h22.2c.4 0 .8.3.9.7l10.2 49.1c0 .7-.5 1.2-1 1.2z"/><path class="st4" d="M74.4 79.8h1.8v7.3h-1.8zM74.4 65.3h1.8v7.3h-1.8z"/></g></svg>