<svg xmlns="http://www.w3.org/2000/svg" viewBox="0 0 152.4 152.4"><style>.st0{fill:#fff}.st1{fill:#1e242b;stroke:#c2d52e;stroke-width:4;stroke-miterlimit:10}.st2{clip-path:url(#SVGID_2_)}.st3{clip-path:url(#SVGID_4_)}.st4,.st5,.st6{fill:#231f20}.st5{display:none;stroke:#fff;stroke-width:5;stroke-miterlimit:10}.st6{clip-path:url(#SVGID_6_)}.st7{clip-path:url(#SVGID_8_)}.st8{clip-path:url(#SVGID_10_);fill:#231f20}.st9{fill:none}.st10{clip-path:url(#SVGID_12_);fill:#231f20}.st11{fill:#ec1c24}.st12,.st13{clip-path:url(#SVGID_16_);fill:#fff}.st13{clip-path:url(#SVGID_18_)}.st14{clip-path:url(#SVGID_20_)}.st15{clip-path:url(#SVGID_22_)}.st16{clip-path:url(#SVGID_24_)}.st17{clip-path:url(#SVGID_26_)}.st18,.st19,.st20{fill:#1e242b}.st19,.st20{stroke:#fff;stroke-miterlimit:10}.st20{fill:none;stroke-width:2}.st21{clip-path:url(#SVGID_30_)}.st22{clip-path:url(#SVGID_32_)}.st23{clip-path:url(#SVGID_34_)}.st24{clip-path:url(#SVGID_36_)}.st25{clip-path:url(#SVGID_38_)}.st26{clip-path:url(#SVGID_40_)}.st27{clip-path:url(#SVGID_44_)}.st28{clip-path:url(#SVGID_46_)}.st29{clip-path:url(#SVGID_48_);fill:#231f20}.st30{clip-path:url(#SVGID_50_);fill:#fff}.st31{clip-path:url(#SVGID_52_)}.st32{clip-path:url(#SVGID_54_);fill:#fff}.st33{clip-path:url(#SVGID_56_)}.st34{clip-path:url(#SVGID_58_)}.st35{fill:#1e242b;stroke:#fff;stroke-width:2;stroke-miterlimit:10}.st36{clip-path:url(#SVGID_60_)}.st37{display:none}.st38{display:inline;fill:#fff;stroke:#fff;stroke-miterlimit:10}.st39{clip-path:url(#SVGID_64_)}.st40{display:none;fill:#231f20}.st41,.st42{fill-rule:evenodd;clip-rule:evenodd;fill:#231f20}.st42{fill:#fff}.st43{clip-path:url(#SVGID_68_)}.st44{fill:none;stroke:#000;stroke-width:3;stroke-miterlimit:10}</style><g id="Screen_9"><path class="st44" d="M78.2 95.2H30.8V50.8h88.5z"/><path d="M51.1 73.3h-7v4.4h8.2v3.2H40V63.1h12.4v3.2h-8.2v3.8h7v3.2zM59.6 74.1v6.8h-4.1V63.1h6.8c2.1 0 3.7.5 4.9 1.4 1.2 1 1.8 2.3 1.8 3.9 0 .9-.2 1.7-.7 2.4s-1.2 1.2-2.1 1.6c1.1.3 1.9.8 2.4 1.5s.7 1.6.7 2.7v1.1c0 .5.1 1 .2 1.6.1.6.4 1 .7 1.3v.2h-4.3c-.3-.3-.5-.7-.6-1.3-.1-.6-.2-1.2-.2-1.8v-1.1c0-.8-.2-1.5-.7-1.9-.4-.4-1.1-.7-2-.7h-2.8zm0-3.2h2.7c.8 0 1.5-.2 1.9-.6.4-.4.7-.9.7-1.6 0-.7-.2-1.3-.7-1.8s-1.1-.7-1.9-.7h-2.7v4.7zM77.4 74.8v6.1h-4.1V63.1h7.2c2.1 0 3.8.5 5 1.6 1.2 1.1 1.9 2.5 1.9 4.2 0 1.8-.6 3.2-1.9 4.2-1.2 1.1-2.9 1.6-5 1.6h-3.1zm0-3.2h3.1c.9 0 1.6-.2 2-.7s.7-1.1.7-1.9c0-.8-.2-1.4-.7-1.9s-1.2-.8-2-.8h-3.1v5.3z"/></g></svg>