<svg xmlns="http://www.w3.org/2000/svg" viewBox="0 0 152.4 152.4"><style>.st0{fill:#fff}.st1{fill:#1e242b;stroke:#c2d52e;stroke-width:4;stroke-miterlimit:10}.st2{clip-path:url(#SVGID_2_)}.st3{clip-path:url(#SVGID_4_)}.st4,.st5,.st6{fill:#231f20}.st5{display:none;stroke:#fff;stroke-width:5;stroke-miterlimit:10}.st6{clip-path:url(#SVGID_6_)}.st7{clip-path:url(#SVGID_8_)}.st8{clip-path:url(#SVGID_10_);fill:#231f20}.st9{fill:none}.st10{clip-path:url(#SVGID_12_);fill:#231f20}.st11{fill:#ec1c24}.st12,.st13{clip-path:url(#SVGID_16_);fill:#fff}.st13{clip-path:url(#SVGID_18_)}.st14{clip-path:url(#SVGID_20_)}.st15{clip-path:url(#SVGID_22_)}.st16{clip-path:url(#SVGID_24_)}.st17{clip-path:url(#SVGID_26_)}.st18,.st19,.st20{fill:#1e242b}.st19,.st20{stroke:#fff;stroke-miterlimit:10}.st20{fill:none;stroke-width:2}.st21{clip-path:url(#SVGID_30_)}.st22{clip-path:url(#SVGID_32_)}.st23{clip-path:url(#SVGID_34_)}.st24{clip-path:url(#SVGID_36_)}.st25{clip-path:url(#SVGID_38_)}.st26{clip-path:url(#SVGID_40_)}.st27{clip-path:url(#SVGID_44_)}.st28{clip-path:url(#SVGID_46_)}.st29{clip-path:url(#SVGID_48_);fill:#231f20}.st30{clip-path:url(#SVGID_50_);fill:#fff}.st31{clip-path:url(#SVGID_52_)}.st32{clip-path:url(#SVGID_54_);fill:#fff}.st33{clip-path:url(#SVGID_56_)}.st34{clip-path:url(#SVGID_58_)}.st35{fill:#1e242b;stroke:#fff;stroke-width:2;stroke-miterlimit:10}.st36{clip-path:url(#SVGID_60_)}.st37{display:none}.st38{display:inline;fill:#fff;stroke:#fff;stroke-miterlimit:10}.st39{clip-path:url(#SVGID_64_)}.st40{display:none;fill:#231f20}.st41,.st42{fill-rule:evenodd;clip-rule:evenodd;fill:#231f20}.st42{fill:#fff}.st43{clip-path:url(#SVGID_68_)}.st44{fill:none;stroke:#000;stroke-width:3;stroke-miterlimit:10}</style><g id="Screen_9"><path d="M80 99.9H30.4V52.5h93.4L80 99.9zm-46.6-3h45.3L117 55.5H33.4v41.4z"/><path d="M51.2 78.5c-.1 1.9-.6 3.3-1.6 4.3s-2.5 1.5-4.4 1.5c-1.9 0-3.5-.6-4.7-1.8-1.2-1.2-1.8-2.7-1.8-4.6v-3.3c0-1.9.6-3.4 1.7-4.6 1.2-1.2 2.7-1.8 4.5-1.8 2 0 3.5.5 4.5 1.5s1.6 2.4 1.8 4.2v.1h-3.5c-.1-1-.3-1.8-.7-2.3-.4-.5-1.1-.7-2.1-.7-.8 0-1.5.3-1.9 1-.5.7-.7 1.5-.7 2.6v3.3c0 1.1.3 2 .8 2.6s1.2 1 2.1 1c.9 0 1.5-.2 1.9-.7.4-.5.6-1.2.6-2.2h3.5zM56.8 78v6h-3.6V68.4h6c1.8 0 3.2.4 4.3 1.3 1.1.8 1.6 2 1.6 3.4 0 .8-.2 1.5-.6 2.1-.4.6-1.1 1.1-1.9 1.4 1 .3 1.6.7 2.1 1.4s.6 1.4.6 2.4v1c0 .4.1.9.2 1.4.1.5.3.9.6 1.1v.1h-3.7c-.3-.2-.5-.6-.6-1.2-.1-.6-.1-1.1-.1-1.6v-.9c0-.7-.2-1.3-.6-1.7-.4-.4-1-.6-1.7-.6h-2.6zm0-2.8h2.4c.7 0 1.3-.2 1.7-.5s.6-.8.6-1.4c0-.6-.2-1.2-.6-1.5-.4-.4-1-.6-1.7-.6h-2.4v4zM72.4 68.4l3.5 10.9h.1l3.5-10.9h4.8V84h-3.6v-3.9L81 73h-.1l-3.8 11h-2.4L71 73.1h-.1l.3 7V84h-3.6V68.4h4.8z"/><g><path d="M39.2 111.5c0 1-.3 1.8-.9 2.3s-1.4.8-2.4.8c-1.1 0-1.9-.3-2.6-1s-1-1.5-1-2.5v-1.8c0-1 .3-1.9 1-2.5s1.5-1 2.5-1c1.1 0 1.9.3 2.5.8s.9 1.3 1 2.3h-1.9c0-.6-.2-1-.4-1.2s-.6-.4-1.1-.4c-.4 0-.8.2-1.1.5s-.4.8-.4 1.4v1.8c0 .6.1 1.1.4 1.4s.7.5 1.2.5.8-.1 1-.4.3-.7.3-1.2h1.9zM44.6 113.8c-.2.3-.5.5-.7.6s-.6.2-1 .2c-.7 0-1.2-.2-1.5-.6s-.6-1.1-.6-2v-3.9h2v3.9c0 .4.1.6.2.8s.3.3.6.3c.2 0 .4 0 .6-.1s.3-.1.4-.3v-4.6h2v6.3h-1.7l-.3-.6zM51.4 112.8c0-.2-.1-.3-.3-.4s-.5-.2-1-.3c-.7-.1-1.3-.4-1.7-.7s-.6-.7-.6-1.2c0-.6.2-1 .7-1.4s1.1-.6 1.9-.6c.8 0 1.5.2 2 .6s.7.9.7 1.5h-1.9c0-.3-.1-.4-.2-.6s-.3-.2-.6-.2c-.2 0-.4.1-.5.2s-.2.3-.2.4c0 .2.1.3.2.4s.5.2 1 .3c.8.2 1.3.4 1.7.7s.6.7.6 1.3c0 .6-.3 1-.8 1.4s-1.2.6-2 .6c-.9 0-1.5-.2-2-.7s-.7-.9-.7-1.5h1.8c0 .3.1.5.3.7s.4.2.7.2c.3 0 .5-.1.6-.2s.3-.4.3-.5zM57.2 106.6v1.6h1.1v1.4h-1.1v2.9c0 .2 0 .4.1.5s.2.1.4.1h.6l.1 1.5c-.2.1-.4.1-.6.1h-.6c-.7 0-1.1-.2-1.5-.5s-.5-.9-.5-1.7v-2.9h-.9v-1.4h.9v-1.6h2zM59.4 111.3c0-1 .3-1.7.8-2.3s1.3-.9 2.3-.9c1 0 1.7.3 2.3.9s.8 1.4.8 2.3v.1c0 1-.3 1.7-.8 2.3s-1.3.9-2.3.9c-1 0-1.7-.3-2.3-.9s-.8-1.4-.8-2.3v-.1zm2 .1c0 .5.1.9.2 1.3s.4.5.8.5.7-.2.8-.5.3-.7.3-1.2v-.1c0-.5-.1-.9-.3-1.2s-.4-.5-.8-.5-.7.2-.8.5-.2.7-.2 1.2zM68.9 108.2l.1.8c.2-.3.5-.5.8-.7s.6-.2 1-.2.7.1 1 .3.5.4.6.8c.2-.3.4-.6.8-.8s.7-.3 1.1-.3c.6 0 1.1.2 1.5.6s.5 1.1.5 2v3.9h-2v-3.9c0-.4-.1-.7-.2-.8s-.3-.2-.6-.2c-.2 0-.4 0-.5.1s-.3.2-.4.3v4.5h-2v-3.9c0-.4-.1-.7-.2-.8s-.3-.2-.6-.2c-.2 0-.3 0-.5.1s-.3.2-.4.3v4.5h-2v-6.3h2zM80.8 114.7c-.9 0-1.7-.3-2.2-.9s-.8-1.3-.8-2.2v-.2c0-1 .3-1.8.8-2.4s1.2-.9 2.2-.9c.9 0 1.5.3 2 .8s.7 1.2.7 2.1v1h-3.6c0 .3.2.6.4.8s.5.3.9.3.7 0 .9-.1.5-.2.9-.3l.5 1.2c-.3.2-.6.4-1.1.5s-1.1.3-1.6.3zm-.1-5.1c-.3 0-.5.1-.6.3s-.2.5-.3.8h1.7v-.2c0-.3-.1-.6-.2-.7s-.3-.2-.6-.2zM88.5 109.9h-.7c-.2 0-.4 0-.6.1s-.3.2-.3.3v4.2h-2v-6.3h1.9l.1.9c.1-.3.3-.6.5-.8s.5-.3.8-.3h.6l-.3 1.9zM93.6 114.5V106h3.1c1 0 1.8.3 2.5 1s1 1.5 1 2.5v1.5c0 1-.3 1.9-1 2.5s-1.5 1-2.5 1h-3.1zm2-7v5.5h1c.5 0 .9-.2 1.2-.5s.4-.8.4-1.4v-1.5c0-.6-.1-1.1-.4-1.4s-.7-.5-1.2-.5h-1zM105.6 114.5c-.1-.1-.1-.2-.1-.3s-.1-.3-.1-.4c-.2.3-.4.5-.7.6s-.6.2-1 .2c-.6 0-1.1-.2-1.5-.5s-.6-.8-.6-1.4c0-.6.2-1.1.7-1.5s1.2-.5 2.1-.5h.7v-.5c0-.3-.1-.5-.2-.6s-.3-.2-.6-.2c-.2 0-.4.1-.5.2s-.2.3-.2.5h-1.9c0-.6.2-1.1.7-1.5s1.2-.6 2-.6 1.4.2 1.9.6.7.9.7 1.7v2.4c0 .3 0 .7.1.9s.1.6.3.9h-1.8zm-1.3-1.3c.2 0 .4 0 .5-.1s.3-.2.4-.3v-1h-.7c-.3 0-.5.1-.7.2s-.2.3-.2.6c0 .2.1.3.2.4s.3.2.5.2zM111.2 106.6v1.6h1.1v1.4h-1.1v2.9c0 .2 0 .4.1.5s.2.1.4.1h.6l.1 1.5c-.2.1-.4.1-.6.1h-.6c-.7 0-1.1-.2-1.5-.5s-.5-.9-.5-1.7v-2.9h-.9v-1.4h.9v-1.6h2zM117.5 114.5c-.1-.1-.1-.2-.1-.3s-.1-.3-.1-.4c-.2.3-.4.5-.7.6s-.6.2-1 .2c-.6 0-1.1-.2-1.5-.5s-.6-.8-.6-1.4c0-.6.2-1.1.7-1.5s1.2-.5 2.1-.5h.7v-.5c0-.3-.1-.5-.2-.6s-.3-.2-.6-.2c-.2 0-.4.1-.5.2s-.2.3-.2.5h-1.9c0-.6.2-1.1.7-1.5s1.2-.6 2-.6 1.4.2 1.9.6.7.9.7 1.7v2.4c0 .3 0 .7.1.9s.1.6.3.9h-1.8zm-1.3-1.3c.2 0 .4 0 .5-.1s.3-.2.4-.3v-1h-.7c-.3 0-.5.1-.7.2s-.2.3-.2.6c0 .2.1.3.2.4s.3.2.5.2z"/></g></g></svg>