<svg xmlns="http://www.w3.org/2000/svg" viewBox="0 0 152.4 152.4"><style>.st0{fill:#fff}.st1{fill:#1e242b;stroke:#c2d52e;stroke-width:4;stroke-miterlimit:10}.st2{clip-path:url(#SVGID_2_)}.st3{clip-path:url(#SVGID_4_)}.st4,.st5,.st6{fill:#231f20}.st5{display:none;stroke:#fff;stroke-width:5;stroke-miterlimit:10}.st6{clip-path:url(#SVGID_6_)}.st7{clip-path:url(#SVGID_8_)}.st8{clip-path:url(#SVGID_10_);fill:#231f20}.st9{fill:none}.st10{clip-path:url(#SVGID_12_);fill:#231f20}.st11{fill:#ec1c24}.st12,.st13{clip-path:url(#SVGID_16_);fill:#fff}.st13{clip-path:url(#SVGID_18_)}.st14{clip-path:url(#SVGID_20_)}.st15{clip-path:url(#SVGID_22_)}.st16{clip-path:url(#SVGID_24_)}.st17{clip-path:url(#SVGID_26_)}.st18,.st19,.st20{fill:#1e242b}.st19,.st20{stroke:#fff;stroke-miterlimit:10}.st20{fill:none;stroke-width:2}.st21{clip-path:url(#SVGID_30_)}.st22{clip-path:url(#SVGID_32_)}.st23{clip-path:url(#SVGID_34_)}.st24{clip-path:url(#SVGID_36_)}.st25{clip-path:url(#SVGID_38_)}.st26{clip-path:url(#SVGID_40_)}.st27{clip-path:url(#SVGID_44_)}.st28{clip-path:url(#SVGID_46_)}.st29{clip-path:url(#SVGID_48_);fill:#231f20}.st30{clip-path:url(#SVGID_50_);fill:#fff}.st31{clip-path:url(#SVGID_52_)}.st32{clip-path:url(#SVGID_54_);fill:#fff}.st33{clip-path:url(#SVGID_56_)}.st34{clip-path:url(#SVGID_58_)}.st35{fill:#1e242b;stroke:#fff;stroke-width:2;stroke-miterlimit:10}.st36{clip-path:url(#SVGID_60_)}.st37{display:none}.st38{display:inline;fill:#fff;stroke:#fff;stroke-miterlimit:10}.st39{clip-path:url(#SVGID_64_)}.st40{display:none;fill:#231f20}.st41,.st42{fill-rule:evenodd;clip-rule:evenodd;fill:#231f20}.st42{fill:#fff}.st43{clip-path:url(#SVGID_68_)}.st44{fill:none;stroke:#000;stroke-width:3;stroke-miterlimit:10}</style><g id="Screen_9"><path d="M39.8 106v5.6c0 1-.3 1.7-1 2.3s-1.5.8-2.5.8c-1.1 0-1.9-.3-2.6-.8s-1-1.3-1-2.3V106h2v5.6c0 .5.1.9.4 1.2s.7.4 1.1.4c.5 0 .9-.1 1.1-.4s.4-.6.4-1.2V106h2.1zM43.9 106.6v1.6H45v1.4h-1.1v2.9c0 .2 0 .4.1.5s.2.1.4.1h.6l.1 1.5c-.2.1-.4.1-.6.1h-.6c-.7 0-1.1-.2-1.5-.5s-.5-.9-.5-1.7v-2.9H41v-1.4h1v-1.6h1.9zM48.6 106.7h-2v-1.3h2v1.3zm0 7.8h-2v-6.3h2v6.3zM52.5 114.5h-2v-9.1h2v9.1zM56.4 106.7h-2v-1.3h2v1.3zm0 7.8h-2v-6.3h2v6.3zM60.5 106.6v1.6h1.1v1.4h-1.1v2.9c0 .2 0 .4.1.5s.2.1.4.1h.6l.1 1.5c-.2.1-.4.1-.6.1h-.6c-.7 0-1.1-.2-1.5-.5s-.5-.9-.5-1.7v-2.9h-.9v-1.4h.9v-1.6h2zM65.6 111.7l1.1-3.5h2.1l-2.5 7.3c-.2.5-.4.9-.8 1.2s-.8.5-1.5.5h-.4c-.1 0-.3-.1-.5-.1l.2-1.4h.2c.3 0 .5 0 .7-.1s.3-.2.3-.4l.2-.4-2.2-6.4h2.1l1 3.3zM73.6 114.5V106h2.9c1.1 0 1.9.2 2.5.6s.9 1 .9 1.8c0 .4-.1.8-.3 1.1s-.5.6-.9.7c.5.1.9.3 1.1.7s.4.7.4 1.2c0 .8-.3 1.5-.8 1.9s-1.4.6-2.4.6h-3.4zm2-4.9h1c.4 0 .8-.1 1-.3s.3-.4.3-.7c0-.4-.1-.6-.3-.8s-.6-.2-1-.2h-.9v2zm0 1.3v2.1H77c.4 0 .7-.1.9-.2s.3-.4.3-.8-.1-.7-.3-.8-.5-.3-.9-.3h-1.4zM83.9 106.7h-2v-1.3h2v1.3zm0 7.8h-2v-6.3h2v6.3zM87.8 114.5h-2v-9.1h2v9.1zM91.7 114.5h-2v-9.1h2v9.1zM95.5 106.7h-2v-1.3h2v1.3zm0 7.8h-2v-6.3h2v6.3zM99.2 108.2l.1.9c.2-.3.5-.6.8-.7s.6-.3 1-.3c.6 0 1.1.2 1.5.6s.5 1 .5 1.9v3.9h-2v-3.9c0-.4-.1-.6-.2-.8s-.4-.2-.7-.2c-.2 0-.3 0-.5.1s-.3.2-.4.3v4.6h-2v-6.3h1.9zM104.4 111.4c0-1 .2-1.8.6-2.4s1-.9 1.8-.9c.3 0 .6.1.9.2s.5.4.7.7l.1-.8h1.7v6.1c0 .8-.3 1.5-.9 2s-1.4.8-2.3.8c-.3 0-.7 0-1-.1s-.7-.2-1-.4l.3-1.5c.3.1.6.2.8.3s.6.1.9.1c.4 0 .7-.1.9-.3s.3-.5.3-.9v-.3c-.2.2-.4.4-.6.5s-.5.2-.8.2c-.8 0-1.4-.3-1.8-.9s-.6-1.3-.6-2.3v-.1zm2 .1c0 .5.1.9.2 1.2s.4.4.8.4c.2 0 .4 0 .6-.1s.3-.2.4-.3V110c-.1-.1-.2-.3-.4-.3s-.3-.1-.5-.1c-.4 0-.6.2-.8.5s-.2.8-.2 1.3v.1zM80.2 99.9H30.6V52.5H124L80.2 99.9zm-46.6-3h45.3l38.3-41.4H33.6v41.4z"/><g><path d="M45.7 84h-4.1V66.2h4.1V84zM59.5 79.3c0-.6-.2-1.1-.6-1.5-.4-.3-1.2-.7-2.2-1.1-2.2-.7-3.9-1.5-5-2.3-1.1-.8-1.6-2-1.6-3.5s.6-2.7 1.9-3.6c1.3-.9 2.9-1.4 4.9-1.4 2 0 3.6.5 4.8 1.5 1.3 1 1.9 2.3 1.8 3.9v.1h-4c0-.7-.2-1.3-.7-1.7-.5-.4-1.1-.7-2-.7-.8 0-1.5.2-2 .5-.5.4-.7.8-.7 1.4 0 .5.2.9.7 1.3.5.3 1.4.7 2.7 1.2 2 .6 3.5 1.3 4.6 2.2 1 .9 1.5 2.1 1.5 3.6 0 1.6-.6 2.8-1.8 3.7-1.2.9-2.8 1.3-4.8 1.3s-3.8-.5-5.2-1.5c-1.5-1-2.2-2.5-2.2-4.4v-.1h4c0 1 .3 1.8.8 2.2.6.4 1.4.7 2.5.7.9 0 1.5-.2 1.9-.5.5-.3.7-.7.7-1.3z"/></g></g></svg>