<svg xmlns="http://www.w3.org/2000/svg" viewBox="0 0 152.4 152.4"><title>icons</title><g data-name="Screen 3"><path d="M54.73 18.88a21 21 0 1 0 21 21 21.06 21.06 0 0 0-21-21zm0 2.87a18.17 18.17 0 1 1-18.17 18.17 18.19 18.19 0 0 1 18.17-18.17zM34 53.58L19.86 67.69A5 5 0 1 0 27 74.78l14.06-14.11a.94.94 0 0 0 0-1.35l-5.73-5.74a1 1 0 0 0-1.33 0zm.67 2L39 60 25.6 73.43A3.1 3.1 0 0 1 21.22 69z"/><path d="M34.93 55.487l3.826-3.825 1.35 1.35-3.825 3.826zM37.792 58.364l3.825-3.825 1.351 1.35-3.825 3.826zM31.115 57.806l1.35-1.35L38.2 62.19l-1.35 1.35z"/></g><g data-name="Screen 9"><path d="M122.37 60.28l-2.62-2a1.69 1.69 0 0 0-2.37.31l-2.79 3.64-.13-.1a2.05 2.05 0 0 0-2.88.38l-31.5 41.07-.06.1a.35.35 0 0 0 0 .08.72.72 0 0 0-.09.2l-4.12 11.86a1.61 1.61 0 0 0 1.46 2.18 1.58 1.58 0 0 0 .91-.28l10.39-7 .16-.14.06-.06.08-.09 28.35-37 .85.65-11.6 15.09a1.37 1.37 0 0 0 .26 1.91 1.34 1.34 0 0 0 .83.28 1.38 1.38 0 0 0 1.08-.54l12-15.6a2.14 2.14 0 0 0-.39-3l-1.31-1 1.49-2a2.05 2.05 0 0 0-.38-2.88l-.12-.1 2.79-3.64a1.71 1.71 0 0 0-.35-2.32zm-43 53.29l2.42-6.95 3.67 2.82zm8.16-6l-4.5-3.46 30.26-39.45 4.51 3.45zm30.16-43l-1-.75 2.16-2.82 1 .75zM100.83 71.25H47.12a1.36 1.36 0 1 0 0 2.72h53.71a1.36 1.36 0 0 0 0-2.72zM87.81 85.31H47.12a1.36 1.36 0 1 0 0 2.72h40.69a1.36 1.36 0 1 0 0-2.72zM71.7 113.43H47.12a1.36 1.36 0 1 0 0 2.72H71.7a1.36 1.36 0 1 0 0-2.72zM100.83 113.43h-12a1.36 1.36 0 1 0 0 2.72h12a1.36 1.36 0 0 0 0-2.72z"/><rect x="45.92" y="99.37" width="31.13" height="2.72" rx="1.36" ry="1.36"/><rect x="70.92" y="59.7" width="31.13" height="2.72" rx="1.36" ry="1.36"/><path d="M111.06 51.4v-.18A1.09 1.09 0 0 0 111 51l-.07-.15a1.19 1.19 0 0 0-.09-.15.75.75 0 0 0-.12-.14L88.91 28.73l-.14-.12-.15-.09-.15-.06H76.8a1.36 1.36 0 0 0 .13 2.71h9.65v18.76a2.88 2.88 0 0 0 2.88 2.88h18.88v7.86a1.36 1.36 0 1 0 2.72 0V51.4zm-21.6-1.32a.15.15 0 0 1-.15-.15V33l17.1 17.1zM109.7 92.54a1.36 1.36 0 0 0-1.36 1.36v27.34a.11.11 0 0 1-.11.1h-68a.1.1 0 0 1-.1-.1V68.19a1.37 1.37 0 0 0-2.73 0v53.05a2.83 2.83 0 0 0 2.83 2.83h68a2.83 2.83 0 0 0 2.83-2.83V93.9a1.36 1.36 0 0 0-1.36-1.36z"/></g></svg>