<svg xmlns="http://www.w3.org/2000/svg" viewBox="0 0 152.4 152.4"><style>.st0{fill:#fff}.st1{fill:#1e242b;stroke:#c2d52e;stroke-width:4;stroke-miterlimit:10}.st2{clip-path:url(#SVGID_2_)}.st3{clip-path:url(#SVGID_4_)}.st4,.st5,.st6{fill:#231f20}.st5{display:none;stroke:#fff;stroke-width:5;stroke-miterlimit:10}.st6{clip-path:url(#SVGID_6_)}.st7{clip-path:url(#SVGID_8_)}.st8{clip-path:url(#SVGID_10_);fill:#231f20}.st9{fill:none}.st10{clip-path:url(#SVGID_12_);fill:#231f20}.st11{fill:#ec1c24}.st12,.st13{clip-path:url(#SVGID_16_);fill:#fff}.st13{clip-path:url(#SVGID_18_)}.st14{clip-path:url(#SVGID_20_)}.st15{clip-path:url(#SVGID_22_)}.st16{clip-path:url(#SVGID_24_)}.st17{clip-path:url(#SVGID_26_)}.st18,.st19,.st20{fill:#1e242b}.st19,.st20{stroke:#fff;stroke-miterlimit:10}.st20{fill:none;stroke-width:2}.st21{clip-path:url(#SVGID_30_)}.st22{clip-path:url(#SVGID_32_)}.st23{clip-path:url(#SVGID_34_)}.st24{clip-path:url(#SVGID_36_)}.st25{clip-path:url(#SVGID_38_)}.st26{clip-path:url(#SVGID_40_)}.st27{clip-path:url(#SVGID_44_)}.st28{clip-path:url(#SVGID_46_)}.st29{clip-path:url(#SVGID_48_);fill:#231f20}.st30{clip-path:url(#SVGID_50_);fill:#fff}.st31{clip-path:url(#SVGID_52_)}.st32{clip-path:url(#SVGID_54_);fill:#fff}.st33{clip-path:url(#SVGID_56_)}.st34{clip-path:url(#SVGID_58_)}.st35{fill:#1e242b;stroke:#fff;stroke-width:2;stroke-miterlimit:10}.st36{clip-path:url(#SVGID_60_)}.st37{display:none}.st38{display:inline;fill:#fff;stroke:#fff;stroke-miterlimit:10}.st39{clip-path:url(#SVGID_64_)}.st40{display:none;fill:#231f20}.st41,.st42{fill-rule:evenodd;clip-rule:evenodd;fill:#231f20}.st42{fill:#fff}.st43{clip-path:url(#SVGID_68_)}.st44{fill:none;stroke:#000;stroke-width:3;stroke-miterlimit:10}</style><g id="Screen_3"><path class="st4" d="M91.4 102.2c-5 0-7.8-2.9-10.3-5.5-2-2-3.7-3.7-6-3.7s-4 1.7-5.9 3.7c-2.5 2.6-5.4 5.5-10.4 5.5s-7.8-2.9-10.3-5.5c-1.8-1.8-3.4-3.4-5.4-3.7-.3 0-.6-.3-.6-.6v-1.9c0-.3.3-.6.6-.6 3.3.2 5.5 2.5 7.6 4.6 2.3 2.3 4.5 4.6 8.1 4.6 3.7 0 5.9-2.2 8.2-4.6 2.2-2.3 4.5-4.6 8.1-4.6 3.6 0 6 2.4 8.2 4.6 2.3 2.3 4.5 4.6 8.1 4.6 3.7 0 5.9-2.2 8.2-4.6 2.1-2.1 4.3-4.3 7.5-4.6.3 0 .6.3.6.6v1.9c0 .3-.2.5-.6.6-2 .2-3.6 1.8-5.4 3.7-2.4 2.6-5.2 5.5-10.3 5.5zM91.4 117.6c-5 0-7.8-2.9-10.3-5.5-2-2-3.7-3.7-6-3.7s-4 1.7-5.9 3.7c-2.5 2.6-5.4 5.5-10.4 5.5s-7.8-2.9-10.3-5.5c-1.8-1.8-3.4-3.4-5.4-3.7-.3 0-.6-.3-.6-.6v-1.9c0-.3.3-.6.6-.6 3.3.2 5.5 2.5 7.6 4.6 2.3 2.3 4.5 4.6 8.1 4.6 3.7 0 5.9-2.2 8.2-4.6 2.2-2.3 4.5-4.6 8.1-4.6 3.6 0 6 2.4 8.2 4.6 2.3 2.3 4.5 4.6 8.1 4.6 3.7 0 5.9-2.2 8.2-4.6 2.1-2.1 4.3-4.3 7.5-4.6.3 0 .6.3.6.6v1.9c0 .3-.2.5-.6.6-2 .2-3.6 1.8-5.4 3.7-2.4 2.6-5.2 5.5-10.3 5.5zM74.1 88.1c-20.6 0-31.2-4.9-34.2-7.9-1.7-1.7-2.6-3.1-2.6-5.5 0-1.8 1.3-2.6 2.3-3.3.3-.2.5-.3.8-.6.4-.3 1.1-.9 1.5-1.4.2-10.4 5.3-19.8 14-26.1l2.4-1.7v15.3c0 1 .8 1.8 1.8 1.8s1.8-.8 1.8-1.8v-17l.9-.4c1.9-.8 3.8-1.4 5.8-1.8V37c0-2 1.7-3.7 3.7-3.7h7.9c2 0 3.7 1.7 3.7 3.7v.9c2 .5 4 1.1 5.9 1.9l.9.4v16.9c0 1 .8 1.8 1.8 1.8s1.8-.8 1.8-1.8V41.9l2.4 1.7c8.6 6.3 13.6 15.8 13.9 26.2 1.9 1.4 2.5 1.8 2.7 2l.3.3c.8.7 1.8 1.6 1.7 3.4-.1 2.1-2.7 5.4-9.3 8.6-6.9 3.3-21.6 4-29.7 4.1-.9-.1-1.6-.1-2.2-.1zM55.2 47.8C48.7 53.5 45 61.4 44.8 69.9l-.1.4-.1.7-.3.3c-.1.1-1.3 1.3-2.1 2-.3.3-.7.5-1 .7-.7.4-.9.6-.9.8 0 1.2.2 1.8 1.8 3.3.1.1 7.7 7.4 34 7 6.3-.1 21.7-.7 28.4-3.8 6.1-2.9 7.6-5.5 7.6-6.1 0-.2 0-.3-.7-.9l-.3-.3c-.1-.1-.6-.5-3-2.2l-.6-.4v-.8c0-8.7-3.7-16.8-10.3-22.6v9.1c0 2.6-2.1 4.8-4.8 4.8s-4.8-2.1-4.8-4.8V42.2c-1.8-.7-3.7-1.2-5.6-1.6l-1.2-.2V37c0-.4-.3-.7-.7-.7h-7.9c-.4 0-.7.3-.7.7v3.3l-1.2.2c-1.9.3-3.7.9-5.5 1.5v15c0 2.6-2.1 4.8-4.8 4.8-2.6 0-4.8-2.1-4.8-4.8v-9.2z"/></g></svg>