<svg xmlns="http://www.w3.org/2000/svg" viewBox="0 0 152.4 152.4"><style>.st0{fill:#fff}.st1{fill:#1e242b;stroke:#c2d52e;stroke-width:4;stroke-miterlimit:10}.st2{clip-path:url(#SVGID_2_)}.st3{clip-path:url(#SVGID_4_)}.st4,.st5,.st6{fill:#231f20}.st5{display:none;stroke:#fff;stroke-width:5;stroke-miterlimit:10}.st6{clip-path:url(#SVGID_6_)}.st7{clip-path:url(#SVGID_8_)}.st8{clip-path:url(#SVGID_10_);fill:#231f20}.st9{fill:none}.st10{clip-path:url(#SVGID_12_);fill:#231f20}.st11{fill:#ec1c24}.st12,.st13{clip-path:url(#SVGID_16_);fill:#fff}.st13{clip-path:url(#SVGID_18_)}.st14{clip-path:url(#SVGID_20_)}.st15{clip-path:url(#SVGID_22_)}.st16{clip-path:url(#SVGID_24_)}.st17{clip-path:url(#SVGID_26_)}.st18,.st19,.st20{fill:#1e242b}.st19,.st20{stroke:#fff;stroke-miterlimit:10}.st20{fill:none;stroke-width:2}.st21{clip-path:url(#SVGID_30_)}.st22{clip-path:url(#SVGID_32_)}.st23{clip-path:url(#SVGID_34_)}.st24{clip-path:url(#SVGID_36_)}.st25{clip-path:url(#SVGID_38_)}.st26{clip-path:url(#SVGID_40_)}.st27{clip-path:url(#SVGID_44_)}.st28{clip-path:url(#SVGID_46_)}.st29{clip-path:url(#SVGID_48_);fill:#231f20}.st30{clip-path:url(#SVGID_50_);fill:#fff}.st31{clip-path:url(#SVGID_52_)}.st32{clip-path:url(#SVGID_54_);fill:#fff}.st33{clip-path:url(#SVGID_56_)}.st34{clip-path:url(#SVGID_58_)}.st35{fill:#1e242b;stroke:#fff;stroke-width:2;stroke-miterlimit:10}.st36{clip-path:url(#SVGID_60_)}.st37{display:none}.st38{display:inline;fill:#fff;stroke:#fff;stroke-miterlimit:10}.st39{clip-path:url(#SVGID_64_)}.st40{display:none;fill:#231f20}.st41,.st42{fill-rule:evenodd;clip-rule:evenodd;fill:#231f20}.st42{fill:#fff}.st43{clip-path:url(#SVGID_68_)}.st44{fill:none;stroke:#000;stroke-width:3;stroke-miterlimit:10}</style><g id="Screen_3"><path class="st4" d="M97 64.5c-6.3 0-9.9-3.7-13.1-7-2.5-2.5-4.6-4.7-7.6-4.7-2.9 0-5.1 2.2-7.5 4.7-3.2 3.3-6.9 7-13.2 7-6.3 0-9.9-3.7-13.1-7-2.3-2.3-4.3-4.4-6.9-4.7-.4 0-.7-.3-.7-.7v-2.4c0-.4.4-.8.8-.8 4.2.3 6.9 3.1 9.6 5.9 2.9 3 5.7 5.8 10.4 5.8s7.5-2.8 10.4-5.8c2.8-2.9 5.7-5.9 10.3-5.9 4.6 0 7.6 3 10.4 5.9 2.9 3 5.7 5.8 10.4 5.8s7.5-2.8 10.4-5.8c2.7-2.7 5.4-5.5 9.5-5.8.4 0 .8.3.8.8v2.4c0 .4-.3.7-.7.7-2.6.3-4.6 2.3-6.8 4.7-3.4 3.2-7.1 6.9-13.4 6.9zM97 84c-6.3 0-9.9-3.7-13.1-7-2.5-2.5-4.6-4.7-7.6-4.7-2.9 0-5.1 2.2-7.5 4.7-3.2 3.3-6.9 7-13.2 7-6.3 0-9.9-3.7-13.1-7-2.3-2.3-4.3-4.4-6.9-4.7-.4 0-.7-.3-.7-.7v-2.4c0-.4.4-.8.8-.8 4.2.3 6.9 3.1 9.6 5.9 2.9 3 5.7 5.8 10.4 5.8s7.5-2.8 10.4-5.8c2.8-2.9 5.7-5.9 10.3-5.9 4.6 0 7.6 3 10.4 5.9 2.9 3 5.7 5.8 10.4 5.8s7.5-2.8 10.4-5.8c2.7-2.7 5.4-5.5 9.5-5.8.4 0 .8.3.8.8v2.4c0 .4-.3.7-.7.7-2.6.3-4.6 2.3-6.8 4.7C107 80.3 103.3 84 97 84zM97 103.5c-6.3 0-9.9-3.7-13.1-7-2.5-2.5-4.6-4.7-7.6-4.7-2.9 0-5.1 2.2-7.5 4.7-3.2 3.3-6.9 7-13.2 7-6.3 0-9.9-3.7-13.1-7-2.3-2.3-4.3-4.4-6.9-4.7-.4 0-.7-.3-.7-.7v-2.4c0-.4.4-.8.8-.8 4.2.3 6.9 3.1 9.6 5.9 2.9 3 5.7 5.8 10.4 5.8s7.5-2.8 10.4-5.8c2.8-2.9 5.7-5.9 10.3-5.9 4.6 0 7.6 3 10.4 5.9 2.9 3 5.7 5.8 10.4 5.8s7.5-2.8 10.4-5.8c2.7-2.7 5.4-5.5 9.5-5.8.4 0 .8.3.8.8v2.4c0 .4-.3.7-.7.7-2.6.3-4.6 2.3-6.8 4.7-3.4 3.2-7.1 6.9-13.4 6.9z"/></g></svg>