<svg xmlns="http://www.w3.org/2000/svg" viewBox="0 0 152.4 152.4"><style>.st0{fill:#fff}.st1{fill:#1e242b;stroke:#c2d52e;stroke-width:4;stroke-miterlimit:10}.st2{clip-path:url(#SVGID_2_)}.st3{clip-path:url(#SVGID_4_)}.st4,.st5,.st6{fill:#231f20}.st5{display:none;stroke:#fff;stroke-width:5;stroke-miterlimit:10}.st6{clip-path:url(#SVGID_6_)}.st7{clip-path:url(#SVGID_8_)}.st8{clip-path:url(#SVGID_10_);fill:#231f20}.st9{fill:none}.st10{clip-path:url(#SVGID_12_);fill:#231f20}.st11{fill:#ec1c24}.st12,.st13{clip-path:url(#SVGID_16_);fill:#fff}.st13{clip-path:url(#SVGID_18_)}.st14{clip-path:url(#SVGID_20_)}.st15{clip-path:url(#SVGID_22_)}.st16{clip-path:url(#SVGID_24_)}.st17{clip-path:url(#SVGID_26_)}.st18,.st19,.st20{fill:#1e242b}.st19,.st20{stroke:#fff;stroke-miterlimit:10}.st20{fill:none;stroke-width:2}.st21{clip-path:url(#SVGID_30_)}.st22{clip-path:url(#SVGID_32_)}.st23{clip-path:url(#SVGID_34_)}.st24{clip-path:url(#SVGID_36_)}.st25{clip-path:url(#SVGID_38_)}.st26{clip-path:url(#SVGID_40_)}.st27{clip-path:url(#SVGID_44_)}.st28{clip-path:url(#SVGID_46_)}.st29{clip-path:url(#SVGID_48_);fill:#231f20}.st30{clip-path:url(#SVGID_50_);fill:#fff}.st31{clip-path:url(#SVGID_52_)}.st32{clip-path:url(#SVGID_54_);fill:#fff}.st33{clip-path:url(#SVGID_56_)}.st34{clip-path:url(#SVGID_58_)}.st35{fill:#1e242b;stroke:#fff;stroke-width:2;stroke-miterlimit:10}.st36{clip-path:url(#SVGID_60_)}.st37{display:none}.st38{display:inline;fill:#fff;stroke:#fff;stroke-miterlimit:10}.st39{clip-path:url(#SVGID_64_)}.st40{display:none;fill:#231f20}.st41,.st42{fill-rule:evenodd;clip-rule:evenodd;fill:#231f20}.st42{fill:#fff}.st43{clip-path:url(#SVGID_68_)}.st44{fill:none;stroke:#000;stroke-width:3;stroke-miterlimit:10}</style><g id="Screen_3"><path class="st4" d="M57.6 94.4c-.1.5-.2.9-.4 1.4-.3 1.3-.7 2.6-1.2 4.2-.8 2.2-2.6 2.4-3.1 2.4-.9 0-1.7-.3-2.3-.9-.8-.8-1.1-1.9-.9-3 .2-.6.6-1.8 2.3-2.4 1.6-.5 2.9-.9 4.2-1.2.5-.3 1-.4 1.4-.5m5-5c-4.2 2.4-6.6 2.3-11.4 3.9-4.6 1.6-5.5 7-2.5 9.9 1.2 1.2 2.7 1.7 4.2 1.7 2.4 0 4.8-1.4 5.7-4.2 1.7-4.7 1.6-7.1 4-11.3zM77 94.4c-.1.5-.2.9-.4 1.4-.3 1.3-.7 2.6-1.2 4.2-.8 2.2-2.6 2.4-3.1 2.4-.9 0-1.7-.3-2.3-.9-.8-.8-1.1-1.9-.9-3 .2-.6.6-1.8 2.3-2.4 1.6-.5 2.9-.9 4.2-1.2.5-.3 1-.4 1.4-.5m5-5c-4.2 2.4-6.6 2.3-11.4 3.9-4.6 1.6-5.5 7-2.5 9.9 1.2 1.2 2.7 1.7 4.2 1.7 2.4 0 4.8-1.4 5.7-4.2 1.7-4.7 1.6-7.1 4-11.3zM96.5 94.4c-.1.5-.2.9-.4 1.4-.3 1.3-.7 2.6-1.2 4.2-.8 2.2-2.6 2.4-3.1 2.4-.9 0-1.7-.3-2.3-.9-.8-.8-1.1-1.9-.9-3 .2-.6.6-1.8 2.3-2.4 1.6-.5 2.9-.9 4.2-1.2.5-.3 1-.4 1.4-.5m5-5c-4.2 2.4-6.6 2.3-11.4 3.9-4.6 1.6-5.5 7-2.5 9.9 1.2 1.2 2.7 1.7 4.2 1.7 2.4 0 4.8-1.4 5.7-4.2 1.7-4.7 1.6-7.1 4-11.3zM95.8 86.3H48.4c-5.4 0-9.9-4.4-9.9-9.9 0-4.2 2.7-7.9 6.6-9.3 1.8-3.7 5.1-6.3 9-7.2 1.2-9.4 9.2-16.5 18.8-16.5 6.7 0 12.9 3.6 16.3 9.2 2.1-.9 4.4-1.3 6.7-1.3 9.7 0 17.5 7.9 17.5 17.5 0 9.7-7.9 17.5-17.6 17.5zM72.9 47.1c-8.2 0-14.9 6.4-15.3 14.5 0 .9-.7 1.6-1.6 1.7-3.5.4-6.6 2.7-7.9 6-.2.5-.7 1-1.3 1.1-2.8.7-4.7 3.2-4.7 6 0 3.4 2.8 6.2 6.2 6.2h47.5c7.6 0 13.9-6.2 13.9-13.9s-6.2-13.9-13.9-13.9c-2.3 0-4.6.6-6.6 1.7-.4.2-1 .3-1.5.1-.5-.2-.9-.5-1.1-1-2.4-5.1-7.9-8.5-13.7-8.5z"/></g></svg>