<svg xmlns="http://www.w3.org/2000/svg" viewBox="0 0 152.4 152.4"><style>.st0{fill:#fff}.st1{fill:#1e242b;stroke:#c2d52e;stroke-width:4;stroke-miterlimit:10}.st2{clip-path:url(#SVGID_2_)}.st3{clip-path:url(#SVGID_4_)}.st4,.st5,.st6{fill:#231f20}.st5{display:none;stroke:#fff;stroke-width:5;stroke-miterlimit:10}.st6{clip-path:url(#SVGID_6_)}.st7{clip-path:url(#SVGID_8_)}.st8{clip-path:url(#SVGID_10_);fill:#231f20}.st9{fill:none}.st10{clip-path:url(#SVGID_12_);fill:#231f20}.st11{fill:#ec1c24}.st12,.st13{clip-path:url(#SVGID_16_);fill:#fff}.st13{clip-path:url(#SVGID_18_)}.st14{clip-path:url(#SVGID_20_)}.st15{clip-path:url(#SVGID_22_)}.st16{clip-path:url(#SVGID_24_)}.st17{clip-path:url(#SVGID_26_)}.st18,.st19,.st20{fill:#1e242b}.st19,.st20{stroke:#fff;stroke-miterlimit:10}.st20{fill:none;stroke-width:2}.st21{clip-path:url(#SVGID_30_)}.st22{clip-path:url(#SVGID_32_)}.st23{clip-path:url(#SVGID_34_)}.st24{clip-path:url(#SVGID_36_)}.st25{clip-path:url(#SVGID_38_)}.st26{clip-path:url(#SVGID_40_)}.st27{clip-path:url(#SVGID_44_)}.st28{clip-path:url(#SVGID_46_)}.st29{clip-path:url(#SVGID_48_);fill:#231f20}.st30{clip-path:url(#SVGID_50_);fill:#fff}.st31{clip-path:url(#SVGID_52_)}.st32{clip-path:url(#SVGID_54_);fill:#fff}.st33{clip-path:url(#SVGID_56_)}.st34{clip-path:url(#SVGID_58_)}.st35{fill:#1e242b;stroke:#fff;stroke-width:2;stroke-miterlimit:10}.st36{clip-path:url(#SVGID_60_)}.st37{display:none}.st38{display:inline;fill:#fff;stroke:#fff;stroke-miterlimit:10}.st39{clip-path:url(#SVGID_64_)}.st40{display:none;fill:#231f20}.st41,.st42{fill-rule:evenodd;clip-rule:evenodd;fill:#231f20}.st42{fill:#fff}.st43{clip-path:url(#SVGID_68_)}.st44{fill:none;stroke:#000;stroke-width:3;stroke-miterlimit:10}</style><g id="Screen_3"><g class="st37"><path class="st38" d="M119.6 56.8l-35 27-9.8 21.6 24.5-6.3 33.1-26.6z"/></g><path class="st4" d="M44.2 82.4c0 16.2 13.2 29.4 29.4 29.4S103 98.6 103 82.4 89.8 53 73.6 53 44.2 66.2 44.2 82.4zm2.7 0c0-14.8 12-26.8 26.8-26.8s26.8 12 26.8 26.8-12 26.8-26.8 26.8c-14.8-.1-26.8-12.1-26.8-26.8z"/><path class="st4" d="M50.9 82.4c0 12.5 10.2 22.7 22.7 22.7s22.7-10.2 22.7-22.7-10.1-22.8-22.7-22.8-22.7 10.2-22.7 22.8zm2.7 0c0-11.1 9-20.1 20.1-20.1s20.1 9 20.1 20.1-9 20.1-20.1 20.1-20.1-9.1-20.1-20.1zM59.9 46l7.4-.7v5.3h2.1v-3.8l1.6.9c.9.5 1.9.8 2.9.8 1.1 0 2.3-.3 3.3-1l1.6-1v4.1H81v-5.3l6.6.7c3.6 0 6.5-2.8 6.5-6.4 0-3.5-2.8-6.3-6.3-6.4L74 35l-13.8-1.7c-3.7 0-6.6 2.8-6.6 6.4 0 3.4 2.8 6.3 6.3 6.3zm27.9-10.6c2.2 0 4 2 4 4.3s-1.9 4.2-4.2 4.2h-.1l-7.4-.8v-.9c-.1-1.5-.6-2.9-1.6-3.9L77 36.8l10.8-1.4zm-13.8 3c2.2 0 4 1.8 4 4s-1.8 4-4 4-4-1.8-4-4c0-1.1.4-2.1 1.2-2.8.7-.8 1.7-1.2 2.8-1.2zm-14.1-3l11 1.4-1.4 1.5c-1 1.1-1.6 2.5-1.6 3.9v.9l-8 .7c-2.3 0-4.1-2-4.1-4.3-.1-2.2 1.8-4.1 4.1-4.1zM106.4 119.6c-2.6 0-5.1-1.3-6.5-3.6-1.4-2.3-1.5-5-.3-7.6.8-1.6 1.5-2.9 2.2-4 1.2-2 2.1-3.6 2.8-6.3l1.7-6.3 1.7 6.3c.7 2.7 1.7 4.3 2.8 6.3.7 1.1 1.4 2.4 2.2 4 1.2 2.5 1.1 5.3-.3 7.6-1.2 2.3-3.6 3.6-6.3 3.6zm0-20.2c-.8 2.6-1.7 4.1-2.8 6.1-.6 1.1-1.4 2.3-2.1 3.9-.9 1.9-.9 4 .2 5.7 1 1.7 2.8 2.7 4.8 2.7s3.7-1 4.8-2.7c1.1-1.7 1.1-3.7.2-5.7-.8-1.6-1.5-2.8-2.1-3.9-1.3-2-2.2-3.5-3-6.1z"/><path class="st4" d="M60.4 78.1h6.2v8.5h-6.2zM70.5 78.1h6.2v8.5h-6.2zM80.7 78.1h6.2v8.5h-6.2z"/></g></svg>