<svg xmlns="http://www.w3.org/2000/svg" viewBox="0 0 152.4 152.4"><style>.st0{fill:#fff}.st1{fill:#1e242b;stroke:#c2d52e;stroke-width:4;stroke-miterlimit:10}.st2{clip-path:url(#SVGID_2_)}.st3{clip-path:url(#SVGID_4_)}.st4,.st5,.st6{fill:#231f20}.st5{display:none;stroke:#fff;stroke-width:5;stroke-miterlimit:10}.st6{clip-path:url(#SVGID_6_)}.st7{clip-path:url(#SVGID_8_)}.st8{clip-path:url(#SVGID_10_);fill:#231f20}.st9{fill:none}.st10{clip-path:url(#SVGID_12_);fill:#231f20}.st11{fill:#ec1c24}.st12,.st13{clip-path:url(#SVGID_16_);fill:#fff}.st13{clip-path:url(#SVGID_18_)}.st14{clip-path:url(#SVGID_20_)}.st15{clip-path:url(#SVGID_22_)}.st16{clip-path:url(#SVGID_24_)}.st17{clip-path:url(#SVGID_26_)}.st18,.st19,.st20{fill:#1e242b}.st19,.st20{stroke:#fff;stroke-miterlimit:10}.st20{fill:none;stroke-width:2}.st21{clip-path:url(#SVGID_30_)}.st22{clip-path:url(#SVGID_32_)}.st23{clip-path:url(#SVGID_34_)}.st24{clip-path:url(#SVGID_36_)}.st25{clip-path:url(#SVGID_38_)}.st26{clip-path:url(#SVGID_40_)}.st27{clip-path:url(#SVGID_44_)}.st28{clip-path:url(#SVGID_46_)}.st29{clip-path:url(#SVGID_48_);fill:#231f20}.st30{clip-path:url(#SVGID_50_);fill:#fff}.st31{clip-path:url(#SVGID_52_)}.st32{clip-path:url(#SVGID_54_);fill:#fff}.st33{clip-path:url(#SVGID_56_)}.st34{clip-path:url(#SVGID_58_)}.st35{fill:#1e242b;stroke:#fff;stroke-width:2;stroke-miterlimit:10}.st36{clip-path:url(#SVGID_60_)}.st37{display:none}.st38{display:inline;fill:#fff;stroke:#fff;stroke-miterlimit:10}.st39{clip-path:url(#SVGID_64_)}.st40{display:none;fill:#231f20}.st41,.st42{fill-rule:evenodd;clip-rule:evenodd;fill:#231f20}.st42{fill:#fff}.st43{clip-path:url(#SVGID_68_)}.st44{fill:none;stroke:#000;stroke-width:3;stroke-miterlimit:10}</style><g id="Screen_3"><g class="st37"><path class="st38" d="M119.6 56.8l-35 27-9.8 21.6 24.5-6.3 33.1-26.6z"/></g><path class="st4" d="M92 120.4H60.8c-1.3 0-2.5-.6-3.3-1.7-.8-1.1-1-2.4-.6-3.7l15.6-49.8c.6-1.8 2.1-2.9 4-2.9 1.8 0 3.4 1.1 4 2.9L96.1 115c.4 1.3.2 2.6-.6 3.7-1 1.1-2.2 1.7-3.5 1.7zM76.4 64.9c-.6 0-1.3.3-1.5 1.1l-15.6 49.8c-.2.5-.1 1 .2 1.4s.8.6 1.3.6H92c.5 0 1-.2 1.3-.6s.4-.9.2-1.4L77.9 66c-.3-.8-1-1.1-1.5-1.1zM65.5 63.4c-.3 0-.6-.1-.9-.4-1.6-1.6-4.7-5.8-4.7-10.7 0-4.9 2.5-9.2 4.2-10.9.5-.5 1.3-.5 1.8 0s.5 1.3 0 1.8c-1.3 1.3-3.5 5-3.5 9.1s2.8 7.8 3.9 8.8c.5.5.5 1.3 0 1.8-.1.4-.4.5-.8.5zM56.4 70.7l.9-.9-.9.9c-5.4-5.2-8.3-12.2-8.3-19.6 0-10.7 7.8-18.6 7.9-18.7.5-.5 1.3-.5 1.8 0s.5 1.3 0 1.8c-.1.1-7.2 7.3-7.2 16.9 0 6.8 2.7 13.1 7.5 17.8l-1.7 1.8zM86.9 63.4c-.3 0-.7-.1-.9-.4-.5-.5-.5-1.3 0-1.8 1.1-1.1 3.9-4.7 3.9-8.8 0-4.1-2.1-7.8-3.5-9.1-.5-.5-.5-1.3 0-1.8s1.3-.5 1.8 0c1.7 1.7 4.2 6 4.2 10.9 0 4.8-3.1 9.1-4.7 10.7-.2.2-.5.3-.8.3zM95.1 71c-.3 0-.7-.1-.9-.4-.5-.5-.5-1.3 0-1.8 4.9-4.7 7.5-11 7.5-17.8 0-9.7-7.1-16.8-7.2-16.9-.5-.5-.5-1.3 0-1.8s1.3-.5 1.8 0c.1.1 7.9 8 7.9 18.7 0 7.5-3 14.4-8.3 19.6-.2.3-.5.4-.8.4z"/><circle class="st41" cx="76.2" cy="51.7" r="5"/></g></svg>