<svg xmlns="http://www.w3.org/2000/svg" xmlns:xlink="http://www.w3.org/1999/xlink" viewBox="0 0 35.3 35.3"><style>.st0{fill:#fff}.st1{fill:#1e242b;stroke:#c2d52e;stroke-width:4;stroke-miterlimit:10}.st2{clip-path:url(#SVGID_2_)}.st3{clip-path:url(#SVGID_4_)}.st4,.st5,.st6{fill:#231f20}.st5{display:none;stroke:#fff;stroke-width:5;stroke-miterlimit:10}.st6{clip-path:url(#SVGID_6_)}.st7{clip-path:url(#SVGID_8_)}.st8{clip-path:url(#SVGID_10_);fill:#231f20}.st9{fill:none}.st10{clip-path:url(#SVGID_12_);fill:#231f20}.st11{fill:#ec1c24}.st12,.st13{clip-path:url(#SVGID_16_);fill:#fff}.st13{clip-path:url(#SVGID_18_)}.st14{clip-path:url(#SVGID_20_)}.st15{clip-path:url(#SVGID_22_)}.st16{clip-path:url(#SVGID_24_)}.st17{clip-path:url(#SVGID_26_)}.st18,.st19,.st20{fill:#1e242b}.st19,.st20{stroke:#fff;stroke-miterlimit:10}.st20{fill:none;stroke-width:2}.st21{clip-path:url(#SVGID_30_)}.st22{clip-path:url(#SVGID_32_)}.st23{clip-path:url(#SVGID_34_)}.st24{clip-path:url(#SVGID_36_)}.st25{clip-path:url(#SVGID_38_)}.st26{clip-path:url(#SVGID_40_)}.st27{clip-path:url(#SVGID_44_)}.st28{clip-path:url(#SVGID_46_)}.st29{clip-path:url(#SVGID_48_);fill:#231f20}.st30{clip-path:url(#SVGID_50_);fill:#fff}.st31{clip-path:url(#SVGID_52_)}.st32{clip-path:url(#SVGID_54_);fill:#fff}.st33{clip-path:url(#SVGID_56_)}.st34{clip-path:url(#SVGID_58_)}.st35{fill:#1e242b;stroke:#fff;stroke-width:2;stroke-miterlimit:10}.st36{clip-path:url(#SVGID_60_)}.st37{display:none}.st38{display:inline;fill:#fff;stroke:#fff;stroke-miterlimit:10}.st39{clip-path:url(#SVGID_64_)}.st40{display:none;fill:#231f20}.st41,.st42{fill-rule:evenodd;clip-rule:evenodd;fill:#231f20}.st42{fill:#fff}.st43{clip-path:url(#SVGID_68_)}.st44{fill:none;stroke:#000;stroke-width:3;stroke-miterlimit:10}</style><g id="Screen_3"><path d="M34.9 14.6c0-.3-.2-.5-.4-.7-.2-.2-.5-.2-.8-.1-.6.2-1.2.1-1.8-.1-1.5-.6-2.3-2.3-1.7-3.9.2-.6.6-1.1 1.2-1.4.2-.1.4-.4.4-.7 0-.3 0-.5-.2-.8-1.1-1.4-2.4-2.7-3.8-3.7-.2-.2-.5-.2-.8-.2-.3.1-.5.2-.6.5-.4.5-.9 1-1.4 1.2-.4.2-.8.3-1.3.3-1.2 0-2.3-.7-2.7-1.8-.3-.6-.3-1.2-.2-1.8.1-.3 0-.5-.2-.8-.2-.2-.4-.4-.7-.4-1.8-.2-3.6-.2-5.3.1-.3 0-.5.2-.7.4-.2.2-.2.5-.1.8.1.6.1 1.2-.1 1.8-.4 1.2-1.6 1.9-2.8 1.9-.4 0-.7-.1-1.1-.2-.5-.3-1-.7-1.4-1.2-.1-.2-.4-.4-.6-.4-.3 0-.5 0-.8.2-1.4 1-2.7 2.3-3.7 3.8-.2.2-.3.5-.2.8.1.3.2.5.5.6.5.3.9.8 1.2 1.3.3.7.3 1.5.1 2.3-.3.7-.8 1.3-1.6 1.7-.6.3-1.2.3-1.9.2-.3-.1-.5 0-.8.2-.2.2-.4.4-.4.7-.3 1.8-.2 3.6.1 5.4 0 .3.2.5.4.7.2.2.5.2.8.1.6-.2 1.3-.1 1.8.1.7.2 1.3.7 1.7 1.5.3.7.3 1.5.1 2.3-.2.6-.7 1.1-1.2 1.5-.2.1-.4.4-.4.7-.1.3 0 .6.2.8 1.1 1.5 2.4 2.7 3.9 3.8.2.2.5.2.8.2.3-.1.5-.2.6-.5.3-.6.8-1 1.4-1.2.4-.2.8-.3 1.2-.3 1.2 0 2.3.7 2.7 1.8.3.6.3 1.3.2 1.9-.1.3 0 .6.1.8.2.2.4.4.7.4.8.1 1.6.2 2.4.2 1 0 2-.1 3-.3.3 0 .5-.2.7-.4.1-.2.2-.5.1-.8-.2-.6-.1-1.3.1-1.8.4-1.2 1.6-1.9 2.8-1.9.4 0 .7.1 1.1.2.6.2 1.1.7 1.5 1.2.1.2.4.4.7.4.3.1.6 0 .8-.2 1.4-1.1 2.7-2.4 3.7-3.9.2-.2.2-.5.2-.8-.1-.3-.2-.5-.5-.6-.5-.3-1-.8-1.2-1.4-.7-1.5 0-3.3 1.5-4 .6-.3 1.2-.3 1.9-.2.3.1.5 0 .8-.2.2-.2.4-.4.4-.7-.1-1.9-.1-3.7-.4-5.4zm-1.8 4.1c-.7 0-1.4.1-2 .4-2.5 1.1-3.6 4.1-2.5 6.6.3.6.7 1.2 1.1 1.6-.6.8-1.3 1.4-2 2.1-.5-.5-1.1-.9-1.7-1.1-.6-.2-1.2-.3-1.8-.3-2 0-3.9 1.3-4.6 3.2-.2.6-.4 1.3-.3 2-1 .1-1.9.1-2.9 0 0-.7-.1-1.4-.4-2.1-.8-1.8-2.6-3-4.5-3-.7 0-1.4.1-2 .4-.6.3-1.2.7-1.6 1.2-.8-.6-1.4-1.3-2.1-2 .5-.5.9-1.1 1.1-1.7.5-1.2.4-2.6-.1-3.8-.6-1.3-1.6-2.2-2.8-2.7-.6-.2-1.3-.4-1.9-.3-.1-1-.1-1.9 0-2.9.7 0 1.4-.1 2-.4 1.2-.5 2.1-1.5 2.6-2.8.5-1.2.4-2.6-.1-3.8-.3-.6-.7-1.1-1.2-1.5.6-.8 1.3-1.5 2-2.1.5.5 1.1.9 1.7 1.1.6.2 1.2.3 1.8.3 2 0 3.9-1.3 4.6-3.2.2-.6.3-1.2.3-1.9 1-.1 1.9-.1 2.9 0 0 .7.2 1.3.4 2 .8 1.8 2.6 3 4.5 3 .7 0 1.4-.1 2-.4.6-.3 1.1-.6 1.6-1.1.8.6 1.4 1.3 2.1 2-.5.5-.8 1.1-1.1 1.7-1 2.6.3 5.4 2.9 6.4.6.2 1.3.3 1.9.3.2.9.2 1.9.1 2.8zm0 0"/><defs><path id="SVGID_13_" d="M0 0h35.3v35.3H0z"/></defs><clipPath id="SVGID_2_"><use xlink:href="#SVGID_13_" overflow="visible"/></clipPath><path d="M17.6 10c-1.1 0-2.1.2-3.1.7-3.8 1.7-5.5 6.2-3.8 10 1.2 2.7 3.9 4.5 6.9 4.5 1.1 0 2.1-.2 3.1-.7 3.8-1.7 5.5-6.2 3.8-10-1.2-2.7-3.9-4.5-6.9-4.5zm2.2 12.7c-.7.3-1.5.5-2.3.5-2.2 0-4.2-1.3-5.1-3.3-1.3-2.8 0-6.1 2.8-7.4.7-.3 1.5-.5 2.3-.5 2.2 0 4.2 1.3 5.1 3.3 1.3 2.8.1 6.1-2.8 7.4zm0 0"/></g></svg>