<svg xmlns="http://www.w3.org/2000/svg" viewBox="0 0 152.4 152.4"><style>.st0{fill:#fff}.st1{fill:#1e242b;stroke:#c2d52e;stroke-width:4;stroke-miterlimit:10}.st2{clip-path:url(#SVGID_2_)}.st3{clip-path:url(#SVGID_4_)}.st4,.st5,.st6{fill:#231f20}.st5{display:none;stroke:#fff;stroke-width:5;stroke-miterlimit:10}.st6{clip-path:url(#SVGID_6_)}.st7{clip-path:url(#SVGID_8_)}.st8{clip-path:url(#SVGID_10_);fill:#231f20}.st9{fill:none}.st10{clip-path:url(#SVGID_12_);fill:#231f20}.st11{fill:#ec1c24}.st12,.st13{clip-path:url(#SVGID_16_);fill:#fff}.st13{clip-path:url(#SVGID_18_)}.st14{clip-path:url(#SVGID_20_)}.st15{clip-path:url(#SVGID_22_)}.st16{clip-path:url(#SVGID_24_)}.st17{clip-path:url(#SVGID_26_)}.st18,.st19,.st20{fill:#1e242b}.st19,.st20{stroke:#fff;stroke-miterlimit:10}.st20{fill:none;stroke-width:2}.st21{clip-path:url(#SVGID_30_)}.st22{clip-path:url(#SVGID_32_)}.st23{clip-path:url(#SVGID_34_)}.st24{clip-path:url(#SVGID_36_)}.st25{clip-path:url(#SVGID_38_)}.st26{clip-path:url(#SVGID_40_)}.st27{clip-path:url(#SVGID_44_)}.st28{clip-path:url(#SVGID_46_)}.st29{clip-path:url(#SVGID_48_);fill:#231f20}.st30{clip-path:url(#SVGID_50_);fill:#fff}.st31{clip-path:url(#SVGID_52_)}.st32{clip-path:url(#SVGID_54_);fill:#fff}.st33{clip-path:url(#SVGID_56_)}.st34{clip-path:url(#SVGID_58_)}.st35{fill:#1e242b;stroke:#fff;stroke-width:2;stroke-miterlimit:10}.st36{clip-path:url(#SVGID_60_)}.st37{display:none}.st38{display:inline;fill:#fff;stroke:#fff;stroke-miterlimit:10}.st39{clip-path:url(#SVGID_64_)}.st40{display:none;fill:#231f20}.st41,.st42{fill-rule:evenodd;clip-rule:evenodd;fill:#231f20}.st42{fill:#fff}.st43{clip-path:url(#SVGID_68_)}.st44{fill:none;stroke:#000;stroke-width:3;stroke-miterlimit:10}</style><g id="Screen_3"><path class="st4" d="M76.2 46c3 7.2 6.3 12.9 10 19.2 3 5.2 6.2 10.6 9.7 17.6 3.8 7.6 3.5 15.9-.7 22.6C91.1 112 84 116 76.2 116c-7.8 0-14.9-3.9-19-10.6-4.2-6.7-4.4-14.9-.7-22.6 3.5-7 6.6-12.4 9.7-17.6 3.7-6.3 7-12 10-19.2m0-14.1c-5.8 21.1-13.8 28.6-23.8 49-9.7 19.8 4.7 39.7 23.8 39.7s33.5-19.9 23.8-39.7c-10.1-20.5-18-28-23.8-49z"/></g></svg>