<svg xmlns="http://www.w3.org/2000/svg" viewBox="0 0 152.4 152.4"><style>.st0{fill:#fff}.st1{fill:#1e242b;stroke:#c2d52e;stroke-width:4;stroke-miterlimit:10}.st2{clip-path:url(#SVGID_2_)}.st3{clip-path:url(#SVGID_4_)}.st4,.st5,.st6{fill:#231f20}.st5{display:none;stroke:#fff;stroke-width:5;stroke-miterlimit:10}.st6{clip-path:url(#SVGID_6_)}.st7{clip-path:url(#SVGID_8_)}.st8{clip-path:url(#SVGID_10_);fill:#231f20}.st9{fill:none}.st10{clip-path:url(#SVGID_12_);fill:#231f20}.st11{fill:#ec1c24}.st12,.st13{clip-path:url(#SVGID_16_);fill:#fff}.st13{clip-path:url(#SVGID_18_)}.st14{clip-path:url(#SVGID_20_)}.st15{clip-path:url(#SVGID_22_)}.st16{clip-path:url(#SVGID_24_)}.st17{clip-path:url(#SVGID_26_)}.st18,.st19,.st20{fill:#1e242b}.st19,.st20{stroke:#fff;stroke-miterlimit:10}.st20{fill:none;stroke-width:2}.st21{clip-path:url(#SVGID_30_)}.st22{clip-path:url(#SVGID_32_)}.st23{clip-path:url(#SVGID_34_)}.st24{clip-path:url(#SVGID_36_)}.st25{clip-path:url(#SVGID_38_)}.st26{clip-path:url(#SVGID_40_)}.st27{clip-path:url(#SVGID_44_)}.st28{clip-path:url(#SVGID_46_)}.st29{clip-path:url(#SVGID_48_);fill:#231f20}.st30{clip-path:url(#SVGID_50_);fill:#fff}.st31{clip-path:url(#SVGID_52_)}.st32{clip-path:url(#SVGID_54_);fill:#fff}.st33{clip-path:url(#SVGID_56_)}.st34{clip-path:url(#SVGID_58_)}.st35{fill:#1e242b;stroke:#fff;stroke-width:2;stroke-miterlimit:10}.st36{clip-path:url(#SVGID_60_)}.st37{display:none}.st38{display:inline;fill:#fff;stroke:#fff;stroke-miterlimit:10}.st39{clip-path:url(#SVGID_64_)}.st40{display:none;fill:#231f20}.st41,.st42{fill-rule:evenodd;clip-rule:evenodd;fill:#231f20}.st42{fill:#fff}.st43{clip-path:url(#SVGID_68_)}.st44{fill:none;stroke:#000;stroke-width:3;stroke-miterlimit:10}</style><g id="Screen_3"><path class="st4" d="M89.3 107.5c-.5-.2-.8-.7-.8-1.2v-5.7c0-5.9-4.5-8-8.4-8.1H47.2c-.7 0-1.3-.6-1.3-1.3 0-.7.6-1.3 1.3-1.3h33c.2 0 4.9 0 8.1 3.2 1.9 1.9 2.8 4.4 2.8 7.5v4.8l.9.3c1.4.5 3.6 1 6.2 1 2 0 4-.3 5.8-1l.9-.3v-4.8c0-8.9-2.3-15.6-6.8-19.8-4.8-4.4-10.7-4.9-13-4.9h-7.4c-.7 0-1.3-.6-1.3-1.3V59.7l-2 1.3c-1.2.8-2.7 1.2-4.1 1.2-1.3 0-2.6-.3-3.7-1l-2-1.1v14.4c0 .7-.6 1.3-1.3 1.3H47.2c-.7 0-1.3-.6-1.3-1.3 0-.7.6-1.3 1.3-1.3H62v-15l-9.4.8c-4.4 0-8-3.6-8-8 0-4.5 3.6-8 8.3-8l17.4 2.2L87.6 43c4.4 0 7.9 3.6 7.9 8 0 4.5-3.6 8-8.2 8l-8.3-.8v15h6.2c2.6 0 9.3.5 14.7 5.6 5.1 4.8 7.8 12.1 7.8 21.9v5.7c0 .5-.3 1-.8 1.2-2.6 1.2-5.5 1.9-8.6 1.9-5.1-.1-8.9-2-9-2zM66.8 51c-.9.9-1.5 2.2-1.5 3.5 0 2.8 2.3 5 5 5 2.8 0 5-2.2 5-5s-2.2-5-5-5c-1.3 0-2.6.5-3.5 1.5zm-14.1-5.3c-3 0-5.4 2.4-5.4 5.4 0 2.9 2.3 5.3 5.2 5.4l10.1-.9v-1.2c.1-1.8.8-3.6 2-5l1.8-1.9-13.7-1.8zm35.1-.1l-13.6 1.8 1.8 1.9c1.3 1.4 2 3.1 2 4.9v1.2l9.4 1h.1c2.9 0 5.3-2.4 5.3-5.3.1-3-2.2-5.4-5-5.5z"/></g></svg>