<svg xmlns="http://www.w3.org/2000/svg" viewBox="0 0 152.4 152.4"><style>.st0{fill:#fff}.st1{fill:#1e242b;stroke:#c2d52e;stroke-width:4;stroke-miterlimit:10}.st2{clip-path:url(#SVGID_2_)}.st3{clip-path:url(#SVGID_4_)}.st4,.st5,.st6{fill:#231f20}.st5{display:none;stroke:#fff;stroke-width:5;stroke-miterlimit:10}.st6{clip-path:url(#SVGID_6_)}.st7{clip-path:url(#SVGID_8_)}.st8{clip-path:url(#SVGID_10_);fill:#231f20}.st9{fill:none}.st10{clip-path:url(#SVGID_12_);fill:#231f20}.st11{fill:#ec1c24}.st12,.st13{clip-path:url(#SVGID_16_);fill:#fff}.st13{clip-path:url(#SVGID_18_)}.st14{clip-path:url(#SVGID_20_)}.st15{clip-path:url(#SVGID_22_)}.st16{clip-path:url(#SVGID_24_)}.st17{clip-path:url(#SVGID_26_)}.st18,.st19,.st20{fill:#1e242b}.st19,.st20{stroke:#fff;stroke-miterlimit:10}.st20{fill:none;stroke-width:2}.st21{clip-path:url(#SVGID_30_)}.st22{clip-path:url(#SVGID_32_)}.st23{clip-path:url(#SVGID_34_)}.st24{clip-path:url(#SVGID_36_)}.st25{clip-path:url(#SVGID_38_)}.st26{clip-path:url(#SVGID_40_)}.st27{clip-path:url(#SVGID_44_)}.st28{clip-path:url(#SVGID_46_)}.st29{clip-path:url(#SVGID_48_);fill:#231f20}.st30{clip-path:url(#SVGID_50_);fill:#fff}.st31{clip-path:url(#SVGID_52_)}.st32{clip-path:url(#SVGID_54_);fill:#fff}.st33{clip-path:url(#SVGID_56_)}.st34{clip-path:url(#SVGID_58_)}.st35{fill:#1e242b;stroke:#fff;stroke-width:2;stroke-miterlimit:10}.st36{clip-path:url(#SVGID_60_)}.st37{display:none}.st38{display:inline;fill:#fff;stroke:#fff;stroke-miterlimit:10}.st39{clip-path:url(#SVGID_64_)}.st40{display:none;fill:#231f20}.st41,.st42{fill-rule:evenodd;clip-rule:evenodd;fill:#231f20}.st42{fill:#fff}.st43{clip-path:url(#SVGID_68_)}.st44{fill:none;stroke:#000;stroke-width:3;stroke-miterlimit:10}</style><g id="Screen_3"><g class="st37"><path class="st38" d="M119.6 56.8l-35 27-9.8 21.6 24.5-6.3 33.1-26.6z"/></g><path class="st4" d="M86.7 61.9C74.1 52.7 69.9 45.1 69.4 42c-.3-1.8-.2-3.1.8-4.5.8-1.1 2-1 2.8-1h.7c.4 0 1.1-.1 1.5-.2 4.7-6.2 12-9.7 20-9.7h2.2L90.7 36c-.4.6-.3 1.4.3 1.9.6.4 1.4.3 1.9-.3l7.5-10.4.7.2c1.5.4 2.9.8 4.3 1.4l.4-.5c.9-1.2 2.6-1.5 3.9-.6l4.8 3.5c1.2.9 1.5 2.6.6 3.9l-.4.5c1 1.2 2 2.4 2.8 3.8l.4.6-7.5 10.3c-.4.6-.3 1.4.3 1.9s1.4.3 1.9-.3l6.7-9.2.7 2.1c2.5 7.6 1.3 15.6-3.1 22 .6 1.7.7 2.2.8 2.4l.1.3c.2.8.4 1.8-.4 2.8-1 1.2-4 2.1-9.5 1.1-5.7-1.1-14.9-7.1-19.8-10.6-.6-.4-1-.7-1.4-.9zM93 29c-6.5.6-12.2 3.7-16.1 8.9l-.2.2-.4.4H76c-.1 0-1.4.2-2.1.3H73c-.6 0-.8 0-.9.1-.5.7-.7 1.2-.4 2.8 0 .1 1.4 7.9 17.6 19.3 3.9 2.7 13.5 9.2 19 10.2 5 .9 7 0 7.3-.3.1-.1.1-.2 0-.9l-.1-.3c0-.1-.1-.5-.9-2.7l-.2-.6.3-.5c3.8-5.3 5.2-11.9 3.7-18.3l-4 5.5c-1.2 1.6-3.4 2-5 .8s-2-3.4-.8-5l6.6-9.1c-.8-1.2-1.7-2.4-2.7-3.4l-.6-.7 1.5-2c.2-.2.1-.6-.1-.7l-4.8-3.5c-.2-.2-.6-.1-.7.1l-1.5 2-.8-.4c-1.3-.6-2.6-1.1-4-1.5l-6.6 9.1c-1.2 1.6-3.4 2-5 .8s-2-3.4-.8-5L93 29z"/><path d="M97.7 78.2l-4.3-3.9c-.5-.4-1.1-.7-1.7-.6-.6 0-1.2.4-1.6.8-1-.8-1-1-1-2 0-.5 0-1.1-.3-1.8-.3-1.6-1.2-3.2-2.6-4.5l-4.4-4c-2.6-2.3-3.8-3.5-7-4.7-7-2.8-13.9-1.9-23.7 3.1-.6.3-.8.7-.6 1.3.1.6.6.9 1.2.9l1.5-.1c5.2-.2 7.9-.4 12.8 4.1 2.2 2 2.4 5.1.6 7.5-.2 0-.4.2-.6.4L62.5 79l-2.9 3.5-3 3.7-11.8 14.5L31.5 117c-.9 1-1.3 2.3-1.2 3.6.1 1.3.6 2.4 1.6 3.3l1.7 1.6c1 .8 2.2 1.2 3.3 1.1 1.2-.1 2.4-.6 3.3-1.6l12.9-15.9 19.2-23.7 1.8-2.2c.9.4 1.8.7 2.8.8.7.1 1.2.1 1.6 0 .9 0 1.2-.1 2.2.7-.5.4-.7 1-.6 1.6 0 .6.3 1.3.8 1.7l4.3 3.9c.6.7 1.6 1 2.5.9.9 0 1.9-.4 2.4-1.3l7.9-8.7c.7-.6 1-1.6.9-2.5 0-.6-.4-1.4-1.2-2.1zm-30.2 9.5c-.1.1-.3.2-.4.3l-4.4 5.5c-.1.1-.2.3-.3.5l-24 29.5c-.9 1-2.4 1.2-3.4.3l-1.7-1.4c-.5-.4-.8-1-.8-1.6 0-.7.2-1.3.7-1.9l.6-.8 1.8 1.6c.2.2.5.3.8.3.4 0 .6-.1.8-.4.4-.5.4-1.2-.1-1.6l-1.9-1.7 1.5-1.8 2 1.8c.2.2.5.3.8.3.4 0 .6-.1.8-.4.4-.5.4-1.2-.1-1.6l-2.1-1.9 28.6-35.2 5.2 4.7-4.4 5.5zm28.7-6.1l-7.9 8.7c-.4.5-1.2.5-1.6.1l-4.3-3.9c.5-.4.7-1 .5-1.7 0-.6-.3-1.3-.8-1.7-1.5-1.3-2.4-1.4-3.7-1.4-.4 0-.8 0-1.4-.1-1.3-.1-2.4-.6-3.4-1.5l-5.3-4.8c2.4-3.3 2-7.7-1-10.4-3.9-3.5-6.8-4.5-10-4.7 6.6-2.4 11.5-2.5 16.6-.5 2.9 1 3.9 1.9 6.4 4.3l4.4 4c1 .9 1.6 2 1.8 3.2.1.6.2 1.1.2 1.4.1 1.3.2 2.2 1.7 3.6.5.4 1.2.6 1.8.6.7 0 1.3-.3 1.6-.8l4.3 3.9c.2.2.4.5.4.8s0 .6-.3.9z" transform="translate(1 1)"/></g></svg>