<?xml version="1.0" encoding="utf-8"?>
<!-- Generator: Adobe Illustrator 22.0.1, SVG Export Plug-In . SVG Version: 6.00 Build 0)  -->
<svg version="1.1" xmlns="http://www.w3.org/2000/svg" xmlns:xlink="http://www.w3.org/1999/xlink" x="0px" y="0px"
	 viewBox="0 0 152.4 152.4" style="enable-background:new 0 0 152.4 152.4;" xml:space="preserve">
<style type="text/css">
	.st0{fill:#FFFFFF;}
	.st1{fill:#1E242B;stroke:#C2D52E;stroke-width:4;stroke-miterlimit:10;}
	.st2{clip-path:url(#SVGID_2_);}
	.st3{clip-path:url(#SVGID_4_);}
	.st4{fill:#231F20;}
	.st5{display:none;fill:#231F20;stroke:#FFFFFF;stroke-width:5;stroke-miterlimit:10;}
	.st6{clip-path:url(#SVGID_6_);fill:#231F20;}
	.st7{clip-path:url(#SVGID_8_);}
	.st8{clip-path:url(#SVGID_10_);fill:#231F20;}
	.st9{fill:none;}
	.st10{clip-path:url(#SVGID_12_);fill:#231F20;}
	.st11{fill:#EC1C24;}
	.st12{clip-path:url(#SVGID_16_);fill:#FFFFFF;}
	.st13{clip-path:url(#SVGID_18_);fill:#FFFFFF;}
	.st14{clip-path:url(#SVGID_20_);}
	.st15{clip-path:url(#SVGID_22_);}
	.st16{clip-path:url(#SVGID_24_);}
	.st17{clip-path:url(#SVGID_26_);}
	.st18{fill:#1E242B;}
	.st19{fill:#1E242B;stroke:#FFFFFF;stroke-miterlimit:10;}
	.st20{fill:none;stroke:#FFFFFF;stroke-width:2;stroke-miterlimit:10;}
	.st21{clip-path:url(#SVGID_30_);}
	.st22{clip-path:url(#SVGID_32_);}
	.st23{clip-path:url(#SVGID_34_);}
	.st24{clip-path:url(#SVGID_36_);}
	.st25{clip-path:url(#SVGID_38_);}
	.st26{clip-path:url(#SVGID_40_);}
	.st27{clip-path:url(#SVGID_44_);}
	.st28{clip-path:url(#SVGID_46_);}
	.st29{clip-path:url(#SVGID_48_);fill:#231F20;}
	.st30{clip-path:url(#SVGID_50_);fill:#FFFFFF;}
	.st31{clip-path:url(#SVGID_52_);}
	.st32{clip-path:url(#SVGID_54_);fill:#FFFFFF;}
	.st33{clip-path:url(#SVGID_56_);}
	.st34{clip-path:url(#SVGID_58_);}
	.st35{fill:#1E242B;stroke:#FFFFFF;stroke-width:2;stroke-miterlimit:10;}
	.st36{clip-path:url(#SVGID_60_);}
	.st37{display:none;}
	.st38{display:inline;fill:#FFFFFF;stroke:#FFFFFF;stroke-miterlimit:10;}
	.st39{clip-path:url(#SVGID_64_);}
	.st40{display:none;fill:#231F20;}
	.st41{fill-rule:evenodd;clip-rule:evenodd;fill:#231F20;}
	.st42{fill-rule:evenodd;clip-rule:evenodd;fill:#FFFFFF;}
	.st43{clip-path:url(#SVGID_68_);}
	.st44{fill:none;stroke:#000000;stroke-width:3;stroke-miterlimit:10;}
</style>
<g id="Screen_3">
	<g>
		<g>
			<g>
				<path d="M38.4,64.5c0,14.1,11.5,25.6,25.6,25.6c3.1,0,6.2-0.6,9.1-1.7l24.4,24.4c0.3,0.3,0.8,0.5,1.3,0.5h13.4
					c1,0,1.9-0.8,1.9-1.9v-11c0-0.5-0.2-1-0.5-1.3l-3.7-3.7c-0.3-0.4-0.8-0.5-1.3-0.5h-4.6v-4.6c0-1-0.8-1.9-1.9-1.9h-1.8v-1.8
					c0-1-0.8-1.9-1.9-1.9h-4v-4c0-0.5-0.2-1-0.5-1.3l-5.9-5.9c1.1-2.9,1.7-5.9,1.7-9.1C89.5,50.4,78,39,63.9,39
					C49.9,39,38.4,50.4,38.4,64.5z M85.8,64.5c0,3-0.6,6-1.8,8.8c-0.3,0.7-0.1,1.5,0.4,2c0,0,0,0,0,0l6.3,6.3v5.1
					c0,1,0.8,1.9,1.9,1.9h4v1.8c0,1,0.8,1.9,1.9,1.9h1.8v4.6c0,1,0.8,1.9,1.9,1.9h5.7l2.6,2.6v8.4h-2.6L84.9,86.9
					c-0.7-0.7-1.7-0.7-2.4,0c-0.7,0.7-0.7,1.7,0,2.4l20.4,20.4h-3.4L74.8,84.9c0,0,0,0,0,0c-0.5-0.5-1.3-0.7-2-0.4
					c-2.8,1.2-5.7,1.8-8.8,1.8c-12,0-21.8-9.8-21.8-21.8s9.8-21.8,21.8-21.8C76,42.7,85.8,52.5,85.8,64.5z"/>
			</g>
		</g>
		<g>
			<g>
				<path d="M49.2,56.8c0,3.8,3.1,7,7,7s7-3.1,7-7s-3.1-7-7-7S49.2,52.9,49.2,56.8z M59.4,56.8c0,1.8-1.5,3.3-3.3,3.3
					s-3.3-1.5-3.3-3.3s1.5-3.3,3.3-3.3C58,53.5,59.4,55,59.4,56.8z"/>
			</g>
		</g>
	</g>
</g>
<g id="Screen_4">
</g>
<g id="Screen_9">
</g>
</svg>
