<?xml version="1.0" encoding="utf-8"?>
<!-- Generator: Adobe Illustrator 22.0.1, SVG Export Plug-In . SVG Version: 6.00 Build 0)  -->
<svg version="1.1" xmlns="http://www.w3.org/2000/svg" xmlns:xlink="http://www.w3.org/1999/xlink" x="0px" y="0px"
	 viewBox="0 0 152.4 152.4" style="enable-background:new 0 0 152.4 152.4;" xml:space="preserve">
<style type="text/css">
	path{fill:#f1f1f1;stroke:#f1f1f1;}
	.st0{fill:#FFFFFF;}
	.st1{fill:#1E242B;stroke:#C2D52E;stroke-width:4;stroke-miterlimit:10;}
	.st2{clip-path:url(#SVGID_2_);}
	.st3{clip-path:url(#SVGID_4_);}
	.st4{fill:#231F20;}
	.st5{display:none;fill:#231F20;stroke:#FFFFFF;stroke-width:5;stroke-miterlimit:10;}
	.st6{clip-path:url(#SVGID_6_);fill:#231F20;}
	.st7{clip-path:url(#SVGID_8_);}
	.st8{clip-path:url(#SVGID_10_);fill:#231F20;}
	.st9{fill:none;}
	.st10{clip-path:url(#SVGID_12_);fill:#231F20;}
	.st11{fill:#EC1C24;}
	.st12{clip-path:url(#SVGID_16_);fill:#FFFFFF;}
	.st13{clip-path:url(#SVGID_18_);fill:#FFFFFF;}
	.st14{clip-path:url(#SVGID_20_);}
	.st15{clip-path:url(#SVGID_22_);}
	.st16{clip-path:url(#SVGID_24_);}
	.st17{clip-path:url(#SVGID_26_);}
	.st18{fill:#1E242B;}
	.st19{fill:#1E242B;stroke:#FFFFFF;stroke-miterlimit:10;}
	.st20{fill:none;stroke:#FFFFFF;stroke-width:2;stroke-miterlimit:10;}
	.st21{clip-path:url(#SVGID_30_);}
	.st22{clip-path:url(#SVGID_32_);}
	.st23{clip-path:url(#SVGID_34_);}
	.st24{clip-path:url(#SVGID_36_);}
	.st25{clip-path:url(#SVGID_38_);}
	.st26{clip-path:url(#SVGID_40_);}
	.st27{clip-path:url(#SVGID_44_);}
	.st28{clip-path:url(#SVGID_46_);}
	.st29{clip-path:url(#SVGID_48_);fill:#231F20;}
	.st30{clip-path:url(#SVGID_50_);fill:#FFFFFF;}
	.st31{clip-path:url(#SVGID_52_);}
	.st32{clip-path:url(#SVGID_54_);fill:#FFFFFF;}
	.st33{clip-path:url(#SVGID_56_);}
	.st34{clip-path:url(#SVGID_58_);}
	.st35{fill:#1E242B;stroke:#FFFFFF;stroke-width:2;stroke-miterlimit:10;}
	.st36{clip-path:url(#SVGID_60_);}
	.st37{display:none;}
	.st38{display:inline;fill:#FFFFFF;stroke:#FFFFFF;stroke-miterlimit:10;}
	.st39{clip-path:url(#SVGID_64_);}
	.st40{display:none;fill:#231F20;}
	.st41{fill-rule:evenodd;clip-rule:evenodd;fill:#231F20;}
	.st42{fill-rule:evenodd;clip-rule:evenodd;fill:#FFFFFF;}
	.st43{clip-path:url(#SVGID_68_);}
	.st44{fill:none;stroke:#000000;stroke-width:3;stroke-miterlimit:10;}
</style>
<g id="Screen_3">
	<g>
		<g>
			<path d="M81.4,42.2c-7.7-5.8-16.4,2.9-10.7,10.7c0.1,0.1,0.2,0.2,0.2,0.2c7.7,5.7,16.4-2.9,10.7-10.7
				C81.6,42.3,81.5,42.2,81.4,42.2z M76.2,51c-1.9,0-3.4-1.5-3.4-3.4c0-1.9,1.5-3.4,3.4-3.4s3.4,1.5,3.4,3.4
				C79.6,49.5,78.1,51,76.2,51z"/>
			<path d="M38.5,32.3v87.8c0,0.5,0.4,0.9,0.9,0.9h73.5c0.5,0,0.9-0.4,0.9-0.9V32.3c0-0.5-0.4-0.9-0.9-0.9H39.5
				C38.9,31.4,38.5,31.8,38.5,32.3z M42.4,59V36.2c0-0.5,0.4-0.9,0.9-0.9H109c0.5,0,0.9,0.4,0.9,0.9V59c0,0.5-0.4,0.9-0.9,0.9H43.4
				C42.9,59.9,42.4,59.5,42.4,59z M42.4,87.6V64.8c0-0.5,0.4-0.9,0.9-0.9H109c0.5,0,0.9,0.4,0.9,0.9v22.8c0,0.5-0.4,0.9-0.9,0.9
				H43.4C42.9,88.5,42.4,88.1,42.4,87.6z M42.4,116.2V93.4c0-0.5,0.4-0.9,0.9-0.9H109c0.5,0,0.9,0.4,0.9,0.9v22.8
				c0,0.5-0.4,0.9-0.9,0.9H43.4C42.9,117.1,42.4,116.7,42.4,116.2z"/>
			<path d="M81.4,99.3c-7.7-5.8-16.4,2.9-10.7,10.7c0.1,0.1,0.2,0.2,0.2,0.2c7.7,5.8,16.4-2.9,10.7-10.7
				C81.6,99.5,81.5,99.4,81.4,99.3z M76.2,108.2c-1.9,0-3.4-1.5-3.4-3.4c0-1.9,1.5-3.4,3.4-3.4s3.4,1.5,3.4,3.4
				C79.6,106.6,78.1,108.2,76.2,108.2z"/>
			<path d="M81.4,70.7C73.7,65,65,73.7,70.7,81.4c0.1,0.1,0.2,0.2,0.2,0.2c7.7,5.8,16.4-2.9,10.7-10.7
				C81.6,70.9,81.5,70.8,81.4,70.7z M76.2,79.6c-1.9,0-3.4-1.5-3.4-3.4c0-1.9,1.5-3.4,3.4-3.4s3.4,1.5,3.4,3.4
				C79.6,78.1,78.1,79.6,76.2,79.6z"/>
		</g>
	</g>
</g>
<g id="Screen_4">
</g>
<g id="Screen_9">
</g>
</svg>
