<svg xmlns="http://www.w3.org/2000/svg" viewBox="0 0 152.4 152.4"><title>_</title><g id="Screen_9" data-name="Screen 9"><path d="M121.22,124.1h-2.89V33.49a1.73,1.73,0,0,0-1.73-1.74H84.28a1.73,1.73,0,0,0-1.73,1.74V41H79.08v-7.5a1.73,1.73,0,0,0-1.73-1.74h-7.5V26.56a1.73,1.73,0,1,0-3.46,0v5.19H58.88a1.74,1.74,0,0,0-1.73,1.74V41H52a1.73,1.73,0,0,0-1.74,1.73V57.15H35.79a1.74,1.74,0,0,0-1.73,1.73V124.1H31.18a1.74,1.74,0,0,0,0,3.47h90a1.74,1.74,0,0,0,0-3.47ZM60.61,35.22h15V41h-15ZM49.07,124.1v-5.77h5.77v5.77M66.39,79.66V124.1H58.3v-7.5a1.72,1.72,0,0,0-1.73-1.73H47.34a1.72,1.72,0,0,0-1.73,1.73v7.5H37.53V60.61H66.39v19Zm1.73-22.51H53.69V44.45H82.55V77.93H69.85V72.16H75a1.74,1.74,0,1,0,0-3.47H69.85V62.92H75a1.73,1.73,0,1,0,0-3.46H69.85v-.58A1.74,1.74,0,0,0,68.12,57.15ZM98.71,124.1H69.85V81.39H98.71Zm16.16,0h-12.7V77.35a1.73,1.73,0,0,0-3.46,0v.58H95.25v-.58a1.74,1.74,0,0,0-3.47,0v.58H86V35.22h28.86V124.1Z"/><path d="M77.35,120.64a1.72,1.72,0,0,0,1.73-1.73V86.59a1.73,1.73,0,1,0-3.46,0v32.32A1.73,1.73,0,0,0,77.35,120.64Z"/><path d="M84.28,120.64A1.73,1.73,0,0,0,86,118.91V86.59a1.73,1.73,0,0,0-3.46,0v32.32A1.72,1.72,0,0,0,84.28,120.64Z"/><path d="M91.2,120.64a1.73,1.73,0,0,0,1.74-1.73V86.59a1.74,1.74,0,0,0-3.47,0v32.32A1.73,1.73,0,0,0,91.2,120.64Z"/><path d="M93.51,46.76A1.73,1.73,0,0,0,95.25,45V42.72a1.74,1.74,0,0,0-3.47,0V45A1.73,1.73,0,0,0,93.51,46.76Z"/><path d="M100.44,46.76A1.72,1.72,0,0,0,102.17,45V42.72a1.73,1.73,0,0,0-3.46,0V45A1.72,1.72,0,0,0,100.44,46.76Z"/><path d="M107.37,46.76A1.73,1.73,0,0,0,109.1,45V42.72a1.74,1.74,0,0,0-3.47,0V45A1.73,1.73,0,0,0,107.37,46.76Z"/><path d="M93.51,58.3a1.73,1.73,0,0,0,1.74-1.73V54.26a1.74,1.74,0,0,0-3.47,0v2.31A1.73,1.73,0,0,0,93.51,58.3Z"/><path d="M100.44,58.3a1.72,1.72,0,0,0,1.73-1.73V54.26a1.73,1.73,0,0,0-3.46,0v2.31A1.72,1.72,0,0,0,100.44,58.3Z"/><path d="M107.37,58.3a1.73,1.73,0,0,0,1.73-1.73V54.26a1.74,1.74,0,0,0-3.47,0v2.31A1.73,1.73,0,0,0,107.37,58.3Z"/><path d="M93.51,69.85a1.74,1.74,0,0,0,1.74-1.73V65.81a1.74,1.74,0,0,0-3.47,0v2.31A1.74,1.74,0,0,0,93.51,69.85Z"/><path d="M100.44,69.85a1.73,1.73,0,0,0,1.73-1.73V65.81a1.73,1.73,0,0,0-3.46,0v2.31A1.73,1.73,0,0,0,100.44,69.85Z"/><path d="M107.37,69.85a1.74,1.74,0,0,0,1.73-1.73V65.81a1.74,1.74,0,0,0-3.47,0v2.31A1.74,1.74,0,0,0,107.37,69.85Z"/><path d="M45,74.47a1.73,1.73,0,0,0,1.73-1.74v-2.3a1.73,1.73,0,1,0-3.46,0v2.3A1.73,1.73,0,0,0,45,74.47Z"/><path d="M52,74.47a1.74,1.74,0,0,0,1.73-1.74v-2.3a1.74,1.74,0,1,0-3.47,0v2.3A1.74,1.74,0,0,0,52,74.47Z"/><path d="M58.88,74.47a1.73,1.73,0,0,0,1.73-1.74v-2.3a1.73,1.73,0,1,0-3.46,0v2.3A1.74,1.74,0,0,0,58.88,74.47Z"/><path d="M45,86a1.72,1.72,0,0,0,1.73-1.73V82a1.73,1.73,0,1,0-3.46,0v2.31A1.73,1.73,0,0,0,45,86Z"/><path d="M52,86a1.73,1.73,0,0,0,1.73-1.73V82a1.74,1.74,0,0,0-3.47,0v2.31A1.74,1.74,0,0,0,52,86Z"/><path d="M58.88,86a1.72,1.72,0,0,0,1.73-1.73V82a1.73,1.73,0,1,0-3.46,0v2.31A1.74,1.74,0,0,0,58.88,86Z"/><path d="M45,97.55a1.72,1.72,0,0,0,1.73-1.73V93.51a1.73,1.73,0,1,0-3.46,0v2.31A1.72,1.72,0,0,0,45,97.55Z"/><path d="M52,97.55a1.73,1.73,0,0,0,1.73-1.73V93.51a1.74,1.74,0,0,0-3.47,0v2.31A1.73,1.73,0,0,0,52,97.55Z"/><path d="M58.88,97.55a1.72,1.72,0,0,0,1.73-1.73V93.51a1.73,1.73,0,1,0-3.46,0v2.31A1.73,1.73,0,0,0,58.88,97.55Z"/><path d="M45,109.1a1.73,1.73,0,0,0,1.73-1.73v-2.31a1.73,1.73,0,1,0-3.46,0v2.31A1.73,1.73,0,0,0,45,109.1Z"/><path d="M52,109.1a1.74,1.74,0,0,0,1.73-1.73v-2.31a1.74,1.74,0,0,0-3.47,0v2.31A1.74,1.74,0,0,0,52,109.1Z"/><path d="M58.88,109.1a1.73,1.73,0,0,0,1.73-1.73v-2.31a1.73,1.73,0,1,0-3.46,0v2.31A1.74,1.74,0,0,0,58.88,109.1Z"/><path d="M107.37,81.39a1.73,1.73,0,0,0,1.73-1.73V77.35a1.74,1.74,0,0,0-3.47,0v2.31A1.73,1.73,0,0,0,107.37,81.39Z"/><path d="M107.37,92.94a1.74,1.74,0,0,0,1.73-1.74V88.9a1.74,1.74,0,1,0-3.47,0v2.3A1.74,1.74,0,0,0,107.37,92.94Z"/><path d="M107.37,104.48a1.73,1.73,0,0,0,1.73-1.73v-2.31a1.74,1.74,0,0,0-3.47,0v2.31A1.73,1.73,0,0,0,107.37,104.48Z"/><path d="M107.37,116a1.73,1.73,0,0,0,1.73-1.73V112a1.74,1.74,0,0,0-3.47,0v2.31A1.73,1.73,0,0,0,107.37,116Z"/><path d="M76.77,52A1.73,1.73,0,0,0,75,50.22H61.19a1.74,1.74,0,0,0,0,3.47H75A1.73,1.73,0,0,0,76.77,52Z"/></g></svg>