<?xml version="1.0" encoding="utf-8"?>
<!-- Generator: Adobe Illustrator 22.0.1, SVG Export Plug-In . SVG Version: 6.00 Build 0)  -->
<svg version="1.1" xmlns="http://www.w3.org/2000/svg" xmlns:xlink="http://www.w3.org/1999/xlink" x="0px" y="0px"
	 viewBox="0 0 152.4 152.4" style="enable-background:new 0 0 152.4 152.4;" xml:space="preserve">
<style type="text/css">
	.st0{fill:#FFFFFF;}
	.st1{fill:#1E242B;stroke:#C2D52E;stroke-width:4;stroke-miterlimit:10;}
	.st2{clip-path:url(#SVGID_2_);}
	.st3{clip-path:url(#SVGID_4_);}
	.st4{fill:#231F20;}
	.st5{display:none;fill:#231F20;stroke:#FFFFFF;stroke-width:5;stroke-miterlimit:10;}
	.st6{clip-path:url(#SVGID_6_);fill:#231F20;}
	.st7{clip-path:url(#SVGID_8_);}
	.st8{clip-path:url(#SVGID_10_);fill:#231F20;}
	.st9{fill:none;}
	.st10{clip-path:url(#SVGID_12_);fill:#231F20;}
	.st11{fill:#EC1C24;}
	.st12{clip-path:url(#SVGID_16_);fill:#FFFFFF;}
	.st13{clip-path:url(#SVGID_18_);fill:#FFFFFF;}
	.st14{clip-path:url(#SVGID_20_);}
	.st15{clip-path:url(#SVGID_22_);}
	.st16{clip-path:url(#SVGID_24_);}
	.st17{clip-path:url(#SVGID_26_);}
	.st18{fill:#1E242B;}
	.st19{fill:#1E242B;stroke:#FFFFFF;stroke-miterlimit:10;}
	.st20{fill:none;stroke:#FFFFFF;stroke-width:2;stroke-miterlimit:10;}
	.st21{clip-path:url(#SVGID_30_);}
	.st22{clip-path:url(#SVGID_32_);}
	.st23{clip-path:url(#SVGID_34_);}
	.st24{clip-path:url(#SVGID_36_);}
	.st25{clip-path:url(#SVGID_38_);}
	.st26{clip-path:url(#SVGID_40_);}
	.st27{clip-path:url(#SVGID_44_);}
	.st28{clip-path:url(#SVGID_46_);}
	.st29{clip-path:url(#SVGID_48_);fill:#231F20;}
	.st30{clip-path:url(#SVGID_50_);fill:#FFFFFF;}
	.st31{clip-path:url(#SVGID_52_);}
	.st32{clip-path:url(#SVGID_54_);fill:#FFFFFF;}
	.st33{clip-path:url(#SVGID_56_);}
	.st34{clip-path:url(#SVGID_58_);}
	.st35{fill:#1E242B;stroke:#FFFFFF;stroke-width:2;stroke-miterlimit:10;}
	.st36{clip-path:url(#SVGID_60_);}
	.st37{display:none;}
	.st38{display:inline;fill:#FFFFFF;stroke:#FFFFFF;stroke-miterlimit:10;}
	.st39{clip-path:url(#SVGID_64_);}
	.st40{display:none;fill:#231F20;}
	.st41{fill-rule:evenodd;clip-rule:evenodd;fill:#231F20;}
	.st42{fill-rule:evenodd;clip-rule:evenodd;fill:#FFFFFF;}
	.st43{clip-path:url(#SVGID_68_);}
	.st44{fill:none;stroke:#000000;stroke-width:3;stroke-miterlimit:10;}
</style>
<g id="Screen_3">
	<g>
		<g>
			<g>
				<path class="st0" d="M42.6,122.6c-4.9,0-10.8-2.9-12.3-7.6c-0.3-0.8-0.8-1.7-1.2-2.5c-1.4-2.5-3.1-5.4,1.1-8.5
					c0.1-0.5-0.3-2.6-1.1-3.7c-3.6-5.4-6.1-11.4-8.4-17.2c-0.3-0.8-0.7-1.6-1-2.5l-0.2-0.4c-1.8-4.3-1.7-4.5,2.9-8.9l0.5-0.5
					l0.3,0.6c2.2,4.7,5.6,6.6,10.6,5.9c5.5-0.8,7.7-3,7.6-7.6c-0.1-4.8-0.1-9.6-0.1-14.7c0-2.3,0-4.7,0-7.2v-0.9l0.8,0.4
					c4.8,2.8,5.7,6.4,6.4,9.5c0.2,0.8-0.1,1.6-0.4,2.4c-0.3,0.7-0.5,1.4-0.3,1.9c0.1,0.3,0.5,0.6,1.1,0.8c2.7,0.9,5.3,0.2,7.3-1.9
					c0.1-0.1,0.2-0.2,0.3-0.3c0.1,0,0.1-0.1,0.2-0.1c1.6-3.8,3.7-6.1,6.3-7.1c2.9-1.1,6.4-0.5,11.1,1.9c1.9,0.9,4.4-0.3,6.8-3.5
					c0.7-0.9,1.3-1.7,2-2.6c5.5-7.1,11.1-14.4,19.8-18.4c3.9-1.8,8.3-1.9,12-0.2c3.6,1.6,6.2,4.6,7.4,8.5c0.3,1.1,0.8,2.1,1.3,3.2
					c1.1,2.3,2.2,4.7,1.6,7.4c-0.2,0.7,0,1.6,0.1,2.6c0.2,1.7,0.5,3.6-0.6,4.7c-0.9,0.9-2.6,1.1-5.2,0.7c-0.3-0.1-0.9,0.3-1.4,1.1
					c-0.9,1.4-1.3,3.6-0.2,5.2l0.1,0.1c0.8,1.1,1.9,2.7,3.1,2.7c0.8,0,1.5-0.8,2.3-2.2c1.4-2.6,4.2-1.5,5.8-0.8l0.4,0.2
					c0.6,0.2,1,0.6,1.2,1.1c0.3,0.8-0.1,1.7-0.4,2.4c-0.2,0.4-0.3,0.8-0.4,1.1c-1,5.5-3.1,9.3-7.2,12.7c-3.6,3-6,6.8-8.5,10.9
					c-2,3.2-4.1,6.6-6.8,9.5c-12.5,13.2-26.6,19-43.2,17.7c-4.8-0.4-9.2,1-13.5,2.3c-1.8,0.6-3.7,1.2-5.7,1.6
					C44.4,122.5,43.5,122.6,42.6,122.6z M22.6,72.5c-3.7,3.6-3.6,3.7-2.2,7.3l0.2,0.4c0.3,0.8,0.7,1.6,1,2.5
					c2.3,5.8,4.8,11.7,8.3,17c0.7,1.1,1.8,4.3,0.9,5c-3.5,2.6-2.3,4.7-0.8,7.2c0.5,0.9,1,1.8,1.3,2.7c1.6,5,8.8,7.8,13.6,6.7
					c1.9-0.4,3.8-1,5.6-1.6c4.4-1.4,8.9-2.8,13.9-2.4c16.3,1.3,30.2-4.4,42.4-17.4c2.6-2.8,4.7-6.1,6.7-9.3c2.5-4,5-8.1,8.7-11.1
					c3.9-3.2,5.9-6.9,6.8-12.1v0c0.1-0.4,0.3-0.9,0.5-1.3c0.3-0.6,0.6-1.2,0.4-1.6c-0.1-0.2-0.3-0.4-0.7-0.5l-0.4-0.2
					c-2-0.8-3.7-1.3-4.6,0.4c-1,1.8-2,2.7-3.1,2.8c-1.7,0.1-3-1.7-3.9-3.1l-0.1-0.1c-1.4-2-0.9-4.7,0.2-6.3c0.7-1.1,1.6-1.7,2.4-1.6
					c2.2,0.4,3.7,0.2,4.3-0.4c0.8-0.8,0.6-2.3,0.3-3.8c-0.2-1.1-0.3-2.1-0.1-3c0.5-2.4-0.5-4.5-1.5-6.8c-0.5-1.1-1-2.2-1.4-3.3
					c-1.1-3.6-3.5-6.4-6.9-7.9c-3.5-1.5-7.5-1.5-11.2,0.2c-8.5,3.9-14.1,11.1-19.5,18.1c-0.7,0.9-1.3,1.7-2,2.6
					c-2.8,3.6-5.7,4.9-8.1,3.7c-4.4-2.2-7.7-2.8-10.3-1.8c-2.4,0.9-4.2,3-5.7,6.6c-0.1,0.3-0.3,0.4-0.5,0.5c-0.1,0-0.1,0.1-0.2,0.1
					c-2.3,2.5-5.3,3.2-8.4,2.2c-0.8-0.3-1.4-0.7-1.7-1.3c-0.4-0.8-0.1-1.8,0.2-2.6c0.2-0.6,0.5-1.3,0.3-1.8
					c-0.7-2.9-1.4-5.9-5.2-8.4c0,2.2,0,4.3,0,6.3c0,5.1-0.1,9.9,0.1,14.7c0.2,6.6-4.2,8.1-8.5,8.7C28.8,79.1,25,77.1,22.6,72.5z"/>
				<g>
					<path d="M109.1,29c5.7,0,10.9,3.5,12.6,9.4c1,3.4,3.7,6.6,2.9,10.3c-0.6,2.6,2.5,7.8-2.9,7.8c-0.6,0-1.3-0.1-2.2-0.2
						c0,0-0.1,0-0.2,0c-1.7,0-3.9,4.4-1.9,7.1c0.9,1.2,2.1,3,3.5,3c0.9,0,1.8-0.7,2.8-2.5c0.6-1,1.4-1.4,2.2-1.4
						c1.1,0,2.4,0.6,3.4,0.9c2.1,0.8,0.4,2.7,0.1,4c-0.9,4.9-2.7,8.8-7,12.4c-6.5,5.4-9.4,14-15.4,20.4
						C96.3,111.8,83.9,118,68.9,118c-1.5,0-3-0.1-4.5-0.2c-0.6,0-1.1-0.1-1.7-0.1c-6.3,0-11.8,2.7-17.6,4c-0.8,0.2-1.6,0.3-2.4,0.3
						c-4.8,0-10.4-2.9-11.8-7.3c-1.1-3.5-5.5-6.7-0.3-10.5c0.5-0.4-0.2-3.1-1-4.3c-4.1-6.1-6.6-12.9-9.4-19.6
						c-1.8-4.4-2-4.3,2.6-8.8c1.9,4.2,4.9,6.3,9.1,6.3c0.6,0,1.3,0,2-0.1c4.8-0.7,8.2-2.5,8-8.2c-0.2-7,0-13.9,0-21.9
						c4.5,2.7,5.4,5.9,6.2,9.2c0.4,1.8-2.4,4.3,0.8,5.4c0.8,0.3,1.7,0.4,2.5,0.4c2,0,3.8-0.8,5.3-2.5c0.2-0.2,0.5-0.3,0.6-0.5
						c2.2-5.2,5.1-7.3,8.8-7.3c2.3,0,5,0.8,7.9,2.3c0.5,0.3,1,0.4,1.5,0.4c1.9,0,4-1.6,5.9-4c6.2-7.8,12-16.4,21.7-20.8
						C105.1,29.5,107.1,29,109.1,29 M109.1,27.3l0,1.7L109.1,27.3c-2.3,0-4.6,0.5-6.8,1.5c-9,4.1-14.7,11.5-20.3,18.7
						c-0.7,0.8-1.3,1.7-2,2.6c-1.6,2.1-3.3,3.3-4.5,3.3c-0.3,0-0.5-0.1-0.8-0.2c-3.3-1.7-6.2-2.5-8.7-2.5c-2.3,0-4.3,0.7-6.1,2.1
						c-1.7,1.3-3.1,3.3-4.2,5.9c-0.1,0.1-0.3,0.2-0.4,0.4c-1.2,1.3-2.6,1.9-4.1,1.9c-0.6,0-1.3-0.1-1.9-0.3
						c-0.2-0.1-0.3-0.1-0.3-0.1c0-0.2,0.2-0.6,0.3-0.9c0.3-0.9,0.7-1.9,0.4-3.1c-0.8-3.2-1.7-7.2-7-10.3l-2.6-1.6v3.1
						c0,2.5,0,4.9,0,7.2c0,5.1-0.1,9.9,0.1,14.7c0.1,4-1.6,5.7-6.5,6.4c-0.6,0.1-1.2,0.1-1.7,0.1c-3.5,0-5.9-1.7-7.6-5.3l-1-2.2
						l-1.8,1.7c-2.3,2.3-3.6,3.5-4.1,5c-0.5,1.7,0.1,3.1,0.9,5.3l0.2,0.4c0.3,0.8,0.7,1.6,1,2.5c2.4,5.9,4.8,12,8.6,17.5
						c0.4,0.6,0.7,1.7,0.8,2.4c-1.8,1.5-2.7,3.2-2.6,5.1c0.1,1.7,0.9,3.3,1.7,4.6c0.5,0.8,0.9,1.6,1.1,2.3c0.8,2.5,2.7,4.7,5.4,6.3
						c2.4,1.4,5.4,2.2,8.1,2.2c1,0,1.9-0.1,2.8-0.3c2-0.5,3.9-1.1,5.7-1.6c3.9-1.2,7.5-2.3,11.5-2.3c0.5,0,1,0,1.6,0.1
						c1.6,0.1,3.1,0.2,4.7,0.2c15,0,28-6,39.6-18.3c2.8-3,4.9-6.4,7-9.6c2.5-4,4.9-7.8,8.3-10.6c4.3-3.6,6.6-7.6,7.6-13.5
						c0-0.1,0.2-0.5,0.3-0.8c0.4-0.9,0.9-2.1,0.4-3.4c-0.3-0.8-1-1.4-1.9-1.8c-0.1-0.1-0.3-0.1-0.4-0.2c-1-0.4-2.3-0.9-3.6-0.9
						c-1.6,0-3,0.8-3.8,2.3c-0.8,1.5-1.3,1.6-1.3,1.6c0,0-0.2,0-0.7-0.5c-0.5-0.5-0.9-1.1-1.3-1.6l-0.1-0.1
						c-0.6-0.8-0.5-1.9-0.3-2.5c0.2-0.9,0.7-1.6,0.9-1.8c0.8,0.1,1.6,0.2,2.2,0.2c1.8,0,3.1-0.5,4-1.5c1.4-1.6,1-3.8,0.8-5.5
						c-0.1-0.8-0.3-1.7-0.2-2.2c0.7-3.1-0.6-5.8-1.7-8.2c-0.5-1-1-2-1.2-3c-1-3.2-2.9-5.9-5.5-7.8C115.4,28.3,112.3,27.3,109.1,27.3
						L109.1,27.3z"/>
					<path d="M42.6,124.3c-2.8,0-5.8-0.8-8.3-2.3c-2.8-1.6-4.8-4-5.6-6.5c-0.2-0.7-0.6-1.4-1.1-2.2c-0.8-1.4-1.7-3-1.8-4.8
						c-0.1-2,0.8-3.7,2.6-5.3c-0.1-0.6-0.4-1.5-0.7-1.9c-3.7-5.5-6.2-11.6-8.6-17.6l-1.2-2.9c-0.9-2.2-1.6-3.8-1-5.6
						c0.5-1.6,1.8-2.9,4.2-5.2l2.3-2.2l1.3,2.9c1.8,4,4.5,5.5,8.8,4.9c4.7-0.7,6.2-2.1,6.1-5.9c-0.1-4.8-0.1-9.6-0.1-14.7l0-0.3
						c0-2.2,0-4.6,0-7v-3.9l3.4,2c5.4,3.2,6.4,7.3,7.2,10.6c0.3,1.3-0.1,2.5-0.4,3.4c0,0.1-0.1,0.3-0.2,0.4c2,0.6,3.8,0.1,5.4-1.5
						c0.1-0.1,0.2-0.2,0.4-0.3c1.2-2.7,2.6-4.6,4.3-6c1.8-1.5,4-2.2,6.4-2.2c2.6,0,5.5,0.8,8.9,2.6c0.2,0.1,0.3,0.1,0.5,0.1
						c1,0,2.6-1.2,4.2-3.1c0.6-0.8,1.2-1.6,1.8-2.3l0.2-0.2C87.2,40,93,32.5,102.1,28.4c2.1-1,4.3-1.5,6.5-1.6v0h0.5c0,0,0,0,0,0
						l0.5,0c3.1,0.1,6.1,1.1,8.6,2.9c2.7,2,4.7,4.7,5.7,8c0.3,0.9,0.7,1.9,1.2,2.9c1.2,2.5,2.5,5.3,1.7,8.6c-0.1,0.4,0.1,1.3,0.2,2
						c0.3,1.9,0.6,4.2-0.9,5.9c-1,1.1-2.4,1.7-4.4,1.7c-0.6,0-1.3-0.1-2-0.2c-0.2,0.2-0.5,0.7-0.6,1.4c-0.1,0.5-0.2,1.4,0.2,2.1
						l0.1,0.1c0.4,0.5,0.8,1.1,1.2,1.6c0.1,0.1,0.2,0.2,0.3,0.3c0.1-0.1,0.5-0.5,0.9-1.3c0.9-1.6,2.4-2.5,4.2-2.5
						c1.4,0,2.7,0.5,3.8,0.9l0.4,0.2c1.1,0.4,1.8,1.1,2.2,2c0.6,1.5,0,2.9-0.4,3.8c-0.1,0.2-0.2,0.5-0.3,0.7c-1,6-3.4,10.1-7.8,13.8
						c-3.3,2.8-5.7,6.5-8.2,10.5c-2.1,3.3-4.2,6.7-7,9.7c-11.7,12.4-24.8,18.4-39.9,18.4c-1.5,0-3.1-0.1-4.7-0.2
						c-0.5,0-1-0.1-1.5-0.1c-3.9,0-7.5,1.1-11.3,2.3c-1.9,0.6-3.8,1.2-5.8,1.7C44.6,124.2,43.7,124.3,42.6,124.3z M23.1,69.5
						l-1.3,1.2c-2.3,2.2-3.5,3.4-4,4.8c-0.5,1.5,0,2.8,0.9,4.9l1.2,2.9c2.4,5.9,4.8,11.9,8.5,17.4c0.5,0.7,0.8,1.9,0.9,2.6l0,0.3
						l-0.2,0.2c-1.7,1.4-2.5,2.9-2.4,4.7c0.1,1.6,0.9,3.1,1.6,4.4c0.5,0.8,0.9,1.6,1.2,2.4c0.7,2.3,2.6,4.5,5.2,6
						c3.2,1.9,7.3,2.6,10.5,1.9c1.9-0.5,3.8-1.1,5.7-1.6c3.9-1.2,7.6-2.4,11.6-2.4c0.5,0,1.1,0,1.6,0.1c1.6,0.1,3.1,0.2,4.6,0.2
						c14.9,0,27.7-5.9,39.2-18.1c2.8-2.9,4.9-6.3,6.9-9.6c2.5-4,4.9-7.8,8.4-10.7c4.2-3.5,6.4-7.5,7.4-13.2c0-0.2,0.2-0.5,0.3-0.9
						c0.4-0.9,0.9-1.9,0.4-3c-0.3-0.7-0.8-1.2-1.7-1.5l-0.4-0.1c-1-0.4-2.2-0.9-3.4-0.9c-1.4,0-2.6,0.7-3.3,2
						c-0.9,1.6-1.5,1.8-1.6,1.8l-0.1,0l-0.1,0c-0.2,0-0.5-0.2-1-0.6c-0.5-0.5-0.9-1.1-1.3-1.7l-0.1-0.1c-0.7-1-0.6-2.3-0.4-2.9
						c0.2-1,0.7-1.8,1.1-2.1l0.2-0.2l0.2,0c2.9,0.5,4.7,0.1,5.8-1.1c1.2-1.4,0.9-3.5,0.6-5.1c-0.1-0.9-0.3-1.8-0.1-2.4
						c0.7-3-0.6-5.6-1.7-7.9c-0.5-1.1-1-2.1-1.3-3.1c-0.9-3.1-2.8-5.7-5.3-7.5c-2.3-1.7-5.1-2.6-8-2.7v0.7c5.9,0.2,10.9,4,12.6,9.7
						c0.3,1.1,0.8,2.1,1.3,3.2c1.1,2.3,2.2,4.7,1.6,7.4c-0.2,0.7,0,1.6,0.1,2.6c0.2,1.7,0.5,3.4-0.5,4.5c-0.9,1-2.6,1.3-5.3,0.8
						c0,0,0,0,0,0c-0.4,0-1.1,0.5-1.6,1.5c-0.7,1.3-1.1,3.3,0,4.8l0.1,0.1c0.7,1.1,1.9,2.7,3,2.7c0.8,0,1.6-0.8,2.4-2.2
						c0.6-1.1,1.5-1.6,2.7-1.6c1.1,0,2.2,0.4,3.1,0.8l0.4,0.2c0.6,0.2,1,0.6,1.2,1.1c0.3,0.8-0.1,1.7-0.4,2.4
						c-0.2,0.4-0.3,0.8-0.4,1.1c-1,5.5-3.1,9.3-7.2,12.7c-3.6,3-6,6.8-8.5,10.9c-2,3.2-4.1,6.6-6.8,9.5
						c-12.5,13.2-26.6,19-43.2,17.7c-4.8-0.4-9.2,1-13.5,2.3c-1.8,0.6-3.7,1.2-5.7,1.6c-5.1,1.2-13-1.7-14.8-7.3
						c-0.3-0.8-0.8-1.7-1.2-2.5c-1.4-2.5-3.1-5.4,1.1-8.5c0.1-0.5-0.3-2.6-1.1-3.7c-3.6-5.4-6.1-11.4-8.4-17.2
						c-0.3-0.8-0.7-1.6-1-2.5l-0.2-0.4c-1.8-4.3-1.7-4.5,2.9-8.9l0.5-0.5l0.3,0.6c2.2,4.7,5.6,6.6,10.6,5.9c5.5-0.8,7.7-3,7.6-7.6
						c-0.1-4.8-0.1-9.6-0.1-14.7c0-2.3,0-4.7,0-7.2v-0.9l0.8,0.4c4.8,2.8,5.7,6.4,6.4,9.5c0.2,0.8-0.1,1.6-0.4,2.4
						c-0.3,0.7-0.5,1.4-0.3,1.9c0.1,0.3,0.5,0.6,1.1,0.8c2.7,0.9,5.3,0.2,7.3-1.9c0.1-0.1,0.2-0.2,0.3-0.3c0.1,0,0.1-0.1,0.2-0.1
						C59,54.5,62,52,66.1,52c2.3,0,4.9,0.8,8.1,2.4c1.9,1,4.4-0.3,6.8-3.5c0.7-0.9,1.3-1.7,2-2.6c5.5-7.1,11.1-14.4,19.8-18.4
						c1.9-0.9,3.8-1.3,5.8-1.4v-0.7c-2.1,0.1-4.1,0.6-6.1,1.5C93.7,33.3,88,40.7,82.4,47.8l-0.2,0.2c-0.6,0.8-1.2,1.6-1.8,2.3
						c-1.8,2.2-3.5,3.5-4.9,3.5c-0.3,0-0.7-0.1-1-0.2c-3.3-1.6-6-2.5-8.4-2.5c-2.2,0-4.1,0.7-5.8,2c-1.6,1.3-2.9,3.2-4.1,5.7
						l-0.1,0.1l-0.1,0.1c-0.1,0.1-0.2,0.2-0.3,0.3c-1.8,1.9-4.1,2.5-6.5,1.7C49,61.1,48.9,61,48.8,61l-0.3-0.2l0.1-0.4
						c0-0.3,0.2-0.6,0.3-1c0.3-0.8,0.6-1.8,0.4-2.8c-0.8-3.1-1.7-7-6.8-10l-1.9-1.1v2.2c0,2.4,0,4.7,0,7l0,0.2
						c0,5.1-0.1,9.9,0.1,14.7c0.1,4.3-1.8,6.2-7,6.9c-4.7,0.7-7.8-1.1-9.8-5.5L23.1,69.5z M22.6,72.5c-3.7,3.6-3.6,3.7-2.2,7.3
						l0.2,0.4c0.3,0.8,0.7,1.6,1,2.5c2.3,5.8,4.8,11.7,8.3,17c0.7,1.1,1.8,4.3,0.9,5c-3.5,2.6-2.3,4.7-0.8,7.2
						c0.5,0.9,1,1.8,1.3,2.7c1.4,4.3,6.9,6.9,11.3,6.9c0.8,0,1.6-0.1,2.3-0.3c1.9-0.4,3.8-1,5.6-1.6c3.8-1.2,7.8-2.4,12.1-2.4
						c0.6,0,1.2,0,1.7,0.1c16.3,1.3,30.1-4.4,42.4-17.4c2.6-2.8,4.7-6.1,6.7-9.3c2.5-4,5-8.1,8.7-11.1c3.9-3.2,5.9-6.9,6.8-12.1
						c0.1-0.4,0.3-0.9,0.5-1.3c0.3-0.6,0.6-1.2,0.4-1.6c-0.1-0.2-0.3-0.4-0.7-0.5l-0.4-0.2c-0.9-0.3-1.9-0.7-2.8-0.7
						c-0.8,0-1.4,0.4-1.8,1.1c-1,1.9-2.1,2.8-3.3,2.8c-1.6,0-2.9-1.8-3.8-3.1l-0.1-0.1c-1.3-1.9-0.9-4.4-0.1-5.9
						c0.7-1.4,1.7-2.2,2.7-2c2.3,0.4,3.8,0.2,4.4-0.5c0.7-0.8,0.5-2.3,0.2-3.7c-0.2-1.1-0.3-2.1-0.1-3c0.5-2.4-0.5-4.5-1.5-6.8
						c-0.5-1.1-1-2.2-1.4-3.3c-1.7-5.5-6.5-9-12.2-9c-2,0-4,0.4-5.9,1.3c-8.5,3.9-14.1,11.1-19.5,18.1c-0.7,0.9-1.3,1.7-2,2.6
						c-2.8,3.6-5.7,4.9-8.1,3.7c-3-1.5-5.5-2.3-7.6-2.3c-3.7,0-6.4,2.2-8.4,7c-0.1,0.3-0.3,0.4-0.5,0.5c-0.1,0-0.1,0.1-0.2,0.1
						c-2.3,2.4-5.3,3.2-8.4,2.2c-0.8-0.3-1.4-0.7-1.7-1.3c-0.4-0.8-0.1-1.8,0.2-2.6c0.2-0.6,0.5-1.3,0.3-1.8
						c-0.7-2.9-1.4-5.9-5.2-8.4c0,2.2,0,4.3,0,6.3c0,5.1-0.1,9.9,0.1,14.7c0.2,6.6-4.2,8.1-8.5,8.7C28.8,79.1,25,77.1,22.6,72.5z"/>
				</g>
			</g>
			<g>
				<defs>
					<path id="SVGID_1_" d="M129.6,67.5c0.2-1.3,2-3.2-0.1-4c-1.7-0.7-4.3-1.9-5.6,0.4c-2.6,4.9-4.9,1.5-6.3-0.5
						c-2-2.8,0.4-7.4,2.1-7.1c8.3,1.4,4.5-4.7,5.1-7.6c0.8-3.8-1.9-6.9-2.9-10.3c-2.4-7.9-11-11.5-18.7-8
						c-9.6,4.4-15.5,13-21.7,20.8c-2.4,3.1-5.2,4.8-7.5,3.6c-7.6-3.8-13.1-3.4-16.7,5c-0.1,0.2-0.4,0.3-0.6,0.5c-2.2,2.3-5,3-7.9,2
						c-3.1-1.1-0.3-3.6-0.8-5.4c-0.8-3.3-1.7-6.5-6.2-9.2c0,8-0.1,14.9,0,21.9c0.2,5.7-3.2,7.5-8,8.2c-5.3,0.8-8.9-1.4-11.1-6.2
						c-4.6,4.4-4.4,4.4-2.6,8.8c2.8,6.7,5.3,13.5,9.4,19.6c0.8,1.2,1.5,3.9,1,4.3c-5.2,3.8-0.8,7,0.3,10.5c1.6,5.2,9,8.2,14.2,7
						c6.4-1.5,12.3-4.5,19.3-4c17.1,1.4,30.9-4.9,42.8-17.5c6-6.4,8.9-15,15.4-20.4C126.9,76.3,128.7,72.4,129.6,67.5z"/>
				</defs>
				<clipPath id="SVGID_2_">
					<use xlink:href="#SVGID_1_"  style="overflow:visible;"/>
				</clipPath>
				<g class="st2">
					<defs>
						<rect id="SVGID_3_" x="23.5" y="50.7" width="102.1" height="70.6"/>
					</defs>
					<clipPath id="SVGID_4_">
						<use xlink:href="#SVGID_3_"  style="overflow:visible;"/>
					</clipPath>
					<g class="st3">
						<path d="M125.7,46.3h-15.9c-0.9,0-1.6,0.7-1.6,1.6s0.7,1.6,1.6,1.6h15.9c0.8,0,1.5,0.7,1.5,1.5v18H76.3L50.6,49.5h52.6
							c0.9,0,1.6-0.7,1.6-1.6s-0.7-1.6-1.6-1.6c-10.2,0-76.5,0-79.5,0c-2.6,0-4.7,2.1-4.7,4.7c0,3.9,0,29,0,32
							c0,0.9,0.7,1.6,1.6,1.6s1.6-0.7,1.6-1.6V71.1l19.9,15.1l-19.9,15.1V89.5c0-0.9-0.7-1.6-1.6-1.6S19,88.6,19,89.5
							c0,3.3,0,26.5,0,32c0,2.6,2.1,4.7,4.7,4.7c1.9,0,98.9,0,102,0c2.6,0,4.7-2.1,4.7-4.7c0-6.8,0-62,0-70.4
							C130.5,48.4,128.3,46.3,125.7,46.3z M22.2,105.4l23.6-17.9c0.9-0.7,0.9-2,0-2.6L22.2,67v-5.7L55,86.2l-32.8,24.9V105.4z
							 M127.2,121.4c0,0.8-0.7,1.5-1.5,1.5H50.6l25.7-19.5h13.6c0.9,0-1.7-0.6-1.7-1.5c0-0.9,2.8-1.8,1.9-1.8H75.8
							c-1,0,0.5-0.7-30.6,22.8h-7.4l36-27.3h53.5v4.5H89.4c-0.9,0-1.6,0.7-1.6,1.6c0,0.9,0.7,1.6,1.6,1.6h37.8V121.4z M127.2,92.4
							h-54c-0.4,0-0.7,0.1-1,0.3l-39.8,30.2h-8.7c-0.8,0-1.5-0.7-1.5-1.5v-6.2l36.5-27.7c0.9-0.7,0.9-2,0-2.6L22.2,57.2V51
							c0-0.8,0.7-1.5,1.5-1.5h8.7l39.8,30.2c0.8,0.6-2.1,0.2,55,0.3L127.2,92.4L127.2,92.4z M127.2,76.8H73.7l-36-27.3h7.4
							C76.3,73,74.8,72.3,75.8,72.3h51.4L127.2,76.8L127.2,76.8z"/>
					</g>
				</g>
				<rect x="115.5" y="69.1" class="st2" width="16.5" height="3.3"/>
				
					<rect x="35.1" y="117.7" transform="matrix(0.7931 -0.6091 0.6091 0.7931 -64.4269 48.9634)" class="st2" width="9.5" height="3.2"/>
			</g>
		</g>
	</g>
</g>
<g id="Screen_4">
</g>
<g id="Screen_9">
</g>
</svg>
