<?xml version="1.0" encoding="utf-8"?>
<!-- Generator: Adobe Illustrator 22.0.1, SVG Export Plug-In . SVG Version: 6.00 Build 0)  -->
<svg version="1.1" xmlns="http://www.w3.org/2000/svg" xmlns:xlink="http://www.w3.org/1999/xlink" x="0px" y="0px"
	 viewBox="0 0 152.4 152.4" style="enable-background:new 0 0 152.4 152.4;" xml:space="preserve">
<style type="text/css">
	.st0{fill:#FFFFFF;}
	.st1{fill:#1E242B;stroke:#C2D52E;stroke-width:4;stroke-miterlimit:10;}
	.st2{clip-path:url(#SVGID_2_);}
	.st3{clip-path:url(#SVGID_4_);}
	.st4{fill:#231F20;}
	.st5{display:none;fill:#231F20;stroke:#FFFFFF;stroke-width:5;stroke-miterlimit:10;}
	.st6{clip-path:url(#SVGID_6_);fill:#231F20;}
	.st7{clip-path:url(#SVGID_8_);}
	.st8{clip-path:url(#SVGID_10_);fill:#231F20;}
	.st9{fill:none;}
	.st10{clip-path:url(#SVGID_12_);fill:#231F20;}
	.st11{fill:#EC1C24;}
	.st12{clip-path:url(#SVGID_16_);fill:#FFFFFF;}
	.st13{clip-path:url(#SVGID_18_);fill:#FFFFFF;}
	.st14{clip-path:url(#SVGID_20_);}
	.st15{clip-path:url(#SVGID_22_);}
	.st16{clip-path:url(#SVGID_24_);}
	.st17{clip-path:url(#SVGID_26_);}
	.st18{fill:#1E242B;}
	.st19{fill:#1E242B;stroke:#FFFFFF;stroke-miterlimit:10;}
	.st20{fill:none;stroke:#FFFFFF;stroke-width:2;stroke-miterlimit:10;}
	.st21{clip-path:url(#SVGID_30_);}
	.st22{clip-path:url(#SVGID_32_);}
	.st23{clip-path:url(#SVGID_34_);}
	.st24{clip-path:url(#SVGID_36_);}
	.st25{clip-path:url(#SVGID_38_);}
	.st26{clip-path:url(#SVGID_40_);}
	.st27{clip-path:url(#SVGID_44_);}
	.st28{clip-path:url(#SVGID_46_);}
	.st29{clip-path:url(#SVGID_48_);fill:#231F20;}
	.st30{clip-path:url(#SVGID_50_);fill:#FFFFFF;}
	.st31{clip-path:url(#SVGID_52_);}
	.st32{clip-path:url(#SVGID_54_);fill:#FFFFFF;}
	.st33{clip-path:url(#SVGID_56_);}
	.st34{clip-path:url(#SVGID_58_);}
	.st35{fill:#1E242B;stroke:#FFFFFF;stroke-width:2;stroke-miterlimit:10;}
	.st36{clip-path:url(#SVGID_60_);}
	.st37{display:none;}
	.st38{display:inline;fill:#FFFFFF;stroke:#FFFFFF;stroke-miterlimit:10;}
	.st39{clip-path:url(#SVGID_64_);}
	.st40{display:none;fill:#231F20;}
	.st41{fill-rule:evenodd;clip-rule:evenodd;fill:#231F20;}
	.st42{fill-rule:evenodd;clip-rule:evenodd;fill:#FFFFFF;}
	.st43{clip-path:url(#SVGID_68_);}
	.st44{fill:none;stroke:#000000;stroke-width:3;stroke-miterlimit:10;}
</style>
<g id="Screen_3">
	<g>
	</g>
	<g>
		<polygon class="st4" points="52.2,112.8 52.2,99.7 49.3,99.7 49.3,114.7 43.3,118.7 37.4,114.7 37.4,90.9 34.4,90.9 34.4,112.8 
			30.8,110.4 29.2,112.8 43.3,122.3 57.5,112.8 55.8,110.4 		"/>
		<polygon class="st4" points="118,110.4 114.4,112.8 114.4,99.7 114.4,93.8 111.5,93.8 111.5,99.7 111.5,114.7 105.5,118.7 
			99.6,114.7 99.6,102.7 96.6,102.7 96.6,112.8 93,110.4 91.4,112.8 105.5,122.3 119.7,112.8 		"/>
		<polygon class="st9" points="41.9,71.6 41.9,76.1 90.7,76.1 90.7,79 43.9,79 71.5,106.5 71.5,119 77.4,119 77.4,106.5 104.9,79 
			93.7,79 93.7,76.1 107,76.1 107,71.6 83.3,71.6 		"/>
		<path class="st4" d="M110,68.6h-3V42.9L94.3,30.1H65.5V45H41.9v23.7h-3v9.5l29.6,29.6V122h11.8v-14.2L110,78.1V68.6z M95.2,39v-3
			v-0.9L102,42h-6.8V39z M68.5,33.1h23.7v1.8v1.2v3v3v3h11.8v23.7H83.3v-2.3v-3.6v-3v-2.1l-0.9-0.9h0l-3-3l-3-3l-3-3l-3-3h-2.1V33.1
			z M78.3,56.8h-6.8v-3v-3h0.9L78.3,56.8z M44.8,47.9h23.7V50v0.9v3v3v3h11.8v8.9H44.8V47.9z M104.9,79l-27.5,27.5V119h-5.9v-12.5
			L43.9,79h63.6l-0.1-3H41.9v-4.4h41.5H107v4.4"/>
	</g>
</g>
<g id="Screen_4">
</g>
<g id="Screen_9">
</g>
</svg>
