<?xml version="1.0" encoding="utf-8"?>
<!-- Generator: Adobe Illustrator 22.0.1, SVG Export Plug-In . SVG Version: 6.00 Build 0)  -->
<svg version="1.1" xmlns="http://www.w3.org/2000/svg" xmlns:xlink="http://www.w3.org/1999/xlink" x="0px" y="0px"
	 viewBox="0 0 152.4 152.4" style="enable-background:new 0 0 152.4 152.4;" xml:space="preserve">
<style type="text/css">
	.st0{fill:#FFFFFF;}
	.st1{fill:#1E242B;stroke:#C2D52E;stroke-width:4;stroke-miterlimit:10;}
	.st2{clip-path:url(#SVGID_2_);}
	.st3{clip-path:url(#SVGID_4_);}
	.st4{fill:#231F20;}
	.st5{display:none;fill:#231F20;stroke:#FFFFFF;stroke-width:5;stroke-miterlimit:10;}
	.st6{clip-path:url(#SVGID_6_);fill:#231F20;}
	.st7{clip-path:url(#SVGID_8_);}
	.st8{clip-path:url(#SVGID_10_);fill:#231F20;}
	.st9{fill:none;}
	.st10{clip-path:url(#SVGID_12_);fill:#231F20;}
	.st11{fill:#EC1C24;}
	.st12{clip-path:url(#SVGID_16_);fill:#FFFFFF;}
	.st13{clip-path:url(#SVGID_18_);fill:#FFFFFF;}
	.st14{clip-path:url(#SVGID_20_);}
	.st15{clip-path:url(#SVGID_22_);}
	.st16{clip-path:url(#SVGID_24_);}
	.st17{clip-path:url(#SVGID_26_);}
	.st18{fill:#1E242B;}
	.st19{fill:#1E242B;stroke:#FFFFFF;stroke-miterlimit:10;}
	.st20{fill:none;stroke:#FFFFFF;stroke-width:2;stroke-miterlimit:10;}
	.st21{clip-path:url(#SVGID_30_);}
	.st22{clip-path:url(#SVGID_32_);}
	.st23{clip-path:url(#SVGID_34_);}
	.st24{clip-path:url(#SVGID_36_);}
	.st25{clip-path:url(#SVGID_38_);}
	.st26{clip-path:url(#SVGID_40_);}
	.st27{clip-path:url(#SVGID_44_);}
	.st28{clip-path:url(#SVGID_46_);}
	.st29{clip-path:url(#SVGID_48_);fill:#231F20;}
	.st30{clip-path:url(#SVGID_50_);fill:#FFFFFF;}
	.st31{clip-path:url(#SVGID_52_);}
	.st32{clip-path:url(#SVGID_54_);fill:#FFFFFF;}
	.st33{clip-path:url(#SVGID_56_);}
	.st34{clip-path:url(#SVGID_58_);}
	.st35{fill:#1E242B;stroke:#FFFFFF;stroke-width:2;stroke-miterlimit:10;}
	.st36{clip-path:url(#SVGID_60_);}
	.st37{display:none;}
	.st38{display:inline;fill:#FFFFFF;stroke:#FFFFFF;stroke-miterlimit:10;}
	.st39{clip-path:url(#SVGID_64_);}
	.st40{display:none;fill:#231F20;}
	.st41{fill-rule:evenodd;clip-rule:evenodd;fill:#231F20;}
	.st42{fill-rule:evenodd;clip-rule:evenodd;fill:#FFFFFF;}
	.st43{clip-path:url(#SVGID_68_);}
	.st44{fill:none;stroke:#000000;stroke-width:3;stroke-miterlimit:10;}
</style>
<g id="Screen_3">
	<g>
		<g>
			<g>
				<path class="st4" d="M118.5,93.1c-1.6-2.7-5.1-3.7-7.7-2.1l-16.5,8c-2.6,1.3-5.2,1.3-10.8,1.3c-5.5,0-14-1.4-14.1-1.4
					c-0.8-0.1-1.5,0.4-1.7,1.2c-0.1,0.8,0.4,1.5,1.2,1.7c0.4,0.1,8.8,1.5,14.6,1.5c6,0,8.9,0,12.1-1.6l16.6-8.1
					c0.7-0.4,1.4-0.5,2.2-0.3c0.7,0.2,1.4,0.7,1.7,1.3c0.4,0.7,0.5,1.4,0.3,2.2s-0.7,1.4-1.4,1.8l-19.4,12.1c0,0-4.2,2.6-13.6,2.6
					c-8.1,0-20.7-6.9-20.9-7c-0.1-0.1-3.2-1.6-9.2-1.6c-0.8,0-1.4,0.6-1.4,1.4c0,0.8,0.6,1.4,1.4,1.4c5.2,0,7.9,1.3,7.9,1.3v0
					c0.5,0.3,13.3,7.4,22.2,7.4c10.4,0,14.9-3,15.1-3.1l19.3-12c1.3-0.8,2.3-2,2.7-3.5C119.4,96,119.2,94.4,118.5,93.1z"/>
				<path class="st4" d="M43.2,78.8h-8.6c-0.8,0-1.4,0.6-1.4,1.4s0.6,1.4,1.4,1.4h8.6c0.8,0,1.4,0.6,1.4,1.4v31.6
					c0,0.8-0.6,1.4-1.4,1.4h-8.6c-0.8,0-1.4,0.6-1.4,1.4c0,0.8,0.6,1.4,1.4,1.4h8.6c2.4,0,4.3-1.9,4.3-4.3V83.1
					C47.5,80.7,45.6,78.8,43.2,78.8z"/>
				<path class="st4" d="M51.8,87.4h11.5c1.7,0,4.5,2.1,7,4c3.1,2.4,6.1,4.6,8.7,4.6h8.6c2.2,0,3.3,1,3.3,1c0.3,0.3,0.6,0.4,1,0.4
					c0.4,0,0.7-0.1,1-0.4c0.6-0.6,0.6-1.5,0-2c-0.2-0.2-2-1.9-5.3-1.9h-8.6c-1.7,0-4.5-2.1-7-4c-3.1-2.4-6.1-4.6-8.7-4.6H51.8
					c-0.8,0-1.4,0.6-1.4,1.4S51,87.4,51.8,87.4z"/>
				<path class="st4" d="M40.3,109.6c0-1.2-1-2.2-2.2-2.2c-1.2,0-2.2,1-2.2,2.2c0,1.2,1,2.2,2.2,2.2
					C39.4,111.8,40.3,110.8,40.3,109.6z"/>
			</g>
		</g>
		<g>
			<path class="st4" d="M86.2,82.6c-13.5,0-24.6-11-24.6-24.6s11-24.6,24.6-24.6s24.6,11,24.6,24.6S99.7,82.6,86.2,82.6z M86.2,36.3
				c-12,0-21.7,9.7-21.7,21.7c0,12,9.7,21.7,21.7,21.7S107.9,70,107.9,58C107.9,46,98.2,36.3,86.2,36.3z"/>
			<path class="st4" d="M86.2,66.7c-1.9,0-3.5-1.6-3.5-3.5c0-1-0.8-1.7-1.7-1.7c-1,0-1.7,0.8-1.7,1.7c0,3.2,2.2,5.9,5.2,6.7v0.2
				c0,1,0.8,1.7,1.7,1.7c1,0,1.7-0.8,1.7-1.7v-0.2c3-0.8,5.2-3.5,5.2-6.7c0-3.8-3.1-6.9-6.9-6.9c-1.9,0-3.5-1.6-3.5-3.5
				c0-1.9,1.6-3.5,3.5-3.5c1.9,0,3.5,1.6,3.5,3.5c0,1,0.8,1.7,1.7,1.7c1,0,1.7-0.8,1.7-1.7c0-3.2-2.2-5.9-5.2-6.7v-0.2
				c0-1-0.8-1.7-1.7-1.7c-1,0-1.7,0.8-1.7,1.7v0.2c-3,0.8-5.2,3.5-5.2,6.7c0,3.8,3.1,6.9,6.9,6.9c1.9,0,3.5,1.6,3.5,3.5
				C89.7,65.1,88.1,66.7,86.2,66.7z"/>
		</g>
	</g>
</g>
<g id="Screen_4">
</g>
<g id="Screen_9">
</g>
</svg>
