<?xml version="1.0" encoding="utf-8"?>
<!-- Generator: Adobe Illustrator 22.1.0, SVG Export Plug-In . SVG Version: 6.00 Build 0)  -->
<svg version="1.1" xmlns="http://www.w3.org/2000/svg" xmlns:xlink="http://www.w3.org/1999/xlink" x="0px" y="0px"
	 viewBox="0 0 152.4 152.4" style="enable-background:new 0 0 152.4 152.4;" xml:space="preserve">
<style type="text/css">
	.st0{fill:#FFFFFF;}
	.st1{fill:#1E242B;stroke:#C2D52E;stroke-width:4;stroke-miterlimit:10;}
	.st2{clip-path:url(#SVGID_2_);}
	.st3{clip-path:url(#SVGID_4_);}
	.st4{fill:#231F20;}
	.st5{display:none;fill:#231F20;stroke:#FFFFFF;stroke-width:5;stroke-miterlimit:10;}
	.st6{clip-path:url(#SVGID_6_);fill:#231F20;}
	.st7{clip-path:url(#SVGID_8_);}
	.st8{clip-path:url(#SVGID_10_);fill:#231F20;}
	.st9{fill:none;}
	.st10{clip-path:url(#SVGID_12_);fill:#231F20;}
	.st11{fill:#EC1C24;}
	.st12{clip-path:url(#SVGID_16_);fill:#FFFFFF;}
	.st13{clip-path:url(#SVGID_18_);fill:#FFFFFF;}
	.st14{clip-path:url(#SVGID_20_);}
	.st15{clip-path:url(#SVGID_22_);}
	.st16{clip-path:url(#SVGID_24_);}
	.st17{clip-path:url(#SVGID_26_);}
	.st18{fill:#1E242B;}
	.st19{fill:#1E242B;stroke:#FFFFFF;stroke-miterlimit:10;}
	.st20{fill:none;stroke:#FFFFFF;stroke-width:2;stroke-miterlimit:10;}
	.st21{clip-path:url(#SVGID_30_);}
	.st22{clip-path:url(#SVGID_32_);}
	.st23{clip-path:url(#SVGID_34_);}
	.st24{clip-path:url(#SVGID_36_);}
	.st25{clip-path:url(#SVGID_38_);}
	.st26{clip-path:url(#SVGID_40_);}
	.st27{clip-path:url(#SVGID_44_);}
	.st28{clip-path:url(#SVGID_46_);}
	.st29{clip-path:url(#SVGID_48_);fill:#231F20;}
	.st30{clip-path:url(#SVGID_50_);fill:#FFFFFF;}
	.st31{clip-path:url(#SVGID_52_);}
	.st32{clip-path:url(#SVGID_54_);fill:#FFFFFF;}
	.st33{clip-path:url(#SVGID_56_);}
	.st34{clip-path:url(#SVGID_58_);}
	.st35{fill:#1E252C;}
	.st36{fill:none;stroke:#C2D52E;stroke-width:4;stroke-miterlimit:10;}
	.st37{clip-path:url(#SVGID_60_);}
	.st38{clip-path:url(#SVGID_62_);}
	.st39{fill:#1E242B;stroke:#FFFFFF;stroke-width:2;stroke-miterlimit:10;}
	.st40{clip-path:url(#SVGID_64_);}
	.st41{display:none;}
	.st42{display:inline;fill:#FFFFFF;stroke:#FFFFFF;stroke-miterlimit:10;}
	.st43{clip-path:url(#SVGID_68_);}
	.st44{display:none;fill:#231F20;}
	.st45{fill-rule:evenodd;clip-rule:evenodd;fill:#231F20;}
	.st46{fill-rule:evenodd;clip-rule:evenodd;fill:#FFFFFF;}
	.st47{fill:#FFB1B5;}
	.st48{fill:#B9B9B9;}
	.st49{fill:#CDCDCD;}
	.st50{fill:#1F6C8C;}
	.st51{fill:#834B10;}
	.st52{fill:#85BC94;}
	.st53{fill:#8DC79D;}
	.st54{fill:#8F563B;}
	.st55{fill:#DC4D41;}
	.st56{clip-path:url(#SVGID_72_);}
	.st57{clip-path:url(#SVGID_74_);}
	.st58{clip-path:url(#SVGID_76_);}
	.st59{fill:none;stroke:#000000;stroke-width:3;stroke-miterlimit:10;}
</style>
<g id="Screen_3">
</g>
<g id="Screen_4">
</g>
<g id="Screen_9">
	<g>
		<g>
			<g>
				<path d="M122.4,60.3C122.4,60.3,122.4,60.3,122.4,60.3l-2.6-2c-0.7-0.6-1.8-0.4-2.4,0.3l-2.8,3.6l-0.1-0.1
					c-0.9-0.7-2.2-0.5-2.9,0.4l-31.5,41.1c0,0,0,0,0,0c0,0,0,0,0,0c0,0,0,0.1-0.1,0.1c0,0,0,0.1-0.1,0.1c0,0.1-0.1,0.1-0.1,0.2
					l-4.1,11.9c0,0,0,0,0,0l0,0c-0.2,0.7,0,1.4,0.5,1.8c0.3,0.2,0.6,0.3,1,0.3c0.3,0,0.6-0.1,0.9-0.3l0,0c0,0,0,0,0,0l10.4-7.1
					c0.1,0,0.1-0.1,0.2-0.1c0,0,0,0,0.1-0.1c0,0,0.1-0.1,0.1-0.1c0,0,0,0,0,0c0,0,0,0,0,0l28.4-37l0.8,0.6l-11.6,15.1
					c-0.5,0.6-0.3,1.5,0.3,1.9c0.2,0.2,0.5,0.3,0.8,0.3c0.4,0,0.8-0.2,1.1-0.5l12-15.6c0.7-0.9,0.5-2.3-0.4-3l-1.3-1l1.5-1.9
					c0.7-0.9,0.5-2.2-0.4-2.9l-0.1-0.1l2.8-3.6C123.2,61.9,123.1,60.9,122.4,60.3z M79.4,113.6l2.4-7l3.7,2.8L79.4,113.6z
					 M87.6,107.6l-4.5-3.5l30.3-39.5l4.5,3.5L87.6,107.6z M117.7,64.6l-1-0.8l2.2-2.8l1,0.8L117.7,64.6z"/>
			</g>
		</g>
		<g>
			<g>
				<path d="M100.8,71.2H47.1c-0.8,0-1.4,0.6-1.4,1.4c0,0.8,0.6,1.4,1.4,1.4h53.7c0.8,0,1.4-0.6,1.4-1.4
					C102.2,71.9,101.6,71.2,100.8,71.2z"/>
			</g>
		</g>
		<g>
			<g>
				<path d="M87.8,85.3H47.1c-0.8,0-1.4,0.6-1.4,1.4c0,0.8,0.6,1.4,1.4,1.4h40.7c0.8,0,1.4-0.6,1.4-1.4S88.6,85.3,87.8,85.3z"/>
			</g>
		</g>
		<g>
			<g>
				<path d="M71.7,113.4H47.1c-0.8,0-1.4,0.6-1.4,1.4c0,0.8,0.6,1.4,1.4,1.4h24.6c0.8,0,1.4-0.6,1.4-1.4
					C73.1,114,72.5,113.4,71.7,113.4z"/>
			</g>
		</g>
		<g>
			<g>
				<path d="M100.8,113.4H88.8c-0.8,0-1.4,0.6-1.4,1.4c0,0.8,0.6,1.4,1.4,1.4h12.1c0.8,0,1.4-0.6,1.4-1.4
					C102.2,114,101.6,113.4,100.8,113.4z"/>
			</g>
		</g>
		<g>
			<g>
				<path d="M109.7,62c0.8,0,1.4-0.6,1.4-1.4v-9.2c0,0,0,0,0,0c0,0,0,0,0,0c0-0.1,0-0.1,0-0.2c0,0,0,0,0,0c0-0.1,0-0.1,0-0.2
					c0,0,0,0,0,0c0-0.1,0-0.1-0.1-0.2c0,0,0,0,0,0c0-0.1-0.1-0.1-0.1-0.1c0,0,0,0,0,0c0,0-0.1-0.1-0.1-0.1L88.9,28.7
					c0,0-0.1-0.1-0.1-0.1c0,0,0,0,0,0c0,0-0.1-0.1-0.1-0.1c0,0,0,0,0,0c0,0-0.1,0-0.2-0.1c0,0,0,0,0,0c-0.1,0-0.1,0-0.2,0
					c0,0,0,0,0,0c-0.1,0-0.1,0-0.2,0c0,0,0,0,0,0c0,0,0,0,0,0H40.2c-1.6,0-2.8,1.3-2.8,2.8v90.1c0,1.6,1.3,2.8,2.8,2.8h68
					c1.6,0,2.8-1.3,2.8-2.8V93.9c0-0.8-0.6-1.4-1.4-1.4c-0.8,0-1.4,0.6-1.4,1.4v27.3c0,0.1,0,0.1-0.1,0.1h-68c-0.1,0-0.1,0-0.1-0.1
					V31.2c0-0.1,0-0.1,0.1-0.1h46.4v18.9c0,1.6,1.3,2.9,2.9,2.9h18.9v7.9C108.3,61.4,108.9,62,109.7,62z M89.5,50.1
					c-0.1,0-0.2-0.1-0.2-0.2V33h0l17.1,17.1H89.5z"/>
			</g>
		</g>
		<g>
			<g>
				<path d="M70.9,47.8L59.5,37.1c-0.5-0.5-1.3-0.5-1.9,0L46.3,47.8c-0.5,0.5-0.6,1.4-0.1,1.9c0.5,0.5,1.4,0.6,1.9,0.1l10.5-9.8
					l10.5,9.8c0.3,0.2,0.6,0.4,0.9,0.4c0.4,0,0.7-0.1,1-0.4C71.5,49.1,71.5,48.3,70.9,47.8z"/>
			</g>
		</g>
		<g>
			<g>
				<path d="M67.1,49.5l-7-6.6c-0.9-0.8-2.2-0.8-3.1,0l-7,6.6c-0.5,0.4-0.7,1-0.7,1.6v9.5c0,1.2,1,2.3,2.3,2.3h13.9
					c1.2,0,2.3-1,2.3-2.3v-9.5C67.8,50.5,67.6,49.9,67.1,49.5z M59.6,60.2h-2v-4.7h2V60.2z M62.3,60.2v-5.6c0-1-0.8-1.9-1.9-1.9
					h-3.7c-1,0-1.9,0.8-1.9,1.9v5.6h-2.8v-8.9l6.5-6.1l6.5,6.1v8.9H62.3z"/>
			</g>
		</g>
		<g>
			<g>
				<path d="M75.7,99.4H60.5c-0.8,0-1.4,0.6-1.4,1.4c0,0.8,0.6,1.4,1.4,1.4h15.2c0.8,0,1.4-0.6,1.4-1.4S76.4,99.4,75.7,99.4z"/>
			</g>
		</g>
		<g>
			<g>
				<path d="M52,99.4h-4.7c-0.8,0-1.4,0.6-1.4,1.4s0.6,1.4,1.4,1.4H52c0.8,0,1.4-0.6,1.4-1.4C53.4,100,52.8,99.4,52,99.4z"/>
			</g>
		</g>
	</g>
</g>
</svg>
