<?xml version="1.0" encoding="utf-8"?>
<!-- Generator: Adobe Illustrator 22.0.1, SVG Export Plug-In . SVG Version: 6.00 Build 0)  -->
<svg version="1.1" xmlns="http://www.w3.org/2000/svg" xmlns:xlink="http://www.w3.org/1999/xlink" x="0px" y="0px"
	 viewBox="0 0 152.4 152.4" style="enable-background:new 0 0 152.4 152.4;" xml:space="preserve">
<style type="text/css">
	.st0{fill:#FFFFFF;}
	.st1{fill:#1E242B;stroke:#C2D52E;stroke-width:4;stroke-miterlimit:10;}
	.st2{clip-path:url(#SVGID_2_);}
	.st3{clip-path:url(#SVGID_4_);}
	.st4{fill:#231F20;}
	.st5{display:none;fill:#231F20;stroke:#FFFFFF;stroke-width:5;stroke-miterlimit:10;}
	.st6{clip-path:url(#SVGID_6_);fill:#231F20;}
	.st7{clip-path:url(#SVGID_8_);}
	.st8{clip-path:url(#SVGID_10_);fill:#231F20;}
	.st9{fill:none;}
	.st10{clip-path:url(#SVGID_12_);fill:#231F20;}
	.st11{fill:#EC1C24;}
	.st12{clip-path:url(#SVGID_16_);fill:#FFFFFF;}
	.st13{clip-path:url(#SVGID_18_);fill:#FFFFFF;}
	.st14{clip-path:url(#SVGID_20_);}
	.st15{clip-path:url(#SVGID_22_);}
	.st16{clip-path:url(#SVGID_24_);}
	.st17{clip-path:url(#SVGID_26_);}
	.st18{fill:#1E242B;}
	.st19{fill:#1E242B;stroke:#FFFFFF;stroke-miterlimit:10;}
	.st20{fill:none;stroke:#FFFFFF;stroke-width:2;stroke-miterlimit:10;}
	.st21{clip-path:url(#SVGID_30_);}
	.st22{clip-path:url(#SVGID_32_);}
	.st23{clip-path:url(#SVGID_34_);}
	.st24{clip-path:url(#SVGID_36_);}
	.st25{clip-path:url(#SVGID_38_);}
	.st26{clip-path:url(#SVGID_40_);}
	.st27{clip-path:url(#SVGID_44_);}
	.st28{clip-path:url(#SVGID_46_);}
	.st29{clip-path:url(#SVGID_48_);fill:#231F20;}
	.st30{clip-path:url(#SVGID_50_);fill:#FFFFFF;}
	.st31{clip-path:url(#SVGID_52_);}
	.st32{clip-path:url(#SVGID_54_);fill:#FFFFFF;}
	.st33{clip-path:url(#SVGID_56_);}
	.st34{clip-path:url(#SVGID_58_);}
	.st35{fill:#1E242B;stroke:#FFFFFF;stroke-width:2;stroke-miterlimit:10;}
	.st36{clip-path:url(#SVGID_60_);}
	.st37{display:none;}
	.st38{display:inline;fill:#FFFFFF;stroke:#FFFFFF;stroke-miterlimit:10;}
	.st39{clip-path:url(#SVGID_64_);}
	.st40{display:none;fill:#231F20;}
	.st41{fill-rule:evenodd;clip-rule:evenodd;fill:#231F20;}
	.st42{fill-rule:evenodd;clip-rule:evenodd;fill:#FFFFFF;}
	.st43{clip-path:url(#SVGID_68_);}
	.st44{fill:none;stroke:#000000;stroke-width:3;stroke-miterlimit:10;}
</style>
<g id="Screen_3">
	<g>
		<path d="M107.7,31.7H44.7L26.3,84.8v0.7v28.7c0,3.6,2.9,6.5,6.5,6.5h86.8c3.6,0,6.5-2.9,6.5-6.5V85.5v-0.7L107.7,31.7z M47.2,35.2
			h58l16.6,48.1H98.4l0,0c-1.5,0-2.9,0.8-3.7,2C94.3,86,94,86.8,94,87.7v7.2c0,0.5-0.4,0.9-0.9,0.9H59.3c-0.5,0-0.9-0.4-0.9-0.9
			v-7.2c0-0.9-0.3-1.8-0.8-2.5c-0.8-1.2-2.1-2-3.7-2l0,0H30.6L47.2,35.2z M122.5,114.3c0,1.6-1.3,2.9-2.9,2.9H32.8
			c-1.6,0-2.9-1.3-2.9-2.9V86.9H54c0.5,0,0.9,0.4,0.9,0.9v7.2c0,0.9,0.3,1.8,0.8,2.5c0.8,1.2,2.1,2,3.7,2l0,0h33.9l0,0
			c1.5,0,2.9-0.8,3.7-2c0.5-0.7,0.8-1.6,0.8-2.5v-7.2c0-0.5,0.4-0.9,0.9-0.9h24.1V114.3z"/>
		<polygon points="108.2,79.8 111.8,79.8 111.8,69.1 40.6,69.1 40.6,79.8 44.1,79.8 44.1,72.6 108.2,72.6 		"/>
		<polygon points="49.5,58.4 102.9,58.4 102.9,65.5 106.5,65.5 106.5,54.8 45.9,54.8 45.9,65.5 49.5,65.5 		"/>
		<polygon points="54.8,44.1 97.6,44.1 97.6,51.3 101.1,51.3 101.1,40.6 51.3,40.6 51.3,51.3 54.8,51.3 		"/>
	</g>
</g>
<g id="Screen_4">
</g>
<g id="Screen_9">
</g>
</svg>
