<svg xmlns="http://www.w3.org/2000/svg" viewBox="0 0 152.4 152.4"><title>icon</title><g id="Screen_9" data-name="Screen 9"><path d="M126.28,48.17H22.83a2.18,2.18,0,0,0-2.17,2.18V88.21a2.18,2.18,0,0,0,2.17,2.17H27c-.05-.66-.09-1.33-.09-2H22.83a.18.18,0,0,1-.17-.17V50.35a.18.18,0,0,1,.17-.18H93.16V88.38H87.51c0,.67,0,1.34-.09,2h38.86a2.18,2.18,0,0,0,2.18-2.17V50.35A2.19,2.19,0,0,0,126.28,48.17Zm.18,40a.18.18,0,0,1-.18.17H95.16V50.17h31.12a.18.18,0,0,1,.18.18Z"/><path d="M81.28,86.18l-2.87-.56a5,5,0,0,1-3.09-7.86l1.81-2.46A.93.93,0,0,0,77,74.1l-3.9-3.9A.94.94,0,0,0,72,70.09l-2.42,1.64a5,5,0,0,1-7.75-3.37l-.46-3a.92.92,0,0,0-.91-.78H54.91a.91.91,0,0,0-.9.75L53.3,69a5,5,0,0,1-7.72,3.2l-3.13-2.13a.92.92,0,0,0-1.16.11l-3.9,3.9a.93.93,0,0,0-.09,1.2l1.8,2.46A5,5,0,0,1,36,85.63l-2.87.55a.92.92,0,0,0-.75.9V92.6a.91.91,0,0,0,.78.9l3,.47a5,5,0,0,1,3.38,7.74l-1.64,2.43A.91.91,0,0,0,38,105.3l3.9,3.9a.93.93,0,0,0,1.19.1l2.46-1.81a5,5,0,0,1,7.87,3.09l.55,2.87a.92.92,0,0,0,.9.75h5.52a.92.92,0,0,0,.91-.78l.32-2.12a5,5,0,0,1,7.9-3.28l1.73,1.27a.93.93,0,0,0,1.2-.09l3.9-3.9a.92.92,0,0,0,.11-1.16l-1.65-2.43A5,5,0,0,1,78.23,94l3-.47a.91.91,0,0,0,.78-.9V87.08A.91.91,0,0,0,81.28,86.18ZM57.21,99a9.65,9.65,0,1,1,9.65-9.65A9.66,9.66,0,0,1,57.21,99Z"/><path d="M57.21,84.32a5.06,5.06,0,1,0,5.06,5.06A5.06,5.06,0,0,0,57.21,84.32Zm0,8.28a3.22,3.22,0,1,1,3.22-3.22A3.23,3.23,0,0,1,57.21,92.6Z"/><path d="M94.16,49.69V89.38h33.25V49.69Zm16.67,24.83-9.33-9h18.66Z"/></g></svg>