<?xml version="1.0" encoding="utf-8"?>
<!-- Generator: Adobe Illustrator 22.0.1, SVG Export Plug-In . SVG Version: 6.00 Build 0)  -->
<svg version="1.1" xmlns="http://www.w3.org/2000/svg" xmlns:xlink="http://www.w3.org/1999/xlink" x="0px" y="0px"
	 viewBox="0 0 152.4 152.4" style="enable-background:new 0 0 152.4 152.4;" xml:space="preserve">
<style type="text/css">
	.st0{fill:#FFFFFF;}
	.st1{fill:#1E242B;stroke:#C2D52E;stroke-width:4;stroke-miterlimit:10;}
	.st2{clip-path:url(#SVGID_2_);}
	.st3{clip-path:url(#SVGID_4_);}
	.st4{fill:#231F20;}
	.st5{display:none;fill:#231F20;stroke:#FFFFFF;stroke-width:5;stroke-miterlimit:10;}
	.st6{clip-path:url(#SVGID_6_);fill:#231F20;}
	.st7{clip-path:url(#SVGID_8_);}
	.st8{clip-path:url(#SVGID_10_);fill:#231F20;}
	.st9{fill:none;}
	.st10{clip-path:url(#SVGID_12_);fill:#231F20;}
	.st11{fill:#EC1C24;}
	.st12{clip-path:url(#SVGID_16_);fill:#FFFFFF;}
	.st13{clip-path:url(#SVGID_18_);fill:#FFFFFF;}
	.st14{clip-path:url(#SVGID_20_);}
	.st15{clip-path:url(#SVGID_22_);}
	.st16{clip-path:url(#SVGID_24_);}
	.st17{clip-path:url(#SVGID_26_);}
	.st18{fill:#1E242B;}
	.st19{fill:#1E242B;stroke:#FFFFFF;stroke-miterlimit:10;}
	.st20{fill:none;stroke:#FFFFFF;stroke-width:2;stroke-miterlimit:10;}
	.st21{clip-path:url(#SVGID_30_);}
	.st22{clip-path:url(#SVGID_32_);}
	.st23{clip-path:url(#SVGID_34_);}
	.st24{clip-path:url(#SVGID_36_);}
	.st25{clip-path:url(#SVGID_38_);}
	.st26{clip-path:url(#SVGID_40_);}
	.st27{clip-path:url(#SVGID_44_);}
	.st28{clip-path:url(#SVGID_46_);}
	.st29{clip-path:url(#SVGID_48_);fill:#231F20;}
	.st30{clip-path:url(#SVGID_50_);fill:#FFFFFF;}
	.st31{clip-path:url(#SVGID_52_);}
	.st32{clip-path:url(#SVGID_54_);fill:#FFFFFF;}
	.st33{clip-path:url(#SVGID_56_);}
	.st34{clip-path:url(#SVGID_58_);}
	.st35{fill:#1E242B;stroke:#FFFFFF;stroke-width:2;stroke-miterlimit:10;}
	.st36{clip-path:url(#SVGID_60_);}
	.st37{display:none;}
	.st38{display:inline;fill:#FFFFFF;stroke:#FFFFFF;stroke-miterlimit:10;}
	.st39{clip-path:url(#SVGID_64_);}
	.st40{display:none;fill:#231F20;}
	.st41{fill-rule:evenodd;clip-rule:evenodd;fill:#231F20;}
	.st42{fill-rule:evenodd;clip-rule:evenodd;fill:#FFFFFF;}
	.st43{clip-path:url(#SVGID_68_);}
	.st44{fill:none;stroke:#000000;stroke-width:3;stroke-miterlimit:10;}
</style>
<g id="Screen_3">
	<g>
		<g>
			<defs>
				<rect id="SVGID_43_" x="35.6" y="70.9" width="81.2" height="57.3"/>
			</defs>
			<clipPath id="SVGID_2_">
				<use xlink:href="#SVGID_43_"  style="overflow:visible;"/>
			</clipPath>
			<path class="st2" d="M96.4,47.3c-6.3-5.6-14.4-8.2-22.8-7.3c-13.4,1.5-24.2,12.3-25.7,25.7c-1,9.1,2.2,18,8.8,24.3
				c4.2,4.1,6.7,9.7,6.7,15.4v2.8v2.8v2.8v5.7h3.6l4.3,5.7h10l4.3-5.7H89v-5.7v-2.8v-2.8v-1.4c0-6,2.7-11.8,7.3-15.9
				c6.2-5.5,9.8-13.5,9.8-21.8C106.1,60.8,102.6,52.8,96.4,47.3z M79.8,122.5h-7.1l-2.1-2.8h11.4L79.8,122.5z M86.2,116.8H66.2v-2.8
				h19.9V116.8z M86.2,111.1H66.2v-2.8h19.9V111.1z M94.4,88.8c-4.9,4.3-7.8,10.3-8.2,16.6h-3h-5.6h-2.8h-4.6h-3.9
				c0-6.4-2.8-12.8-7.6-17.3c-5.9-5.7-8.8-13.7-7.9-21.9C52.1,54,61.8,44.2,73.9,42.9c7.6-0.8,14.9,1.5,20.6,6.5
				c5.6,5,8.8,12.2,8.8,19.6C103.3,76.6,100,83.8,94.4,88.8z"/>
		</g>
		<rect x="47.8" y="68.3" width="58.2" height="2.8"/>
		<g>
			<defs>
				<rect id="SVGID_45_" x="37" y="24.2" width="73.4" height="40.5"/>
			</defs>
			<clipPath id="SVGID_4_">
				<use xlink:href="#SVGID_45_"  style="overflow:visible;"/>
			</clipPath>
			<g class="st3">
				<g>
					<g>
						<defs>
							<rect id="SVGID_47_" x="47.8" y="34.3" width="58.2" height="50.4"/>
						</defs>
						<clipPath id="SVGID_6_">
							<use xlink:href="#SVGID_47_"  style="overflow:visible;"/>
						</clipPath>
						<path class="st6" d="M106.1,63.4c0-8-3.2-15.2-8.4-20.5c0-0.1-0.1-0.1-0.1-0.2c0,0-0.1-0.1-0.2-0.1
							c-5.3-5.2-12.5-8.4-20.5-8.4s-15.2,3.2-20.5,8.4c-0.1,0-0.1,0.1-0.2,0.1c0,0-0.1,0.1-0.1,0.2c-5.2,5.3-8.4,12.5-8.4,20.5
							c0,7.8,3,15.1,8.5,20.6c0,0,0,0,0,0c0,0,0,0,0,0l0,0c0.3,0.3,0.6,0.4,1,0.4c0.4,0,0.7-0.1,1-0.4c0,0,0,0,0.1-0.1l4.4-4.4
							c0.6-0.6,0.6-1.5,0-2c-0.6-0.6-1.5-0.6-2,0L57.4,81c-4-4.5-6.4-10.1-6.7-16.1h4.9c0.8,0,1.4-0.6,1.4-1.4
							c0-0.8-0.6-1.4-1.4-1.4h-4.9c0.3-6.2,2.8-11.8,6.7-16.1l3.4,3.4c0.3,0.3,0.6,0.4,1,0.4c0.4,0,0.7-0.1,1-0.4
							c0.6-0.6,0.6-1.5,0-2l-3.4-3.4c4.3-3.9,9.9-6.3,16.1-6.7v4.9c0,0.8,0.6,1.4,1.4,1.4s1.4-0.6,1.4-1.4v-4.9
							c6.2,0.3,11.8,2.8,16.1,6.7L91,47.3c-0.6,0.6-0.6,1.5,0,2c0.3,0.3,0.6,0.4,1,0.4c0.4,0,0.7-0.1,1-0.4l3.4-3.4
							c3.9,4.3,6.3,9.9,6.7,16.1h-4.9c-0.8,0-1.4,0.6-1.4,1.4c0,0.8,0.6,1.4,1.4,1.4h4.9c-0.3,6-2.7,11.6-6.7,16.1L93,77.5
							c-0.6-0.6-1.5-0.6-2,0c-0.6,0.6-0.6,1.5,0,2l4.5,4.5c0.3,0.3,0.6,0.4,1,0.4c0.2,0,0.4,0,0.5-0.1c0.2-0.1,0.3-0.2,0.5-0.3
							C103,78.5,106.1,71.2,106.1,63.4L106.1,63.4z M106.1,63.4"/>
					</g>
					<path class="st4" d="M82.6,45.4c-0.6-0.2-1.2,0-1.4,0.6L78,53.8c-0.1,0-0.3,0-0.4,0c-1.5,0-2.9,0.8-3.6,2.2
						c-0.7,1.4-0.5,3.1,0.5,4.6c0.1,0.1,0.2,0.3,0.4,0.4c0.8,0.6,1.8,0.9,2.7,0.9c1.5,0,2.9-0.8,3.6-2.2c0.7-1.4,0.5-3.1-0.5-4.5
						c-0.1-0.1-0.2-0.3-0.4-0.4c-0.1-0.1-0.2-0.1-0.2-0.2l3.1-7.8C83.4,46.3,83.1,45.6,82.6,45.4L82.6,45.4z M79.3,58.7
						c-0.3,0.6-1,1-1.7,1c-0.5,0-0.9-0.2-1.4-0.5c-0.5-0.7-0.6-1.6-0.3-2.2c0.3-0.6,1-1,1.7-1c0.2,0,0.5,0,0.7,0.1c0,0,0,0,0,0
						c0,0,0,0,0.1,0c0.2,0.1,0.4,0.2,0.6,0.3C79.5,57.2,79.6,58,79.3,58.7L79.3,58.7z M79.3,58.7"/>
				</g>
			</g>
		</g>
	</g>
</g>
<g id="Screen_4">
</g>
<g id="Screen_9">
</g>
</svg>
