<?xml version="1.0" encoding="UTF-8" standalone="no"?>
<!-- Generator: Adobe Illustrator 22.0.1, SVG Export Plug-In . SVG Version: 6.00 Build 0)  -->

<svg
   xmlns:dc="http://purl.org/dc/elements/1.1/"
   xmlns:cc="http://creativecommons.org/ns#"
   xmlns:rdf="http://www.w3.org/1999/02/22-rdf-syntax-ns#"
   xmlns:svg="http://www.w3.org/2000/svg"
   xmlns="http://www.w3.org/2000/svg"
   xmlns:xlink="http://www.w3.org/1999/xlink"
   xmlns:sodipodi="http://sodipodi.sourceforge.net/DTD/sodipodi-0.dtd"
   xmlns:inkscape="http://www.inkscape.org/namespaces/inkscape"
   version="1.1"
   x="0px"
   y="0px"
   viewBox="0 0 152.4 152.4"
   style="enable-background:new 0 0 152.4 152.4;"
   xml:space="preserve"
   id="svg653"
   sodipodi:docname="electricity-demand.svg"
   inkscape:version="0.92.4 (5da689c313, 2019-01-14)"><metadata
   id="metadata659"><rdf:RDF><cc:Work
       rdf:about=""><dc:format>image/svg+xml</dc:format><dc:type
         rdf:resource="http://purl.org/dc/dcmitype/StillImage" /><dc:title></dc:title></cc:Work></rdf:RDF></metadata><defs
   id="defs657">
	

		
		
		
	</defs><sodipodi:namedview
   pagecolor="#ffffff"
   bordercolor="#666666"
   borderopacity="1"
   objecttolerance="10"
   gridtolerance="10"
   guidetolerance="10"
   inkscape:pageopacity="0"
   inkscape:pageshadow="2"
   inkscape:window-width="1920"
   inkscape:window-height="1017"
   id="namedview655"
   showgrid="false"
   inkscape:zoom="2.1899896"
   inkscape:cx="-49.662038"
   inkscape:cy="91.444307"
   inkscape:window-x="-8"
   inkscape:window-y="-8"
   inkscape:window-maximized="1"
   inkscape:current-layer="svg653" />
<style
   type="text/css"
   id="style610">
	.st0{fill:#FFFFFF;}
	.st1{fill:#1E242B;stroke:#C2D52E;stroke-width:4;stroke-miterlimit:10;}
	.st2{clip-path:url(#SVGID_2_);}
	.st3{clip-path:url(#SVGID_4_);}
	.st4{fill:#231F20;}
	.st5{display:none;fill:#231F20;stroke:#FFFFFF;stroke-width:5;stroke-miterlimit:10;}
	.st6{clip-path:url(#SVGID_6_);fill:#231F20;}
	.st7{clip-path:url(#SVGID_8_);}
	.st8{clip-path:url(#SVGID_10_);fill:#231F20;}
	.st9{fill:none;}
	.st10{clip-path:url(#SVGID_12_);fill:#231F20;}
	.st11{fill:#EC1C24;}
	.st12{clip-path:url(#SVGID_16_);fill:#FFFFFF;}
	.st13{clip-path:url(#SVGID_18_);fill:#FFFFFF;}
	.st14{clip-path:url(#SVGID_20_);}
	.st15{clip-path:url(#SVGID_22_);}
	.st16{clip-path:url(#SVGID_24_);}
	.st17{clip-path:url(#SVGID_26_);}
	.st18{fill:#1E242B;}
	.st19{fill:#1E242B;stroke:#FFFFFF;stroke-miterlimit:10;}
	.st20{fill:none;stroke:#FFFFFF;stroke-width:2;stroke-miterlimit:10;}
	.st21{clip-path:url(#SVGID_30_);}
	.st22{clip-path:url(#SVGID_32_);}
	.st23{clip-path:url(#SVGID_34_);}
	.st24{clip-path:url(#SVGID_36_);}
	.st25{clip-path:url(#SVGID_38_);}
	.st26{clip-path:url(#SVGID_40_);}
	.st27{clip-path:url(#SVGID_44_);}
	.st28{clip-path:url(#SVGID_46_);}
	.st29{clip-path:url(#SVGID_48_);fill:#231F20;}
	.st30{clip-path:url(#SVGID_50_);fill:#FFFFFF;}
	.st31{clip-path:url(#SVGID_52_);}
	.st32{clip-path:url(#SVGID_54_);fill:#FFFFFF;}
	.st33{clip-path:url(#SVGID_56_);}
	.st34{clip-path:url(#SVGID_58_);}
	.st35{fill:#1E242B;stroke:#FFFFFF;stroke-width:2;stroke-miterlimit:10;}
	.st36{clip-path:url(#SVGID_60_);}
	.st37{display:none;}
	.st38{display:inline;fill:#FFFFFF;stroke:#FFFFFF;stroke-miterlimit:10;}
	.st39{clip-path:url(#SVGID_64_);}
	.st40{display:none;fill:#231F20;}
	.st41{fill-rule:evenodd;clip-rule:evenodd;fill:#231F20;}
	.st42{fill-rule:evenodd;clip-rule:evenodd;fill:#FFFFFF;}
	.st43{clip-path:url(#SVGID_68_);}
	.st44{fill:none;stroke:#000000;stroke-width:3;stroke-miterlimit:10;}
</style>
<g
   id="g620">
			<defs
   id="defs613">
				<rect
   id="SVGID_43_"
   x="35.599998"
   y="70.900002"
   width="81.199997"
   height="57.299999" />
			</defs>
			<clipPath
   id="SVGID_2_">
				<use
   xlink:href="#SVGID_43_"
   style="overflow:visible"
   id="use615"
   x="0"
   y="0"
   width="100%"
   height="100%" />
			</clipPath>
			<path
   class="st2"
   d="M 96.4,47.3 C 90.1,41.7 82,39.1 73.6,40 60.2,41.5 49.4,52.3 47.9,65.7 c -1,9.1 2.2,18 8.8,24.3 4.2,4.1 6.7,9.7 6.7,15.4 v 2.8 2.8 2.8 5.7 H 67 l 4.3,5.7 h 10 l 4.3,-5.7 H 89 v -5.7 -2.8 -2.8 -1.4 c 0,-6 2.7,-11.8 7.3,-15.9 6.2,-5.5 9.8,-13.5 9.8,-21.8 0,-8.3 -3.5,-16.3 -9.7,-21.8 z m -16.6,75.2 h -7.1 l -2.1,-2.8 H 82 Z m 6.4,-5.7 h -20 V 114 h 19.9 v 2.8 z m 0,-5.7 h -20 v -2.8 h 19.9 v 2.8 z m 8.2,-22.3 c -4.9,4.3 -7.8,10.3 -8.2,16.6 h -3 -5.6 -2.8 -4.6 -3.9 C 66.3,99 63.5,92.6 58.7,88.1 52.8,82.4 49.9,74.4 50.8,66.2 c 1.3,-12.2 11,-22 23.1,-23.3 7.6,-0.8 14.9,1.5 20.6,6.5 5.6,5 8.8,12.2 8.8,19.6 0,7.6 -3.3,14.8 -8.9,19.8 z"
   clip-path="url(#SVGID_2_)"
   id="path618"
   inkscape:connector-curvature="0" />
		</g>
<g
   id="Screen_4">
</g>
<g
   id="Screen_9">
</g>
<path
   style="fill:#231f20"
   inkscape:connector-curvature="0"
   id="path1052"
   d="m 74.495335,75.98221 c -20.6,0 -31.2,-4.9 -34.2,-7.9 -1.7,-1.700004 -2.6,-3.100004 -2.6,-5.500004 0,-1.8 1.3,-2.6 2.3,-3.3 0.3,-0.2 0.5,-0.3 0.8,-0.6 0.4,-0.3 1.1,-0.9 1.5,-1.4 0.2,-10.4 5.3,-19.8 14,-26.1 l 2.4,-1.7 v 15.3 c 0,1 0.8,1.8 1.8,1.8 1,0 1.8,-0.8 1.8,-1.8 v -17 l 0.9,-0.4 c 1.9,-0.8 3.8,-1.4 5.8,-1.8 v -0.7 c 0,-2 1.7,-3.7 3.7,-3.7 h 7.9 c 2,0 3.7,1.7 3.7,3.7 v 0.9 c 2,0.5 4,1.1 5.9,1.9 l 0.9,0.4 v 16.9 c 0,1 0.8,1.8 1.8,1.8 1,0 1.8,-0.8 1.8,-1.8 v -15.2 l 2.400005,1.7 c 8.6,6.3 13.6,15.8 13.9,26.2 1.9,1.4 2.5,1.8 2.7,2 l 0.3,0.3 c 0.8,0.7 1.8,1.6 1.7,3.4 -0.1,2.1 -2.7,5.400004 -9.3,8.600004 -6.9,3.3 -21.600005,4 -29.700005,4.1 -0.9,-0.1 -1.6,-0.1 -2.2,-0.1 z m -18.9,-40.300004 c -6.5,5.7 -10.2,13.6 -10.4,22.1 l -0.1,0.4 -0.1,0.7 -0.3,0.3 c -0.1,0.1 -1.3,1.3 -2.1,2 -0.3,0.3 -0.7,0.5 -1,0.7 -0.7,0.4 -0.9,0.6 -0.9,0.8 0,1.2 0.2,1.8 1.8,3.3 0.1,0.1 7.7,7.400004 34,7.000004 6.3,-0.1 21.700005,-0.7 28.400005,-3.8 6.1,-2.900004 7.6,-5.500004 7.6,-6.100004 0,-0.2 0,-0.3 -0.7,-0.9 l -0.3,-0.3 c -0.1,-0.1 -0.6,-0.5 -3,-2.2 l -0.6,-0.4 v -0.8 c 0,-8.7 -3.7,-16.8 -10.3,-22.6 v 9.1 c 0,2.6 -2.1,4.8 -4.800005,4.8 -2.7,0 -4.8,-2.1 -4.8,-4.8 v -14.9 c -1.8,-0.7 -3.7,-1.2 -5.6,-1.6 l -1.2,-0.2 v -3.4 c 0,-0.4 -0.3,-0.7 -0.7,-0.7 h -7.9 c -0.4,0 -0.7,0.3 -0.7,0.7 v 3.3 l -1.2,0.2 c -1.9,0.3 -3.7,0.9 -5.5,1.5 v 15 c 0,2.6 -2.1,4.8 -4.8,4.8 -2.6,0 -4.8,-2.1 -4.8,-4.8 z"
   class="st4" /></svg>