<?xml version="1.0" encoding="utf-8"?>
<!-- Generator: Adobe Illustrator 22.0.1, SVG Export Plug-In . SVG Version: 6.00 Build 0)  -->
<svg version="1.1" xmlns="http://www.w3.org/2000/svg" xmlns:xlink="http://www.w3.org/1999/xlink" x="0px" y="0px"
	 viewBox="0 0 152.4 152.4" style="enable-background:new 0 0 152.4 152.4;" xml:space="preserve">
<style type="text/css">
	.st0{fill:#FFFFFF;}
	.st1{fill:#1E242B;stroke:#C2D52E;stroke-width:4;stroke-miterlimit:10;}
	.st2{clip-path:url(#SVGID_2_);}
	.st3{clip-path:url(#SVGID_4_);}
	.st4{fill:#231F20;}
	.st5{display:none;fill:#231F20;stroke:#FFFFFF;stroke-width:5;stroke-miterlimit:10;}
	.st6{clip-path:url(#SVGID_6_);fill:#231F20;}
	.st7{clip-path:url(#SVGID_8_);}
	.st8{clip-path:url(#SVGID_10_);fill:#231F20;}
	.st9{fill:none;}
	.st10{clip-path:url(#SVGID_12_);fill:#231F20;}
	.st11{fill:#EC1C24;}
	.st12{clip-path:url(#SVGID_16_);fill:#FFFFFF;}
	.st13{clip-path:url(#SVGID_18_);fill:#FFFFFF;}
	.st14{clip-path:url(#SVGID_20_);}
	.st15{clip-path:url(#SVGID_22_);}
	.st16{clip-path:url(#SVGID_24_);}
	.st17{clip-path:url(#SVGID_26_);}
	.st18{fill:#1E242B;}
	.st19{fill:#1E242B;stroke:#FFFFFF;stroke-miterlimit:10;}
	.st20{fill:none;stroke:#FFFFFF;stroke-width:2;stroke-miterlimit:10;}
	.st21{clip-path:url(#SVGID_30_);}
	.st22{clip-path:url(#SVGID_32_);}
	.st23{clip-path:url(#SVGID_34_);}
	.st24{clip-path:url(#SVGID_36_);}
	.st25{clip-path:url(#SVGID_38_);}
	.st26{clip-path:url(#SVGID_40_);}
	.st27{clip-path:url(#SVGID_44_);}
	.st28{clip-path:url(#SVGID_46_);}
	.st29{clip-path:url(#SVGID_48_);fill:#231F20;}
	.st30{clip-path:url(#SVGID_50_);fill:#FFFFFF;}
	.st31{clip-path:url(#SVGID_52_);}
	.st32{clip-path:url(#SVGID_54_);fill:#FFFFFF;}
	.st33{clip-path:url(#SVGID_56_);}
	.st34{clip-path:url(#SVGID_58_);}
	.st35{fill:#1E242B;stroke:#FFFFFF;stroke-width:2;stroke-miterlimit:10;}
	.st36{clip-path:url(#SVGID_60_);}
	.st37{display:none;}
	.st38{display:inline;fill:#FFFFFF;stroke:#FFFFFF;stroke-miterlimit:10;}
	.st39{clip-path:url(#SVGID_64_);}
	.st40{display:none;fill:#231F20;}
	.st41{fill-rule:evenodd;clip-rule:evenodd;fill:#231F20;}
	.st42{fill-rule:evenodd;clip-rule:evenodd;fill:#FFFFFF;}
	.st43{clip-path:url(#SVGID_68_);}
	.st44{fill:none;stroke:#000000;stroke-width:3;stroke-miterlimit:10;}
</style>
<g id="Screen_3">
</g>
<g id="Screen_4">
	<g>
		<g id="_x32_5_3_">
			<g>
				<path d="M99.5,58.8h-6.1V46.4c0-2.7-2.2-4.9-5-4.9c-2.7,0-4.9,2.2-4.9,4.9v12.3H70.1V46.4c0-2.7-2.2-4.9-5-4.9
					c-2.7,0-4.9,2.2-4.9,4.9v12.3h-7.4c-0.7,0-1.2,0.5-1.2,1.2v20.5c0,4.3,3.5,7.8,7.8,7.8h9.5c-0.1,0.1-0.1,0.3-0.1,0.4v20.9
					c0,0.7,0.5,1.2,1.2,1.2s1.2-0.6,1.2-1.2V88.7c0-0.2,0-0.3-0.1-0.4h10c-0.1,0.1-0.1,0.3-0.1,0.4v13.5c0,0.7,0.5,1.2,1.2,1.2
					c0.7,0,1.2-0.5,1.2-1.2V88.7c0-0.2,0-0.3-0.1-0.4h9.5c4.3,0,7.8-3.5,7.8-7.8V60C100.8,59.3,100.2,58.8,99.5,58.8z M86,46.4
					c0-1.3,1.1-2.4,2.5-2.4c1.3,0,2.4,1.1,2.4,2.4v12.3H86V46.4z M62.7,46.4c0-1.3,1.1-2.4,2.5-2.4c1.3,0,2.4,1.1,2.4,2.4v12.3h-4.9
					V46.4z M98.3,80.5c0,3-2.4,5.4-5.4,5.4H59.5c-3,0-5.4-2.4-5.4-5.4V61.2h44.2L98.3,80.5L98.3,80.5z"/>
			</g>
		</g>
	</g>
</g>
<g id="Screen_9">
</g>
</svg>
