<?xml version="1.0" encoding="utf-8"?>
<!-- Generator: Adobe Illustrator 22.0.1, SVG Export Plug-In . SVG Version: 6.00 Build 0)  -->
<svg version="1.1" xmlns="http://www.w3.org/2000/svg" xmlns:xlink="http://www.w3.org/1999/xlink" x="0px" y="0px"
	 viewBox="0 0 152.4 152.4" style="enable-background:new 0 0 152.4 152.4;" xml:space="preserve">
<style type="text/css">
	.st0{fill:#FFFFFF;}
	.st1{fill:#1E242B;stroke:#C2D52E;stroke-width:4;stroke-miterlimit:10;}
	.st2{clip-path:url(#SVGID_2_);}
	.st3{clip-path:url(#SVGID_4_);}
	.st4{fill:#231F20;}
	.st5{display:none;fill:#231F20;stroke:#FFFFFF;stroke-width:5;stroke-miterlimit:10;}
	.st6{clip-path:url(#SVGID_6_);fill:#231F20;}
	.st7{clip-path:url(#SVGID_8_);}
	.st8{clip-path:url(#SVGID_10_);fill:#231F20;}
	.st9{fill:none;}
	.st10{clip-path:url(#SVGID_12_);fill:#231F20;}
	.st11{fill:#EC1C24;}
	.st12{clip-path:url(#SVGID_16_);fill:#FFFFFF;}
	.st13{clip-path:url(#SVGID_18_);fill:#FFFFFF;}
	.st14{clip-path:url(#SVGID_20_);}
	.st15{clip-path:url(#SVGID_22_);}
	.st16{clip-path:url(#SVGID_24_);}
	.st17{clip-path:url(#SVGID_26_);}
	.st18{fill:#1E242B;}
	.st19{fill:#1E242B;stroke:#FFFFFF;stroke-miterlimit:10;}
	.st20{fill:none;stroke:#FFFFFF;stroke-width:2;stroke-miterlimit:10;}
	.st21{clip-path:url(#SVGID_30_);}
	.st22{clip-path:url(#SVGID_32_);}
	.st23{clip-path:url(#SVGID_34_);}
	.st24{clip-path:url(#SVGID_36_);}
	.st25{clip-path:url(#SVGID_38_);}
	.st26{clip-path:url(#SVGID_40_);}
	.st27{clip-path:url(#SVGID_44_);}
	.st28{clip-path:url(#SVGID_46_);}
	.st29{clip-path:url(#SVGID_48_);fill:#231F20;}
	.st30{clip-path:url(#SVGID_50_);fill:#FFFFFF;}
	.st31{clip-path:url(#SVGID_52_);}
	.st32{clip-path:url(#SVGID_54_);fill:#FFFFFF;}
	.st33{clip-path:url(#SVGID_56_);}
	.st34{clip-path:url(#SVGID_58_);}
	.st35{fill:#1E242B;stroke:#FFFFFF;stroke-width:2;stroke-miterlimit:10;}
	.st36{clip-path:url(#SVGID_60_);}
	.st37{display:none;}
	.st38{display:inline;fill:#FFFFFF;stroke:#FFFFFF;stroke-miterlimit:10;}
	.st39{clip-path:url(#SVGID_64_);}
	.st40{display:none;fill:#231F20;}
	.st41{fill-rule:evenodd;clip-rule:evenodd;fill:#231F20;}
	.st42{fill-rule:evenodd;clip-rule:evenodd;fill:#FFFFFF;}
	.st43{clip-path:url(#SVGID_68_);}
	.st44{fill:none;stroke:#000000;stroke-width:3;stroke-miterlimit:10;}
</style>
<g id="Screen_3">
	<g>
		<path class="st4" d="M53,50.1c-0.3,0-0.6-0.1-0.9-0.2c-0.1-0.1-0.2-0.1-0.3-0.2c-0.9-0.5-2.2-1.3-3.1-3.8v0
			c-0.7-2.1,0.4-4.9,2.4-6c2-1.1,4.8-2.4,11.2-4.7c5-1.7,16.4-5.3,19.6-5.5c4.6-0.4,7.6,1.1,8.1,3.9c0.6,3.3-3,5.4-4.4,6
			c-0.4,0.2-2.3,0.7-5.5,1.6c-3.3,0.9-7.3,2-8.7,2.5l-1,0.3c-12.5,4.2-15.8,5.5-16.4,5.9C53.9,50,53.4,50.1,53,50.1z M52.8,47.9
			C52.8,47.9,52.8,47.9,52.8,47.9C52.8,47.9,52.8,47.9,52.8,47.9z M51,45.1c0.6,1.7,1.3,2.1,2.1,2.6c0,0,0,0,0.1,0
			c1.5-0.8,6.6-2.6,16.6-6l1-0.3c1.4-0.5,5.3-1.6,8.8-2.5c2.3-0.6,4.9-1.4,5.2-1.5c0.5-0.2,3.3-1.6,2.9-3.3c-0.3-1.8-3.2-2.2-5.6-2
			c-2.8,0.2-14,3.7-19,5.4c-6.2,2.2-9,3.5-10.9,4.5C51.1,42.6,50.6,44.1,51,45.1L51,45.1z"/>
		<path class="st4" d="M53.4,65c-0.2,0-0.3,0-0.5-0.1c-1.6-0.5-3.5-1.3-4.8-4.3l0,0c-1-2.3,0.4-5.4,3.1-6.7c2.7-1.3,6.5-3.1,15.2-6
			c6.8-2.3,22.5-6.6,26.3-7.5c3.6-0.9,6.5-0.7,8.5,0.5c1.2,0.7,2,1.8,2.3,3.2c0.7,3.1-1.2,5.5-5.8,6.9c-0.4,0.1-2.1,0.6-4.5,1.2
			c-4.9,1.3-12.3,3.3-14.5,4c-3.4,1.1-22,7.8-24,8.6C54.6,64.8,54,65,53.4,65z M50.3,59.7c0.9,2.1,2.1,2.6,3.1,2.9
			c0.1,0,0.3,0,0.4-0.1c2-0.8,20.6-7.5,24.1-8.7c2.3-0.8,9.8-2.7,14.7-4c2.3-0.6,4.1-1.1,4.4-1.2c4.8-1.5,4.4-3.3,4.2-4
			c-0.2-0.7-0.6-1.3-1.2-1.7c-1.4-0.8-3.7-0.9-6.6-0.2c-3.7,0.9-19.3,5.1-26.1,7.4c-8.5,2.9-12.3,4.6-14.9,5.9
			C50.6,56.9,49.8,58.7,50.3,59.7L50.3,59.7z"/>
		<path class="st4" d="M87.9,95.1h-5.6c-1.5,0-2.5-1.1-2.5-2.6v-6.6c0-0.7,0-1.4,0-2c0-2-0.1-3.3,0.8-4.3c4.1-4.8,8.6-6.5,12.2-7.9
			c0.5-0.2,1-0.4,1.4-0.6c4.6-1.8,6,1.5,6.5,2.8c0.1,0.1,0.1,0.3,0.2,0.4c1.1,2.5-0.8,4.8-3,6.2c-1.6,1-7.2,4.6-7.8,5.2
			c-0.3,0.3-0.3,0.8-0.3,1.3l0,0.2v4.9C89.7,93.2,89.7,95.1,87.9,95.1z M82.1,92.7c0,0,0.1,0,0.1,0h5.1c0-0.1,0-0.3,0-0.5l0-5.1
			c0-0.8,0-2.1,1-3.1c0.9-0.9,8.1-5.5,8.2-5.5c0.1-0.1,2.8-1.8,2.2-3.2c-0.1-0.1-0.1-0.3-0.2-0.5c-0.6-1.4-1-2.5-3.4-1.5
			c-0.5,0.2-0.9,0.4-1.4,0.6c-3.5,1.4-7.6,2.9-11.3,7.2c-0.3,0.3-0.3,1.1-0.2,2.7c0,0.6,0,1.2,0,2v6.6
			C82.1,92.6,82.1,92.7,82.1,92.7C82.1,92.7,82.1,92.7,82.1,92.7z"/>
		<path class="st4" d="M68.1,95.1h-5.6c-1.8,0-1.8-1.9-1.8-2.9l0-5.1c0-0.5,0-1.1-0.3-1.3c-0.4-0.4-3.3-2.3-7.1-4.7L53,80.9
			c-1.1-0.5-2.8-1.3-4-4c-1-2.3,0.4-5.4,3.1-6.7c2.7-1.3,6.6-3,15.2-5.9c6.8-2.3,22.6-6.4,26.3-7.3c3.6-0.9,6.5-0.7,8.5,0.5
			c1.2,0.7,2,1.8,2.3,3.2l0,0c0.7,3.2-1.3,5.4-5.9,6.8c-0.4,0.1-1.9,0.5-4,1.1C89.8,70,81.8,72.2,79.4,73l-1.3,0.4
			c-2.4,0.8-6.7,2.1-10.9,3.5c1,0.8,1.9,1.7,2.7,2.7c0.9,1,0.9,2.3,0.8,4.3c0,0.6,0,1.2,0,2v6.6C70.7,94,69.7,95.1,68.1,95.1z
			 M63,92.7h5.1c0.1,0,0.2,0,0.2,0c0,0,0-0.1,0-0.3v-6.6c0-0.8,0-1.4,0-2c0-1.6,0-2.4-0.2-2.7c-1.3-1.4-2.6-2.6-4.1-3.7l-2-1.4
			l2.3-0.8c4.9-1.6,10.2-3.3,13.1-4.2l1.3-0.4c2.4-0.8,10.5-3,15.3-4.3c2.1-0.6,3.6-1,3.9-1.1c4.8-1.4,4.4-3.2,4.2-4l0,0
			c-0.2-0.7-0.6-1.3-1.2-1.7c-1.4-0.9-3.7-0.9-6.6-0.2c-3.7,0.9-19.4,5-26.2,7.2c-8.5,2.8-12.4,4.5-14.9,5.8c-1.7,0.8-2.4,2.6-2,3.6
			c0.8,1.8,1.8,2.3,2.8,2.8c0.1,0.1,0.3,0.1,0.4,0.2l0.1,0.1c3.1,2,6.9,4.5,7.5,5.1c1,1,1,2.3,1,3.1l0,0.2v4.9
			C63,92.4,63,92.6,63,92.7z"/>
		<path class="st4" d="M88,107H62.2c-1.5,0-2.7-1.2-2.7-2.7V100c0-1.5,1.2-2.7,2.7-2.7H88c1.5,0,2.7,1.2,2.7,2.7v4.4
			C90.7,105.8,89.5,107,88,107z M62.2,99.7c-0.1,0-0.3,0.1-0.3,0.3v4.4c0,0.1,0.1,0.3,0.3,0.3H88c0.1,0,0.3-0.1,0.3-0.3V100
			c0-0.1-0.1-0.3-0.3-0.3H62.2z"/>
		<path class="st4" d="M79.8,122.8h-9.3c-5.8,0-10.6-3.6-11-8.2c0-0.1,0-0.2,0-0.4v-2.6c0-1.4,1.3-2.5,2.8-2.5H88
			c1.6,0,2.8,1.1,2.8,2.5v2.6c0,0.1,0,0.3,0,0.4C90.4,119.2,85.6,122.8,79.8,122.8z M62.3,111.5c-0.3,0-0.5,0.1-0.5,0.2l0,2.7
			c0.2,3.4,4.1,6.1,8.6,6.1h9.3c4.5,0,8.4-2.7,8.6-6.1l0-0.7v-2.1c0,0-0.2-0.1-0.5-0.1H62.3z"/>
	</g>
</g>
<g id="Screen_4">
</g>
<g id="Screen_9">
</g>
</svg>
