<svg id="Screen_3" data-name="Screen 3" xmlns="http://www.w3.org/2000/svg" viewBox="0 0 152.4 152.4"><defs><style>.cls-1{fill:#231f20;}</style></defs><title>icons</title><path class="cls-1" d="M136.6,75.27,120.79,56.58a1.47,1.47,0,0,0-1.6-.43,1.45,1.45,0,0,0-.94,1.35v8.63h-5.14V56.07a1.42,1.42,0,0,0-.48-1.08L88.18,33.42a1.44,1.44,0,0,0-1-.36H45.53a1.44,1.44,0,0,0-1.44,1.44v83.4a1.44,1.44,0,0,0,1.44,1.43h66.15a1.43,1.43,0,0,0,1.43-1.43V86.26h5.14v8.63a1.45,1.45,0,0,0,.94,1.35,1.47,1.47,0,0,0,.5.09,1.45,1.45,0,0,0,1.1-.51L136.6,77.13A1.43,1.43,0,0,0,136.6,75.27ZM88.67,37.68l19.2,17H88.67Zm21.57,78.78H47V35.94H85.79V56.07a1.45,1.45,0,0,0,1.44,1.44h23v8.62H96.68a1.44,1.44,0,0,0-1.44,1.44V84.82a1.44,1.44,0,0,0,1.44,1.44h13.56ZM121.13,91V84.82a1.44,1.44,0,0,0-1.44-1.43H98.12V69h21.57a1.44,1.44,0,0,0,1.44-1.44V61.43L133.62,76.2Z"/></svg>