<?xml version="1.0" encoding="utf-8"?>
<!-- Generator: Adobe Illustrator 22.0.1, SVG Export Plug-In . SVG Version: 6.00 Build 0)  -->
<svg version="1.1" xmlns="http://www.w3.org/2000/svg" xmlns:xlink="http://www.w3.org/1999/xlink" x="0px" y="0px"
	 viewBox="0 0 152.4 152.4" style="enable-background:new 0 0 152.4 152.4;" xml:space="preserve">
<style type="text/css">
	.st0{fill:#FFFFFF;}
	.st1{fill:#1E242B;stroke:#C2D52E;stroke-width:4;stroke-miterlimit:10;}
	.st2{clip-path:url(#SVGID_2_);}
	.st3{clip-path:url(#SVGID_4_);}
	.st4{fill:#231F20;}
	.st5{display:none;fill:#231F20;stroke:#FFFFFF;stroke-width:5;stroke-miterlimit:10;}
	.st6{clip-path:url(#SVGID_6_);fill:#231F20;}
	.st7{clip-path:url(#SVGID_8_);}
	.st8{clip-path:url(#SVGID_10_);fill:#231F20;}
	.st9{fill:none;}
	.st10{clip-path:url(#SVGID_12_);fill:#231F20;}
	.st11{fill:#EC1C24;}
	.st12{clip-path:url(#SVGID_16_);fill:#FFFFFF;}
	.st13{clip-path:url(#SVGID_18_);fill:#FFFFFF;}
	.st14{clip-path:url(#SVGID_20_);}
	.st15{clip-path:url(#SVGID_22_);}
	.st16{clip-path:url(#SVGID_24_);}
	.st17{clip-path:url(#SVGID_26_);}
	.st18{fill:#1E242B;}
	.st19{fill:#1E242B;stroke:#FFFFFF;stroke-miterlimit:10;}
	.st20{fill:none;stroke:#FFFFFF;stroke-width:2;stroke-miterlimit:10;}
	.st21{clip-path:url(#SVGID_30_);}
	.st22{clip-path:url(#SVGID_32_);}
	.st23{clip-path:url(#SVGID_34_);}
	.st24{clip-path:url(#SVGID_36_);}
	.st25{clip-path:url(#SVGID_38_);}
	.st26{clip-path:url(#SVGID_40_);}
	.st27{clip-path:url(#SVGID_44_);}
	.st28{clip-path:url(#SVGID_46_);}
	.st29{clip-path:url(#SVGID_48_);fill:#231F20;}
	.st30{clip-path:url(#SVGID_50_);fill:#FFFFFF;}
	.st31{clip-path:url(#SVGID_52_);}
	.st32{clip-path:url(#SVGID_54_);fill:#FFFFFF;}
	.st33{clip-path:url(#SVGID_56_);}
	.st34{clip-path:url(#SVGID_58_);}
	.st35{fill:#1E242B;stroke:#FFFFFF;stroke-width:2;stroke-miterlimit:10;}
	.st36{clip-path:url(#SVGID_60_);}
	.st37{display:none;}
	.st38{display:inline;fill:#FFFFFF;stroke:#FFFFFF;stroke-miterlimit:10;}
	.st39{clip-path:url(#SVGID_64_);}
	.st40{display:none;fill:#231F20;}
	.st41{fill-rule:evenodd;clip-rule:evenodd;fill:#231F20;}
	.st42{fill-rule:evenodd;clip-rule:evenodd;fill:#FFFFFF;}
	.st43{clip-path:url(#SVGID_68_);}
	.st44{fill:none;stroke:#000000;stroke-width:3;stroke-miterlimit:10;}
</style>
<g id="Screen_3">
	<path class="st4" d="M74.1,90c-20.6,0-31.2-4.9-34.2-7.9c-1.7-1.7-2.6-3.1-2.6-5.5c0-1.8,1.3-2.6,2.3-3.3c0.3-0.2,0.5-0.3,0.8-0.6
		c0.4-0.3,1.1-0.9,1.5-1.4c0.2-10.4,5.3-19.8,14-26.1l2.4-1.7V59c0,1,0.8,1.8,1.8,1.8s1.8-0.8,1.8-1.8V42l0.9-0.4
		c1.9-0.8,3.8-1.4,5.8-1.8v-0.9c0-2,1.7-3.7,3.7-3.7h7.9c2,0,3.7,1.7,3.7,3.7v0.9c2,0.5,4,1.1,5.9,1.9l0.9,0.4V59
		c0,1,0.8,1.8,1.8,1.8s1.8-0.8,1.8-1.8V43.8l2.4,1.7c8.6,6.3,13.6,15.8,13.9,26.2c1.9,1.4,2.5,1.8,2.7,2l0.3,0.3
		c0.8,0.7,1.8,1.6,1.7,3.4c-0.1,2.1-2.7,5.4-9.3,8.6c-6.9,3.3-21.6,4-29.7,4.1C75.4,90,74.7,90,74.1,90z M55.2,49.7
		C48.7,55.4,45,63.3,44.8,71.9l-0.1,0.4L44.6,73l-0.3,0.3c-0.1,0.1-1.3,1.3-2.1,2c-0.3,0.3-0.7,0.5-1,0.7c-0.7,0.4-0.9,0.6-0.9,0.8
		c0,1.2,0.2,1.8,1.8,3.3c0.1,0.1,7.7,7.4,34,7c6.3-0.1,21.7-0.7,28.4-3.8c6.1-2.9,7.6-5.5,7.6-6.1c0-0.2,0-0.3-0.7-0.9l-0.3-0.3
		c-0.1-0.1-0.6-0.5-3-2.2l-0.6-0.4l0-0.8c0-8.7-3.7-16.8-10.3-22.6V59c0,2.6-2.1,4.8-4.8,4.8s-4.8-2.1-4.8-4.8V44.1
		c-1.8-0.7-3.7-1.2-5.6-1.6l-1.2-0.2v-3.3c0-0.4-0.3-0.7-0.7-0.7h-7.9c-0.4,0-0.7,0.3-0.7,0.7v3.3l-1.2,0.2
		c-1.9,0.3-3.7,0.9-5.5,1.5v15c0,2.6-2.1,4.8-4.8,4.8c-2.6,0-4.8-2.1-4.8-4.8V49.7z"/>
	<g>
		<defs>
			<path id="SVGID_39_" d="M106.6,89.5c-2.3,5.6-13.8,10.1-30.8,10.1c-17.9,0-28.8-4.3-30.9-10.1h-4.4v41.3h73.3V89.5H106.6z"/>
		</defs>
		<clipPath id="SVGID_2_">
			<use xlink:href="#SVGID_39_"  style="overflow:visible;"/>
		</clipPath>
		<g class="st2">
			<path d="M103.1,93.5c-0.1-0.4-0.3-0.8-0.7-1c-0.4-0.2-0.8-0.3-1.2-0.2c-1,0.2-2,0.2-2.9-0.2c-2.4-0.9-3.7-3.7-2.7-6.1
				c0.4-0.9,1-1.7,1.8-2.3c0.4-0.2,0.6-0.6,0.7-1c0.1-0.4,0-0.9-0.3-1.2c-1.7-2.3-3.8-4.2-6.1-5.9c-0.4-0.2-0.8-0.3-1.2-0.3
				c-0.4,0.1-0.8,0.4-1,0.7c-0.5,0.8-1.2,1.5-2.1,1.9c-0.6,0.3-1.3,0.4-1.9,0.4c-1.9,0-3.6-1.1-4.3-2.8c-0.4-0.9-0.5-1.9-0.3-2.9
				c0.1-0.4,0-0.9-0.2-1.2c-0.2-0.4-0.6-0.6-1.1-0.6c-2.8-0.4-5.7-0.4-8.4,0.1c-0.4,0.1-0.8,0.3-1,0.7c-0.2,0.4-0.3,0.8-0.2,1.2
				c0.2,0.9,0.2,1.9-0.2,2.8c-0.7,1.8-2.5,3-4.4,3c-0.6,0-1.2-0.1-1.7-0.3c-0.9-0.4-1.7-1-2.3-1.9c-0.2-0.4-0.6-0.6-1-0.7
				c-0.4-0.1-0.9,0-1.2,0.3c-2.3,1.7-4.3,3.7-5.9,6.1c-0.3,0.4-0.3,0.8-0.3,1.2c0.1,0.4,0.4,0.8,0.7,1c0.8,0.5,1.5,1.2,1.9,2.1
				c0.5,1.2,0.5,2.4,0.1,3.6c-0.5,1.2-1.3,2.1-2.5,2.6c-0.9,0.4-2,0.5-2.9,0.3c-0.4-0.1-0.9,0-1.2,0.2c-0.4,0.2-0.6,0.6-0.7,1.1
				c-0.4,2.8-0.4,5.7,0.1,8.5c0.1,0.4,0.3,0.8,0.7,1c0.4,0.2,0.8,0.3,1.2,0.2c1-0.3,2-0.2,2.9,0.2c1.2,0.5,2.1,1.3,2.6,2.5
				c0.5,1.2,0.5,2.4,0.1,3.6c-0.4,0.9-1,1.7-1.9,2.3c-0.4,0.2-0.6,0.6-0.7,1c-0.1,0.4,0,0.9,0.3,1.2c1.7,2.3,3.8,4.3,6.1,5.9
				c0.4,0.3,0.8,0.3,1.2,0.2c0.4-0.1,0.8-0.4,1-0.7c0.5-0.9,1.3-1.5,2.2-2c0.6-0.3,1.3-0.4,1.9-0.4c1.9,0,3.6,1.1,4.3,2.8
				c0.4,0.9,0.5,2,0.3,3c-0.1,0.4,0,0.9,0.2,1.2c0.2,0.4,0.6,0.6,1.1,0.7c1.3,0.2,2.6,0.3,3.8,0.3c1.6,0,3.2-0.1,4.7-0.4
				c0.4-0.1,0.8-0.3,1-0.7c0.2-0.4,0.3-0.8,0.2-1.2c-0.3-1-0.2-2,0.1-2.9c0.7-1.8,2.5-3,4.4-3c0.6,0,1.2,0.1,1.7,0.3
				c0.9,0.4,1.7,1,2.3,1.9c0.2,0.4,0.6,0.6,1,0.7c0.4,0.1,0.9,0,1.2-0.3c2.3-1.7,4.3-3.8,5.9-6.1c0.2-0.4,0.3-0.8,0.2-1.2
				c-0.1-0.4-0.4-0.8-0.7-1c-0.9-0.5-1.5-1.3-1.9-2.2c-1.1-2.4,0-5.2,2.4-6.3c0.9-0.4,2-0.5,2.9-0.3c0.4,0.1,0.9,0,1.2-0.2
				c0.4-0.2,0.6-0.6,0.7-1.1C103.6,99.2,103.6,96.3,103.1,93.5L103.1,93.5z M100.3,100.1c-1.1,0-2.2,0.2-3.2,0.7
				c-4,1.8-5.7,6.4-4,10.4c0.4,1,1,1.8,1.8,2.5c-0.9,1.2-2,2.3-3.2,3.3c-0.8-0.8-1.7-1.4-2.7-1.8c-0.9-0.3-1.8-0.5-2.8-0.5
				c-3.2,0-6.2,2-7.3,5c-0.4,1-0.6,2.1-0.5,3.1c-1.5,0.2-3,0.2-4.6,0.1c0-1.1-0.2-2.2-0.7-3.2c-1.3-2.8-4.1-4.7-7.2-4.7
				c-1.1,0-2.2,0.2-3.2,0.7c-1,0.4-1.8,1.1-2.6,1.8c-1.2-1-2.3-2-3.3-3.2c0.8-0.8,1.4-1.7,1.8-2.8c0.8-2,0.7-4.1-0.2-6
				c-0.9-1.9-2.4-3.4-4.4-4.1c-1-0.4-2-0.6-3.1-0.5c-0.2-1.5-0.2-3-0.1-4.5h0c1.1,0,2.2-0.2,3.2-0.7c1.9-0.9,3.4-2.4,4.1-4.4
				c0.8-2,0.7-4.1-0.2-6c-0.4-0.9-1-1.8-1.8-2.5c1-1.2,2-2.3,3.2-3.3c0.8,0.8,1.7,1.4,2.7,1.7c0.9,0.3,1.8,0.5,2.8,0.5
				c3.2,0,6.2-2,7.3-5c0.4-1,0.5-2,0.5-3c1.5-0.2,3-0.2,4.5-0.1c0,1.1,0.2,2.1,0.7,3.1c1.3,2.8,4.1,4.7,7.2,4.7
				c1.1,0,2.2-0.2,3.2-0.7c0.9-0.4,1.8-1,2.5-1.7c1.2,0.9,2.3,2,3.3,3.2c-0.8,0.8-1.3,1.7-1.7,2.7c-1.6,4,0.5,8.6,4.5,10.1
				c1,0.4,2,0.5,3,0.5C100.4,97.1,100.4,98.6,100.3,100.1L100.3,100.1z M100.3,100.1"/>
			<g>
				<defs>
					<rect id="SVGID_41_" x="48" y="70.5" width="55.7" height="55.8"/>
				</defs>
				<clipPath id="SVGID_4_">
					<use xlink:href="#SVGID_41_"  style="overflow:visible;"/>
				</clipPath>
			</g>
			<path d="M75.7,86.4c-1.7,0-3.3,0.4-4.8,1c-6,2.7-8.7,9.7-6.1,15.8c1.9,4.3,6.2,7.1,10.9,7.1c1.7,0,3.3-0.3,4.8-1
				c6-2.7,8.7-9.7,6-15.8C84.7,89.1,80.4,86.4,75.7,86.4L75.7,86.4z M79.3,106.4c-1.1,0.5-2.3,0.8-3.6,0.8c-3.5,0-6.6-2.1-8.1-5.2
				c-2-4.4,0-9.7,4.5-11.6c1.1-0.5,2.3-0.8,3.6-0.8c3.5,0,6.6,2.1,8.1,5.2C85.8,99.2,83.8,104.4,79.3,106.4L79.3,106.4z M79.3,106.4
				"/>
		</g>
	</g>
</g>
<g id="Screen_4">
</g>
<g id="Screen_9">
</g>
</svg>
