<svg xmlns="http://www.w3.org/2000/svg" viewBox="0 0 152.4 152.4"><defs><style>.cls-1{fill:#231f20;}</style></defs><title>icons</title><g id="Screen_9" data-name="Screen 9"><path class="cls-1" d="M106.15,54.68a1.6,1.6,0,0,1-1.6-1.6.81.81,0,0,0-1.61,0,3.2,3.2,0,0,0,2.41,3.09v.11a.8.8,0,1,0,1.6,0v-.11a3.2,3.2,0,0,0-.8-6.3,1.6,1.6,0,1,1,1.6-1.6.8.8,0,0,0,1.6,0,3.2,3.2,0,0,0-2.4-3.09v-.12a.8.8,0,1,0-1.6,0v.12a3.2,3.2,0,0,0,.8,6.3,1.6,1.6,0,0,1,0,3.2Z"/><path d="M106.11,38.28a12.4,12.4,0,0,0,0,24.79,12.46,12.46,0,0,0,12.44-12.44A12.33,12.33,0,0,0,106.11,38.28Zm0,22.07a9.68,9.68,0,1,1,9.71-9.63A9.72,9.72,0,0,1,106.11,60.35Z"/><path d="M100.14,64.69a1.45,1.45,0,0,0-2-.25l-13.81,11L66.56,68a1.33,1.33,0,0,0-1.27.17L46.2,81.82a1.36,1.36,0,0,0-.34,1.88,1.24,1.24,0,0,0,1.1.59,1.35,1.35,0,0,0,.77-.25L66.22,70.83l17.9,7.41a1.51,1.51,0,0,0,1.36-.17l14.4-11.42A1.44,1.44,0,0,0,100.14,64.69Z"/><path d="M120.08,111.39h-6.3V71.94a1.35,1.35,0,0,0-1.37-1.37H99.88a1.35,1.35,0,0,0-1.36,1.37v39.45h-4.6V85.57a1.34,1.34,0,0,0-1.36-1.36H79.94a1.34,1.34,0,0,0-1.36,1.36v25.82H74V83.53a1.35,1.35,0,0,0-1.37-1.37H60.09a1.35,1.35,0,0,0-1.37,1.37v27.86h-4.6V91.54a1.34,1.34,0,0,0-1.36-1.37H40.15a1.35,1.35,0,0,0-1.37,1.37v19.85H32.39a1.37,1.37,0,0,0,0,2.73H120a1.35,1.35,0,0,0,1.36-1.36A1.24,1.24,0,0,0,120.08,111.39Zm-68.77,0h-9.8V92.9h9.8Zm19.94,0h-9.8V84.89h9.8Zm19.86,0h-9.8V86.94h9.8Zm19.94,0h-9.8V73.3h9.8Z"/></g></svg>