<?xml version="1.0" encoding="utf-8"?>
<!-- Generator: Adobe Illustrator 22.0.1, SVG Export Plug-In . SVG Version: 6.00 Build 0)  -->
<svg version="1.1" xmlns="http://www.w3.org/2000/svg" xmlns:xlink="http://www.w3.org/1999/xlink" x="0px" y="0px"
	 viewBox="0 0 152.4 152.4" style="enable-background:new 0 0 152.4 152.4;" xml:space="preserve">
<style type="text/css">
	.st0{fill:#FFFFFF;}
	.st1{fill:#1E242B;stroke:#C2D52E;stroke-width:4;stroke-miterlimit:10;}
	.st2{clip-path:url(#SVGID_2_);}
	.st3{clip-path:url(#SVGID_4_);}
	.st4{fill:#231F20;}
	.st5{display:none;fill:#231F20;stroke:#FFFFFF;stroke-width:5;stroke-miterlimit:10;}
	.st6{clip-path:url(#SVGID_6_);fill:#231F20;}
	.st7{clip-path:url(#SVGID_8_);}
	.st8{clip-path:url(#SVGID_10_);fill:#231F20;}
	.st9{fill:none;}
	.st10{clip-path:url(#SVGID_12_);fill:#231F20;}
	.st11{fill:#EC1C24;}
	.st12{clip-path:url(#SVGID_16_);fill:#FFFFFF;}
	.st13{clip-path:url(#SVGID_18_);fill:#FFFFFF;}
	.st14{clip-path:url(#SVGID_20_);}
	.st15{clip-path:url(#SVGID_22_);}
	.st16{clip-path:url(#SVGID_24_);}
	.st17{clip-path:url(#SVGID_26_);}
	.st18{fill:#1E242B;}
	.st19{fill:#1E242B;stroke:#FFFFFF;stroke-miterlimit:10;}
	.st20{fill:none;stroke:#FFFFFF;stroke-width:2;stroke-miterlimit:10;}
	.st21{clip-path:url(#SVGID_30_);}
	.st22{clip-path:url(#SVGID_32_);}
	.st23{clip-path:url(#SVGID_34_);}
	.st24{clip-path:url(#SVGID_36_);}
	.st25{clip-path:url(#SVGID_38_);}
	.st26{clip-path:url(#SVGID_40_);}
	.st27{clip-path:url(#SVGID_44_);}
	.st28{clip-path:url(#SVGID_46_);}
	.st29{clip-path:url(#SVGID_48_);fill:#231F20;}
	.st30{clip-path:url(#SVGID_50_);fill:#FFFFFF;}
	.st31{clip-path:url(#SVGID_52_);}
	.st32{clip-path:url(#SVGID_54_);fill:#FFFFFF;}
	.st33{clip-path:url(#SVGID_56_);}
	.st34{clip-path:url(#SVGID_58_);}
	.st35{fill:#1E242B;stroke:#FFFFFF;stroke-width:2;stroke-miterlimit:10;}
	.st36{clip-path:url(#SVGID_60_);}
	.st37{display:none;}
	.st38{display:inline;fill:#FFFFFF;stroke:#FFFFFF;stroke-miterlimit:10;}
	.st39{clip-path:url(#SVGID_64_);}
	.st40{display:none;fill:#231F20;}
	.st41{fill-rule:evenodd;clip-rule:evenodd;fill:#231F20;}
	.st42{fill-rule:evenodd;clip-rule:evenodd;fill:#FFFFFF;}
	.st43{clip-path:url(#SVGID_68_);}
	.st44{fill:none;stroke:#000000;stroke-width:3;stroke-miterlimit:10;}
</style>
<g id="Screen_3">
	<g>
		<g>
			<g>
				<path d="M32.2,64.5c0,17.8,14.5,32.2,32.2,32.2s32.2-14.5,32.2-32.2S82.3,32.2,64.5,32.2S32.2,46.7,32.2,64.5z M35.2,64.5
					c0-16.2,13.1-29.3,29.3-29.3s29.3,13.1,29.3,29.3S80.6,93.8,64.5,93.8C48.3,93.8,35.2,80.6,35.2,64.5z"/>
			</g>
		</g>
		<g>
			<g>
				<path d="M85.4,96.3l21.6,21.6c1.5,1.4,3.4,2.2,5.4,2.2c4.2,0,7.7-3.4,7.7-7.7c0-2-0.8-4-2.2-5.4L96.3,85.4
					c-0.6-0.6-1.5-0.6-2.1,0l-8.8,8.8C84.8,94.8,84.8,95.7,85.4,96.3z M88.5,95.3l6.7-6.7l20.6,20.6c0.9,0.9,1.4,2.1,1.4,3.4
					c0,2.6-2.1,4.7-4.7,4.7c-1.3,0-2.5-0.5-3.4-1.4L88.5,95.3z"/>
			</g>
		</g>
		<g>
			<g>
				<rect x="85" y="86.7" transform="matrix(0.7071 -0.7071 0.7071 0.7071 -38.9206 87.7475)" width="2.9" height="8.3"/>
			</g>
		</g>
		<g>
			<g>
				<rect x="89.4" y="82.3" transform="matrix(0.7071 -0.7071 0.7071 0.7071 -34.5239 89.5683)" width="2.9" height="8.3"/>
			</g>
		</g>
		<g>
			<g>
				<path d="M39.6,64.5c0,13.7,11.2,24.9,24.9,24.9s24.9-11.2,24.9-24.9S78.2,39.6,64.5,39.6S39.6,50.7,39.6,64.5z M42.5,64.5
					c0-12.1,9.9-22,22-22s22,9.9,22,22s-9.9,22-22,22S42.5,76.6,42.5,64.5z"/>
			</g>
		</g>
		<g>
			<g>
				<rect x="89" y="93.8" transform="matrix(0.7071 -0.7071 0.7071 0.7071 -39.453 95.2513)" width="12.4" height="2.9"/>
			</g>
		</g>
	</g>
</g>
<g id="Screen_4">
</g>
<g id="Screen_9">
</g>
</svg>
