<?xml version="1.0" encoding="utf-8"?>
<!-- Generator: Adobe Illustrator 22.0.1, SVG Export Plug-In . SVG Version: 6.00 Build 0)  -->
<svg version="1.1" xmlns="http://www.w3.org/2000/svg" xmlns:xlink="http://www.w3.org/1999/xlink" x="0px" y="0px"
	 viewBox="0 0 152.4 152.4" style="enable-background:new 0 0 152.4 152.4;" xml:space="preserve">
<style type="text/css">
	.st0{fill:#FFFFFF;}
	.st1{fill:#1E242B;stroke:#C2D52E;stroke-width:4;stroke-miterlimit:10;}
	.st2{clip-path:url(#SVGID_2_);}
	.st3{clip-path:url(#SVGID_4_);}
	.st4{fill:#231F20;}
	.st5{display:none;fill:#231F20;stroke:#FFFFFF;stroke-width:5;stroke-miterlimit:10;}
	.st6{clip-path:url(#SVGID_6_);fill:#231F20;}
	.st7{clip-path:url(#SVGID_8_);}
	.st8{clip-path:url(#SVGID_10_);fill:#231F20;}
	.st9{fill:none;}
	.st10{clip-path:url(#SVGID_12_);fill:#231F20;}
	.st11{fill:#EC1C24;}
	.st12{clip-path:url(#SVGID_16_);fill:#FFFFFF;}
	.st13{clip-path:url(#SVGID_18_);fill:#FFFFFF;}
	.st14{clip-path:url(#SVGID_20_);}
	.st15{clip-path:url(#SVGID_22_);}
	.st16{clip-path:url(#SVGID_24_);}
	.st17{clip-path:url(#SVGID_26_);}
	.st18{fill:#1E242B;}
	.st19{fill:#1E242B;stroke:#FFFFFF;stroke-miterlimit:10;}
	.st20{fill:none;stroke:#FFFFFF;stroke-width:2;stroke-miterlimit:10;}
	.st21{clip-path:url(#SVGID_30_);}
	.st22{clip-path:url(#SVGID_32_);}
	.st23{clip-path:url(#SVGID_34_);}
	.st24{clip-path:url(#SVGID_36_);}
	.st25{clip-path:url(#SVGID_38_);}
	.st26{clip-path:url(#SVGID_40_);}
	.st27{clip-path:url(#SVGID_44_);}
	.st28{clip-path:url(#SVGID_46_);}
	.st29{clip-path:url(#SVGID_48_);fill:#231F20;}
	.st30{clip-path:url(#SVGID_50_);fill:#FFFFFF;}
	.st31{clip-path:url(#SVGID_52_);}
	.st32{clip-path:url(#SVGID_54_);fill:#FFFFFF;}
	.st33{clip-path:url(#SVGID_56_);}
	.st34{clip-path:url(#SVGID_58_);}
	.st35{fill:#1E242B;stroke:#FFFFFF;stroke-width:2;stroke-miterlimit:10;}
	.st36{clip-path:url(#SVGID_60_);}
	.st37{display:none;}
	.st38{display:inline;fill:#FFFFFF;stroke:#FFFFFF;stroke-miterlimit:10;}
	.st39{clip-path:url(#SVGID_64_);}
	.st40{display:none;fill:#231F20;}
	.st41{fill-rule:evenodd;clip-rule:evenodd;fill:#231F20;}
	.st42{fill-rule:evenodd;clip-rule:evenodd;fill:#FFFFFF;}
	.st43{clip-path:url(#SVGID_68_);}
	.st44{fill:none;stroke:#000000;stroke-width:3;stroke-miterlimit:10;}
</style>
<g id="Screen_3">
	<g>
		<path class="st4" d="M76.2,80.2c-13.5,0-24.6-11-24.6-24.6s11-24.6,24.6-24.6s24.6,11,24.6,24.6S89.7,80.2,76.2,80.2z M76.2,33.9
			c-12,0-21.7,9.7-21.7,21.7c0,12,9.7,21.7,21.7,21.7s21.7-9.7,21.7-21.7C97.9,43.7,88.2,33.9,76.2,33.9z"/>
		<path d="M76.2,64.3c-1.9,0-3.5-1.6-3.5-3.5c0-1-0.8-1.7-1.7-1.7c-1,0-1.7,0.8-1.7,1.7c0,3.2,2.2,5.9,5.2,6.7v0.2
			c0,1,0.8,1.7,1.7,1.7c1,0,1.7-0.8,1.7-1.7v-0.2c3-0.8,5.2-3.5,5.2-6.7c0-3.8-3.1-6.9-6.9-6.9c-1.9,0-3.5-1.6-3.5-3.5
			c0-1.9,1.6-3.5,3.5-3.5c1.9,0,3.5,1.6,3.5,3.5c0,1,0.8,1.7,1.7,1.7c1,0,1.7-0.8,1.7-1.7c0-3.2-2.2-5.9-5.2-6.7v-0.2
			c0-1-0.8-1.7-1.7-1.7c-1,0-1.7,0.8-1.7,1.7v0.2c-3,0.8-5.2,3.5-5.2,6.7c0,3.8,3.1,6.9,6.9,6.9c1.9,0,3.5,1.6,3.5,3.5
			C79.7,62.7,78.1,64.3,76.2,64.3z"/>
	</g>
	<g>
		<path d="M48.2,77.4c-1.7-1.7-4.4-2-6.4-0.9V58.6c0-0.9-0.2-1.8-0.6-2.5c0.2-0.1,0.5-0.1,0.8-0.1c1.5,0,2.6,1.2,2.6,2.6v13.2
			c0,0.8,0.6,1.4,1.4,1.4s1.4-0.6,1.4-1.4V58.6c0-3-2.4-5.4-5.4-5.4c-1,0-1.9,0.3-2.8,0.8c-0.8-0.5-1.7-0.8-2.8-0.8
			c-3,0-5.4,2.4-5.4,5.4l0,25.3c0,1.2,0.4,2.8,1,3.8c0,0,0,0,0,0l15.9,25.7c0.3,0.6,0.6,1.7,0.6,2.4v5c0,0.8,0.6,1.4,1.4,1.4
			s1.4-0.6,1.4-1.4v-5c0-1.2-0.4-2.8-1-3.8c0,0,0,0,0,0L34.4,86.3c-0.3-0.6-0.6-1.7-0.6-2.4l0-25.3c0-1.5,1.2-2.6,2.6-2.6
			c1.5,0,2.6,1.2,2.6,2.6v22.6c0,0,0,0.1,0,0.1c0,1.3,0.5,2.7,1.6,3.7l12.3,12.3c0.5,0.5,1.4,0.5,1.9,0c0.5-0.5,0.5-1.4,0-1.9
			L42.5,83.1c-1-1-1-2.7,0-3.7c1-1,2.7-1,3.7,0l15.2,15.2c1.7,1.7,3.1,5.1,3.1,7.5v18.8c0,0.8,0.6,1.4,1.4,1.4s1.4-0.6,1.4-1.4
			v-18.8c0-3.1-1.7-7.3-3.9-9.5L48.2,77.4z"/>
		<path d="M116,53.2c-1,0-1.9,0.3-2.8,0.8c-0.8-0.5-1.8-0.8-2.8-0.8c-3,0-5.4,2.4-5.4,5.4v13.2c0,0.8,0.6,1.4,1.4,1.4
			s1.4-0.6,1.4-1.4V58.6c0-1.5,1.2-2.6,2.6-2.6c0.3,0,0.5,0,0.8,0.1c-0.4,0.8-0.6,1.6-0.6,2.5v17.9c-2.1-1.1-4.7-0.9-6.4,0.9
			L89,92.6c-2.2,2.2-3.9,6.4-3.9,9.5v18.8c0,0.8,0.6,1.4,1.4,1.4s1.4-0.6,1.4-1.4v-18.8c0-2.4,1.4-5.8,3.1-7.5l15.2-15.2
			c1-1,2.7-1,3.7,0c1,1,1,2.7,0,3.7L97.5,95.4c-0.5,0.5-0.5,1.4,0,1.9c0.5,0.5,1.4,0.5,1.9,0L111.8,85c1-1,1.5-2.4,1.6-3.7
			c0,0,0-0.1,0-0.1V58.6c0-1.5,1.2-2.6,2.6-2.6c1.5,0,2.6,1.2,2.6,2.6l0,25.3c0,0.7-0.3,1.8-0.6,2.4l-15.9,25.7c0,0,0,0,0,0
			c-0.6,1-1,2.6-1,3.8v5c0,0.8,0.6,1.4,1.4,1.4s1.4-0.6,1.4-1.4v-5c0-0.7,0.3-1.8,0.6-2.4l15.9-25.7c0,0,0,0,0,0c0.6-1,1-2.6,1-3.8
			l0-25.3C121.4,55.6,119,53.2,116,53.2z"/>
	</g>
</g>
<g id="Screen_4">
</g>
<g id="Screen_9">
</g>
</svg>
