<svg xmlns="http://www.w3.org/2000/svg" xmlns:xlink="http://www.w3.org/1999/xlink" viewBox="0 0 65 65.04"><defs><style>.cls-1{fill:none;}.cls-2{clip-path:url(#clip-path);}.cls-3{fill:#000000;}</style><clipPath id="clip-path"><circle class="cls-1" cx="32.43" cy="32.48" r="32.3"/></clipPath></defs><title>SpruceIcons</title><g id="Screen_9" data-name="Screen 9"><g class="cls-2"><path class="cls-3" d="M160.12-51.42c4.92-3,10.19-2.55,14.09,1.15l.31.29,15.39-9.32-.28-.46c-2.37-3.92-7.1-6.43-7.1-6.43-8.89-5.16-20.25-4.83-29.66.86-9.6,5.81-15.14,15.38-14.33,24.58a38.08,38.08,0,0,0-3.81-1.16,36.16,36.16,0,0,0-27.51,4.2A36.14,36.14,0,0,0,90.74-15.28c-.22.9-.41,1.84-.57,2.81l-5.64-9.32-14.3,8.66L68.74,21,37.81,6.49,23.52,15.14l8.85,14.61-2.71,1.64L20.8,16.75,5.56,26,15,41.55l14.31-8.66L31,35.64l-14.3,8.65L42.29,86.67l15.24-9.22L32.45,36l2.71-1.64L60.24,75.81l15.11-9.15-20-33.12,29,14.39-.23,13.46L97.43,53.3l-12-6,.55-32.16,19.92,33.1,15.39-9.32-6.64-11c.93.31,1.85.58,2.76.8a35.86,35.86,0,0,0,27.32-3.9,35.36,35.36,0,0,0,8.42-7.12l.45-.52L138.36,9.3l-.28.21a21.17,21.17,0,0,1-1.89,1.3,19.33,19.33,0,0,1-15,2.2,20.22,20.22,0,0,1-14.79-24.43,20.11,20.11,0,0,1,9.15-12.46,20.08,20.08,0,0,1,15.28-2.33c9.61,2.36,14,11.73,14.07,20.08L130.68,2.5l27.17,14.13,15.23-9.22-12-6.22.05-2.71c12.35,4.78,19.51,4.39,29.32-1.55l1.95-1.21c13.11-8.62,15.79-23.08,10.77-31.54-4.29-7.22-10.13-8.63-15-9.08h0a53.4,53.4,0,0,0-14.24,1.16l-3.64.75c-6.79,1.43-12.14,2.55-14-.51C155-45.53,156-48.9,160.12-51.42ZM139.87-39c1,.43,2,.91,3,1.43l.71.39a30.19,30.19,0,0,1,11.36,10.41s.58.9,1.07,1.81c-2.29,0-9.15-.54-14-8.64A16.06,16.06,0,0,1,139.87-39ZM15.35,40.05,7.06,26.34l13.37-8.09L28.72,32ZM56,77.08,42.66,85.17,18.14,44.66l13.38-8.09ZM95.18,53.39l-10,6,.19-11ZM160.09-3.18l-9.81-4.9,10-6.05Zm-4.75-39.76c2.26,3.73,7.95,2.53,15.15,1l3.63-.75a51.7,51.7,0,0,1,14.12-1.13h0c4.59.44,10,1.82,14,8.54,5.93,10-.6,23.61-10.42,30.06L189.9-4c-9.53,5.77-16.49,6.1-28.62,1.36l-.11,0,.23-13.39L148-8l12,6L160,1.84l10.86,5.65-13.05,7.89L132.9,2.43,146-5.51v-.31c0-8.85-4.6-18.91-14.9-21.45A21.19,21.19,0,0,0,115-24.81a21.2,21.2,0,0,0-9.65,13.13A21.31,21.31,0,0,0,121,14.07a20.55,20.55,0,0,0,17.5-3.48l13.36,6.91a34.21,34.21,0,0,1-7.7,6.37,34.74,34.74,0,0,1-26.5,3.78,33.57,33.57,0,0,1-4.09-1.28l-1.47-.56,7.68,12.7L106.23,46.7,84.92,11.28l-.61,35.44L52.47,31,73.85,66.3l-13.24,8L35.52,32.87l-3.64,2.2-1.66-2.75,3.64-2.2L25,15.51,37.88,7.72,69.75,22.66,71.3-12.5l12.86-7.79,6.69,11L91-10.81A35.39,35.39,0,0,1,91.8-15a35,35,0,0,1,16-21.75,35,35,0,0,1,26.68-4.08,36.21,36.21,0,0,1,4.22,1.32A17.37,17.37,0,0,0,141-33.08C147.3-22.67,156.82-24,156.92-24l.72-.11-.31-.66a25,25,0,0,0-1.5-2.64,31.26,31.26,0,0,0-11.75-10.78l-.72-.4a37.41,37.41,0,0,0-3.68-1.73c-1-8.95,4.33-18.38,13.76-24.08,9.09-5.51,20.05-5.82,28.66-.8a21,21,0,0,1,6.26,5.56l-13.7,8.29c-4.25-3.8-9.86-4.18-15.1-1C154.79-49.47,153.83-45.43,155.34-42.94Z"/><rect class="cls-3" x="24.2" y="11.53" width="15.05" height="1.09" transform="translate(-1.67 18.17) rotate(-31.18)"/><rect class="cls-3" x="6.21" y="22.21" width="15.63" height="1.09" transform="translate(-9.76 10.55) rotate(-31.18)"/><rect class="cls-3" x="13.63" y="33.89" width="19.89" height="1.09" transform="translate(-14.42 17.18) rotate(-31.18)"/><rect class="cls-3" x="16.99" y="39.43" width="19.89" height="1.09" transform="translate(-16.81 19.72) rotate(-31.18)"/><rect class="cls-3" x="11.25" y="25.33" width="1.09" height="15.56" transform="translate(-15.44 10.89) rotate(-31.18)"/><rect class="cls-3" x="23.51" y="17.51" width="1.09" height="15.56" transform="matrix(0.86, -0.52, 0.52, 0.86, -9.62, 16.11)"/><rect class="cls-3" x="30.34" y="41.72" width="1.09" height="45.9" transform="translate(-29.02 25.34) rotate(-31.18)"/><rect class="cls-3" x="29.41" y="14.2" width="1.09" height="16.85" transform="matrix(0.86, -0.52, 0.52, 0.86, -7.39, 18.78)"/><rect class="cls-3" x="41.01" y="27.44" width="1.09" height="53.58" transform="translate(-22.07 29.35) rotate(-31.18)"/><rect class="cls-3" x="47.97" y="29.09" width="1.09" height="48.43" transform="translate(-20.59 32.82) rotate(-31.18)"/><rect class="cls-3" x="61.84" y="26.79" width="1.09" height="42.81" transform="translate(-15.94 39.26) rotate(-31.18)"/><polyline class="cls-3" points="69.75 22.66 37.87 7.72 37.94 8.96 70.77 24.35"/><polyline class="cls-3" points="98.47 52.67 49.83 28.58 50.92 30.27 52.66 31.14 97.43 53.3"/></g><path class="cls-3" d="M32.43,2.12A30.36,30.36,0,0,1,53.9,54,30.36,30.36,0,1,1,11,11,30.17,30.17,0,0,1,32.43,2.12m0-1.94a32.31,32.31,0,1,0,32.3,32.3A32.3,32.3,0,0,0,32.43.18Z"/></g></svg>