<?xml version="1.0" encoding="utf-8"?>
<svg version="1.1" x="0px" y="0px" viewBox="0 0 152.4 152.4" style="enable-background:new 0 0 152.4 152.4;" id="svg63" xmlns="http://www.w3.org/2000/svg">
  <style type="text/css" id="style2">
	.st0{fill:#FFFFFF;}
	.st1{fill:#1E242B;stroke:#C2D52E;stroke-width:4;stroke-miterlimit:10;}
	.st2{clip-path:url(#SVGID_2_);}
	.st3{clip-path:url(#SVGID_4_);}
	.st4{fill:#231F20;}
	.st5{display:none;fill:#231F20;stroke:#FFFFFF;stroke-width:5;stroke-miterlimit:10;}
	.st6{clip-path:url(#SVGID_6_);fill:#231F20;}
	.st7{clip-path:url(#SVGID_8_);}
	.st8{clip-path:url(#SVGID_10_);fill:#231F20;}
	.st9{fill:none;}
	.st10{clip-path:url(#SVGID_12_);fill:#231F20;}
	.st11{fill:#EC1C24;}
	.st12{clip-path:url(#SVGID_16_);fill:#FFFFFF;}
	.st13{clip-path:url(#SVGID_18_);fill:#FFFFFF;}
	.st14{clip-path:url(#SVGID_20_);}
	.st15{clip-path:url(#SVGID_22_);}
	.st16{clip-path:url(#SVGID_24_);}
	.st17{clip-path:url(#SVGID_26_);}
	.st18{fill:#1E242B;}
	.st19{fill:#1E242B;stroke:#FFFFFF;stroke-miterlimit:10;}
	.st20{fill:none;stroke:#FFFFFF;stroke-width:2;stroke-miterlimit:10;}
	.st21{clip-path:url(#SVGID_30_);}
	.st22{clip-path:url(#SVGID_32_);}
	.st23{clip-path:url(#SVGID_34_);}
	.st24{clip-path:url(#SVGID_36_);}
	.st25{clip-path:url(#SVGID_38_);}
	.st26{clip-path:url(#SVGID_40_);}
	.st27{clip-path:url(#SVGID_44_);}
	.st28{clip-path:url(#SVGID_46_);}
	.st29{clip-path:url(#SVGID_48_);fill:#231F20;}
	.st30{clip-path:url(#SVGID_50_);fill:#FFFFFF;}
	.st31{clip-path:url(#SVGID_52_);}
	.st32{clip-path:url(#SVGID_54_);fill:#FFFFFF;}
	.st33{clip-path:url(#SVGID_56_);}
	.st34{clip-path:url(#SVGID_58_);}
	.st35{fill:#1E242B;stroke:#FFFFFF;stroke-width:2;stroke-miterlimit:10;}
	.st36{clip-path:url(#SVGID_60_);}
	.st37{display:none;}
	.st38{display:inline;fill:#FFFFFF;stroke:#FFFFFF;stroke-miterlimit:10;}
	.st39{clip-path:url(#SVGID_64_);}
	.st40{display:none;fill:#231F20;}
	.st41{fill-rule:evenodd;clip-rule:evenodd;fill:#231F20;}
	.st42{fill-rule:evenodd;clip-rule:evenodd;fill:#FFFFFF;}
	.st43{clip-path:url(#SVGID_68_);}
	.st44{fill:none;stroke:#000000;stroke-width:3;stroke-miterlimit:10;}
</style>
  <g id="Screen_3">
    <path d="m 81.5,40.3 c -3,0 -5.4,2.4 -5.4,5.4 0,3 2.4,5.4 5.4,5.4 3,0 5.4,-2.4 5.4,-5.4 -0.1,-3 -2.5,-5.4 -5.4,-5.4 z m 0,7.8 c -1.3,0 -2.4,-1 -2.4,-2.4 0,-1.4 1,-2.4 2.4,-2.4 1.3,0 2.4,1 2.4,2.4 0,1.3 -1.1,2.4 -2.4,2.4 z" id="path6"/>
    <path class="st4" d="m 63.1,83.8 h 37.8 c 0.8,0 1.4,-0.6 1.4,-1.4 0,-0.8 -0.6,-1.4 -1.4,-1.4 H 63.1 c -0.8,0 -1.4,0.6 -1.4,1.4 0,0.8 0.6,1.4 1.4,1.4 z" id="path8" style="fill:#231f20"/>
    <path class="st4" d="m 63.1,75.4 h 37.8 c 0.8,0 1.4,-0.6 1.4,-1.4 0,-0.8 -0.6,-1.4 -1.4,-1.4 H 63.1 c -0.8,0 -1.4,0.6 -1.4,1.4 0,0.7 0.6,1.4 1.4,1.4 z" id="path10" style="fill:#231f20"/>
    <path d="m 114.6,103.4 v 24 H 48.4 v -72 H 60 v 4.2 c 0,0.9 0.6,1.5 1.5,1.5 h 40 c 0.9,0 1.5,-0.6 1.5,-1.5 v -4.2 h 11.6 v 17.4 l 2.8,-2.2 V 55.1 c 0.1,-1.5 -1,-2.7 -2.5,-2.7 H 103 v -3.3 c 0,-0.9 -0.6,-1.5 -1.5,-1.5 h -7.2 c 0.1,-1 0.3,-2.2 0.1,-3.4 C 94,38.1 89.2,32.9 83.1,32.1 c -8.1,-1 -14.9,5.2 -14.9,13 0,0.9 0.1,1.6 0.3,2.4 h -7.2 c -0.9,0 -1.5,0.6 -1.5,1.5 v 3.3 H 47.9 c -1.5,0 -2.7,1.2 -2.7,2.7 v 72.6 c 0,1.5 1.2,2.7 2.7,2.7 h 66.8 c 1.5,0 2.7,-1.2 2.7,-2.7 V 101.2 Z M 63,50.6 h 7.6 c 0.4,0 0.9,-0.1 1.2,-0.6 0.3,-0.3 0.4,-0.7 0.1,-1.3 -0.4,-1 -0.6,-2.2 -0.6,-3.4 0,-6 5.2,-10.9 11.6,-10.1 4.6,0.6 8.4,4.6 8.8,9.4 0.1,1.5 -0.1,2.8 -0.6,4.2 -0.1,0.3 -0.1,0.8 0.2,1.2 0.3,0.3 0.6,0.6 1.2,0.6 h 7.6 v 7.5 H 63 Z" id="path12"/>
    <path class="st4" d="M 94.2,89.4 H 63.1 c -0.8,0 -1.4,0.6 -1.4,1.4 0,0.8 0.6,1.4 1.4,1.4 h 29.8 z" id="path14" style="fill:#231f20"/>
    <g id="g58">
      <g id="g56">
        <path class="st40" d="m 90.3,118.4 c -7.6,0 -13.7,-6.2 -13.7,-13.7 0,-7.5 6.2,-13.7 13.7,-13.7 7.5,0 13.7,6.2 13.7,13.7 0,7.5 -6.1,13.7 -13.7,13.7 z m 0,-25.5 c -6.5,0 -11.7,5.3 -11.7,11.7 0,6.4 5.3,11.7 11.7,11.7 6.5,0 11.7,-5.3 11.7,-11.7 0,-6.4 -5.2,-11.7 -11.7,-11.7 z" id="path16" style="display:none;fill:#231f20"/>
        <path class="st37" d="m 88.3,109.2 8.1,-18.1 36.6,-29 c 1.5,-1.2 3.7,-0.9 4.9,0.5 l 6.9,8.7 c 0.6,0.7 0.8,1.6 0.8,2.5 -0.1,0.9 -0.5,1.7 -1.2,2.2 l -36.2,28.7 v 0.2 l -0.4,0.1 -0.2,0.1 z m 5,-6.3 -1.6,3.6 3.7,-0.8 z m 1,-2 3.3,4.2 8.7,-1.9 c 0,-1.1 -0.3,-1.9 -0.9,-2.6 -1.2,-1.3 -3.2,-1.5 -3.2,-1.5 h -1.1 l 0.2,-1.1 c 0,0 0.3,-2.1 -0.8,-3.6 C 99.9,93.7 99.1,93.2 98,93 Z m 9,-3.6 c 1,0.2 2.5,0.7 3.6,2 0.7,0.8 1.1,1.7 1.3,2.8 l 34.9,-27.6 c 0.3,-0.2 0.5,-0.5 0.5,-0.9 0,-0.4 -0.1,-0.7 -0.3,-1.1 v 0 l -6.9,-8.7 c -0.5,-0.6 -1.5,-0.7 -2.1,-0.2 l -35,27.7 c 1.1,0.4 2,1 2.7,1.9 1.1,1.4 1.3,3.1 1.3,4.1 z" id="path18" style="display:none"/>
        <g id="g24">
          <path class="st4" d="M 80.9,114.6 H 63.1 c -0.8,0 -1.4,0.6 -1.4,1.4 0,0.8 0.6,1.4 1.4,1.4 h 22.3 c -1.7,-0.6 -3.2,-1.6 -4.5,-2.8 z" id="path20" style="fill:#231f20"/>
          <path class="st4" d="m 100.9,114.6 h -1.2 c -1.3,1.2 -2.8,2.2 -4.5,2.8 h 5.7 c 0.8,0 1.4,-0.6 1.4,-1.4 0.1,-0.7 -0.6,-1.4 -1.4,-1.4 z" id="path22" style="fill:#231f20"/>
        </g>
        <path class="st4" d="M 76.7,106.2 H 63.1 c -0.8,0 -1.4,0.6 -1.4,1.4 0,0.8 0.6,1.4 1.4,1.4 h 14.2 c -0.3,-0.9 -0.5,-1.8 -0.6,-2.8 z" id="path26" style="fill:#231f20"/>
        <path class="st4" d="M 78.4,97.8 H 63.1 c -0.8,0 -1.4,0.6 -1.4,1.4 0,0.8 0.6,1.4 1.4,1.4 h 14.1 c 0.3,-1 0.7,-1.9 1.2,-2.8 z" id="path28" style="fill:#231f20"/>
        <g id="g54">
          <polygon class="st9" points="91.8,106.4 95.5,105.6 93.3,102.9 " id="polygon30" style="fill:none"/>
          <path class="st9" d="m 143.3,72.5 -6.9,-8.7 c -0.5,-0.6 -1.5,-0.7 -2.1,-0.2 l -35,27.7 c 1.1,0.4 2,1 2.7,1.9 1.1,1.4 1.3,3 1.3,4.1 1,0.2 2.5,0.7 3.6,2 0.7,0.8 1.1,1.7 1.3,2.8 l 34.9,-27.6 c 0.3,-0.2 0.5,-0.5 0.5,-0.9 0,-0.5 -0.1,-0.8 -0.3,-1.1 z" id="path40" style="fill:none"/>
          <path d="M 94.3,100.9 98,93 c -0.236758,-1.106303 -0.9,-1.7 -1.6,-2 l -8.1,18.1 19.4,-4 c -0.53841,-1.15021 -0.791,-1.44483 -1.3,-1.9 l -8.8,1.9 z m -2.5,5.5 1.6,-3.6 2.1,2.8 z" id="path44" style="stroke-opacity:0"/>
          <path d="m 144.8,71.2 -6.9,-8.7 C 136.7,61.1 134.5,60.8 133,62 L 96.4,91 c 0.638,0.718 0.903,1.411 1.6,2 1.1,0.2 1.9,0.7 2.5,1.4 0.5,0.6 0.817,1.383 0.917,1.983 0.101,0.562 -0.183,2.675 -0.183,2.675 0.643,0.026 0.911,0.043 1.766,0.142 0.7,0.1 1.8,0.5 2.5,1.4 0.6,0.7 0.8,1.5 0.9,2.6 0.641,0.906 0.806,1.199 1.3,1.9 11.179,-8.881 24.625,-19.579 36.6,-29.1 0.7,-0.6 1.1,-1.4 1.2,-2.2 0.2,-1 -0.1,-1.9 -0.7,-2.6 z m -1.2,2.3 c 0,0.4 -0.2,0.7 -0.5,0.9 L 108.2,102 c -0.2,-1.1 -0.6,-2 -1.3,-2.8 -1.1,-1.3 -2.6,-1.8 -3.6,-2 0,-1 -0.2,-2.7 -1.3,-4.1 -0.7,-0.9 -1.6,-1.5 -2.7,-1.9 l 35,-27.7 c 0.6,-0.5 1.6,-0.4 2.1,0.2 l 6.9,8.7 c 0.2,0.4 0.3,0.7 0.3,1.1 z" id="path46"/>
          <path class="st4" d="m 90.3,116.4 c -6.5,0 -11.7,-5.3 -11.7,-11.7 0,-6.4 5.3,-11.7 11.7,-11.7 1.7,0 3.4,0.4 4.8,1.1 l 0.8,-1.8 c -1.7,-0.8 -3.6,-1.2 -5.7,-1.2 -7.6,0 -13.7,6.2 -13.7,13.7 0,7.5 6.2,13.7 13.7,13.7 7.2,0 13.038,-5.686 13.638,-12.686 l -2.079,0.358 c -0.7,5.6 -5.559,10.228 -11.459,10.228 z" style="fill:#231f20;stroke-width:0;stroke-opacity:0" id="path42"/>
        </g>
      </g>
    </g>
  </g>
  <g id="Screen_4"/>
  <g id="Screen_9"/>
</svg>