<?xml version="1.0" encoding="utf-8"?>
<!-- Generator: Adobe Illustrator 22.0.1, SVG Export Plug-In . SVG Version: 6.00 Build 0)  -->
<svg version="1.1" xmlns="http://www.w3.org/2000/svg" xmlns:xlink="http://www.w3.org/1999/xlink" x="0px" y="0px"
	 viewBox="0 0 152.4 152.4" style="enable-background:new 0 0 152.4 152.4;" xml:space="preserve">
<style type="text/css">
	.st0{fill:#FFFFFF;}
	.st1{fill:#1E242B;stroke:#C2D52E;stroke-width:4;stroke-miterlimit:10;}
	.st2{clip-path:url(#SVGID_2_);}
	.st3{clip-path:url(#SVGID_4_);}
	.st4{fill:#231F20;}
	.st5{display:none;fill:#231F20;stroke:#FFFFFF;stroke-width:5;stroke-miterlimit:10;}
	.st6{clip-path:url(#SVGID_6_);fill:#231F20;}
	.st7{clip-path:url(#SVGID_8_);}
	.st8{clip-path:url(#SVGID_10_);fill:#231F20;}
	.st9{fill:none;}
	.st10{clip-path:url(#SVGID_12_);fill:#231F20;}
	.st11{fill:#EC1C24;}
	.st12{clip-path:url(#SVGID_16_);fill:#FFFFFF;}
	.st13{clip-path:url(#SVGID_18_);fill:#FFFFFF;}
	.st14{clip-path:url(#SVGID_20_);}
	.st15{clip-path:url(#SVGID_22_);}
	.st16{clip-path:url(#SVGID_24_);}
	.st17{clip-path:url(#SVGID_26_);}
	.st18{fill:#1E242B;}
	.st19{fill:#1E242B;stroke:#FFFFFF;stroke-miterlimit:10;}
	.st20{fill:none;stroke:#FFFFFF;stroke-width:2;stroke-miterlimit:10;}
	.st21{clip-path:url(#SVGID_30_);}
	.st22{clip-path:url(#SVGID_32_);}
	.st23{clip-path:url(#SVGID_34_);}
	.st24{clip-path:url(#SVGID_36_);}
	.st25{clip-path:url(#SVGID_38_);}
	.st26{clip-path:url(#SVGID_40_);}
	.st27{clip-path:url(#SVGID_44_);}
	.st28{clip-path:url(#SVGID_46_);}
	.st29{clip-path:url(#SVGID_48_);fill:#231F20;}
	.st30{clip-path:url(#SVGID_50_);fill:#FFFFFF;}
	.st31{clip-path:url(#SVGID_52_);}
	.st32{clip-path:url(#SVGID_54_);fill:#FFFFFF;}
	.st33{clip-path:url(#SVGID_56_);}
	.st34{clip-path:url(#SVGID_58_);}
	.st35{fill:#1E242B;stroke:#FFFFFF;stroke-width:2;stroke-miterlimit:10;}
	.st36{clip-path:url(#SVGID_60_);}
	.st37{display:none;}
	.st38{display:inline;fill:#FFFFFF;stroke:#FFFFFF;stroke-miterlimit:10;}
	.st39{clip-path:url(#SVGID_64_);}
	.st40{display:none;fill:#231F20;}
	.st41{fill-rule:evenodd;clip-rule:evenodd;fill:#231F20;}
	.st42{fill-rule:evenodd;clip-rule:evenodd;fill:#FFFFFF;}
	.st43{clip-path:url(#SVGID_68_);}
	.st44{fill:none;stroke:#000000;stroke-width:3;stroke-miterlimit:10;}
</style>
<g id="Screen_3">
	<g>
		<path d="M55.7,74.5c-1.7-1.7-4.4-2-6.4-0.9V55.7c0-0.9-0.2-1.8-0.6-2.5c0.2-0.1,0.5-0.1,0.8-0.1c1.5,0,2.6,1.2,2.6,2.6V69
			c0,0.8,0.6,1.4,1.4,1.4s1.4-0.6,1.4-1.4V55.7c0-3-2.4-5.4-5.4-5.4c-1,0-1.9,0.3-2.8,0.8c-0.8-0.5-1.7-0.8-2.8-0.8
			c-3,0-5.4,2.4-5.4,5.4l0,25.3c0,1.2,0.4,2.8,1,3.8c0,0,0,0,0,0l15.9,25.7c0.3,0.6,0.6,1.7,0.6,2.4v5c0,0.8,0.6,1.4,1.4,1.4
			s1.4-0.6,1.4-1.4v-5c0-1.2-0.4-2.8-1-3.8c0,0,0,0,0,0L41.9,83.4c-0.3-0.6-0.6-1.7-0.6-2.4l0-25.3c0-1.5,1.2-2.6,2.6-2.6
			c1.5,0,2.6,1.2,2.6,2.6v22.6c0,0,0,0.1,0,0.1c0,1.3,0.5,2.7,1.6,3.7l12.3,12.3c0.5,0.5,1.4,0.5,1.9,0c0.5-0.5,0.5-1.4,0-1.9
			L50,80.2c-1-1-1-2.7,0-3.7c1-1,2.7-1,3.7,0l15.2,15.2c1.7,1.7,3.1,5.1,3.1,7.5V118c0,0.8,0.6,1.4,1.4,1.4s1.4-0.6,1.4-1.4V99.2
			c0-3.1-1.7-7.3-3.9-9.5L55.7,74.5z"/>
		<path d="M108.5,50.3c-1,0-1.9,0.3-2.8,0.8c-0.8-0.5-1.8-0.8-2.8-0.8c-3,0-5.4,2.4-5.4,5.4V69c0,0.8,0.6,1.4,1.4,1.4
			s1.4-0.6,1.4-1.4V55.7c0-1.5,1.2-2.6,2.6-2.6c0.3,0,0.5,0,0.8,0.1c-0.4,0.8-0.6,1.6-0.6,2.5v17.9c-2.1-1.1-4.7-0.9-6.4,0.9
			L81.5,89.7c-2.2,2.2-3.9,6.4-3.9,9.5V118c0,0.8,0.6,1.4,1.4,1.4s1.4-0.6,1.4-1.4V99.2c0-2.4,1.4-5.8,3.1-7.5l15.2-15.2
			c1-1,2.7-1,3.7,0c1,1,1,2.7,0,3.7L90,92.5c-0.5,0.5-0.5,1.4,0,1.9c0.5,0.5,1.4,0.5,1.9,0l12.3-12.3c1-1,1.5-2.4,1.6-3.7
			c0,0,0-0.1,0-0.1V55.7c0-1.5,1.2-2.6,2.6-2.6c1.5,0,2.6,1.2,2.6,2.6l0,25.3c0,0.7-0.3,1.8-0.6,2.4l-15.9,25.7c0,0,0,0,0,0
			c-0.6,1-1,2.6-1,3.8v5c0,0.8,0.6,1.4,1.4,1.4s1.4-0.6,1.4-1.4v-5c0-0.7,0.3-1.8,0.6-2.4l15.9-25.7c0,0,0,0,0,0c0.6-1,1-2.6,1-3.8
			l0-25.3C113.9,52.8,111.5,50.3,108.5,50.3z"/>
		<path d="M97.8,45.2c0-6.7-5.5-12.2-12.2-12.2c-3.7,0-7.2,1.7-9.4,4.5c-2.2-2.7-5.6-4.5-9.4-4.5c-6.7,0-12.2,5.5-12.2,12.2
			c0,2.7,0.9,5.2,2.5,7.3l18,23.8c0.3,0.3,0.7,0.5,1.1,0.5s0.8-0.2,1.1-0.5l18-23.8C96.9,50.4,97.8,47.9,97.8,45.2z M93.1,50.9
			L76.2,73.3L59.3,50.9c-1.2-1.6-1.9-3.6-1.9-5.7c0-5.2,4.2-9.4,9.4-9.4c5.1,0,9.3,4.2,9.3,9.3c0,0.8,0.6,1.4,1.4,1.4
			s1.4-0.6,1.4-1.4c0-1.8-0.4-3.5-1.1-5c1.7-2.7,4.7-4.3,7.9-4.3c5.2,0,9.4,4.2,9.4,9.4C95,47.3,94.4,49.2,93.1,50.9z"/>
	</g>
</g>
<g id="Screen_4">
</g>
<g id="Screen_9">
</g>
</svg>
