<svg id="Screen_3" data-name="Screen 3" xmlns="http://www.w3.org/2000/svg" viewBox="0 0 152.4 152.4"><title>icons</title><path d="M119.56,51.8,77.85,27.35a1.41,1.41,0,0,0-1.42,0l-41.7,23A1.43,1.43,0,0,0,34,51.6V112a1.44,1.44,0,0,0,1.44,1.44h7.19A1.44,1.44,0,0,0,44.05,112V61.67H110.2V112a1.44,1.44,0,0,0,1.44,1.44h7.19a1.43,1.43,0,0,0,1.44-1.44V53A1.43,1.43,0,0,0,119.56,51.8Zm-2.16,58.76h-4.32V60.23a1.43,1.43,0,0,0-1.44-1.44h-69a1.44,1.44,0,0,0-1.44,1.44v50.33H36.86V52.45L77.11,30.24,117.4,53.86v56.7Z"/><path d="M48,94.74V112a1.43,1.43,0,0,0,1.43,1.44H66.72A1.43,1.43,0,0,0,68.16,112V94.74a1.43,1.43,0,0,0-1.44-1.43H49.46A1.43,1.43,0,0,0,48,94.74Zm2.87,1.44H65.28v14.38H50.9Z"/><path d="M53.78,94.74v5.76a1.43,1.43,0,0,0,1.44,1.43H61a1.43,1.43,0,0,0,1.44-1.43V94.74H59.53v4.32H56.66V94.74Z"/><path d="M65.28,94.74V112a1.44,1.44,0,0,0,1.44,1.44H84A1.44,1.44,0,0,0,85.42,112V94.74A1.44,1.44,0,0,0,84,93.31H66.72A1.44,1.44,0,0,0,65.28,94.74Zm2.88,1.44H82.54v14.38H68.16Z"/><path d="M71,94.74v5.76a1.43,1.43,0,0,0,1.44,1.43h5.75a1.44,1.44,0,0,0,1.44-1.43V94.74H76.79v4.32H73.91V94.74Z"/><path d="M48,77.49V94.74a1.43,1.43,0,0,0,1.43,1.44H66.72a1.43,1.43,0,0,0,1.44-1.44V77.49a1.43,1.43,0,0,0-1.44-1.44H49.46A1.43,1.43,0,0,0,48,77.49Zm2.87,1.43H65.28V93.31H50.9Z"/><path d="M53.78,77.49v5.75a1.44,1.44,0,0,0,1.44,1.44H61a1.44,1.44,0,0,0,1.44-1.44V77.49H59.53V81.8H56.66V77.49Z"/><rect x="42.61" y="64.54" width="69.03" height="2.88"/><path d="M84.32,47.28H69.94a1.44,1.44,0,0,0-1.44,1.44v5.75a1.43,1.43,0,0,0,1.44,1.44H84.32a1.44,1.44,0,0,0,1.44-1.44V48.72A1.45,1.45,0,0,0,84.32,47.28ZM82.88,53H71.37V50.16H82.88Z"/></svg>