<?xml version="1.0" encoding="utf-8"?>
<!-- Generator: Adobe Illustrator 22.0.1, SVG Export Plug-In . SVG Version: 6.00 Build 0)  -->
<svg version="1.1" xmlns="http://www.w3.org/2000/svg" xmlns:xlink="http://www.w3.org/1999/xlink" x="0px" y="0px"
	 viewBox="0 0 152.4 152.4" style="enable-background:new 0 0 152.4 152.4;" xml:space="preserve">
<style type="text/css">
	.st0{fill:#FFFFFF;}
	.st1{fill:#1E242B;stroke:#C2D52E;stroke-width:4;stroke-miterlimit:10;}
	.st2{clip-path:url(#SVGID_2_);}
	.st3{clip-path:url(#SVGID_4_);}
	.st4{fill:#231F20;}
	.st5{display:none;fill:#231F20;stroke:#FFFFFF;stroke-width:5;stroke-miterlimit:10;}
	.st6{clip-path:url(#SVGID_6_);fill:#231F20;}
	.st7{clip-path:url(#SVGID_8_);}
	.st8{clip-path:url(#SVGID_10_);fill:#231F20;}
	.st9{fill:none;}
	.st10{clip-path:url(#SVGID_12_);fill:#231F20;}
	.st11{fill:#EC1C24;}
	.st12{clip-path:url(#SVGID_16_);fill:#FFFFFF;}
	.st13{clip-path:url(#SVGID_18_);fill:#FFFFFF;}
	.st14{clip-path:url(#SVGID_20_);}
	.st15{clip-path:url(#SVGID_22_);}
	.st16{clip-path:url(#SVGID_24_);}
	.st17{clip-path:url(#SVGID_26_);}
	.st18{fill:#1E242B;}
	.st19{fill:#1E242B;stroke:#FFFFFF;stroke-miterlimit:10;}
	.st20{fill:none;stroke:#FFFFFF;stroke-width:2;stroke-miterlimit:10;}
	.st21{clip-path:url(#SVGID_30_);}
	.st22{clip-path:url(#SVGID_32_);}
	.st23{clip-path:url(#SVGID_34_);}
	.st24{clip-path:url(#SVGID_36_);}
	.st25{clip-path:url(#SVGID_38_);}
	.st26{clip-path:url(#SVGID_40_);}
	.st27{clip-path:url(#SVGID_44_);}
	.st28{clip-path:url(#SVGID_46_);}
	.st29{clip-path:url(#SVGID_48_);fill:#231F20;}
	.st30{clip-path:url(#SVGID_50_);fill:#FFFFFF;}
	.st31{clip-path:url(#SVGID_52_);}
	.st32{clip-path:url(#SVGID_54_);fill:#FFFFFF;}
	.st33{clip-path:url(#SVGID_56_);}
	.st34{clip-path:url(#SVGID_58_);}
	.st35{fill:#1E242B;stroke:#FFFFFF;stroke-width:2;stroke-miterlimit:10;}
	.st36{clip-path:url(#SVGID_60_);}
	.st37{display:none;}
	.st38{display:inline;fill:#FFFFFF;stroke:#FFFFFF;stroke-miterlimit:10;}
	.st39{clip-path:url(#SVGID_64_);}
	.st40{display:none;fill:#231F20;}
	.st41{fill-rule:evenodd;clip-rule:evenodd;fill:#231F20;}
	.st42{fill-rule:evenodd;clip-rule:evenodd;fill:#FFFFFF;}
	.st43{clip-path:url(#SVGID_68_);}
	.st44{fill:none;stroke:#000000;stroke-width:3;stroke-miterlimit:10;}
</style>
<g id="Screen_3">
	<g>
		<defs>
			
				<rect id="SVGID_5_" x="34.5" y="34.5" transform="matrix(0.7071 -0.7071 0.7071 0.7071 -31.5622 76.1978)" width="83.4" height="83.4"/>
		</defs>
		<clipPath id="SVGID_2_">
			<use xlink:href="#SVGID_5_"  style="overflow:visible;"/>
		</clipPath>
		<path style="clip-path:url(#SVGID_2_);fill:#231F20;" d="M82,74.9l-36.3,0c-0.7,0-1.3,0.6-1.3,1.3c0,0.3,0.1,0.7,0.4,0.9
			c0.2,0.2,0.5,0.4,0.9,0.4H82c0.7,0,1.3-0.6,1.3-1.3C83.2,75.5,82.7,74.9,82,74.9L82,74.9z M82,74.9"/>
		<path style="clip-path:url(#SVGID_2_);fill:#231F20;" d="M124,87c0.3-0.4,0.3-0.9,0.1-1.3c-0.2-0.4-0.7-0.7-1.1-0.7h-13.4l-5-8.7
			l5-8.7h10.7c1.1,0,2-0.6,2.4-1.6c0.4-1,0.2-2-0.5-2.8c-2.1-2.2-4.7-3.8-7.7-4.7c-7.1-2.1-14.5-0.4-19.3,4.6
			c-1.5,1.5-2.6,3.2-3.5,5.1l-63.1,0c-2.1,0-4.2,0.8-5.7,2.3c-1.5,1.5-2.3,3.5-2.3,5.7c0,2.2,0.9,4.2,2.3,5.7
			c1.5,1.5,3.5,2.3,5.7,2.3l63.1,0c0.9,2,2.2,3.7,3.7,5.3c7.3,7.3,19.3,7.3,26.6,0C122.7,88.8,123.4,88,124,87L124,87z M97.2,87.7
			c-1.5-1.5-2.7-3.3-3.5-5.2c-0.2-0.5-0.7-0.8-1.2-0.8h-64c-3,0-5.5-2.5-5.5-5.5c0-1.5,0.6-2.8,1.6-3.9c1-1,2.4-1.6,3.9-1.6l64,0
			c0.5,0,1-0.3,1.2-0.8c0.8-1.9,1.9-3.6,3.4-5.1c4.2-4.3,10.6-5.8,16.8-3.9c2.5,0.8,4.6,2,6.4,3.8c0.1,0.1,0.2,0.2,0.2,0.3
			c0,0,0,0,0,0c0,0,0,0,0,0.1c0,0,0,0-0.1,0l-11.4,0c-0.5,0-0.9,0.2-1.1,0.6l-5.8,10c-0.2,0.4-0.2,0.9,0,1.3l5.8,10
			c0.2,0.4,0.6,0.6,1.1,0.6l11.4,0c0,0-0.1,0.1-0.1,0.1C113.8,94.1,103.5,94.1,97.2,87.7L97.2,87.7z M97.2,87.7"/>
		<path style="clip-path:url(#SVGID_2_);fill:#231F20;" d="M31.3,73.4c-1.5-1.5-4.1-1.5-5.6,0c-1.5,1.5-1.5,4.1,0,5.6
			c1.5,1.5,4.1,1.5,5.6,0C32.9,77.5,32.9,74.9,31.3,73.4L31.3,73.4z M27.5,77.2c-0.6-0.6-0.6-1.5,0-2c0.6-0.6,1.5-0.6,2,0
			c0.6,0.6,0.6,1.5,0,2C29,77.8,28.1,77.8,27.5,77.2L27.5,77.2z M27.5,77.2"/>
		<path style="clip-path:url(#SVGID_2_);fill:#231F20;" d="M87.7,74.9l-1.9,0c-0.7,0-1.3,0.6-1.3,1.3c0,0.3,0.1,0.7,0.4,0.9
			c0.2,0.2,0.5,0.4,0.9,0.4l1.9,0c0.7,0,1.3-0.6,1.3-1.3C88.9,75.5,88.4,74.9,87.7,74.9L87.7,74.9z M87.7,74.9"/>
	</g>
</g>
<g id="Screen_4">
</g>
<g id="Screen_9">
</g>
</svg>
