<?xml version="1.0" encoding="utf-8"?>
<!-- Generator: Adobe Illustrator 22.0.1, SVG Export Plug-In . SVG Version: 6.00 Build 0)  -->
<svg version="1.1" xmlns="http://www.w3.org/2000/svg" xmlns:xlink="http://www.w3.org/1999/xlink" x="0px" y="0px"
	 viewBox="0 0 152.4 152.4" style="enable-background:new 0 0 152.4 152.4;" xml:space="preserve">
<style type="text/css">
	.st0{fill:#FFFFFF;}
	.st1{fill:#1E242B;stroke:#C2D52E;stroke-width:4;stroke-miterlimit:10;}
	.st2{clip-path:url(#SVGID_2_);}
	.st3{clip-path:url(#SVGID_4_);}
	.st4{fill:#231F20;}
	.st5{display:none;fill:#231F20;stroke:#FFFFFF;stroke-width:5;stroke-miterlimit:10;}
	.st6{clip-path:url(#SVGID_6_);fill:#231F20;}
	.st7{clip-path:url(#SVGID_8_);}
	.st8{clip-path:url(#SVGID_10_);fill:#231F20;}
	.st9{fill:none;}
	.st10{clip-path:url(#SVGID_12_);fill:#231F20;}
	.st11{fill:#EC1C24;}
	.st12{clip-path:url(#SVGID_16_);fill:#FFFFFF;}
	.st13{clip-path:url(#SVGID_18_);fill:#FFFFFF;}
	.st14{clip-path:url(#SVGID_20_);}
	.st15{clip-path:url(#SVGID_22_);}
	.st16{clip-path:url(#SVGID_24_);}
	.st17{clip-path:url(#SVGID_26_);}
	.st18{fill:#1E242B;}
	.st19{fill:#1E242B;stroke:#FFFFFF;stroke-miterlimit:10;}
	.st20{fill:none;stroke:#FFFFFF;stroke-width:2;stroke-miterlimit:10;}
	.st21{clip-path:url(#SVGID_30_);}
	.st22{clip-path:url(#SVGID_32_);}
	.st23{clip-path:url(#SVGID_34_);}
	.st24{clip-path:url(#SVGID_36_);}
	.st25{clip-path:url(#SVGID_38_);}
	.st26{clip-path:url(#SVGID_40_);}
	.st27{clip-path:url(#SVGID_44_);}
	.st28{clip-path:url(#SVGID_46_);}
	.st29{clip-path:url(#SVGID_48_);fill:#231F20;}
	.st30{clip-path:url(#SVGID_50_);fill:#FFFFFF;}
	.st31{clip-path:url(#SVGID_52_);}
	.st32{clip-path:url(#SVGID_54_);fill:#FFFFFF;}
	.st33{clip-path:url(#SVGID_56_);}
	.st34{clip-path:url(#SVGID_58_);}
	.st35{fill:#1E242B;stroke:#FFFFFF;stroke-width:2;stroke-miterlimit:10;}
	.st36{clip-path:url(#SVGID_60_);}
	.st37{display:none;}
	.st38{display:inline;fill:#FFFFFF;stroke:#FFFFFF;stroke-miterlimit:10;}
	.st39{clip-path:url(#SVGID_64_);}
	.st40{display:none;fill:#231F20;}
	.st41{fill-rule:evenodd;clip-rule:evenodd;fill:#231F20;}
	.st42{fill-rule:evenodd;clip-rule:evenodd;fill:#FFFFFF;}
	.st43{clip-path:url(#SVGID_68_);}
	.st44{fill:none;stroke:#000000;stroke-width:3;stroke-miterlimit:10;}
</style>
<g id="Screen_3">
</g>
<g id="Screen_4">
	<g>
		<path class="st4" d="M76.2,32.6c-24,0-43.6,19.6-43.6,43.6c0,24,19.6,43.6,43.6,43.6s43.6-19.6,43.6-43.6S100.2,32.6,76.2,32.6z
			 M76.2,116.2c-22.1,0-40-17.9-40-40c0-22.1,17.9-40,40-40c22.1,0,40,17.9,40,40C116.2,98.3,98.3,116.2,76.2,116.2z"/>
		<g>
			<path class="st4" d="M63.2,38.4c0.5-0.2,1.1-0.3,1.6-0.5C64.3,38,63.8,38.2,63.2,38.4z"/>
			<path class="st4" d="M65.1,37.8c0.5-0.1,1-0.3,1.5-0.4C66.1,37.5,65.6,37.6,65.1,37.8z"/>
			<path class="st4" d="M74.3,116.1c-0.2,0-0.5,0-0.7,0C73.8,116.1,74,116.1,74.3,116.1z"/>
			<path class="st4" d="M71.2,36.5c0.3,0,0.7-0.1,1.1-0.1C71.9,36.5,71.5,36.5,71.2,36.5z"/>
			<path class="st4" d="M69.1,36.9c0.4-0.1,0.8-0.1,1.2-0.2C69.9,36.7,69.5,36.8,69.1,36.9z"/>
			<path class="st4" d="M67.1,37.3c0.4-0.1,0.9-0.2,1.3-0.3C68,37.1,67.5,37.2,67.1,37.3z"/>
			<polygon class="st4" points="76.2,116.2 76.2,116.2 76.2,116.2 			"/>
			<path class="st4" d="M72.4,116c-0.3,0-0.6-0.1-0.9-0.1C71.8,115.9,72.1,116,72.4,116z"/>
			<path class="st4" d="M73.4,36.3c0.3,0,0.5,0,0.8-0.1C73.9,36.3,73.7,36.3,73.4,36.3z"/>
			<path class="st4" d="M70.5,115.8c-0.3,0-0.6-0.1-0.9-0.1C69.9,115.7,70.2,115.7,70.5,115.8z"/>
			<path class="st4" d="M68.7,115.5c-0.3-0.1-0.7-0.1-1-0.2C68,115.3,68.4,115.4,68.7,115.5z"/>
			<path class="st4" d="M67,115.1c-0.4-0.1-0.8-0.2-1.2-0.3C66.2,114.9,66.6,115,67,115.1z"/>
			<polygon class="st4" points="76.2,36.2 76.2,36.2 76.2,36.2 			"/>
			<path class="st4" d="M77.9,36.3c0.3,0,0.5,0,0.8,0C78.4,36.3,78.1,36.3,77.9,36.3z"/>
			<path class="st4" d="M50.8,96.2c0-1.7,0.8-2.8,1.7-4.1c0.9-1.3,2-2.8,2-5c0-3.5-3.1-3.8-4.8-4c-1.2-0.1-2.3-0.3-3-0.9
				c-0.5-0.5-1-1.4-1.5-2.3c-1.4-2.6-3.5-6.3-8.7-7.1c1.4-15.9,12.1-29.2,26.7-34.3c-15.6,5.4-26.9,20.3-26.9,37.8
				c0,18.3,12.4,33.8,29.2,38.5c-5.4-1.5-10.4-4.2-14.7-7.7V96.2z M49.4,90c-1,1.5-2.3,3.3-2.3,6.2v7.4
				c-6.7-7.1-10.8-16.7-10.9-27.2c3.1,0.6,4.4,2.9,5.7,5.2c0.6,1.2,1.3,2.3,2.1,3.2c1.6,1.6,3.6,1.8,5.2,2c0.6,0.1,1.4,0.2,1.6,0.4
				C50.8,88,50.3,88.8,49.4,90z"/>
			<path class="st4" d="M78.5,40.4c-0.4,0.4-0.5,0.8-0.5,1.3c0,0.5,0.2,1,0.6,1.3c0.7,0.6,0.8,0.9,0.8,0.9c0,0.1-0.4,0.7-2.2,1.6
				c-3.1,1.6-6.6,4.7-7.1,8.1c-0.2,1.5,0.2,2.9,1.2,3.9c0.3,0.3,0.8,0.5,1.3,0.5c2.5,0,4.5-0.9,6.4-1.8c1.9-0.9,3.8-1.8,6.4-1.8
				C92.4,54.4,98,56,98,58c0,0.7-0.2,1-0.3,1.1c-0.9,0.9-3.9,0.8-6.6,0.8c-0.7,0-1.4,0-2.2,0c-2.5,0-3.2-0.4-4.1-0.8
				c-1-0.5-2.2-1-5-1c-3,0-8.6,0.5-12.2,4.2c-3,3-2.7,6.5-2.4,8.9c0,0.5,0.1,1.1,0.1,1.5c0,3.6,3.7,5.5,7.3,5.5
				c5.6,0,10.4,1,10.9,1.8c0,2,0.6,3.4,1.1,4.5c0.4,0.9,0.7,1.7,0.7,2.7c0,0.8-0.1,1-0.5,1.5c-0.7,0.9-1.3,1.9-1.3,4
				c0,3.8,3.7,8,4.1,8.5c0.3,0.4,0.8,0.6,1.4,0.6c0.2,0,0.3,0,0.5-0.1c1.1-0.3,10.5-2.9,10.5-9c0-1.9,0.6-2.5,1.5-3.2
				c0.9-0.8,2.1-1.8,2.1-4c0-1.5,2.6-5.2,5-7.9c0.3-0.4,0.5-0.9,0.5-1.4c0-0.5-0.3-1-0.7-1.3c-1.4-1.1-5.3-4.7-6.6-8.1
				c0.7,0.4,1.7,1,2.4,1.8c0.6,0.6,1.4,0.9,2.3,0.9c2.4-0.1,5.5-3.1,7.8-5.6c0.8,2.4,1.4,5,1.7,7.6c-2.3-18.8-17.8-33.6-36.9-34.9
				c2.5,0.2,4.9,0.6,7.2,1.2C83,38.1,79.9,39,78.5,40.4z M112.6,59.8c-2.4,2.9-5.2,5.4-6.3,5.8c-1.5-1.4-5.1-4-7.4-2.6
				c-0.9,0.6-1.8,1.9-0.8,4.7c1.3,3.6,4.5,7,6.4,8.7c-1.8,2.2-4.7,6.1-4.7,8.9c0,0.5-0.1,0.6-0.9,1.3c-1.1,1-2.8,2.4-2.8,6
				c0,2.3-3.9,4.3-6.6,5.2c-1-1.3-2.5-3.6-2.5-5.2c0-1,0.2-1.3,0.6-1.8c0.7-0.9,1.3-1.8,1.3-3.7c0-1.8-0.5-3.1-1-4.2
				c-0.4-1-0.8-1.8-0.8-3.1c0-4.7-9.1-5.5-14.5-5.5c-1.5,0-3.6-0.6-3.6-1.8c0-0.6-0.1-1.2-0.1-1.8c-0.2-2.2-0.4-4.2,1.4-6
				c2.8-2.8,7.7-3.1,9.6-3.1c2,0,2.6,0.3,3.4,0.7c1.4,0.6,2.6,1.1,5.7,1.1l2.1,0c3.9,0.1,7.2,0.1,9.2-1.8c0.9-0.9,1.4-2.1,1.4-3.7
				c0-6.6-11.4-7.3-16.4-7.3c-3.4,0-5.8,1.1-7.9,2.2c-1.3,0.6-2.5,1.2-3.7,1.4c0-0.1,0-0.1,0-0.2c0.3-1.6,2.6-4.1,5.2-5.4
				c1.8-0.9,3.9-2.2,4.2-4.4c0.1-0.8-0.1-1.6-0.4-2.2c2.4-0.9,7-1.6,11-1.9C102,44.3,108.8,51.3,112.6,59.8z"/>
			<path class="st4" d="M115.9,71.4c0,0.4,0.1,0.8,0.1,1.2C116,72.3,115.9,71.8,115.9,71.4z"/>
			<path class="st4" d="M116.1,73.5c0,0.3,0,0.6,0.1,0.9C116.1,74.1,116.1,73.8,116.1,73.5z"/>
			<path class="st4" d="M116.2,76.2C116.2,76.2,116.2,76.2,116.2,76.2c0,22-17.9,39.9-39.9,40C98.3,116.1,116.2,98.2,116.2,76.2z"/>
			<path class="st4" d="M116.2,76.2c0-0.6,0-1.2,0-1.8C116.2,75,116.2,75.6,116.2,76.2C116.2,76.2,116.2,76.2,116.2,76.2z"/>
			<path class="st4" d="M67.7,115.3c-0.2,0-0.5-0.1-0.7-0.2C67.2,115.1,67.4,115.2,67.7,115.3z"/>
			<path class="st4" d="M69.6,115.6c-0.3,0-0.6-0.1-0.9-0.2C69,115.5,69.3,115.6,69.6,115.6z"/>
			<path class="st4" d="M76.2,116.2C76.2,116.2,76.3,116.2,76.2,116.2C76.3,116.2,76.2,116.2,76.2,116.2
				C76.2,116.2,76.2,116.2,76.2,116.2z"/>
			<path class="st4" d="M76.2,116.2c-0.6,0-1.3,0-1.9,0C74.9,116.2,75.5,116.2,76.2,116.2z"/>
			<path class="st4" d="M71.5,115.9c-0.3,0-0.7-0.1-1-0.1C70.8,115.8,71.2,115.9,71.5,115.9z"/>
			<path class="st4" d="M73.6,116.1c-0.4,0-0.8-0.1-1.2-0.1C72.8,116,73.2,116.1,73.6,116.1z"/>
			<path class="st4" d="M116,72.7c0,0.3,0,0.6,0.1,0.8C116.1,73.2,116,72.9,116,72.7z"/>
			<path class="st4" d="M70.3,36.7c0.3,0,0.6-0.1,0.9-0.1C70.9,36.6,70.6,36.6,70.3,36.7z"/>
			<path class="st4" d="M68.4,37c0.2,0,0.4-0.1,0.7-0.1C68.9,36.9,68.7,36.9,68.4,37z"/>
			<path class="st4" d="M78.7,36.3c0.1,0,0.2,0,0.3,0C78.9,36.3,78.8,36.3,78.7,36.3z"/>
			<path class="st4" d="M72.2,36.4c0.4,0,0.8-0.1,1.1-0.1C73,36.4,72.6,36.4,72.2,36.4z"/>
			<path class="st4" d="M76.2,36.2C76.2,36.2,76.2,36.2,76.2,36.2c0.6,0,1.1,0,1.7,0C77.3,36.2,76.8,36.2,76.2,36.2z"/>
			<path class="st4" d="M64.8,37.9c0.1,0,0.2-0.1,0.3-0.1C65,37.8,64.9,37.8,64.8,37.9z"/>
			<path class="st4" d="M63.1,38.4c0,0,0.1,0,0.1,0C63.2,38.4,63.2,38.4,63.1,38.4z"/>
			<path class="st4" d="M66.6,37.4c0.2,0,0.3-0.1,0.5-0.1C66.9,37.3,66.8,37.3,66.6,37.4z"/>
			<path class="st4" d="M65.8,114.8c-0.1,0-0.3-0.1-0.4-0.1C65.6,114.7,65.7,114.8,65.8,114.8z"/>
			<path class="st4" d="M74.2,36.3c0.7,0,1.3-0.1,2-0.1C75.5,36.2,74.9,36.2,74.2,36.3z"/>
			<path class="st4" d="M115.9,71.2c0,0.1,0,0.1,0,0.2C115.9,71.4,115.9,71.3,115.9,71.2z"/>
		</g>
	</g>
</g>
<g id="Screen_9">
</g>
</svg>
