<?xml version="1.0" encoding="utf-8"?>
<!-- Generator: Adobe Illustrator 22.0.1, SVG Export Plug-In . SVG Version: 6.00 Build 0)  -->
<svg version="1.1" xmlns="http://www.w3.org/2000/svg" xmlns:xlink="http://www.w3.org/1999/xlink" x="0px" y="0px"
	 viewBox="0 0 152.4 156.8" style="enable-background:new 0 0 152.4 156.8;" xml:space="preserve">
<style type="text/css">
	.st0{fill:#FFFFFF;}
	.st1{fill:#1E242B;stroke:#C2D52E;stroke-width:4;stroke-miterlimit:10;}
	.st2{clip-path:url(#SVGID_2_);}
	.st3{clip-path:url(#SVGID_4_);}
	.st4{fill:#231F20;}
	.st5{display:none;fill:#231F20;stroke:#FFFFFF;stroke-width:5;stroke-miterlimit:10;}
	.st6{clip-path:url(#SVGID_6_);fill:#231F20;}
	.st7{clip-path:url(#SVGID_8_);}
	.st8{clip-path:url(#SVGID_10_);fill:#231F20;}
	.st9{fill:none;}
	.st10{clip-path:url(#SVGID_12_);fill:#231F20;}
	.st11{fill:#EC1C24;}
	.st12{clip-path:url(#SVGID_16_);fill:#FFFFFF;}
	.st13{clip-path:url(#SVGID_18_);fill:#FFFFFF;}
	.st14{clip-path:url(#SVGID_20_);}
	.st15{clip-path:url(#SVGID_22_);}
	.st16{clip-path:url(#SVGID_24_);}
	.st17{clip-path:url(#SVGID_26_);}
	.st18{fill:#1E242B;}
	.st19{fill:#1E242B;stroke:#FFFFFF;stroke-miterlimit:10;}
	.st20{fill:none;stroke:#FFFFFF;stroke-width:2;stroke-miterlimit:10;}
	.st21{clip-path:url(#SVGID_30_);}
	.st22{clip-path:url(#SVGID_32_);}
	.st23{clip-path:url(#SVGID_34_);}
	.st24{clip-path:url(#SVGID_36_);}
	.st25{clip-path:url(#SVGID_38_);}
	.st26{clip-path:url(#SVGID_40_);}
	.st27{clip-path:url(#SVGID_44_);}
	.st28{clip-path:url(#SVGID_46_);}
	.st29{clip-path:url(#SVGID_48_);fill:#231F20;}
	.st30{clip-path:url(#SVGID_50_);fill:#FFFFFF;}
	.st31{clip-path:url(#SVGID_52_);}
	.st32{clip-path:url(#SVGID_54_);fill:#FFFFFF;}
	.st33{clip-path:url(#SVGID_56_);}
	.st34{clip-path:url(#SVGID_58_);}
	.st35{fill:#1E242B;stroke:#FFFFFF;stroke-width:2;stroke-miterlimit:10;}
	.st36{clip-path:url(#SVGID_60_);}
	.st37{display:none;}
	.st38{display:inline;fill:#FFFFFF;stroke:#FFFFFF;stroke-miterlimit:10;}
	.st39{clip-path:url(#SVGID_64_);}
	.st40{display:none;fill:#231F20;}
	.st41{fill-rule:evenodd;clip-rule:evenodd;fill:#231F20;}
	.st42{fill-rule:evenodd;clip-rule:evenodd;fill:#FFFFFF;}
	.st43{clip-path:url(#SVGID_68_);}
	.st44{fill:none;stroke:#000000;stroke-width:3;stroke-miterlimit:10;}
</style>
<g id="Screen_3">
	<g>
		<g>
			<defs>
				<polygon id="SVGID_7_" points="42.6,91 95.9,91 97.1,88.5 100.1,84.6 104.9,82 112.1,80.2 114.3,67.1 113.4,60.2 100.7,40.1 
					80.8,35.8 63.3,35.8 42.6,44.7 36.1,54.9 35,76.5 				"/>
			</defs>
			<clipPath id="SVGID_2_">
				<use xlink:href="#SVGID_7_"  style="overflow:visible;"/>
			</clipPath>
			<g class="st2">
				<g>
					<defs>
						<rect id="SVGID_9_" x="41.8" y="40.1" width="68.8" height="59.6"/>
					</defs>
					<clipPath id="SVGID_4_">
						<use xlink:href="#SVGID_9_"  style="overflow:visible;"/>
					</clipPath>
					<path style="clip-path:url(#SVGID_4_);fill:#231F20;" d="M110.7,74.5c0-9.4-3.8-17.9-9.9-24.2c0-0.1-0.1-0.1-0.2-0.2
						c-0.1-0.1-0.1-0.1-0.2-0.2c-6.2-6.1-14.8-9.9-24.2-9.9S58.3,43.8,52,50c-0.1,0-0.1,0.1-0.2,0.2c-0.1,0.1-0.1,0.1-0.2,0.2
						c-6.1,6.2-9.9,14.8-9.9,24.2c0,9.2,3.6,17.8,10.1,24.4c0,0,0,0,0,0c0,0,0,0,0,0l0,0c0.3,0.3,0.8,0.5,1.2,0.5
						c0.4,0,0.9-0.2,1.2-0.5c0,0,0.1-0.1,0.1-0.1l5.2-5.2c0.7-0.7,0.7-1.7,0-2.4c-0.7-0.7-1.7-0.7-2.4,0l-4.1,4.1
						c-4.8-5.3-7.5-11.9-7.9-19H51c0.9,0,1.7-0.8,1.7-1.7c0-0.9-0.8-1.7-1.7-1.7h-5.8c0.4-7.3,3.3-13.9,7.9-19l4.1,4.1
						c0.3,0.3,0.8,0.5,1.2,0.5c0.4,0,0.9-0.2,1.2-0.5c0.7-0.7,0.7-1.7,0-2.4l-4.1-4.1c5.1-4.6,11.7-7.5,19-7.9v5.8
						c0,0.9,0.8,1.7,1.7,1.7c0.9,0,1.7-0.8,1.7-1.7v-5.8c7.3,0.4,13.9,3.3,19,7.9l-4.1,4.1c-0.7,0.7-0.7,1.7,0,2.4
						c0.3,0.3,0.8,0.5,1.2,0.5c0.4,0,0.9-0.2,1.2-0.5l4.1-4.1c4.6,5.1,7.5,11.7,7.9,19h-5.8c-0.9,0-1.7,0.8-1.7,1.7
						c0,0.9,0.8,1.7,1.7,1.7h5.8c-0.4,7.1-3.1,13.7-7.9,19l-4.1-4.1c-0.7-0.7-1.7-0.7-2.4,0c-0.7,0.7-0.7,1.7,0,2.4l5.3,5.3
						c0.3,0.3,0.8,0.5,1.2,0.5c0.2,0,0.4,0,0.6-0.1c0.2-0.1,0.4-0.2,0.6-0.4C107.1,92.3,110.7,83.7,110.7,74.5L110.7,74.5z
						 M110.7,74.5"/>
				</g>
				<path class="st4" d="M84,55.1c-0.9-0.3-1.9,0.1-2.2,0.9l-4.9,12.2c-0.2,0-0.5,0-0.7,0c-2.4,0-4.5,1.3-5.6,3.4
					c-1.1,2.2-0.8,4.9,0.8,7.1c0.2,0.2,0.4,0.4,0.6,0.6c1.3,1,2.8,1.5,4.2,1.5c2.4,0,4.5-1.3,5.6-3.4c1.1-2.2,0.8-4.9-0.8-7.1
					c-0.2-0.2-0.4-0.4-0.6-0.6c-0.1-0.1-0.3-0.2-0.4-0.3l4.9-12.1C85.3,56.4,84.9,55.4,84,55.1L84,55.1z M78.8,75.8
					c-0.5,1-1.5,1.6-2.6,1.6c-0.7,0-1.5-0.3-2.2-0.8c-0.8-1.2-1-2.4-0.4-3.5c0.5-1,1.5-1.6,2.6-1.6c0.4,0,0.7,0.1,1.1,0.2
					c0,0,0,0,0,0c0,0,0.1,0,0.1,0c0.3,0.1,0.6,0.3,1,0.5C79.2,73.5,79.4,74.8,78.8,75.8L78.8,75.8z M78.8,75.8"/>
			</g>
		</g>
		<g>
			<g>
				<path class="st9" d="M127.6,108.7c0.3-0.4,0.3-0.9,0.1-1.3c-0.2-0.4-0.7-0.7-1.1-0.7h-13.4l-5-8.7l5-8.7h10.7
					c1.1,0,2-0.6,2.4-1.6c0.4-1,0.2-2-0.5-2.8c-2.1-2.2-4.7-3.8-7.7-4.7c-7.1-2.1-14.5-0.4-19.3,4.6c-1.5,1.5-2.6,3.2-3.5,5.1
					l-63.1,0c-2.1,0-4.2,0.8-5.7,2.3c-1.5,1.5-2.3,3.5-2.3,5.7c0,2.2,0.9,4.2,2.3,5.7c1.5,1.5,3.5,2.3,5.7,2.3l63.1,0
					c0.9,2,2.2,3.7,3.7,5.3c7.3,7.3,19.3,7.3,26.6,0C126.3,110.4,126.9,109.6,127.6,108.7L127.6,108.7z M100.7,109.3"/>
				<path class="st4" d="M91.3,96.6l-1.9,0c-0.7,0-1.3,0.6-1.3,1.3c0,0.3,0.1,0.7,0.4,0.9c0.2,0.2,0.5,0.4,0.9,0.4l1.9,0
					c0.7,0,1.3-0.6,1.3-1.3C92.5,97.1,92,96.6,91.3,96.6L91.3,96.6z M91.3,96.6"/>
				<g>
					<defs>
						
							<rect id="SVGID_11_" x="38.1" y="56.1" transform="matrix(0.7071 -0.7071 0.7071 0.7071 -45.8041 85.0569)" width="83.4" height="83.4"/>
					</defs>
					<clipPath id="SVGID_6_">
						<use xlink:href="#SVGID_11_"  style="overflow:visible;"/>
					</clipPath>
					<path class="st6" d="M85.5,96.6l-36.3,0c-0.7,0-1.3,0.6-1.3,1.3c0,0.3,0.1,0.7,0.4,0.9c0.2,0.2,0.5,0.4,0.9,0.4h36.3
						c0.7,0,1.3-0.6,1.3-1.3C86.8,97.1,86.2,96.6,85.5,96.6L85.5,96.6z M85.5,96.6"/>
					<path class="st6" d="M127.6,108.7c0.3-0.4,0.3-0.9,0.1-1.3c-0.2-0.4-0.7-0.7-1.1-0.7h-13.4l-5-8.7l5-8.7h10.7
						c1.1,0,2-0.6,2.4-1.6c0.4-1,0.2-2-0.5-2.8c-2.1-2.2-4.7-3.8-7.7-4.7c-7.1-2.1-14.5-0.4-19.3,4.6c-1.5,1.5-2.6,3.2-3.5,5.1
						l-63.1,0c-2.1,0-4.2,0.8-5.7,2.3c-1.5,1.5-2.3,3.5-2.3,5.7c0,2.2,0.9,4.2,2.3,5.7c1.5,1.5,3.5,2.3,5.7,2.3l63.1,0
						c0.9,2,2.2,3.7,3.7,5.3c7.3,7.3,19.3,7.3,26.6,0C126.3,110.4,126.9,109.6,127.6,108.7L127.6,108.7z M100.7,109.3
						c-1.5-1.5-2.7-3.3-3.5-5.2c-0.2-0.5-0.7-0.8-1.2-0.8h-64c-3,0-5.5-2.5-5.5-5.5c0-1.5,0.6-2.8,1.6-3.9c1-1,2.4-1.6,3.9-1.6h64
						c0.5,0,1-0.3,1.2-0.8c0.8-1.9,1.9-3.6,3.4-5.1c4.2-4.3,10.6-5.8,16.8-3.9c2.5,0.8,4.6,2,6.4,3.8c0.1,0.1,0.2,0.2,0.2,0.3
						c0,0,0,0,0,0c0,0,0,0,0,0.1c0,0,0,0-0.1,0l-11.4,0c-0.5,0-0.9,0.2-1.1,0.6l-5.8,10c-0.2,0.4-0.2,0.9,0,1.3l5.8,10
						c0.2,0.4,0.6,0.6,1.1,0.6l11.4,0c0,0-0.1,0.1-0.1,0.1C117.4,115.7,107.1,115.7,100.7,109.3L100.7,109.3z M100.7,109.3"/>
				</g>
				<path class="st4" d="M34.9,95c-1.5-1.5-4.1-1.5-5.6,0c-1.5,1.5-1.5,4.1,0,5.6c1.5,1.5,4.1,1.5,5.6,0
					C36.4,99.1,36.4,96.6,34.9,95L34.9,95z M31.1,98.8c-0.6-0.6-0.6-1.5,0-2c0.6-0.6,1.5-0.6,2,0c0.6,0.6,0.6,1.5,0,2
					C32.6,99.4,31.6,99.4,31.1,98.8L31.1,98.8z M31.1,98.8"/>
			</g>
		</g>
	</g>
	<g>
	</g>
</g>
<g id="Screen_4">
</g>
<g id="Screen_9">
</g>
</svg>
