<?xml version="1.0" encoding="utf-8"?>
<!-- Generator: Adobe Illustrator 22.0.1, SVG Export Plug-In . SVG Version: 6.00 Build 0)  -->
<svg version="1.1" xmlns="http://www.w3.org/2000/svg" xmlns:xlink="http://www.w3.org/1999/xlink" x="0px" y="0px"
	 viewBox="0 0 152.4 152.4" style="enable-background:new 0 0 152.4 152.4;" xml:space="preserve">
<style type="text/css">
	.st0{fill:#FFFFFF;}
	.st1{fill:#1E242B;stroke:#C2D52E;stroke-width:4;stroke-miterlimit:10;}
	.st2{clip-path:url(#SVGID_2_);}
	.st3{clip-path:url(#SVGID_4_);}
	.st4{fill:#231F20;}
	.st5{display:none;fill:#231F20;stroke:#FFFFFF;stroke-width:5;stroke-miterlimit:10;}
	.st6{clip-path:url(#SVGID_6_);fill:#231F20;}
	.st7{clip-path:url(#SVGID_8_);}
	.st8{clip-path:url(#SVGID_10_);fill:#231F20;}
	.st9{fill:none;}
	.st10{clip-path:url(#SVGID_12_);fill:#231F20;}
	.st11{fill:#EC1C24;}
	.st12{clip-path:url(#SVGID_16_);fill:#FFFFFF;}
	.st13{clip-path:url(#SVGID_18_);fill:#FFFFFF;}
	.st14{clip-path:url(#SVGID_20_);}
	.st15{clip-path:url(#SVGID_22_);}
	.st16{clip-path:url(#SVGID_24_);}
	.st17{clip-path:url(#SVGID_26_);}
	.st18{fill:#1E242B;}
	.st19{fill:#1E242B;stroke:#FFFFFF;stroke-miterlimit:10;}
	.st20{fill:none;stroke:#FFFFFF;stroke-width:2;stroke-miterlimit:10;}
	.st21{clip-path:url(#SVGID_30_);}
	.st22{clip-path:url(#SVGID_32_);}
	.st23{clip-path:url(#SVGID_34_);}
	.st24{clip-path:url(#SVGID_36_);}
	.st25{clip-path:url(#SVGID_38_);}
	.st26{clip-path:url(#SVGID_40_);}
	.st27{clip-path:url(#SVGID_44_);}
	.st28{clip-path:url(#SVGID_46_);}
	.st29{clip-path:url(#SVGID_48_);fill:#231F20;}
	.st30{clip-path:url(#SVGID_50_);fill:#FFFFFF;}
	.st31{clip-path:url(#SVGID_52_);}
	.st32{clip-path:url(#SVGID_54_);fill:#FFFFFF;}
	.st33{clip-path:url(#SVGID_56_);}
	.st34{clip-path:url(#SVGID_58_);}
	.st35{fill:#1E242B;stroke:#FFFFFF;stroke-width:2;stroke-miterlimit:10;}
	.st36{clip-path:url(#SVGID_60_);}
	.st37{display:none;}
	.st38{display:inline;fill:#FFFFFF;stroke:#FFFFFF;stroke-miterlimit:10;}
	.st39{clip-path:url(#SVGID_64_);}
	.st40{display:none;fill:#231F20;}
	.st41{fill-rule:evenodd;clip-rule:evenodd;fill:#231F20;}
	.st42{fill-rule:evenodd;clip-rule:evenodd;fill:#FFFFFF;}
	.st43{clip-path:url(#SVGID_68_);}
	.st44{fill:none;stroke:#000000;stroke-width:3;stroke-miterlimit:10;}
</style>
<g id="Screen_3">
	<g>
		<path d="M121.4,119.8l-9.5-9.9c2.8-3,4.5-7.1,4.5-11.5c0-9.4-7.7-17.1-17.1-17.1S82.2,89,82.2,98.4s7.7,17.1,17.1,17.1
			c3.9,0,7.4-1.3,10.3-3.5l9.5,9.9c0.3,0.3,0.7,0.5,1.1,0.5c0.4,0,0.8-0.1,1.1-0.4C122,121.4,122,120.4,121.4,119.8z M85.4,98.4
			c0-7.7,6.3-13.9,13.9-13.9s13.9,6.3,13.9,13.9s-6.3,13.9-13.9,13.9S85.4,106.1,85.4,98.4z"/>
		<path d="M76.1,96.9c-1.3,0-2.6,0-3.9-0.1c-0.8,0-1.5-0.1-2.3-0.1c-0.5,0-0.9,0-1.4-0.1c-1-0.1-2-0.2-2.9-0.3c-0.2,0-0.4,0-0.5-0.1
			c-1.1-0.1-2.2-0.3-3.2-0.4c0,0-0.1,0-0.1,0c-5.4-0.8-10-2-13.6-3.4c0,0,0,0-0.1,0c-0.7-0.3-1.3-0.5-1.9-0.8
			c-0.1,0-0.1-0.1-0.2-0.1c-0.5-0.3-1-0.5-1.5-0.8c-0.1-0.1-0.2-0.1-0.3-0.2c-0.4-0.2-0.8-0.5-1.1-0.7c-0.1-0.1-0.3-0.2-0.4-0.3
			c-0.3-0.2-0.6-0.4-0.8-0.7c-0.1-0.1-0.3-0.2-0.4-0.4c-0.2-0.2-0.4-0.4-0.6-0.6c-0.1-0.1-0.2-0.3-0.3-0.4c-0.1-0.2-0.3-0.4-0.4-0.6
			c-0.1-0.2-0.2-0.3-0.2-0.5c-0.1-0.2-0.1-0.4-0.2-0.6c-0.1-0.3-0.1-0.5-0.1-0.8V72c0,0,0.1,0.1,0.1,0.1c0.3,0.3,0.7,0.6,1.1,0.9
			c6,4.5,17.9,8,35.2,8c17.2,0,29.1-3.5,35.1-8c0.5-0.3,0.9-0.7,1.3-1.1l0,0v7.5c0,0.9,0.7,1.6,1.6,1.6s1.6-0.7,1.6-1.6V66.8V66V47
			v-0.8c0-0.3-0.1-0.5-0.2-0.8c-1.8-6.8-15.5-13.5-39.4-13.5s-37.5,6.7-39.4,13.5c-0.1,0.2-0.2,0.5-0.2,0.8V47v19v0.8V85v0.8v19
			c0,0.3,0.1,0.5,0.2,0.7c1.8,7.7,16.9,12.2,31.4,13.3c0,0,0.1,0,0.1,0c0.8,0,1.5-0.6,1.6-1.5c0.1-0.9-0.6-1.6-1.5-1.7
			c-17.6-1.3-27.9-6.7-28.6-11.1c0-0.1,0-0.1-0.1-0.2V91c0,0,0.1,0.1,0.1,0.1c0.3,0.3,0.7,0.6,1.1,0.9c6,4.5,17.9,8,35.2,8
			c0.9,0,1.6-0.7,1.6-1.6S77,96.9,76.1,96.9z M40.7,53.8c0.5,0.4,1,0.7,1.5,1.1c0.1,0.1,0.2,0.1,0.4,0.2c0.5,0.3,1,0.6,1.5,0.9
			c0.2,0.1,0.4,0.2,0.6,0.3c0.6,0.3,1.2,0.6,1.8,0.9c0.1,0,0.2,0.1,0.3,0.1c0.7,0.3,1.5,0.6,2.4,0.9c0.2,0.1,0.5,0.2,0.7,0.2
			c0.7,0.2,1.3,0.4,2,0.6c0.3,0.1,0.5,0.1,0.8,0.2c0.9,0.3,1.9,0.5,2.9,0.7c0.1,0,0.3,0.1,0.4,0.1c0.9,0.2,1.8,0.4,2.7,0.5
			c0.3,0.1,0.6,0.1,1,0.2c0.9,0.1,1.8,0.3,2.8,0.4c0.2,0,0.5,0.1,0.7,0.1c1.2,0.1,2.4,0.3,3.7,0.4c0.3,0,0.6,0,0.9,0.1
			c1,0.1,2,0.1,3.1,0.2c0.4,0,0.8,0,1.2,0c1.4,0,2.8,0.1,4.2,0.1c1.4,0,2.8,0,4.2-0.1c0.4,0,0.8,0,1.2,0c1,0,2.1-0.1,3.1-0.2
			c0.3,0,0.6,0,0.9-0.1c1.3-0.1,2.5-0.2,3.7-0.4c0.2,0,0.5-0.1,0.7-0.1c0.9-0.1,1.9-0.3,2.8-0.4c0.3-0.1,0.7-0.1,1-0.2
			c0.9-0.2,1.9-0.3,2.7-0.5c0.1,0,0.3-0.1,0.4-0.1c1-0.2,2-0.5,2.9-0.7c0.3-0.1,0.5-0.1,0.8-0.2c0.7-0.2,1.4-0.4,2-0.6
			c0.2-0.1,0.5-0.2,0.7-0.2c0.8-0.3,1.6-0.6,2.4-0.9c0.1,0,0.2-0.1,0.3-0.1c0.6-0.3,1.2-0.6,1.8-0.9c0.2-0.1,0.4-0.2,0.6-0.3
			c0.5-0.3,1-0.6,1.5-0.9c0.1-0.1,0.3-0.1,0.4-0.2c0.6-0.4,1.1-0.7,1.5-1.1c0.1-0.1,0.2-0.2,0.3-0.3c0.2-0.2,0.4-0.3,0.6-0.5v13
			c0,0.3-0.1,0.5-0.1,0.8c0,0.2-0.1,0.4-0.2,0.6c-0.1,0.2-0.1,0.3-0.2,0.5c-0.1,0.2-0.2,0.4-0.4,0.6c-0.1,0.1-0.2,0.3-0.3,0.4
			c-0.2,0.2-0.4,0.4-0.6,0.6c-0.1,0.1-0.3,0.2-0.4,0.4c-0.3,0.2-0.5,0.5-0.8,0.7c-0.1,0.1-0.3,0.2-0.4,0.3c-0.4,0.2-0.7,0.5-1.1,0.7
			c-0.1,0.1-0.2,0.1-0.3,0.2c-0.5,0.3-1,0.5-1.5,0.8c-0.1,0-0.1,0.1-0.2,0.1c-0.6,0.3-1.2,0.6-1.9,0.8c0,0,0,0-0.1,0
			c-3.6,1.4-8.2,2.6-13.6,3.4c0,0-0.1,0-0.1,0c-1,0.2-2.1,0.3-3.2,0.4c-0.2,0-0.4,0-0.5,0.1c-1,0.1-1.9,0.2-2.9,0.3
			c-0.5,0-0.9,0.1-1.4,0.1c-0.8,0-1.5,0.1-2.3,0.1c-1.3,0-2.5,0.1-3.9,0.1s-2.6,0-3.9-0.1c-0.8,0-1.5-0.1-2.3-0.1
			c-0.5,0-0.9,0-1.4-0.1c-1-0.1-2-0.2-2.9-0.3c-0.2,0-0.4,0-0.5-0.1c-1.1-0.1-2.2-0.3-3.2-0.4c0,0-0.1,0-0.1,0
			c-5.4-0.8-10-2-13.6-3.4c0,0,0,0-0.1,0c-0.7-0.3-1.3-0.5-1.9-0.8c-0.1,0-0.1-0.1-0.2-0.1c-0.5-0.3-1-0.5-1.5-0.8
			c-0.1-0.1-0.2-0.1-0.3-0.2c-0.4-0.2-0.8-0.5-1.1-0.7c-0.1-0.1-0.3-0.2-0.4-0.3c-0.3-0.2-0.6-0.4-0.8-0.7c-0.1-0.1-0.3-0.2-0.4-0.4
			c-0.2-0.2-0.4-0.4-0.6-0.6c-0.1-0.1-0.2-0.3-0.3-0.4c-0.1-0.2-0.3-0.4-0.4-0.6c-0.1-0.2-0.2-0.3-0.2-0.5c-0.1-0.2-0.1-0.4-0.2-0.6
			c-0.1-0.3-0.1-0.5-0.1-0.8V53c0.2,0.2,0.4,0.3,0.6,0.5C40.4,53.6,40.5,53.7,40.7,53.8z M76.1,35.1c21.5,0,36.4,6.3,36.4,11.9
			s-15,11.9-36.4,11.9S39.7,52.6,39.7,47S54.7,35.1,76.1,35.1z"/>
	</g>
</g>
<g id="Screen_4">
</g>
<g id="Screen_9">
</g>
</svg>
