<svg id="Screen_3" data-name="Screen 3" xmlns="http://www.w3.org/2000/svg" viewBox="0 0 152.4 152.4"><title>icons</title><path d="M96.17,106.73a1.47,1.47,0,0,0-1.47,1.47v2.7a1.69,1.69,0,0,1-1.08,1.57,1.47,1.47,0,0,0,.53,2.84,1.58,1.58,0,0,0,.52-.09,4.64,4.64,0,0,0,3-4.32v-2.7A1.47,1.47,0,0,0,96.17,106.73Z"/><path d="M68.77,112.58H47.52a1.68,1.68,0,0,1-1.68-1.68V57.07a1.47,1.47,0,0,0-2.94,0V110.9a4.62,4.62,0,0,0,4.62,4.62H68.77a1.47,1.47,0,0,0,0-2.94Z"/><path d="M44.37,52.33a1.47,1.47,0,0,0,1.47-1.47V46.8a1.68,1.68,0,0,1,1.68-1.67H58.1V47.2A2.91,2.91,0,0,0,61,50.1H79.55a2.91,2.91,0,0,0,2.9-2.9V45.13H93A1.67,1.67,0,0,1,94.7,46.8v8.08a1.48,1.48,0,0,0,3,0V46.8A4.63,4.63,0,0,0,93,42.19H82.42a2.9,2.9,0,0,0-2.87-2.49h-2a7.37,7.37,0,0,0-14.45,0H61a2.9,2.9,0,0,0-2.87,2.49H47.52A4.62,4.62,0,0,0,42.9,46.8v4.06A1.47,1.47,0,0,0,44.37,52.33Zm25.9-15.59a4.44,4.44,0,0,1,4.18,3H66.1A4.43,4.43,0,0,1,70.27,36.74ZM61,42.64H79.51v4.51H61Z"/><path d="M97.64,72.13V67.31a1.47,1.47,0,0,0-2.94,0v4.82a1.47,1.47,0,0,0,2.94,0Z"/><path d="M96.17,100.61a10.66,10.66,0,1,0,10.66,10.65A10.67,10.67,0,0,0,96.17,100.61Zm0,18.37a7.72,7.72,0,1,1,7.72-7.72A7.72,7.72,0,0,1,96.17,119Z"/><path d="M117.88,105.87l-4.1-.63a17.1,17.1,0,0,0-.9-2.17l2.46-3.34a1.46,1.46,0,0,0-.15-1.91l-.52-.53a1.47,1.47,0,0,0-2.39,1.63L110,102.07a1.46,1.46,0,0,0-.1,1.58,15.5,15.5,0,0,1,1.37,3.31,1.48,1.48,0,0,0,1.19,1.05l3.76.57v5.36l-3.76.58a1.45,1.45,0,0,0-1.19,1,15.64,15.64,0,0,1-1.37,3.3,1.48,1.48,0,0,0,.1,1.59l2.25,3.06-3.79,3.79-3.06-2.25a1.48,1.48,0,0,0-1.59-.1,15.64,15.64,0,0,1-3.3,1.37,1.46,1.46,0,0,0-1,1.19l-.58,3.76H93.49l-.57-3.76a1.46,1.46,0,0,0-1-1.19,15.64,15.64,0,0,1-3.3-1.37,1.48,1.48,0,0,0-1.59.1l-3.06,2.25-3.79-3.79,2.25-3.06a1.48,1.48,0,0,0,.1-1.59,15.64,15.64,0,0,1-1.37-3.3,1.46,1.46,0,0,0-1.19-1l-3.76-.58v-5.36l3.76-.57A1.48,1.48,0,0,0,81.11,107a15.42,15.42,0,0,1,1.37-3.3,1.48,1.48,0,0,0-.1-1.59L80.13,99l3.79-3.79L87,97.47a1.48,1.48,0,0,0,1.59.1,15.64,15.64,0,0,1,3.3-1.37,1.49,1.49,0,0,0,1-1.19l.57-3.76h5.36L99.43,95a1.49,1.49,0,0,0,1,1.19,15.64,15.64,0,0,1,3.3,1.37,1.48,1.48,0,0,0,1.59-.1l3.06-2.25a1.47,1.47,0,0,0,2.06-2.1l-.87-.88a1.47,1.47,0,0,0-1.91-.14l-3.34,2.45a21.56,21.56,0,0,0-2.17-.9l-.63-4.09a1.47,1.47,0,0,0-1.45-1.25H97.64V84.55a1.47,1.47,0,0,0-2.94,0v3.76H92.23a1.46,1.46,0,0,0-1.45,1.25l-.63,4.09a20.64,20.64,0,0,0-2.17.9L84.64,92.1a1.47,1.47,0,0,0-1.91.14l-5.58,5.58A1.47,1.47,0,0,0,77,99.73l2.45,3.34a18.64,18.64,0,0,0-.89,2.17l-4.1.63a1.46,1.46,0,0,0-1.25,1.45v7.89a1.47,1.47,0,0,0,1.25,1.45l4.1.63a18.5,18.5,0,0,0,.89,2.16L77,122.8a1.47,1.47,0,0,0,.14,1.91l5.58,5.57a1.46,1.46,0,0,0,1.91.15L88,128a17.1,17.1,0,0,0,2.17.9l.63,4.1a1.46,1.46,0,0,0,1.45,1.25h7.89a1.47,1.47,0,0,0,1.45-1.25l.63-4.1a17,17,0,0,0,2.16-.9l3.35,2.46a1.46,1.46,0,0,0,1.91-.15l5.57-5.57a1.46,1.46,0,0,0,.15-1.91l-2.46-3.35a17,17,0,0,0,.9-2.16l4.1-.63a1.47,1.47,0,0,0,1.25-1.45v-7.89A1.46,1.46,0,0,0,117.88,105.87Z"/><path d="M78.84,63.06s0-.07,0-.11,0-.23,0-.34,0-.07,0-.11l-.06-.34,0-.11c0-.11,0-.21-.08-.32a.56.56,0,0,0,0-.12,1.71,1.71,0,0,0-.09-.3c0-.05,0-.1,0-.14s-.07-.18-.1-.27l-.06-.16-.11-.24a1.42,1.42,0,0,0-.08-.18,1.86,1.86,0,0,0-.1-.2,1.24,1.24,0,0,0-.1-.2l-.09-.17a2.53,2.53,0,0,0-.13-.22l-.07-.11a8.3,8.3,0,0,0-.92-1.22l0,0-.23-.24-.07-.08-.22-.2a.94.94,0,0,0-.1-.1l-.1-.09,0,0,0,0-.2-.16-.09-.07-.11-.09h0l-.07,0-.11-.08-.18-.13-.13-.08-.16-.1h0l-.12-.07-.14-.08-.07,0,0,0-.07,0-.09,0-.06,0-.35-.17-.07,0a8.72,8.72,0,0,0-1.9-.58h0l-.42-.06h-.09l-.4,0h-.59A8.62,8.62,0,0,0,61.66,64v3.45a8.62,8.62,0,0,0,17.23,0V64c0-.15,0-.3,0-.46a.31.31,0,0,1,0-.1Zm-8.25-4.75h.12l.18,0,.16,0,.15,0,.16,0,.14,0,.16,0,.15.05.14,0,.28.1,0,0,.25.1,0,0,.26.12L73,59,73,59l.17.09,0,0h0l.17.12h0l.06,0,.16.11.06.05.15.11.06,0,.11.1.1.09.11.1.09.09.1.11a.6.6,0,0,0,.08.08l.11.13.06.08.11.13.06.08.09.13.07.09a.57.57,0,0,0,.08.13l.06.11a.75.75,0,0,1,.07.12l.07.12,0,.1.07.14a.36.36,0,0,1,0,.09,1.11,1.11,0,0,1,.07.16l0,.07c0,.06,0,.12.07.19v0a5.3,5.3,0,0,1,.28,1.16s0,.07,0,.11a4.76,4.76,0,0,1-1.78-1.62A1.49,1.49,0,0,0,73,61.07a1.48,1.48,0,0,0-1.21.48,7,7,0,0,1-7.19,2.06V63.5s0-.09,0-.14,0-.1,0-.14a.69.69,0,0,0,0-.13l0-.15s0-.09,0-.13a.83.83,0,0,1,0-.15s0-.08,0-.12l0-.15,0-.11a1.46,1.46,0,0,1,.07-.19A.19.19,0,0,1,65,62a2.6,2.6,0,0,1,.1-.25l0-.08.08-.17a.41.41,0,0,1,0-.09l.07-.15.06-.1.07-.13a.61.61,0,0,0,.07-.1l.08-.13a.86.86,0,0,0,.07-.1,1,1,0,0,1,.08-.11l.08-.1.09-.12L66,60.3l.09-.11.09-.09.09-.1.09-.09.11-.1.09-.08.11-.1.09-.08.12-.08.1-.08.11-.08.11-.07.12-.08.1-.07.13-.07.11-.06.13-.06.11-.06.13-.06.12-.05.13,0,.12,0,.14,0,.12,0,.14,0,.12,0,.15,0,.12,0,.16,0,.12,0,.17,0h.11l.19,0h.69Zm-.32,14.78a5.68,5.68,0,0,1-5.67-5.67v-.79a9.94,9.94,0,0,0,8.16-1.95A7.71,7.71,0,0,0,76,66.53v.89A5.69,5.69,0,0,1,70.27,73.09Z"/><path d="M82.31,85.81a9.07,9.07,0,0,0-6-7.47l-.13,0-.31-.1h0l-.07,0-.26-.07L75.19,78l0,0-.34-.06-.33,0h-.06l-.35,0-.28,0h-7l-.27,0-.36,0h0l-.33,0-.34.06,0,0-.33.07-.26.07-.06,0h0l-.32.1-.12,0a9.07,9.07,0,0,0-6,7.47,1.46,1.46,0,0,0,.63,1.39,20.33,20.33,0,0,0,22.81,0A1.48,1.48,0,0,0,82.31,85.81Zm-12,2a17.3,17.3,0,0,1-8.94-2.48,6.11,6.11,0,0,1,4-4.2l.1,0,.12,0h0l.2,0,.22,0h0l.2,0h0l.21,0h0l.23,0h7.12l.25,0h0l.2,0h0l.19,0h0l.21,0L75,81h0l.13,0,.1,0a6.13,6.13,0,0,1,4,4.2A17.34,17.34,0,0,1,70.27,87.76Z"/><path d="M87.23,59.62a1.47,1.47,0,1,0,0,2.94h15.5a5.25,5.25,0,1,0,0-2.94Zm20.54-.83a2.31,2.31,0,1,1-2.31,2.3A2.31,2.31,0,0,1,107.77,58.79Z"/><path d="M85.76,78.34a1.47,1.47,0,0,0,1.47,1.47h15.5a5.25,5.25,0,1,0,0-2.94H87.23A1.47,1.47,0,0,0,85.76,78.34Zm22-2.31a2.31,2.31,0,1,1-2.31,2.31A2.32,2.32,0,0,1,107.77,76Z"/></svg>