<?xml version="1.0" encoding="utf-8"?>
<!-- Generator: Adobe Illustrator 22.0.1, SVG Export Plug-In . SVG Version: 6.00 Build 0)  -->
<svg version="1.1" xmlns="http://www.w3.org/2000/svg" xmlns:xlink="http://www.w3.org/1999/xlink" x="0px" y="0px"
	 viewBox="0 0 152.4 152.4" style="enable-background:new 0 0 152.4 152.4;" xml:space="preserve">
<style type="text/css">
	.st0{fill:#FFFFFF;}
	.st1{fill:#1E242B;stroke:#C2D52E;stroke-width:4;stroke-miterlimit:10;}
	.st2{clip-path:url(#SVGID_2_);}
	.st3{clip-path:url(#SVGID_4_);}
	.st4{fill:#231F20;}
	.st5{display:none;fill:#231F20;stroke:#FFFFFF;stroke-width:5;stroke-miterlimit:10;}
	.st6{clip-path:url(#SVGID_6_);fill:#231F20;}
	.st7{clip-path:url(#SVGID_8_);}
	.st8{clip-path:url(#SVGID_10_);fill:#231F20;}
	.st9{fill:none;}
	.st10{clip-path:url(#SVGID_12_);fill:#231F20;}
	.st11{fill:#EC1C24;}
	.st12{clip-path:url(#SVGID_16_);fill:#FFFFFF;}
	.st13{clip-path:url(#SVGID_18_);fill:#FFFFFF;}
	.st14{clip-path:url(#SVGID_20_);}
	.st15{clip-path:url(#SVGID_22_);}
	.st16{clip-path:url(#SVGID_24_);}
	.st17{clip-path:url(#SVGID_26_);}
	.st18{fill:#1E242B;}
	.st19{fill:#1E242B;stroke:#FFFFFF;stroke-miterlimit:10;}
	.st20{fill:none;stroke:#FFFFFF;stroke-width:2;stroke-miterlimit:10;}
	.st21{clip-path:url(#SVGID_30_);}
	.st22{clip-path:url(#SVGID_32_);}
	.st23{clip-path:url(#SVGID_34_);}
	.st24{clip-path:url(#SVGID_36_);}
	.st25{clip-path:url(#SVGID_38_);}
	.st26{clip-path:url(#SVGID_40_);}
	.st27{clip-path:url(#SVGID_44_);}
	.st28{clip-path:url(#SVGID_46_);}
	.st29{clip-path:url(#SVGID_48_);fill:#231F20;}
	.st30{clip-path:url(#SVGID_50_);fill:#FFFFFF;}
	.st31{clip-path:url(#SVGID_52_);}
	.st32{clip-path:url(#SVGID_54_);fill:#FFFFFF;}
	.st33{clip-path:url(#SVGID_56_);}
	.st34{clip-path:url(#SVGID_58_);}
	.st35{fill:#1E242B;stroke:#FFFFFF;stroke-width:2;stroke-miterlimit:10;}
	.st36{clip-path:url(#SVGID_60_);}
	.st37{display:none;}
	.st38{display:inline;fill:#FFFFFF;stroke:#FFFFFF;stroke-miterlimit:10;}
	.st39{clip-path:url(#SVGID_64_);}
	.st40{display:none;fill:#231F20;}
	.st41{fill-rule:evenodd;clip-rule:evenodd;fill:#231F20;}
	.st42{fill-rule:evenodd;clip-rule:evenodd;fill:#FFFFFF;}
	.st43{clip-path:url(#SVGID_68_);}
	.st44{fill:none;stroke:#000000;stroke-width:3;stroke-miterlimit:10;}
</style>
<g id="Screen_3">
	<g>
		<g>
			<g>
				<path class="st4" d="M107.7,59.3H42c-3.9,0-7.1,3.2-7.1,7.1v37.2c0,3.9,3.2,7.1,7.1,7.1h65.7c3.9,0,7.1-3.2,7.1-7.1V66.5
					C114.8,62.5,111.6,59.3,107.7,59.3z M112,103.6c0,2.4-1.9,4.3-4.3,4.3H42c-2.4,0-4.3-1.9-4.3-4.3V66.5c0-2.4,1.9-4.3,4.3-4.3
					h65.7c2.4,0,4.3,1.9,4.3,4.3V103.6z"/>
			</g>
		</g>
		<g>
			<g>
				<path class="st4" d="M57.7,66.5H43.4c-0.8,0-1.4,0.6-1.4,1.4v11.4c0,0.8,0.6,1.4,1.4,1.4h14.3c0.8,0,1.4-0.6,1.4-1.4V67.9
					C59.1,67.1,58.5,66.5,57.7,66.5z M56.2,77.9H44.8v-8.6h11.4V77.9z"/>
			</g>
		</g>
		<g>
			<g>
				<rect x="43.4" y="72.2" class="st4" width="4.3" height="2.9"/>
			</g>
		</g>
		<g>
			<g>
				<rect x="53.4" y="72.2" class="st4" width="4.3" height="2.9"/>
			</g>
		</g>
		<g>
			<g>
				<path class="st4" d="M99.1,86.5c-4.7,0-8.6,3.8-8.6,8.6s3.8,8.6,8.6,8.6c4.7,0,8.6-3.8,8.6-8.6S103.8,86.5,99.1,86.5z
					 M99.1,100.8c-3.2,0-5.7-2.6-5.7-5.7c0-3.2,2.6-5.7,5.7-5.7c3.2,0,5.7,2.6,5.7,5.7C104.8,98.2,102.3,100.8,99.1,100.8z"/>
			</g>
		</g>
		<g>
			<g>
				<path class="st4" d="M90.5,86.5c-4.7,0-8.6,3.8-8.6,8.6s3.8,8.6,8.6,8.6s8.6-3.8,8.6-8.6S95.3,86.5,90.5,86.5z M90.5,100.8
					c-3.2,0-5.7-2.6-5.7-5.7c0-3.2,2.6-5.7,5.7-5.7c3.2,0,5.7,2.6,5.7,5.7C96.3,98.2,93.7,100.8,90.5,100.8z"/>
			</g>
		</g>
		<g>
			<g>
				<rect x="42" y="89.3" class="st4" width="8.6" height="2.9"/>
			</g>
		</g>
		<g>
			<g>
				<rect x="56.2" y="89.3" class="st4" width="8.6" height="2.9"/>
			</g>
		</g>
		<g>
			<g>
				<rect x="70.5" y="89.3" class="st4" width="8.6" height="2.9"/>
			</g>
		</g>
		<g>
			<g>
				<rect x="42" y="97.9" class="st4" width="37.2" height="2.9"/>
			</g>
		</g>
		<g>
			<g>
				<path class="st4" d="M113.7,52.1L48.8,41.7c-3.9-0.6-7.6,2-8.2,5.9l-2.3,14.3l2.8,0.5l2.3-14.3c0.4-2.3,2.6-3.9,4.9-3.6
					L113.2,55c2.3,0.4,3.9,2.6,3.6,4.9c0,0,0,0,0,0L112,90.5l2.8,0.4l4.8-30.6c0,0,0,0,0,0C120.2,56.4,117.6,52.8,113.7,52.1z"/>
			</g>
		</g>
		<g>
			<g>
				<rect x="86.2" y="67.9" class="st4" width="2.9" height="5.7"/>
			</g>
		</g>
		<g>
			<g>
				<rect x="92" y="67.9" class="st4" width="2.9" height="5.7"/>
			</g>
		</g>
		<g>
			<g>
				<rect x="97.7" y="67.9" class="st4" width="2.9" height="5.7"/>
			</g>
		</g>
		<g>
			<g>
				<rect x="103.4" y="67.9" class="st4" width="2.9" height="5.7"/>
			</g>
		</g>
		<g>
			<g>
				
					<rect x="114.1" y="62.5" transform="matrix(0.1677 -0.9858 0.9858 0.1677 32.4086 167.7278)" class="st4" width="2.9" height="4.3"/>
			</g>
		</g>
		<g>
			<g>
				
					<rect x="65.5" y="31.1" transform="matrix(0.169 -0.9856 0.9856 0.169 -4.774102e-03 112.9155)" class="st4" width="2.9" height="50.7"/>
			</g>
		</g>
	</g>
</g>
<g id="Screen_4">
</g>
<g id="Screen_9">
</g>
</svg>
