<?xml version="1.0" encoding="utf-8"?>
<!-- Generator: Adobe Illustrator 22.0.1, SVG Export Plug-In . SVG Version: 6.00 Build 0)  -->
<svg version="1.1" xmlns="http://www.w3.org/2000/svg" xmlns:xlink="http://www.w3.org/1999/xlink" x="0px" y="0px"
	 viewBox="0 0 152.4 152.4" style="enable-background:new 0 0 152.4 152.4;" xml:space="preserve">
<style type="text/css">
	.st0{fill:#FFFFFF;}
	.st1{fill:#1E242B;stroke:#C2D52E;stroke-width:4;stroke-miterlimit:10;}
	.st2{clip-path:url(#SVGID_2_);}
	.st3{clip-path:url(#SVGID_4_);}
	.st4{fill:#231F20;}
	.st5{display:none;fill:#231F20;stroke:#FFFFFF;stroke-width:5;stroke-miterlimit:10;}
	.st6{clip-path:url(#SVGID_6_);fill:#231F20;}
	.st7{clip-path:url(#SVGID_8_);}
	.st8{clip-path:url(#SVGID_10_);fill:#231F20;}
	.st9{fill:none;}
	.st10{clip-path:url(#SVGID_12_);fill:#231F20;}
	.st11{fill:#EC1C24;}
	.st12{clip-path:url(#SVGID_16_);fill:#FFFFFF;}
	.st13{clip-path:url(#SVGID_18_);fill:#FFFFFF;}
	.st14{clip-path:url(#SVGID_20_);}
	.st15{clip-path:url(#SVGID_22_);}
	.st16{clip-path:url(#SVGID_24_);}
	.st17{clip-path:url(#SVGID_26_);}
	.st18{fill:#1E242B;}
	.st19{fill:#1E242B;stroke:#FFFFFF;stroke-miterlimit:10;}
	.st20{fill:none;stroke:#FFFFFF;stroke-width:2;stroke-miterlimit:10;}
	.st21{clip-path:url(#SVGID_30_);}
	.st22{clip-path:url(#SVGID_32_);}
	.st23{clip-path:url(#SVGID_34_);}
	.st24{clip-path:url(#SVGID_36_);}
	.st25{clip-path:url(#SVGID_38_);}
	.st26{clip-path:url(#SVGID_40_);}
	.st27{clip-path:url(#SVGID_44_);}
	.st28{clip-path:url(#SVGID_46_);}
	.st29{clip-path:url(#SVGID_48_);fill:#231F20;}
	.st30{clip-path:url(#SVGID_50_);fill:#FFFFFF;}
	.st31{clip-path:url(#SVGID_52_);}
	.st32{clip-path:url(#SVGID_54_);fill:#FFFFFF;}
	.st33{clip-path:url(#SVGID_56_);}
	.st34{clip-path:url(#SVGID_58_);}
	.st35{fill:#1E242B;stroke:#FFFFFF;stroke-width:2;stroke-miterlimit:10;}
	.st36{clip-path:url(#SVGID_60_);}
	.st37{display:none;}
	.st38{display:inline;fill:#FFFFFF;stroke:#FFFFFF;stroke-miterlimit:10;}
	.st39{clip-path:url(#SVGID_64_);}
	.st40{display:none;fill:#231F20;}
	.st41{fill-rule:evenodd;clip-rule:evenodd;fill:#231F20;}
	.st42{fill-rule:evenodd;clip-rule:evenodd;fill:#FFFFFF;}
	.st43{clip-path:url(#SVGID_68_);}
	.st44{fill:none;stroke:#000000;stroke-width:3;stroke-miterlimit:10;}
</style>
<g id="Screen_3">
	<g>
		<g>
			<path class="st4" d="M112.3,54.7H98.4v-5.6c0-6.9-5.6-12.5-12.5-12.5H66.5c-6.9,0-12.5,5.6-12.5,12.5v5.6H40.1c-3.8,0-7,3.1-7,7
				v47.2c0,3.8,3.1,7,7,7h7h17h24.3h17h7c3.8,0,7-3.1,7-7V61.6C119.3,57.8,116.1,54.7,112.3,54.7z M56.7,49.1L56.7,49.1
				c0-5.4,4.4-9.7,9.8-9.7h19.4c5.4,0,9.7,4.4,9.7,9.7v5.6h-2.8v-5.6c0-3.8-3.1-7-7-7H66.5c-3.8,0-7,3.1-7,7v5.6h-2.8L56.7,49.1
				L56.7,49.1z M90.1,49.1v5.6h0H62.3v-5.6c0-2.3,1.9-4.2,4.2-4.2h19.4C88.2,44.9,90.1,46.8,90.1,49.1z M66.9,113
				c0.7-4.5,4.6-8,9.2-8c4.7,0,8.6,3.5,9.2,8H66.9z M102.6,113H88.2c-0.7-6-5.8-10.7-12-10.7c-6.2,0-11.3,4.7-12,10.7H49.8v-3l7-1.2
				l0.3-0.8c0.3-0.9,0.7-1.8,1.1-2.7l0.4-0.7l-4.1-5.8l6.2-6.2l5.8,4.1l0.7-0.4c0.9-0.5,1.8-0.8,2.7-1.1l0.8-0.3l1.2-7h8.8l1.2,7
				l0.8,0.3c0.9,0.3,1.8,0.7,2.7,1.1l0.7,0.4l5.8-4.1l6.2,6.2l-4.1,5.8l0.4,0.7c0.5,0.9,0.8,1.8,1.1,2.7l0.3,0.8l7,1.2L102.6,113
				L102.6,113z M116.4,108.8c0,2.3-1.8,4.2-4.1,4.2h-7v-5.3l-7.7-1.3c-0.2-0.5-0.4-1-0.6-1.5l4.5-6.3L92,89l-6.3,4.5
				c-0.5-0.2-1-0.4-1.5-0.6l-1.3-7.7H69.5l-1.3,7.7c-0.5,0.2-1,0.4-1.5,0.6L60.3,89l-9.5,9.5l4.5,6.3c-0.2,0.5-0.4,1-0.6,1.5
				l-7.7,1.3v5.3h-7c-2.3,0-4.2-1.9-4.2-4.2V71.3H47v8.3h11.1v-8.3h36.1v8.3h11.1v-8.3h11.1V108.8z M49.8,76.9v-5.6h5.6v5.6H49.8z
				 M97,76.9v-5.6h5.6v5.6H97z M116.5,68.6H104h-1.4H97h-1.4H56.7h-1.4h-5.6h-1.4H35.9v-7c0-2.3,1.9-4.2,4.2-4.2H54h5.6h33.3h5.6
				h13.9c2.3,0,4.2,1.9,4.2,4.2V68.6z"/>
		</g>
	</g>
</g>
<g id="Screen_4">
</g>
<g id="Screen_9">
</g>
</svg>
