<?xml version="1.0" encoding="utf-8"?>
<!-- Generator: Adobe Illustrator 22.0.1, SVG Export Plug-In . SVG Version: 6.00 Build 0)  -->
<svg version="1.1" xmlns="http://www.w3.org/2000/svg" xmlns:xlink="http://www.w3.org/1999/xlink" x="0px" y="0px"
	 viewBox="0 0 152.4 152.4" style="enable-background:new 0 0 152.4 152.4;" xml:space="preserve">
<style type="text/css">
	.st0{fill:#FFFFFF;}
	.st1{fill:#1E242B;stroke:#C2D52E;stroke-width:4;stroke-miterlimit:10;}
	.st2{clip-path:url(#SVGID_2_);}
	.st3{clip-path:url(#SVGID_4_);}
	.st4{fill:#231F20;}
	.st5{display:none;fill:#231F20;stroke:#FFFFFF;stroke-width:5;stroke-miterlimit:10;}
	.st6{clip-path:url(#SVGID_6_);fill:#231F20;}
	.st7{clip-path:url(#SVGID_8_);}
	.st8{clip-path:url(#SVGID_10_);fill:#231F20;}
	.st9{fill:none;}
	.st10{clip-path:url(#SVGID_12_);fill:#231F20;}
	.st11{fill:#EC1C24;}
	.st12{clip-path:url(#SVGID_16_);fill:#FFFFFF;}
	.st13{clip-path:url(#SVGID_18_);fill:#FFFFFF;}
	.st14{clip-path:url(#SVGID_20_);}
	.st15{clip-path:url(#SVGID_22_);}
	.st16{clip-path:url(#SVGID_24_);}
	.st17{clip-path:url(#SVGID_26_);}
	.st18{fill:#1E242B;}
	.st19{fill:#1E242B;stroke:#FFFFFF;stroke-miterlimit:10;}
	.st20{fill:none;stroke:#FFFFFF;stroke-width:2;stroke-miterlimit:10;}
	.st21{clip-path:url(#SVGID_30_);}
	.st22{clip-path:url(#SVGID_32_);}
	.st23{clip-path:url(#SVGID_34_);}
	.st24{clip-path:url(#SVGID_36_);}
	.st25{clip-path:url(#SVGID_38_);}
	.st26{clip-path:url(#SVGID_40_);}
	.st27{clip-path:url(#SVGID_44_);}
	.st28{clip-path:url(#SVGID_46_);}
	.st29{clip-path:url(#SVGID_48_);fill:#231F20;}
	.st30{clip-path:url(#SVGID_50_);fill:#FFFFFF;}
	.st31{clip-path:url(#SVGID_52_);}
	.st32{clip-path:url(#SVGID_54_);fill:#FFFFFF;}
	.st33{clip-path:url(#SVGID_56_);}
	.st34{clip-path:url(#SVGID_58_);}
	.st35{fill:#1E242B;stroke:#FFFFFF;stroke-width:2;stroke-miterlimit:10;}
	.st36{clip-path:url(#SVGID_60_);}
	.st37{display:none;}
	.st38{display:inline;fill:#FFFFFF;stroke:#FFFFFF;stroke-miterlimit:10;}
	.st39{clip-path:url(#SVGID_64_);}
	.st40{display:none;fill:#231F20;}
	.st41{fill-rule:evenodd;clip-rule:evenodd;fill:#231F20;}
	.st42{fill-rule:evenodd;clip-rule:evenodd;fill:#FFFFFF;}
	.st43{clip-path:url(#SVGID_68_);}
	.st44{fill:none;stroke:#000000;stroke-width:3;stroke-miterlimit:10;}
</style>
<g id="Screen_3">
	<g>
		<g>
			<g>
				<path d="M35.3,74H31c-1.2,0-2.2,1-2.2,2.2c0,1.2,1,2.2,2.2,2.2h4.3c1.2,0,2.2-1,2.2-2.2C37.4,75,36.5,74,35.3,74z M121.4,74
					h-4.3c-1.2,0-2.2,1-2.2,2.2c0,1.2,1,2.2,2.2,2.2h4.3c1.2,0,2.2-1,2.2-2.2C123.6,75,122.6,74,121.4,74z"/>
			</g>
		</g>
		<g>
			<g>
				<path d="M106.3,59c-1.2,0-2.2,1-2.2,2.2v30.1c0,1.2,1,2.2,2.2,2.2s2.2-1,2.2-2.2V61.1C108.5,59.9,107.5,59,106.3,59z M63.3,59
					c-1.2,0-2.2,1-2.2,2.2v30.1c0,1.2,1,2.2,2.2,2.2c1.2,0,2.2-1,2.2-2.2V61.1C65.4,59.9,64.5,59,63.3,59z M46.1,67.6
					c-1.2,0-2.2,1-2.2,2.2v12.9c0,1.2,1,2.2,2.2,2.2s2.2-1,2.2-2.2V69.7C48.2,68.5,47.2,67.6,46.1,67.6z M97.7,50.4
					c-1.2,0-2.2,1-2.2,2.2v47.4c0,1.2,1,2.2,2.2,2.2s2.2-1,2.2-2.2V52.5C99.9,51.3,98.9,50.4,97.7,50.4z M80.5,50.4
					c-1.2,0-2.2,1-2.2,2.2v47.4c0,1.2,1,2.2,2.2,2.2c1.2,0,2.2-1,2.2-2.2V52.5C82.7,51.3,81.7,50.4,80.5,50.4z M54.7,50.4
					c-1.2,0-2.2,1-2.2,2.2v47.4c0,1.2,1,2.2,2.2,2.2s2.2-1,2.2-2.2V52.5C56.8,51.3,55.9,50.4,54.7,50.4z M89.1,41.8
					c-1.2,0-2.2,1-2.2,2.2v64.6c0,1.2,1,2.2,2.2,2.2c1.2,0,2.2-1,2.2-2.2V43.9C91.3,42.7,90.3,41.8,89.1,41.8z M71.9,41.8
					c-1.2,0-2.2,1-2.2,2.2v64.6c0,1.2,1,2.2,2.2,2.2c1.2,0,2.2-1,2.2-2.2V43.9C74,42.7,73.1,41.8,71.9,41.8z"/>
			</g>
		</g>
	</g>
</g>
<g id="Screen_4">
</g>
<g id="Screen_9">
</g>
</svg>
