<?xml version="1.0" encoding="utf-8"?>
<!-- Generator: Adobe Illustrator 22.0.1, SVG Export Plug-In . SVG Version: 6.00 Build 0)  -->
<svg version="1.1" xmlns="http://www.w3.org/2000/svg" xmlns:xlink="http://www.w3.org/1999/xlink" x="0px" y="0px"
	 viewBox="0 0 152.4 152.4" style="enable-background:new 0 0 152.4 152.4;" xml:space="preserve">
<style type="text/css">
	.st0{fill:#FFFFFF;}
	.st1{fill:#1E242B;stroke:#C2D52E;stroke-width:4;stroke-miterlimit:10;}
	.st2{clip-path:url(#SVGID_2_);}
	.st3{clip-path:url(#SVGID_4_);}
	.st4{fill:#231F20;}
	.st5{display:none;fill:#231F20;stroke:#FFFFFF;stroke-width:5;stroke-miterlimit:10;}
	.st6{clip-path:url(#SVGID_6_);fill:#231F20;}
	.st7{clip-path:url(#SVGID_8_);}
	.st8{clip-path:url(#SVGID_10_);fill:#231F20;}
	.st9{fill:none;}
	.st10{clip-path:url(#SVGID_12_);fill:#231F20;}
	.st11{fill:#EC1C24;}
	.st12{clip-path:url(#SVGID_16_);fill:#FFFFFF;}
	.st13{clip-path:url(#SVGID_18_);fill:#FFFFFF;}
	.st14{clip-path:url(#SVGID_20_);}
	.st15{clip-path:url(#SVGID_22_);}
	.st16{clip-path:url(#SVGID_24_);}
	.st17{clip-path:url(#SVGID_26_);}
	.st18{fill:#1E242B;}
	.st19{fill:#1E242B;stroke:#FFFFFF;stroke-miterlimit:10;}
	.st20{fill:none;stroke:#FFFFFF;stroke-width:2;stroke-miterlimit:10;}
	.st21{clip-path:url(#SVGID_30_);}
	.st22{clip-path:url(#SVGID_32_);}
	.st23{clip-path:url(#SVGID_34_);}
	.st24{clip-path:url(#SVGID_36_);}
	.st25{clip-path:url(#SVGID_38_);}
	.st26{clip-path:url(#SVGID_40_);}
	.st27{clip-path:url(#SVGID_44_);}
	.st28{clip-path:url(#SVGID_46_);}
	.st29{clip-path:url(#SVGID_48_);fill:#231F20;}
	.st30{clip-path:url(#SVGID_50_);fill:#FFFFFF;}
	.st31{clip-path:url(#SVGID_52_);}
	.st32{clip-path:url(#SVGID_54_);fill:#FFFFFF;}
	.st33{clip-path:url(#SVGID_56_);}
	.st34{clip-path:url(#SVGID_58_);}
	.st35{fill:#1E242B;stroke:#FFFFFF;stroke-width:2;stroke-miterlimit:10;}
	.st36{clip-path:url(#SVGID_60_);}
	.st37{display:none;}
	.st38{display:inline;fill:#FFFFFF;stroke:#FFFFFF;stroke-miterlimit:10;}
	.st39{clip-path:url(#SVGID_64_);}
	.st40{display:none;fill:#231F20;}
	.st41{fill-rule:evenodd;clip-rule:evenodd;fill:#231F20;}
	.st42{fill-rule:evenodd;clip-rule:evenodd;fill:#FFFFFF;}
	.st43{clip-path:url(#SVGID_68_);}
	.st44{fill:none;stroke:#000000;stroke-width:3;stroke-miterlimit:10;}
</style>
<g id="Screen_3">
</g>
<g id="Screen_4">
	<g>
		<path class="st4" d="M104.3,104.1c0.3-0.3,0.5-0.7,0.5-1.1c0,0,0-63.8,0-63.8c0-0.8-0.6-1.4-1.4-1.4H62.8c-1-3.2-4-5.6-7.6-5.6
			c-3.5,0-6.6,2.3-7.6,5.6h-4.5c-0.8,0-1.4,0.6-1.4,1.4v79.5c0,0.8,0.6,1.4,1.4,1.4h44.6c0.5,0,0.8-0.2,1.1-0.5L104.3,104.1z
			 M89.1,115.4v-10.9H100L89.1,115.4z M55.2,35c2,0,3.7,1.1,4.6,2.8h-9.2C51.5,36.2,53.3,35,55.2,35z M44.6,40.7h15.8v9.8
			c0,1.3-1,2.3-2.3,2.3c-1.3,0-2.3-1-2.3-2.3v-5.6c0-0.8-0.6-1.4-1.4-1.4s-1.4,0.6-1.4,1.4v5.6c0,2.8,2.3,5.1,5.1,5.1
			c2.8,0,5.1-2.3,5.1-5.1v-9.8H102v61H87.7c-0.8,0-1.4,0.6-1.4,1.4v14.3H44.6V40.7z"/>
		<path class="st4" d="M92.2,96.9c0.8,0,1.4-0.6,1.4-1.4s-0.6-1.4-1.4-1.4H54.4c-0.8,0-1.4,0.6-1.4,1.4s0.6,1.4,1.4,1.4H92.2z"/>
		<path class="st4" d="M54.4,88.5h37.8c0.8,0,1.4-0.6,1.4-1.4s-0.6-1.4-1.4-1.4H54.4c-0.8,0-1.4,0.6-1.4,1.4S53.6,88.5,54.4,88.5z"
			/>
		<path class="st4" d="M54.4,80h37.8c0.8,0,1.4-0.6,1.4-1.4c0-0.8-0.6-1.4-1.4-1.4H54.4c-0.8,0-1.4,0.6-1.4,1.4
			C53,79.4,53.6,80,54.4,80z"/>
		<path class="st4" d="M54.4,71.6h37.8c0.8,0,1.4-0.6,1.4-1.4s-0.6-1.4-1.4-1.4H54.4c-0.8,0-1.4,0.6-1.4,1.4S53.6,71.6,54.4,71.6z"
			/>
		<path class="st4" d="M54.4,63.2h37.8c0.8,0,1.4-0.6,1.4-1.4c0-0.8-0.6-1.4-1.4-1.4H54.4c-0.8,0-1.4,0.6-1.4,1.4
			C53,62.6,53.6,63.2,54.4,63.2z"/>
		<path class="st4" d="M110.9,37.8H109c-0.8,0-1.4,0.6-1.4,1.4s0.6,1.4,1.4,1.4h0.5v76.7h-15c-0.8,0-1.4,0.6-1.4,1.4
			s0.6,1.4,1.4,1.4h16.4c0.8,0,1.4-0.6,1.4-1.4V39.3C112.3,38.5,111.7,37.8,110.9,37.8z"/>
		<path class="st4" d="M118.4,37.8h-1.9c-0.8,0-1.4,0.6-1.4,1.4s0.6,1.4,1.4,1.4h0.5v76.7h-0.5c-0.8,0-1.4,0.6-1.4,1.4
			s0.6,1.4,1.4,1.4h1.9c0.8,0,1.4-0.6,1.4-1.4V39.3C119.8,38.5,119.2,37.8,118.4,37.8z"/>
	</g>
</g>
<g id="Screen_9">
</g>
</svg>
