<?xml version="1.0" encoding="utf-8"?>
<!-- Generator: Adobe Illustrator 22.0.1, SVG Export Plug-In . SVG Version: 6.00 Build 0)  -->
<svg version="1.1" xmlns="http://www.w3.org/2000/svg" xmlns:xlink="http://www.w3.org/1999/xlink" x="0px" y="0px"
	 viewBox="0 0 152.4 152.4" style="enable-background:new 0 0 152.4 152.4;" xml:space="preserve">
<style type="text/css">
	.st0{fill:#FFFFFF;}
	.st1{fill:#1E242B;stroke:#C2D52E;stroke-width:4;stroke-miterlimit:10;}
	.st2{clip-path:url(#SVGID_2_);}
	.st3{clip-path:url(#SVGID_4_);}
	.st4{fill:#231F20;}
	.st5{display:none;fill:#231F20;stroke:#FFFFFF;stroke-width:5;stroke-miterlimit:10;}
	.st6{clip-path:url(#SVGID_6_);fill:#231F20;}
	.st7{clip-path:url(#SVGID_8_);}
	.st8{clip-path:url(#SVGID_10_);fill:#231F20;}
	.st9{fill:none;}
	.st10{clip-path:url(#SVGID_12_);fill:#231F20;}
	.st11{fill:#EC1C24;}
	.st12{clip-path:url(#SVGID_16_);fill:#FFFFFF;}
	.st13{clip-path:url(#SVGID_18_);fill:#FFFFFF;}
	.st14{clip-path:url(#SVGID_20_);}
	.st15{clip-path:url(#SVGID_22_);}
	.st16{clip-path:url(#SVGID_24_);}
	.st17{clip-path:url(#SVGID_26_);}
	.st18{fill:#1E242B;}
	.st19{fill:#1E242B;stroke:#FFFFFF;stroke-miterlimit:10;}
	.st20{fill:none;stroke:#FFFFFF;stroke-width:2;stroke-miterlimit:10;}
	.st21{clip-path:url(#SVGID_30_);}
	.st22{clip-path:url(#SVGID_32_);}
	.st23{clip-path:url(#SVGID_34_);}
	.st24{clip-path:url(#SVGID_36_);}
	.st25{clip-path:url(#SVGID_38_);}
	.st26{clip-path:url(#SVGID_40_);}
	.st27{clip-path:url(#SVGID_44_);}
	.st28{clip-path:url(#SVGID_46_);}
	.st29{clip-path:url(#SVGID_48_);fill:#231F20;}
	.st30{clip-path:url(#SVGID_50_);fill:#FFFFFF;}
	.st31{clip-path:url(#SVGID_52_);}
	.st32{clip-path:url(#SVGID_54_);fill:#FFFFFF;}
	.st33{clip-path:url(#SVGID_56_);}
	.st34{clip-path:url(#SVGID_58_);}
	.st35{fill:#1E242B;stroke:#FFFFFF;stroke-width:2;stroke-miterlimit:10;}
	.st36{clip-path:url(#SVGID_60_);}
	.st37{display:none;}
	.st38{display:inline;fill:#FFFFFF;stroke:#FFFFFF;stroke-miterlimit:10;}
	.st39{clip-path:url(#SVGID_64_);}
	.st40{display:none;fill:#231F20;}
	.st41{fill-rule:evenodd;clip-rule:evenodd;fill:#231F20;}
	.st42{fill-rule:evenodd;clip-rule:evenodd;fill:#FFFFFF;}
	.st43{clip-path:url(#SVGID_68_);}
	.st44{fill:none;stroke:#000000;stroke-width:3;stroke-miterlimit:10;}
</style>
<g id="Screen_3">
	<g>
		<g>
			<g>
				<g>
					<g>
						<path d="M109.7,47.5H97.8v-3.3c0-0.9-0.6-1.5-1.5-1.5h-7.2c0.1-1,0.3-2.2,0.1-3.4c-0.4-6.1-5.2-11.3-11.3-12.1
							c-8.1-1-14.9,5.2-14.9,13c0,0.9,0.1,1.6,0.3,2.4h-7.2c-0.9,0-1.5,0.6-1.5,1.5v3.3H42.8c-1.5,0-2.7,1.2-2.7,2.7v72.6
							c0,1.5,1.2,2.7,2.7,2.7h66.8c1.5,0,2.7-1.2,2.7-2.7V50.2C112.4,48.7,111.2,47.5,109.7,47.5z M57.9,45.7h7.6
							c0.4,0,0.9-0.1,1.2-0.6c0.3-0.3,0.4-0.7,0.1-1.3c-0.4-1-0.6-2.2-0.6-3.4c0-6,5.2-10.9,11.6-10.1c4.6,0.6,8.4,4.6,8.8,9.4
							c0.1,1.5-0.1,2.8-0.6,4.2c-0.1,0.4-0.1,0.9,0.1,1.3c0.3,0.3,0.6,0.6,1.2,0.6H95v7.5H57.9V45.7z M109.4,122.5H43.2v-72h11.6
							v4.2c0,0.9,0.6,1.5,1.5,1.5h40c0.9,0,1.5-0.6,1.5-1.5v-4.2h11.6L109.4,122.5L109.4,122.5z"/>
						<path d="M76.3,35.4c-3,0-5.4,2.4-5.4,5.4s2.4,5.4,5.4,5.4s5.4-2.4,5.4-5.4S79.3,35.4,76.3,35.4z M76.3,43.2
							c-1.3,0-2.4-1-2.4-2.4s1-2.4,2.4-2.4s2.4,1,2.4,2.4C78.7,42.1,77.7,43.2,76.3,43.2z"/>
					</g>
				</g>
			</g>
		</g>
		<g>
			<path d="M73.8,70.5h25.5c0.8,0,1.5-0.7,1.5-1.5s-0.7-1.5-1.5-1.5H73.8c-0.8,0-1.5,0.7-1.5,1.5S73,70.5,73.8,70.5z"/>
			<path d="M73.8,76.8h25.8c0.8,0,1.5-0.7,1.5-1.5s-0.7-1.5-1.5-1.5H73.8c-0.8,0-1.5,0.7-1.5,1.5S73,76.8,73.8,76.8z"/>
			<path d="M58.5,76.4c0.3,0.3,0.7,0.4,1,0.4c0.4,0,0.8-0.1,1-0.4l7.9-7.9c0.6-0.6,0.6-1.5,0-2.1c-0.6-0.6-1.5-0.6-2.1,0l-6.9,6.9
				l-3.7-3.7c-0.6-0.6-1.5-0.6-2.1,0c-0.6,0.6-0.6,1.5,0,2.1L58.5,76.4L58.5,76.4z"/>
			<path d="M73.8,88.3h19.5c0.8,0,1.5-0.7,1.5-1.5c0-0.8-0.7-1.5-1.5-1.5H73.8c-0.8,0-1.5,0.7-1.5,1.5C72.3,87.6,73,88.3,73.8,88.3z
				"/>
			<path d="M73.8,94.6h25.8c0.8,0,1.5-0.7,1.5-1.5s-0.7-1.5-1.5-1.5H73.8c-0.8,0-1.5,0.7-1.5,1.5S73,94.6,73.8,94.6z"/>
			<path d="M58.5,94.2c0.3,0.3,0.7,0.4,1,0.4c0.4,0,0.8-0.1,1-0.4l7.9-7.9c0.6-0.6,0.6-1.5,0-2.1c-0.6-0.6-1.5-0.6-2.1,0l-6.9,6.9
				l-3.7-3.7c-0.6-0.6-1.5-0.6-2.1,0c-0.6,0.6-0.6,1.5,0,2.1L58.5,94.2L58.5,94.2z"/>
			<path d="M73.8,106.1h10.5c0.8,0,1.5-0.7,1.5-1.5s-0.7-1.5-1.5-1.5H73.8c-0.8,0-1.5,0.7-1.5,1.5S73,106.1,73.8,106.1z"/>
			<path d="M73.8,112.5h25.8c0.8,0,1.5-0.7,1.5-1.5s-0.7-1.5-1.5-1.5H73.8c-0.8,0-1.5,0.7-1.5,1.5S73,112.5,73.8,112.5z"/>
			<path d="M58.5,112c0.3,0.3,0.7,0.4,1,0.4c0.4,0,0.8-0.1,1-0.4l7.9-7.9c0.6-0.6,0.6-1.5,0-2.1c-0.6-0.6-1.5-0.6-2.1,0l-6.9,6.9
				l-3.7-3.7c-0.6-0.6-1.5-0.6-2.1,0c-0.6,0.6-0.6,1.5,0,2.1L58.5,112L58.5,112z"/>
		</g>
	</g>
</g>
<g id="Screen_4">
</g>
<g id="Screen_9">
</g>
</svg>
