<?xml version="1.0" encoding="utf-8"?>
<!-- Generator: Adobe Illustrator 22.0.1, SVG Export Plug-In . SVG Version: 6.00 Build 0)  -->
<svg version="1.1" xmlns="http://www.w3.org/2000/svg" xmlns:xlink="http://www.w3.org/1999/xlink" x="0px" y="0px"
	 viewBox="0 0 152.4 152.4" style="enable-background:new 0 0 152.4 152.4;" xml:space="preserve">
<style type="text/css">
	.st0{fill:#FFFFFF;}
	.st1{fill:#1E242B;stroke:#C2D52E;stroke-width:4;stroke-miterlimit:10;}
	.st2{clip-path:url(#SVGID_2_);}
	.st3{clip-path:url(#SVGID_4_);}
	.st4{fill:#231F20;}
	.st5{display:none;fill:#231F20;stroke:#FFFFFF;stroke-width:5;stroke-miterlimit:10;}
	.st6{clip-path:url(#SVGID_6_);fill:#231F20;}
	.st7{clip-path:url(#SVGID_8_);}
	.st8{clip-path:url(#SVGID_10_);fill:#231F20;}
	.st9{fill:none;}
	.st10{clip-path:url(#SVGID_12_);fill:#231F20;}
	.st11{fill:#EC1C24;}
	.st12{clip-path:url(#SVGID_16_);fill:#FFFFFF;}
	.st13{clip-path:url(#SVGID_18_);fill:#FFFFFF;}
	.st14{clip-path:url(#SVGID_20_);}
	.st15{clip-path:url(#SVGID_22_);}
	.st16{clip-path:url(#SVGID_24_);}
	.st17{clip-path:url(#SVGID_26_);}
	.st18{fill:#1E242B;}
	.st19{fill:#1E242B;stroke:#FFFFFF;stroke-miterlimit:10;}
	.st20{fill:none;stroke:#FFFFFF;stroke-width:2;stroke-miterlimit:10;}
	.st21{clip-path:url(#SVGID_30_);}
	.st22{clip-path:url(#SVGID_32_);}
	.st23{clip-path:url(#SVGID_34_);}
	.st24{clip-path:url(#SVGID_36_);}
	.st25{clip-path:url(#SVGID_38_);}
	.st26{clip-path:url(#SVGID_40_);}
	.st27{clip-path:url(#SVGID_44_);}
	.st28{clip-path:url(#SVGID_46_);}
	.st29{clip-path:url(#SVGID_48_);fill:#231F20;}
	.st30{clip-path:url(#SVGID_50_);fill:#FFFFFF;}
	.st31{clip-path:url(#SVGID_52_);}
	.st32{clip-path:url(#SVGID_54_);fill:#FFFFFF;}
	.st33{clip-path:url(#SVGID_56_);}
	.st34{clip-path:url(#SVGID_58_);}
	.st35{fill:#1E242B;stroke:#FFFFFF;stroke-width:2;stroke-miterlimit:10;}
	.st36{clip-path:url(#SVGID_60_);}
	.st37{display:none;}
	.st38{display:inline;fill:#FFFFFF;stroke:#FFFFFF;stroke-miterlimit:10;}
	.st39{clip-path:url(#SVGID_64_);}
	.st40{display:none;fill:#231F20;}
	.st41{fill-rule:evenodd;clip-rule:evenodd;fill:#231F20;}
	.st42{fill-rule:evenodd;clip-rule:evenodd;fill:#FFFFFF;}
	.st43{clip-path:url(#SVGID_68_);}
	.st44{fill:none;stroke:#000000;stroke-width:3;stroke-miterlimit:10;}
</style>
<g id="Screen_3">
	<g>
		<g>
			<g>
				<g>
					<rect x="74.4" y="94.4" class="st4" width="1.8" height="7.3"/>
					<rect x="74.4" y="50.7" class="st4" width="1.8" height="7.3"/>
					<path class="st4" d="M91,59.8c-0.4,0-0.8-0.3-0.9-0.7l-3.7-17.9l-0.9-6c-0.1-0.4-0.5-0.8-0.9-0.8h-2.5h-11h-2.8h-2.4
						c-0.5,0-0.8,0.3-0.9,0.8c-0.4,2.4-1.6,9.8-1.6,9.9l0,0l-2.5,14c-0.1,0.4-0.5,0.8-0.9,0.8H33.4c-0.5,0-0.9,0.4-0.9,0.9v1.8
						c0,0.5,0.4,0.9,0.9,0.9h9.1c0.5,0,0.9,0.4,0.9,0.9v7.3c0,0.5,0.4,0.9,0.9,0.9h1.8c0.5,0,0.9-0.4,0.9-0.9v-7.3
						c0-0.5,0.4-0.9,0.9-0.9h10.9c0.6,0,1,0.5,0.9,1.1l-8.9,49.2c0,0,0,0,0,0.1l-0.6,3.2c-0.1,0.6,0.3,1.1,0.9,1.1h3.2H58h36.5h3.4
						h3.3c0.6,0,1-0.5,0.9-1.1l-0.9-4.9c0,0,0,0-0.1,0l-9.8-47.5c-0.1-0.6,0.3-1.1,0.9-1.1h12.2c0.5,0,0.9,0.4,0.9,0.9v7.3
						c0,0.5,0.4,0.9,0.9,0.9h1.8c0.5,0,0.9-0.4,0.9-0.9v-7.3c0-0.5,0.4-0.9,0.9-0.9h9.1c0.5,0,0.9-0.4,0.9-0.9v-1.8
						c0-0.5-0.4-0.9-0.9-0.9H91z M69,38h4.4c0.5,0,0.9,0.4,0.9,0.9v4.5h1.8v-4.5c0-0.5,0.4-0.9,0.9-0.9h4.2c0.4,0,0.8,0.3,0.9,0.7
						l4.1,20c0.1,0.6-0.3,1.1-0.9,1.1H65.4c-0.6,0-1-0.5-0.9-1.1l3.6-20C68.2,38.3,68.6,38,69,38z M96.8,114.4H77.1
						c-0.5,0-0.9-0.4-0.9-0.9V109h-1.8v4.5c0,0.5-0.4,0.9-0.9,0.9H55.6c-0.6,0-1-0.5-0.9-1.1l8.9-49.1c0.1-0.4,0.5-0.8,0.9-0.8h22.2
						c0.4,0,0.8,0.3,0.9,0.7l10.2,49.1C97.8,113.9,97.3,114.4,96.8,114.4z"/>
					<rect x="74.4" y="79.8" class="st4" width="1.8" height="7.3"/>
					<rect x="74.4" y="65.3" class="st4" width="1.8" height="7.3"/>
				</g>
			</g>
		</g>
	</g>
	<g>
	</g>
</g>
<g id="Screen_4">
</g>
<g id="Screen_9">
</g>
</svg>
