<?xml version="1.0" encoding="utf-8"?>
<!-- Generator: Adobe Illustrator 22.0.1, SVG Export Plug-In . SVG Version: 6.00 Build 0)  -->
<svg version="1.1" xmlns="http://www.w3.org/2000/svg" xmlns:xlink="http://www.w3.org/1999/xlink" x="0px" y="0px"
	 viewBox="0 0 152.4 152.4" style="enable-background:new 0 0 152.4 152.4;" xml:space="preserve">
<style type="text/css">
	.st0{fill:#FFFFFF;}
	.st1{fill:#1E242B;stroke:#C2D52E;stroke-width:4;stroke-miterlimit:10;}
	.st2{clip-path:url(#SVGID_2_);}
	.st3{clip-path:url(#SVGID_4_);}
	.st4{fill:#231F20;}
	.st5{display:none;fill:#231F20;stroke:#FFFFFF;stroke-width:5;stroke-miterlimit:10;}
	.st6{clip-path:url(#SVGID_6_);fill:#231F20;}
	.st7{clip-path:url(#SVGID_8_);}
	.st8{clip-path:url(#SVGID_10_);fill:#231F20;}
	.st9{fill:none;}
	.st10{clip-path:url(#SVGID_12_);fill:#231F20;}
	.st11{fill:#EC1C24;}
	.st12{clip-path:url(#SVGID_16_);fill:#FFFFFF;}
	.st13{clip-path:url(#SVGID_18_);fill:#FFFFFF;}
	.st14{clip-path:url(#SVGID_20_);}
	.st15{clip-path:url(#SVGID_22_);}
	.st16{clip-path:url(#SVGID_24_);}
	.st17{clip-path:url(#SVGID_26_);}
	.st18{fill:#1E242B;}
	.st19{fill:#1E242B;stroke:#FFFFFF;stroke-miterlimit:10;}
	.st20{fill:none;stroke:#FFFFFF;stroke-width:2;stroke-miterlimit:10;}
	.st21{clip-path:url(#SVGID_30_);}
	.st22{clip-path:url(#SVGID_32_);}
	.st23{clip-path:url(#SVGID_34_);}
	.st24{clip-path:url(#SVGID_36_);}
	.st25{clip-path:url(#SVGID_38_);}
	.st26{clip-path:url(#SVGID_40_);}
	.st27{clip-path:url(#SVGID_44_);}
	.st28{clip-path:url(#SVGID_46_);}
	.st29{clip-path:url(#SVGID_48_);fill:#231F20;}
	.st30{clip-path:url(#SVGID_50_);fill:#FFFFFF;}
	.st31{clip-path:url(#SVGID_52_);}
	.st32{clip-path:url(#SVGID_54_);fill:#FFFFFF;}
	.st33{clip-path:url(#SVGID_56_);}
	.st34{clip-path:url(#SVGID_58_);}
	.st35{fill:#1E242B;stroke:#FFFFFF;stroke-width:2;stroke-miterlimit:10;}
	.st36{clip-path:url(#SVGID_60_);}
	.st37{display:none;}
	.st38{display:inline;fill:#FFFFFF;stroke:#FFFFFF;stroke-miterlimit:10;}
	.st39{clip-path:url(#SVGID_64_);}
	.st40{display:none;fill:#231F20;}
	.st41{fill-rule:evenodd;clip-rule:evenodd;fill:#231F20;}
	.st42{fill-rule:evenodd;clip-rule:evenodd;fill:#FFFFFF;}
	.st43{clip-path:url(#SVGID_68_);}
	.st44{fill:none;stroke:#000000;stroke-width:3;stroke-miterlimit:10;}
</style>
<g id="Screen_3">
</g>
<g id="Screen_4">
</g>
<g id="Screen_9">
	<g>
		<path d="M39.8,106v5.6c0,1-0.3,1.7-1,2.3s-1.5,0.8-2.5,0.8c-1.1,0-1.9-0.3-2.6-0.8s-1-1.3-1-2.3V106h2v5.6c0,0.5,0.1,0.9,0.4,1.2
			s0.7,0.4,1.1,0.4c0.5,0,0.9-0.1,1.1-0.4s0.4-0.6,0.4-1.2V106H39.8z"/>
		<path d="M43.9,106.6v1.6H45v1.4h-1.1v2.9c0,0.2,0,0.4,0.1,0.5s0.2,0.1,0.4,0.1c0.1,0,0.2,0,0.3,0s0.2,0,0.3,0l0.1,1.5
			c-0.2,0.1-0.4,0.1-0.6,0.1s-0.4,0-0.6,0c-0.7,0-1.1-0.2-1.5-0.5s-0.5-0.9-0.5-1.7v-2.9h-0.9v-1.4H42v-1.6H43.9z"/>
		<path d="M48.6,106.7h-2v-1.3h2V106.7z M48.6,114.5h-2v-6.3h2V114.5z"/>
		<path d="M52.5,114.5h-2v-9.1h2V114.5z"/>
		<path d="M56.4,106.7h-2v-1.3h2V106.7z M56.4,114.5h-2v-6.3h2V114.5z"/>
		<path d="M60.5,106.6v1.6h1.1v1.4h-1.1v2.9c0,0.2,0,0.4,0.1,0.5s0.2,0.1,0.4,0.1c0.1,0,0.2,0,0.3,0s0.2,0,0.3,0l0.1,1.5
			c-0.2,0.1-0.4,0.1-0.6,0.1s-0.4,0-0.6,0c-0.7,0-1.1-0.2-1.5-0.5s-0.5-0.9-0.5-1.7v-2.9h-0.9v-1.4h0.9v-1.6H60.5z"/>
		<path d="M65.6,111.7L65.6,111.7L65.6,111.7l1.1-3.5h2.1l-2.5,7.3c-0.2,0.5-0.4,0.9-0.8,1.2s-0.8,0.5-1.5,0.5c-0.2,0-0.3,0-0.4,0
			s-0.3-0.1-0.5-0.1l0.2-1.4c0.1,0,0.1,0,0.1,0s0.1,0,0.1,0c0.3,0,0.5,0,0.7-0.1s0.3-0.2,0.3-0.4l0.2-0.4l-2.2-6.4h2.1L65.6,111.7z"
			/>
		<path d="M73.6,114.5V106h2.9c1.1,0,1.9,0.2,2.5,0.6s0.9,1,0.9,1.8c0,0.4-0.1,0.8-0.3,1.1s-0.5,0.6-0.9,0.7
			c0.5,0.1,0.9,0.3,1.1,0.7s0.4,0.7,0.4,1.2c0,0.8-0.3,1.5-0.8,1.9s-1.4,0.6-2.4,0.6H73.6z M75.6,109.6h1c0.4,0,0.8-0.1,1-0.3
			s0.3-0.4,0.3-0.7c0-0.4-0.1-0.6-0.3-0.8s-0.6-0.2-1-0.2h-0.9V109.6z M75.6,110.9v2.1H77c0.4,0,0.7-0.1,0.9-0.2s0.3-0.4,0.3-0.8
			c0-0.4-0.1-0.7-0.3-0.8s-0.5-0.3-0.9-0.3H75.6z"/>
		<path d="M83.9,106.7h-2v-1.3h2V106.7z M83.9,114.5h-2v-6.3h2V114.5z"/>
		<path d="M87.8,114.5h-2v-9.1h2V114.5z"/>
		<path d="M91.7,114.5h-2v-9.1h2V114.5z"/>
		<path d="M95.5,106.7h-2v-1.3h2V106.7z M95.5,114.5h-2v-6.3h2V114.5z"/>
		<path d="M99.2,108.2l0.1,0.9c0.2-0.3,0.5-0.6,0.8-0.7s0.6-0.3,1-0.3c0.6,0,1.1,0.2,1.5,0.6s0.5,1,0.5,1.9v3.9h-2v-3.9
			c0-0.4-0.1-0.6-0.2-0.8s-0.4-0.2-0.7-0.2c-0.2,0-0.3,0-0.5,0.1s-0.3,0.2-0.4,0.3v4.6h-2v-6.3H99.2z"/>
		<path d="M104.4,111.4c0-1,0.2-1.8,0.6-2.4s1-0.9,1.8-0.9c0.3,0,0.6,0.1,0.9,0.2s0.5,0.4,0.7,0.7l0.1-0.8h1.7v6.1
			c0,0.8-0.3,1.5-0.9,2s-1.4,0.8-2.3,0.8c-0.3,0-0.7,0-1-0.1s-0.7-0.2-1-0.4l0.3-1.5c0.3,0.1,0.6,0.2,0.8,0.3s0.6,0.1,0.9,0.1
			c0.4,0,0.7-0.1,0.9-0.3s0.3-0.5,0.3-0.9V114c-0.2,0.2-0.4,0.4-0.6,0.5s-0.5,0.2-0.8,0.2c-0.8,0-1.4-0.3-1.8-0.9s-0.6-1.3-0.6-2.3
			V111.4z M106.4,111.5c0,0.5,0.1,0.9,0.2,1.2s0.4,0.4,0.8,0.4c0.2,0,0.4,0,0.6-0.1s0.3-0.2,0.4-0.3v-2.7c-0.1-0.1-0.2-0.3-0.4-0.3
			s-0.3-0.1-0.5-0.1c-0.4,0-0.6,0.2-0.8,0.5s-0.2,0.8-0.2,1.3V111.5z"/>
	</g>
	<path d="M80.2,99.9H30.6V52.5h93.4L80.2,99.9z M33.6,96.9h45.3l38.3-41.4H33.6V96.9z"/>
	<g>
		<path d="M45.7,84h-4.1V66.2h4.1V84z"/>
		<path d="M59.5,79.3c0-0.6-0.2-1.1-0.6-1.5c-0.4-0.3-1.2-0.7-2.2-1.1c-2.2-0.7-3.9-1.5-5-2.3c-1.1-0.8-1.6-2-1.6-3.5
			c0-1.5,0.6-2.7,1.9-3.6c1.3-0.9,2.9-1.4,4.9-1.4c2,0,3.6,0.5,4.8,1.5c1.3,1,1.9,2.3,1.8,3.9l0,0.1h-4c0-0.7-0.2-1.3-0.7-1.7
			c-0.5-0.4-1.1-0.7-2-0.7c-0.8,0-1.5,0.2-2,0.5c-0.5,0.4-0.7,0.8-0.7,1.4c0,0.5,0.2,0.9,0.7,1.3c0.5,0.3,1.4,0.7,2.7,1.2
			c2,0.6,3.5,1.3,4.6,2.2c1,0.9,1.5,2.1,1.5,3.6c0,1.6-0.6,2.8-1.8,3.7c-1.2,0.9-2.8,1.3-4.8,1.3c-2,0-3.8-0.5-5.2-1.5
			c-1.5-1-2.2-2.5-2.2-4.4l0-0.1h4c0,1,0.3,1.8,0.8,2.2c0.6,0.4,1.4,0.7,2.5,0.7c0.9,0,1.5-0.2,1.9-0.5
			C59.3,80.3,59.5,79.9,59.5,79.3z"/>
	</g>
</g>
</svg>
