<?xml version="1.0" encoding="utf-8"?>
<!-- Generator: Adobe Illustrator 22.0.1, SVG Export Plug-In . SVG Version: 6.00 Build 0)  -->
<svg version="1.1" xmlns="http://www.w3.org/2000/svg" xmlns:xlink="http://www.w3.org/1999/xlink" x="0px" y="0px"
	 viewBox="0 0 152.4 152.4" style="enable-background:new 0 0 152.4 152.4;" xml:space="preserve">
<style type="text/css">
	.st0{fill:#FFFFFF;}
	.st1{fill:#1E242B;stroke:#C2D52E;stroke-width:4;stroke-miterlimit:10;}
	.st2{clip-path:url(#SVGID_2_);}
	.st3{clip-path:url(#SVGID_4_);}
	.st4{fill:#231F20;}
	.st5{display:none;fill:#231F20;stroke:#FFFFFF;stroke-width:5;stroke-miterlimit:10;}
	.st6{clip-path:url(#SVGID_6_);fill:#231F20;}
	.st7{clip-path:url(#SVGID_8_);}
	.st8{clip-path:url(#SVGID_10_);fill:#231F20;}
	.st9{fill:none;}
	.st10{clip-path:url(#SVGID_12_);fill:#231F20;}
	.st11{fill:#EC1C24;}
	.st12{clip-path:url(#SVGID_16_);fill:#FFFFFF;}
	.st13{clip-path:url(#SVGID_18_);fill:#FFFFFF;}
	.st14{clip-path:url(#SVGID_20_);}
	.st15{clip-path:url(#SVGID_22_);}
	.st16{clip-path:url(#SVGID_24_);}
	.st17{clip-path:url(#SVGID_26_);}
	.st18{fill:#1E242B;}
	.st19{fill:#1E242B;stroke:#FFFFFF;stroke-miterlimit:10;}
	.st20{fill:none;stroke:#FFFFFF;stroke-width:2;stroke-miterlimit:10;}
	.st21{clip-path:url(#SVGID_30_);}
	.st22{clip-path:url(#SVGID_32_);}
	.st23{clip-path:url(#SVGID_34_);}
	.st24{clip-path:url(#SVGID_36_);}
	.st25{clip-path:url(#SVGID_38_);}
	.st26{clip-path:url(#SVGID_40_);}
	.st27{clip-path:url(#SVGID_44_);}
	.st28{clip-path:url(#SVGID_46_);}
	.st29{clip-path:url(#SVGID_48_);fill:#231F20;}
	.st30{clip-path:url(#SVGID_50_);fill:#FFFFFF;}
	.st31{clip-path:url(#SVGID_52_);}
	.st32{clip-path:url(#SVGID_54_);fill:#FFFFFF;}
	.st33{clip-path:url(#SVGID_56_);}
	.st34{clip-path:url(#SVGID_58_);}
	.st35{fill:#1E242B;stroke:#FFFFFF;stroke-width:2;stroke-miterlimit:10;}
	.st36{clip-path:url(#SVGID_60_);}
	.st37{display:none;}
	.st38{display:inline;fill:#FFFFFF;stroke:#FFFFFF;stroke-miterlimit:10;}
	.st39{clip-path:url(#SVGID_64_);}
	.st40{display:none;fill:#231F20;}
	.st41{fill-rule:evenodd;clip-rule:evenodd;fill:#231F20;}
	.st42{fill-rule:evenodd;clip-rule:evenodd;fill:#FFFFFF;}
	.st43{clip-path:url(#SVGID_68_);}
	.st44{fill:none;stroke:#000000;stroke-width:3;stroke-miterlimit:10;}
</style>
<g id="Screen_3">
</g>
<g id="Screen_4">
</g>
<g id="Screen_9">
	<path d="M80,99.9H30.4V52.5h93.4L80,99.9z M33.4,96.9h45.3L117,55.5H33.4V96.9z"/>
	<g>
		<path d="M51.2,78.5L51.2,78.5c-0.1,1.9-0.6,3.3-1.6,4.3c-1,1-2.5,1.5-4.4,1.5c-1.9,0-3.5-0.6-4.7-1.8c-1.2-1.2-1.8-2.7-1.8-4.6
			v-3.3c0-1.9,0.6-3.4,1.7-4.6c1.2-1.2,2.7-1.8,4.5-1.8c2,0,3.5,0.5,4.5,1.5c1,1,1.6,2.4,1.8,4.2l0,0.1h-3.5c-0.1-1-0.3-1.8-0.7-2.3
			c-0.4-0.5-1.1-0.7-2.1-0.7c-0.8,0-1.5,0.3-1.9,1c-0.5,0.7-0.7,1.5-0.7,2.6v3.3c0,1.1,0.3,2,0.8,2.6s1.2,1,2.1,1
			c0.9,0,1.5-0.2,1.9-0.7c0.4-0.5,0.6-1.2,0.6-2.2H51.2z"/>
		<path d="M56.8,78v6h-3.6V68.4h6c1.8,0,3.2,0.4,4.3,1.3c1.1,0.8,1.6,2,1.6,3.4c0,0.8-0.2,1.5-0.6,2.1c-0.4,0.6-1.1,1.1-1.9,1.4
			c1,0.3,1.6,0.7,2.1,1.4s0.6,1.4,0.6,2.4v1c0,0.4,0.1,0.9,0.2,1.4c0.1,0.5,0.3,0.9,0.6,1.1V84h-3.7c-0.3-0.2-0.5-0.6-0.6-1.2
			c-0.1-0.6-0.1-1.1-0.1-1.6v-0.9c0-0.7-0.2-1.3-0.6-1.7c-0.4-0.4-1-0.6-1.7-0.6H56.8z M56.8,75.2h2.4c0.7,0,1.3-0.2,1.7-0.5
			s0.6-0.8,0.6-1.4c0-0.6-0.2-1.2-0.6-1.5c-0.4-0.4-1-0.6-1.7-0.6h-2.4V75.2z"/>
		<path d="M72.4,68.4l3.5,10.9H76l3.5-10.9h4.8V84h-3.6v-3.9L81,73l-0.1,0l-3.8,11h-2.4L71,73.1l-0.1,0l0.3,7V84h-3.6V68.4H72.4z"/>
	</g>
	<g>
		<path d="M39.2,111.5L39.2,111.5c0,1-0.3,1.8-0.9,2.3s-1.4,0.8-2.4,0.8c-1.1,0-1.9-0.3-2.6-1s-1-1.5-1-2.5v-1.8c0-1,0.3-1.9,1-2.5
			s1.5-1,2.5-1c1.1,0,1.9,0.3,2.5,0.8s0.9,1.3,1,2.3l0,0h-1.9c0-0.6-0.2-1-0.4-1.2s-0.6-0.4-1.1-0.4c-0.4,0-0.8,0.2-1.1,0.5
			s-0.4,0.8-0.4,1.4v1.8c0,0.6,0.1,1.1,0.4,1.4s0.7,0.5,1.2,0.5c0.5,0,0.8-0.1,1-0.4s0.3-0.7,0.3-1.2H39.2z"/>
		<path d="M44.6,113.8c-0.2,0.3-0.5,0.5-0.7,0.6s-0.6,0.2-1,0.2c-0.7,0-1.2-0.2-1.5-0.6s-0.6-1.1-0.6-2v-3.9h2v3.9
			c0,0.4,0.1,0.6,0.2,0.8s0.3,0.3,0.6,0.3c0.2,0,0.4,0,0.6-0.1s0.3-0.1,0.4-0.3v-4.6h2v6.3h-1.7L44.6,113.8z"/>
		<path d="M51.4,112.8c0-0.2-0.1-0.3-0.3-0.4s-0.5-0.2-1-0.3c-0.7-0.1-1.3-0.4-1.7-0.7s-0.6-0.7-0.6-1.2c0-0.6,0.2-1,0.7-1.4
			s1.1-0.6,1.9-0.6c0.8,0,1.5,0.2,2,0.6s0.7,0.9,0.7,1.5l0,0h-1.9c0-0.3-0.1-0.4-0.2-0.6s-0.3-0.2-0.6-0.2c-0.2,0-0.4,0.1-0.5,0.2
			s-0.2,0.3-0.2,0.4c0,0.2,0.1,0.3,0.2,0.4s0.5,0.2,1,0.3c0.8,0.2,1.3,0.4,1.7,0.7s0.6,0.7,0.6,1.3c0,0.6-0.3,1-0.8,1.4
			s-1.2,0.6-2,0.6c-0.9,0-1.5-0.2-2-0.7s-0.7-0.9-0.7-1.5l0,0h1.8c0,0.3,0.1,0.5,0.3,0.7s0.4,0.2,0.7,0.2c0.3,0,0.5-0.1,0.6-0.2
			S51.4,112.9,51.4,112.8z"/>
		<path d="M57.2,106.6v1.6h1.1v1.4h-1.1v2.9c0,0.2,0,0.4,0.1,0.5s0.2,0.1,0.4,0.1c0.1,0,0.2,0,0.3,0s0.2,0,0.3,0l0.1,1.5
			c-0.2,0.1-0.4,0.1-0.6,0.1s-0.4,0-0.6,0c-0.7,0-1.1-0.2-1.5-0.5s-0.5-0.9-0.5-1.7v-2.9h-0.9v-1.4h0.9v-1.6H57.2z"/>
		<path d="M59.4,111.3c0-1,0.3-1.7,0.8-2.3s1.3-0.9,2.3-0.9c1,0,1.7,0.3,2.3,0.9s0.8,1.4,0.8,2.3v0.1c0,1-0.3,1.7-0.8,2.3
			s-1.3,0.9-2.3,0.9c-1,0-1.7-0.3-2.3-0.9s-0.8-1.4-0.8-2.3V111.3z M61.4,111.4c0,0.5,0.1,0.9,0.2,1.3s0.4,0.5,0.8,0.5
			c0.4,0,0.7-0.2,0.8-0.5s0.3-0.7,0.3-1.2v-0.1c0-0.5-0.1-0.9-0.3-1.2s-0.4-0.5-0.8-0.5c-0.4,0-0.7,0.2-0.8,0.5s-0.2,0.7-0.2,1.2
			V111.4z"/>
		<path d="M68.9,108.2l0.1,0.8c0.2-0.3,0.5-0.5,0.8-0.7s0.6-0.2,1-0.2c0.4,0,0.7,0.1,1,0.3s0.5,0.4,0.6,0.8c0.2-0.3,0.4-0.6,0.8-0.8
			s0.7-0.3,1.1-0.3c0.6,0,1.1,0.2,1.5,0.6s0.5,1.1,0.5,2v3.9h-2v-3.9c0-0.4-0.1-0.7-0.2-0.8s-0.3-0.2-0.6-0.2c-0.2,0-0.4,0-0.5,0.1
			s-0.3,0.2-0.4,0.3c0,0.1,0,0.1,0,0.2s0,0.1,0,0.1v4.2h-2v-3.9c0-0.4-0.1-0.7-0.2-0.8s-0.3-0.2-0.6-0.2c-0.2,0-0.3,0-0.5,0.1
			s-0.3,0.2-0.4,0.3v4.5h-2v-6.3H68.9z"/>
		<path d="M80.8,114.7c-0.9,0-1.7-0.3-2.2-0.9s-0.8-1.3-0.8-2.2v-0.2c0-1,0.3-1.8,0.8-2.4s1.2-0.9,2.2-0.9c0.9,0,1.5,0.3,2,0.8
			s0.7,1.2,0.7,2.1v1h-3.6l0,0c0,0.3,0.2,0.6,0.4,0.8s0.5,0.3,0.9,0.3c0.4,0,0.7,0,0.9-0.1s0.5-0.2,0.9-0.3l0.5,1.2
			c-0.3,0.2-0.6,0.4-1.1,0.5S81.3,114.7,80.8,114.7z M80.7,109.6c-0.3,0-0.5,0.1-0.6,0.3s-0.2,0.5-0.3,0.8l0,0h1.7v-0.2
			c0-0.3-0.1-0.6-0.2-0.7S81,109.6,80.7,109.6z"/>
		<path d="M88.5,109.9l-0.7,0c-0.2,0-0.4,0-0.6,0.1s-0.3,0.2-0.3,0.3v4.2h-2v-6.3h1.9l0.1,0.9c0.1-0.3,0.3-0.6,0.5-0.8
			s0.5-0.3,0.8-0.3c0.1,0,0.2,0,0.3,0s0.2,0,0.3,0L88.5,109.9z"/>
		<path d="M93.6,114.5V106h3.1c1,0,1.8,0.3,2.5,1s1,1.5,1,2.5v1.5c0,1-0.3,1.9-1,2.5s-1.5,1-2.5,1H93.6z M95.6,107.5v5.5h1
			c0.5,0,0.9-0.2,1.2-0.5s0.4-0.8,0.4-1.4v-1.5c0-0.6-0.1-1.1-0.4-1.4s-0.7-0.5-1.2-0.5H95.6z"/>
		<path d="M105.6,114.5c-0.1-0.1-0.1-0.2-0.1-0.3s-0.1-0.3-0.1-0.4c-0.2,0.3-0.4,0.5-0.7,0.6s-0.6,0.2-1,0.2c-0.6,0-1.1-0.2-1.5-0.5
			s-0.6-0.8-0.6-1.4c0-0.6,0.2-1.1,0.7-1.5s1.2-0.5,2.1-0.5h0.7v-0.5c0-0.3-0.1-0.5-0.2-0.6s-0.3-0.2-0.6-0.2
			c-0.2,0-0.4,0.1-0.5,0.2s-0.2,0.3-0.2,0.5l-1.9,0l0,0c0-0.6,0.2-1.1,0.7-1.5s1.2-0.6,2-0.6c0.8,0,1.4,0.2,1.9,0.6s0.7,0.9,0.7,1.7
			v2.4c0,0.3,0,0.7,0.1,0.9s0.1,0.6,0.3,0.9L105.6,114.5z M104.3,113.2c0.2,0,0.4,0,0.5-0.1s0.3-0.2,0.4-0.3v-1h-0.7
			c-0.3,0-0.5,0.1-0.7,0.2s-0.2,0.3-0.2,0.6c0,0.2,0.1,0.3,0.2,0.4S104.1,113.2,104.3,113.2z"/>
		<path d="M111.2,106.6v1.6h1.1v1.4h-1.1v2.9c0,0.2,0,0.4,0.1,0.5s0.2,0.1,0.4,0.1c0.1,0,0.2,0,0.3,0s0.2,0,0.3,0l0.1,1.5
			c-0.2,0.1-0.4,0.1-0.6,0.1s-0.4,0-0.6,0c-0.7,0-1.1-0.2-1.5-0.5s-0.5-0.9-0.5-1.7v-2.9h-0.9v-1.4h0.9v-1.6H111.2z"/>
		<path d="M117.5,114.5c-0.1-0.1-0.1-0.2-0.1-0.3s-0.1-0.3-0.1-0.4c-0.2,0.3-0.4,0.5-0.7,0.6s-0.6,0.2-1,0.2c-0.6,0-1.1-0.2-1.5-0.5
			s-0.6-0.8-0.6-1.4c0-0.6,0.2-1.1,0.7-1.5s1.2-0.5,2.1-0.5h0.7v-0.5c0-0.3-0.1-0.5-0.2-0.6s-0.3-0.2-0.6-0.2
			c-0.2,0-0.4,0.1-0.5,0.2s-0.2,0.3-0.2,0.5l-1.9,0l0,0c0-0.6,0.2-1.1,0.7-1.5s1.2-0.6,2-0.6c0.8,0,1.4,0.2,1.9,0.6s0.7,0.9,0.7,1.7
			v2.4c0,0.3,0,0.7,0.1,0.9s0.1,0.6,0.3,0.9L117.5,114.5z M116.2,113.2c0.2,0,0.4,0,0.5-0.1s0.3-0.2,0.4-0.3v-1h-0.7
			c-0.3,0-0.5,0.1-0.7,0.2s-0.2,0.3-0.2,0.6c0,0.2,0.1,0.3,0.2,0.4S116,113.2,116.2,113.2z"/>
	</g>
</g>
</svg>
