<?xml version="1.0" encoding="utf-8"?>
<!-- Generator: Adobe Illustrator 22.0.1, SVG Export Plug-In . SVG Version: 6.00 Build 0)  -->
<svg version="1.1" xmlns="http://www.w3.org/2000/svg" xmlns:xlink="http://www.w3.org/1999/xlink" x="0px" y="0px"
	 viewBox="0 0 152.4 152.4" style="enable-background:new 0 0 152.4 152.4;" xml:space="preserve">
<style type="text/css">
	.st0{fill:#FFFFFF;}
	.st1{fill:#1E242B;stroke:#C2D52E;stroke-width:4;stroke-miterlimit:10;}
	.st2{clip-path:url(#SVGID_2_);}
	.st3{clip-path:url(#SVGID_4_);}
	.st4{fill:#231F20;}
	.st5{display:none;fill:#231F20;stroke:#FFFFFF;stroke-width:5;stroke-miterlimit:10;}
	.st6{clip-path:url(#SVGID_6_);fill:#231F20;}
	.st7{clip-path:url(#SVGID_8_);}
	.st8{clip-path:url(#SVGID_10_);fill:#231F20;}
	.st9{fill:none;}
	.st10{clip-path:url(#SVGID_12_);fill:#231F20;}
	.st11{fill:#EC1C24;}
	.st12{clip-path:url(#SVGID_16_);fill:#FFFFFF;}
	.st13{clip-path:url(#SVGID_18_);fill:#FFFFFF;}
	.st14{clip-path:url(#SVGID_20_);}
	.st15{clip-path:url(#SVGID_22_);}
	.st16{clip-path:url(#SVGID_24_);}
	.st17{clip-path:url(#SVGID_26_);}
	.st18{fill:#1E242B;}
	.st19{fill:#1E242B;stroke:#FFFFFF;stroke-miterlimit:10;}
	.st20{fill:none;stroke:#FFFFFF;stroke-width:2;stroke-miterlimit:10;}
	.st21{clip-path:url(#SVGID_30_);}
	.st22{clip-path:url(#SVGID_32_);}
	.st23{clip-path:url(#SVGID_34_);}
	.st24{clip-path:url(#SVGID_36_);}
	.st25{clip-path:url(#SVGID_38_);}
	.st26{clip-path:url(#SVGID_40_);}
	.st27{clip-path:url(#SVGID_44_);}
	.st28{clip-path:url(#SVGID_46_);}
	.st29{clip-path:url(#SVGID_48_);fill:#231F20;}
	.st30{clip-path:url(#SVGID_50_);fill:#FFFFFF;}
	.st31{clip-path:url(#SVGID_52_);}
	.st32{clip-path:url(#SVGID_54_);fill:#FFFFFF;}
	.st33{clip-path:url(#SVGID_56_);}
	.st34{clip-path:url(#SVGID_58_);}
	.st35{fill:#1E242B;stroke:#FFFFFF;stroke-width:2;stroke-miterlimit:10;}
	.st36{clip-path:url(#SVGID_60_);}
	.st37{display:none;}
	.st38{display:inline;fill:#FFFFFF;stroke:#FFFFFF;stroke-miterlimit:10;}
	.st39{clip-path:url(#SVGID_64_);}
	.st40{display:none;fill:#231F20;}
	.st41{fill-rule:evenodd;clip-rule:evenodd;fill:#231F20;}
	.st42{fill-rule:evenodd;clip-rule:evenodd;fill:#FFFFFF;}
	.st43{clip-path:url(#SVGID_68_);}
	.st44{fill:none;stroke:#000000;stroke-width:3;stroke-miterlimit:10;}
</style>
<g id="Screen_3">
</g>
<g id="Screen_4">
</g>
<g id="Screen_9">
	<g>
		<polygon class="st44" points="78.2,95.2 30.8,95.2 30.8,50.8 119.3,50.8 		"/>
		<g>
			<path d="M51.1,73.3h-7v4.4h8.2v3.2H40V63.1h12.4v3.2h-8.2v3.8h7V73.3z"/>
			<path d="M59.6,74.1v6.8h-4.1V63.1h6.8c2.1,0,3.7,0.5,4.9,1.4c1.2,1,1.8,2.3,1.8,3.9c0,0.9-0.2,1.7-0.7,2.4s-1.2,1.2-2.1,1.6
				c1.1,0.3,1.9,0.8,2.4,1.5c0.5,0.7,0.7,1.6,0.7,2.7v1.1c0,0.5,0.1,1,0.2,1.6c0.1,0.6,0.4,1,0.7,1.3v0.2h-4.3
				c-0.3-0.3-0.5-0.7-0.6-1.3c-0.1-0.6-0.2-1.2-0.2-1.8v-1.1c0-0.8-0.2-1.5-0.7-1.9c-0.4-0.4-1.1-0.7-2-0.7H59.6z M59.6,70.9h2.7
				c0.8,0,1.5-0.2,1.9-0.6c0.4-0.4,0.7-0.9,0.7-1.6c0-0.7-0.2-1.3-0.7-1.8s-1.1-0.7-1.9-0.7h-2.7V70.9z"/>
			<path d="M77.4,74.8v6.1h-4.1V63.1h7.2c2.1,0,3.8,0.5,5,1.6c1.2,1.1,1.9,2.5,1.9,4.2c0,1.8-0.6,3.2-1.9,4.2
				c-1.2,1.1-2.9,1.6-5,1.6H77.4z M77.4,71.6h3.1c0.9,0,1.6-0.2,2-0.7s0.7-1.1,0.7-1.9c0-0.8-0.2-1.4-0.7-1.9s-1.2-0.8-2-0.8h-3.1
				V71.6z"/>
		</g>
	</g>
</g>
</svg>
