<svg xmlns="http://www.w3.org/2000/svg" viewBox="0 0 152.4 152.4"><title>icons</title><g id="Screen_3" data-name="Screen 3"><path d="M54.73,18.88a21,21,0,1,0,21,21A21.06,21.06,0,0,0,54.73,18.88Zm0,2.87A18.17,18.17,0,1,1,36.56,39.92,18.19,18.19,0,0,1,54.73,21.75Z"/><path d="M34,53.58,19.86,67.69A5,5,0,1,0,27,74.78L41.06,60.67a.94.94,0,0,0,0-1.35l-5.73-5.74A1,1,0,0,0,34,53.58Zm.67,2L39,60,25.6,73.43A3.1,3.1,0,0,1,21.22,69Z"/><rect x="34.82" y="53.3" width="5.41" height="1.91" transform="translate(-27.38 42.42) rotate(-45)"/><rect x="37.68" y="56.17" width="5.41" height="1.91" transform="translate(-28.57 45.29) rotate(-45)"/><rect x="33.7" y="55.94" width="1.91" height="8.11" transform="translate(-32.27 42.08) rotate(-45)"/></g><g id="Screen_9" data-name="Screen 9"><path d="M122.37,60.28h0l-2.62-2a1.69,1.69,0,0,0-2.37.31l-2.79,3.64-.13-.1a2.05,2.05,0,0,0-2.88.38l-31.5,41.07h0l-.06.1a.35.35,0,0,0,0,.08.72.72,0,0,0-.09.2l-4.12,11.86h0A1.61,1.61,0,0,0,77.27,118a1.58,1.58,0,0,0,.91-.28h0l10.39-7,.16-.14.06-.06.08-.09h0l28.35-37,.85.65L106.47,89.17a1.37,1.37,0,0,0,.26,1.91,1.34,1.34,0,0,0,.83.28,1.38,1.38,0,0,0,1.08-.54l12-15.6a2.14,2.14,0,0,0-.39-3l-1.31-1,1.49-2a2.05,2.05,0,0,0-.38-2.88l-.12-.1,2.79-3.64A1.71,1.71,0,0,0,122.37,60.28Zm-43,53.29,2.42-6.95,3.67,2.82Zm8.16-6-4.5-3.46,30.26-39.45,4.51,3.45Zm30.16-43-1-.75,2.16-2.82,1,.75Z"/><path d="M100.83,71.25H47.12a1.36,1.36,0,1,0,0,2.72h53.71a1.36,1.36,0,0,0,0-2.72Z"/><path d="M87.81,85.31H47.12a1.36,1.36,0,1,0,0,2.72H87.81a1.36,1.36,0,1,0,0-2.72Z"/><path d="M71.7,113.43H47.12a1.36,1.36,0,1,0,0,2.72H71.7a1.36,1.36,0,1,0,0-2.72Z"/><path d="M100.83,113.43h-12a1.36,1.36,0,1,0,0,2.72h12a1.36,1.36,0,0,0,0-2.72Z"/><rect x="45.92" y="99.37" width="31.13" height="2.72" rx="1.36" ry="1.36"/><rect x="70.92" y="59.7" width="31.13" height="2.72" rx="1.36" ry="1.36"/><path d="M111.06,51.4v0c0-.06,0-.12,0-.18h0A1.09,1.09,0,0,0,111,51v0l-.07-.15h0a1.19,1.19,0,0,0-.09-.15l0,0a.75.75,0,0,0-.12-.14L88.91,28.73l-.14-.12,0,0-.15-.09h0l-.15-.06,0,0-.17,0h0l-.16,0H76.8a1.36,1.36,0,0,0,.13,2.71h9.65V49.93a2.88,2.88,0,0,0,2.88,2.88h18.88v7.86a1.36,1.36,0,1,0,2.72,0V51.4Zm-21.6-1.32a.15.15,0,0,1-.15-.15V33h0l17.1,17.1Z"/><path d="M109.7,92.54a1.36,1.36,0,0,0-1.36,1.36v27.34a.11.11,0,0,1-.11.1h-68a.1.1,0,0,1-.1-.1V71.74h0V68.19a1.37,1.37,0,0,0-2.73,0v53.05a2.83,2.83,0,0,0,2.83,2.83h68a2.83,2.83,0,0,0,2.83-2.83V93.9A1.36,1.36,0,0,0,109.7,92.54Z"/></g></svg>