<?xml version="1.0" encoding="utf-8"?>
<!-- Generator: Adobe Illustrator 22.0.1, SVG Export Plug-In . SVG Version: 6.00 Build 0)  -->
<svg version="1.1" xmlns="http://www.w3.org/2000/svg" xmlns:xlink="http://www.w3.org/1999/xlink" x="0px" y="0px"
	 viewBox="0 0 152.4 152.4" style="enable-background:new 0 0 152.4 152.4;" xml:space="preserve">
<style type="text/css">
	.st0{fill:#FFFFFF;}
	.st1{fill:#1E242B;stroke:#C2D52E;stroke-width:4;stroke-miterlimit:10;}
	.st2{clip-path:url(#SVGID_2_);}
	.st3{clip-path:url(#SVGID_4_);}
	.st4{fill:#231F20;}
	.st5{display:none;fill:#231F20;stroke:#FFFFFF;stroke-width:5;stroke-miterlimit:10;}
	.st6{clip-path:url(#SVGID_6_);fill:#231F20;}
	.st7{clip-path:url(#SVGID_8_);}
	.st8{clip-path:url(#SVGID_10_);fill:#231F20;}
	.st9{fill:none;}
	.st10{clip-path:url(#SVGID_12_);fill:#231F20;}
	.st11{fill:#EC1C24;}
	.st12{clip-path:url(#SVGID_16_);fill:#FFFFFF;}
	.st13{clip-path:url(#SVGID_18_);fill:#FFFFFF;}
	.st14{clip-path:url(#SVGID_20_);}
	.st15{clip-path:url(#SVGID_22_);}
	.st16{clip-path:url(#SVGID_24_);}
	.st17{clip-path:url(#SVGID_26_);}
	.st18{fill:#1E242B;}
	.st19{fill:#1E242B;stroke:#FFFFFF;stroke-miterlimit:10;}
	.st20{fill:none;stroke:#FFFFFF;stroke-width:2;stroke-miterlimit:10;}
	.st21{clip-path:url(#SVGID_30_);}
	.st22{clip-path:url(#SVGID_32_);}
	.st23{clip-path:url(#SVGID_34_);}
	.st24{clip-path:url(#SVGID_36_);}
	.st25{clip-path:url(#SVGID_38_);}
	.st26{clip-path:url(#SVGID_40_);}
	.st27{clip-path:url(#SVGID_44_);}
	.st28{clip-path:url(#SVGID_46_);}
	.st29{clip-path:url(#SVGID_48_);fill:#231F20;}
	.st30{clip-path:url(#SVGID_50_);fill:#FFFFFF;}
	.st31{clip-path:url(#SVGID_52_);}
	.st32{clip-path:url(#SVGID_54_);fill:#FFFFFF;}
	.st33{clip-path:url(#SVGID_56_);}
	.st34{clip-path:url(#SVGID_58_);}
	.st35{fill:#1E242B;stroke:#FFFFFF;stroke-width:2;stroke-miterlimit:10;}
	.st36{clip-path:url(#SVGID_60_);}
	.st37{display:none;}
	.st38{display:inline;fill:#FFFFFF;stroke:#FFFFFF;stroke-miterlimit:10;}
	.st39{clip-path:url(#SVGID_64_);}
	.st40{display:none;fill:#231F20;}
	.st41{fill-rule:evenodd;clip-rule:evenodd;fill:#231F20;}
	.st42{fill-rule:evenodd;clip-rule:evenodd;fill:#FFFFFF;}
	.st43{clip-path:url(#SVGID_68_);}
	.st44{fill:none;stroke:#000000;stroke-width:3;stroke-miterlimit:10;}
</style>
<g id="Screen_3">
	<g>
		<g>
			<g>
				<path class="st4" d="M97,64.5c-6.3,0-9.9-3.7-13.1-7c-2.5-2.5-4.6-4.7-7.6-4.7c-2.9,0-5.1,2.2-7.5,4.7c-3.2,3.3-6.9,7-13.2,7
					c-6.3,0-9.9-3.7-13.1-7c-2.3-2.3-4.3-4.4-6.9-4.7c-0.4,0-0.7-0.3-0.7-0.7l0-2.4c0-0.4,0.4-0.8,0.8-0.8c4.2,0.3,6.9,3.1,9.6,5.9
					c2.9,3,5.7,5.8,10.4,5.8c4.7,0,7.5-2.8,10.4-5.8c2.8-2.9,5.7-5.9,10.3-5.9c4.6,0,7.6,3,10.4,5.9c2.9,3,5.7,5.8,10.4,5.8
					c4.7,0,7.5-2.8,10.4-5.8c2.7-2.7,5.4-5.5,9.5-5.8c0.4,0,0.8,0.3,0.8,0.8v2.4c0,0.4-0.3,0.7-0.7,0.7c-2.6,0.3-4.6,2.3-6.8,4.7
					C107,60.8,103.3,64.5,97,64.5z"/>
			</g>
			<g>
				<path class="st4" d="M97,84c-6.3,0-9.9-3.7-13.1-7c-2.5-2.5-4.6-4.7-7.6-4.7c-2.9,0-5.1,2.2-7.5,4.7c-3.2,3.3-6.9,7-13.2,7
					c-6.3,0-9.9-3.7-13.1-7c-2.3-2.3-4.3-4.4-6.9-4.7c-0.4,0-0.7-0.3-0.7-0.7v-2.4c0-0.4,0.4-0.8,0.8-0.8c4.2,0.3,6.9,3.1,9.6,5.9
					c2.9,3,5.7,5.8,10.4,5.8c4.7,0,7.5-2.8,10.4-5.8c2.8-2.9,5.7-5.9,10.3-5.9c4.6,0,7.6,3,10.4,5.9c2.9,3,5.7,5.8,10.4,5.8
					c4.7,0,7.5-2.8,10.4-5.8c2.7-2.7,5.4-5.5,9.5-5.8c0.4,0,0.8,0.3,0.8,0.8v2.4c0,0.4-0.3,0.7-0.7,0.7c-2.6,0.3-4.6,2.3-6.8,4.7
					C107,80.3,103.3,84,97,84z"/>
			</g>
			<g>
				<path class="st4" d="M97,103.5c-6.3,0-9.9-3.7-13.1-7c-2.5-2.5-4.6-4.7-7.6-4.7c-2.9,0-5.1,2.2-7.5,4.7c-3.2,3.3-6.9,7-13.2,7
					c-6.3,0-9.9-3.7-13.1-7c-2.3-2.3-4.3-4.4-6.9-4.7c-0.4,0-0.7-0.3-0.7-0.7v-2.4c0-0.4,0.4-0.8,0.8-0.8c4.2,0.3,6.9,3.1,9.6,5.9
					c2.9,3,5.7,5.8,10.4,5.8c4.7,0,7.5-2.8,10.4-5.8c2.8-2.9,5.7-5.9,10.3-5.9c4.6,0,7.6,3,10.4,5.9c2.9,3,5.7,5.8,10.4,5.8
					c4.7,0,7.5-2.8,10.4-5.8c2.7-2.7,5.4-5.5,9.5-5.8c0.4,0,0.8,0.3,0.8,0.8v2.4c0,0.4-0.3,0.7-0.7,0.7c-2.6,0.3-4.6,2.3-6.8,4.7
					C107,99.8,103.3,103.5,97,103.5z"/>
			</g>
		</g>
	</g>
	<g>
	</g>
</g>
<g id="Screen_4">
</g>
<g id="Screen_9">
</g>
</svg>
