<?xml version="1.0" encoding="utf-8"?>
<!-- Generator: Adobe Illustrator 22.0.1, SVG Export Plug-In . SVG Version: 6.00 Build 0)  -->
<svg version="1.1" xmlns="http://www.w3.org/2000/svg" xmlns:xlink="http://www.w3.org/1999/xlink" x="0px" y="0px"
	 viewBox="0 0 152.4 152.4" style="enable-background:new 0 0 152.4 152.4;" xml:space="preserve">
<style type="text/css">
	.st0{fill:#FFFFFF;}
	.st1{fill:#1E242B;stroke:#C2D52E;stroke-width:4;stroke-miterlimit:10;}
	.st2{clip-path:url(#SVGID_2_);}
	.st3{clip-path:url(#SVGID_4_);}
	.st4{fill:#231F20;}
	.st5{display:none;fill:#231F20;stroke:#FFFFFF;stroke-width:5;stroke-miterlimit:10;}
	.st6{clip-path:url(#SVGID_6_);fill:#231F20;}
	.st7{clip-path:url(#SVGID_8_);}
	.st8{clip-path:url(#SVGID_10_);fill:#231F20;}
	.st9{fill:none;}
	.st10{clip-path:url(#SVGID_12_);fill:#231F20;}
	.st11{fill:#EC1C24;}
	.st12{clip-path:url(#SVGID_16_);fill:#FFFFFF;}
	.st13{clip-path:url(#SVGID_18_);fill:#FFFFFF;}
	.st14{clip-path:url(#SVGID_20_);}
	.st15{clip-path:url(#SVGID_22_);}
	.st16{clip-path:url(#SVGID_24_);}
	.st17{clip-path:url(#SVGID_26_);}
	.st18{fill:#1E242B;}
	.st19{fill:#1E242B;stroke:#FFFFFF;stroke-miterlimit:10;}
	.st20{fill:none;stroke:#FFFFFF;stroke-width:2;stroke-miterlimit:10;}
	.st21{clip-path:url(#SVGID_30_);}
	.st22{clip-path:url(#SVGID_32_);}
	.st23{clip-path:url(#SVGID_34_);}
	.st24{clip-path:url(#SVGID_36_);}
	.st25{clip-path:url(#SVGID_38_);}
	.st26{clip-path:url(#SVGID_40_);}
	.st27{clip-path:url(#SVGID_44_);}
	.st28{clip-path:url(#SVGID_46_);}
	.st29{clip-path:url(#SVGID_48_);fill:#231F20;}
	.st30{clip-path:url(#SVGID_50_);fill:#FFFFFF;}
	.st31{clip-path:url(#SVGID_52_);}
	.st32{clip-path:url(#SVGID_54_);fill:#FFFFFF;}
	.st33{clip-path:url(#SVGID_56_);}
	.st34{clip-path:url(#SVGID_58_);}
	.st35{fill:#1E242B;stroke:#FFFFFF;stroke-width:2;stroke-miterlimit:10;}
	.st36{clip-path:url(#SVGID_60_);}
	.st37{display:none;}
	.st38{display:inline;fill:#FFFFFF;stroke:#FFFFFF;stroke-miterlimit:10;}
	.st39{clip-path:url(#SVGID_64_);}
	.st40{display:none;fill:#231F20;}
	.st41{fill-rule:evenodd;clip-rule:evenodd;fill:#231F20;}
	.st42{fill-rule:evenodd;clip-rule:evenodd;fill:#FFFFFF;}
	.st43{clip-path:url(#SVGID_68_);}
	.st44{fill:none;stroke:#000000;stroke-width:3;stroke-miterlimit:10;}
</style>
<g id="Screen_3">
	<g>
		<g>
			<g>
				<g>
					<path class="st4" d="M91.4,102.2c-5,0-7.8-2.9-10.3-5.5c-2-2-3.7-3.7-6-3.7c-2.3,0-4,1.7-5.9,3.7c-2.5,2.6-5.4,5.5-10.4,5.5
						c-5,0-7.8-2.9-10.3-5.5c-1.8-1.8-3.4-3.4-5.4-3.7c-0.3,0-0.6-0.3-0.6-0.6v-1.9c0-0.3,0.3-0.6,0.6-0.6c3.3,0.2,5.5,2.5,7.6,4.6
						c2.3,2.3,4.5,4.6,8.1,4.6c3.7,0,5.9-2.2,8.2-4.6c2.2-2.3,4.5-4.6,8.1-4.6c3.6,0,6,2.4,8.2,4.6c2.3,2.3,4.5,4.6,8.1,4.6
						c3.7,0,5.9-2.2,8.2-4.6c2.1-2.1,4.3-4.3,7.5-4.6c0.3,0,0.6,0.3,0.6,0.6v1.9c0,0.3-0.2,0.5-0.6,0.6c-2,0.2-3.6,1.8-5.4,3.7
						C99.3,99.3,96.5,102.2,91.4,102.2z"/>
				</g>
				<g>
					<path class="st4" d="M91.4,117.6c-5,0-7.8-2.9-10.3-5.5c-2-2-3.7-3.7-6-3.7c-2.3,0-4,1.7-5.9,3.7c-2.5,2.6-5.4,5.5-10.4,5.5
						c-5,0-7.8-2.9-10.3-5.5c-1.8-1.8-3.4-3.4-5.4-3.7c-0.3,0-0.6-0.3-0.6-0.6v-1.9c0-0.3,0.3-0.6,0.6-0.6c3.3,0.2,5.5,2.5,7.6,4.6
						c2.3,2.3,4.5,4.6,8.1,4.6c3.7,0,5.9-2.2,8.2-4.6c2.2-2.3,4.5-4.6,8.1-4.6c3.6,0,6,2.4,8.2,4.6c2.3,2.3,4.5,4.6,8.1,4.6
						c3.7,0,5.9-2.2,8.2-4.6c2.1-2.1,4.3-4.3,7.5-4.6c0.3,0,0.6,0.3,0.6,0.6v1.9c0,0.3-0.2,0.5-0.6,0.6c-2,0.2-3.6,1.8-5.4,3.7
						C99.3,114.7,96.5,117.6,91.4,117.6z"/>
				</g>
			</g>
			<path class="st4" d="M74.1,88.1c-20.6,0-31.2-4.9-34.2-7.9c-1.7-1.7-2.6-3.1-2.6-5.5c0-1.8,1.3-2.6,2.3-3.3
				c0.3-0.2,0.5-0.3,0.8-0.6c0.4-0.3,1.1-0.9,1.5-1.4c0.2-10.4,5.3-19.8,14-26.1l2.4-1.7v15.3c0,1,0.8,1.8,1.8,1.8s1.8-0.8,1.8-1.8
				v-17l0.9-0.4c1.9-0.8,3.8-1.4,5.8-1.8V37c0-2,1.7-3.7,3.7-3.7h7.9c2,0,3.7,1.7,3.7,3.7v0.9c2,0.5,4,1.1,5.9,1.9l0.9,0.4v16.9
				c0,1,0.8,1.8,1.8,1.8s1.8-0.8,1.8-1.8V41.9l2.4,1.7c8.6,6.3,13.6,15.8,13.9,26.2c1.9,1.4,2.5,1.8,2.7,2l0.3,0.3
				c0.8,0.7,1.8,1.6,1.7,3.4c-0.1,2.1-2.7,5.4-9.3,8.6c-6.9,3.3-21.6,4-29.7,4.1C75.4,88.1,74.7,88.1,74.1,88.1z M55.2,47.8
				C48.7,53.5,45,61.4,44.8,69.9l-0.1,0.4L44.6,71l-0.3,0.3c-0.1,0.1-1.3,1.3-2.1,2c-0.3,0.3-0.7,0.5-1,0.7
				c-0.7,0.4-0.9,0.6-0.9,0.8c0,1.2,0.2,1.8,1.8,3.3c0.1,0.1,7.7,7.4,34,7c6.3-0.1,21.7-0.7,28.4-3.8c6.1-2.9,7.6-5.5,7.6-6.1
				c0-0.2,0-0.3-0.7-0.9l-0.3-0.3c-0.1-0.1-0.6-0.5-3-2.2l-0.6-0.4l0-0.8c0-8.7-3.7-16.8-10.3-22.6v9.1c0,2.6-2.1,4.8-4.8,4.8
				s-4.8-2.1-4.8-4.8V42.2c-1.8-0.7-3.7-1.2-5.6-1.6l-1.2-0.2V37c0-0.4-0.3-0.7-0.7-0.7h-7.9c-0.4,0-0.7,0.3-0.7,0.7v3.3l-1.2,0.2
				c-1.9,0.3-3.7,0.9-5.5,1.5v15c0,2.6-2.1,4.8-4.8,4.8c-2.6,0-4.8-2.1-4.8-4.8V47.8z"/>
		</g>
	</g>
	<g>
	</g>
</g>
<g id="Screen_4">
</g>
<g id="Screen_9">
</g>
</svg>
