<?xml version="1.0" encoding="utf-8"?>
<!-- Generator: Adobe Illustrator 22.0.1, SVG Export Plug-In . SVG Version: 6.00 Build 0)  -->
<svg version="1.1" xmlns="http://www.w3.org/2000/svg" xmlns:xlink="http://www.w3.org/1999/xlink" x="0px" y="0px"
	 viewBox="0 0 152.4 152.4" style="enable-background:new 0 0 152.4 152.4;" xml:space="preserve">
<style type="text/css">
	.st0{fill:#FFFFFF;}
	.st1{fill:#1E242B;stroke:#C2D52E;stroke-width:4;stroke-miterlimit:10;}
	.st2{clip-path:url(#SVGID_2_);}
	.st3{clip-path:url(#SVGID_4_);}
	.st4{fill:#231F20;}
	.st5{display:none;fill:#231F20;stroke:#FFFFFF;stroke-width:5;stroke-miterlimit:10;}
	.st6{clip-path:url(#SVGID_6_);fill:#231F20;}
	.st7{clip-path:url(#SVGID_8_);}
	.st8{clip-path:url(#SVGID_10_);fill:#231F20;}
	.st9{fill:none;}
	.st10{clip-path:url(#SVGID_12_);fill:#231F20;}
	.st11{fill:#EC1C24;}
	.st12{clip-path:url(#SVGID_16_);fill:#FFFFFF;}
	.st13{clip-path:url(#SVGID_18_);fill:#FFFFFF;}
	.st14{clip-path:url(#SVGID_20_);}
	.st15{clip-path:url(#SVGID_22_);}
	.st16{clip-path:url(#SVGID_24_);}
	.st17{clip-path:url(#SVGID_26_);}
	.st18{fill:#1E242B;}
	.st19{fill:#1E242B;stroke:#FFFFFF;stroke-miterlimit:10;}
	.st20{fill:none;stroke:#FFFFFF;stroke-width:2;stroke-miterlimit:10;}
	.st21{clip-path:url(#SVGID_30_);}
	.st22{clip-path:url(#SVGID_32_);}
	.st23{clip-path:url(#SVGID_34_);}
	.st24{clip-path:url(#SVGID_36_);}
	.st25{clip-path:url(#SVGID_38_);}
	.st26{clip-path:url(#SVGID_40_);}
	.st27{clip-path:url(#SVGID_44_);}
	.st28{clip-path:url(#SVGID_46_);}
	.st29{clip-path:url(#SVGID_48_);fill:#231F20;}
	.st30{clip-path:url(#SVGID_50_);fill:#FFFFFF;}
	.st31{clip-path:url(#SVGID_52_);}
	.st32{clip-path:url(#SVGID_54_);fill:#FFFFFF;}
	.st33{clip-path:url(#SVGID_56_);}
	.st34{clip-path:url(#SVGID_58_);}
	.st35{fill:#1E242B;stroke:#FFFFFF;stroke-width:2;stroke-miterlimit:10;}
	.st36{clip-path:url(#SVGID_60_);}
	.st37{display:none;}
	.st38{display:inline;fill:#FFFFFF;stroke:#FFFFFF;stroke-miterlimit:10;}
	.st39{clip-path:url(#SVGID_64_);}
	.st40{display:none;fill:#231F20;}
	.st41{fill-rule:evenodd;clip-rule:evenodd;fill:#231F20;}
	.st42{fill-rule:evenodd;clip-rule:evenodd;fill:#FFFFFF;}
	.st43{clip-path:url(#SVGID_68_);}
	.st44{fill:none;stroke:#000000;stroke-width:3;stroke-miterlimit:10;}
</style>
<g id="Screen_3">
	<g>
	</g>
	<g>
		<g>
			<g>
				<g>
					<path class="st4" d="M57.6,94.4c-0.1,0.5-0.2,0.9-0.4,1.4c-0.3,1.3-0.7,2.6-1.2,4.2c-0.8,2.2-2.6,2.4-3.1,2.4
						c-0.9,0-1.7-0.3-2.3-0.9c-0.8-0.8-1.1-1.9-0.9-3c0.2-0.6,0.6-1.8,2.3-2.4c1.6-0.5,2.9-0.9,4.2-1.2
						C56.7,94.6,57.2,94.5,57.6,94.4 M62.6,89.4c-4.2,2.4-6.6,2.3-11.4,3.9c-4.6,1.6-5.5,7-2.5,9.9c1.2,1.2,2.7,1.7,4.2,1.7
						c2.4,0,4.8-1.4,5.7-4.2C60.3,96,60.2,93.6,62.6,89.4L62.6,89.4z"/>
				</g>
				<g>
					<path class="st4" d="M77,94.4c-0.1,0.5-0.2,0.9-0.4,1.4c-0.3,1.3-0.7,2.6-1.2,4.2c-0.8,2.2-2.6,2.4-3.1,2.4
						c-0.9,0-1.7-0.3-2.3-0.9c-0.8-0.8-1.1-1.9-0.9-3c0.2-0.6,0.6-1.8,2.3-2.4c1.6-0.5,2.9-0.9,4.2-1.2C76.1,94.6,76.6,94.5,77,94.4
						 M82,89.4c-4.2,2.4-6.6,2.3-11.4,3.9c-4.6,1.6-5.5,7-2.5,9.9c1.2,1.2,2.7,1.7,4.2,1.7c2.4,0,4.8-1.4,5.7-4.2
						C79.7,96,79.6,93.6,82,89.4L82,89.4z"/>
				</g>
				<g>
					<path class="st4" d="M96.5,94.4c-0.1,0.5-0.2,0.9-0.4,1.4c-0.3,1.3-0.7,2.6-1.2,4.2c-0.8,2.2-2.6,2.4-3.1,2.4
						c-0.9,0-1.7-0.3-2.3-0.9c-0.8-0.8-1.1-1.9-0.9-3c0.2-0.6,0.6-1.8,2.3-2.4c1.6-0.5,2.9-0.9,4.2-1.2
						C95.6,94.6,96.1,94.5,96.5,94.4 M101.5,89.4c-4.2,2.4-6.6,2.3-11.4,3.9c-4.6,1.6-5.5,7-2.5,9.9c1.2,1.2,2.7,1.7,4.2,1.7
						c2.4,0,4.8-1.4,5.7-4.2C99.2,96,99.1,93.6,101.5,89.4L101.5,89.4z"/>
				</g>
				<g>
					<path class="st4" d="M95.8,86.3H48.4c-5.4,0-9.9-4.4-9.9-9.9c0-4.2,2.7-7.9,6.6-9.3c1.8-3.7,5.1-6.3,9-7.2
						c1.2-9.4,9.2-16.5,18.8-16.5c6.7,0,12.9,3.6,16.3,9.2c2.1-0.9,4.4-1.3,6.7-1.3c9.7,0,17.5,7.9,17.5,17.5
						C113.4,78.5,105.5,86.3,95.8,86.3z M72.9,47.1c-8.2,0-14.9,6.4-15.3,14.5c0,0.9-0.7,1.6-1.6,1.7c-3.5,0.4-6.6,2.7-7.9,6
						c-0.2,0.5-0.7,1-1.3,1.1c-2.8,0.7-4.7,3.2-4.7,6c0,3.4,2.8,6.2,6.2,6.2h47.5c7.6,0,13.9-6.2,13.9-13.9s-6.2-13.9-13.9-13.9
						c-2.3,0-4.6,0.6-6.6,1.7c-0.4,0.2-1,0.3-1.5,0.1c-0.5-0.2-0.9-0.5-1.1-1C84.2,50.5,78.7,47.1,72.9,47.1z"/>
				</g>
			</g>
		</g>
	</g>
</g>
<g id="Screen_4">
</g>
<g id="Screen_9">
</g>
</svg>
