<?xml version="1.0" encoding="utf-8"?>
<!-- Generator: Adobe Illustrator 22.0.1, SVG Export Plug-In . SVG Version: 6.00 Build 0)  -->
<svg version="1.1" xmlns="http://www.w3.org/2000/svg" xmlns:xlink="http://www.w3.org/1999/xlink" x="0px" y="0px"
	 viewBox="0 0 152.4 152.4" style="enable-background:new 0 0 152.4 152.4;" xml:space="preserve">
<style type="text/css">
	.st0{fill:#FFFFFF;}
	.st1{fill:#1E242B;stroke:#C2D52E;stroke-width:4;stroke-miterlimit:10;}
	.st2{clip-path:url(#SVGID_2_);}
	.st3{clip-path:url(#SVGID_4_);}
	.st4{fill:#231F20;}
	.st5{display:none;fill:#231F20;stroke:#FFFFFF;stroke-width:5;stroke-miterlimit:10;}
	.st6{clip-path:url(#SVGID_6_);fill:#231F20;}
	.st7{clip-path:url(#SVGID_8_);}
	.st8{clip-path:url(#SVGID_10_);fill:#231F20;}
	.st9{fill:none;}
	.st10{clip-path:url(#SVGID_12_);fill:#231F20;}
	.st11{fill:#EC1C24;}
	.st12{clip-path:url(#SVGID_16_);fill:#FFFFFF;}
	.st13{clip-path:url(#SVGID_18_);fill:#FFFFFF;}
	.st14{clip-path:url(#SVGID_20_);}
	.st15{clip-path:url(#SVGID_22_);}
	.st16{clip-path:url(#SVGID_24_);}
	.st17{clip-path:url(#SVGID_26_);}
	.st18{fill:#1E242B;}
	.st19{fill:#1E242B;stroke:#FFFFFF;stroke-miterlimit:10;}
	.st20{fill:none;stroke:#FFFFFF;stroke-width:2;stroke-miterlimit:10;}
	.st21{clip-path:url(#SVGID_30_);}
	.st22{clip-path:url(#SVGID_32_);}
	.st23{clip-path:url(#SVGID_34_);}
	.st24{clip-path:url(#SVGID_36_);}
	.st25{clip-path:url(#SVGID_38_);}
	.st26{clip-path:url(#SVGID_40_);}
	.st27{clip-path:url(#SVGID_44_);}
	.st28{clip-path:url(#SVGID_46_);}
	.st29{clip-path:url(#SVGID_48_);fill:#231F20;}
	.st30{clip-path:url(#SVGID_50_);fill:#FFFFFF;}
	.st31{clip-path:url(#SVGID_52_);}
	.st32{clip-path:url(#SVGID_54_);fill:#FFFFFF;}
	.st33{clip-path:url(#SVGID_56_);}
	.st34{clip-path:url(#SVGID_58_);}
	.st35{fill:#1E242B;stroke:#FFFFFF;stroke-width:2;stroke-miterlimit:10;}
	.st36{clip-path:url(#SVGID_60_);}
	.st37{display:none;}
	.st38{display:inline;fill:#FFFFFF;stroke:#FFFFFF;stroke-miterlimit:10;}
	.st39{clip-path:url(#SVGID_64_);}
	.st40{display:none;fill:#231F20;}
	.st41{fill-rule:evenodd;clip-rule:evenodd;fill:#231F20;}
	.st42{fill-rule:evenodd;clip-rule:evenodd;fill:#FFFFFF;}
	.st43{clip-path:url(#SVGID_68_);}
	.st44{fill:none;stroke:#000000;stroke-width:3;stroke-miterlimit:10;}
</style>
<g id="Screen_3">
	<g class="st37">
		<polygon class="st38" points="119.6,56.8 84.6,83.8 74.8,105.4 99.3,99.1 132.4,72.5 		"/>
	</g>
	<g>
		<g>
			<g>
				<path class="st4" d="M44.2,82.4c0,16.2,13.2,29.4,29.4,29.4S103,98.6,103,82.4S89.8,53,73.6,53S44.2,66.2,44.2,82.4z M46.9,82.4
					c0-14.8,12-26.8,26.8-26.8s26.8,12,26.8,26.8s-12,26.8-26.8,26.8C58.9,109.1,46.9,97.1,46.9,82.4z"/>
			</g>
		</g>
		<g>
			<g>
				<path class="st4" d="M50.9,82.4c0,12.5,10.2,22.7,22.7,22.7s22.7-10.2,22.7-22.7S86.2,59.6,73.6,59.6S50.9,69.8,50.9,82.4z
					 M53.6,82.4c0-11.1,9-20.1,20.1-20.1s20.1,9,20.1,20.1s-9,20.1-20.1,20.1S53.6,93.4,53.6,82.4z"/>
			</g>
		</g>
		<g>
			<path class="st4" d="M59.9,46l7.4-0.7v5.3h2.1v-3.8l1.6,0.9c0.9,0.5,1.9,0.8,2.9,0.8c1.1,0,2.3-0.3,3.3-1l1.6-1v4.1H81v-5.3
				l6.6,0.7c3.6,0,6.5-2.8,6.5-6.4c0-3.5-2.8-6.3-6.3-6.4L74,35l-13.8-1.7c-3.7,0-6.6,2.8-6.6,6.4C53.6,43.1,56.4,46,59.9,46z
				 M87.8,35.4L87.8,35.4c2.2,0,4,2,4,4.3c0,2.3-1.9,4.2-4.2,4.2l-0.1,0l-7.4-0.8l0-0.9c-0.1-1.5-0.6-2.9-1.6-3.9L77,36.8L87.8,35.4
				z M74,38.4c2.2,0,4,1.8,4,4c0,2.2-1.8,4-4,4c-2.2,0-4-1.8-4-4c0-1.1,0.4-2.1,1.2-2.8C71.9,38.8,72.9,38.4,74,38.4z M59.9,35.4
				L59.9,35.4l11,1.4l-1.4,1.5c-1,1.1-1.6,2.5-1.6,3.9l0,0.9l-8,0.7c-2.3,0-4.1-2-4.1-4.3C55.7,37.3,57.6,35.4,59.9,35.4z"/>
		</g>
		<g>
			<g>
				<path class="st4" d="M106.4,119.6c-2.6,0-5.1-1.3-6.5-3.6c-1.4-2.3-1.5-5-0.3-7.6c0.8-1.6,1.5-2.9,2.2-4c1.2-2,2.1-3.6,2.8-6.3
					l1.7-6.3l1.7,6.3c0.7,2.7,1.7,4.3,2.8,6.3c0.7,1.1,1.4,2.4,2.2,4c1.2,2.5,1.1,5.3-0.3,7.6C111.5,118.3,109.1,119.6,106.4,119.6z
					 M106.4,99.4c-0.8,2.6-1.7,4.1-2.8,6.1c-0.6,1.1-1.4,2.3-2.1,3.9c-0.9,1.9-0.9,4,0.2,5.7c1,1.7,2.8,2.7,4.8,2.7
					c2,0,3.7-1,4.8-2.7c1.1-1.7,1.1-3.7,0.2-5.7c-0.8-1.6-1.5-2.8-2.1-3.9C108.1,103.5,107.2,102,106.4,99.4z"/>
			</g>
		</g>
		<g>
			<rect x="60.4" y="78.1" class="st4" width="6.2" height="8.5"/>
			<rect x="70.5" y="78.1" class="st4" width="6.2" height="8.5"/>
			<rect x="80.7" y="78.1" class="st4" width="6.2" height="8.5"/>
		</g>
	</g>
</g>
<g id="Screen_4">
</g>
<g id="Screen_9">
</g>
</svg>
