<?xml version="1.0" encoding="utf-8"?>
<!-- Generator: Adobe Illustrator 22.0.1, SVG Export Plug-In . SVG Version: 6.00 Build 0)  -->
<svg version="1.1" xmlns="http://www.w3.org/2000/svg" xmlns:xlink="http://www.w3.org/1999/xlink" x="0px" y="0px"
	 viewBox="0 0 152.4 152.4" style="enable-background:new 0 0 152.4 152.4;" xml:space="preserve">
<style type="text/css">
	.st0{fill:#FFFFFF;}
	.st1{fill:#1E242B;stroke:#C2D52E;stroke-width:4;stroke-miterlimit:10;}
	.st2{clip-path:url(#SVGID_2_);}
	.st3{clip-path:url(#SVGID_4_);}
	.st4{fill:#231F20;}
	.st5{display:none;fill:#231F20;stroke:#FFFFFF;stroke-width:5;stroke-miterlimit:10;}
	.st6{clip-path:url(#SVGID_6_);fill:#231F20;}
	.st7{clip-path:url(#SVGID_8_);}
	.st8{clip-path:url(#SVGID_10_);fill:#231F20;}
	.st9{fill:none;}
	.st10{clip-path:url(#SVGID_12_);fill:#231F20;}
	.st11{fill:#EC1C24;}
	.st12{clip-path:url(#SVGID_16_);fill:#FFFFFF;}
	.st13{clip-path:url(#SVGID_18_);fill:#FFFFFF;}
	.st14{clip-path:url(#SVGID_20_);}
	.st15{clip-path:url(#SVGID_22_);}
	.st16{clip-path:url(#SVGID_24_);}
	.st17{clip-path:url(#SVGID_26_);}
	.st18{fill:#1E242B;}
	.st19{fill:#1E242B;stroke:#FFFFFF;stroke-miterlimit:10;}
	.st20{fill:none;stroke:#FFFFFF;stroke-width:2;stroke-miterlimit:10;}
	.st21{clip-path:url(#SVGID_30_);}
	.st22{clip-path:url(#SVGID_32_);}
	.st23{clip-path:url(#SVGID_34_);}
	.st24{clip-path:url(#SVGID_36_);}
	.st25{clip-path:url(#SVGID_38_);}
	.st26{clip-path:url(#SVGID_40_);}
	.st27{clip-path:url(#SVGID_44_);}
	.st28{clip-path:url(#SVGID_46_);}
	.st29{clip-path:url(#SVGID_48_);fill:#231F20;}
	.st30{clip-path:url(#SVGID_50_);fill:#FFFFFF;}
	.st31{clip-path:url(#SVGID_52_);}
	.st32{clip-path:url(#SVGID_54_);fill:#FFFFFF;}
	.st33{clip-path:url(#SVGID_56_);}
	.st34{clip-path:url(#SVGID_58_);}
	.st35{fill:#1E242B;stroke:#FFFFFF;stroke-width:2;stroke-miterlimit:10;}
	.st36{clip-path:url(#SVGID_60_);}
	.st37{display:none;}
	.st38{display:inline;fill:#FFFFFF;stroke:#FFFFFF;stroke-miterlimit:10;}
	.st39{clip-path:url(#SVGID_64_);}
	.st40{display:none;fill:#231F20;}
	.st41{fill-rule:evenodd;clip-rule:evenodd;fill:#231F20;}
	.st42{fill-rule:evenodd;clip-rule:evenodd;fill:#FFFFFF;}
	.st43{clip-path:url(#SVGID_68_);}
	.st44{fill:none;stroke:#000000;stroke-width:3;stroke-miterlimit:10;}
</style>
<g id="Screen_3">
	<g class="st37">
		<polygon class="st38" points="119.6,56.8 84.6,83.8 74.8,105.4 99.3,99.1 132.4,72.5 		"/>
	</g>
	<g>
		<path class="st4" d="M92,120.4H60.8c-1.3,0-2.5-0.6-3.3-1.7c-0.8-1.1-1-2.4-0.6-3.7l15.6-49.8c0.6-1.8,2.1-2.9,4-2.9
			c1.8,0,3.4,1.1,4,2.9l15.6,49.8c0.4,1.3,0.2,2.6-0.6,3.7C94.5,119.8,93.3,120.4,92,120.4z M76.4,64.9c-0.6,0-1.3,0.3-1.5,1.1
			l-15.6,49.8c-0.2,0.5-0.1,1,0.2,1.4s0.8,0.6,1.3,0.6H92c0.5,0,1-0.2,1.3-0.6s0.4-0.9,0.2-1.4L77.9,66
			C77.6,65.2,76.9,64.9,76.4,64.9z"/>
		<path class="st4" d="M65.5,63.4c-0.3,0-0.6-0.1-0.9-0.4c-1.6-1.6-4.7-5.8-4.7-10.7c0-4.9,2.5-9.2,4.2-10.9c0.5-0.5,1.3-0.5,1.8,0
			c0.5,0.5,0.5,1.3,0,1.8c-1.3,1.3-3.5,5-3.5,9.1c0,4.1,2.8,7.8,3.9,8.8c0.5,0.5,0.5,1.3,0,1.8C66.2,63.3,65.9,63.4,65.5,63.4z"/>
		<path class="st4" d="M56.4,70.7l0.9-0.9L56.4,70.7c-5.4-5.2-8.3-12.2-8.3-19.6c0-10.7,7.8-18.6,7.9-18.7c0.5-0.5,1.3-0.5,1.8,0
			c0.5,0.5,0.5,1.3,0,1.8c-0.1,0.1-7.2,7.3-7.2,16.9c0,6.8,2.7,13.1,7.5,17.8L56.4,70.7z"/>
		<path class="st4" d="M86.9,63.4c-0.3,0-0.7-0.1-0.9-0.4c-0.5-0.5-0.5-1.3,0-1.8c1.1-1.1,3.9-4.7,3.9-8.8c0-4.1-2.1-7.8-3.5-9.1
			c-0.5-0.5-0.5-1.3,0-1.8c0.5-0.5,1.3-0.5,1.8,0c1.7,1.7,4.2,6,4.2,10.9c0,4.8-3.1,9.1-4.7,10.7C87.5,63.3,87.2,63.4,86.9,63.4z"/>
		<path class="st4" d="M95.1,71c-0.3,0-0.7-0.1-0.9-0.4c-0.5-0.5-0.5-1.3,0-1.8c0,0,0,0,0,0c4.9-4.7,7.5-11,7.5-17.8
			c0-9.7-7.1-16.8-7.2-16.9c-0.5-0.5-0.5-1.3,0-1.8c0.5-0.5,1.3-0.5,1.8,0c0.1,0.1,7.9,8,7.9,18.7c0,7.5-3,14.4-8.3,19.6
			C95.7,70.9,95.4,71,95.1,71z"/>
		<circle class="st41" cx="76.2" cy="51.7" r="5"/>
	</g>
</g>
<g id="Screen_4">
</g>
<g id="Screen_9">
</g>
</svg>
