<svg id="Screen_3" data-name="Screen 3" xmlns="http://www.w3.org/2000/svg" viewBox="0 0 152.4 152.4"><title>icons</title><path d="M85,74.2H75.8a5.15,5.15,0,0,0-3.68-3.68v-13a1.29,1.29,0,1,0-2.57,0v13a5.14,5.14,0,1,0,6.25,6.25H85a1.29,1.29,0,1,0,0-2.57ZM70.84,78.06a2.58,2.58,0,1,1,2.57-2.58A2.59,2.59,0,0,1,70.84,78.06Z"/><path d="M94,49.62a34.66,34.66,0,0,0-46.31,0l-1.85,1.79a34.68,34.68,0,0,0,7.41,54l-3.9,3.9a1.29,1.29,0,1,0,1.82,1.82l4.44-4.44a34.51,34.51,0,0,0,21.56,2.94V107a32.15,32.15,0,1,1,25.2-25.14,7.54,7.54,0,0,1,2.13,2.22,34.69,34.69,0,0,0-8.65-32.68C95.7,51.19,94,49.62,94,49.62Z"/><path d="M72.13,101.21a1.29,1.29,0,0,0-2.58,0v1.22a26.57,26.57,0,0,1-11.08-3l.62-1.06a1.29,1.29,0,0,0-2.23-1.29l-.61,1.06a27.12,27.12,0,0,1-8.11-8.1l1.06-.62a1.29,1.29,0,1,0-1.29-2.23l-1.06.62a26.72,26.72,0,0,1-3-11.08h1.22a1.29,1.29,0,1,0,0-2.57H43.89a26.68,26.68,0,0,1,3-11.08l1.06.61a1.28,1.28,0,1,0,1.29-2.22l-1.06-.62a27.12,27.12,0,0,1,8.1-8.11l.62,1.06a1.29,1.29,0,0,0,2.23-1.28l-.62-1.07a26.87,26.87,0,0,1,11.08-3v1.22a1.29,1.29,0,1,0,2.57,0V48.53a26.87,26.87,0,0,1,11.08,3l-.61,1.07a1.27,1.27,0,0,0,.47,1.75,1.24,1.24,0,0,0,.64.18,1.29,1.29,0,0,0,1.11-.65l.62-1.06a27.15,27.15,0,0,1,8.11,8.11l-1.07.61a1.29,1.29,0,0,0,.65,2.4,1.23,1.23,0,0,0,.64-.17l1.07-.62a26.91,26.91,0,0,1,3,11.08H96.57a1.29,1.29,0,0,0,0,2.58h1.22a28,28,0,0,1-.32,2.9,18.45,18.45,0,0,1,2.51.86,28.92,28.92,0,0,0,.45-5,29.39,29.39,0,0,0-3.94-14.72.64.64,0,0,0,0-.07l0-.06A29.83,29.83,0,0,0,85.69,49.9l-.06,0s0,0-.07,0a29.49,29.49,0,0,0-29.45,0l-.07,0,0,0A29.83,29.83,0,0,0,45.26,60.63l0,.06a.64.64,0,0,0,0,.07,29.49,29.49,0,0,0,0,29.45.64.64,0,0,1,0,.07l.07.08A29.69,29.69,0,0,0,56,101.06s0,0,0,0l.11,0a29.36,29.36,0,0,0,14.69,3.92,29.92,29.92,0,0,0,6.32-.69v-2.67a26.87,26.87,0,0,1-5,.72Z"/><path d="M120.86,96.51v-1.2c0-3-5.46-5.53-12.19-5.53a26.49,26.49,0,0,0-3.4.22v11.82a24.8,24.8,0,0,0,3.4.22C115.4,102,120.86,99.57,120.86,96.51Z"/><path d="M120.86,102.69v-1.2a2.86,2.86,0,0,0-.25-1.14c-1.16,2.52-6.06,4.4-11.94,4.4a26.49,26.49,0,0,1-3.4-.22V108a26.49,26.49,0,0,0,3.4.22C115.4,108.22,120.86,105.74,120.86,102.69Z"/><path d="M105.27,112.18a4.37,4.37,0,0,1-.45,1.93,26.21,26.21,0,0,0,3.85.28c6.73,0,12.19-2.48,12.19-5.53v-1.2a2.77,2.77,0,0,0-.25-1.13c-1.16,2.51-6.06,4.4-11.94,4.4a26.49,26.49,0,0,1-3.4-.22v1.47Z"/><path d="M78.9,86v1.2c0,3,5.46,5.53,12.19,5.53s12.19-2.48,12.19-5.53V86c0-3.06-5.46-5.53-12.19-5.53S78.9,82.89,78.9,86Z"/><path d="M79.15,91a2.77,2.77,0,0,0-.25,1.13v1.2c0,3.05,5.46,5.53,12.19,5.53s12.19-2.48,12.19-5.53v-1.2A2.77,2.77,0,0,0,103,91c-1.16,2.51-6.06,4.4-11.94,4.4S80.31,93.5,79.15,91Z"/><path d="M79.15,97.16a2.86,2.86,0,0,0-.25,1.14v1.19c0,3.06,5.46,5.53,12.19,5.53s12.19-2.47,12.19-5.53V98.3a2.86,2.86,0,0,0-.25-1.14c-1.16,2.51-6.06,4.4-11.94,4.4S80.31,99.67,79.15,97.16Z"/><path d="M79.15,103.67a2.81,2.81,0,0,0-.25,1.13V106c0,3.06,5.46,5.53,12.19,5.53s12.19-2.47,12.19-5.53v-1.2a2.81,2.81,0,0,0-.25-1.13c-1.16,2.51-6.06,4.4-11.94,4.4S80.31,106.18,79.15,103.67Z"/><path d="M79.15,109.84A2.86,2.86,0,0,0,78.9,111v1.2c0,3,5.46,5.53,12.19,5.53s12.19-2.48,12.19-5.53V111a2.86,2.86,0,0,0-.25-1.14c-1.16,2.51-6.06,4.4-11.94,4.4S80.31,112.35,79.15,109.84Z"/></svg>