<?xml version="1.0" encoding="utf-8"?>
<!-- Generator: Adobe Illustrator 22.0.1, SVG Export Plug-In . SVG Version: 6.00 Build 0)  -->
<svg version="1.1" xmlns="http://www.w3.org/2000/svg" xmlns:xlink="http://www.w3.org/1999/xlink" x="0px" y="0px"
	 viewBox="0 0 35.3 35.3" style="enable-background:new 0 0 35.3 35.3;" xml:space="preserve">
<style type="text/css">
	.st0{fill:#FFFFFF;}
	.st1{fill:#1E242B;stroke:#C2D52E;stroke-width:4;stroke-miterlimit:10;}
	.st2{clip-path:url(#SVGID_2_);}
	.st3{clip-path:url(#SVGID_4_);}
	.st4{fill:#231F20;}
	.st5{display:none;fill:#231F20;stroke:#FFFFFF;stroke-width:5;stroke-miterlimit:10;}
	.st6{clip-path:url(#SVGID_6_);fill:#231F20;}
	.st7{clip-path:url(#SVGID_8_);}
	.st8{clip-path:url(#SVGID_10_);fill:#231F20;}
	.st9{fill:none;}
	.st10{clip-path:url(#SVGID_12_);fill:#231F20;}
	.st11{fill:#EC1C24;}
	.st12{clip-path:url(#SVGID_16_);fill:#FFFFFF;}
	.st13{clip-path:url(#SVGID_18_);fill:#FFFFFF;}
	.st14{clip-path:url(#SVGID_20_);}
	.st15{clip-path:url(#SVGID_22_);}
	.st16{clip-path:url(#SVGID_24_);}
	.st17{clip-path:url(#SVGID_26_);}
	.st18{fill:#1E242B;}
	.st19{fill:#1E242B;stroke:#FFFFFF;stroke-miterlimit:10;}
	.st20{fill:none;stroke:#FFFFFF;stroke-width:2;stroke-miterlimit:10;}
	.st21{clip-path:url(#SVGID_30_);}
	.st22{clip-path:url(#SVGID_32_);}
	.st23{clip-path:url(#SVGID_34_);}
	.st24{clip-path:url(#SVGID_36_);}
	.st25{clip-path:url(#SVGID_38_);}
	.st26{clip-path:url(#SVGID_40_);}
	.st27{clip-path:url(#SVGID_44_);}
	.st28{clip-path:url(#SVGID_46_);}
	.st29{clip-path:url(#SVGID_48_);fill:#231F20;}
	.st30{clip-path:url(#SVGID_50_);fill:#FFFFFF;}
	.st31{clip-path:url(#SVGID_52_);}
	.st32{clip-path:url(#SVGID_54_);fill:#FFFFFF;}
	.st33{clip-path:url(#SVGID_56_);}
	.st34{clip-path:url(#SVGID_58_);}
	.st35{fill:#1E242B;stroke:#FFFFFF;stroke-width:2;stroke-miterlimit:10;}
	.st36{clip-path:url(#SVGID_60_);}
	.st37{display:none;}
	.st38{display:inline;fill:#FFFFFF;stroke:#FFFFFF;stroke-miterlimit:10;}
	.st39{clip-path:url(#SVGID_64_);}
	.st40{display:none;fill:#231F20;}
	.st41{fill-rule:evenodd;clip-rule:evenodd;fill:#231F20;}
	.st42{fill-rule:evenodd;clip-rule:evenodd;fill:#FFFFFF;}
	.st43{clip-path:url(#SVGID_68_);}
	.st44{fill:none;stroke:#000000;stroke-width:3;stroke-miterlimit:10;}
</style>
<g id="Screen_3">
	<g>
		<path d="M34.9,14.6c0-0.3-0.2-0.5-0.4-0.7c-0.2-0.2-0.5-0.2-0.8-0.1c-0.6,0.2-1.2,0.1-1.8-0.1c-1.5-0.6-2.3-2.3-1.7-3.9
			c0.2-0.6,0.6-1.1,1.2-1.4c0.2-0.1,0.4-0.4,0.4-0.7c0-0.3,0-0.5-0.2-0.8c-1.1-1.4-2.4-2.7-3.8-3.7c-0.2-0.2-0.5-0.2-0.8-0.2
			c-0.3,0.1-0.5,0.2-0.6,0.5C26,4,25.5,4.5,25,4.7C24.6,4.9,24.2,5,23.7,5c-1.2,0-2.3-0.7-2.7-1.8c-0.3-0.6-0.3-1.2-0.2-1.8
			c0.1-0.3,0-0.5-0.2-0.8c-0.2-0.2-0.4-0.4-0.7-0.4c-1.8-0.2-3.6-0.2-5.3,0.1c-0.3,0-0.5,0.2-0.7,0.4c-0.2,0.2-0.2,0.5-0.1,0.8
			c0.1,0.6,0.1,1.2-0.1,1.8c-0.4,1.2-1.6,1.9-2.8,1.9c-0.4,0-0.7-0.1-1.1-0.2C9.3,4.7,8.8,4.3,8.4,3.8C8.3,3.6,8,3.4,7.8,3.4
			c-0.3,0-0.5,0-0.8,0.2C5.6,4.6,4.3,5.9,3.3,7.4C3.1,7.6,3,7.9,3.1,8.2c0.1,0.3,0.2,0.5,0.5,0.6c0.5,0.3,0.9,0.8,1.2,1.3
			c0.3,0.7,0.3,1.5,0.1,2.3c-0.3,0.7-0.8,1.3-1.6,1.7c-0.6,0.3-1.2,0.3-1.9,0.2c-0.3-0.1-0.5,0-0.8,0.2c-0.2,0.2-0.4,0.4-0.4,0.7
			c-0.3,1.8-0.2,3.6,0.1,5.4c0,0.3,0.2,0.5,0.4,0.7c0.2,0.2,0.5,0.2,0.8,0.1c0.6-0.2,1.3-0.1,1.8,0.1C4,21.7,4.6,22.2,5,23
			c0.3,0.7,0.3,1.5,0.1,2.3c-0.2,0.6-0.7,1.1-1.2,1.5c-0.2,0.1-0.4,0.4-0.4,0.7c-0.1,0.3,0,0.6,0.2,0.8c1.1,1.5,2.4,2.7,3.9,3.8
			c0.2,0.2,0.5,0.2,0.8,0.2c0.3-0.1,0.5-0.2,0.6-0.5c0.3-0.6,0.8-1,1.4-1.2c0.4-0.2,0.8-0.3,1.2-0.3c1.2,0,2.3,0.7,2.7,1.8
			c0.3,0.6,0.3,1.3,0.2,1.9c-0.1,0.3,0,0.6,0.1,0.8c0.2,0.2,0.4,0.4,0.7,0.4c0.8,0.1,1.6,0.2,2.4,0.2c1,0,2-0.1,3-0.3
			c0.3,0,0.5-0.2,0.7-0.4c0.1-0.2,0.2-0.5,0.1-0.8c-0.2-0.6-0.1-1.3,0.1-1.8c0.4-1.2,1.6-1.9,2.8-1.9c0.4,0,0.7,0.1,1.1,0.2
			c0.6,0.2,1.1,0.7,1.5,1.2c0.1,0.2,0.4,0.4,0.7,0.4c0.3,0.1,0.6,0,0.8-0.2c1.4-1.1,2.7-2.4,3.7-3.9c0.2-0.2,0.2-0.5,0.2-0.8
			c-0.1-0.3-0.2-0.5-0.5-0.6c-0.5-0.3-1-0.8-1.2-1.4c-0.7-1.5,0-3.3,1.5-4c0.6-0.3,1.2-0.3,1.9-0.2c0.3,0.1,0.5,0,0.8-0.2
			c0.2-0.2,0.4-0.4,0.4-0.7C35.2,18.1,35.2,16.3,34.9,14.6L34.9,14.6z M33.1,18.7c-0.7,0-1.4,0.1-2,0.4c-2.5,1.1-3.6,4.1-2.5,6.6
			c0.3,0.6,0.7,1.2,1.1,1.6c-0.6,0.8-1.3,1.4-2,2.1c-0.5-0.5-1.1-0.9-1.7-1.1c-0.6-0.2-1.2-0.3-1.8-0.3c-2,0-3.9,1.3-4.6,3.2
			c-0.2,0.6-0.4,1.3-0.3,2c-1,0.1-1.9,0.1-2.9,0c0-0.7-0.1-1.4-0.4-2.1c-0.8-1.8-2.6-3-4.5-3c-0.7,0-1.4,0.1-2,0.4
			c-0.6,0.3-1.2,0.7-1.6,1.2c-0.8-0.6-1.4-1.3-2.1-2c0.5-0.5,0.9-1.1,1.1-1.7c0.5-1.2,0.4-2.6-0.1-3.8C6.2,20.9,5.2,20,4,19.5
			c-0.6-0.2-1.3-0.4-1.9-0.3c-0.1-1-0.1-1.9,0-2.9h0c0.7,0,1.4-0.1,2-0.4c1.2-0.5,2.1-1.5,2.6-2.8c0.5-1.2,0.4-2.6-0.1-3.8
			C6.3,8.7,5.9,8.2,5.4,7.8C6,7,6.7,6.3,7.4,5.7c0.5,0.5,1.1,0.9,1.7,1.1c0.6,0.2,1.2,0.3,1.8,0.3c2,0,3.9-1.3,4.6-3.2
			c0.2-0.6,0.3-1.2,0.3-1.9c1-0.1,1.9-0.1,2.9,0c0,0.7,0.2,1.3,0.4,2c0.8,1.8,2.6,3,4.5,3c0.7,0,1.4-0.1,2-0.4
			c0.6-0.3,1.1-0.6,1.6-1.1c0.8,0.6,1.4,1.3,2.1,2c-0.5,0.5-0.8,1.1-1.1,1.7c-1,2.6,0.3,5.4,2.9,6.4c0.6,0.2,1.3,0.3,1.9,0.3
			C33.2,16.8,33.2,17.8,33.1,18.7L33.1,18.7z M33.1,18.7"/>
		<g>
			<defs>
				<rect id="SVGID_13_" x="0" y="0" width="35.3" height="35.3"/>
			</defs>
			<clipPath id="SVGID_2_">
				<use xlink:href="#SVGID_13_"  style="overflow:visible;"/>
			</clipPath>
		</g>
		<path d="M17.6,10c-1.1,0-2.1,0.2-3.1,0.7c-3.8,1.7-5.5,6.2-3.8,10c1.2,2.7,3.9,4.5,6.9,4.5c1.1,0,2.1-0.2,3.1-0.7
			c3.8-1.7,5.5-6.2,3.8-10C23.3,11.8,20.6,10,17.6,10L17.6,10z M19.8,22.7c-0.7,0.3-1.5,0.5-2.3,0.5c-2.2,0-4.2-1.3-5.1-3.3
			c-1.3-2.8,0-6.1,2.8-7.4c0.7-0.3,1.5-0.5,2.3-0.5c2.2,0,4.2,1.3,5.1,3.3C23.9,18.1,22.7,21.4,19.8,22.7L19.8,22.7z M19.8,22.7"/>
	</g>
</g>
<g id="Screen_4">
</g>
<g id="Screen_9">
</g>
</svg>
