<?xml version="1.0" encoding="utf-8"?>
<!-- Generator: Adobe Illustrator 22.0.1, SVG Export Plug-In . SVG Version: 6.00 Build 0)  -->
<svg version="1.1" xmlns="http://www.w3.org/2000/svg" xmlns:xlink="http://www.w3.org/1999/xlink" x="0px" y="0px"
	 viewBox="0 0 152.4 152.4" style="enable-background:new 0 0 152.4 152.4;" xml:space="preserve">
<style type="text/css">
	.st0{fill:#FFFFFF;}
	.st1{fill:#1E242B;stroke:#C2D52E;stroke-width:4;stroke-miterlimit:10;}
	.st2{clip-path:url(#SVGID_2_);}
	.st3{clip-path:url(#SVGID_4_);}
	.st4{fill:#231F20;}
	.st5{display:none;fill:#231F20;stroke:#FFFFFF;stroke-width:5;stroke-miterlimit:10;}
	.st6{clip-path:url(#SVGID_6_);fill:#231F20;}
	.st7{clip-path:url(#SVGID_8_);}
	.st8{clip-path:url(#SVGID_10_);fill:#231F20;}
	.st9{fill:none;}
	.st10{clip-path:url(#SVGID_12_);fill:#231F20;}
	.st11{fill:#EC1C24;}
	.st12{clip-path:url(#SVGID_16_);fill:#FFFFFF;}
	.st13{clip-path:url(#SVGID_18_);fill:#FFFFFF;}
	.st14{clip-path:url(#SVGID_20_);}
	.st15{clip-path:url(#SVGID_22_);}
	.st16{clip-path:url(#SVGID_24_);}
	.st17{clip-path:url(#SVGID_26_);}
	.st18{fill:#1E242B;}
	.st19{fill:#1E242B;stroke:#FFFFFF;stroke-miterlimit:10;}
	.st20{fill:none;stroke:#FFFFFF;stroke-width:2;stroke-miterlimit:10;}
	.st21{clip-path:url(#SVGID_30_);}
	.st22{clip-path:url(#SVGID_32_);}
	.st23{clip-path:url(#SVGID_34_);}
	.st24{clip-path:url(#SVGID_36_);}
	.st25{clip-path:url(#SVGID_38_);}
	.st26{clip-path:url(#SVGID_40_);}
	.st27{clip-path:url(#SVGID_44_);}
	.st28{clip-path:url(#SVGID_46_);}
	.st29{clip-path:url(#SVGID_48_);fill:#231F20;}
	.st30{clip-path:url(#SVGID_50_);fill:#FFFFFF;}
	.st31{clip-path:url(#SVGID_52_);}
	.st32{clip-path:url(#SVGID_54_);fill:#FFFFFF;}
	.st33{clip-path:url(#SVGID_56_);}
	.st34{clip-path:url(#SVGID_58_);}
	.st35{fill:#1E242B;stroke:#FFFFFF;stroke-width:2;stroke-miterlimit:10;}
	.st36{clip-path:url(#SVGID_60_);}
	.st37{display:none;}
	.st38{display:inline;fill:#FFFFFF;stroke:#FFFFFF;stroke-miterlimit:10;}
	.st39{clip-path:url(#SVGID_64_);}
	.st40{display:none;fill:#231F20;}
	.st41{fill-rule:evenodd;clip-rule:evenodd;fill:#231F20;}
	.st42{fill-rule:evenodd;clip-rule:evenodd;fill:#FFFFFF;}
	.st43{clip-path:url(#SVGID_68_);}
	.st44{fill:none;stroke:#000000;stroke-width:3;stroke-miterlimit:10;}
</style>
<g id="Screen_3">
	<g>
	</g>
	<g>
		<path class="st4" d="M89.3,107.5c-0.5-0.2-0.8-0.7-0.8-1.2v-5.7c0-5.9-4.5-8-8.4-8.1H47.2c-0.7,0-1.3-0.6-1.3-1.3
			c0-0.7,0.6-1.3,1.3-1.3h32.8l0.2,0c0.2,0,4.9,0,8.1,3.2c1.9,1.9,2.8,4.4,2.8,7.5v4.8l0.9,0.3c1.4,0.5,3.6,1,6.2,1c2,0,4-0.3,5.8-1
			l0.9-0.3v-4.8c0-8.9-2.3-15.6-6.8-19.8c-4.8-4.4-10.7-4.9-13-4.9c-0.4,0-0.7,0-0.7,0h-6.7c-0.7,0-1.3-0.6-1.3-1.3V59.7l-2,1.3
			c-1.2,0.8-2.7,1.2-4.1,1.2c-1.3,0-2.6-0.3-3.7-1l-2-1.1v14.4c0,0.7-0.6,1.3-1.3,1.3H47.2c-0.7,0-1.3-0.6-1.3-1.3
			c0-0.7,0.6-1.3,1.3-1.3H62v-15L52.6,59c-4.4,0-8-3.6-8-8c0-4.5,3.6-8,8.3-8l17.4,2.2L87.6,43c4.4,0,7.9,3.6,7.9,8
			c0,4.5-3.6,8-8.2,8l-8.3-0.8v15l5.3,0c0.1,0,0.4,0,0.9,0c2.6,0,9.3,0.5,14.7,5.6c5.1,4.8,7.8,12.1,7.8,21.9v5.7
			c0,0.5-0.3,1-0.8,1.2c-2.6,1.2-5.5,1.9-8.6,1.9C93.2,109.4,89.4,107.5,89.3,107.5z M66.8,51c-0.9,0.9-1.5,2.2-1.5,3.5
			c0,2.8,2.3,5,5,5c2.8,0,5-2.2,5-5c0-2.8-2.2-5-5-5C69,49.5,67.7,50,66.8,51z M52.7,45.7L52.7,45.7c-3,0-5.4,2.4-5.4,5.4
			c0,2.9,2.3,5.3,5.2,5.4l10.1-0.9l0-1.2c0.1-1.8,0.8-3.6,2-5l1.8-1.9L52.7,45.7z M87.8,45.6l-13.6,1.8l1.8,1.9c1.3,1.4,2,3.1,2,4.9
			l0,1.2l9.4,1l0.1,0c2.9,0,5.3-2.4,5.3-5.3C92.9,48.1,90.6,45.7,87.8,45.6L87.8,45.6z"/>
	</g>
</g>
<g id="Screen_4">
</g>
<g id="Screen_9">
</g>
</svg>
