<?xml version="1.0" encoding="utf-8"?>
<!-- Generator: Adobe Illustrator 22.0.1, SVG Export Plug-In . SVG Version: 6.00 Build 0)  -->
<svg version="1.1" xmlns="http://www.w3.org/2000/svg" xmlns:xlink="http://www.w3.org/1999/xlink" x="0px" y="0px"
	 viewBox="0 0 152.4 152.4" style="enable-background:new 0 0 152.4 152.4;" xml:space="preserve">
<style type="text/css">
	.st0{fill:#FFFFFF;}
	.st1{fill:#1E242B;stroke:#C2D52E;stroke-width:4;stroke-miterlimit:10;}
	.st2{clip-path:url(#SVGID_2_);}
	.st3{clip-path:url(#SVGID_4_);}
	.st4{fill:#231F20;}
	.st5{display:none;fill:#231F20;stroke:#FFFFFF;stroke-width:5;stroke-miterlimit:10;}
	.st6{clip-path:url(#SVGID_6_);fill:#231F20;}
	.st7{clip-path:url(#SVGID_8_);}
	.st8{clip-path:url(#SVGID_10_);fill:#231F20;}
	.st9{fill:none;}
	.st10{clip-path:url(#SVGID_12_);fill:#231F20;}
	.st11{fill:#EC1C24;}
	.st12{clip-path:url(#SVGID_16_);fill:#FFFFFF;}
	.st13{clip-path:url(#SVGID_18_);fill:#FFFFFF;}
	.st14{clip-path:url(#SVGID_20_);}
	.st15{clip-path:url(#SVGID_22_);}
	.st16{clip-path:url(#SVGID_24_);}
	.st17{clip-path:url(#SVGID_26_);}
	.st18{fill:#1E242B;}
	.st19{fill:#1E242B;stroke:#FFFFFF;stroke-miterlimit:10;}
	.st20{fill:none;stroke:#FFFFFF;stroke-width:2;stroke-miterlimit:10;}
	.st21{clip-path:url(#SVGID_30_);}
	.st22{clip-path:url(#SVGID_32_);}
	.st23{clip-path:url(#SVGID_34_);}
	.st24{clip-path:url(#SVGID_36_);}
	.st25{clip-path:url(#SVGID_38_);}
	.st26{clip-path:url(#SVGID_40_);}
	.st27{clip-path:url(#SVGID_44_);}
	.st28{clip-path:url(#SVGID_46_);}
	.st29{clip-path:url(#SVGID_48_);fill:#231F20;}
	.st30{clip-path:url(#SVGID_50_);fill:#FFFFFF;}
	.st31{clip-path:url(#SVGID_52_);}
	.st32{clip-path:url(#SVGID_54_);fill:#FFFFFF;}
	.st33{clip-path:url(#SVGID_56_);}
	.st34{clip-path:url(#SVGID_58_);}
	.st35{fill:#1E242B;stroke:#FFFFFF;stroke-width:2;stroke-miterlimit:10;}
	.st36{clip-path:url(#SVGID_60_);}
	.st37{display:none;}
	.st38{display:inline;fill:#FFFFFF;stroke:#FFFFFF;stroke-miterlimit:10;}
	.st39{clip-path:url(#SVGID_64_);}
	.st40{display:none;fill:#231F20;}
	.st41{fill-rule:evenodd;clip-rule:evenodd;fill:#231F20;}
	.st42{fill-rule:evenodd;clip-rule:evenodd;fill:#FFFFFF;}
	.st43{clip-path:url(#SVGID_68_);}
	.st44{fill:none;stroke:#000000;stroke-width:3;stroke-miterlimit:10;}
</style>
<g id="Screen_3">
	<g class="st37">
		<polygon class="st38" points="119.6,56.8 84.6,83.8 74.8,105.4 99.3,99.1 132.4,72.5 		"/>
	</g>
	<g>
		<path class="st4" d="M86.7,61.9C74.1,52.7,69.9,45.1,69.4,42c-0.3-1.8-0.2-3.1,0.8-4.5c0.8-1.1,2-1,2.8-1c0.2,0,0.5,0,0.7,0
			c0.4,0,1.1-0.1,1.5-0.2c4.7-6.2,12-9.7,20-9.7l2.2,0L90.7,36c-0.4,0.6-0.3,1.4,0.3,1.9c0.6,0.4,1.4,0.3,1.9-0.3l7.5-10.4l0.7,0.2
			c1.5,0.4,2.9,0.8,4.3,1.4l0.4-0.5c0.9-1.2,2.6-1.5,3.9-0.6l4.8,3.5c1.2,0.9,1.5,2.6,0.6,3.9l-0.4,0.5c1,1.2,2,2.4,2.8,3.8l0.4,0.6
			l-7.5,10.3c-0.4,0.6-0.3,1.4,0.3,1.9s1.4,0.3,1.9-0.3l6.7-9.2l0.7,2.1c2.5,7.6,1.3,15.6-3.1,22c0.6,1.7,0.7,2.2,0.8,2.4l0.1,0.3
			c0.2,0.8,0.4,1.8-0.4,2.8c-1,1.2-4,2.1-9.5,1.1c-5.7-1.1-14.9-7.1-19.8-10.6C87.5,62.4,87.1,62.1,86.7,61.9z M93,29
			c-6.5,0.6-12.2,3.7-16.1,8.9l-0.2,0.2l-0.4,0.4L76,38.5c-0.1,0-1.4,0.2-2.1,0.3c-0.3,0-0.6,0-0.9,0c-0.6,0-0.8,0-0.9,0.1
			c-0.5,0.7-0.7,1.2-0.4,2.8c0,0.1,1.4,7.9,17.6,19.3c3.9,2.7,13.5,9.2,19,10.2c5,0.9,7,0,7.3-0.3c0.1-0.1,0.1-0.2,0-0.9l-0.1-0.3
			c0-0.1-0.1-0.5-0.9-2.7l-0.2-0.6l0.3-0.5c3.8-5.3,5.2-11.9,3.7-18.3l-4,5.5c-1.2,1.6-3.4,2-5,0.8c-1.6-1.2-2-3.4-0.8-5l6.6-9.1
			c-0.8-1.2-1.7-2.4-2.7-3.4l-0.6-0.7l1.5-2c0.2-0.2,0.1-0.6-0.1-0.7l-4.8-3.5c-0.2-0.2-0.6-0.1-0.7,0.1l-1.5,2l-0.8-0.4
			c-1.3-0.6-2.6-1.1-4-1.5l-6.6,9.1c-1.2,1.6-3.4,2-5,0.8c-1.6-1.2-2-3.4-0.8-5L93,29z"/>
		<g transform="translate(1 1)">
			<path d="M97.7,78.2l-4.3-3.9c-0.5-0.4-1.1-0.7-1.7-0.6c-0.6,0-1.2,0.4-1.6,0.8c-1-0.8-1-1-1-2c0-0.5,0-1.1-0.3-1.8
				c-0.3-1.6-1.2-3.2-2.6-4.5l-4.4-4c-2.6-2.3-3.8-3.5-7-4.7c-7-2.8-13.9-1.9-23.7,3.1c-0.6,0.3-0.8,0.7-0.6,1.3
				c0.1,0.6,0.6,0.9,1.2,0.9l1.5-0.1c5.2-0.2,7.9-0.4,12.8,4.1c2.2,2,2.4,5.1,0.6,7.5c-0.2,0-0.4,0.2-0.6,0.4l-3.5,4.3l0,0l-2.9,3.5
				l0,0l-3,3.7l0,0l-11.8,14.5l0,0l-13.3,16.3c-0.9,1-1.3,2.3-1.2,3.6c0.1,1.3,0.6,2.4,1.6,3.3l1.7,1.6c1,0.8,2.2,1.2,3.3,1.1
				c1.2-0.1,2.4-0.6,3.3-1.6l12.9-15.9l19.2-23.7l0,0l1.8-2.2c0.9,0.4,1.8,0.7,2.8,0.8c0.7,0.1,1.2,0.1,1.6,0c0.9,0,1.2-0.1,2.2,0.7
				c-0.5,0.4-0.7,1-0.6,1.6c0,0.6,0.3,1.3,0.8,1.7l4.3,3.9c0.6,0.7,1.6,1,2.5,0.9c0.9,0,1.9-0.4,2.4-1.3l7.9-8.7
				c0.7-0.6,1-1.6,0.9-2.5C98.9,79.7,98.5,78.9,97.7,78.2z M67.5,87.7c-0.1,0.1-0.3,0.2-0.4,0.3l-4.4,5.5c-0.1,0.1-0.2,0.3-0.3,0.5
				l-24,29.5c-0.9,1-2.4,1.2-3.4,0.3l-1.7-1.4c-0.5-0.4-0.8-1-0.8-1.6c0-0.7,0.2-1.3,0.7-1.9l0.6-0.8l1.8,1.6
				c0.2,0.2,0.5,0.3,0.8,0.3c0.4,0,0.6-0.1,0.8-0.4c0.4-0.5,0.4-1.2-0.1-1.6l-1.9-1.7l1.5-1.8l2,1.8c0.2,0.2,0.5,0.3,0.8,0.3
				c0.4,0,0.6-0.1,0.8-0.4c0.4-0.5,0.4-1.2-0.1-1.6l-2.1-1.9l28.6-35.2l5.2,4.7L67.5,87.7z M96.2,81.6l-7.9,8.7
				c-0.4,0.5-1.2,0.5-1.6,0.1l-4.3-3.9c0.5-0.4,0.7-1,0.5-1.7c0-0.6-0.3-1.3-0.8-1.7c-1.5-1.3-2.4-1.4-3.7-1.4c-0.4,0-0.8,0-1.4-0.1
				c-1.3-0.1-2.4-0.6-3.4-1.5l-5.3-4.8c2.4-3.3,2-7.7-1-10.4c-3.9-3.5-6.8-4.5-10-4.7c6.6-2.4,11.5-2.5,16.6-0.5
				c2.9,1,3.9,1.9,6.4,4.3l4.4,4c1,0.9,1.6,2,1.8,3.2c0.1,0.6,0.2,1.1,0.2,1.4c0.1,1.3,0.2,2.2,1.7,3.6c0.5,0.4,1.2,0.6,1.8,0.6
				c0.7,0,1.3-0.3,1.6-0.8l4.3,3.9c0.2,0.2,0.4,0.5,0.4,0.8S96.5,81.3,96.2,81.6z"/>
		</g>
	</g>
</g>
<g id="Screen_4">
</g>
<g id="Screen_9">
</g>
</svg>
